<svg version="1.1" id="Layer_1" xmlns="http://www.w3.org/2000/svg" xmlns:xlink="http://www.w3.org/1999/xlink" x="0px" y="0px"
	 width="576px" height="414px" viewBox="0 0 576 414" style="enable-background:new 0 0 576 414;" xml:space="preserve">
<style type="text/css">
	.st0{fill:#F5F5F5;}
	.st1{fill:#FF2020;}
	.st2{fill:none;stroke:#FF2020;stroke-width:2;stroke-miterlimit:10;}
	.st3{fill:none;stroke:#000000;stroke-width:2;stroke-miterlimit:10;}
	.st4{font-family:'Monaco';}
	.st5{font-size:18px;}
</style>
<g id="C9cpBc.tif">
	<g>
		<path class="st0" d="M288.5,8.5c20.6,0,41.2,0,61.7,0c8,0,18.3-1.9,25.8,1.7c9.6,4.5,7.7,14.6,7.7,23.5c0,9.5,0,19.1,0,28.6
			c0,10,1.7,22-0.2,31.8c-1.2,6.4-7.1,10.1-13.2,10.8c-10.5,1.3-22,0.1-32.6,0.1c-4.6,0-9.3-0.1-13.9,0c-5.8,0.1-2.6,0.6-4.1,4.4
			c-2.9,7.2-19.9,4.1-25.8,4.1c-9.1,0-18.1,0.2-27.2,0c-4.2-0.1-8.1-0.1-9.6-4.7c-1.3-3.8,1-3.9-4.4-3.9c-9.6,0-19.2,0-28.8,0
			c-8.4,0-20,2.2-26.8-4.1c-6.2-5.7-3.9-16-3.9-23.5c0-10.6,0-21.2,0-31.8c0-5.5,0-11.1,0-16.6c0-4.3-0.9-9.4,1.3-13.3
			c4.9-8.9,17-7.2,25.4-7.2C242.7,8.5,265.6,8.5,288.5,8.5z M288.4,21.6c-15.7,0-31.4,0-47.1,0c-7.4,0-14.8,0-22.2,0
			c-1.8,0-7.8-1.1-9.1,0.1c-1.2,1.1-0.3,8.8-0.3,10.3c0,15.1,0,30.1,0,45.2c0,3.6-0.1,7.3,0,11c0.1,4.1-0.1,3.6,3.8,3.7
			c8.3,0.3,16.6,0,24.9,0c30.4,0,60.9,0,91.3,0c7.4,0,14.8,0,22.1,0c3.7,0,7.4,0,11.1,0c4,0,3.4,0.6,4.1-2.7c1.5-6.5,0-15,0-21.7
			c0-7.7,0-15.4,0-23c0-4.3,2.2-20.4-0.7-22.8c-1.5-1.3-9.6-0.1-11.6-0.1c-4.6,0-9.2,0-13.8,0C323.5,21.6,305.9,21.6,288.4,21.6z"/>
		<path class="st0" d="M288.4,141.3c-27.3,0-54.7,0.4-82,0c-2.4,0-12.5,0.9-12-2.9c0.2-1.3,5.7-5.5,6.8-6.5c2.5-2.4,5.1-4.8,7.8-7
			c4.3-3.6,6.9-5.7,12.4-5.7c7.3-0.1,14.6,0,22,0c27.5,0,54.9,0,82.4,0c6.4,0,12.8,0,19.2,0c5.9,0,12.7-1.3,17.9,1.7
			c4.9,2.9,9,7.5,13.1,11.4c3.1,2.9,10.5,7.3,2.8,8.7c-6.8,1.2-14.4,0.3-21.3,0.3c-7.8,0-15.6,0-23.4,0
			C318.9,141.3,303.6,141.3,288.4,141.3z M265.7,135c0-0.6,6.8,1.2,4.6-2.7c-0.7-1.2-10.3-0.3-8.7,2.4
			C262,135.4,265.3,135,265.7,135z M311.1,135c0-0.2,8.6-0.6,1.4-2.8C306.7,130.5,303.9,135,311.1,135z M299.7,135
			c0,0.6,9.8-1.7,0.9-2.8C294.8,131.5,293.5,135,299.7,135z M260.2,132.6c-3.2-0.9-8.3-1.3-9.9,2.2
			C253.6,136,258.4,135.7,260.2,132.6z M345.2,135.1c1.4,0,2.6,0,3.9-0.2c-1.9-3.4-6.7-3.3-10.1-2.3
			C340.5,135.2,342.3,135.1,345.2,135.1z M227.6,134.7c0.6,2.9,11.8-1.2,10.4-2.3C235.4,130.3,229.4,132.9,227.6,134.7z
			 M220.2,135.1c0,1.6,6.8-2.1,7.1-2.5c-2.8-1.1-9.4-0.9-10.9,2.3C217.5,135.3,219.1,135.1,220.2,135.1z M371.8,134.9
			c1.2-3-9.9-2.7-11-2.5C363.5,135.8,367.9,135.4,371.8,134.9z M288.4,135c0,0,9.3-1.4,1.5-2.8C284.8,131.2,281.6,135,288.4,135z
			 M277,135.1c0,0.2,9.5-0.9,2.4-2.8C274.8,131,269.7,135.1,277,135.1z M205,134.7c0.2,2.4,10.1-0.6,11.5-2.2
			C212.5,131.1,208.2,132.5,205,134.7z M356.5,135.1c0.8,0,3.1,0.4,3.8-0.3c0.8-0.7-3-2.3-3.4-2.4c-1.9-0.7-5-0.3-7,0.1
			C351.7,135.2,353.5,135.1,356.5,135.1z M249.2,132.8c-0.2-2.2-9.2-0.4-10.2,2C242.6,136,246.7,135.4,249.2,132.8z M309.9,130.2
			c0,0,7,0,2.2-2.8C307.8,124.9,301.5,130.2,309.9,130.2z M288.6,130.2c0,0,3.7,0.2,4-0.3c1.9-2.8-2.3-2.5-3.5-2.5
			C284.3,127.3,283.2,130.2,288.6,130.2z M278.1,130.2c0,0.6,10.2-2.6,0.9-2.8C274.3,127.3,272.3,130.2,278.1,130.2z M256.9,130.2
			c0,1.6,5-1.5,5.4-2.5c-3-1.1-7.7-1.2-9.2,2.2C254.3,130.4,255.6,130.2,256.9,130.2z M235.6,130.3c2.7,0,4.8-0.1,6.3-2.5
			c-3.2-1.3-7.9-0.7-10,2.3C233.1,130.4,234.4,130.3,235.6,130.3z M246.2,130.2c0,1.7,5.5-1.7,5.9-2.5c-0.4-0.1-11-1-9.5,2.3
			C242.9,130.6,245.9,130.2,246.2,130.2z M267.4,130.2c0-0.3,7.3,0.3,4-2.8c-0.8-0.8-9.3-0.2-7.6,2.6
			C264.1,130.6,267,130.2,267.4,130.2z M299.3,130.2c0,0.2,9.5-2.4-0.3-2.8C293.6,127.2,294.7,130.2,299.3,130.2z M210.8,129.9
			c1.3,2.4,9.9-0.3,11-2.5C217.4,127.2,214.2,127.1,210.8,129.9z M356.1,127.5c-1.3,3.2,9.4,2.7,10.4,2.5
			C363.9,127,359.9,127.1,356.1,127.5z M341.7,130.2c0,0.2,3.5-0.2,3.7-0.2c-1-1.6-7.8-4.7-9.1-2.5
			C334.7,130.2,340.4,130.2,341.7,130.2z M225,130.3c0,1.6,6.4-2.1,6.8-2.6c-2.8-0.7-8.7-0.8-10.3,2.4
			C222.5,130.5,223.9,130.3,225,130.3z M352.3,130.3c0,0.2,3.3-0.1,3.6-0.2c-0.9-2-9.4-4.4-9.8-2.4
			C345.6,130.3,351.3,130.3,352.3,130.3z M254.4,123.1c-3-0.7-7.7-0.9-9.3,2.3C248.4,126.8,252.2,125.8,254.4,123.1z M307.6,125.7
			c4.1,0,4.5-1.9,0.6-2.8C302.8,121.6,301.5,125.7,307.6,125.7z M268.1,125.7c0-0.6,6.2,1.1,4.3-2.7c-0.5-1-9.2-0.4-7.7,2.4
			C265.8,125.9,266.9,126,268.1,125.7z M278,125.7c4,0,6.5-2.8,0.8-2.8C275,122.9,272.2,125.7,278,125.7z M215.4,125.2
			c2,2.4,8.8,0,10.5-2.1C222.2,121.5,218.7,123.8,215.4,125.2z M287.9,125.7c5.9,0,4-3.7-0.7-2.8
			C283.4,123.6,283.2,125.7,287.9,125.7z M337.2,125.7c1.2,0.4,2.3,0.3,3.3-0.3c1.4-3.3-8.4-2.5-8.9-2.3
			C332.9,125.7,334.3,125.7,337.2,125.7z M347.1,125.7c0-0.3,3.1,0.4,3.3-0.2c0.7-2.3-8.7-3.7-9.3-2.3
			C339.9,125.5,346.6,125.7,347.1,125.7z M297.7,125.7c3.6,0,5.2-1.8,1-2.8C293.8,121.7,291.6,125.7,297.7,125.7z M225.4,125.5
			c1,1.8,9.6,0,10-2.5C231.9,122.5,227.8,122.6,225.4,125.5z M258.3,125.7c0.6,0,6.6-0.1,5-2.6c-0.8-1.3-9.8-0.1-8.4,2.4
			C256,125.9,257.2,126,258.3,125.7z M244.8,123.1c-2.8-0.7-8.1-0.9-9.5,2.4C238.5,126.7,242.9,125.9,244.8,123.1z M350.4,122.9
			c-1.1,2.1,8.8,4.2,9.8,2.5C357.2,122.6,354.4,122.7,350.4,122.9z"/>
	</g>
</g>
<g>
	<g>
		<path class="st0" d="M81.4,222c0-0.5,0-0.9,0-1.4c0-6.4,0-12.9,0-19.3c0-3,1.4-4.4,4.4-4.4c19.5,0,39.1,0,58.6,0
			c3.1,0,4.5,1.4,4.5,4.5c0,4.3,0,8.6,0,13c0,0.4,0,0.8,0,1.1c0.2,0.1,0.2,0.1,0.3,0.1c3,0.2,3.5,0.7,3.5,3.7c0,3.9,0,7.9,0,11.8
			c0,2.4-0.8,3.2-3.2,3.3c-0.1,0-0.3,0-0.6,0.1c0,0.5,0,0.9,0,1.4c0,8.9,0,17.7,0,26.6c0,3.1-1.4,4.5-4.5,4.5c-3.9,0-7.7,0-11.7,0
			c0,0.5,0,0.9,0,1.3c-0.1,2.2-1.6,3.7-3.8,3.7c-2.4,0-4.7,0-7.1,0c-2.6,0-4-1.4-4.1-4c0-0.3,0-0.6-0.1-0.9c-0.8,0-1.6,0-2.3,0
			c-0.5,3.5-0.7,3.7-4.3,3.7c-3.4,0-6.7,0-10.1,0c-2.4,0-3.2-0.7-3.3-3.2c0-0.1,0-0.3-0.1-0.5c-0.4,0-0.8,0-1.2,0
			c-3.6,0-7.2,0-10.8,0c-2.7,0-4.2-1.5-4.2-4.2c0-6.5,0-12.9,0-19.4c0-0.4,0-0.9,0-1.4c-0.5,0-0.9,0-1.3,0c-1.4-0.1-2.4-1-2.4-2.4
			c0-5.1,0-10.1,0-15.2c0-1.4,1-2.3,2.4-2.4C80.5,222,80.9,222,81.4,222z M94,240.8c0.8,0,1.5,0,2.2,0c0.8,0,1.4,0.3,1.5,1.2
			c0,0.9-0.6,1.3-1.5,1.3c-0.7,0-1.5,0-2.2,0c0,0.9,0,1.7,0,2.5c0.7,0,1.3,0,2,0c0.9,0,1.6,0.2,1.7,1.2c0.1,0.8-0.5,1.3-1.7,1.3
			c-2.5,0-4.9,0-7.4,0c-1.9,0-2.1-0.2-2.1-2.1c0-1.4,0-2.8,0-4.1c-0.9,0-1.7,0-2.5,0c0,0.2-0.1,0.4-0.1,0.6c0,6.8,0,13.6,0,20.4
			c0,1.1,0.5,1.5,1.6,1.5c3.8,0,7.6,0,11.4,0c0.2,0,0.5-0.1,0.8-0.1c0-2.8,0-5.5,0-8.3c0-1.9,1-2.8,2.8-2.9c4,0,7.9,0,11.9,0
			c1.8,0,2.8,1,2.8,2.8c0,2.4,0,4.9,0,7.3c0,0.4,0,0.8,0,1.1c0.9,0,1.7,0,2.5,0c0-0.4,0-0.8,0-1.2c0-5.3,0-10.6,0-15.9
			c0-2,0.9-2.9,2.9-2.9c3,0,6,0,9,0c2.2,0,3.1,0.9,3.1,3.1c0,5.2,0,10.4,0,15.6c0,0.4,0,0.8,0.1,1.2c0.4,0,0.7,0,1,0
			c3.6,0,7.1,0,10.7,0c1.6,0,2-0.3,2-1.9c0-9,0-18,0-27c0-0.3,0-0.7,0-1.1c-3.7,0-7.2,0-10.8,0c-2,0-3-0.9-3-2.9c0-4.3,0-8.6,0-12.9
			c0-2.1,0.9-3,3-3c3.2,0,6.4,0,9.5,0c0.4,0,0.7,0,1.2-0.1c0-0.5,0-0.8,0-1.2c0-4.3,0-8.6,0-13c0-1.7-0.3-2-2-2
			c-19.5,0-39.1,0-58.6,0c-1.6,0-1.9,0.3-1.9,1.9c0,6.5,0,12.9,0,19.4c0,0.4,0,0.7,0.1,1.1c0.9,0,1.6,0,2.5,0c0-1.6,0-3.1,0-4.6
			c0-1.1,0.4-1.5,1.4-1.6c2.8,0,5.6,0,8.4,0c0.8,0,1.4,0.4,1.4,1.3c0,0.9-0.6,1.2-1.4,1.2c-0.7,0-1.5,0-2.2,0c0,0.9,0,1.7,0,2.5
			c0.8,0,1.4,0,2.1,0c0.9,0,1.5,0.3,1.5,1.3S97,223,96.2,223c-0.7,0-1.4,0-2.1,0c0,0.9,0,1.7,0,2.5c0.8,0,1.4,0,2.1,0
			c0.9,0,1.5,0.3,1.5,1.3c0,0.9-0.6,1.2-1.4,1.2c-0.7,0-1.5,0-2.2,0c0,0.9,0,1.6,0,2.5c0.8,0,1.5,0,2.3,0s1.4,0.4,1.4,1.3
			c0,0.8-0.6,1.2-1.4,1.2c-0.7,0-1.5,0-2.3,0c0,0.9,0,1.6,0,2.5c0.8,0,1.5,0,2.2,0c0.8,0,1.4,0.3,1.5,1.2c0,1-0.6,1.3-1.5,1.3
			c-0.7,0-1.5,0-2.2,0C94,239.2,94,239.9,94,240.8z M150.1,231.9c0-4.6,0-9.1,0-13.6c-5,0-9.9,0-14.9,0c0,4.6,0,9.1,0,13.6
			C140.2,231.9,145.1,231.9,150.1,231.9z M112.6,268.2c0-4.2,0-8.3,0-12.4c-4.2,0-8.2,0-12.4,0c0,4.2,0,8.2,0,12.4
			C104.4,268.2,108.5,268.2,112.6,268.2z M130.1,259.5c0-4.2,0-8.3,0-12.4c-3.3,0-6.6,0-9.8,0c0,4.2,0,8.3,0,12.4c1.3,0,2.4,0,3.6,0
			c0-0.3,0.1-0.6,0.1-0.9c0-1.3,0-2.6,0-4c0-0.8,0.4-1.3,1.3-1.3c0.8,0,1.2,0.5,1.2,1.2c0,0.5,0,1.1,0,1.6c0,1.1,0,2.2,0,3.3
			C127.8,259.5,128.9,259.5,130.1,259.5z M80.3,239.4c2.1,0,4.1,0,6.1,0c0-5,0-9.9,0-14.9c-2.1,0-4.1,0-6.1,0
			C80.3,229.6,80.3,234.5,80.3,239.4z M120.2,262.1c0,2.2-0.1,4.2,0.1,6.3c0,0.4,0.7,1.1,1.2,1.1c2.5,0.1,5.1,0.1,7.6,0
			c0.4,0,1.1-0.7,1.1-1c0.1-2.1,0.1-4.2,0.1-6.3C126.9,262.1,123.6,262.1,120.2,262.1z M89,218.3c0,9.2,0,18.3,0,27.4
			c0.8,0,1.6,0,2.3,0c0-9.2,0-18.3,0-27.4C90.6,218.3,89.8,218.3,89,218.3z"/>
		<path class="st1" d="M115.2,242c-2.4,0-4.8,0-7.2,0c-1.8,0-2.8-1-2.8-2.8c0-2.7,0.1-5.4,0.1-8.1c0-2-0.1-4.1-0.1-6.1
			s0.9-2.9,3-2.9c4.7,0,9.4,0,14.1,0c2,0,2.9,0.9,2.9,2.9c0,2.7-0.1,5.5-0.1,8.2c0,2,0.1,4.1,0.1,6.1c0.1,1.7-1,2.8-2.6,2.8
			C120.1,242,117.6,242,115.2,242z M122.7,239.5c0-5,0-10,0-14.9c-5.1,0-10,0-15,0c0,5,0,9.9,0,14.9
			C112.8,239.5,117.7,239.5,122.7,239.5z"/>
		<path class="st0" d="M90.2,262c-2.1,0-3.8-1.6-3.8-3.7s1.6-3.8,3.7-3.8c2,0,3.8,1.7,3.8,3.7C94,260.3,92.3,262,90.2,262z
			 M91.6,258.6c0-0.2,0-0.3,0-0.5c-0.4-0.3-0.9-0.9-1.4-1c-0.7-0.2-1.2,0.4-1.3,1.1c-0.1,0.8,0.4,1.4,1.2,1.3
			C90.7,259.4,91.1,258.9,91.6,258.6z"/>
		<path class="st0" d="M90.1,209.5c-2.1,0-3.7-1.7-3.7-3.8s1.7-3.7,3.8-3.7c2.1,0,3.7,1.8,3.7,3.8C93.9,207.9,92.2,209.5,90.1,209.5
			z M91.6,206c0-0.2,0-0.3,0-0.5c-0.5-0.3-0.9-0.8-1.4-0.9c-0.7-0.1-1.2,0.4-1.2,1.2c0,0.7,0.6,1.4,1.3,1.2
			C90.8,206.8,91.2,206.3,91.6,206z"/>
		<path class="st0" d="M144,258.3c0,2.1-1.7,3.7-3.8,3.7s-3.7-1.7-3.7-3.8c0-2.1,1.8-3.7,3.8-3.7C142.3,254.6,144,256.3,144,258.3z
			 M141.6,258.5c0-0.2,0-0.3,0-0.5c-0.5-0.3-0.9-0.8-1.4-0.9c-0.7-0.1-1.2,0.4-1.2,1.2c0,0.8,0.5,1.4,1.2,1.2
			C140.7,259.4,141.2,258.8,141.6,258.5z"/>
		<path class="st0" d="M144,205.8c0,2.1-1.6,3.7-3.7,3.7c-2.1,0-3.8-1.7-3.8-3.7c0-2.1,1.7-3.8,3.7-3.8
			C142.3,202,143.9,203.7,144,205.8z M141.6,206c0-0.2,0-0.3,0-0.5c-0.5-0.3-0.9-0.8-1.4-0.9c-0.7-0.1-1.2,0.4-1.2,1.2
			s0.5,1.3,1.3,1.2C140.8,206.9,141.2,206.3,141.6,206z"/>
		<path class="st0" d="M108,201.9c0.3,0.5,0.8,0.9,0.9,1.4c0.1,0.7-0.4,1.2-1.2,1.2c-0.7,0-1.4-0.6-1.2-1.3c0.2-0.5,0.6-0.9,1-1.4
			C107.6,201.8,107.8,201.8,108,201.9z"/>
		<path class="st0" d="M122.5,204.7c-0.3-0.5-0.9-0.9-1-1.4c-0.1-0.7,0.4-1.2,1.1-1.3s1.5,0.6,1.3,1.2c-0.1,0.5-0.6,0.9-0.9,1.4
			C122.8,204.7,122.6,204.7,122.5,204.7z"/>
		<path class="st0" d="M104.1,203.6c-0.5,0.3-0.9,0.8-1.4,0.9c-0.8,0.1-1.2-0.5-1.2-1.3s0.6-1.3,1.3-1.1c0.5,0.1,0.9,0.7,1.4,1
			C104.1,203.2,104.1,203.4,104.1,203.6z"/>
		<path class="st0" d="M114.1,203.6c-0.5,0.3-0.9,0.8-1.4,0.9c-0.7,0.1-1.2-0.4-1.2-1.2c0-0.7,0.6-1.4,1.3-1.2
			c0.5,0.2,0.9,0.7,1.4,1C114.1,203.2,114.1,203.4,114.1,203.6z"/>
		<path class="st0" d="M99.1,203.5c-0.5,0.3-0.9,0.9-1.4,1c-0.7,0.2-1.2-0.3-1.3-1.1c-0.1-0.7,0.5-1.5,1.2-1.3
			c0.5,0.1,1,0.6,1.4,0.9C99.1,203.1,99.1,203.3,99.1,203.5z"/>
		<path class="st0" d="M117.5,204.7c-0.3-0.5-0.9-0.9-0.9-1.4c-0.1-0.8,0.4-1.3,1.2-1.2c0.8,0,1.3,0.5,1.1,1.2
			c-0.1,0.5-0.6,0.9-0.9,1.4C117.8,204.7,117.6,204.7,117.5,204.7z"/>
		<path class="st0" d="M128,201.8c0.3,0.5,0.8,0.9,0.9,1.4c0.1,0.8-0.5,1.3-1.3,1.2c-0.8,0-1.2-0.6-1.1-1.3c0.1-0.5,0.6-0.9,1-1.4
			C127.6,201.8,127.8,201.8,128,201.8z"/>
		<path class="st0" d="M134.1,203.5c-0.5,0.3-0.9,0.9-1.4,1c-0.7,0.2-1.2-0.4-1.3-1.1c-0.1-0.8,0.4-1.4,1.2-1.3
			c0.5,0.1,0.9,0.6,1.4,0.9C134.1,203.1,134.1,203.3,134.1,203.5z"/>
		<path class="st0" d="M99.1,208.5c-0.5,0.3-0.9,0.8-1.4,0.9c-0.8,0.1-1.3-0.4-1.2-1.2c0-0.8,0.5-1.3,1.2-1.1
			c0.5,0.1,0.9,0.6,1.4,0.9C99.1,208.2,99.1,208.3,99.1,208.5z"/>
		<path class="st0" d="M102.9,206.9c0.3,0.5,0.9,0.9,0.9,1.4c0.1,0.8-0.4,1.3-1.2,1.2c-0.8,0-1.3-0.5-1.2-1.2
			c0.1-0.5,0.6-0.9,0.9-1.4C102.6,206.9,102.8,206.9,102.9,206.9z"/>
		<path class="st0" d="M113,206.9c0.3,0.5,0.8,0.9,0.9,1.4c0.1,0.7-0.4,1.2-1.2,1.2c-0.8,0-1.4-0.5-1.2-1.3c0.1-0.5,0.6-0.9,1-1.4
			C112.7,206.8,112.8,206.9,113,206.9z"/>
		<path class="st0" d="M117.4,209.7c-0.3-0.5-0.8-0.9-0.9-1.4c-0.1-0.7,0.4-1.2,1.2-1.2c0.8,0,1.4,0.5,1.2,1.3
			c-0.1,0.5-0.6,0.9-1,1.4C117.8,209.7,117.6,209.7,117.4,209.7z"/>
		<path class="st0" d="M129.1,208.5c-0.5,0.3-0.9,0.8-1.4,0.9c-0.7,0.1-1.2-0.4-1.2-1.1c0-0.8,0.5-1.4,1.2-1.2
			c0.5,0.1,0.9,0.6,1.4,0.9C129.1,208.2,129.1,208.3,129.1,208.5z"/>
		<path class="st0" d="M133,206.9c0.3,0.5,0.8,0.9,0.9,1.4c0.1,0.7-0.4,1.2-1.2,1.2s-1.4-0.5-1.2-1.2c0.1-0.5,0.6-0.9,0.9-1.4
			C132.6,206.8,132.8,206.9,133,206.9z"/>
		<path class="st0" d="M107.5,209.7c-0.4-0.4-0.9-0.9-1-1.4c-0.2-0.7,0.3-1.2,1.1-1.3c0.8-0.1,1.4,0.4,1.3,1.2
			c-0.1,0.5-0.6,1-0.9,1.4C107.8,209.7,107.7,209.7,107.5,209.7z"/>
		<path class="st0" d="M122.5,209.7c-0.4-0.4-0.9-0.9-1-1.4c-0.2-0.7,0.3-1.2,1.1-1.3c0.8-0.1,1.4,0.4,1.3,1.2
			c-0.1,0.5-0.6,1-0.9,1.4C122.8,209.7,122.7,209.7,122.5,209.7z"/>
		<path class="st0" d="M141.5,227c0.7,0,1.5,0,2.2,0c0.8,0,1.4,0.4,1.4,1.3c0,0.9-0.6,1.2-1.4,1.3c-1.6,0-3.1,0-4.7,0
			c-0.8,0-1.4-0.4-1.3-1.3c0-0.8,0.6-1.2,1.4-1.2C139.9,227,140.7,227,141.5,227z"/>
		<path class="st0" d="M141.5,220.8c0.8,0,1.6,0,2.3,0c0.8,0,1.3,0.4,1.3,1.2s-0.5,1.3-1.3,1.3c-1.6,0-3.3,0-4.9,0
			c-0.8,0-1.3-0.5-1.3-1.3s0.5-1.2,1.3-1.2C139.9,220.8,140.7,220.8,141.5,220.8z"/>
		<path class="st0" d="M107.7,262c0-0.5-0.1-1,0-1.4c0.2-0.4,0.7-1,1.1-1c0.5,0,1.2,0.5,1.3,0.9c0.2,1,0.2,2,0,3
			c-0.1,0.4-0.8,1-1.2,0.9c-0.4-0.1-0.9-0.6-1.2-1.1C107.6,263,107.7,262.5,107.7,262L107.7,262z"/>
		<path class="st0" d="M105.2,262c0,0.4,0,0.9,0,1.3c0,0.8-0.5,1.3-1.3,1.3c-0.7,0-1.2-0.5-1.2-1.2c0-0.8,0-1.6,0-2.4
			s0.5-1.3,1.3-1.3s1.1,0.5,1.2,1.2C105.2,261.2,105.2,261.6,105.2,262z"/>
	</g>
	<g>
		<path class="st0" d="M167.8,222c0-0.5,0-0.9,0-1.4c0-6.4,0-12.9,0-19.3c0-3,1.4-4.4,4.4-4.4c19.5,0,39.1,0,58.6,0
			c3.1,0,4.5,1.4,4.5,4.5c0,4.3,0,8.6,0,13c0,0.4,0,0.8,0,1.1c0.2,0.1,0.2,0.1,0.3,0.1c3,0.2,3.5,0.7,3.5,3.7c0,3.9,0,7.9,0,11.8
			c0,2.4-0.8,3.2-3.2,3.3c-0.1,0-0.3,0-0.6,0.1c0,0.5,0,0.9,0,1.4c0,8.9,0,17.7,0,26.6c0,3.1-1.4,4.5-4.5,4.5c-3.9,0-7.7,0-11.7,0
			c0,0.5,0,0.9,0,1.3c-0.1,2.2-1.6,3.7-3.8,3.7c-2.4,0-4.7,0-7.1,0c-2.6,0-4-1.4-4.1-4c0-0.3,0-0.6-0.1-0.9c-0.8,0-1.6,0-2.3,0
			c-0.5,3.5-0.7,3.7-4.3,3.7c-3.4,0-6.7,0-10.1,0c-2.4,0-3.2-0.7-3.3-3.2c0-0.1,0-0.3-0.1-0.5c-0.4,0-0.8,0-1.2,0
			c-3.6,0-7.2,0-10.8,0c-2.7,0-4.2-1.5-4.2-4.2c0-6.5,0-12.9,0-19.4c0-0.4,0-0.9,0-1.4c-0.5,0-0.9,0-1.3,0c-1.4-0.1-2.4-1-2.4-2.4
			c0-5.1,0-10.1,0-15.2c0-1.4,1-2.3,2.4-2.4C166.9,222,167.3,222,167.8,222z M180.4,240.8c0.8,0,1.5,0,2.2,0c0.8,0,1.4,0.3,1.5,1.2
			c0,0.9-0.6,1.3-1.5,1.3c-0.7,0-1.5,0-2.2,0c0,0.9,0,1.7,0,2.5c0.7,0,1.3,0,2,0c0.9,0,1.6,0.2,1.7,1.2c0.1,0.8-0.5,1.3-1.7,1.3
			c-2.5,0-4.9,0-7.4,0c-1.9,0-2.1-0.2-2.1-2.1c0-1.4,0-2.8,0-4.1c-0.9,0-1.7,0-2.5,0c0,0.2-0.1,0.4-0.1,0.6c0,6.8,0,13.6,0,20.4
			c0,1.1,0.5,1.5,1.6,1.5c3.8,0,7.6,0,11.4,0c0.2,0,0.5-0.1,0.8-0.1c0-2.8,0-5.5,0-8.3c0-1.9,1-2.8,2.8-2.9c4,0,7.9,0,11.9,0
			c1.8,0,2.8,1,2.8,2.8c0,2.4,0,4.9,0,7.3c0,0.4,0,0.8,0,1.1c0.9,0,1.7,0,2.5,0c0-0.4,0-0.8,0-1.2c0-5.3,0-10.6,0-15.9
			c0-2,0.9-2.9,2.9-2.9c3,0,6,0,9,0c2.2,0,3.1,0.9,3.1,3.1c0,5.2,0,10.4,0,15.6c0,0.4,0,0.8,0.1,1.2c0.4,0,0.7,0,1,0
			c3.6,0,7.1,0,10.7,0c1.6,0,2-0.3,2-1.9c0-9,0-18,0-27c0-0.3,0-0.7,0-1.1c-3.7,0-7.2,0-10.8,0c-2,0-3-0.9-3-2.9c0-4.3,0-8.6,0-12.9
			c0-2.1,0.9-3,3-3c3.2,0,6.4,0,9.5,0c0.4,0,0.7,0,1.2-0.1c0-0.5,0-0.8,0-1.2c0-4.3,0-8.6,0-13c0-1.7-0.3-2-2-2
			c-19.5,0-39.1,0-58.6,0c-1.6,0-1.9,0.3-1.9,1.9c0,6.5,0,12.9,0,19.4c0,0.4,0,0.7,0.1,1.1c0.9,0,1.6,0,2.5,0c0-1.6,0-3.1,0-4.6
			c0-1.1,0.4-1.5,1.4-1.6c2.8,0,5.6,0,8.4,0c0.8,0,1.4,0.4,1.4,1.3c0,0.9-0.6,1.2-1.4,1.2c-0.7,0-1.5,0-2.2,0c0,0.9,0,1.7,0,2.5
			c0.8,0,1.4,0,2.1,0c0.9,0,1.5,0.3,1.5,1.3s-0.7,1.2-1.5,1.2c-0.7,0-1.4,0-2.1,0c0,0.9,0,1.7,0,2.5c0.8,0,1.4,0,2.1,0
			c0.9,0,1.5,0.3,1.5,1.3c0,0.9-0.6,1.2-1.4,1.2c-0.7,0-1.5,0-2.2,0c0,0.9,0,1.6,0,2.5c0.8,0,1.5,0,2.3,0s1.4,0.4,1.4,1.3
			c0,0.8-0.6,1.2-1.4,1.2c-0.7,0-1.5,0-2.3,0c0,0.9,0,1.6,0,2.5c0.8,0,1.5,0,2.2,0c0.8,0,1.4,0.3,1.5,1.2c0,1-0.6,1.3-1.5,1.3
			c-0.7,0-1.5,0-2.2,0C180.4,239.2,180.4,239.9,180.4,240.8z M236.5,231.9c0-4.6,0-9.1,0-13.6c-5,0-9.9,0-14.9,0c0,4.6,0,9.1,0,13.6
			C226.6,231.9,231.5,231.9,236.5,231.9z M199,268.2c0-4.2,0-8.3,0-12.4c-4.2,0-8.2,0-12.4,0c0,4.2,0,8.2,0,12.4
			C190.8,268.2,194.9,268.2,199,268.2z M216.5,259.5c0-4.2,0-8.3,0-12.4c-3.3,0-6.6,0-9.8,0c0,4.2,0,8.3,0,12.4c1.3,0,2.4,0,3.6,0
			c0-0.3,0.1-0.6,0.1-0.9c0-1.3,0-2.6,0-4c0-0.8,0.4-1.3,1.3-1.3c0.8,0,1.2,0.5,1.2,1.2c0,0.5,0,1.1,0,1.6c0,1.1,0,2.2,0,3.3
			C214.2,259.5,215.3,259.5,216.5,259.5z M166.7,239.4c2.1,0,4.1,0,6.1,0c0-5,0-9.9,0-14.9c-2.1,0-4.1,0-6.1,0
			C166.7,229.6,166.7,234.5,166.7,239.4z M206.6,262.1c0,2.2-0.1,4.2,0.1,6.3c0,0.4,0.7,1.1,1.2,1.1c2.5,0.1,5.1,0.1,7.6,0
			c0.4,0,1.1-0.7,1.1-1c0.1-2.1,0.1-4.2,0.1-6.3C213.3,262.1,210,262.1,206.6,262.1z M175.4,218.3c0,9.2,0,18.3,0,27.4
			c0.8,0,1.6,0,2.3,0c0-9.2,0-18.3,0-27.4C177,218.3,176.2,218.3,175.4,218.3z"/>
		<path class="st0" d="M201.6,242c-2.4,0-4.8,0-7.2,0c-1.8,0-2.8-1-2.8-2.8c0-2.7,0.1-5.4,0.1-8.1c0-2-0.1-4.1-0.1-6.1
			s0.9-2.9,3-2.9c4.7,0,9.4,0,14.1,0c2,0,2.9,0.9,2.9,2.9c0,2.7-0.1,5.5-0.1,8.2c0,2,0.1,4.1,0.1,6.1c0.1,1.7-1,2.8-2.6,2.8
			C206.5,242,204,242,201.6,242z M209.1,239.5c0-5,0-10,0-14.9c-5.1,0-10,0-15,0c0,5,0,9.9,0,14.9
			C199.2,239.5,204.1,239.5,209.1,239.5z"/>
		<path class="st1" d="M176.6,262c-2.1,0-3.8-1.6-3.8-3.7s1.6-3.8,3.7-3.8c2,0,3.8,1.7,3.8,3.7C180.4,260.3,178.7,262,176.6,262z
			 M178,258.6c0-0.2,0-0.3,0-0.5c-0.4-0.3-0.9-0.9-1.4-1c-0.7-0.2-1.2,0.4-1.3,1.1c-0.1,0.8,0.4,1.4,1.2,1.3
			C177.1,259.4,177.5,258.9,178,258.6z"/>
		<path class="st0" d="M176.5,209.5c-2.1,0-3.7-1.7-3.7-3.8s1.7-3.7,3.8-3.7s3.7,1.8,3.7,3.8C180.3,207.9,178.6,209.5,176.5,209.5z
			 M178,206c0-0.2,0-0.3,0-0.5c-0.5-0.3-0.9-0.8-1.4-0.9c-0.7-0.1-1.2,0.4-1.2,1.2c0,0.7,0.6,1.4,1.3,1.2
			C177.2,206.8,177.6,206.3,178,206z"/>
		<path class="st0" d="M230.4,258.3c0,2.1-1.7,3.7-3.8,3.7s-3.7-1.7-3.7-3.8c0-2.1,1.8-3.7,3.8-3.7
			C228.7,254.6,230.4,256.3,230.4,258.3z M228,258.5c0-0.2,0-0.3,0-0.5c-0.5-0.3-0.9-0.8-1.4-0.9c-0.7-0.1-1.2,0.4-1.2,1.2
			c0,0.8,0.5,1.4,1.2,1.2C227.1,259.4,227.6,258.8,228,258.5z"/>
		<path class="st0" d="M230.4,205.8c0,2.1-1.6,3.7-3.7,3.7c-2.1,0-3.8-1.7-3.8-3.7c0-2.1,1.7-3.8,3.7-3.8
			C228.7,202,230.3,203.7,230.4,205.8z M228,206c0-0.2,0-0.3,0-0.5c-0.5-0.3-0.9-0.8-1.4-0.9c-0.7-0.1-1.2,0.4-1.2,1.2
			s0.5,1.3,1.3,1.2C227.2,206.9,227.6,206.3,228,206z"/>
		<path class="st0" d="M194.4,201.9c0.3,0.5,0.8,0.9,0.9,1.4c0.1,0.7-0.4,1.2-1.2,1.2c-0.7,0-1.4-0.6-1.2-1.3c0.2-0.5,0.6-0.9,1-1.4
			C194,201.8,194.2,201.8,194.4,201.9z"/>
		<path class="st0" d="M208.9,204.7c-0.3-0.5-0.9-0.9-1-1.4c-0.1-0.7,0.4-1.2,1.1-1.3c0.7-0.1,1.5,0.6,1.3,1.2
			c-0.1,0.5-0.6,0.9-0.9,1.4C209.2,204.7,209,204.7,208.9,204.7z"/>
		<path class="st0" d="M190.5,203.6c-0.5,0.3-0.9,0.8-1.4,0.9c-0.8,0.1-1.2-0.5-1.2-1.3s0.6-1.3,1.3-1.1c0.5,0.1,0.9,0.7,1.4,1
			C190.5,203.2,190.5,203.4,190.5,203.6z"/>
		<path class="st0" d="M200.5,203.6c-0.5,0.3-0.9,0.8-1.4,0.9c-0.7,0.1-1.2-0.4-1.2-1.2c0-0.7,0.6-1.4,1.3-1.2
			c0.5,0.2,0.9,0.7,1.4,1C200.5,203.2,200.5,203.4,200.5,203.6z"/>
		<path class="st0" d="M185.5,203.5c-0.5,0.3-0.9,0.9-1.4,1c-0.7,0.2-1.2-0.3-1.3-1.1c-0.1-0.7,0.5-1.5,1.2-1.3
			c0.5,0.1,1,0.6,1.4,0.9C185.5,203.1,185.5,203.3,185.5,203.5z"/>
		<path class="st0" d="M203.9,204.7c-0.3-0.5-0.9-0.9-0.9-1.4c-0.1-0.8,0.4-1.3,1.2-1.2c0.8,0,1.3,0.5,1.1,1.2
			c-0.1,0.5-0.6,0.9-0.9,1.4C204.2,204.7,204,204.7,203.9,204.7z"/>
		<path class="st0" d="M214.4,201.8c0.3,0.5,0.8,0.9,0.9,1.4c0.1,0.8-0.5,1.3-1.3,1.2c-0.8,0-1.2-0.6-1.1-1.3c0.1-0.5,0.6-0.9,1-1.4
			C214,201.8,214.2,201.8,214.4,201.8z"/>
		<path class="st0" d="M220.5,203.5c-0.5,0.3-0.9,0.9-1.4,1c-0.7,0.2-1.2-0.4-1.3-1.1c-0.1-0.8,0.4-1.4,1.2-1.3
			c0.5,0.1,0.9,0.6,1.4,0.9C220.5,203.1,220.5,203.3,220.5,203.5z"/>
		<path class="st0" d="M185.5,208.5c-0.5,0.3-0.9,0.8-1.4,0.9c-0.8,0.1-1.3-0.4-1.2-1.2c0-0.8,0.5-1.3,1.2-1.1
			c0.5,0.1,0.9,0.6,1.4,0.9C185.5,208.2,185.5,208.3,185.5,208.5z"/>
		<path class="st0" d="M189.3,206.9c0.3,0.5,0.9,0.9,0.9,1.4c0.1,0.8-0.4,1.3-1.2,1.2c-0.8,0-1.3-0.5-1.2-1.2
			c0.1-0.5,0.6-0.9,0.9-1.4C189,206.9,189.2,206.9,189.3,206.9z"/>
		<path class="st0" d="M199.4,206.9c0.3,0.5,0.8,0.9,0.9,1.4c0.1,0.7-0.4,1.2-1.2,1.2s-1.4-0.5-1.2-1.3c0.1-0.5,0.6-0.9,1-1.4
			C199.1,206.8,199.2,206.9,199.4,206.9z"/>
		<path class="st0" d="M203.8,209.7c-0.3-0.5-0.8-0.9-0.9-1.4c-0.1-0.7,0.4-1.2,1.2-1.2s1.4,0.5,1.2,1.3c-0.1,0.5-0.6,0.9-1,1.4
			C204.2,209.7,204,209.7,203.8,209.7z"/>
		<path class="st0" d="M215.5,208.5c-0.5,0.3-0.9,0.8-1.4,0.9c-0.7,0.1-1.2-0.4-1.2-1.1c0-0.8,0.5-1.4,1.2-1.2
			c0.5,0.1,0.9,0.6,1.4,0.9C215.5,208.2,215.5,208.3,215.5,208.5z"/>
		<path class="st0" d="M219.4,206.9c0.3,0.5,0.8,0.9,0.9,1.4c0.1,0.7-0.4,1.2-1.2,1.2s-1.4-0.5-1.2-1.2c0.1-0.5,0.6-0.9,0.9-1.4
			C219,206.8,219.2,206.9,219.4,206.9z"/>
		<path class="st0" d="M193.9,209.7c-0.4-0.4-0.9-0.9-1-1.4c-0.2-0.7,0.3-1.2,1.1-1.3s1.4,0.4,1.3,1.2c-0.1,0.5-0.6,1-0.9,1.4
			C194.2,209.7,194.1,209.7,193.9,209.7z"/>
		<path class="st0" d="M208.9,209.7c-0.4-0.4-0.9-0.9-1-1.4c-0.2-0.7,0.3-1.2,1.1-1.3s1.4,0.4,1.3,1.2c-0.1,0.5-0.6,1-0.9,1.4
			C209.2,209.7,209.1,209.7,208.9,209.7z"/>
		<path class="st0" d="M227.9,227c0.7,0,1.5,0,2.2,0c0.8,0,1.4,0.4,1.4,1.3c0,0.9-0.6,1.2-1.4,1.3c-1.6,0-3.1,0-4.7,0
			c-0.8,0-1.4-0.4-1.3-1.3c0-0.8,0.6-1.2,1.4-1.2C226.3,227,227.1,227,227.9,227z"/>
		<path class="st0" d="M227.9,220.8c0.8,0,1.6,0,2.3,0c0.8,0,1.3,0.4,1.3,1.2s-0.5,1.3-1.3,1.3c-1.6,0-3.3,0-4.9,0
			c-0.8,0-1.3-0.5-1.3-1.3s0.5-1.2,1.3-1.2C226.3,220.8,227.1,220.8,227.9,220.8z"/>
		<path class="st0" d="M194.1,262c0-0.5-0.1-1,0-1.4c0.2-0.4,0.7-1,1.1-1c0.5,0,1.2,0.5,1.3,0.9c0.2,1,0.2,2,0,3
			c-0.1,0.4-0.8,1-1.2,0.9s-0.9-0.6-1.2-1.1C194,263,194.1,262.5,194.1,262L194.1,262z"/>
		<path class="st0" d="M191.6,262c0,0.4,0,0.9,0,1.3c0,0.8-0.5,1.3-1.3,1.3c-0.7,0-1.2-0.5-1.2-1.2c0-0.8,0-1.6,0-2.4
			s0.5-1.3,1.3-1.3s1.1,0.5,1.2,1.2C191.6,261.2,191.6,261.6,191.6,262z"/>
	</g>
	<g>
		<path class="st0" d="M254.2,222c0-0.5,0-0.9,0-1.4c0-6.4,0-12.9,0-19.3c0-3,1.4-4.4,4.4-4.4c19.5,0,39.1,0,58.6,0
			c3.1,0,4.5,1.4,4.5,4.5c0,4.3,0,8.6,0,13c0,0.4,0,0.8,0,1.1c0.2,0.1,0.2,0.1,0.3,0.1c3,0.2,3.5,0.7,3.5,3.7c0,3.9,0,7.9,0,11.8
			c0,2.4-0.8,3.2-3.2,3.3c-0.1,0-0.3,0-0.6,0.1c0,0.5,0,0.9,0,1.4c0,8.9,0,17.7,0,26.6c0,3.1-1.4,4.5-4.5,4.5c-3.9,0-7.7,0-11.7,0
			c0,0.5,0,0.9,0,1.3c-0.1,2.2-1.6,3.7-3.8,3.7c-2.4,0-4.7,0-7.1,0c-2.6,0-4-1.4-4.1-4c0-0.3,0-0.6-0.1-0.9c-0.8,0-1.6,0-2.3,0
			c-0.5,3.5-0.7,3.7-4.3,3.7c-3.4,0-6.7,0-10.1,0c-2.4,0-3.2-0.7-3.3-3.2c0-0.1,0-0.3-0.1-0.5c-0.4,0-0.8,0-1.2,0
			c-3.6,0-7.2,0-10.8,0c-2.7,0-4.2-1.5-4.2-4.2c0-6.5,0-12.9,0-19.4c0-0.4,0-0.9,0-1.4c-0.5,0-0.9,0-1.3,0c-1.4-0.1-2.4-1-2.4-2.4
			c0-5.1,0-10.1,0-15.2c0-1.4,1-2.3,2.4-2.4C253.3,222,253.7,222,254.2,222z M266.8,240.8c0.8,0,1.5,0,2.2,0c0.8,0,1.4,0.3,1.5,1.2
			c0,0.9-0.6,1.3-1.5,1.3c-0.7,0-1.5,0-2.2,0c0,0.9,0,1.7,0,2.5c0.7,0,1.3,0,2,0c0.9,0,1.6,0.2,1.7,1.2c0.1,0.8-0.5,1.3-1.7,1.3
			c-2.5,0-4.9,0-7.4,0c-1.9,0-2.1-0.2-2.1-2.1c0-1.4,0-2.8,0-4.1c-0.9,0-1.7,0-2.5,0c0,0.2-0.1,0.4-0.1,0.6c0,6.8,0,13.6,0,20.4
			c0,1.1,0.5,1.5,1.6,1.5c3.8,0,7.6,0,11.4,0c0.2,0,0.5-0.1,0.8-0.1c0-2.8,0-5.5,0-8.3c0-1.9,1-2.8,2.8-2.9c4,0,7.9,0,11.9,0
			c1.8,0,2.8,1,2.8,2.8c0,2.4,0,4.9,0,7.3c0,0.4,0,0.8,0,1.1c0.9,0,1.7,0,2.5,0c0-0.4,0-0.8,0-1.2c0-5.3,0-10.6,0-15.9
			c0-2,0.9-2.9,2.9-2.9c3,0,6,0,9,0c2.2,0,3.1,0.9,3.1,3.1c0,5.2,0,10.4,0,15.6c0,0.4,0,0.8,0.1,1.2c0.4,0,0.7,0,1,0
			c3.6,0,7.1,0,10.7,0c1.6,0,2-0.3,2-1.9c0-9,0-18,0-27c0-0.3,0-0.7,0-1.1c-3.7,0-7.2,0-10.8,0c-2,0-3-0.9-3-2.9c0-4.3,0-8.6,0-12.9
			c0-2.1,0.9-3,3-3c3.2,0,6.4,0,9.5,0c0.4,0,0.7,0,1.2-0.1c0-0.5,0-0.8,0-1.2c0-4.3,0-8.6,0-13c0-1.7-0.3-2-2-2
			c-19.5,0-39.1,0-58.6,0c-1.6,0-1.9,0.3-1.9,1.9c0,6.5,0,12.9,0,19.4c0,0.4,0,0.7,0.1,1.1c0.9,0,1.6,0,2.5,0c0-1.6,0-3.1,0-4.6
			c0-1.1,0.4-1.5,1.4-1.6c2.8,0,5.6,0,8.4,0c0.8,0,1.4,0.4,1.4,1.3c0,0.9-0.6,1.2-1.4,1.2c-0.7,0-1.5,0-2.2,0c0,0.9,0,1.7,0,2.5
			c0.8,0,1.4,0,2.1,0c0.9,0,1.5,0.3,1.5,1.3s-0.7,1.2-1.5,1.2c-0.7,0-1.4,0-2.1,0c0,0.9,0,1.7,0,2.5c0.8,0,1.4,0,2.1,0
			c0.9,0,1.5,0.3,1.5,1.3c0,0.9-0.6,1.2-1.4,1.2c-0.7,0-1.5,0-2.2,0c0,0.9,0,1.6,0,2.5c0.8,0,1.5,0,2.3,0s1.4,0.4,1.4,1.3
			c0,0.8-0.6,1.2-1.4,1.2c-0.7,0-1.5,0-2.3,0c0,0.9,0,1.6,0,2.5c0.8,0,1.5,0,2.2,0c0.8,0,1.4,0.3,1.5,1.2c0,1-0.6,1.3-1.5,1.3
			c-0.7,0-1.5,0-2.2,0C266.8,239.2,266.8,239.9,266.8,240.8z M322.9,231.9c0-4.6,0-9.1,0-13.6c-5,0-9.9,0-14.9,0c0,4.6,0,9.1,0,13.6
			C313,231.9,317.9,231.9,322.9,231.9z M285.4,268.2c0-4.2,0-8.3,0-12.4c-4.2,0-8.2,0-12.4,0c0,4.2,0,8.2,0,12.4
			C277.2,268.2,281.3,268.2,285.4,268.2z M302.9,259.5c0-4.2,0-8.3,0-12.4c-3.3,0-6.6,0-9.8,0c0,4.2,0,8.3,0,12.4c1.3,0,2.4,0,3.6,0
			c0-0.3,0.1-0.6,0.1-0.9c0-1.3,0-2.6,0-4c0-0.8,0.4-1.3,1.3-1.3c0.8,0,1.2,0.5,1.2,1.2c0,0.5,0,1.1,0,1.6c0,1.1,0,2.2,0,3.3
			C300.6,259.5,301.7,259.5,302.9,259.5z M253.1,239.4c2.1,0,4.1,0,6.1,0c0-5,0-9.9,0-14.9c-2.1,0-4.1,0-6.1,0
			C253.1,229.6,253.1,234.5,253.1,239.4z M293,262.1c0,2.2-0.1,4.2,0.1,6.3c0,0.4,0.7,1.1,1.2,1.1c2.5,0.1,5.1,0.1,7.6,0
			c0.4,0,1.1-0.7,1.1-1c0.1-2.1,0.1-4.2,0.1-6.3C299.7,262.1,296.4,262.1,293,262.1z M261.8,218.3c0,9.2,0,18.3,0,27.4
			c0.8,0,1.6,0,2.3,0c0-9.2,0-18.3,0-27.4C263.4,218.3,262.6,218.3,261.8,218.3z"/>
		<path class="st0" d="M288,242c-2.4,0-4.8,0-7.2,0c-1.8,0-2.8-1-2.8-2.8c0-2.7,0.1-5.4,0.1-8.1c0-2-0.1-4.1-0.1-6.1s0.9-2.9,3-2.9
			c4.7,0,9.4,0,14.1,0c2,0,2.9,0.9,2.9,2.9c0,2.7-0.1,5.5-0.1,8.2c0,2,0.1,4.1,0.1,6.1c0.1,1.7-1,2.8-2.6,2.8
			C292.9,242,290.4,242,288,242z M295.5,239.5c0-5,0-10,0-14.9c-5.1,0-10,0-15,0c0,5,0,9.9,0,14.9
			C285.6,239.5,290.5,239.5,295.5,239.5z"/>
		<path class="st0" d="M263,262c-2.1,0-3.8-1.6-3.8-3.7s1.6-3.8,3.7-3.8c2,0,3.8,1.7,3.8,3.7C266.8,260.3,265.1,262,263,262z
			 M264.4,258.6c0-0.2,0-0.3,0-0.5c-0.4-0.3-0.9-0.9-1.4-1c-0.7-0.2-1.2,0.4-1.3,1.1c-0.1,0.8,0.4,1.4,1.2,1.3
			C263.5,259.4,263.9,258.9,264.4,258.6z"/>
		<path class="st0" d="M262.9,209.5c-2.1,0-3.7-1.7-3.7-3.8s1.7-3.7,3.8-3.7c2.1,0,3.7,1.8,3.7,3.8
			C266.7,207.9,265,209.5,262.9,209.5z M264.4,206c0-0.2,0-0.3,0-0.5c-0.5-0.3-0.9-0.8-1.4-0.9c-0.7-0.1-1.2,0.4-1.2,1.2
			c0,0.7,0.6,1.4,1.3,1.2C263.6,206.8,264,206.3,264.4,206z"/>
		<path class="st0" d="M316.8,258.3c0,2.1-1.7,3.7-3.8,3.7c-2.1,0-3.7-1.7-3.7-3.8c0-2.1,1.8-3.7,3.8-3.7
			C315.1,254.6,316.8,256.3,316.8,258.3z M314.4,258.5c0-0.2,0-0.3,0-0.5c-0.5-0.3-0.9-0.8-1.4-0.9c-0.7-0.1-1.2,0.4-1.2,1.2
			c0,0.8,0.5,1.4,1.2,1.2C313.5,259.4,314,258.8,314.4,258.5z"/>
		<path class="st0" d="M316.8,205.8c0,2.1-1.6,3.7-3.7,3.7s-3.8-1.7-3.8-3.7c0-2.1,1.7-3.8,3.7-3.8
			C315.1,202,316.7,203.7,316.8,205.8z M314.4,206c0-0.2,0-0.3,0-0.5c-0.5-0.3-0.9-0.8-1.4-0.9c-0.7-0.1-1.2,0.4-1.2,1.2
			s0.5,1.3,1.3,1.2C313.6,206.9,314,206.3,314.4,206z"/>
		<path class="st1" d="M280.8,201.9c0.3,0.5,0.8,0.9,0.9,1.4c0.1,0.7-0.4,1.2-1.2,1.2c-0.7,0-1.4-0.6-1.2-1.3c0.2-0.5,0.6-0.9,1-1.4
			C280.4,201.8,280.6,201.8,280.8,201.9z"/>
		<path class="st1" d="M295.3,204.7c-0.3-0.5-0.9-0.9-1-1.4c-0.1-0.7,0.4-1.2,1.1-1.3s1.5,0.6,1.3,1.2c-0.1,0.5-0.6,0.9-0.9,1.4
			C295.6,204.7,295.4,204.7,295.3,204.7z"/>
		<path class="st1" d="M276.9,203.6c-0.5,0.3-0.9,0.8-1.4,0.9c-0.8,0.1-1.2-0.5-1.2-1.3s0.6-1.3,1.3-1.1c0.5,0.1,0.9,0.7,1.4,1
			C276.9,203.2,276.9,203.4,276.9,203.6z"/>
		<path class="st1" d="M286.9,203.6c-0.5,0.3-0.9,0.8-1.4,0.9c-0.7,0.1-1.2-0.4-1.2-1.2c0-0.7,0.6-1.4,1.3-1.2
			c0.5,0.2,0.9,0.7,1.4,1C286.9,203.2,286.9,203.4,286.9,203.6z"/>
		<path class="st1" d="M271.9,203.5c-0.5,0.3-0.9,0.9-1.4,1c-0.7,0.2-1.2-0.3-1.3-1.1c-0.1-0.7,0.5-1.5,1.2-1.3
			c0.5,0.1,1,0.6,1.4,0.9C271.9,203.1,271.9,203.3,271.9,203.5z"/>
		<path class="st1" d="M290.3,204.7c-0.3-0.5-0.9-0.9-0.9-1.4c-0.1-0.8,0.4-1.3,1.2-1.2c0.8,0,1.3,0.5,1.1,1.2
			c-0.1,0.5-0.6,0.9-0.9,1.4C290.6,204.7,290.4,204.7,290.3,204.7z"/>
		<path class="st1" d="M300.8,201.8c0.3,0.5,0.8,0.9,0.9,1.4c0.1,0.8-0.5,1.3-1.3,1.2c-0.8,0-1.2-0.6-1.1-1.3c0.1-0.5,0.6-0.9,1-1.4
			C300.4,201.8,300.6,201.8,300.8,201.8z"/>
		<path class="st1" d="M306.9,203.5c-0.5,0.3-0.9,0.9-1.4,1c-0.7,0.2-1.2-0.4-1.3-1.1c-0.1-0.8,0.4-1.4,1.2-1.3
			c0.5,0.1,0.9,0.6,1.4,0.9C306.9,203.1,306.9,203.3,306.9,203.5z"/>
		<path class="st1" d="M271.9,208.5c-0.5,0.3-0.9,0.8-1.4,0.9c-0.8,0.1-1.3-0.4-1.2-1.2c0-0.8,0.5-1.3,1.2-1.1
			c0.5,0.1,0.9,0.6,1.4,0.9C271.9,208.2,271.9,208.3,271.9,208.5z"/>
		<path class="st1" d="M275.7,206.9c0.3,0.5,0.9,0.9,0.9,1.4c0.1,0.8-0.4,1.3-1.2,1.2c-0.8,0-1.3-0.5-1.2-1.2
			c0.1-0.5,0.6-0.9,0.9-1.4C275.4,206.9,275.6,206.9,275.7,206.9z"/>
		<path class="st1" d="M285.8,206.9c0.3,0.5,0.8,0.9,0.9,1.4c0.1,0.7-0.4,1.2-1.2,1.2c-0.8,0-1.4-0.5-1.2-1.3c0.1-0.5,0.6-0.9,1-1.4
			C285.5,206.8,285.6,206.9,285.8,206.9z"/>
		<path class="st1" d="M290.2,209.7c-0.3-0.5-0.8-0.9-0.9-1.4c-0.1-0.7,0.4-1.2,1.2-1.2c0.8,0,1.4,0.5,1.2,1.3
			c-0.1,0.5-0.6,0.9-1,1.4C290.6,209.7,290.4,209.7,290.2,209.7z"/>
		<path class="st1" d="M301.9,208.5c-0.5,0.3-0.9,0.8-1.4,0.9c-0.7,0.1-1.2-0.4-1.2-1.1c0-0.8,0.5-1.4,1.2-1.2
			c0.5,0.1,0.9,0.6,1.4,0.9C301.9,208.2,301.9,208.3,301.9,208.5z"/>
		<path class="st1" d="M305.8,206.9c0.3,0.5,0.8,0.9,0.9,1.4c0.1,0.7-0.4,1.2-1.2,1.2c-0.8,0-1.4-0.5-1.2-1.2
			c0.1-0.5,0.6-0.9,0.9-1.4C305.4,206.8,305.6,206.9,305.8,206.9z"/>
		<path class="st1" d="M280.3,209.7c-0.4-0.4-0.9-0.9-1-1.4c-0.2-0.7,0.3-1.2,1.1-1.3c0.8-0.1,1.4,0.4,1.3,1.2
			c-0.1,0.5-0.6,1-0.9,1.4C280.6,209.7,280.5,209.7,280.3,209.7z"/>
		<path class="st1" d="M295.3,209.7c-0.4-0.4-0.9-0.9-1-1.4c-0.2-0.7,0.3-1.2,1.1-1.3c0.8-0.1,1.4,0.4,1.3,1.2
			c-0.1,0.5-0.6,1-0.9,1.4C295.6,209.7,295.5,209.7,295.3,209.7z"/>
		<path class="st0" d="M314.3,227c0.7,0,1.5,0,2.2,0c0.8,0,1.4,0.4,1.4,1.3c0,0.9-0.6,1.2-1.4,1.3c-1.6,0-3.1,0-4.7,0
			c-0.8,0-1.4-0.4-1.3-1.3c0-0.8,0.6-1.2,1.4-1.2C312.7,227,313.5,227,314.3,227z"/>
		<path class="st0" d="M314.3,220.8c0.8,0,1.6,0,2.3,0c0.8,0,1.3,0.4,1.3,1.2s-0.5,1.3-1.3,1.3c-1.6,0-3.3,0-4.9,0
			c-0.8,0-1.3-0.5-1.3-1.3s0.5-1.2,1.3-1.2C312.7,220.8,313.5,220.8,314.3,220.8z"/>
		<path class="st0" d="M280.5,262c0-0.5-0.1-1,0-1.4c0.2-0.4,0.7-1,1.1-1c0.5,0,1.2,0.5,1.3,0.9c0.2,1,0.2,2,0,3
			c-0.1,0.4-0.8,1-1.2,0.9c-0.4-0.1-0.9-0.6-1.2-1.1C280.4,263,280.5,262.5,280.5,262L280.5,262z"/>
		<path class="st0" d="M278,262c0,0.4,0,0.9,0,1.3c0,0.8-0.5,1.3-1.3,1.3c-0.7,0-1.2-0.5-1.2-1.2c0-0.8,0-1.6,0-2.4s0.5-1.3,1.3-1.3
			s1.1,0.5,1.2,1.2C278,261.2,278,261.6,278,262z"/>
	</g>
	<g>
		<path class="st0" d="M340.6,222c0-0.5,0-0.9,0-1.4c0-6.4,0-12.9,0-19.3c0-3,1.4-4.4,4.4-4.4c19.5,0,39.1,0,58.6,0
			c3.1,0,4.5,1.4,4.5,4.5c0,4.3,0,8.6,0,13c0,0.4,0,0.8,0,1.1c0.2,0.1,0.2,0.1,0.3,0.1c3,0.2,3.5,0.7,3.5,3.7c0,3.9,0,7.9,0,11.8
			c0,2.4-0.8,3.2-3.2,3.3c-0.1,0-0.3,0-0.6,0.1c0,0.5,0,0.9,0,1.4c0,8.9,0,17.7,0,26.6c0,3.1-1.4,4.5-4.5,4.5c-3.9,0-7.7,0-11.7,0
			c0,0.5,0,0.9,0,1.3c-0.1,2.2-1.6,3.7-3.8,3.7c-2.4,0-4.7,0-7.1,0c-2.6,0-4-1.4-4.1-4c0-0.3,0-0.6-0.1-0.9c-0.8,0-1.6,0-2.3,0
			c-0.5,3.5-0.7,3.7-4.3,3.7c-3.4,0-6.7,0-10.1,0c-2.4,0-3.2-0.7-3.3-3.2c0-0.1,0-0.3-0.1-0.5c-0.4,0-0.8,0-1.2,0
			c-3.6,0-7.2,0-10.8,0c-2.7,0-4.2-1.5-4.2-4.2c0-6.5,0-12.9,0-19.4c0-0.4,0-0.9,0-1.4c-0.5,0-0.9,0-1.3,0c-1.4-0.1-2.4-1-2.4-2.4
			c0-5.1,0-10.1,0-15.2c0-1.4,1-2.3,2.4-2.4C339.7,222,340.1,222,340.6,222z M353.2,240.8c0.8,0,1.5,0,2.2,0c0.8,0,1.4,0.3,1.5,1.2
			c0,0.9-0.6,1.3-1.5,1.3c-0.7,0-1.5,0-2.2,0c0,0.9,0,1.7,0,2.5c0.7,0,1.3,0,2,0c0.9,0,1.6,0.2,1.7,1.2c0.1,0.8-0.5,1.3-1.7,1.3
			c-2.5,0-4.9,0-7.4,0c-1.9,0-2.1-0.2-2.1-2.1c0-1.4,0-2.8,0-4.1c-0.9,0-1.7,0-2.5,0c0,0.2-0.1,0.4-0.1,0.6c0,6.8,0,13.6,0,20.4
			c0,1.1,0.5,1.5,1.6,1.5c3.8,0,7.6,0,11.4,0c0.2,0,0.5-0.1,0.8-0.1c0-2.8,0-5.5,0-8.3c0-1.9,1-2.8,2.8-2.9c4,0,7.9,0,11.9,0
			c1.8,0,2.8,1,2.8,2.8c0,2.4,0,4.9,0,7.3c0,0.4,0,0.8,0,1.1c0.9,0,1.7,0,2.5,0c0-0.4,0-0.8,0-1.2c0-5.3,0-10.6,0-15.9
			c0-2,0.9-2.9,2.9-2.9c3,0,6,0,9,0c2.2,0,3.1,0.9,3.1,3.1c0,5.2,0,10.4,0,15.6c0,0.4,0,0.8,0.1,1.2c0.4,0,0.7,0,1,0
			c3.6,0,7.1,0,10.7,0c1.6,0,2-0.3,2-1.9c0-9,0-18,0-27c0-0.3,0-0.7,0-1.1c-3.7,0-7.2,0-10.8,0c-2,0-3-0.9-3-2.9c0-4.3,0-8.6,0-12.9
			c0-2.1,0.9-3,3-3c3.2,0,6.4,0,9.5,0c0.4,0,0.7,0,1.2-0.1c0-0.5,0-0.8,0-1.2c0-4.3,0-8.6,0-13c0-1.7-0.3-2-2-2
			c-19.5,0-39.1,0-58.6,0c-1.6,0-1.9,0.3-1.9,1.9c0,6.5,0,12.9,0,19.4c0,0.4,0,0.7,0.1,1.1c0.9,0,1.6,0,2.5,0c0-1.6,0-3.1,0-4.6
			c0-1.1,0.4-1.5,1.4-1.6c2.8,0,5.6,0,8.4,0c0.8,0,1.4,0.4,1.4,1.3c0,0.9-0.6,1.2-1.4,1.2c-0.7,0-1.5,0-2.2,0c0,0.9,0,1.7,0,2.5
			c0.8,0,1.4,0,2.1,0c0.9,0,1.5,0.3,1.5,1.3s-0.7,1.2-1.5,1.2c-0.7,0-1.4,0-2.1,0c0,0.9,0,1.7,0,2.5c0.8,0,1.4,0,2.1,0
			c0.9,0,1.5,0.3,1.5,1.3c0,0.9-0.6,1.2-1.4,1.2c-0.7,0-1.5,0-2.2,0c0,0.9,0,1.6,0,2.5c0.8,0,1.5,0,2.3,0s1.4,0.4,1.4,1.3
			c0,0.8-0.6,1.2-1.4,1.2c-0.7,0-1.5,0-2.3,0c0,0.9,0,1.6,0,2.5c0.8,0,1.5,0,2.2,0c0.8,0,1.4,0.3,1.5,1.2c0,1-0.6,1.3-1.5,1.3
			c-0.7,0-1.5,0-2.2,0C353.2,239.2,353.2,239.9,353.2,240.8z M409.3,231.9c0-4.6,0-9.1,0-13.6c-5,0-9.9,0-14.9,0c0,4.6,0,9.1,0,13.6
			C399.4,231.9,404.3,231.9,409.3,231.9z M371.8,268.2c0-4.2,0-8.3,0-12.4c-4.2,0-8.2,0-12.4,0c0,4.2,0,8.2,0,12.4
			C363.6,268.2,367.7,268.2,371.8,268.2z M389.3,259.5c0-4.2,0-8.3,0-12.4c-3.3,0-6.6,0-9.8,0c0,4.2,0,8.3,0,12.4c1.3,0,2.4,0,3.6,0
			c0-0.3,0.1-0.6,0.1-0.9c0-1.3,0-2.6,0-4c0-0.8,0.4-1.3,1.3-1.3c0.8,0,1.2,0.5,1.2,1.2c0,0.5,0,1.1,0,1.6c0,1.1,0,2.2,0,3.3
			C387,259.5,388.1,259.5,389.3,259.5z M339.5,239.4c2.1,0,4.1,0,6.1,0c0-5,0-9.9,0-14.9c-2.1,0-4.1,0-6.1,0
			C339.5,229.6,339.5,234.5,339.5,239.4z M379.4,262.1c0,2.2-0.1,4.2,0.1,6.3c0,0.4,0.7,1.1,1.2,1.1c2.5,0.1,5.1,0.1,7.6,0
			c0.4,0,1.1-0.7,1.1-1c0.1-2.1,0.1-4.2,0.1-6.3C386.1,262.1,382.8,262.1,379.4,262.1z M348.2,218.3c0,9.2,0,18.3,0,27.4
			c0.8,0,1.6,0,2.3,0c0-9.2,0-18.3,0-27.4C349.8,218.3,349,218.3,348.2,218.3z"/>
		<path class="st1" d="M374.4,242c-2.4,0-4.8,0-7.2,0c-1.8,0-2.8-1-2.8-2.8c0-2.7,0.1-5.4,0.1-8.1c0-2-0.1-4.1-0.1-6.1
			s0.9-2.9,3-2.9c4.7,0,9.4,0,14.1,0c2,0,2.9,0.9,2.9,2.9c0,2.7-0.1,5.5-0.1,8.2c0,2,0.1,4.1,0.1,6.1c0.1,1.7-1,2.8-2.6,2.8
			C379.3,242,376.8,242,374.4,242z M381.9,239.5c0-5,0-10,0-14.9c-5.1,0-10,0-15,0c0,5,0,9.9,0,14.9
			C372,239.5,376.9,239.5,381.9,239.5z"/>
		<path class="st0" d="M349.4,262c-2.1,0-3.8-1.6-3.8-3.7s1.6-3.8,3.7-3.8c2,0,3.8,1.7,3.8,3.7C353.2,260.3,351.5,262,349.4,262z
			 M350.8,258.6c0-0.2,0-0.3,0-0.5c-0.4-0.3-0.9-0.9-1.4-1c-0.7-0.2-1.2,0.4-1.3,1.1c-0.1,0.8,0.4,1.4,1.2,1.3
			C349.9,259.4,350.3,258.9,350.8,258.6z"/>
		<path class="st0" d="M349.3,209.5c-2.1,0-3.7-1.7-3.7-3.8s1.7-3.7,3.8-3.7c2.1,0,3.7,1.8,3.7,3.8
			C353.1,207.9,351.4,209.5,349.3,209.5z M350.8,206c0-0.2,0-0.3,0-0.5c-0.5-0.3-0.9-0.8-1.4-0.9c-0.7-0.1-1.2,0.4-1.2,1.2
			c0,0.7,0.6,1.4,1.3,1.2C350,206.8,350.4,206.3,350.8,206z"/>
		<path class="st0" d="M403.2,258.3c0,2.1-1.7,3.7-3.8,3.7c-2.1,0-3.7-1.7-3.7-3.8c0-2.1,1.8-3.7,3.8-3.7
			C401.5,254.6,403.2,256.3,403.2,258.3z M400.8,258.5c0-0.2,0-0.3,0-0.5c-0.5-0.3-0.9-0.8-1.4-0.9c-0.7-0.1-1.2,0.4-1.2,1.2
			c0,0.8,0.5,1.4,1.2,1.2C399.9,259.4,400.4,258.8,400.8,258.5z"/>
		<path class="st0" d="M403.2,205.8c0,2.1-1.6,3.7-3.7,3.7s-3.8-1.7-3.8-3.7c0-2.1,1.7-3.8,3.7-3.8
			C401.5,202,403.1,203.7,403.2,205.8z M400.8,206c0-0.2,0-0.3,0-0.5c-0.5-0.3-0.9-0.8-1.4-0.9c-0.7-0.1-1.2,0.4-1.2,1.2
			s0.5,1.3,1.3,1.2C400,206.9,400.4,206.3,400.8,206z"/>
		<path class="st0" d="M367.2,201.9c0.3,0.5,0.8,0.9,0.9,1.4c0.1,0.7-0.4,1.2-1.2,1.2c-0.7,0-1.4-0.6-1.2-1.3c0.2-0.5,0.6-0.9,1-1.4
			C366.8,201.8,367,201.8,367.2,201.9z"/>
		<path class="st0" d="M381.7,204.7c-0.3-0.5-0.9-0.9-1-1.4c-0.1-0.7,0.4-1.2,1.1-1.3s1.5,0.6,1.3,1.2c-0.1,0.5-0.6,0.9-0.9,1.4
			C382,204.7,381.8,204.7,381.7,204.7z"/>
		<path class="st0" d="M363.3,203.6c-0.5,0.3-0.9,0.8-1.4,0.9c-0.8,0.1-1.2-0.5-1.2-1.3s0.6-1.3,1.3-1.1c0.5,0.1,0.9,0.7,1.4,1
			C363.3,203.2,363.3,203.4,363.3,203.6z"/>
		<path class="st0" d="M373.3,203.6c-0.5,0.3-0.9,0.8-1.4,0.9c-0.7,0.1-1.2-0.4-1.2-1.2c0-0.7,0.6-1.4,1.3-1.2
			c0.5,0.2,0.9,0.7,1.4,1C373.3,203.2,373.3,203.4,373.3,203.6z"/>
		<path class="st0" d="M358.3,203.5c-0.5,0.3-0.9,0.9-1.4,1c-0.7,0.2-1.2-0.3-1.3-1.1c-0.1-0.7,0.5-1.5,1.2-1.3
			c0.5,0.1,1,0.6,1.4,0.9C358.3,203.1,358.3,203.3,358.3,203.5z"/>
		<path class="st0" d="M376.7,204.7c-0.3-0.5-0.9-0.9-0.9-1.4c-0.1-0.8,0.4-1.3,1.2-1.2c0.8,0,1.3,0.5,1.1,1.2
			c-0.1,0.5-0.6,0.9-0.9,1.4C377,204.7,376.8,204.7,376.7,204.7z"/>
		<path class="st0" d="M387.2,201.8c0.3,0.5,0.8,0.9,0.9,1.4c0.1,0.8-0.5,1.3-1.3,1.2c-0.8,0-1.2-0.6-1.1-1.3c0.1-0.5,0.6-0.9,1-1.4
			C386.8,201.8,387,201.8,387.2,201.8z"/>
		<path class="st0" d="M393.3,203.5c-0.5,0.3-0.9,0.9-1.4,1c-0.7,0.2-1.2-0.4-1.3-1.1c-0.1-0.8,0.4-1.4,1.2-1.3
			c0.5,0.1,0.9,0.6,1.4,0.9C393.3,203.1,393.3,203.3,393.3,203.5z"/>
		<path class="st0" d="M358.3,208.5c-0.5,0.3-0.9,0.8-1.4,0.9c-0.8,0.1-1.3-0.4-1.2-1.2c0-0.8,0.5-1.3,1.2-1.1
			c0.5,0.1,0.9,0.6,1.4,0.9C358.3,208.2,358.3,208.3,358.3,208.5z"/>
		<path class="st0" d="M362.1,206.9c0.3,0.5,0.9,0.9,0.9,1.4c0.1,0.8-0.4,1.3-1.2,1.2c-0.8,0-1.3-0.5-1.2-1.2
			c0.1-0.5,0.6-0.9,0.9-1.4C361.8,206.9,362,206.9,362.1,206.9z"/>
		<path class="st0" d="M372.2,206.9c0.3,0.5,0.8,0.9,0.9,1.4c0.1,0.7-0.4,1.2-1.2,1.2c-0.8,0-1.4-0.5-1.2-1.3c0.1-0.5,0.6-0.9,1-1.4
			C371.9,206.8,372,206.9,372.2,206.9z"/>
		<path class="st0" d="M376.6,209.7c-0.3-0.5-0.8-0.9-0.9-1.4c-0.1-0.7,0.4-1.2,1.2-1.2c0.8,0,1.4,0.5,1.2,1.3
			c-0.1,0.5-0.6,0.9-1,1.4C377,209.7,376.8,209.7,376.6,209.7z"/>
		<path class="st0" d="M388.3,208.5c-0.5,0.3-0.9,0.8-1.4,0.9c-0.7,0.1-1.2-0.4-1.2-1.1c0-0.8,0.5-1.4,1.2-1.2
			c0.5,0.1,0.9,0.6,1.4,0.9C388.3,208.2,388.3,208.3,388.3,208.5z"/>
		<path class="st0" d="M392.2,206.9c0.3,0.5,0.8,0.9,0.9,1.4c0.1,0.7-0.4,1.2-1.2,1.2c-0.8,0-1.4-0.5-1.2-1.2
			c0.1-0.5,0.6-0.9,0.9-1.4C391.8,206.8,392,206.9,392.2,206.9z"/>
		<path class="st0" d="M366.7,209.7c-0.4-0.4-0.9-0.9-1-1.4c-0.2-0.7,0.3-1.2,1.1-1.3c0.8-0.1,1.4,0.4,1.3,1.2
			c-0.1,0.5-0.6,1-0.9,1.4C367,209.7,366.9,209.7,366.7,209.7z"/>
		<path class="st0" d="M381.7,209.7c-0.4-0.4-0.9-0.9-1-1.4c-0.2-0.7,0.3-1.2,1.1-1.3c0.8-0.1,1.4,0.4,1.3,1.2
			c-0.1,0.5-0.6,1-0.9,1.4C382,209.7,381.9,209.7,381.7,209.7z"/>
		<path class="st0" d="M400.7,227c0.7,0,1.5,0,2.2,0c0.8,0,1.4,0.4,1.4,1.3c0,0.9-0.6,1.2-1.4,1.3c-1.6,0-3.1,0-4.7,0
			c-0.8,0-1.4-0.4-1.3-1.3c0-0.8,0.6-1.2,1.4-1.2C399.1,227,399.9,227,400.7,227z"/>
		<path class="st0" d="M400.7,220.8c0.8,0,1.6,0,2.3,0c0.8,0,1.3,0.4,1.3,1.2s-0.5,1.3-1.3,1.3c-1.6,0-3.3,0-4.9,0
			c-0.8,0-1.3-0.5-1.3-1.3s0.5-1.2,1.3-1.2C399.1,220.8,399.9,220.8,400.7,220.8z"/>
		<path class="st0" d="M366.9,262c0-0.5-0.1-1,0-1.4c0.2-0.4,0.7-1,1.1-1c0.5,0,1.2,0.5,1.3,0.9c0.2,1,0.2,2,0,3
			c-0.1,0.4-0.8,1-1.2,0.9c-0.4-0.1-0.9-0.6-1.2-1.1C366.8,263,366.9,262.5,366.9,262L366.9,262z"/>
		<path class="st0" d="M364.4,262c0,0.4,0,0.9,0,1.3c0,0.8-0.5,1.3-1.3,1.3c-0.7,0-1.2-0.5-1.2-1.2c0-0.8,0-1.6,0-2.4
			s0.5-1.3,1.3-1.3s1.1,0.5,1.2,1.2C364.4,261.2,364.4,261.6,364.4,262z"/>
	</g>
	<g>
		<path class="st0" d="M427,222c0-0.5,0-0.9,0-1.4c0-6.4,0-12.9,0-19.3c0-3,1.4-4.4,4.4-4.4c19.5,0,39.1,0,58.6,0
			c3.1,0,4.5,1.4,4.5,4.5c0,4.3,0,8.6,0,13c0,0.4,0,0.8,0,1.1c0.2,0.1,0.2,0.1,0.3,0.1c3,0.2,3.5,0.7,3.5,3.7c0,3.9,0,7.9,0,11.8
			c0,2.4-0.8,3.2-3.2,3.3c-0.1,0-0.3,0-0.6,0.1c0,0.5,0,0.9,0,1.4c0,8.9,0,17.7,0,26.6c0,3.1-1.4,4.5-4.5,4.5c-3.9,0-7.7,0-11.7,0
			c0,0.5,0,0.9,0,1.3c-0.1,2.2-1.6,3.7-3.8,3.7c-2.4,0-4.7,0-7.1,0c-2.6,0-4-1.4-4.1-4c0-0.3,0-0.6-0.1-0.9c-0.8,0-1.6,0-2.3,0
			c-0.5,3.5-0.7,3.7-4.3,3.7c-3.4,0-6.7,0-10.1,0c-2.4,0-3.2-0.7-3.3-3.2c0-0.1,0-0.3-0.1-0.5c-0.4,0-0.8,0-1.2,0
			c-3.6,0-7.2,0-10.8,0c-2.7,0-4.2-1.5-4.2-4.2c0-6.5,0-12.9,0-19.4c0-0.4,0-0.9,0-1.4c-0.5,0-0.9,0-1.3,0c-1.4-0.1-2.4-1-2.4-2.4
			c0-5.1,0-10.1,0-15.2c0-1.4,1-2.3,2.4-2.4C426.1,222,426.5,222,427,222z M439.6,240.8c0.8,0,1.5,0,2.2,0c0.8,0,1.4,0.3,1.5,1.2
			c0,0.9-0.6,1.3-1.5,1.3c-0.7,0-1.5,0-2.2,0c0,0.9,0,1.7,0,2.5c0.7,0,1.3,0,2,0c0.9,0,1.6,0.2,1.7,1.2c0.1,0.8-0.5,1.3-1.7,1.3
			c-2.5,0-4.9,0-7.4,0c-1.9,0-2.1-0.2-2.1-2.1c0-1.4,0-2.8,0-4.1c-0.9,0-1.7,0-2.5,0c0,0.2-0.1,0.4-0.1,0.6c0,6.8,0,13.6,0,20.4
			c0,1.1,0.5,1.5,1.6,1.5c3.8,0,7.6,0,11.4,0c0.2,0,0.5-0.1,0.8-0.1c0-2.8,0-5.5,0-8.3c0-1.9,1-2.8,2.8-2.9c4,0,7.9,0,11.9,0
			c1.8,0,2.8,1,2.8,2.8c0,2.4,0,4.9,0,7.3c0,0.4,0,0.8,0,1.1c0.9,0,1.7,0,2.5,0c0-0.4,0-0.8,0-1.2c0-5.3,0-10.6,0-15.9
			c0-2,0.9-2.9,2.9-2.9c3,0,6,0,9,0c2.2,0,3.1,0.9,3.1,3.1c0,5.2,0,10.4,0,15.6c0,0.4,0,0.8,0.1,1.2c0.4,0,0.7,0,1,0
			c3.6,0,7.1,0,10.7,0c1.6,0,2-0.3,2-1.9c0-9,0-18,0-27c0-0.3,0-0.7,0-1.1c-3.7,0-7.2,0-10.8,0c-2,0-3-0.9-3-2.9c0-4.3,0-8.6,0-12.9
			c0-2.1,0.9-3,3-3c3.2,0,6.4,0,9.5,0c0.4,0,0.7,0,1.2-0.1c0-0.5,0-0.8,0-1.2c0-4.3,0-8.6,0-13c0-1.7-0.3-2-2-2
			c-19.5,0-39.1,0-58.6,0c-1.6,0-1.9,0.3-1.9,1.9c0,6.5,0,12.9,0,19.4c0,0.4,0,0.7,0.1,1.1c0.9,0,1.6,0,2.5,0c0-1.6,0-3.1,0-4.6
			c0-1.1,0.4-1.5,1.4-1.6c2.8,0,5.6,0,8.4,0c0.8,0,1.4,0.4,1.4,1.3c0,0.9-0.6,1.2-1.4,1.2c-0.7,0-1.5,0-2.2,0c0,0.9,0,1.7,0,2.5
			c0.8,0,1.4,0,2.1,0c0.9,0,1.5,0.3,1.5,1.3s-0.7,1.2-1.5,1.2c-0.7,0-1.4,0-2.1,0c0,0.9,0,1.7,0,2.5c0.8,0,1.4,0,2.1,0
			c0.9,0,1.5,0.3,1.5,1.3c0,0.9-0.6,1.2-1.4,1.2c-0.7,0-1.5,0-2.2,0c0,0.9,0,1.6,0,2.5c0.8,0,1.5,0,2.3,0s1.4,0.4,1.4,1.3
			c0,0.8-0.6,1.2-1.4,1.2c-0.7,0-1.5,0-2.3,0c0,0.9,0,1.6,0,2.5c0.8,0,1.5,0,2.2,0c0.8,0,1.4,0.3,1.5,1.2c0,1-0.6,1.3-1.5,1.3
			c-0.7,0-1.5,0-2.2,0C439.6,239.2,439.6,239.9,439.6,240.8z M495.7,231.9c0-4.6,0-9.1,0-13.6c-5,0-9.9,0-14.9,0c0,4.6,0,9.1,0,13.6
			C485.8,231.9,490.7,231.9,495.7,231.9z M458.2,268.2c0-4.2,0-8.3,0-12.4c-4.2,0-8.2,0-12.4,0c0,4.2,0,8.2,0,12.4
			C450,268.2,454.1,268.2,458.2,268.2z M475.7,259.5c0-4.2,0-8.3,0-12.4c-3.3,0-6.6,0-9.8,0c0,4.2,0,8.3,0,12.4c1.3,0,2.4,0,3.6,0
			c0-0.3,0.1-0.6,0.1-0.9c0-1.3,0-2.6,0-4c0-0.8,0.4-1.3,1.3-1.3c0.8,0,1.2,0.5,1.2,1.2c0,0.5,0,1.1,0,1.6c0,1.1,0,2.2,0,3.3
			C473.4,259.5,474.5,259.5,475.7,259.5z M425.9,239.4c2.1,0,4.1,0,6.1,0c0-5,0-9.9,0-14.9c-2.1,0-4.1,0-6.1,0
			C425.9,229.6,425.9,234.5,425.9,239.4z M465.8,262.1c0,2.2-0.1,4.2,0.1,6.3c0,0.4,0.7,1.1,1.2,1.1c2.5,0.1,5.1,0.1,7.6,0
			c0.4,0,1.1-0.7,1.1-1c0.1-2.1,0.1-4.2,0.1-6.3C472.5,262.1,469.2,262.1,465.8,262.1z M434.6,218.3c0,9.2,0,18.3,0,27.4
			c0.8,0,1.6,0,2.3,0c0-9.2,0-18.3,0-27.4C436.2,218.3,435.4,218.3,434.6,218.3z"/>
		<path class="st0" d="M460.8,242c-2.4,0-4.8,0-7.2,0c-1.8,0-2.8-1-2.8-2.8c0-2.7,0.1-5.4,0.1-8.1c0-2-0.1-4.1-0.1-6.1
			s0.9-2.9,3-2.9c4.7,0,9.4,0,14.1,0c2,0,2.9,0.9,2.9,2.9c0,2.7-0.1,5.5-0.1,8.2c0,2,0.1,4.1,0.1,6.1c0.1,1.7-1,2.8-2.6,2.8
			C465.7,242,463.2,242,460.8,242z M468.3,239.5c0-5,0-10,0-14.9c-5.1,0-10,0-15,0c0,5,0,9.9,0,14.9
			C458.4,239.5,463.3,239.5,468.3,239.5z"/>
		<path class="st0" d="M435.8,262c-2.1,0-3.8-1.6-3.8-3.7s1.6-3.8,3.7-3.8c2,0,3.8,1.7,3.8,3.7C439.6,260.3,437.9,262,435.8,262z
			 M437.2,258.6c0-0.2,0-0.3,0-0.5c-0.4-0.3-0.9-0.9-1.4-1c-0.7-0.2-1.2,0.4-1.3,1.1c-0.1,0.8,0.4,1.4,1.2,1.3
			C436.3,259.4,436.7,258.9,437.2,258.6z"/>
		<path class="st0" d="M435.7,209.5c-2.1,0-3.7-1.7-3.7-3.8s1.7-3.7,3.8-3.7c2.1,0,3.7,1.8,3.7,3.8
			C439.5,207.9,437.8,209.5,435.7,209.5z M437.2,206c0-0.2,0-0.3,0-0.5c-0.5-0.3-0.9-0.8-1.4-0.9c-0.7-0.1-1.2,0.4-1.2,1.2
			c0,0.7,0.6,1.4,1.3,1.2C436.4,206.8,436.8,206.3,437.2,206z"/>
		<path class="st0" d="M489.6,258.3c0,2.1-1.7,3.7-3.8,3.7c-2.1,0-3.7-1.7-3.7-3.8c0-2.1,1.8-3.7,3.8-3.7
			C487.9,254.6,489.6,256.3,489.6,258.3z M487.2,258.5c0-0.2,0-0.3,0-0.5c-0.5-0.3-0.9-0.8-1.4-0.9c-0.7-0.1-1.2,0.4-1.2,1.2
			c0,0.8,0.5,1.4,1.2,1.2C486.3,259.4,486.8,258.8,487.2,258.5z"/>
		<path class="st1" d="M489.6,205.8c0,2.1-1.6,3.7-3.7,3.7s-3.8-1.7-3.8-3.7c0-2.1,1.7-3.8,3.7-3.8
			C487.9,202,489.5,203.7,489.6,205.8z M487.2,206c0-0.2,0-0.3,0-0.5c-0.5-0.3-0.9-0.8-1.4-0.9c-0.7-0.1-1.2,0.4-1.2,1.2
			s0.5,1.3,1.3,1.2C486.4,206.9,486.8,206.3,487.2,206z"/>
		<path class="st0" d="M453.6,201.9c0.3,0.5,0.8,0.9,0.9,1.4c0.1,0.7-0.4,1.2-1.2,1.2c-0.7,0-1.4-0.6-1.2-1.3c0.2-0.5,0.6-0.9,1-1.4
			C453.2,201.8,453.4,201.8,453.6,201.9z"/>
		<path class="st0" d="M468.1,204.7c-0.3-0.5-0.9-0.9-1-1.4c-0.1-0.7,0.4-1.2,1.1-1.3s1.5,0.6,1.3,1.2c-0.1,0.5-0.6,0.9-0.9,1.4
			C468.4,204.7,468.2,204.7,468.1,204.7z"/>
		<path class="st0" d="M449.7,203.6c-0.5,0.3-0.9,0.8-1.4,0.9c-0.8,0.1-1.2-0.5-1.2-1.3s0.6-1.3,1.3-1.1c0.5,0.1,0.9,0.7,1.4,1
			C449.7,203.2,449.7,203.4,449.7,203.6z"/>
		<path class="st0" d="M459.7,203.6c-0.5,0.3-0.9,0.8-1.4,0.9c-0.7,0.1-1.2-0.4-1.2-1.2c0-0.7,0.6-1.4,1.3-1.2
			c0.5,0.2,0.9,0.7,1.4,1C459.7,203.2,459.7,203.4,459.7,203.6z"/>
		<path class="st0" d="M444.7,203.5c-0.5,0.3-0.9,0.9-1.4,1c-0.7,0.2-1.2-0.3-1.3-1.1c-0.1-0.7,0.5-1.5,1.2-1.3
			c0.5,0.1,1,0.6,1.4,0.9C444.7,203.1,444.7,203.3,444.7,203.5z"/>
		<path class="st0" d="M463.1,204.7c-0.3-0.5-0.9-0.9-0.9-1.4c-0.1-0.8,0.4-1.3,1.2-1.2c0.8,0,1.3,0.5,1.1,1.2
			c-0.1,0.5-0.6,0.9-0.9,1.4C463.4,204.7,463.2,204.7,463.1,204.7z"/>
		<path class="st0" d="M473.6,201.8c0.3,0.5,0.8,0.9,0.9,1.4c0.1,0.8-0.5,1.3-1.3,1.2c-0.8,0-1.2-0.6-1.1-1.3c0.1-0.5,0.6-0.9,1-1.4
			C473.2,201.8,473.4,201.8,473.6,201.8z"/>
		<path class="st0" d="M479.7,203.5c-0.5,0.3-0.9,0.9-1.4,1c-0.7,0.2-1.2-0.4-1.3-1.1c-0.1-0.8,0.4-1.4,1.2-1.3
			c0.5,0.1,0.9,0.6,1.4,0.9C479.7,203.1,479.7,203.3,479.7,203.5z"/>
		<path class="st0" d="M444.7,208.5c-0.5,0.3-0.9,0.8-1.4,0.9c-0.8,0.1-1.3-0.4-1.2-1.2c0-0.8,0.5-1.3,1.2-1.1
			c0.5,0.1,0.9,0.6,1.4,0.9C444.7,208.2,444.7,208.3,444.7,208.5z"/>
		<path class="st0" d="M448.5,206.9c0.3,0.5,0.9,0.9,0.9,1.4c0.1,0.8-0.4,1.3-1.2,1.2c-0.8,0-1.3-0.5-1.2-1.2
			c0.1-0.5,0.6-0.9,0.9-1.4C448.2,206.9,448.4,206.9,448.5,206.9z"/>
		<path class="st0" d="M458.6,206.9c0.3,0.5,0.8,0.9,0.9,1.4c0.1,0.7-0.4,1.2-1.2,1.2c-0.8,0-1.4-0.5-1.2-1.3c0.1-0.5,0.6-0.9,1-1.4
			C458.3,206.8,458.4,206.9,458.6,206.9z"/>
		<path class="st0" d="M463,209.7c-0.3-0.5-0.8-0.9-0.9-1.4c-0.1-0.7,0.4-1.2,1.2-1.2c0.8,0,1.4,0.5,1.2,1.3c-0.1,0.5-0.6,0.9-1,1.4
			C463.4,209.7,463.2,209.7,463,209.7z"/>
		<path class="st0" d="M474.7,208.5c-0.5,0.3-0.9,0.8-1.4,0.9c-0.7,0.1-1.2-0.4-1.2-1.1c0-0.8,0.5-1.4,1.2-1.2
			c0.5,0.1,0.9,0.6,1.4,0.9C474.7,208.2,474.7,208.3,474.7,208.5z"/>
		<path class="st0" d="M478.6,206.9c0.3,0.5,0.8,0.9,0.9,1.4c0.1,0.7-0.4,1.2-1.2,1.2c-0.8,0-1.4-0.5-1.2-1.2
			c0.1-0.5,0.6-0.9,0.9-1.4C478.2,206.8,478.4,206.9,478.6,206.9z"/>
		<path class="st0" d="M453.1,209.7c-0.4-0.4-0.9-0.9-1-1.4c-0.2-0.7,0.3-1.2,1.1-1.3c0.8-0.1,1.4,0.4,1.3,1.2
			c-0.1,0.5-0.6,1-0.9,1.4C453.4,209.7,453.3,209.7,453.1,209.7z"/>
		<path class="st0" d="M468.1,209.7c-0.4-0.4-0.9-0.9-1-1.4c-0.2-0.7,0.3-1.2,1.1-1.3c0.8-0.1,1.4,0.4,1.3,1.2
			c-0.1,0.5-0.6,1-0.9,1.4C468.4,209.7,468.3,209.7,468.1,209.7z"/>
		<path class="st0" d="M487.1,227c0.7,0,1.5,0,2.2,0c0.8,0,1.4,0.4,1.4,1.3c0,0.9-0.6,1.2-1.4,1.3c-1.6,0-3.1,0-4.7,0
			c-0.8,0-1.4-0.4-1.3-1.3c0-0.8,0.6-1.2,1.4-1.2C485.5,227,486.3,227,487.1,227z"/>
		<path class="st0" d="M487.1,220.8c0.8,0,1.6,0,2.3,0c0.8,0,1.3,0.4,1.3,1.2s-0.5,1.3-1.3,1.3c-1.6,0-3.3,0-4.9,0
			c-0.8,0-1.3-0.5-1.3-1.3s0.5-1.2,1.3-1.2C485.5,220.8,486.3,220.8,487.1,220.8z"/>
		<path class="st0" d="M453.3,262c0-0.5-0.1-1,0-1.4c0.2-0.4,0.7-1,1.1-1c0.5,0,1.2,0.5,1.3,0.9c0.2,1,0.2,2,0,3
			c-0.1,0.4-0.8,1-1.2,0.9c-0.4-0.1-0.9-0.6-1.2-1.1C453.2,263,453.3,262.5,453.3,262L453.3,262z"/>
		<path class="st0" d="M450.8,262c0,0.4,0,0.9,0,1.3c0,0.8-0.5,1.3-1.3,1.3c-0.7,0-1.2-0.5-1.2-1.2c0-0.8,0-1.6,0-2.4
			s0.5-1.3,1.3-1.3s1.1,0.5,1.2,1.2C450.8,261.2,450.8,261.6,450.8,262z"/>
	</g>
</g>
<line class="st2" x1="287.6" y1="188" x2="287.6" y2="151"/>
<polyline class="st2" points="201.6,188 201.6,180 211.6,170 266.6,170 274.6,170 281.1,163.5 281.1,151 "/>
<polyline class="st2" points="271.6,151 271.6,162 205.6,162 188.6,179 115.6,179 115.6,192 "/>
<polyline class="st2" points="375.1,188 375.1,180 365.1,170 310.1,170 302.1,170 295.6,163.5 295.6,151 "/>
<polyline class="st2" points="305.1,151 305.1,162 371.1,162 388.1,179 461.1,179 461.1,192 "/>
<path class="st3" d="M295.6,151"/>
<g id="VYgRnt.tif">
	<g>
		<path class="st0" d="M60.2,338.3c-0.5,0-1,0-1.5,0c0,0.9,0,1.9-0.9,2.4c-0.4,0.2-0.9,0.4-1.4,0.4c-0.7,0-1.4-0.3-1.7-0.9
			s-0.4-1.2-0.6-1.9c-0.1,0-0.3,0-0.5,0c-1.9,0-3.9,0-5.8,0c-0.4,0-0.8-0.1-0.9-0.6c-0.1-0.5,0.3-0.8,0.8-0.8c1.9,0,3.8,0,5.7,0
			c0.2,0,0.5,0,0.8,0c0-2.9,0-5.8,0-8.8c-0.9,0-1.7,0-2.6,0c-1.2,0-2.5,0-3.7,0c-0.6,0-0.9-0.3-0.9-0.7c0-0.4,0.3-0.7,0.9-0.7
			c1.9,0,3.8,0,5.8,0c0.2,0,0.4,0,0.6,0c0-1,0-1.9,0.8-2.4c0.4-0.3,0.9-0.5,1.4-0.5c1.3,0,1.9,0.8,2.2,2.9c0.5,0,0.9,0,1.4,0
			c0-1.1,0-2.2,0-3.2c0-0.9,0.2-1.1,1.1-1.1c1.1,0,2.2,0,3.3,0c0-0.6,0-1.2,0-1.7c0-1,0.1-1.2,1.2-1.2c0.5,0,1.1,0,1.7,0
			c0-1,0-2,0-3c-0.2,0-0.5,0-0.7,0c-2.8,0-5.7,0-8.5,0c-0.8,0-1-0.2-1-1c0-1.2,0-2.5,0-3.7c0-1,0.4-1.3,1.3-0.9
			c1.8,0.6,3.6,1.3,5.3,1.9c0.2,0.1,0.4,0.1,0.7,0.2c0-0.9,0-1.8,0-2.7c0-0.8,0.2-1,1-1c3.2,0,6.4,0,9.6,0c0.8,0,1,0.2,1,1
			c0,0.9,0,1.7,0,2.7c0.3-0.1,0.4-0.1,0.6-0.2c1.8-0.6,3.7-1.3,5.5-1.9c0.8-0.3,1.2,0,1.2,0.9c0,1.3,0,2.6,0,3.9
			c0,0.7-0.2,0.9-0.9,0.9c-2.9,0-5.8,0-8.6,0c-0.2,0-0.4,0-0.6,0c0,1,0,2,0,3c0.7,0,1.3,0,2,0s0.9,0.2,0.9,0.9c0,0.7,0,1.3,0,2
			c1.1,0,2.1,0,3.1,0c1.1,0,1.3,0.1,1.3,1.2c0,1,0,2.1,0,3.2c0.5,0,1,0,1.4,0c0.1-0.5,0.1-0.9,0.2-1.3c0.3-1,1.1-1.6,2.2-1.6
			c1,0,1.8,0.7,2,1.7c0,0.1,0,0.2,0,0.3c0.1,0.9,0.1,0.9,1.1,0.9c1.8,0,3.6,0,5.4,0c0.5,0,0.9,0.3,0.9,0.7c0,0.4-0.3,0.7-0.9,0.7
			c-1.9,0-3.7,0-5.6,0c-0.3,0-0.5,0-0.8,0c0,3,0,5.9,0,8.8c0.2,0,0.4,0,0.6,0c1.9,0,3.7,0,5.6,0c0.1,0,0.3,0,0.4,0
			c0.5,0,0.7,0.2,0.8,0.7c0,0.4-0.3,0.7-0.8,0.7c-1.8,0-3.5,0-5.3,0c-0.4,0-0.8,0-1.2,0c0,0.9,0,1.9-0.8,2.4
			c-0.4,0.3-0.9,0.4-1.4,0.5c-0.7,0.1-1.4-0.3-1.8-0.9c-0.3-0.6-0.4-1.3-0.6-2c-0.3,0-0.8,0-1.3,0c0,0.6,0,1.3,0,1.9
			c0,0.5,0,1,0,1.5c0,0.8-0.2,1-1,1c-3.8,0-7.5,0-11.3,0c-2.3,0-4.7,0-7,0c-1.1,0-1.2-0.1-1.2-1.3C60.2,340.4,60.2,339.4,60.2,338.3
			z M61.6,323.7c0,0.1,0,0.2,0,0.2c0,5.6,0,11.2,0,16.8c0,0.5,0.2,0.6,0.6,0.6c5.5,0,10.9,0,16.4,0c0.2,0,0.4,0,0.6,0
			c0-5.9,0-11.7,0-17.6C73.3,323.7,67.5,323.7,61.6,323.7z M74.9,310.5c-3,0-5.9,0-8.9,0c0,0.8,0,1.6,0,2.3c0,0.4,0.1,0.5,0.5,0.6
			c1.2,0.4,2.5,0.9,3.7,1.3c0.2,0.1,0.4,0.1,0.5,0c1.3-0.4,2.6-0.9,3.9-1.4c0.1-0.1,0.3-0.3,0.3-0.4
			C74.9,312.1,74.9,311.3,74.9,310.5z M83.6,332.4c0,0.8,0,1.7,0,2.5c0,1.3,0,2.6,0,4c0,0.7,0.6,1.1,1.1,0.8
			c0.2-0.2,0.4-0.6,0.4-0.8c0-2.8,0-5.7,0-8.5c0-1.4,0-2.9,0-4.3c0-0.3-0.2-0.6-0.4-0.8c-0.2-0.1-0.6-0.1-0.7,0.1
			c-0.2,0.2-0.3,0.5-0.3,0.8C83.6,328.2,83.6,330.3,83.6,332.4z M55.7,332.4L55.7,332.4c0,1.5,0,3,0,4.5c0,0.7,0,1.4,0,2.1
			c0,0.4,0.3,0.7,0.7,0.7c0.5,0,0.7-0.2,0.8-0.7c0-0.1,0-0.3,0-0.4c0-2.5,0-5.1,0-7.6c0-1.7,0-3.4,0-5c0-0.6-0.3-0.9-0.8-0.9
			s-0.7,0.4-0.7,1C55.7,328.2,55.7,330.3,55.7,332.4z M74.8,320.7c-3,0-5.8,0-8.8,0c0,0.5,0,1,0,1.4c2.9,0,5.8,0,8.8,0
			C74.8,321.7,74.8,321.2,74.8,320.7z M60.1,336.9c0-2.9,0-5.8,0-8.8c-0.5,0-1,0-1.4,0c0,2.9,0,5.8,0,8.8
			C59.2,336.9,59.6,336.9,60.1,336.9z M82.1,328.1c-0.5,0-1,0-1.4,0c0,2.9,0,5.8,0,8.8c0.5,0,1,0,1.4,0
			C82.1,333.9,82.1,331,82.1,328.1z M74.9,314.7C74.9,314.8,74.9,314.8,74.9,314.7c2.4,0.1,4.8,0.1,7.2,0.1c0-0.9,0-1.7,0-2.6
			C79.7,313.1,77.3,313.9,74.9,314.7z M65.8,314.8v-0.1c-2.4-0.8-4.7-1.7-7.2-2.5c0,0.9,0,1.8,0,2.6
			C61.1,314.8,63.5,314.8,65.8,314.8z M71.9,316.3c-1,0-2,0-2.9,0c0,1,0,1.9,0,2.9c0.9,0,1.8,0,2.6,0c0.1,0,0.3-0.2,0.3-0.3
			C71.9,318.1,71.9,317.2,71.9,316.3z"/>
		<path class="st0" d="M73.2,331.6c-0.3-0.2-0.6-0.5-0.9-0.7c-0.4-0.3-0.5-0.7-0.2-1c0.3-0.4,0.7-0.4,1.1-0.1
			c0.9,0.7,1.9,1.4,2.8,2.1c0.5,0.3,0.5,0.9,0,1.2c-0.9,0.7-1.9,1.4-2.8,2.1c-0.4,0.3-0.8,0.2-1.1-0.1c-0.3-0.4-0.1-0.8,0.2-1.1
			c0.3-0.2,0.6-0.5,0.9-0.7c0,0,0,0,0-0.1c-0.2,0-0.4,0-0.6,0c-2.3,0-4.5,0-6.8,0c-0.2,0-0.4,0-0.5,0c-0.4,0-0.6-0.3-0.6-0.6
			c0-0.4,0.2-0.6,0.5-0.7c0.2,0,0.4,0,0.5,0c2.3,0,4.6,0,6.9,0c0.2,0,0.4,0,0.6,0C73.2,331.7,73.2,331.6,73.2,331.6z"/>
	</g>
</g>
<text transform="matrix(1 0 0 1 76.5395 39.251)" class="st0 st4 st5">distribute</text>
<text transform="matrix(1 0 0 1 98.1395 60.851)" class="st0 st4 st5">tasks to</text>
<text transform="matrix(1 0 0 1 44.1395 82.451)" class="st0 st4 st5">raspberry pis</text>
<text transform="matrix(1 0 0 1 33.1166 366.251)" class="st0 st4 st5">raspis control hardware</text>
<text transform="matrix(1 0 0 1 357.3324 366.251)" class="st0 st4 st5">and each other</text>
<g id="_x37_GEpy7.tif">
	<g>
		<path class="st0" d="M132.6,329.7c-0.5,0-1,0-1.4,0c0-3,0-6,0-9c0.5,0,0.9,0,1.4,0c0-0.1,0-0.2,0-0.3c0-2.5,0-5,0-7.5
			c0-0.9-0.8-1.8-1.8-1.8c-0.4,0-0.7,0-1.1,0c0-0.5,0-1,0-1.6c1.3-0.1,2.5,0,3.5,1c0.6,0.7,1,1.5,1,2.5c0,2.5,0,5.1,0,7.6
			c0,0.2,0.1,0.3,0.3,0.5c1.4,0.7,2.3,1.8,2.6,3.4c0.2,1.1-0.1,2.2-0.6,3.1c-0.5,0.8-1.2,1.4-2,1.7c-0.2,0.1-0.3,0.2-0.3,0.4
			c0,2.5,0,5.1,0,7.6c0,1-0.4,1.9-1.1,2.6c-0.5,0.5-1.1,0.8-1.9,0.8c-0.5,0-1,0.1-1.5,0.1c0-0.6,0-1.1,0-1.6c0.4,0,0.7,0,1,0
			c1.1,0.1,1.9-0.9,1.8-1.9c0-2.5,0-4.9,0-7.4C132.6,330,132.6,329.9,132.6,329.7z"/>
		<path class="st0" d="M167,322.8c0,1.3,0.1,2.6,0,3.9c-0.1,1.2-0.2,2.4-0.4,3.5c-0.3,1.4-0.6,2.7-1,4.1c-0.4,1.5-1.1,2.9-1.8,4.2
			c-0.7,1.2-1.4,2.3-2.2,3.4c-0.4,0.5-0.9,0.6-1.3,0.2c-0.3-0.3-0.3-0.7,0-1c0.5-0.8,1-1.5,1.5-2.3c0.8-1.3,1.5-2.7,2-4.1
			c0.6-1.5,1-3,1.3-4.5c0.2-0.8,0.2-1.6,0.3-2.4c0.1-1.1,0.2-2.2,0.1-3.4c-0.1-1.3-0.2-2.6-0.4-3.9c-0.2-1.4-0.6-2.8-1.1-4.2
			c-0.9-2.5-2.1-4.8-3.6-6.9c-0.1-0.2-0.2-0.5-0.3-0.7c-0.1-0.3,0.1-0.6,0.4-0.7c0.3-0.1,0.7-0.2,0.9,0.2c0.5,0.7,1,1.4,1.5,2.1
			c0.6,0.9,1.1,1.9,1.6,2.9c0.9,1.8,1.5,3.8,1.9,5.8c0.2,0.9,0.3,1.8,0.5,2.7C166.9,322.1,166.9,322.4,167,322.8
			C166.9,322.8,166.9,322.8,167,322.8z"/>
		<path class="st0" d="M161.8,325.2c-0.1,2.9-0.6,5.8-1.7,8.5c-0.8,2-1.9,3.8-3.2,5.5c-0.4,0.5-1.1,0.6-1.4,0.1
			c-0.2-0.4-0.1-0.7,0.1-1c1-1.3,1.8-2.7,2.5-4.2c0.7-1.6,1.2-3.2,1.6-4.9c0.3-1.7,0.4-3.5,0.3-5.2c-0.1-1.5-0.3-3-0.8-4.5
			c-0.4-1.5-1-3-1.8-4.4c-0.6-1-1.2-1.9-1.9-2.8c-0.3-0.5-0.4-0.8-0.1-1.2c0.3-0.3,0.8-0.4,1.1-0.1s0.5,0.6,0.7,0.9
			c0.7,1.2,1.5,2.3,2.1,3.5c0.9,1.7,1.5,3.6,1.8,5.5c0.2,1,0.3,2.1,0.4,3.1C161.8,324.4,161.8,324.8,161.8,325.2z"/>
		<path class="st0" d="M156.6,323.9c0,0.3,0,0.9,0,1.4c0,2.3-0.5,4.6-1.4,6.7c-0.7,1.6-1.5,3-2.6,4.3c-0.2,0.3-0.5,0.6-0.9,0.5
			c-0.6-0.2-0.7-0.8-0.5-1.2c0.5-0.7,1-1.3,1.4-2c0.9-1.5,1.6-3.1,2-4.8c0.2-1,0.3-2,0.4-3c0.1-2.1-0.2-4.1-1-6
			c-0.6-1.5-1.4-3-2.4-4.3c-0.3-0.3-0.6-0.6-0.5-1.1c0-0.4,0.2-0.6,0.5-0.7s0.6-0.1,0.8,0.2c0.6,0.7,1.1,1.4,1.6,2.2
			c1.1,1.7,1.8,3.6,2.3,5.6C156.3,322.3,156.4,323,156.6,323.9z"/>
		<path class="st0" d="M151.4,325.2c0,2.1-0.6,4.1-1.6,5.9c-0.5,0.9-1.2,1.8-1.9,2.5c-0.4,0.4-0.7,0.3-1,0.2
			c-0.3-0.2-0.5-0.4-0.4-0.8c0.1-0.2,0.2-0.5,0.4-0.7c1.1-1.1,2-2.5,2.4-4c0.2-0.7,0.3-1.5,0.4-2.3c0.2-1.4,0-2.7-0.4-4
			c-0.5-1.5-1.3-2.9-2.5-4c-0.4-0.4-0.4-0.8-0.1-1.2c0.2-0.3,0.7-0.4,1-0.2c0.5,0.5,1,1,1.4,1.5c1.1,1.4,1.8,3.1,2.1,4.8
			C151.3,323.7,151.3,324.5,151.4,325.2z"/>
		<path class="st0" d="M142.5,319.5c0.3,0.2,0.7,0.3,1,0.5c1.2,0.9,2.1,2,2.4,3.5c0.5,2,0.2,3.8-1.1,5.5c-0.5,0.7-1.2,1.3-2,1.7
			c-0.4,0.2-0.8,0.1-1-0.3c-0.3-0.4,0-0.9,0.3-1.1c0.4-0.3,0.9-0.6,1.2-0.9c1.4-1.5,1.7-3.4,0.9-5.1c-0.4-1-1.2-1.7-2.1-2.2
			c-0.5-0.3-0.5-1,0-1.4C142.1,319.6,142.3,319.6,142.5,319.5z"/>
	</g>
</g>
<g id="_x38_ZjRab.tif">
	<g>
		<path class="st0" d="M221.4,321.7c0-3.6-0.1-7,0-10.5c0.1-2.4,2.3-4.2,4.8-4.3c2.4,0,4.6,1.7,4.9,4.1c0.1,0.8,0.1,1.6,0.1,2.5
			c0,2.7,0,5.4,0,8.2C227.9,321.7,224.7,321.7,221.4,321.7z M226.4,308.2c-0.1,0.1-0.1,0.2-0.2,0.2c-1.3,0-2.8,1.3-3,2.6
			c-0.1,0.8,0.3,1.3,1,1.5s1.3,0,1.5-0.6c0.3-1.1,0.9-1.3,1.9-1c0.3,0.1,0.8-0.1,0.9-0.3c0.1-0.3,0.1-0.8-0.1-1
			C227.8,309,227.1,308.6,226.4,308.2z"/>
		<path class="st0" d="M223.7,324.7c-1.4,0-2.6,0-3.9,0c0-0.8,0-1.5,0-2.2c4.3,0,8.6,0,13,0c0,0.7,0,1.4,0,2.2c-1.2,0-2.4,0-3.8,0
			c0,5.2,0,10.3,0,15.4c-0.6,0-1.1,0-1.6,0c0-5.1,0-10.2,0-15.3c-0.7,0-1.4,0-2.1,0c0,7.5,0,15.1,0,22.7c-0.6,0-1,0-1.6,0
			C223.7,339.9,223.7,332.4,223.7,324.7z"/>
		<path class="st0" d="M217.6,311.8c0,0.5,0,1,0,1.5c-2.9,0-5.8,0-8.8,0c0-0.5,0-1,0-1.5C211.7,311.8,214.6,311.8,217.6,311.8z"/>
		<path class="st0" d="M235,313.3c0-0.5,0-1,0-1.5c2.9,0,5.8,0,8.8,0c0,0.5,0,1,0,1.5C240.9,313.3,238,313.3,235,313.3z"/>
		<path class="st0" d="M227.1,295c0,2.9,0,5.8,0,8.7c-0.5,0-1,0-1.5,0c0-2.9,0-5.8,0-8.7C226,295,226.5,295,227.1,295z"/>
		<path class="st0" d="M213.5,300.5c0.2-0.2,0.6-0.5,0.8-0.7c2,2,4.1,4.1,6.2,6.1c-0.2,0.2-0.6,0.5-0.9,0.7
			C217.7,304.7,215.6,302.6,213.5,300.5z"/>
		<path class="st0" d="M238.4,299.7c0.2,0.2,0.5,0.6,0.7,0.8c-2.1,2.1-4.1,4.1-6.2,6.2c-0.2-0.2-0.5-0.6-0.7-0.9
			C234.1,303.9,236.2,301.8,238.4,299.7z"/>
	</g>
</g>
<path d="M112.6,268"/>
<polyline class="st2" points="141.6,304 141.6,297 121.6,297 115.6,291 115.6,284 115.6,278 "/>
<polyline class="st2" points="123.6,278 123.6,284 128.6,289 226.6,289 226.6,293 "/>
<polyline class="st2" points="107.6,278 107.6,291 102.1,296.5 70.6,296.5 70.6,303 "/>
<polyline class="st2" points="460.6,278 460.6,285 453.6,292 382.6,292 375.1,284.5 375.1,278 "/>
<polyline class="st2" points="469.6,278 469.6,285 453.1,301.5 382.6,301.5 365.9,284.8 294.6,284.8 289.2,279.4 289.2,274 "/>
</svg>
