<svg xmlns="http://www.w3.org/2000/svg" width="1.63in" height="4.67in" viewBox="0 0 117.64 336.6"><defs><style>.a{fill:#f5f5f5;}.b{fill:#f26483;}</style></defs><title>3_behavior</title><path class="a" d="M30.53,15c.13.22.37.44.38.66,0,1.28,0,2.56,0,3.84a.22.22,0,0,0,.21.22c.77,0,1.53,0,2.3,0a.63.63,0,0,1,.63.63c0,.75,0,1.51,0,2.26a.26.26,0,0,0,.26.25c1.27,0,2.54,0,3.82,0,.36,0,.63.14.63.53s-.26.53-.63.53c-1.28,0-2.56,0-3.84,0a.24.24,0,0,0-.24.24c0,.9,0,1.79,0,2.69a.21.21,0,0,0,.21.21c1.28,0,2.56,0,3.84,0,.37,0,.66.11.66.52s-.29.55-.67.55c-1.26,0-2.53,0-3.79,0a.26.26,0,0,0-.25.25c0,.86,0,1.71,0,2.57,0,.25,0,.33.32.33,1.25,0,2.5,0,3.74,0,.36,0,.66.1.67.51s-.28.55-.66.55q-1.92,0-3.84,0a.21.21,0,0,0-.21.2q0,1.12,0,2.25a.68.68,0,0,1-.69.69c-.74,0-1.47,0-2.21,0a.25.25,0,0,0-.24.25c0,1.27,0,2.54,0,3.82,0,.37-.13.65-.53.65s-.52-.29-.52-.66q0-1.92,0-3.84a.22.22,0,0,0-.21-.21c-.89,0-1.79,0-2.68,0a.25.25,0,0,0-.24.24c0,1.26,0,2.53,0,3.79,0,.37-.11.68-.53.68s-.53-.31-.53-.68c0-1.26,0-2.53,0-3.79a.25.25,0,0,0-.24-.24c-.9,0-1.79,0-2.69,0a.21.21,0,0,0-.21.21c0,1.3,0,2.61,0,3.91,0,.2-.32.4-.49.6-.18-.19-.5-.38-.51-.58,0-1.3,0-2.61,0-3.91a.22.22,0,0,0-.22-.22c-.75,0-1.51,0-2.26,0a.66.66,0,0,1-.66-.66c0-.75,0-1.5,0-2.25a.24.24,0,0,0-.23-.23q-1.89,0-3.79,0c-.38,0-.68-.1-.68-.52s.31-.54.69-.53c1.24,0,2.48,0,3.72,0,.27,0,.32-.08.32-.33,0-.86,0-1.71,0-2.57a.26.26,0,0,0-.25-.25c-1.27,0-2.54,0-3.82,0-.37,0-.64-.14-.64-.54s.28-.52.64-.52c1.28,0,2.56,0,3.84,0a.24.24,0,0,0,.23-.23q0-1.33,0-2.67a.24.24,0,0,0-.24-.24c-1.29,0-2.58,0-3.87,0-.36,0-.65-.17-.58-.52a.81.81,0,0,1,.59-.51c1.29,0,2.58,0,3.86,0a.24.24,0,0,0,.24-.23c0-.77,0-1.53,0-2.3a.61.61,0,0,1,.6-.61c.77,0,1.54,0,2.31,0a.24.24,0,0,0,.23-.24c0-1.26,0-2.53,0-3.79,0-.23.25-.46.38-.69h.3c.12.24.33.47.34.72,0,1.25,0,2.51,0,3.76a.24.24,0,0,0,.24.24q1.33,0,2.67,0a.23.23,0,0,0,.23-.23c0-1.26,0-2.53,0-3.79,0-.24.24-.47.37-.7h.3c.13.23.36.46.37.7,0,1.26,0,2.52,0,3.79a.23.23,0,0,0,.23.23q1.34,0,2.69,0a.22.22,0,0,0,.22-.22c0-1.26,0-2.53,0-3.79,0-.24.22-.48.34-.71ZM26.2,21H19.62a.35.35,0,0,0-.25.24q0,6.57,0,13.15a.39.39,0,0,0,.26.27q6.56,0,13.12,0a.39.39,0,0,0,.26-.27q0-6.57,0-13.15a.35.35,0,0,0-.25-.23H26.2" transform="translate(-13.2 -15)"/><path class="b" d="M26.2,32.46H22.11a.64.64,0,0,1-.65-.65q0-4.1,0-8.2a.62.62,0,0,1,.62-.62h8.22a.62.62,0,0,1,.62.62q0,4.09,0,8.19a.65.65,0,0,1-.65.65H26.2M22.2,28h.32c0,1.15,0,2.3,0,3.44a.26.26,0,0,0,.26.25q3.42,0,6.84,0a.25.25,0,0,0,.25-.25q0-3.42,0-6.85a.25.25,0,0,0-.25-.25q-3.43,0-6.86,0a.24.24,0,0,0-.24.23c0,1.14,0,2.28,0,3.41" transform="translate(-13.2 -15)"/><path class="a" d="M51.18,31V27.41H47.54V31h-.66V23.25h.65v3.59h3.64V23.25h.66V31Z" transform="translate(-13.2 -15)"/><path class="a" d="M58.36,31.1a1,1,0,0,1-1.08-.79,3.26,3.26,0,0,1-2.19.81,1.49,1.49,0,0,1-1.61-1.67c0-1.45,1.31-1.78,2.23-1.8l1.53,0V26.7c0-1.07-.51-1.27-1.66-1.27a5.39,5.39,0,0,0-1.41.27L54,25.2a5,5,0,0,1,1.78-.32c1.2,0,2,.41,2,1.54v3.52a.59.59,0,0,0,.57.66Zm-1.11-3-1.58.07c-1,0-1.58.55-1.58,1.2,0,.92.45,1.2,1.2,1.2a4,4,0,0,0,2-.78Z" transform="translate(-13.2 -15)"/><path class="a" d="M65.33,25.92a2.92,2.92,0,0,0-1.47-.47,2.27,2.27,0,0,0-1.69,1v4h2.21V31H59.91v-.56h1.65v-4.9H59.91V25h2.26v.75a2.13,2.13,0,0,1,1.72-.86,3,3,0,0,1,1.71.51Z" transform="translate(-13.2 -15)"/><path class="a" d="M70.87,31v-.62a2.68,2.68,0,0,1-1.68.7c-1,0-2.46-.36-2.46-3,0-2.11,1.25-3.19,2.74-3.19a4.25,4.25,0,0,1,1.41.18V22.74h.6V31Zm0-5.4a4.14,4.14,0,0,0-1.42-.22c-1.54,0-2.1,1.39-2.1,2.71,0,1.71.73,2.48,1.83,2.48a3.2,3.2,0,0,0,1.69-.77Z" transform="translate(-13.2 -15)"/><path class="a" d="M77.73,31h-.91l-1-5.54h0L74.48,31h-.91l-.85-6h.64L74,30.64h0L75.32,25h.9l1.07,5.61h0L78.17,25h.6Z" transform="translate(-13.2 -15)"/><path class="a" d="M84.76,31.1a1,1,0,0,1-1.08-.79,3.26,3.26,0,0,1-2.19.81,1.49,1.49,0,0,1-1.61-1.67c0-1.45,1.31-1.78,2.23-1.8l1.53,0V26.7c0-1.07-.51-1.27-1.66-1.27a5.39,5.39,0,0,0-1.41.27l-.13-.51a5,5,0,0,1,1.78-.32c1.2,0,2,.41,2,1.54v3.52a.59.59,0,0,0,.57.66Zm-1.11-3-1.58.07c-1,0-1.58.55-1.58,1.2,0,.92.45,1.2,1.2,1.2a4,4,0,0,0,2-.78Z" transform="translate(-13.2 -15)"/><path class="a" d="M91.73,25.92a2.92,2.92,0,0,0-1.47-.47,2.27,2.27,0,0,0-1.69,1v4h2.21V31H86.31v-.56H88v-4.9H86.31V25h2.26v.75a2.13,2.13,0,0,1,1.72-.86,3,3,0,0,1,1.71.51Z" transform="translate(-13.2 -15)"/><path class="a" d="M93.76,28.08c0,2.18,1.14,2.49,2.48,2.49a6.85,6.85,0,0,0,1.42-.2l.13.52a5.2,5.2,0,0,1-1.8.24c-1.68,0-2.85-.72-2.85-3s1.25-3.26,2.68-3.26,2.16.95,2.16,3v.22Zm1.94-2.73c-1,0-1.8.74-1.94,2.22h3.56C97.32,26.23,96.74,25.35,95.69,25.35Z" transform="translate(-13.2 -15)"/><path class="a" d="M49.08,93.41A5.23,5.23,0,0,1,46.91,93l.26-.55a5.36,5.36,0,0,0,1.87.4c.85,0,2.12-.18,2.12-1.43,0-2.06-4.08-1.64-4.08-4.08,0-1.36,1.09-1.82,2.3-1.82a4.74,4.74,0,0,1,1.9.36l-.19.51A4.89,4.89,0,0,0,49.41,86c-.86,0-1.71.24-1.71,1.19,0,1.94,4.09,1.61,4.09,4.09C51.79,92.95,50.55,93.41,49.08,93.41Z" transform="translate(-13.2 -15)"/><path class="a" d="M56.58,93.4c-1.1,0-1.95-.21-1.95-1.61V87.85H53.2V87.3h1.43V86.07h.58V87.3h3.43v.55H55.22v3.77c0,.94.33,1.21,1.34,1.21a5.46,5.46,0,0,0,2-.41l.17.49A5.76,5.76,0,0,1,56.58,93.4Z" transform="translate(-13.2 -15)"/><path class="a" d="M60.27,93.31v-.56h2.29V87.84H60.49V87.3h2.68v5.45h2.29v.56ZM62.87,86l-.58-.6.58-.59.6.59Z" transform="translate(-13.2 -15)"/><path class="a" d="M71.16,93.31V89.58c0-1,0-1.86-.74-1.86-.47,0-.85.55-1,.83a7.22,7.22,0,0,1,0,.86v3.91h-.59V89.36c0-.8,0-1.66-.65-1.66-.42,0-.9.72-1.07,1v4.63h-.6v-6h.6V88a1.4,1.4,0,0,1,1.13-.82,1,1,0,0,1,1,.79,1.28,1.28,0,0,1,1.18-.79c1.29,0,1.3,1.2,1.3,2.23v3.91Z" transform="translate(-13.2 -15)"/><path class="a" d="M77.43,93.31v-.73a4,4,0,0,1-2.19.85c-1.64,0-1.75-1.33-1.75-2.27V87.3h.61V91c0,1,0,1.87,1.25,1.87A4.63,4.63,0,0,0,77.43,92V87.3H78v6Z" transform="translate(-13.2 -15)"/><path class="a" d="M79.74,93.31v-.56h2.31V85.53H80V85h2.68v7.73h2.29v.56Z" transform="translate(-13.2 -15)"/><path class="a" d="M86.67,93.31v-.56H89V87.84H86.89V87.3h2.68v5.45h2.29v.56ZM89.27,86l-.58-.6.58-.59.6.59Z" transform="translate(-13.2 -15)"/><path class="a" d="M24,89.92q0,4,0,8a.69.69,0,0,1-.36.71.59.59,0,0,1-.74-.16l-3-3.32c-.52-.53-1-1.11-1.53-1.64A.62.62,0,0,0,18,93.4c-.7,0-1.4,0-2.09-.07a2.78,2.78,0,0,1-2.39-2.58,9.18,9.18,0,0,1,.08-2.25,2.51,2.51,0,0,1,2.15-2c.75-.09,1.51,0,2.26-.09a.54.54,0,0,0,.37-.17q2.24-2.42,4.46-4.86a.69.69,0,0,1,.7-.27c.3.07.47.32.47.71q0,2.63,0,5.26Z" transform="translate(-13.2 -15)"/><path class="a" d="M39,90A12.57,12.57,0,0,1,28.53,102.3a10.91,10.91,0,0,1-1.11.14.92.92,0,0,1-1-.86c-.06-.72.27-1.18.89-1.23a10,10,0,0,0,5.62-2.26,10.17,10.17,0,0,0,3.88-9.33,10.45,10.45,0,0,0-8.85-9.26c-.22,0-.44,0-.65-.07-.63-.06-1-.52-.89-1.23a.91.91,0,0,1,1.06-.85,12.4,12.4,0,0,1,10.8,8.39A11.88,11.88,0,0,1,39,90" transform="translate(-13.2 -15)"/><path class="a" d="M35.57,89.71A9.24,9.24,0,0,1,27.73,99a1.86,1.86,0,0,1-.65,0c-.49-.11-.73-.53-.69-1.15a.93.93,0,0,1,.83-.9,6.92,6.92,0,0,0,5.88-4.87,7.08,7.08,0,0,0-5.85-9.24.88.88,0,0,1-.8-.61A1.15,1.15,0,0,1,26.64,81a.94.94,0,0,1,.87-.29,9.19,9.19,0,0,1,8,7.95c0,.4.07.8.09,1" transform="translate(-13.2 -15)"/><path class="b" d="M32.16,89.82a5.82,5.82,0,0,1-4.54,5.74.93.93,0,0,1-1.21-.68,1,1,0,0,1,.74-1.37,3.61,3.61,0,0,0,2.85-3,3.69,3.69,0,0,0-2.79-4.25,1.1,1.1,0,0,1-.7-1.63.94.94,0,0,1,1-.44,5.82,5.82,0,0,1,4.6,5.17l0,.45" transform="translate(-13.2 -15)"/><path class="a" d="M49.68,148.38v7.21H49v-7.21h-2.4v-.57h5.44v.57Z" transform="translate(-13.2 -15)"/><path class="a" d="M58.36,155.65a1,1,0,0,1-1.08-.79,3.26,3.26,0,0,1-2.19.81A1.49,1.49,0,0,1,53.49,154c0-1.45,1.31-1.78,2.23-1.8l1.53,0v-.91c0-1.07-.51-1.27-1.66-1.27a5.39,5.39,0,0,0-1.41.27l-.13-.51a5,5,0,0,1,1.78-.32c1.2,0,2,.41,2,1.54v3.52a.59.59,0,0,0,.57.66Zm-1.11-3-1.58.07c-1,0-1.58.55-1.58,1.2,0,.92.45,1.2,1.2,1.2a4,4,0,0,0,2-.78Z" transform="translate(-13.2 -15)"/><path class="a" d="M62.28,155.68a4.76,4.76,0,0,1-2-.34l.19-.55a4.23,4.23,0,0,0,1.76.35c.94,0,2-.18,2-1,0-1.5-3.65-1-3.65-3.11,0-1.11.91-1.53,2-1.53a4.75,4.75,0,0,1,1.79.32l-.18.49a5,5,0,0,0-1.67-.3c-.79,0-1.41.29-1.41,1,0,1.61,3.65,1.17,3.65,3.14C64.78,155.39,63.25,155.68,62.28,155.68Z" transform="translate(-13.2 -15)"/><path class="a" d="M67.09,155.59v-8.3h.6v8.3Zm3.89,0-2.85-3.18L71,149.58h.75l-2.87,2.82,2.88,3.19Z" transform="translate(-13.2 -15)"/><path class="a" d="M75.48,155.68a4.76,4.76,0,0,1-2-.34l.19-.55a4.23,4.23,0,0,0,1.76.35c.94,0,2-.18,2-1,0-1.5-3.65-1-3.65-3.11,0-1.11.91-1.53,2-1.53a4.75,4.75,0,0,1,1.79.32l-.18.49a5,5,0,0,0-1.67-.3c-.79,0-1.41.29-1.41,1,0,1.61,3.65,1.17,3.65,3.14C78,155.39,76.45,155.68,75.48,155.68Z" transform="translate(-13.2 -15)"/><path class="a" d="M37.2,145.93v17a1.79,1.79,0,0,1-1.82,1.77H17a1.79,1.79,0,0,1-1.82-1.77V141.43A1.79,1.79,0,0,1,17,139.66H30.76Zm-2,1.26-5.39-5.53H17.2v22h18Z" transform="translate(-13.2 -15)"/><rect class="a" x="6" y="130.66" width="7" height="2"/><rect class="b" x="6" y="135.66" width="13" height="2"/><rect class="a" x="6" y="139.66" width="13" height="2"/><rect class="a" x="6" y="142.66" width="13" height="2"/><path class="a" d="M48.57,217.87H47v-7.78H48.5c2.46,0,3.38,1.38,3.38,3.86C51.88,216.69,51.11,217.87,48.57,217.87Zm-.1-7.22h-.79v6.66h1c2.08,0,2.55-1.08,2.55-3.23C51.24,211.73,50.61,210.65,48.47,210.65Z" transform="translate(-13.2 -15)"/><path class="a" d="M58.36,217.93a1,1,0,0,1-1.08-.79,3.26,3.26,0,0,1-2.19.81,1.49,1.49,0,0,1-1.61-1.67c0-1.45,1.31-1.78,2.23-1.8l1.53,0v-.91c0-1.07-.51-1.26-1.66-1.26a5.41,5.41,0,0,0-1.41.27L54,212a5,5,0,0,1,1.78-.32c1.2,0,2,.41,2,1.54v3.52a.59.59,0,0,0,.57.66Zm-1.11-3-1.58.07c-1,0-1.58.55-1.58,1.2,0,.92.45,1.2,1.2,1.2a4,4,0,0,0,2-.78Z" transform="translate(-13.2 -15)"/><path class="a" d="M63.18,218c-1.1,0-1.95-.21-1.95-1.61v-3.94H59.8v-.55h1.43v-1.23h.58v1.23h3.43v.55H61.82v3.77c0,.94.33,1.21,1.34,1.21a5.47,5.47,0,0,0,2-.41l.17.49A5.76,5.76,0,0,1,63.18,218Z" transform="translate(-13.2 -15)"/><path class="a" d="M71.56,217.93a1,1,0,0,1-1.08-.79,3.26,3.26,0,0,1-2.19.81,1.49,1.49,0,0,1-1.61-1.67c0-1.45,1.31-1.78,2.23-1.8l1.53,0v-.91c0-1.07-.51-1.26-1.66-1.26a5.41,5.41,0,0,0-1.41.27l-.13-.51a5,5,0,0,1,1.78-.32c1.2,0,2,.41,2,1.54v3.52a.59.59,0,0,0,.57.66Zm-1.11-3-1.58.07c-1,0-1.58.55-1.58,1.2,0,.92.45,1.2,1.2,1.2a4,4,0,0,0,2-.78Z" transform="translate(-13.2 -15)"/><path class="a" d="M38.7,209.94v15.45a1.35,1.35,0,0,1-.46,1.09,1.48,1.48,0,0,1-1.09.46H15.24a1.35,1.35,0,0,1-1.09-.46,1.48,1.48,0,0,1-.45-1.09v-21.9a1.35,1.35,0,0,1,.45-1.09,1.67,1.67,0,0,1,1.09-.46H30.33a3.65,3.65,0,0,1,1.45.32A4.37,4.37,0,0,1,33,203l4.55,4.55a4,4,0,0,1,.77,1.23,3.26,3.26,0,0,1,.36,1.46m-19,14.67h13v-6h-13Zm8-15v-5.52a.45.45,0,0,0-.48-.48h-3a.45.45,0,0,0-.48.48v5a.5.5,0,0,0,.13.35.5.5,0,0,0,.35.13h3a.5.5,0,0,0,.35-.13.5.5,0,0,0,.13-.35m-10-5.52h-3v21.57l2-.46v-6.62a1.26,1.26,0,0,1,.47-1,1.56,1.56,0,0,1,1.11-.44H32.12a1.42,1.42,0,0,1,1.12.44,1.38,1.38,0,0,1,.46,1v6.51h3V210.24a1.59,1.59,0,0,0-.17-.64,1.46,1.46,0,0,0-.31-.55l-4.38-4.58a1.36,1.36,0,0,0-.53-.32,2.14,2.14,0,0,0-.61-.18v7.43a1.34,1.34,0,0,1-.47,1.1,1.78,1.78,0,0,1-1.13.46H19.31a1.42,1.42,0,0,1-1.13-.46,1.47,1.47,0,0,1-.47-1.1v-7.44" transform="translate(-13.2 -15)"/><path class="a" d="M49.61,280.15h-1l-2.16-7.78h.7l1.64,6.15.32,1.19h0l.37-1.19,2-6.15h.65Z" transform="translate(-13.2 -15)"/><path class="a" d="M53.67,280.15v-.56H56v-4.91H53.89v-.54h2.68v5.45h2.29v.56Zm2.6-7.27-.58-.6.58-.59.6.59Z" transform="translate(-13.2 -15)"/><path class="a" d="M62.28,280.23a4.77,4.77,0,0,1-2-.34l.19-.55a4.22,4.22,0,0,0,1.76.35c.94,0,2-.18,2-1,0-1.5-3.65-1-3.65-3.11,0-1.11.91-1.53,2-1.53a4.75,4.75,0,0,1,1.79.32l-.18.49a5,5,0,0,0-1.67-.3c-.79,0-1.41.29-1.41,1,0,1.61,3.65,1.17,3.65,3.13C64.78,279.95,63.25,280.23,62.28,280.23Z" transform="translate(-13.2 -15)"/><path class="a" d="M70.83,280.15v-.73a3.94,3.94,0,0,1-2.19.85c-1.64,0-1.75-1.33-1.75-2.27v-3.86h.61v3.67c0,1,0,1.87,1.25,1.87a4.63,4.63,0,0,0,2.08-.85v-4.7h.57v6Z" transform="translate(-13.2 -15)"/><path class="a" d="M78.16,280.21a1,1,0,0,1-1.08-.79,3.26,3.26,0,0,1-2.19.81,1.49,1.49,0,0,1-1.61-1.67c0-1.45,1.31-1.78,2.23-1.8l1.53,0v-.91c0-1.07-.51-1.26-1.66-1.26a5.41,5.41,0,0,0-1.41.27l-.13-.51a5,5,0,0,1,1.78-.32c1.2,0,2,.41,2,1.54v3.52a.59.59,0,0,0,.57.66Zm-1.11-3-1.58.07c-1,0-1.58.55-1.58,1.2,0,.92.45,1.2,1.2,1.2a4,4,0,0,0,2-.78Z" transform="translate(-13.2 -15)"/><path class="a" d="M79.74,280.15v-.56h2.31v-7.22H80v-.52h2.68v7.73h2.29v.56Z" transform="translate(-13.2 -15)"/><path class="a" d="M86.67,280.15v-.56H89v-4.91H86.89v-.54h2.68v5.45h2.29v.56Zm2.6-7.27-.58-.6.58-.59.6.59Z" transform="translate(-13.2 -15)"/><path class="a" d="M93.09,280.15v-.63l4.19-4.81H93.4v-.57H98v.58l-4.26,4.85H98v.57Z" transform="translate(-13.2 -15)"/><path class="a" d="M104.56,280.21a1,1,0,0,1-1.08-.79,3.26,3.26,0,0,1-2.19.81,1.49,1.49,0,0,1-1.61-1.67c0-1.45,1.31-1.78,2.23-1.8l1.53,0v-.91c0-1.07-.51-1.26-1.66-1.26a5.41,5.41,0,0,0-1.41.27l-.13-.51A5,5,0,0,1,102,274c1.2,0,2,.41,2,1.54v3.52a.59.59,0,0,0,.57.66Zm-1.11-3-1.58.07c-1,0-1.58.55-1.58,1.2,0,.92.45,1.2,1.2,1.2a4,4,0,0,0,2-.78Z" transform="translate(-13.2 -15)"/><path class="a" d="M109.38,280.23c-1.1,0-1.95-.21-1.95-1.61v-3.94H106v-.55h1.43v-1.23H108v1.23h3.43v.55H108v3.77c0,.94.33,1.21,1.34,1.21a5.47,5.47,0,0,0,2-.41l.17.49A5.76,5.76,0,0,1,109.38,280.23Z" transform="translate(-13.2 -15)"/><path class="a" d="M113.07,280.15v-.56h2.29v-4.91h-2.07v-.54H116v5.45h2.29v.56Zm2.6-7.27-.58-.6.58-.59.6.59Z" transform="translate(-13.2 -15)"/><path class="a" d="M121.94,280.23c-1.58,0-2.6-1-2.6-3s1.13-3.2,2.65-3.2c1.69,0,2.56,1.11,2.56,3.13S123.44,280.23,121.94,280.23Zm2-3.09c0-1.14-.36-2.62-2-2.62s-2,1.45-2,2.63.47,2.56,2,2.56,1.95-1.33,1.95-2.57Z" transform="translate(-13.2 -15)"/><path class="a" d="M130.25,280.15v-3.73c0-1.1-.13-1.86-1.36-1.86a4.33,4.33,0,0,0-2,.84v4.75h-.62v-6h.6v.7A3.41,3.41,0,0,1,129,274c1.74,0,1.84,1.29,1.84,2.23v3.91Z" transform="translate(-13.2 -15)"/><polygon class="a" points="26 271.72 26 273.72 0 273.72 0 249.72 2 249.72 2 271.72 26 271.72"/><rect class="b" x="5" y="261.72" width="3" height="8"/><rect class="a" x="11" y="253.72" width="3" height="16"/><rect class="a" x="18" y="258.72" width="3" height="11"/><path class="a" d="M49.37,342.57c-1.44,0-2.56-.53-2.56-2.72v-5.2h.67v5.13c0,1.84.8,2.21,1.89,2.21s1.9-.5,1.9-2.48v-4.86h.62v4.91C51.89,342,50.67,342.57,49.37,342.57Z" transform="translate(-13.2 -15)"/><path class="a" d="M53.34,342.42v-.56h2.29v-6.68H53.34v-.54h5.19v.54H56.27v6.68h2.27v.56Z" transform="translate(-13.2 -15)"/><path class="a" d="M35.12,351a1,1,0,0,1-1.12.62q-7.87,0-15.74,0a1,1,0,0,1-1-1q0-1.59,0-3.17a.94.94,0,0,1,.94-.94H34a1,1,0,0,1,1.09.66Z" transform="translate(-13.2 -15)"/><path class="a" d="M30.79,331.24A4.84,4.84,0,1,1,26,326.4a4.81,4.81,0,0,1,4.77,4.84m-8,0a3.82,3.82,0,0,0,.48,1.92c.56.93,1.48.95,2,0a4.56,4.56,0,0,0,.46-1.48,3.44,3.44,0,0,0-.55-2.51,1,1,0,0,0-1.8,0,2.53,2.53,0,0,0-.18.29,4,4,0,0,0-.41,1.78" transform="translate(-13.2 -15)"/><path class="a" d="M27.12,346h-3v-9.1a12.76,12.76,0,0,0,1.52.16,12,12,0,0,0,1.48-.19Z" transform="translate(-13.2 -15)"/><path class="b" d="M34.12,346H29c0-.29,0-.56,0-.83a.48.48,0,0,1,.59-.43,10.42,10.42,0,0,0,4,0,.46.46,0,0,1,.57.44,7.89,7.89,0,0,1,0,.82" transform="translate(-13.2 -15)"/></svg>