<?xml version="1.0" encoding="utf-8"?>
<!-- Generator: Adobe Illustrator 21.1.0, SVG Export Plug-In . SVG Version: 6.00 Build 0)  -->
<svg version="1.1" id="Layer_1" xmlns="http://www.w3.org/2000/svg" xmlns:xlink="http://www.w3.org/1999/xlink" x="0px" y="0px"
	 width="950px" height="950px" viewBox="0 0 950 950" style="enable-background:new 0 0 950 950;" xml:space="preserve">
<style type="text/css">
	.st0{fill:#F5F5F5;}
	.st1{fill:#FF3030;}
	.st2{fill:none;stroke:#F5F5F5;stroke-width:30;stroke-linecap:round;stroke-miterlimit:10;}
	.st3{fill:none;stroke:#F5F5F5;stroke-width:15;stroke-linecap:round;stroke-miterlimit:10;}
</style>
<g>
	<path class="st0" d="M763.1,473.5c-0.5,0-1-0.5-2.3-1.2c0-2.9,0-6.1,0-9.4c0-36.6,0-73.2,0-109.8c0-26.6-11.6-38.2-38-38.2
		c-6.2,0-12.4,0-18.5,0c1.4,6.9-0.8,14.8-4,21.3c2.3,0,4.7,0,7,0c0.9-0.4,1.9-0.8,2.9-1.1c1.7-0.6,3.4,0,4.6,1.1c2.8,0,5.5,0,8.3,0
		c14.2,0,16.7,2.6,16.7,17.1c0,36.6,0,73.2,0,109.7c0,3,0,6,0,9.9c-3.7,0.3-6.9,0.7-10.1,0.7c-26.9,0.1-53.8,0-80.7,0.1
		c-18,0.1-25.5,7.4-25.5,25.2c-0.1,36.3,0,72.6,0,108.8c0,17.1,7.7,24.7,25.1,24.7c29.9,0,59.8,0,91.2,0c0,3.3,0,6.2,0,9.1
		c0,76.2,0,152.4,0,228.6c0,13.6-2.8,16.4-16.5,16.4c-30.2,0-60.5,0-90.7,0c-2.7,0-5.3,0-8.7,0c-0.2-4-0.4-7.2-0.4-10.4
		c0-44.1,0-88.3,0-132.4c0-18.9-7.4-26.3-26.3-26.3c-25.4,0-50.8-0.1-76.2,0c-16.9,0-24.4,7.5-24.4,24.3c-0.1,44.7,0,89.5,0,134.2
		c0,3.2,0,6.5,0,10.2H475c0-3.1,0-6.3,0-9.5c0-20.6,0.1-41.1,0-61.7c-0.1-15.4-8.1-23.5-23.6-23.6c-33.6-0.2-67.1-0.1-100.7,0
		c-15.9,0.1-23.9,8.2-24,24.2c-0.1,23.2,0,46.5,0,70.2c-2.6,0.3-4.6,0.8-6.6,0.8c-32,0-64.1,0.1-96.1,0c-9.6,0-13.5-3.7-13.5-12.9
		c-0.1-57.4,0-114.9,0-172.3c0-1.4,0.3-2.9,0.5-4.7h20.7c0,11.6,0,23.2,0,34.8c0,15.7,1.9,17.5,17.9,17.6c20.9,0,41.7,0,62.6,0
		c9.8,0,14.9-3.7,14.5-10.8c-0.6-8.8-6.8-10.4-14.1-10.3c-5.4,0.1-10.8,0-16.7,0v-21.1c6,0,12.2,0,18.4,0c7.4,0,12.6-3.1,12.4-11.1
		c-0.2-7.5-5.4-10.2-12.4-10.2c-6,0-12,0-18.8,0v-21.1c6.3,0,12.5,0,18.7,0c7.4,0,12.7-2.9,12.5-11c-0.3-7.5-5.4-10.2-12.4-10.1
		c-6,0.1-11.9,0-18.4,0v-21.3c6.7,0,13,0,19.3,0c6.7,0,11.2-3.1,11.5-10c0.3-7.5-4.4-10.8-11.5-11c-6.3-0.1-12.5,0-19.3,0v-21.1
		c6.2,0,12.4,0,18.6,0c6.9-0.1,12.1-2.8,12.2-10.4c0.1-8.1-5.2-10.9-12.5-10.9c-5.7,0-11.5,0-18,0v-21.1c5.7,0,11.7,0,17.6,0
		c7.2,0,13-2.3,13-10.5c0-8-5.3-10.8-12.7-10.7c-5.7,0.1-11.4,0-17.8,0v-21.3c6.1,0,12.3,0,18.5,0c7.1,0,12-3,12.1-10.4
		c0.1-7.6-4.8-10.6-11.9-10.6c-23.6-0.1-47.2-0.2-70.7,0.1c-9,0.1-12.1,3.8-12.2,13.2c-0.1,12.9,0,25.8,0,39.2h-20.8
		c-0.2-3.1-0.4-6.3-0.4-9.5c0-54.7,0-109.4,0-164.2c0-13.7,2.7-16.3,16.5-16.3c54.2,0,108.3,0,162.5,0c-8.7-3.5-16.8-8.2-23.5-14.3
		c-2-1-4-2-6-3.1c-1.8-0.9-2.5-2.4-2.5-3.9c-43.6,0-87.1,0-130.7,0c-25.3,0-37.3,11.9-37.3,37.1c0,54.4,0,108.9,0,163.3
		c0,3.5,0,7,0,11.4c-4.6,0-7.9-0.2-11.1,0c-11.7,0.7-20.4,8.5-20.4,20.1c-0.3,42.9-0.3,85.9,0,128.8c0.1,11.5,8.9,19.5,20.4,20.2
		c3.5,0.2,7,0,11.1,0V708c0,54.7-0.1,109.5,0,164.2c0,22.8,12.7,35.4,35.4,35.5c30.5,0.1,61.1,0,91.6,0c3.2,0,6.5,0,9.8,0
		c0.3,2.3,0.6,3.4,0.6,4.6c0.9,20.8,7.2,26.9,27.6,26.9c28.4,0,56.8,0,85.3,0c30.2,0,32.1-1.6,36.4-31h19.7c0.2,2.9,0.5,5.2,0.6,7.6
		c0.6,21.9,12.9,34,34.8,34.1c20,0.1,39.9,0.2,59.9-0.1c18.4-0.2,31.2-12.8,32.3-31.2c0.2-3.4,0-6.9,0-11c34.1,0,66.8,0,99.4,0
		c26.3,0,38.1-11.9,38.1-38.3c0-75,0-150,0-225c0-3.8,0-7.6,0-11.6c2.5-0.3,3.7-0.4,4.8-0.5c20.5-0.6,26.9-7.2,26.9-27.6
		c0-33.3,0-66.5,0-99.8C792.5,479.7,788.7,475.6,763.1,473.5z M253.5,495h19.6v232.1h-19.6V495z M179.3,674.1V548.2h51.6v125.8
		H179.3z M453.2,917.7H348.6V812.8h104.6V917.7z M518.1,739h83.3v104.8h-31.1c0-9.3,0-18.8,0-28.3c0-4.5,0.2-9.1-0.1-13.6
		c-0.4-6.3-3.8-10.4-10.3-10.4c-6.9,0-10.5,4.1-10.6,10.9c-0.2,11.2,0,22.4-0.1,33.6c0,2.4-0.3,4.7-0.5,7.7h-30.6V739z M601.4,919.4
		c-0.2,3.2-6,8.6-9.3,8.7c-21.4,0.8-42.9,0.9-64.3,0c-3.6-0.1-9.6-5.8-9.8-9.2c-1-17.4-0.5-34.9-0.5-53.2h84.4
		C601.9,884,602.3,901.7,601.4,919.4z M770.7,610.6H644.8V495.5h125.9V610.6z"/>
	<path class="st1" d="M474.8,695.9c-20.3,0-40.5,0.1-60.8,0c-15.2-0.1-23.7-8.3-23.7-23.5c0.1-22.9,0.9-45.8,1-68.7
		c0-17.3-0.9-34.7-1-52c-0.1-17.1,7.9-24.9,25-24.9c39.9,0,79.8,0,119.7,0c16.6,0,24.9,7.8,24.8,24.2c-0.1,23.1-1,46.1-1.1,69.2
		c-0.1,17.3,0.5,34.6,1,51.9c0.4,14.2-8.1,23.7-22.4,23.8C516.5,696.1,495.6,695.9,474.8,695.9z M538.3,674.7c0-42.6,0-84.4,0-126.2
		c-42.8,0-84.6,0-126.6,0c0,42.3,0,83.8,0,126.2C454.5,674.7,496.3,674.7,538.3,674.7z"/>
	<path class="st0" d="M263.8,865.1c-17.7,0.2-31.9-13.6-32.1-31.2c-0.2-17.6,13.7-31.9,31.2-32.2c17.3-0.3,31.9,14,32.2,31.4
		C295.4,850.6,281.4,864.9,263.8,865.1z M275.2,836.1c0.1-1.4,0.1-2.8,0.2-4.2c-3.8-2.9-7.2-7.5-11.5-8.4c-6-1.4-10.3,3-10.8,9.3
		c-0.5,6.8,3.6,11.7,10,11C267.4,843.2,271.2,838.7,275.2,836.1z"/>
	<path class="st0" d="M262.9,420.6c-17.6-0.2-31.4-14.4-31.2-32.1c0.2-17.5,14.8-31.7,32.2-31.3c17.5,0.4,31.6,14.9,31.3,32.3
		C294.8,407.1,280.6,420.8,262.9,420.6z M275.4,390.6c-0.1-1.4-0.1-2.8-0.2-4.2c-4-2.6-7.8-6.9-12.1-7.5c-6.1-0.9-9.8,3.8-10.1,10.1
		c-0.3,6,5.4,12,10.9,10.2C268.2,397.9,271.6,393.6,275.4,390.6z"/>
	<path class="st0" d="M718.3,833.9c-0.2,17.6-14.3,31.3-32.1,31.2c-17.6-0.2-31.6-14.5-31.4-32c0.2-17.4,14.9-31.7,32.2-31.4
		C704.6,802,718.5,816.4,718.3,833.9z M698.6,835.5c0-1.4,0-2.8-0.1-4.2c-3.9-2.8-7.6-7.1-11.9-7.9c-6-1-10.2,3.5-10.3,9.8
		c-0.2,6.8,4.1,11.5,10.6,10.4C691.2,843,694.7,838.3,698.6,835.5z"/>
	<path class="st0" d="M413.9,355.9c2.7,4,7.2,7.7,7.8,12c0.9,5.9-3.4,10.1-9.9,10.4c-6,0.3-12.1-5.3-10.5-10.8
		c1.3-4.3,5.5-7.8,8.4-11.7C411,355.8,412.5,355.9,413.9,355.9z"/>
	<path class="st0" d="M381.1,370.3c-4,2.7-7.8,7.1-12.1,7.6c-6.6,0.8-10.5-4.1-10.1-10.9c0.4-6.4,4.9-10.6,10.8-9.4
		c4.3,0.9,7.7,5.5,11.6,8.5C381.2,367.5,381.1,368.9,381.1,370.3z"/>
	<path class="st0" d="M465.8,370.5c-4,2.6-7.8,6.9-12.1,7.5c-6.1,0.9-9.9-3.7-10.2-10.1c-0.2-6.1,5.4-12,10.9-10.3
		c4.3,1.4,7.7,5.6,11.5,8.6C465.9,367.6,465.8,369,465.8,370.5z"/>
	<path class="st0" d="M338.9,369.5c-3.8,2.9-7.3,7.5-11.5,8.4c-6,1.3-10.2-2.9-10.9-9.3c-0.7-6,4.5-12.4,10.1-11.1
		c4.4,1,8.1,5,12.1,7.7C338.8,366.7,338.9,368.1,338.9,369.5z"/>
	<path class="st0" d="M338.9,412.3c-3.9,2.7-7.6,7.2-11.9,7.9c-6.6,1.1-10.7-3.6-10.5-10.5c0.2-6.4,4.4-10.8,10.5-9.6
		c4.3,0.8,7.9,5.1,11.9,7.9C338.9,409.5,338.9,410.9,338.9,412.3z"/>
	<path class="st0" d="M371.3,398.3c2.8,3.9,7.3,7.4,8,11.6c1.1,6.5-3.5,10.7-10.4,10.6c-6.4-0.1-10.8-4.3-9.8-10.3
		c0.7-4.3,5.1-7.9,7.8-11.8C368.4,398.3,369.8,398.3,371.3,398.3z"/>
	<path class="st0" d="M456.3,398.3c2.7,4,6.9,7.7,7.6,12c1,6.1-3.6,10.1-9.9,10.2c-6.8,0-11.4-4.2-10.2-10.8
		c0.8-4.2,5.3-7.7,8.2-11.6C453.4,398.2,454.9,398.2,456.3,398.3z"/>
	<path class="st0" d="M493.8,422.1c-2.7-4-7-7.7-7.7-12c-1-6,3.5-10.2,9.9-10.2c6.8,0,11.4,4.2,10.2,10.7c-0.8,4.2-5.3,7.8-8.1,11.6
		C496.6,422.1,495.2,422.1,493.8,422.1z"/>
	<path class="st0" d="M409.9,422.2c-3-3.8-7.6-7.2-8.5-11.4c-1.3-5.9,2.7-10.3,9.3-10.8c6.9-0.5,11.7,3.5,11.1,9.9
		c-0.4,4.2-4.9,8.1-7.6,12.1C412.7,422.1,411.3,422.1,409.9,422.2z"/>
	<path class="st0" d="M536.9,422.2c-3-3.8-7.6-7.2-8.5-11.4c-1.3-5.9,2.8-10.3,9.3-10.8c6.9-0.5,11.8,3.4,11.1,9.9
		c-0.5,4.3-4.9,8.1-7.5,12.1C539.7,422.1,538.3,422.1,536.9,422.2z"/>
	<path class="st0" d="M698,568.9c6.3,0,12.6,0,18.9,0c7.1,0,11.9,3.3,11.8,10.6c0,7.4-5,10.6-11.9,10.6c-13.2,0.1-26.5,0.2-39.7,0
		c-7-0.1-11.7-3.8-11.4-11.1c0.3-6.8,4.8-10,11.5-10.1C684.2,568.9,691.1,568.9,698,568.9z"/>
	<path class="st0" d="M697.7,516.1c6.6,0,13.2,0,19.8,0c6.8,0.1,11.1,3.5,11.3,10.2c0.2,6.8-4.1,10.6-10.8,10.7
		c-13.8,0.2-27.7,0.3-41.5,0c-6.6-0.1-11-3.8-10.8-10.7c0.2-6.8,4.5-10.2,11.2-10.3C683.9,516,690.8,516.1,697.7,516.1z"/>
	<path class="st0" d="M411.7,865.2c0-3.9-1.2-8.4,0.3-11.6c1.8-3.7,6.2-8.8,9.3-8.7c3.8,0.1,10,4.5,10.7,7.9c1.6,8.1,1.4,16.9,0,25
		c-0.6,3.3-6.7,8.2-9.8,7.8c-3.8-0.4-8-5.1-10.2-9C410.3,873.7,411.6,869.1,411.7,865.2C411.7,865.2,411.7,865.2,411.7,865.2z"/>
	<path class="st0" d="M390.2,864.7c0,3.6,0.2,7.2,0,10.8c-0.3,6.7-3.9,10.9-10.7,10.7c-6.3-0.1-9.8-4.2-10-10.5
		c-0.2-6.9-0.2-13.8,0-20.7c0.2-6.7,3.8-10.8,10.7-10.7c6.4,0.1,9.7,4.1,10,10.4C390.3,858.1,390.2,861.4,390.2,864.7z"/>
</g>
<g>
	<g>
		<g>
			<g>
				<path class="st0" d="M621.7,179.3l11.2-31c12.9,15.4,32.4,28.7,55.5,37c49.4,17.8,100.5,7.7,113.3-28s-20.1-76.1-69.5-93.8
					C701,52.2,669,52.1,646.5,62.6c-10.6-22.5-35.3-42.8-66.6-54c-49.4-17.8-100.5-7.7-113.3,28s20.1,76.1,69.5,93.8
					c23.1,8.3,46.6,10.5,66.4,6.9l-11.2,31c-80.3-21-165.2,16.7-203.2,90.9c-1.6,1.6-2.9,3.6-3.7,5.9L362.4,326
					c-3,8.4,1.3,17.7,9.7,20.7l304.7,109.7c8.4,3,17.7-1.3,20.7-9.7l21.9-60.9c0.8-2.3,1.1-4.6,0.9-6.9
					C738.3,297.4,697,214.3,621.7,179.3z M721.3,93.9c34.7,12.5,55.3,37.7,50,52.4s-37.2,21-71.9,8.5s-55.3-37.7-50-52.4
					S686.6,81.4,721.3,93.9z M547,100c-34.7-12.5-55.3-37.7-50-52.4s37.2-21,71.9-8.5c34.7,12.5,55.3,37.7,50,52.4
					S581.8,112.5,547,100z M595.8,203.6c64.8,23.4,103.5,88.4,95.3,154.8l-267.4-96.3C459.7,205.7,530.9,180.2,595.8,203.6z
					 M672.5,420.5l-274.2-98.7l11-30.5L683.5,390L672.5,420.5L672.5,420.5z"/>
			</g>
		</g>
		<g>
		</g>
		<g>
		</g>
		<g>
		</g>
		<g>
		</g>
		<g>
		</g>
		<g>
		</g>
		<g>
		</g>
		<g>
		</g>
		<g>
		</g>
		<g>
		</g>
		<g>
		</g>
		<g>
		</g>
		<g>
		</g>
		<g>
		</g>
		<g>
		</g>
	</g>
	<line class="st2" x1="377.6" y1="331.5" x2="160.7" y2="254.1"/>
	<path class="st3" d="M479.9,292.8c11.6-35.5,49.1-91,76.1-111.1"/>
	<path class="st3" d="M621.1,353.6c9.1-34.1,18.2-102.9,10-143.4"/>
</g>
</svg>
