<?xml version="1.0" encoding="utf-8"?>
<!-- Generator: Adobe Illustrator 21.1.0, SVG Export Plug-In . SVG Version: 6.00 Build 0)  -->
<svg version="1.1" id="Layer_1" xmlns="http://www.w3.org/2000/svg" xmlns:xlink="http://www.w3.org/1999/xlink" x="0px" y="0px"
	 width="576px" height="284px" viewBox="0 0 576 284" style="enable-background:new 0 0 576 284;" xml:space="preserve">
<style type="text/css">
	.st0{clip-path:url(#SVGID_2_);fill:#40D375;}
	.st1{clip-path:url(#SVGID_2_);fill:#187CD6;}
	.st2{clip-path:url(#SVGID_2_);fill:#FF0000;}
	.st3{fill:#F5F5F5;}
	.st4{fill:none;stroke:#F5F5F5;stroke-width:0.4;stroke-miterlimit:10;}
	.st5{fill:none;stroke:#FF0000;stroke-miterlimit:10;}
	.st6{fill:none;stroke:#187CD6;stroke-miterlimit:10;}
	.st7{fill:none;stroke:#40D375;stroke-miterlimit:10;}
</style>
<g>
	<g>
		<defs>
			<path id="SVGID_1_" d="M262.5,194.6H64.2c-1.9,0-3.4-1.5-3.4-3.4v-15.9c0-1.9,1.5-3.4,3.4-3.4h198.3c1.9,0,3.4,1.5,3.4,3.4v15.9
				C265.9,193,264.4,194.6,262.5,194.6z"/>
		</defs>
		<clipPath id="SVGID_2_">
			<use xlink:href="#SVGID_1_"  style="overflow:visible;"/>
		</clipPath>
		<rect x="192.5" y="168.9" class="st0" width="45.9" height="28.5"/>
		<rect x="153.6" y="168.9" class="st1" width="38.9" height="28.5"/>
		<rect x="57.6" y="168.9" class="st2" width="96.1" height="28.5"/>
		<rect x="238.1" y="168.9" class="st2" width="15.4" height="28.5"/>
		<rect x="255.8" y="168.9" class="st2" width="3.9" height="28.5"/>
		<rect x="262" y="168.9" class="st2" width="3.9" height="28.5"/>
	</g>
	<g>
		<path class="st3" d="M263.7,169.9c2.4,0,4.4,2,4.4,4.4V192c0,2.4-2,4.4-4.4,4.4H63c-2.4,0-4.4-2-4.4-4.4v-17.7
			c0-2.4,2-4.4,4.4-4.4H263.7 M263.7,168.9H63c-3,0-5.4,2.4-5.4,5.4V192c0,3,2.4,5.4,5.4,5.4h200.7c3,0,5.4-2.4,5.4-5.4v-17.7
			C269.1,171.3,266.6,168.9,263.7,168.9L263.7,168.9z"/>
	</g>
	<g>
		<path class="st3" d="M67,212.5c-1.5,0-2.7-0.3-2.7-2.2V205h-1.9v-0.8h1.9v-1.7h0.8v1.7h4.7v0.8h-4.7v5.1c0,1.3,0.5,1.7,1.8,1.7
			c1,0,1.8-0.2,2.7-0.6l0.2,0.7C69.2,212.2,68.1,212.5,67,212.5z"/>
		<path class="st3" d="M72.1,212.4v-0.8h3.1V205h-2.8v-0.7H76v7.4h3.1v0.8H72.1z M75.6,202.5l-0.8-0.8l0.8-0.8l0.8,0.8L75.6,202.5z"
			/>
		<path class="st3" d="M86.9,212.4v-5.1c0-1.3,0-2.5-1-2.5c-0.6,0-1.2,0.8-1.4,1.1c0,0.3,0,0.8,0,1.2v5.3h-0.8V207
			c0-1.1,0.1-2.3-0.9-2.3c-0.6,0-1.2,1-1.5,1.3v6.3h-0.8v-8.2h0.8v0.9c0.3-0.5,0.8-1.1,1.5-1.1c0.9,0,1.3,0.5,1.4,1.1
			c0.3-0.6,0.8-1.1,1.6-1.1c1.8,0,1.8,1.6,1.8,3v5.3H86.9z"/>
		<path class="st3" d="M90.7,208.4c0.1,3,1.6,3.4,3.4,3.4c0.6,0,1.7-0.2,1.9-0.3l0.2,0.7c-0.3,0.1-1,0.3-2.5,0.3
			c-2.3,0-3.9-1-3.9-4.1c0-3.3,1.7-4.4,3.7-4.4c1.9,0,2.9,1.3,2.9,4.1v0.3H90.7z M93.4,204.7c-1.3,0-2.5,1-2.6,3h4.9
			C95.6,205.9,94.8,204.7,93.4,204.7z"/>
	</g>
	<g>
		<path class="st3" d="M22,188c-2.8,0-4-1.2-4-4.2c0-2.7,1.4-4.3,3.7-4.3c1.3,0,2,0.3,2.7,0.7l-0.3,0.6c-0.7-0.4-1.4-0.6-2.4-0.6
			c-1.7,0-2.8,1.3-2.8,3.5c0,2.4,0.8,3.5,3.3,3.5c1,0,1.8-0.2,2.1-0.3l0.2,0.7C24.1,187.7,23.4,188,22,188z"/>
		<path class="st3" d="M29.6,188c-0.8,0-1.4,0-1.8-0.1v3.3H27v-11.5h0.8v0.7c0.6-0.4,1.4-0.8,2.4-0.8c2.1,0,3.3,1.4,3.3,4
			C33.4,186.9,31.6,188,29.6,188z M32.5,183.9c0-1.8-0.4-3.6-2.5-3.6c-0.9,0-2,0.7-2.2,0.9v5.9c0.4,0.1,0.8,0.1,1.9,0.1
			C31.6,187.2,32.5,185.8,32.5,183.9L32.5,183.9z"/>
		<path class="st3" d="M41.5,187.8v-1c-0.7,0.4-1.6,1.2-3,1.2c-2.2,0-2.4-1.8-2.4-3.1v-5.3h0.8v5c0,1.3,0,2.5,1.7,2.5
			c1.1,0,2.5-0.9,2.8-1.2v-6.4h0.8v8.2H41.5z"/>
		<path class="st3" d="M48.1,188c-2.7,0-3.6-2.3-3.6-5.3c0-3,0.9-5.6,3.8-5.6c2.8,0,3.5,2.6,3.5,5.2C51.8,185.8,50.8,188,48.1,188z
			 M50.9,182.5c0-2-0.4-4.6-2.7-4.6c-2.4,0-2.9,2.7-2.9,4.8c0,2.3,0.6,4.6,2.7,4.6C50.5,187.2,50.9,184.8,50.9,182.5L50.9,182.5z
			 M48.2,183.4l-0.8-0.8l0.8-0.8l0.8,0.8L48.2,183.4z"/>
	</g>
	<g>
		<g>
			<line class="st4" x1="99.8" y1="208" x2="147.2" y2="208"/>
			<g>
				<polygon class="st3" points="145.2,210.5 144.8,210 146.9,208 144.8,206 145.2,205.6 147.8,208 				"/>
			</g>
		</g>
	</g>
	<g>
		<path class="st3" d="M52.5,115.6l-0.9-0.5l2-5.8l0,0l-4.2,4.5l-0.9-0.5l2.5-6.1l0.6,0.3l-2.4,5.7l0,0l4.3-4.6l0.9,0.5l-2,5.9l0,0
			l3.9-4.8l0.6,0.3L52.5,115.6z"/>
		<path class="st3" d="M59.1,119.5c-0.4-0.2-0.9-0.7-0.6-1.3c-0.3,0-1.3,0.3-2.5-0.4c-0.9-0.5-1.2-1.4-0.6-2.5
			c0.8-1.4,2.2-1,3.1-0.5l1.5,0.8l0.5-0.9c0.6-1,0.2-1.5-0.9-2.1c-0.5-0.3-1.3-0.5-1.5-0.5l0.2-0.5c0.2,0,1,0.2,1.9,0.7
			c1.1,0.7,1.7,1.5,1.1,2.6l-1.9,3.3c-0.3,0.5,0,0.8,0.2,0.9L59.1,119.5z M59.7,116.1l-1.5-0.8c-1-0.5-1.8-0.3-2.1,0.3
			c-0.5,0.9-0.2,1.4,0.5,1.8c0.8,0.5,2.2,0.4,2.3,0.3L59.7,116.1z"/>
		<path class="st3" d="M60.9,120.5l0.3-0.5l2.2,1.2l2.7-4.6l-2-1.1l0.3-0.5l2.5,1.5l-3,5.1l2.2,1.2l-0.3,0.5L60.9,120.5z M67.4,115
			l-0.2-0.9l0.9-0.2l0.2,0.9L67.4,115z"/>
		<path class="st3" d="M69.9,125.7c-1-0.6-1.7-1.3-1-2.6l2.1-3.7l-1.4-0.8l0.3-0.5l1.4,0.8l0.7-1.2l0.6,0.3l-0.7,1.2l3.2,1.9
			l-0.3,0.5l-3.2-1.9l-2.1,3.6c-0.5,0.9-0.3,1.3,0.6,1.9c0.7,0.4,1.4,0.6,2.1,0.7l-0.1,0.6C71.5,126.4,70.6,126.2,69.9,125.7z"/>
		<path class="st3" d="M88.6,126.6c-0.1-0.1-0.6-0.6-1.1-0.8c-1-0.6-1.7-0.6-2.3,0.4l-0.3,0.6l2.5,1.4l-0.3,0.5l-2.5-1.4l-2.7,4.6
			l2.5,1.4l-0.3,0.5l-4.7-2.7l0.3-0.5l1.7,1l2.7-4.6l-1.7-1l0.3-0.5l1.7,1l0.3-0.6c0.9-1.5,2.1-1.2,3.1-0.6c0.4,0.2,1,0.7,1.2,0.9
			L88.6,126.6z"/>
		<path class="st3" d="M88,136.2c-1.5-0.9-1.9-2.4-0.8-4.3c1.1-2,2.8-2.4,4.2-1.6c1.6,0.9,1.8,2.4,0.7,4.4
			C91,136.7,89.4,137,88,136.2z M91.5,134.4c0.6-1.1,1.1-2.7-0.4-3.5c-1.5-0.9-2.7,0.3-3.3,1.4c-0.7,1.2-1,2.7,0.5,3.5
			C89.8,136.6,90.9,135.5,91.5,134.4L91.5,134.4z"/>
		<path class="st3" d="M99.7,136.4c-0.2-0.4-0.5-0.9-1.1-1.3c-0.7-0.4-1.6-0.2-2.1,0l-2.2,3.8l2.1,1.2l-0.3,0.5l-4.2-2.4l0.3-0.5
			l1.6,0.9l2.7-4.6l-1.6-0.9l0.3-0.5l2.1,1.2l-0.4,0.7c0.5-0.2,1.2-0.4,2.1,0.1c0.9,0.5,1.2,1.1,1.3,1.4L99.7,136.4z"/>
		<path class="st3" d="M106.3,146.8c-0.6-0.3-1-0.6-1.2-0.8l-1.3,2.3l-0.6-0.3l4.6-8l0.6,0.3l-0.3,0.5c0.6,0,1.3,0,2,0.4
			c1.4,0.8,1.7,2.3,0.7,4.1C109.3,147.6,107.7,147.6,106.3,146.8z M110,145.1c0.7-1.2,1.2-2.7-0.3-3.5c-0.6-0.4-1.7-0.3-1.9-0.3
			l-2.4,4.1c0.3,0.2,0.5,0.4,1.2,0.9C108,147.1,109.2,146.4,110,145.1L110,145.1z"/>
		<path class="st3" d="M112.9,150.6c-1.5-0.9-1.9-2.4-0.8-4.3c1.1-2,2.8-2.4,4.2-1.6c1.6,0.9,1.8,2.4,0.7,4.4
			C115.9,151.1,114.3,151.4,112.9,150.6z M116.5,148.8c0.6-1.1,1.1-2.7-0.4-3.5c-1.5-0.9-2.7,0.3-3.3,1.4c-0.7,1.2-1,2.7,0.5,3.5
			C114.7,151,115.8,149.9,116.5,148.8L116.5,148.8z"/>
		<path class="st3" d="M117.3,153l4.5-7.8l0.6,0.3l-4.5,7.8L117.3,153z M120.9,155.1l-1-4.6l4.2-1.1l0.7,0.4l-4.2,1.1l1,4.6
			L120.9,155.1z"/>
		<path class="st3" d="M125.4,154c-1.1,2.1-0.3,3,1,3.7c0.4,0.2,1.2,0.5,1.4,0.6l-0.2,0.6c-0.2,0-0.8-0.2-1.8-0.8
			c-1.6-0.9-2.3-2.2-1.1-4.4c1.3-2.3,3-2.4,4.3-1.6c1.3,0.7,1.5,2.1,0.4,4l-0.1,0.2L125.4,154z M128.7,152.4c-0.9-0.5-2.1-0.3-3,1
			l3.4,1.9C129.7,154.2,129.7,153,128.7,152.4z"/>
	</g>
	<polyline class="st5" points="136.2,166.3 136.2,160.9 132.7,158.9 	"/>
	<g>
		<path class="st3" d="M97.7,115.5l0.3-0.6c-0.5,0.1-1.4,0.1-2-0.3c-1-0.6-2.1-1.7-0.7-4.2c1.2-2,2.9-2.3,4.3-1.5
			c0.6,0.3,0.9,0.5,1.2,0.9l1.3-2.2l0.6,0.3l-4.5,7.8L97.7,115.5z M100.6,110.4c-0.2-0.3-0.6-0.6-1.2-1c-1.5-0.8-2.7,0.2-3.5,1.4
			c-0.9,1.6-0.7,2.7,0.4,3.3c0.6,0.4,1.7,0.3,2,0.2L100.6,110.4z"/>
		<path class="st3" d="M102.2,114.4c-1.1,2.1-0.3,3,1,3.7c0.4,0.2,1.2,0.5,1.4,0.6l-0.2,0.6c-0.2,0-0.8-0.2-1.8-0.8
			c-1.6-0.9-2.3-2.2-1.1-4.4c1.3-2.3,3-2.4,4.3-1.6c1.3,0.7,1.5,2.1,0.4,4l-0.1,0.2L102.2,114.4z M105.5,112.8c-0.9-0.5-2.1-0.3-3,1
			l3.4,1.9C106.6,114.6,106.5,113.4,105.5,112.8z"/>
		<path class="st3" d="M106.1,120.3l0.3-0.5l2.2,1.3l3.9-6.8l-2-1.1l0.3-0.5l2.5,1.5l-4.2,7.3l2.2,1.2l-0.3,0.5L106.1,120.3z"/>
		<path class="st3" d="M112.6,124.1l0.3-0.5l2.2,1.2l2.7-4.6l-2-1.1l0.3-0.5l2.5,1.5l-3,5.1l2.2,1.2l-0.3,0.5L112.6,124.1z
			 M119,118.6l-0.2-0.9l0.9-0.2l0.2,0.9L119,118.6z"/>
		<path class="st3" d="M121.4,129.1l-0.9-0.5l1.1-6.9l0.6,0.4l-0.9,5.7l-0.1,0.9l0,0l0.7-0.5l4.6-3.5l0.6,0.3L121.4,129.1z"/>
		<path class="st3" d="M127.2,128.8c-1.1,2.1-0.3,3,1,3.7c0.4,0.2,1.2,0.5,1.4,0.6l-0.2,0.6c-0.2,0-0.8-0.2-1.8-0.8
			c-1.6-0.9-2.3-2.2-1.1-4.4c1.3-2.3,3-2.4,4.3-1.6c1.3,0.8,1.5,2.1,0.4,4l-0.1,0.2L127.2,128.8z M130.5,127.2c-0.9-0.5-2.1-0.3-3,1
			l3.4,1.9C131.5,129,131.5,127.8,130.5,127.2z"/>
		<path class="st3" d="M138.9,132.8c-0.2-0.4-0.5-0.9-1.1-1.3c-0.7-0.4-1.6-0.2-2.1,0l-2.2,3.8l2.1,1.2l-0.3,0.5l-4.2-2.4l0.3-0.5
			l1.6,0.9l2.7-4.6l-1.6-0.9l0.3-0.5l2.1,1.2l-0.4,0.7c0.5-0.2,1.2-0.4,2.1,0.1c0.9,0.5,1.2,1.1,1.3,1.4L138.9,132.8z"/>
		<path class="st3" d="M147.8,144.4l-0.9-0.5l2-5.8l0,0l-4.2,4.5l-0.9-0.5l2.5-6.1l0.6,0.3l-2.4,5.7l0,0l4.3-4.6l0.9,0.5l-2.1,5.9
			l0,0l3.9-4.8l0.6,0.3L147.8,144.4z"/>
		<path class="st3" d="M154.4,148.3c-0.4-0.2-0.9-0.7-0.6-1.3c-0.3,0-1.3,0.3-2.5-0.4c-0.9-0.5-1.2-1.4-0.6-2.5
			c0.8-1.4,2.2-1,3.1-0.5l1.5,0.8l0.5-0.9c0.6-1,0.2-1.5-0.9-2.1c-0.5-0.3-1.3-0.5-1.5-0.5l0.2-0.5c0.2,0,1,0.2,1.9,0.7
			c1.1,0.7,1.7,1.5,1.1,2.6l-1.9,3.3c-0.3,0.5,0,0.8,0.2,0.9L154.4,148.3z M155,144.9l-1.5-0.8c-1-0.5-1.8-0.3-2.1,0.3
			c-0.5,0.9-0.2,1.4,0.5,1.8c0.8,0.5,2.2,0.4,2.3,0.3L155,144.9z"/>
		<path class="st3" d="M159,150.9c-1-0.6-1.7-1.3-1-2.6l2.1-3.7l-1.4-0.8l0.3-0.5l1.4,0.8l0.7-1.2l0.5,0.3l-0.7,1.2l3.2,1.9
			l-0.3,0.5l-3.2-1.9l-2.1,3.6c-0.5,0.9-0.3,1.3,0.6,1.9c0.7,0.4,1.4,0.6,2.1,0.7l-0.1,0.6C160.6,151.6,159.7,151.4,159,150.9z"/>
		<path class="st3" d="M164.6,150.4c-1.1,2.1-0.3,3,1,3.7c0.4,0.2,1.2,0.5,1.4,0.6l-0.2,0.6c-0.2,0-0.8-0.2-1.8-0.8
			c-1.6-0.9-2.3-2.2-1.1-4.4c1.3-2.3,3-2.4,4.3-1.6c1.3,0.8,1.5,2.1,0.4,4l-0.1,0.2L164.6,150.4z M167.9,148.8c-0.9-0.5-2.1-0.3-3,1
			l3.4,1.9C168.9,150.6,168.9,149.4,167.9,148.8z"/>
		<path class="st3" d="M176.3,154.4c-0.2-0.4-0.5-0.9-1.1-1.2c-0.7-0.4-1.6-0.2-2.1,0l-2.2,3.8l2.1,1.2l-0.3,0.5l-4.2-2.4l0.3-0.5
			l1.6,0.9l2.7-4.6l-1.6-0.9l0.3-0.5l2.1,1.2l-0.4,0.7c0.5-0.2,1.2-0.4,2.1,0.1c0.9,0.5,1.2,1.1,1.3,1.4L176.3,154.4z"/>
	</g>
	<polyline class="st6" points="181.6,166.3 181.6,160.9 178.2,158.9 	"/>
	<g>
		<path class="st3" d="M157,121.6c-0.6-0.3-1-0.6-1.2-0.8l-1.3,2.3l-0.6-0.3l4.6-8l0.6,0.3l-0.3,0.5c0.6,0,1.3,0,2,0.4
			c1.4,0.8,1.7,2.3,0.7,4.1C160,122.4,158.3,122.4,157,121.6z M160.6,119.9c0.7-1.2,1.2-2.7-0.3-3.5c-0.6-0.4-1.7-0.3-1.9-0.3
			l-2.4,4.1c0.3,0.2,0.5,0.4,1.2,0.9C158.6,121.9,159.8,121.2,160.6,119.9L160.6,119.9z"/>
		<path class="st3" d="M161.2,123.9l0.3-0.5l2.2,1.3l3.9-6.8l-2-1.1l0.3-0.5l2.5,1.5l-4.2,7.3l2.2,1.2l-0.3,0.5L161.2,123.9z"/>
		<path class="st3" d="M169.8,129c-1.5-0.9-1.9-2.4-0.8-4.3c1.1-2,2.8-2.4,4.2-1.6c1.6,0.9,1.8,2.4,0.7,4.4
			C172.8,129.5,171.2,129.8,169.8,129z M173.4,127.2c0.6-1.1,1.1-2.7-0.4-3.5c-1.5-0.9-2.7,0.3-3.3,1.4c-0.7,1.2-1,2.7,0.5,3.5
			C171.6,129.4,172.7,128.3,173.4,127.2L173.4,127.2z"/>
		<path class="st3" d="M176.6,132.9c-1-0.6-1.7-1.3-1-2.6l2.1-3.7l-1.4-0.8l0.3-0.5l1.4,0.8l0.7-1.2l0.6,0.3l-0.7,1.2l3.2,1.9
			l-0.3,0.5l-3.2-1.9l-2.1,3.6c-0.5,0.9-0.3,1.3,0.6,1.9c0.7,0.4,1.4,0.6,2.1,0.7l-0.1,0.6C178.3,133.6,177.4,133.4,176.6,132.9z"/>
		<path class="st3" d="M194,136.4c-0.2-0.4-0.5-0.9-1.1-1.3c-0.7-0.4-1.6-0.2-2.1,0l-2.2,3.8l2.1,1.2l-0.3,0.5l-4.2-2.4l0.3-0.5
			l1.6,0.9l2.7-4.6l-1.6-0.9l0.3-0.5l2.1,1.2l-0.4,0.7c0.5-0.2,1.2-0.4,2.1,0.1c0.9,0.5,1.2,1.1,1.3,1.4L194,136.4z"/>
		<path class="st3" d="M194.7,139.6c-1.1,2.1-0.3,3,1,3.7c0.4,0.2,1.2,0.5,1.4,0.6l-0.2,0.6c-0.2,0-0.8-0.2-1.8-0.8
			c-1.6-0.9-2.3-2.2-1.1-4.4c1.3-2.3,3-2.4,4.3-1.6c1.3,0.8,1.5,2.1,0.4,4l-0.1,0.2L194.7,139.6z M198,138c-0.9-0.5-2.1-0.3-3,1
			l3.4,1.9C199.1,139.8,199,138.6,198,138z"/>
		<path class="st3" d="M200.7,146.9c-0.9-0.5-1.4-1-1.7-1.4l0.5-0.4c0.3,0.4,0.7,0.9,1.5,1.3c0.9,0.5,2,0.9,2.4,0.1
			c0.8-1.4-2.9-3-1.8-4.9c0.6-1,1.7-0.9,2.8-0.3c0.7,0.4,1.2,0.8,1.5,1.3l-0.4,0.4c-0.3-0.4-0.8-0.8-1.4-1.2
			c-0.7-0.4-1.5-0.5-1.9,0.1c-0.9,1.5,2.8,3.1,1.7,5C203.3,147.9,201.7,147.4,200.7,146.9z"/>
		<path class="st3" d="M208.9,151.4l0.4-0.7c-0.6,0-1.6,0.2-2.5-0.4c-1.5-0.9-0.9-2.2-0.4-3.1l2.1-3.6l0.6,0.3l-2,3.5
			c-0.5,0.9-1,1.8,0.2,2.5c0.8,0.4,2.1,0.3,2.4,0.3l2.6-4.4l0.5,0.3l-3.3,5.7L208.9,151.4z"/>
		<path class="st3" d="M211,152.7l0.3-0.5l2.2,1.3l3.9-6.8l-2-1.1l0.3-0.5l2.5,1.5l-4.2,7.3l2.2,1.2l-0.3,0.5L211,152.7z"/>
		<path class="st3" d="M220.3,158.1c-1-0.6-1.7-1.3-1-2.6l2.1-3.7l-1.4-0.8l0.3-0.5l1.4,0.8l0.7-1.2l0.6,0.3l-0.7,1.2l3.2,1.9
			l-0.3,0.5l-3.2-1.9l-2.1,3.6c-0.5,0.9-0.3,1.3,0.6,1.9c0.7,0.4,1.4,0.6,2.1,0.7l-0.1,0.6C221.9,158.8,221,158.6,220.3,158.1z"/>
	</g>
	<polyline class="st7" points="229.6,166.3 229.6,160.9 226.1,158.9 	"/>
</g>
<g>
	<path class="st3" d="M19.4,20.1c-3.5,0-3.9-2.4-3.9-6.2c0-4,0.6-6.2,4.2-6.2c3.3,0,3.9,2.5,3.9,6.2C23.6,17.8,23,20.1,19.4,20.1z
		 M19.5,9.5c-1.7,0-1.8,1.6-1.8,4.3c0,3,0.2,4.4,1.7,4.4c1.7,0,1.9-1.4,1.9-4.4C21.3,11,21.1,9.5,19.5,9.5z"/>
	<path class="st3" d="M31.3,20.1c-1.8,0-3.9,0-3.9-2.9v-4.9h-2v-1.7h2V8.7h2.2v1.9h4v1.7h-4v4.8c0,0.9,0.6,1.1,1.6,1.1
		c0.8,0,2.1-0.2,2.4-0.3l0.3,1.8C33.2,19.9,32.1,20.1,31.3,20.1z"/>
	<path class="st3" d="M41.5,19.9v-5.6c0-1.4-0.1-1.9-1.3-1.9c-0.9,0-1.5,0.5-1.9,0.7v6.8h-2.3V7.1h2.3v4.5c0.5-0.5,1.3-1.2,2.6-1.2
		c2.9,0,2.8,1.7,2.8,3.6v5.9H41.5z"/>
	<path class="st3" d="M48.5,16.1c0.1,1.9,1.1,2.1,2.5,2.1c0.6,0,1.9-0.1,2.7-0.3l0.3,1.8c-0.8,0.3-2,0.4-3.2,0.4
		c-2.7,0-4.5-1-4.5-4.6c0-3.8,1.6-5,4.2-5c2.7,0,3.5,2,3.5,4.9v0.8H48.5z M50.2,12.1c-1,0-1.6,0.7-1.7,2.4h3.1
		C51.7,12.9,51.2,12.1,50.2,12.1z"/>
	<path class="st3" d="M64.5,12.7c-0.5-0.2-0.9-0.3-1.6-0.3c-1,0-1.8,0.5-2.2,1v4.7h3.2v1.8h-7.7v-1.8h2.2v-5.7h-2.2v-1.7h4.5v1.2
		c0.5-0.6,1.2-1.4,2.7-1.4c0.8,0,1.2,0.2,1.5,0.3L64.5,12.7z"/>
	<path class="st3" d="M70,20c-1.4,0-2.4-0.1-3.3-0.4l0.3-1.8c1,0.2,2,0.3,2.8,0.3c1.4,0,2.3-0.2,2.3-0.9c0-1.5-5.2-0.6-5.2-4.1
		c0-1.9,2-2.8,3.9-2.8c1.1,0,2.1,0.2,3,0.5l-0.4,1.7c-0.8-0.2-1.6-0.3-2.6-0.3c-1.1,0-1.7,0.3-1.7,0.9c0,1.6,5.2,0.9,5.2,4.1
		C74.3,19.5,71.5,20,70,20z"/>
	<path class="st3" d="M79.4,12.9v-2.3H82v2.3H79.4z M79.4,19.9v-2.3H82v2.3H79.4z"/>
	<path class="st3" d="M15.6,34.3v-8.5h4.7v0.6h-4v3.3H20v0.6h-3.7v3.3h4.2v0.6H15.6z"/>
	<path class="st3" d="M25.6,34.3h-1L22,27.7h0.7l2.1,5.3l0.3,0.8h0l0.3-0.8l2.3-5.3h0.7L25.6,34.3z"/>
	<path class="st3" d="M30.4,31.1c0,2.4,1.2,2.7,2.7,2.7c0.5,0,1.3-0.1,1.5-0.2l0.1,0.6c-0.2,0.1-0.8,0.3-2,0.3
		c-1.8,0-3.1-0.8-3.1-3.3c0-2.6,1.4-3.5,2.9-3.5c1.5,0,2.4,1,2.4,3.2v0.2H30.4z M32.6,28.1c-1.1,0-2,0.8-2.1,2.4h3.9
		C34.3,29.1,33.7,28.1,32.6,28.1z"/>
	<path class="st3" d="M42.6,28.7c-0.4-0.2-0.9-0.5-1.6-0.5c-0.9,0-1.5,0.6-1.8,1.1v4.4h2.4v0.6h-4.9v-0.6h1.8v-5.3h-1.8v-0.6h2.5
		v0.8c0.3-0.4,0.9-0.9,1.9-0.9c1.1,0,1.6,0.4,1.9,0.6L42.6,28.7z"/>
	<path class="st3" d="M46,36.9h-0.6l1.1-2.6h-0.3l-2.6-6.5h0.7l2.3,6.2h0l2.6-6.2H50L46,36.9z"/>
	<path class="st3" d="M54.7,34.4c-1.2,0-2.1-0.2-2.1-1.8v-4.3H51v-0.6h1.6v-1.3h0.6v1.3h3.7v0.6h-3.7v4.1c0,1,0.4,1.3,1.5,1.3
		c0.8,0,1.5-0.2,2.2-0.4l0.2,0.5C56.4,34.1,55.6,34.4,54.7,34.4z"/>
	<path class="st3" d="M63.1,34.3v-4.1c0-1.2-0.1-2-1.5-2c-0.8,0-1.9,0.7-2.2,0.9v5.2h-0.7v-9h0.7v3.3c0.5-0.3,1.2-0.9,2.3-0.9
		c1.9,0,2,1.4,2,2.4v4.3H63.1z"/>
	<path class="st3" d="M65.9,34.3v-0.6h2.5v-5.3h-2.3v-0.6h2.9v5.9h2.5v0.6H65.9z M68.7,26.4l-0.6-0.7l0.6-0.6l0.7,0.6L68.7,26.4z"/>
	<path class="st3" d="M77.5,34.3v-4.1c0-1.2-0.1-2-1.5-2c-0.9,0-1.9,0.7-2.2,0.9v5.2h-0.7v-6.5h0.7v0.8c0.5-0.3,1.2-0.9,2.3-0.9
		c1.9,0,2,1.4,2,2.4v4.3H77.5z"/>
	<path class="st3" d="M82.7,37c-0.9,0-1.8-0.2-2-0.2l0.1-0.6c0.1,0,1.1,0.2,1.6,0.2c1.2,0,2.2-0.2,2.2-1.8v-0.8
		c-0.4,0.4-1,0.6-1.7,0.6c-1.3,0-2.8-0.4-2.8-3.3c0-2.4,1.3-3.4,3-3.4c0.8,0,1.6,0.1,2.2,0.2v7C85.3,36.3,84.3,37,82.7,37z
		 M84.7,28.3c-0.3-0.1-0.8-0.2-1.5-0.2c-1.7,0-2.3,1.3-2.3,2.9c0,1.9,0.7,2.7,2.2,2.7c0.8,0,1.4-0.5,1.7-0.7L84.7,28.3z"/>
	<path class="st3" d="M94.7,34.3v-0.6h2.5v-5.3H95v-0.6h2.9v5.9h2.5v0.6H94.7z M97.5,26.4l-0.6-0.7l0.6-0.6l0.7,0.6L97.5,26.4z"/>
	<path class="st3" d="M104.1,34.4c-1,0-1.7-0.2-2.2-0.4l0.2-0.6c0.5,0.2,1.1,0.4,1.9,0.4c1,0,2.1-0.2,2.1-1.1c0-1.6-4-1.1-4-3.4
		c0-1.2,1-1.7,2.2-1.7c0.8,0,1.4,0.1,2,0.3l-0.2,0.5c-0.5-0.2-1.1-0.3-1.8-0.3c-0.9,0-1.5,0.3-1.5,1.1c0,1.8,4,1.3,4,3.4
		C106.8,34.1,105.2,34.4,104.1,34.4z"/>
	<path class="st3" d="M118.5,34.4c-1,0-1.7-0.2-2.2-0.4l0.2-0.6c0.5,0.2,1.1,0.4,1.9,0.4c1,0,2.1-0.2,2.1-1.1c0-1.6-4-1.1-4-3.4
		c0-1.2,1-1.7,2.2-1.7c0.8,0,1.4,0.1,2,0.3l-0.2,0.5c-0.5-0.2-1.1-0.3-1.8-0.3c-0.9,0-1.5,0.3-1.5,1.1c0,1.8,4,1.3,4,3.4
		C121.2,34.1,119.6,34.4,118.5,34.4z"/>
	<path class="st3" d="M124,31.1c0,2.4,1.2,2.7,2.7,2.7c0.5,0,1.3-0.1,1.5-0.2l0.1,0.6c-0.2,0.1-0.8,0.3-2,0.3
		c-1.8,0-3.1-0.8-3.1-3.3c0-2.6,1.4-3.5,2.9-3.5c1.5,0,2.4,1,2.4,3.2v0.2H124z M126.2,28.1c-1.1,0-2,0.8-2.1,2.4h3.9
		C127.9,29.1,127.3,28.1,126.2,28.1z"/>
	<path class="st3" d="M136.2,28.7c-0.4-0.2-0.9-0.5-1.6-0.5c-0.9,0-1.5,0.6-1.8,1.1v4.4h2.4v0.6h-4.9v-0.6h1.8v-5.3h-1.8v-0.6h2.5
		v0.8c0.3-0.4,0.9-0.9,1.9-0.9c1.1,0,1.6,0.4,1.9,0.6L136.2,28.7z"/>
	<path class="st3" d="M137.9,34.3v-0.6h2.5v-5.3h-2.3v-0.6h2.9v5.9h2.5v0.6H137.9z M140.7,26.4l-0.6-0.7l0.6-0.6l0.7,0.6L140.7,26.4
		z"/>
	<path class="st3" d="M150.2,34.4c-0.5,0-1.1-0.2-1.2-0.9c-0.2,0.2-1,0.9-2.4,0.9c-1.1,0-1.8-0.6-1.8-1.8c0-1.6,1.4-1.9,2.4-2l1.7,0
		v-1c0-1.2-0.6-1.4-1.8-1.4c-0.6,0-1.3,0.2-1.5,0.3l-0.1-0.6c0.2-0.1,1-0.3,1.9-0.3c1.3,0,2.2,0.4,2.2,1.7v3.8
		c0,0.6,0.4,0.7,0.6,0.7L150.2,34.4z M149,31.1l-1.7,0.1c-1.1,0-1.7,0.6-1.7,1.3c0,1,0.5,1.3,1.3,1.3c0.9,0,2.1-0.8,2.1-0.9V31.1z"
		/>
	<path class="st3" d="M152,34.3v-0.6h2.5v-7.9h-2.3v-0.6h2.9v8.4h2.5v0.6H152z"/>
</g>
</svg>
