<?xml version="1.0" encoding="utf-8"?>
<!-- Generator: Adobe Illustrator 21.1.0, SVG Export Plug-In . SVG Version: 6.00 Build 0)  -->
<svg version="1.1" id="Layer_1" xmlns="http://www.w3.org/2000/svg" xmlns:xlink="http://www.w3.org/1999/xlink" x="0px" y="0px"
	 width="576px" height="284px" viewBox="0 0 576 284" style="enable-background:new 0 0 576 284;" xml:space="preserve">
<style type="text/css">
	.st0{clip-path:url(#SVGID_2_);fill:#40D375;}
	.st1{clip-path:url(#SVGID_2_);fill:#187CD6;}
	.st2{clip-path:url(#SVGID_2_);fill:#FF0000;}
	.st3{fill:#F5F5F5;}
	.st4{fill:none;stroke:#F5F5F5;stroke-width:0.4;stroke-miterlimit:10;}
	.st5{fill:none;stroke:#FF0000;stroke-miterlimit:10;}
	.st6{fill:none;stroke:#187CD6;stroke-miterlimit:10;}
	.st7{fill:none;stroke:#40D375;stroke-miterlimit:10;}
	.st8{clip-path:url(#SVGID_4_);fill:#40D375;}
	.st9{clip-path:url(#SVGID_4_);fill:#187CD6;}
	.st10{clip-path:url(#SVGID_4_);fill:#FF0000;}
	.st11{clip-path:url(#SVGID_4_);fill:#9102D3;}
	.st12{clip-path:url(#SVGID_4_);}
	.st13{fill:#187CD6;}
	.st14{fill:none;stroke:#FFFFFF;stroke-width:0.5;stroke-miterlimit:10;}
	.st15{fill:none;stroke:#000000;stroke-width:0.5;stroke-miterlimit:10;}
	.st16{clip-path:url(#SVGID_6_);fill:#187CD6;}
	.st17{fill:#FFFFFF;}
	.st18{clip-path:url(#SVGID_8_);fill:#40D375;}
</style>
<g>
	<g>
		<defs>
			<path id="SVGID_1_" d="M262.5,194.6H64.2c-1.9,0-3.4-1.5-3.4-3.4v-15.9c0-1.9,1.5-3.4,3.4-3.4h198.3c1.9,0,3.4,1.5,3.4,3.4v15.9
				C265.9,193,264.4,194.6,262.5,194.6z"/>
		</defs>
		<clipPath id="SVGID_2_">
			<use xlink:href="#SVGID_1_"  style="overflow:visible;"/>
		</clipPath>
		<rect x="192.5" y="168.9" class="st0" width="45.9" height="28.5"/>
		<rect x="153.6" y="168.9" class="st1" width="38.9" height="28.5"/>
		<rect x="57.6" y="168.9" class="st2" width="96.1" height="28.5"/>
		<rect x="238.1" y="168.9" class="st2" width="15.4" height="28.5"/>
		<rect x="255.8" y="168.9" class="st2" width="3.9" height="28.5"/>
		<rect x="262" y="168.9" class="st2" width="3.9" height="28.5"/>
	</g>
	<g>
		<path class="st3" d="M263.7,169.9c2.4,0,4.4,2,4.4,4.4V192c0,2.4-2,4.4-4.4,4.4H63c-2.4,0-4.4-2-4.4-4.4v-17.7
			c0-2.4,2-4.4,4.4-4.4H263.7 M263.7,168.9H63c-3,0-5.4,2.4-5.4,5.4V192c0,3,2.4,5.4,5.4,5.4h200.7c3,0,5.4-2.4,5.4-5.4v-17.7
			C269.1,171.3,266.6,168.9,263.7,168.9L263.7,168.9z"/>
	</g>
	<g>
		<path class="st3" d="M67,212.5c-1.5,0-2.7-0.3-2.7-2.2V205h-1.9v-0.8h1.9v-1.7h0.8v1.7h4.7v0.8h-4.7v5.1c0,1.3,0.5,1.7,1.8,1.7
			c1,0,1.8-0.2,2.7-0.6l0.2,0.7C69.2,212.2,68.1,212.5,67,212.5z"/>
		<path class="st3" d="M72.1,212.4v-0.8h3.1V205h-2.8v-0.7H76v7.4h3.1v0.8H72.1z M75.6,202.5l-0.8-0.8l0.8-0.8l0.8,0.8L75.6,202.5z"
			/>
		<path class="st3" d="M86.9,212.4v-5.1c0-1.3,0-2.5-1-2.5c-0.6,0-1.2,0.8-1.4,1.1c0,0.3,0,0.8,0,1.2v5.3h-0.8V207
			c0-1.1,0.1-2.3-0.9-2.3c-0.6,0-1.2,1-1.5,1.3v6.3h-0.8v-8.2h0.8v0.9c0.3-0.5,0.8-1.1,1.5-1.1c0.9,0,1.3,0.5,1.4,1.1
			c0.3-0.6,0.8-1.1,1.6-1.1c1.8,0,1.8,1.6,1.8,3v5.3H86.9z"/>
		<path class="st3" d="M90.7,208.4c0.1,3,1.6,3.4,3.4,3.4c0.6,0,1.7-0.2,1.9-0.3l0.2,0.7c-0.3,0.1-1,0.3-2.5,0.3
			c-2.3,0-3.9-1-3.9-4.1c0-3.3,1.7-4.4,3.7-4.4c1.9,0,2.9,1.3,2.9,4.1v0.3H90.7z M93.4,204.7c-1.3,0-2.5,1-2.6,3h4.9
			C95.6,205.9,94.8,204.7,93.4,204.7z"/>
	</g>
	<g>
		<path class="st3" d="M22,188c-2.8,0-4-1.2-4-4.2c0-2.7,1.4-4.3,3.7-4.3c1.3,0,2,0.3,2.7,0.7l-0.3,0.6c-0.7-0.4-1.4-0.6-2.4-0.6
			c-1.7,0-2.8,1.3-2.8,3.5c0,2.4,0.8,3.5,3.3,3.5c1,0,1.8-0.2,2.1-0.3l0.2,0.7C24.1,187.7,23.4,188,22,188z"/>
		<path class="st3" d="M29.6,188c-0.8,0-1.4,0-1.8-0.1v3.3H27v-11.5h0.8v0.7c0.6-0.4,1.4-0.8,2.4-0.8c2.1,0,3.3,1.4,3.3,4
			C33.4,186.9,31.6,188,29.6,188z M32.5,183.9c0-1.8-0.4-3.6-2.5-3.6c-0.9,0-2,0.7-2.2,0.9v5.9c0.4,0.1,0.8,0.1,1.9,0.1
			C31.6,187.2,32.5,185.8,32.5,183.9L32.5,183.9z"/>
		<path class="st3" d="M41.5,187.8v-1c-0.7,0.4-1.6,1.2-3,1.2c-2.2,0-2.4-1.8-2.4-3.1v-5.3h0.8v5c0,1.3,0,2.5,1.7,2.5
			c1.1,0,2.5-0.9,2.8-1.2v-6.4h0.8v8.2H41.5z"/>
		<path class="st3" d="M48.1,188c-2.7,0-3.6-2.3-3.6-5.3c0-3,0.9-5.6,3.8-5.6c2.8,0,3.5,2.6,3.5,5.2C51.8,185.8,50.8,188,48.1,188z
			 M50.9,182.5c0-2-0.4-4.6-2.7-4.6c-2.4,0-2.9,2.7-2.9,4.8c0,2.3,0.6,4.6,2.7,4.6C50.5,187.2,50.9,184.8,50.9,182.5L50.9,182.5z
			 M48.2,183.4l-0.8-0.8l0.8-0.8l0.8,0.8L48.2,183.4z"/>
	</g>
	<g>
		<g>
			<line class="st4" x1="99.8" y1="208" x2="147.2" y2="208"/>
			<g>
				<polygon class="st3" points="145.2,210.5 144.8,210 146.9,208 144.8,206 145.2,205.6 147.8,208 				"/>
			</g>
		</g>
	</g>
	<g>
		<path class="st3" d="M52.5,115.6l-0.9-0.5l2-5.8l0,0l-4.2,4.5l-0.9-0.5l2.5-6.1l0.6,0.3l-2.4,5.7l0,0l4.3-4.6l0.9,0.5l-2,5.9l0,0
			l3.9-4.8l0.6,0.3L52.5,115.6z"/>
		<path class="st3" d="M59.1,119.5c-0.4-0.2-0.9-0.7-0.6-1.3c-0.3,0-1.3,0.3-2.5-0.4c-0.9-0.5-1.2-1.4-0.6-2.5
			c0.8-1.4,2.2-1,3.1-0.5l1.5,0.8l0.5-0.9c0.6-1,0.2-1.5-0.9-2.1c-0.5-0.3-1.3-0.5-1.5-0.5l0.2-0.5c0.2,0,1,0.2,1.9,0.7
			c1.1,0.7,1.7,1.5,1.1,2.6l-1.9,3.3c-0.3,0.5,0,0.8,0.2,0.9L59.1,119.5z M59.7,116.1l-1.5-0.8c-1-0.5-1.8-0.3-2.1,0.3
			c-0.5,0.9-0.2,1.4,0.5,1.8c0.8,0.5,2.2,0.4,2.3,0.3L59.7,116.1z"/>
		<path class="st3" d="M60.9,120.5l0.3-0.5l2.2,1.2l2.7-4.6l-2-1.1l0.3-0.5l2.5,1.5l-3,5.1l2.2,1.2l-0.3,0.5L60.9,120.5z M67.4,115
			l-0.2-0.9l0.9-0.2l0.2,0.9L67.4,115z"/>
		<path class="st3" d="M69.9,125.7c-1-0.6-1.7-1.3-1-2.6l2.1-3.7l-1.4-0.8l0.3-0.5l1.4,0.8l0.7-1.2l0.6,0.3l-0.7,1.2l3.2,1.9
			l-0.3,0.5l-3.2-1.9l-2.1,3.6c-0.5,0.9-0.3,1.3,0.6,1.9c0.7,0.4,1.4,0.6,2.1,0.7l-0.1,0.6C71.5,126.4,70.6,126.2,69.9,125.7z"/>
		<path class="st3" d="M88.6,126.6c-0.1-0.1-0.6-0.6-1.1-0.8c-1-0.6-1.7-0.6-2.3,0.4l-0.3,0.6l2.5,1.4l-0.3,0.5l-2.5-1.4l-2.7,4.6
			l2.5,1.4l-0.3,0.5l-4.7-2.7l0.3-0.5l1.7,1l2.7-4.6l-1.7-1l0.3-0.5l1.7,1l0.3-0.6c0.9-1.5,2.1-1.2,3.1-0.6c0.4,0.2,1,0.7,1.2,0.9
			L88.6,126.6z"/>
		<path class="st3" d="M88,136.2c-1.5-0.9-1.9-2.4-0.8-4.3c1.1-2,2.8-2.4,4.2-1.6c1.6,0.9,1.8,2.4,0.7,4.4
			C91,136.7,89.4,137,88,136.2z M91.5,134.4c0.6-1.1,1.1-2.7-0.4-3.5c-1.5-0.9-2.7,0.3-3.3,1.4c-0.7,1.2-1,2.7,0.5,3.5
			C89.8,136.6,90.9,135.5,91.5,134.4L91.5,134.4z"/>
		<path class="st3" d="M99.7,136.4c-0.2-0.4-0.5-0.9-1.1-1.3c-0.7-0.4-1.6-0.2-2.1,0l-2.2,3.8l2.1,1.2l-0.3,0.5l-4.2-2.4l0.3-0.5
			l1.6,0.9l2.7-4.6l-1.6-0.9l0.3-0.5l2.1,1.2l-0.4,0.7c0.5-0.2,1.2-0.4,2.1,0.1c0.9,0.5,1.2,1.1,1.3,1.4L99.7,136.4z"/>
		<path class="st3" d="M106.3,146.8c-0.5-0.3-1-0.6-1.2-0.8l-1.3,2.3l-0.6-0.3l4.6-8l0.6,0.3l-0.3,0.5c0.6,0,1.3,0,2,0.4
			c1.4,0.8,1.7,2.3,0.7,4.1C109.3,147.6,107.7,147.6,106.3,146.8z M110,145.1c0.7-1.2,1.2-2.7-0.3-3.5c-0.6-0.4-1.7-0.3-1.9-0.3
			l-2.4,4.1c0.3,0.2,0.5,0.4,1.2,0.9C108,147.1,109.2,146.4,110,145.1L110,145.1z"/>
		<path class="st3" d="M112.9,150.6c-1.5-0.9-1.9-2.4-0.8-4.3c1.1-2,2.8-2.4,4.2-1.6c1.6,0.9,1.8,2.4,0.7,4.4
			C115.9,151.1,114.3,151.4,112.9,150.6z M116.5,148.8c0.6-1.1,1.1-2.7-0.4-3.5c-1.5-0.9-2.7,0.3-3.3,1.4c-0.7,1.2-0.9,2.7,0.5,3.5
			C114.7,151,115.8,149.9,116.5,148.8L116.5,148.8z"/>
		<path class="st3" d="M117.3,153l4.5-7.8l0.6,0.3l-4.5,7.8L117.3,153z M120.9,155.1l-1-4.6l4.2-1.1l0.7,0.4l-4.2,1.1l1,4.6
			L120.9,155.1z"/>
		<path class="st3" d="M125.4,154c-1.1,2.1-0.3,3,1,3.7c0.4,0.2,1.2,0.5,1.4,0.6l-0.2,0.6c-0.2,0-0.8-0.2-1.8-0.8
			c-1.6-0.9-2.3-2.2-1.1-4.4c1.3-2.3,3-2.4,4.3-1.6c1.3,0.7,1.5,2.1,0.4,4l-0.1,0.2L125.4,154z M128.7,152.4c-0.9-0.5-2.1-0.3-3,1
			l3.4,1.9C129.7,154.2,129.7,153,128.7,152.4z"/>
	</g>
	<polyline class="st5" points="136.2,166.3 136.2,160.9 132.7,158.9 	"/>
	<g>
		<path class="st3" d="M97.7,115.5l0.3-0.6c-0.5,0.1-1.4,0.1-2-0.3c-1-0.6-2.1-1.7-0.7-4.2c1.2-2,2.9-2.3,4.3-1.5
			c0.6,0.3,0.9,0.5,1.2,0.9l1.3-2.2l0.6,0.3l-4.5,7.8L97.7,115.5z M100.6,110.4c-0.2-0.3-0.6-0.6-1.2-1c-1.5-0.8-2.7,0.2-3.5,1.4
			c-0.9,1.6-0.7,2.7,0.4,3.3c0.6,0.4,1.7,0.3,2,0.2L100.6,110.4z"/>
		<path class="st3" d="M102.2,114.4c-1.1,2.1-0.3,3,1,3.7c0.4,0.2,1.2,0.5,1.4,0.6l-0.2,0.6c-0.2,0-0.8-0.2-1.8-0.8
			c-1.6-0.9-2.3-2.2-1.1-4.4c1.3-2.3,3-2.4,4.3-1.6c1.3,0.7,1.5,2.1,0.4,4l-0.1,0.2L102.2,114.4z M105.5,112.8c-0.9-0.5-2.1-0.3-3,1
			l3.4,1.9C106.6,114.6,106.5,113.4,105.5,112.8z"/>
		<path class="st3" d="M106.1,120.3l0.3-0.5l2.2,1.3l3.9-6.8l-2-1.1l0.3-0.5l2.5,1.5l-4.2,7.3l2.2,1.2l-0.3,0.5L106.1,120.3z"/>
		<path class="st3" d="M112.6,124.1l0.3-0.5l2.2,1.2l2.7-4.6l-2-1.1l0.3-0.5l2.5,1.5l-3,5.1l2.2,1.2l-0.3,0.5L112.6,124.1z
			 M119,118.6l-0.2-0.9l0.9-0.2l0.2,0.9L119,118.6z"/>
		<path class="st3" d="M121.4,129.1l-0.9-0.5l1.1-6.9l0.6,0.4l-0.9,5.7l-0.1,0.9l0,0l0.7-0.5l4.6-3.5l0.6,0.3L121.4,129.1z"/>
		<path class="st3" d="M127.2,128.8c-1.1,2.1-0.3,3,1,3.7c0.4,0.2,1.2,0.5,1.4,0.6l-0.2,0.6c-0.2,0-0.8-0.2-1.8-0.8
			c-1.6-0.9-2.3-2.2-1.1-4.4c1.3-2.3,3-2.4,4.3-1.6c1.3,0.7,1.5,2.1,0.4,4l-0.1,0.2L127.2,128.8z M130.5,127.2c-0.9-0.5-2.1-0.3-3,1
			l3.4,1.9C131.5,129,131.5,127.8,130.5,127.2z"/>
		<path class="st3" d="M138.9,132.8c-0.2-0.4-0.5-0.9-1.1-1.3c-0.7-0.4-1.6-0.2-2.1,0l-2.2,3.8l2.1,1.2l-0.3,0.5l-4.2-2.4l0.3-0.5
			l1.6,0.9l2.7-4.6l-1.6-0.9l0.3-0.5l2.1,1.2l-0.4,0.7c0.5-0.2,1.2-0.4,2.1,0.1c0.9,0.5,1.2,1.1,1.3,1.4L138.9,132.8z"/>
		<path class="st3" d="M147.8,144.4l-0.9-0.5l2-5.8l0,0l-4.2,4.5l-0.9-0.5l2.5-6.1l0.6,0.3l-2.4,5.7l0,0l4.3-4.6l0.9,0.5l-2.1,5.9
			l0,0l3.9-4.8l0.6,0.3L147.8,144.4z"/>
		<path class="st3" d="M154.4,148.3c-0.4-0.2-0.9-0.7-0.6-1.3c-0.3,0-1.3,0.3-2.5-0.4c-0.9-0.5-1.2-1.4-0.6-2.5
			c0.8-1.4,2.2-1,3.1-0.5l1.5,0.8l0.5-0.9c0.6-1,0.2-1.5-0.9-2.1c-0.5-0.3-1.3-0.5-1.5-0.5l0.2-0.5c0.2,0,1,0.2,1.9,0.7
			c1.1,0.7,1.7,1.5,1.1,2.6l-1.9,3.3c-0.3,0.5,0,0.8,0.2,0.9L154.4,148.3z M155,144.9l-1.5-0.8c-1-0.5-1.8-0.3-2.1,0.3
			c-0.5,0.9-0.2,1.4,0.5,1.8c0.8,0.5,2.2,0.4,2.3,0.3L155,144.9z"/>
		<path class="st3" d="M159,150.9c-1-0.6-1.7-1.3-1-2.6l2.1-3.7l-1.4-0.8l0.3-0.5l1.4,0.8l0.7-1.2l0.6,0.3l-0.7,1.2l3.2,1.9
			l-0.3,0.5l-3.2-1.9l-2.1,3.6c-0.5,0.9-0.3,1.3,0.6,1.9c0.7,0.4,1.4,0.6,2.1,0.7l-0.1,0.6C160.6,151.6,159.7,151.4,159,150.9z"/>
		<path class="st3" d="M164.6,150.4c-1.1,2.1-0.3,3,1,3.7c0.4,0.2,1.2,0.5,1.4,0.6l-0.2,0.6c-0.2,0-0.8-0.2-1.8-0.8
			c-1.6-0.9-2.3-2.2-1.1-4.4c1.3-2.3,3-2.4,4.3-1.6c1.3,0.7,1.5,2.1,0.4,4l-0.1,0.2L164.6,150.4z M167.9,148.8c-0.9-0.5-2.1-0.3-3,1
			l3.4,1.9C168.9,150.6,168.9,149.4,167.9,148.8z"/>
		<path class="st3" d="M176.3,154.4c-0.2-0.4-0.5-0.9-1.1-1.2c-0.7-0.4-1.6-0.2-2.1,0l-2.2,3.8l2.1,1.2l-0.3,0.5l-4.2-2.4l0.3-0.5
			l1.6,0.9l2.7-4.6l-1.6-0.9l0.3-0.5l2.1,1.2l-0.4,0.7c0.5-0.2,1.2-0.4,2.1,0.1c0.9,0.5,1.2,1.1,1.3,1.4L176.3,154.4z"/>
	</g>
	<polyline class="st6" points="181.6,166.3 181.6,160.9 178.2,158.9 	"/>
	<g>
		<path class="st3" d="M157,121.6c-0.6-0.3-1-0.6-1.2-0.8l-1.3,2.3l-0.6-0.3l4.6-8l0.6,0.3l-0.3,0.5c0.6,0,1.3,0,2,0.4
			c1.4,0.8,1.7,2.3,0.7,4.1C160,122.4,158.3,122.4,157,121.6z M160.6,119.9c0.7-1.2,1.2-2.7-0.3-3.5c-0.6-0.4-1.7-0.3-1.9-0.3
			l-2.4,4.1c0.3,0.2,0.5,0.4,1.2,0.9C158.6,121.9,159.8,121.2,160.6,119.9L160.6,119.9z"/>
		<path class="st3" d="M161.2,123.9l0.3-0.5l2.2,1.3l3.9-6.8l-2-1.1l0.3-0.5l2.5,1.5l-4.2,7.3l2.2,1.2l-0.3,0.5L161.2,123.9z"/>
		<path class="st3" d="M169.8,129c-1.5-0.9-1.9-2.4-0.8-4.3c1.1-2,2.8-2.4,4.2-1.6c1.6,0.9,1.8,2.4,0.7,4.4
			C172.8,129.5,171.2,129.8,169.8,129z M173.4,127.2c0.6-1.1,1.1-2.7-0.4-3.5c-1.5-0.9-2.7,0.3-3.3,1.4c-0.7,1.2-1,2.7,0.5,3.5
			C171.6,129.4,172.7,128.3,173.4,127.2L173.4,127.2z"/>
		<path class="st3" d="M176.6,132.9c-1-0.6-1.7-1.3-1-2.6l2.1-3.7l-1.4-0.8l0.3-0.5l1.4,0.8l0.7-1.2l0.6,0.3l-0.7,1.2l3.2,1.9
			l-0.3,0.5l-3.2-1.9l-2.1,3.6c-0.5,0.9-0.3,1.3,0.6,1.9c0.7,0.4,1.4,0.6,2.1,0.7l-0.1,0.6C178.3,133.6,177.4,133.4,176.6,132.9z"/>
		<path class="st3" d="M194,136.4c-0.2-0.4-0.5-0.9-1.1-1.3c-0.7-0.4-1.6-0.2-2.1,0l-2.2,3.8l2.1,1.2l-0.3,0.5l-4.2-2.4l0.3-0.5
			l1.6,0.9l2.7-4.6l-1.6-0.9l0.3-0.5l2.1,1.2l-0.4,0.7c0.5-0.2,1.2-0.4,2.1,0.1c0.9,0.5,1.2,1.1,1.3,1.4L194,136.4z"/>
		<path class="st3" d="M194.7,139.6c-1.1,2.1-0.3,3,1,3.7c0.4,0.2,1.2,0.5,1.4,0.6l-0.2,0.6c-0.2,0-0.8-0.2-1.8-0.8
			c-1.6-0.9-2.3-2.2-1.1-4.4c1.3-2.3,3-2.4,4.3-1.6c1.3,0.7,1.5,2.1,0.4,4l-0.1,0.2L194.7,139.6z M198,138c-0.9-0.5-2.1-0.3-3,1
			l3.4,1.9C199.1,139.8,199,138.6,198,138z"/>
		<path class="st3" d="M200.7,146.9c-0.9-0.5-1.4-1-1.7-1.4l0.5-0.4c0.3,0.4,0.7,0.9,1.5,1.3c0.9,0.5,2,0.9,2.4,0.1
			c0.8-1.4-2.9-3-1.8-4.9c0.6-1,1.7-0.9,2.8-0.3c0.7,0.4,1.2,0.8,1.5,1.3l-0.4,0.4c-0.3-0.4-0.8-0.8-1.4-1.2
			c-0.7-0.4-1.5-0.5-1.9,0.1c-0.9,1.5,2.8,3.1,1.7,5C203.3,148,201.7,147.4,200.7,146.9z"/>
		<path class="st3" d="M208.9,151.4l0.4-0.7c-0.6,0-1.6,0.2-2.5-0.4c-1.5-0.9-0.9-2.2-0.4-3.1l2.1-3.6l0.6,0.3l-2,3.5
			c-0.5,0.9-1,1.8,0.2,2.4c0.8,0.4,2.1,0.3,2.4,0.3l2.6-4.4l0.5,0.3l-3.3,5.7L208.9,151.4z"/>
		<path class="st3" d="M211,152.7l0.3-0.5l2.2,1.3l3.9-6.8l-2-1.1l0.3-0.5l2.5,1.5l-4.2,7.3l2.2,1.2l-0.3,0.5L211,152.7z"/>
		<path class="st3" d="M220.3,158.1c-1-0.6-1.7-1.3-1-2.6l2.1-3.7l-1.4-0.8l0.3-0.5l1.4,0.8l0.7-1.2l0.5,0.3l-0.7,1.2l3.2,1.9
			l-0.3,0.5l-3.2-1.9l-2.1,3.6c-0.5,0.9-0.3,1.3,0.6,1.9c0.7,0.4,1.4,0.6,2.1,0.7l-0.1,0.6C221.9,158.8,221,158.6,220.3,158.1z"/>
	</g>
	<polyline class="st7" points="229.6,166.3 229.6,160.9 226.1,158.9 	"/>
</g>
<g>
	<g>
		<defs>
			<path id="SVGID_3_" d="M538.8,194.8H347.9c-3.9,0-7.2-3.2-7.2-7.2v-84.3c0-3.9,3.2-7.2,7.2-7.2h190.9c3.9,0,7.2,3.2,7.2,7.2v84.3
				C545.9,191.6,542.7,194.8,538.8,194.8z"/>
		</defs>
		<clipPath id="SVGID_4_">
			<use xlink:href="#SVGID_3_"  style="overflow:visible;"/>
		</clipPath>
		<rect x="450.6" y="96.1" class="st8" width="36.1" height="22.7"/>
		<rect x="442.1" y="121.4" class="st9" width="3.9" height="22.7"/>
		<rect x="337.6" y="172.1" class="st10" width="19.1" height="22.7"/>
		<rect x="358.1" y="148" class="st11" width="41.8" height="22.7"/>
		<rect x="352.7" y="172.1" class="st10" width="3.9" height="22.7"/>
		<rect x="358.1" y="172.1" class="st10" width="3.9" height="22.7"/>
		<rect x="363.5" y="172.1" class="st10" width="3.9" height="22.7"/>
		<rect x="368.9" y="172.1" class="st10" width="3.9" height="22.7"/>
		<rect x="374.3" y="172.1" class="st10" width="3.9" height="22.7"/>
		<rect x="379.7" y="172.1" class="st10" width="3.9" height="22.7"/>
		<rect x="385.1" y="172.1" class="st10" width="3.9" height="22.7"/>
		<rect x="390.5" y="172.1" class="st10" width="3.9" height="22.7"/>
		<rect x="395.9" y="172.1" class="st10" width="3.9" height="22.7"/>
		<rect x="401.7" y="172.1" class="st10" width="39.4" height="22.7"/>
		<g class="st12">
			<rect x="441.4" y="121.4" class="st13" width="7.7" height="22.7"/>
			<rect x="450.5" y="121.4" class="st13" width="3.9" height="22.7"/>
			<rect x="455.9" y="121.4" class="st13" width="3.9" height="22.7"/>
			<rect x="461.3" y="121.4" class="st13" width="3.9" height="22.7"/>
			<rect x="466.7" y="121.4" class="st13" width="3.9" height="22.7"/>
			<rect x="472.1" y="121.4" class="st13" width="3.9" height="22.7"/>
			<rect x="477.5" y="121.4" class="st13" width="3.9" height="22.7"/>
			<rect x="482.9" y="121.4" class="st13" width="3.9" height="22.7"/>
			<rect x="488.2" y="121.4" class="st13" width="9.2" height="22.7"/>
		</g>
		<rect x="482.8" y="96.1" class="st8" width="3.9" height="22.7"/>
		<rect x="488.2" y="96.1" class="st8" width="3.9" height="22.7"/>
		<rect x="493.6" y="96.1" class="st8" width="3.9" height="22.7"/>
		<rect x="498.7" y="96.2" class="st8" width="48.4" height="22.7"/>
	</g>
	<g>
		<path class="st3" d="M538.7,93.5c5.2,0,9.4,4.2,9.4,9.4v84.8c0,5.2-4.2,9.4-9.4,9.4H348c-5.2,0-9.4-4.2-9.4-9.4v-84.8
			c0-5.2,4.2-9.4,9.4-9.4H538.7 M538.7,92.5H348c-5.7,0-10.4,4.7-10.4,10.4v84.8c0,5.7,4.7,10.4,10.4,10.4h190.7
			c5.7,0,10.4-4.7,10.4-10.4v-84.8C549.1,97.1,544.4,92.5,538.7,92.5L538.7,92.5z"/>
	</g>
	<g>
		<path class="st3" d="M302,150c-2.8,0-4-1.2-4-4.2c0-2.7,1.4-4.3,3.7-4.3c1.3,0,2,0.3,2.7,0.7l-0.3,0.6c-0.7-0.4-1.4-0.6-2.4-0.6
			c-1.7,0-2.8,1.3-2.8,3.5c0,2.4,0.8,3.5,3.3,3.5c1,0,1.8-0.2,2.1-0.3l0.2,0.7C304.1,149.8,303.4,150,302,150z"/>
		<path class="st3" d="M309.6,150c-0.8,0-1.4,0-1.8-0.1v3.3H307v-11.5h0.8v0.7c0.6-0.4,1.4-0.8,2.4-0.8c2.1,0,3.3,1.4,3.3,4
			C313.4,149,311.6,150,309.6,150z M312.5,146c0-1.8-0.4-3.6-2.5-3.6c-0.9,0-2,0.7-2.2,0.9v5.9c0.4,0.1,0.8,0.1,1.9,0.1
			C311.6,149.3,312.5,147.9,312.5,146L312.5,146z"/>
		<path class="st3" d="M321.5,149.9v-1c-0.7,0.4-1.6,1.2-3,1.2c-2.2,0-2.4-1.8-2.4-3.1v-5.3h0.8v5c0,1.3,0,2.5,1.7,2.5
			c1.1,0,2.5-0.9,2.8-1.2v-6.4h0.8v8.2H321.5z"/>
		<path class="st3" d="M328.1,150c-2.7,0-3.6-2.3-3.6-5.3c0-3,0.9-5.6,3.8-5.6c2.8,0,3.5,2.6,3.5,5.2
			C331.8,147.9,330.8,150,328.1,150z M330.9,144.5c0-2-0.4-4.6-2.7-4.6c-2.4,0-2.8,2.7-2.8,4.8c0,2.3,0.6,4.6,2.7,4.6
			C330.5,149.3,330.9,146.8,330.9,144.5L330.9,144.5z M328.2,145.4l-0.8-0.8l0.8-0.8l0.8,0.8L328.2,145.4z"/>
	</g>
	<g>
		<path class="st3" d="M452.7,187.3h-1l-1.1-6h0l-1.4,6h-1l-0.9-6.5h0.7l0.7,6.1h0l1.4-6.1h1l1.2,6.1h0l0.9-6.1h0.7L452.7,187.3z"/>
		<path class="st3" d="M460.4,187.4c-0.5,0-1.1-0.2-1.2-0.9c-0.2,0.2-1,0.9-2.4,0.9c-1.1,0-1.8-0.6-1.8-1.8c0-1.6,1.4-1.9,2.4-2
			l1.7,0v-1c0-1.2-0.6-1.4-1.8-1.4c-0.6,0-1.3,0.2-1.5,0.3l-0.1-0.6c0.2-0.1,1-0.3,1.9-0.3c1.3,0,2.2,0.4,2.2,1.7v3.8
			c0,0.6,0.4,0.7,0.6,0.7L460.4,187.4z M459.2,184.1l-1.7,0.1c-1.1,0-1.7,0.6-1.7,1.3c0,1,0.5,1.3,1.3,1.3c0.9,0,2.1-0.8,2.1-0.9
			V184.1z"/>
		<path class="st3" d="M462.5,187.3v-0.6h2.5v-5.3h-2.3v-0.6h2.9v5.9h2.5v0.6H462.5z M465.3,179.4l-0.6-0.7l0.6-0.6l0.7,0.6
			L465.3,179.4z"/>
		<path class="st3" d="M472.8,187.4c-1.2,0-2.1-0.2-2.1-1.8v-4.3h-1.6v-0.6h1.6v-1.3h0.6v1.3h3.7v0.6h-3.7v4.1c0,1,0.4,1.3,1.5,1.3
			c0.8,0,1.5-0.2,2.2-0.4l0.2,0.5C474.6,187.1,473.7,187.4,472.8,187.4z"/>
		<path class="st3" d="M489.5,178.8c-0.2,0-0.8-0.2-1.3-0.2c-1.1,0-1.7,0.3-1.7,1.5v0.6h2.8v0.6h-2.8v5.3h2.8v0.6h-5.4v-0.6h1.9
			v-5.3h-1.9v-0.6h1.9v-0.6c0-1.7,1.2-2.1,2.4-2.1c0.5,0,1.2,0.1,1.5,0.2L489.5,178.8z"/>
		<path class="st3" d="M493.7,187.4c-1.7,0-2.8-1.1-2.8-3.3c0-2.3,1.2-3.5,2.9-3.5c1.8,0,2.8,1.2,2.8,3.4
			C496.6,186.3,495.4,187.4,493.7,187.4z M495.9,184c0-1.2-0.4-2.9-2.1-2.9c-1.7,0-2.2,1.6-2.2,2.9c0,1.4,0.5,2.8,2.2,2.8
			C495.5,186.8,495.9,185.4,495.9,184L495.9,184z"/>
		<path class="st3" d="M504,181.7c-0.4-0.2-0.9-0.5-1.6-0.5c-0.9,0-1.5,0.6-1.8,1.1v4.4h2.4v0.6h-4.9v-0.6h1.8v-5.3h-1.8v-0.6h2.5
			v0.8c0.3-0.4,0.9-0.9,1.9-0.9c1.1,0,1.6,0.4,1.9,0.6L504,181.7z"/>
		<path class="st3" d="M514.9,187.4c-0.6,0-1.1,0-1.5-0.1v2.6h-0.7v-9.2h0.7v0.6c0.5-0.3,1.2-0.6,1.9-0.6c1.7,0,2.6,1.1,2.6,3.2
			C517.9,186.6,516.5,187.4,514.9,187.4z M517.3,184.2c0-1.4-0.3-2.9-2-2.9c-0.7,0-1.6,0.5-1.8,0.7v4.8c0.3,0,0.6,0.1,1.5,0.1
			C516.5,186.8,517.2,185.7,517.3,184.2L517.3,184.2z"/>
		<path class="st3" d="M522.6,187.4c-1.7,0-2.8-1.1-2.8-3.3c0-2.3,1.2-3.5,2.9-3.5c1.8,0,2.8,1.2,2.8,3.4
			C525.4,186.3,524.2,187.4,522.6,187.4z M524.7,184c0-1.2-0.4-2.9-2.1-2.9c-1.7,0-2.2,1.6-2.2,2.9c0,1.4,0.5,2.8,2.2,2.8
			C524.3,186.8,524.7,185.4,524.7,184L524.7,184z"/>
		<path class="st3" d="M527.5,187.3v-9h0.7v9H527.5z M531.8,187.3l-3.1-3.5l3.1-3.1h0.8l-3.1,3.1l3.1,3.5H531.8z"/>
		<path class="st3" d="M535,184.1c0,2.4,1.2,2.7,2.7,2.7c0.5,0,1.3-0.1,1.5-0.2l0.1,0.6c-0.2,0.1-0.8,0.3-2,0.3
			c-1.8,0-3.1-0.8-3.1-3.3c0-2.6,1.4-3.5,2.9-3.5c1.5,0,2.4,1,2.4,3.2v0.2H535z M537.1,181.1c-1.1,0-2,0.8-2.1,2.4h3.9
			C538.9,182.1,538.3,181.1,537.1,181.1z"/>
	</g>
	<g>
		<path class="st3" d="M345.3,112c-0.6,0-1.1,0-1.5-0.1v2.6h-0.7v-9.2h0.7v0.6c0.5-0.3,1.2-0.6,1.9-0.6c1.7,0,2.6,1.1,2.6,3.2
			C348.3,111.2,346.8,112,345.3,112z M347.6,108.7c0-1.4-0.3-2.9-2-2.9c-0.7,0-1.6,0.5-1.8,0.7v4.8c0.3,0,0.6,0.1,1.5,0.1
			C346.8,111.4,347.6,110.3,347.6,108.7L347.6,108.7z"/>
		<path class="st3" d="M350,111.9v-0.6h2.5v-7.9h-2.3v-0.6h2.9v8.4h2.5v0.6H350z"/>
		<path class="st3" d="M360.1,112c-1.7,0-2.8-1.1-2.8-3.3c0-2.3,1.2-3.5,2.9-3.5c1.8,0,2.8,1.2,2.8,3.4
			C362.9,110.9,361.7,112,360.1,112z M362.3,108.6c0-1.2-0.4-2.9-2.1-2.9c-1.7,0-2.2,1.6-2.2,2.9c0,1.4,0.5,2.8,2.2,2.8
			C361.8,111.4,362.2,110,362.3,108.6L362.3,108.6z"/>
		<path class="st3" d="M368,112c-1.2,0-2.1-0.2-2.1-1.8v-4.3h-1.6v-0.6h1.6V104h0.6v1.3h3.7v0.6h-3.7v4.1c0,1,0.4,1.3,1.5,1.3
			c0.8,0,1.5-0.2,2.2-0.4l0.2,0.5C369.7,111.7,368.8,112,368,112z"/>
		<path class="st3" d="M384.7,106.3c-0.4-0.2-0.9-0.5-1.6-0.5c-0.9,0-1.5,0.6-1.8,1.1v4.4h2.4v0.6h-4.9v-0.6h1.8v-5.3h-1.8v-0.6h2.5
			v0.8c0.3-0.4,0.9-0.9,1.9-0.9c1.1,0,1.6,0.4,1.9,0.6L384.7,106.3z"/>
		<path class="st3" d="M386.9,108.7c0,2.4,1.2,2.7,2.7,2.7c0.5,0,1.3-0.1,1.5-0.2l0.1,0.6c-0.2,0.1-0.8,0.3-2,0.3
			c-1.8,0-3.1-0.8-3.1-3.3c0-2.6,1.4-3.5,2.9-3.5c1.5,0,2.4,1,2.4,3.2v0.2H386.9z M389,105.7c-1.1,0-2,0.8-2.1,2.4h3.9
			C390.8,106.7,390.2,105.7,389,105.7z"/>
		<path class="st3" d="M395.8,112c-1,0-1.7-0.2-2.2-0.4l0.2-0.6c0.5,0.2,1.1,0.4,1.9,0.4c1,0,2.1-0.2,2.1-1.1c0-1.6-4-1.1-4-3.4
			c0-1.2,1-1.7,2.2-1.7c0.8,0,1.4,0.1,2,0.3l-0.2,0.5c-0.5-0.2-1.1-0.3-1.8-0.3c-0.9,0-1.5,0.3-1.5,1.1c0,1.8,4,1.3,4,3.4
			C398.5,111.7,396.9,112,395.8,112z"/>
		<path class="st3" d="M405.1,111.9v-0.8c-0.5,0.3-1.3,0.9-2.4,0.9c-1.8,0-1.9-1.5-1.9-2.5v-4.2h0.7v4c0,1.1,0,2,1.4,2
			c0.9,0,2-0.7,2.3-0.9v-5.1h0.6v6.5H405.1z"/>
		<path class="st3" d="M407.6,111.9v-0.6h2.5v-7.9h-2.3v-0.6h2.9v8.4h2.5v0.6H407.6z"/>
		<path class="st3" d="M418.4,112c-1.2,0-2.1-0.2-2.1-1.8v-4.3h-1.6v-0.6h1.6V104h0.6v1.3h3.7v0.6h-3.7v4.1c0,1,0.4,1.3,1.5,1.3
			c0.8,0,1.5-0.2,2.2-0.4l0.2,0.5C420.1,111.7,419.2,112,418.4,112z"/>
	</g>
	<g>
		<path class="st3" d="M415.2,162.7c-2.2,0-3.2-1-3.2-3.4c0-2.1,1.2-3.4,2.9-3.4c1,0,1.6,0.3,2.2,0.6l-0.3,0.5
			c-0.5-0.3-1.1-0.5-2-0.5c-1.4,0-2.2,1.1-2.2,2.8c0,1.9,0.6,2.8,2.6,2.8c0.8,0,1.4-0.2,1.7-0.3l0.2,0.6
			C416.9,162.5,416.3,162.7,415.2,162.7z"/>
		<path class="st3" d="M421.7,162.7c-1.7,0-2.8-1.1-2.8-3.3c0-2.3,1.2-3.5,2.9-3.5c1.8,0,2.8,1.2,2.8,3.4
			C424.6,161.6,423.4,162.7,421.7,162.7z M423.9,159.3c0-1.2-0.4-2.9-2.1-2.9c-1.7,0-2.2,1.6-2.2,2.9c0,1.4,0.5,2.8,2.2,2.8
			C423.5,162.1,423.9,160.7,423.9,159.3L423.9,159.3z"/>
		<path class="st3" d="M431.2,162.6v-4.1c0-1.1,0-2-0.8-2c-0.5,0-0.9,0.6-1.1,0.9c0,0.3,0,0.6,0,0.9v4.3h-0.6v-4.3
			c0-0.9,0-1.8-0.7-1.8c-0.5,0-1,0.8-1.2,1.1v5h-0.7V156h0.7v0.8c0.2-0.4,0.6-0.9,1.2-0.9c0.7,0,1,0.4,1.1,0.9
			c0.3-0.5,0.6-0.9,1.3-0.9c1.4,0,1.4,1.3,1.4,2.4v4.3H431.2z"/>
		<path class="st3" d="M435.7,162.7c-0.6,0-1.1,0-1.5-0.1v2.6h-0.7V156h0.7v0.6c0.5-0.3,1.2-0.6,1.9-0.6c1.7,0,2.6,1.1,2.6,3.2
			C438.7,161.9,437.3,162.7,435.7,162.7z M438.1,159.4c0-1.4-0.3-2.9-2-2.9c-0.7,0-1.6,0.5-1.8,0.7v4.8c0.3,0,0.6,0.1,1.5,0.1
			C437.3,162.1,438,161,438.1,159.4L438.1,159.4z"/>
		<path class="st3" d="M445.2,162.6v-0.8c-0.5,0.3-1.3,0.9-2.4,0.9c-1.8,0-1.9-1.5-1.9-2.5V156h0.7v4c0,1.1,0,2,1.4,2
			c0.9,0,2-0.7,2.3-0.9V156h0.6v6.5H445.2z"/>
		<path class="st3" d="M451.2,162.7c-1.2,0-2.1-0.2-2.1-1.8v-4.3h-1.6V156h1.6v-1.3h0.6v1.3h3.7v0.6h-3.7v4.1c0,1,0.4,1.3,1.5,1.3
			c0.8,0,1.5-0.2,2.2-0.4l0.2,0.5C453,162.4,452.1,162.7,451.2,162.7z"/>
		<path class="st3" d="M455.8,159.4c0,2.4,1.2,2.7,2.7,2.7c0.5,0,1.3-0.1,1.5-0.2l0.1,0.6c-0.2,0.1-0.8,0.3-2,0.3
			c-1.8,0-3.1-0.8-3.1-3.3c0-2.6,1.4-3.5,2.9-3.5c1.5,0,2.4,1,2.4,3.2v0.2H455.8z M457.9,156.4c-1.1,0-2,0.8-2.1,2.4h3.9
			C459.7,157.4,459.1,156.4,457.9,156.4z"/>
		<path class="st3" d="M474,162.6v-4.1c0-1.2-0.1-2-1.5-2c-0.9,0-1.9,0.7-2.2,0.9v5.2h-0.7V156h0.7v0.8c0.5-0.3,1.2-0.9,2.3-0.9
			c1.9,0,2,1.4,2,2.4v4.3H474z"/>
		<path class="st3" d="M477.4,159.4c0,2.4,1.2,2.7,2.7,2.7c0.5,0,1.3-0.1,1.5-0.2l0.1,0.6c-0.2,0.1-0.8,0.3-2,0.3
			c-1.8,0-3.1-0.8-3.1-3.3c0-2.6,1.4-3.5,2.9-3.5c1.5,0,2.4,1,2.4,3.2v0.2H477.4z M479.5,156.4c-1.1,0-2,0.8-2.1,2.4h3.9
			C481.3,157.4,480.7,156.4,479.5,156.4z"/>
		<path class="st3" d="M487,159.3l2.8,3.3H489l-2.4-2.9l-2.4,2.9h-0.8l2.8-3.3l-2.8-3.3h0.8l2.4,2.9l2.4-2.9h0.8L487,159.3z"/>
		<path class="st3" d="M494.4,162.7c-1.2,0-2.1-0.2-2.1-1.8v-4.3h-1.6V156h1.6v-1.3h0.6v1.3h3.7v0.6H493v4.1c0,1,0.4,1.3,1.5,1.3
			c0.8,0,1.5-0.2,2.2-0.4l0.2,0.5C496.2,162.4,495.3,162.7,494.4,162.7z"/>
		<path class="st3" d="M507.9,162.7c-1,0-1.7-0.2-2.2-0.4l0.2-0.6c0.5,0.2,1.1,0.4,1.9,0.4c1,0,2.1-0.2,2.1-1.1c0-1.6-4-1.1-4-3.4
			c0-1.2,1-1.7,2.2-1.7c0.8,0,1.4,0.1,2,0.3l-0.2,0.5c-0.5-0.2-1.1-0.3-1.8-0.3c-0.9,0-1.5,0.3-1.5,1.1c0,1.8,4,1.3,4,3.4
			C510.6,162.4,508.9,162.7,507.9,162.7z"/>
		<path class="st3" d="M516,162.7c-1.2,0-2.1-0.2-2.1-1.8v-4.3h-1.6V156h1.6v-1.3h0.6v1.3h3.7v0.6h-3.7v4.1c0,1,0.4,1.3,1.5,1.3
			c0.8,0,1.5-0.2,2.2-0.4l0.2,0.5C517.8,162.4,516.9,162.7,516,162.7z"/>
		<path class="st3" d="M525.2,162.7c-0.5,0-1.1-0.2-1.2-0.9c-0.2,0.2-1,0.9-2.4,0.9c-1.1,0-1.8-0.6-1.8-1.8c0-1.6,1.4-1.9,2.4-2
			l1.7,0v-1c0-1.2-0.6-1.4-1.8-1.4c-0.6,0-1.3,0.2-1.5,0.3l-0.1-0.6c0.2-0.1,1-0.3,1.9-0.3c1.3,0,2.2,0.4,2.2,1.7v3.8
			c0,0.6,0.4,0.7,0.6,0.7L525.2,162.7z M524,159.4l-1.7,0.1c-1.1,0-1.7,0.6-1.7,1.3c0,1,0.5,1.3,1.3,1.3c0.9,0,2.1-0.8,2.1-0.9
			V159.4z"/>
		<path class="st3" d="M529.6,165.3c-0.9,0-1.8-0.2-2-0.2l0.1-0.6c0.1,0,1.1,0.2,1.6,0.2c1.2,0,2.2-0.2,2.2-1.8v-0.8
			c-0.4,0.4-1,0.6-1.7,0.6c-1.3,0-2.8-0.4-2.8-3.3c0-2.4,1.3-3.4,3-3.4c0.8,0,1.6,0.1,2.2,0.2v7
			C532.3,164.6,531.2,165.3,529.6,165.3z M531.6,156.6c-0.3-0.1-0.8-0.2-1.5-0.2c-1.7,0-2.3,1.3-2.3,2.9c0,1.9,0.7,2.7,2.2,2.7
			c0.8,0,1.4-0.5,1.7-0.7L531.6,156.6z"/>
		<path class="st3" d="M535,159.4c0,2.4,1.2,2.7,2.7,2.7c0.5,0,1.3-0.1,1.5-0.2l0.1,0.6c-0.2,0.1-0.8,0.3-2,0.3
			c-1.8,0-3.1-0.8-3.1-3.3c0-2.6,1.4-3.5,2.9-3.5c1.5,0,2.4,1,2.4,3.2v0.2H535z M537.1,156.4c-1.1,0-2,0.8-2.1,2.4h3.9
			C538.9,157.4,538.3,156.4,537.1,156.4z"/>
	</g>
	<g>
		<path class="st3" d="M347.6,137.1v-0.7c-0.4,0.4-1.2,0.8-1.8,0.8c-1.1,0-2.7-0.4-2.7-3.3c0-2.3,1.4-3.5,3-3.5c0.7,0,1,0,1.5,0.2
			V128h0.7v9H347.6z M347.6,131.2c-0.3-0.1-0.8-0.2-1.5-0.2c-1.7,0-2.3,1.5-2.3,3c0,1.9,0.8,2.7,2,2.7c0.7,0,1.6-0.6,1.8-0.8V131.2z
			"/>
		<path class="st3" d="M350.9,133.8c0,2.4,1.2,2.7,2.7,2.7c0.5,0,1.3-0.1,1.5-0.2l0.1,0.6c-0.2,0.1-0.8,0.3-2,0.3
			c-1.8,0-3.1-0.8-3.1-3.3c0-2.6,1.4-3.5,2.9-3.5c1.5,0,2.4,1,2.4,3.2v0.2H350.9z M353,130.9c-1.1,0-2,0.8-2.1,2.4h3.9
			C354.8,131.8,354.2,130.9,353,130.9z"/>
		<path class="st3" d="M357.2,137.1v-0.6h2.5v-7.9h-2.3V128h2.9v8.4h2.5v0.6H357.2z"/>
		<path class="st3" d="M364.8,137.1v-0.6h2.5v-5.3H365v-0.6h2.9v5.9h2.5v0.6H364.8z M367.6,129.1l-0.6-0.7l0.6-0.6l0.7,0.6
			L367.6,129.1z"/>
		<path class="st3" d="M374.9,137.1h-1l-2.5-6.5h0.7l2.1,5.3l0.3,0.8h0l0.3-0.8l2.3-5.3h0.7L374.9,137.1z"/>
		<path class="st3" d="M379.7,133.8c0,2.4,1.2,2.7,2.7,2.7c0.5,0,1.3-0.1,1.5-0.2l0.1,0.6c-0.2,0.1-0.8,0.3-2,0.3
			c-1.8,0-3.1-0.8-3.1-3.3c0-2.6,1.4-3.5,2.9-3.5c1.5,0,2.4,1,2.4,3.2v0.2H379.7z M381.8,130.9c-1.1,0-2,0.8-2.1,2.4h3.9
			C383.6,131.8,383,130.9,381.8,130.9z"/>
		<path class="st3" d="M391.9,131.5c-0.4-0.2-0.9-0.5-1.6-0.5c-0.9,0-1.5,0.6-1.8,1.1v4.4h2.4v0.6H386v-0.6h1.8v-5.3H386v-0.6h2.5
			v0.8c0.3-0.4,0.9-0.9,1.9-0.9c1.1,0,1.6,0.4,1.9,0.6L391.9,131.5z"/>
		<path class="st3" d="M405.4,137.1h-1l-1.1-6h0l-1.4,6h-1l-0.9-6.5h0.7l0.7,6.1h0l1.4-6.1h1l1.2,6.1h0l0.9-6.1h0.7L405.4,137.1z"/>
		<path class="st3" d="M413.1,137.1c-0.5,0-1.1-0.2-1.2-0.9c-0.2,0.2-1,0.9-2.4,0.9c-1.1,0-1.8-0.6-1.8-1.8c0-1.6,1.4-1.9,2.4-2
			l1.7,0v-1c0-1.2-0.6-1.4-1.8-1.4c-0.6,0-1.3,0.2-1.5,0.3l-0.1-0.6c0.2-0.1,1-0.3,1.9-0.3c1.3,0,2.2,0.4,2.2,1.7v3.8
			c0,0.6,0.4,0.7,0.6,0.7L413.1,137.1z M411.9,133.9l-1.7,0.1c-1.1,0-1.7,0.6-1.7,1.3c0,1,0.5,1.3,1.3,1.3c0.9,0,2.1-0.8,2.1-0.9
			V133.9z"/>
		<path class="st3" d="M418.4,137.1c-1.2,0-2.1-0.2-2.1-1.8v-4.3h-1.6v-0.6h1.6v-1.3h0.6v1.3h3.7v0.6h-3.7v4.1c0,1,0.4,1.3,1.5,1.3
			c0.8,0,1.5-0.2,2.2-0.4l0.2,0.5C420.1,136.9,419.2,137.1,418.4,137.1z"/>
		<path class="st3" d="M422.9,133.8c0,2.4,1.2,2.7,2.7,2.7c0.5,0,1.3-0.1,1.5-0.2l0.1,0.6c-0.2,0.1-0.8,0.3-2,0.3
			c-1.8,0-3.1-0.8-3.1-3.3c0-2.6,1.4-3.5,2.9-3.5c1.5,0,2.4,1,2.4,3.2v0.2H422.9z M425,130.9c-1.1,0-2,0.8-2.1,2.4h3.9
			C426.8,131.8,426.2,130.9,425,130.9z"/>
		<path class="st3" d="M435.1,131.5c-0.4-0.2-0.9-0.5-1.6-0.5c-0.9,0-1.5,0.6-1.8,1.1v4.4h2.4v0.6h-4.9v-0.6h1.8v-5.3h-1.8v-0.6h2.5
			v0.8c0.3-0.4,0.9-0.9,1.9-0.9c1.1,0,1.6,0.4,1.9,0.6L435.1,131.5z"/>
	</g>
	<g>
		<path class="st3" d="M438.9,82.9h-1l-1.1-6h0l-1.4,6h-1l-0.9-6.5h0.7l0.7,6.1h0l1.4-6.1h1l1.2,6.1h0l0.9-6.1h0.7L438.9,82.9z"/>
		<path class="st3" d="M446.5,82.9c-0.5,0-1.1-0.2-1.2-0.9c-0.2,0.2-1,0.9-2.4,0.9c-1.1,0-1.8-0.6-1.8-1.8c0-1.6,1.4-1.9,2.4-2
			l1.7,0v-1c0-1.2-0.6-1.4-1.8-1.4c-0.6,0-1.3,0.2-1.5,0.3l-0.1-0.6c0.2-0.1,1-0.3,1.9-0.3c1.3,0,2.2,0.4,2.2,1.7v3.8
			c0,0.6,0.4,0.7,0.6,0.7L446.5,82.9z M445.3,79.7l-1.7,0.1c-1.1,0-1.7,0.6-1.7,1.3c0,1,0.5,1.3,1.3,1.3c0.9,0,2.1-0.8,2.1-0.9V79.7
			z"/>
		<path class="st3" d="M448.6,82.9v-0.6h2.5v-5.3h-2.3v-0.6h2.9v5.9h2.5v0.6H448.6z M451.5,74.9l-0.6-0.7l0.6-0.6l0.7,0.6
			L451.5,74.9z"/>
		<path class="st3" d="M459,83c-1.2,0-2.1-0.2-2.1-1.8v-4.3h-1.6v-0.6h1.6V75h0.6v1.3h3.7v0.6h-3.7V81c0,1,0.4,1.3,1.5,1.3
			c0.8,0,1.5-0.2,2.2-0.4l0.2,0.5C460.7,82.7,459.9,83,459,83z"/>
		<path class="st3" d="M463,82.9v-0.6h2.5v-5.3h-2.3v-0.6h2.9v5.9h2.5v0.6H463z M465.9,74.9l-0.6-0.7l0.6-0.6l0.7,0.6L465.9,74.9z"
			/>
		<path class="st3" d="M474.6,82.9v-4.1c0-1.2-0.1-2-1.5-2c-0.9,0-1.9,0.7-2.2,0.9v5.2h-0.7v-6.5h0.7v0.8c0.5-0.3,1.2-0.9,2.3-0.9
			c1.9,0,2,1.4,2,2.4v4.3H474.6z"/>
		<path class="st3" d="M479.8,85.6c-0.9,0-1.8-0.2-2-0.2l0.1-0.6c0.1,0,1.1,0.2,1.6,0.2c1.2,0,2.2-0.2,2.2-1.8v-0.8
			c-0.4,0.4-1,0.6-1.7,0.6c-1.3,0-2.8-0.4-2.8-3.3c0-2.4,1.3-3.4,3-3.4c0.8,0,1.6,0.1,2.2,0.2v7C482.4,84.9,481.4,85.6,479.8,85.6z
			 M481.8,76.9c-0.3-0.1-0.8-0.2-1.5-0.2c-1.7,0-2.3,1.3-2.3,2.9c0,1.9,0.7,2.7,2.2,2.7c0.8,0,1.4-0.5,1.7-0.7L481.8,76.9z"/>
	</g>
	<rect x="414.5" y="67.9" class="st3" width="3.9" height="22.7"/>
	<rect x="419.9" y="67.9" class="st3" width="3.9" height="22.7"/>
	<rect x="425.3" y="67.9" class="st3" width="3.9" height="22.7"/>
	<line class="st14" x1="485.4" y1="86.3" x2="491.6" y2="102.5"/>
	<line class="st15" x1="484.6" y1="86.3" x2="491" y2="102.8"/>
</g>
<g>
	<g>
		<defs>
			<path id="SVGID_5_" d="M542.5,228.5H344.2c-1.9,0-3.4-1.5-3.4-3.4v-15.9c0-1.9,1.5-3.4,3.4-3.4h198.3c1.9,0,3.4,1.5,3.4,3.4V225
				C545.9,226.9,544.4,228.5,542.5,228.5z"/>
		</defs>
		<clipPath id="SVGID_6_">
			<use xlink:href="#SVGID_5_"  style="overflow:visible;"/>
		</clipPath>
		<rect x="441.4" y="202.8" class="st16" width="107.7" height="28.5"/>
	</g>
	<g>
		<path class="st3" d="M543.7,203.8c2.4,0,4.4,2,4.4,4.4v17.7c0,2.4-2,4.4-4.4,4.4H343c-2.4,0-4.4-2-4.4-4.4v-17.7
			c0-2.4,2-4.4,4.4-4.4H543.7 M543.7,202.8H343c-3,0-5.4,2.4-5.4,5.4v17.7c0,3,2.4,5.4,5.4,5.4h200.7c3,0,5.4-2.4,5.4-5.4v-17.7
			C549.1,205.2,546.6,202.8,543.7,202.8L543.7,202.8z"/>
	</g>
	<g>
		<path class="st3" d="M347,278c-1.5,0-2.7-0.3-2.7-2.2v-5.4h-2v-0.8h2v-1.7h0.8v1.7h4.7v0.8h-4.7v5.1c0,1.3,0.5,1.7,1.8,1.7
			c1,0,1.8-0.2,2.7-0.6l0.2,0.7C349.2,277.7,348.1,278,347,278z"/>
		<path class="st3" d="M352.1,277.9v-0.8h3.1v-6.7h-2.8v-0.7h3.7v7.4h3.1v0.8H352.1z M355.6,268l-0.8-0.8l0.8-0.8l0.8,0.8L355.6,268
			z"/>
		<path class="st3" d="M366.9,277.9v-5.1c0-1.3,0-2.5-1-2.5c-0.6,0-1.2,0.8-1.4,1.1c0,0.3,0,0.8,0,1.2v5.3h-0.8v-5.4
			c0-1.1,0.1-2.3-0.9-2.3c-0.6,0-1.2,1-1.5,1.3v6.3h-0.8v-8.2h0.8v0.9c0.3-0.5,0.8-1.1,1.5-1.1c0.9,0,1.3,0.5,1.4,1.1
			c0.3-0.6,0.8-1.1,1.6-1.1c1.8,0,1.8,1.6,1.8,3v5.3H366.9z"/>
		<path class="st3" d="M370.7,273.9c0.1,3,1.6,3.4,3.4,3.4c0.6,0,1.7-0.2,1.9-0.3l0.2,0.7c-0.3,0.1-1,0.3-2.5,0.3
			c-2.3,0-3.9-1-3.9-4.1c0-3.3,1.7-4.4,3.7-4.4c1.9,0,2.9,1.3,2.9,4.1v0.3H370.7z M373.4,270.2c-1.3,0-2.5,1-2.6,3h4.9
			C375.6,271.4,374.8,270.2,373.4,270.2z"/>
	</g>
	<g>
		<path class="st3" d="M302,221.9c-2.8,0-4-1.2-4-4.2c0-2.7,1.4-4.3,3.7-4.3c1.3,0,2,0.3,2.7,0.7l-0.3,0.6c-0.7-0.4-1.4-0.6-2.4-0.6
			c-1.7,0-2.8,1.3-2.8,3.5c0,2.4,0.8,3.5,3.3,3.5c1,0,1.8-0.2,2.1-0.3l0.2,0.7C304.1,221.6,303.4,221.9,302,221.9z"/>
		<path class="st3" d="M309.6,221.9c-0.8,0-1.4,0-1.8-0.1v3.3H307v-11.5h0.8v0.7c0.6-0.4,1.4-0.8,2.4-0.8c2.1,0,3.3,1.4,3.3,4
			C313.4,220.8,311.6,221.9,309.6,221.9z M312.5,217.8c0-1.8-0.4-3.6-2.5-3.6c-0.9,0-2,0.7-2.2,0.9v5.9c0.4,0.1,0.8,0.1,1.9,0.1
			C311.6,221.1,312.5,219.7,312.5,217.8L312.5,217.8z"/>
		<path class="st3" d="M321.5,221.7v-1c-0.7,0.4-1.6,1.2-3,1.2c-2.2,0-2.4-1.8-2.4-3.1v-5.3h0.8v5c0,1.3,0,2.5,1.7,2.5
			c1.1,0,2.5-0.9,2.8-1.2v-6.4h0.8v8.2H321.5z"/>
		<path class="st3" d="M324.6,221.7V221h3.1v-8.8l-3,1.1v-0.8l3.8-1.5v10h3.1v0.8H324.6z"/>
	</g>
	<g>
		<g>
			<line class="st4" x1="379.8" y1="273.5" x2="427.2" y2="273.5"/>
			<g>
				<polygon class="st3" points="425.2,276 424.8,275.6 426.9,273.5 424.8,271.5 425.2,271.1 427.8,273.5 				"/>
			</g>
		</g>
	</g>
	<g>
		<path class="st17" d="M472.2,220.9c-0.6,0-1,0-1.3-0.1v2.6H470v-9.2h0.9v0.6c0.4-0.3,1.1-0.7,1.8-0.7c1.6,0,2.5,1,2.5,3.2
			C475.2,220.1,473.9,220.9,472.2,220.9z M472.5,215c-0.6,0-1.4,0.4-1.6,0.6v4.4c0.3,0,0.6,0.1,1.3,0.1c1.4,0,2-1.1,2-2.5
			C474.3,216.2,474,215,472.5,215z"/>
		<path class="st17" d="M476.9,220.8V220h2.4v-7.5h-2.2v-0.8h3.1v8.2h2.4v0.8H476.9z"/>
		<path class="st17" d="M489.7,220.9c-0.6,0-1.3-0.2-1.4-0.8c-0.3,0.2-0.9,0.9-2.2,0.9c-1.2,0-1.8-0.6-1.8-1.8c0-1.6,1.4-1.9,2.5-2
			l1.5,0v-0.9c0-1-0.5-1.2-1.7-1.2c-0.6,0-1.3,0.2-1.5,0.3l-0.2-0.7c0.2-0.1,1.1-0.4,2-0.4c1.3,0,2.3,0.4,2.3,1.7v3.7
			c0,0.5,0.3,0.6,0.6,0.6L489.7,220.9z M488.2,217.7l-1.5,0.1c-1.1,0-1.6,0.6-1.6,1.2c0,0.9,0.4,1.1,1.2,1.1c0.8,0,1.8-0.6,1.9-0.7
			V217.7z"/>
		<path class="st17" d="M493.7,223.4h-0.9l1-2.6h-0.4l-2.3-6.5h1l2,5.9h0l2.3-5.9h0.9L493.7,223.4z"/>
		<path class="st17" d="M508.3,220.9c-1,0-1.7-0.1-2.2-0.3l0.2-0.8c0.5,0.2,1.2,0.3,1.9,0.3c1,0,2-0.2,2-1c0-1.5-3.9-0.9-3.9-3.3
			c0-1.3,1.1-1.8,2.4-1.8c0.8,0,1.5,0.1,2,0.3l-0.2,0.7c-0.5-0.2-1.1-0.3-1.8-0.3c-0.8,0-1.4,0.3-1.4,0.9c0,1.6,3.9,1.1,3.9,3.3
			C511.1,220.6,509.4,220.9,508.3,220.9z"/>
		<path class="st17" d="M515.8,220.9c-1.8,0-2.8-1.2-2.8-3.3c0-2.3,1.2-3.5,2.9-3.5c1.9,0,2.8,1.2,2.8,3.4
			C518.6,219.8,517.5,220.9,515.8,220.9z M515.8,214.9c-1.5,0-1.9,1.4-1.9,2.7c0,1.4,0.4,2.6,1.9,2.6c1.5,0,1.8-1.3,1.8-2.6
			C517.7,216.3,517.4,214.9,515.8,214.9z"/>
		<path class="st17" d="M524.6,220.8V220c-0.5,0.3-1.2,0.9-2.2,0.9c-1.8,0-1.9-1.4-1.9-2.5v-4.2h0.9v4c0,1,0,1.8,1.2,1.8
			c0.8,0,1.7-0.6,2-0.8v-5h0.9v6.5H524.6z"/>
		<path class="st17" d="M531.8,220.8v-4c0-1.1-0.1-1.8-1.3-1.8c-0.8,0-1.7,0.6-1.9,0.8v5.1h-0.9v-6.5h0.9v0.7
			c0.4-0.3,1.1-0.9,2.2-0.9c1.9,0,2,1.4,2,2.5v4.2H531.8z"/>
		<path class="st17" d="M539,220.8v-0.7c-0.4,0.4-1.1,0.8-1.7,0.8c-1.1,0-2.6-0.4-2.6-3.3c0-2.3,1.3-3.5,3-3.5c0.6,0,0.9,0,1.3,0.2
			v-2.5h0.9v9H539z M539,215.1c-0.3-0.1-0.7-0.2-1.3-0.2c-1.5,0-2.1,1.4-2.1,2.7c0,1.8,0.7,2.5,1.8,2.5c0.6,0,1.4-0.5,1.6-0.7V215.1
			z"/>
	</g>
	<g>
		<defs>
			<path id="SVGID_7_" d="M542.5,261H344.2c-1.9,0-3.4-1.5-3.4-3.4v-15.9c0-1.9,1.5-3.4,3.4-3.4h198.3c1.9,0,3.4,1.5,3.4,3.4v15.9
				C545.9,259.4,544.4,261,542.5,261z"/>
		</defs>
		<clipPath id="SVGID_8_">
			<use xlink:href="#SVGID_7_"  style="overflow:visible;"/>
		</clipPath>
		<rect x="340.7" y="238.2" class="st18" width="48.4" height="22.7"/>
		<rect x="377" y="238.2" class="st18" width="12.1" height="22.7"/>
		<rect x="393.2" y="238.2" class="st18" width="2.3" height="22.7"/>
		<rect x="405.3" y="238.2" class="st18" width="3.1" height="22.7"/>
		<rect x="406.4" y="238.2" class="st18" width="3.1" height="22.7"/>
		<rect x="407.5" y="238.2" class="st18" width="3.1" height="22.7"/>
		<rect x="411.6" y="238.2" class="st18" width="3.1" height="22.7"/>
		<rect x="415.7" y="238.2" class="st18" width="0.7" height="22.7"/>
		<rect x="418.7" y="238.2" class="st18" width="1.1" height="22.7"/>
		<rect x="424" y="238.2" class="st18" width="25.2" height="22.7"/>
		<rect x="447.9" y="238.2" class="st18" width="28.7" height="22.7"/>
		<rect x="481.9" y="238.2" class="st18" width="14.9" height="22.7"/>
		<rect x="495.2" y="238.2" class="st18" width="51.8" height="22.7"/>
		<rect x="478.1" y="238.2" class="st18" width="0.7" height="22.7"/>
		<rect x="480.5" y="238.2" class="st18" width="1" height="22.7"/>
	</g>
	<g>
		<path class="st3" d="M543.7,236.3c2.4,0,4.4,2,4.4,4.4v17.7c0,2.4-2,4.4-4.4,4.4H343c-2.4,0-4.4-2-4.4-4.4v-17.7
			c0-2.4,2-4.4,4.4-4.4H543.7 M543.7,235.3H343c-3,0-5.4,2.4-5.4,5.4v17.7c0,3,2.4,5.4,5.4,5.4h200.7c3,0,5.4-2.4,5.4-5.4v-17.7
			C549.1,237.7,546.6,235.3,543.7,235.3L543.7,235.3z"/>
	</g>
	<g>
		<path class="st3" d="M302,254.4c-2.8,0-4-1.2-4-4.2c0-2.7,1.4-4.3,3.7-4.3c1.3,0,2,0.3,2.7,0.7l-0.3,0.6c-0.7-0.4-1.4-0.6-2.4-0.6
			c-1.7,0-2.8,1.3-2.8,3.5c0,2.4,0.8,3.5,3.3,3.5c1,0,1.8-0.2,2.1-0.3l0.2,0.7C304.1,254.1,303.4,254.4,302,254.4z"/>
		<path class="st3" d="M309.6,254.3c-0.8,0-1.4,0-1.8-0.1v3.3H307V246h0.8v0.7c0.6-0.4,1.4-0.8,2.4-0.8c2.1,0,3.3,1.4,3.3,4
			C313.4,253.3,311.6,254.3,309.6,254.3z M312.5,250.3c0-1.8-0.4-3.6-2.5-3.6c-0.9,0-2,0.7-2.2,0.9v5.9c0.4,0.1,0.8,0.1,1.9,0.1
			C311.6,253.6,312.5,252.2,312.5,250.3L312.5,250.3z"/>
		<path class="st3" d="M321.5,254.2v-1c-0.7,0.4-1.6,1.2-3,1.2c-2.2,0-2.4-1.8-2.4-3.1V246h0.8v5c0,1.3,0,2.5,1.7,2.5
			c1.1,0,2.5-0.9,2.8-1.2V246h0.8v8.2H321.5z"/>
		<path class="st3" d="M324.8,254.2v-0.8c0.1-0.2,5.1-4.4,5.1-6.9c0-1.7-0.7-2.3-2.1-2.3c-1.2,0-2.1,0.6-2.3,0.7l-0.4-0.6
			c0.4-0.3,1.3-0.9,2.7-0.9c2.4,0,2.9,1.6,2.9,2.9c0,2.3-2.2,4.6-4.9,7h5.6v0.8H324.8z"/>
	</g>
	<g>
		<path class="st17" d="M429,253.4c-0.6,0-1,0-1.3-0.1v2.6h-0.9v-9.2h0.9v0.6c0.4-0.3,1.1-0.7,1.8-0.7c1.6,0,2.5,1,2.5,3.2
			C432,252.6,430.7,253.4,429,253.4z M429.3,247.4c-0.6,0-1.4,0.4-1.6,0.6v4.4c0.3,0,0.6,0.1,1.3,0.1c1.4,0,2-1.1,2-2.5
			C431.1,248.7,430.8,247.4,429.3,247.4z"/>
		<path class="st17" d="M439.6,247.9c-0.4-0.2-0.8-0.4-1.5-0.4c-0.8,0-1.4,0.5-1.8,0.9v4.1h2.4v0.8h-5v-0.8h1.7v-5h-1.7v-0.8h2.7
			v0.8c0.3-0.4,0.9-0.9,1.9-0.9c0.9,0,1.3,0.3,1.6,0.5L439.6,247.9z"/>
		<path class="st17" d="M443.8,253.4c-1.8,0-2.8-1.2-2.8-3.3c0-2.3,1.2-3.5,2.9-3.5c1.9,0,2.8,1.2,2.8,3.4
			C446.6,252.3,445.5,253.4,443.8,253.4z M443.8,247.4c-1.5,0-1.9,1.4-1.9,2.7c0,1.4,0.4,2.6,1.9,2.6c1.5,0,1.8-1.3,1.8-2.6
			C445.7,248.8,445.4,247.4,443.8,247.4z"/>
		<path class="st17" d="M451.7,253.4c-2.3,0-3.3-1-3.3-3.4c0-2.1,1.2-3.4,3.1-3.4c1,0,1.6,0.2,2.2,0.6l-0.3,0.7
			c-0.5-0.3-1.1-0.4-1.9-0.4c-1.2,0-2.1,0.9-2.1,2.6c0,1.8,0.6,2.6,2.5,2.6c0.7,0,1.3-0.1,1.7-0.2l0.2,0.8
			C453.3,253.2,452.7,253.4,451.7,253.4z"/>
		<path class="st17" d="M456.5,250.2c0.1,2.1,1.1,2.3,2.4,2.3c0.5,0,1.3-0.1,1.7-0.2l0.2,0.8c-0.3,0.1-1,0.3-2.1,0.3
			c-1.9,0-3.1-0.8-3.1-3.3c0-2.7,1.3-3.5,3-3.5c1.6,0,2.4,1.1,2.4,3.3v0.3H456.5z M458.3,247.3c-1,0-1.7,0.7-1.8,2.2h3.4
			C459.9,248.1,459.3,247.3,458.3,247.3z"/>
		<path class="st17" d="M465.1,253.4c-1,0-1.7-0.1-2.2-0.3l0.2-0.8c0.5,0.2,1.2,0.3,1.9,0.3c1,0,2-0.2,2-1c0-1.5-3.9-0.9-3.9-3.3
			c0-1.3,1.1-1.8,2.4-1.8c0.8,0,1.5,0.1,2,0.3l-0.2,0.7c-0.5-0.2-1.1-0.3-1.8-0.3c-0.8,0-1.4,0.3-1.4,0.9c0,1.6,3.9,1.1,3.9,3.3
			C467.9,253.1,466.2,253.4,465.1,253.4z"/>
		<path class="st17" d="M472.3,253.4c-1,0-1.7-0.1-2.2-0.3l0.2-0.8c0.5,0.2,1.2,0.3,1.9,0.3c1,0,2-0.2,2-1c0-1.5-3.9-0.9-3.9-3.3
			c0-1.3,1.1-1.8,2.4-1.8c0.8,0,1.5,0.1,2,0.3l-0.2,0.7c-0.5-0.2-1.1-0.3-1.8-0.3c-0.8,0-1.4,0.3-1.4,0.9c0,1.6,3.9,1.1,3.9,3.3
			C475.1,253.1,473.4,253.4,472.3,253.4z"/>
		<path class="st17" d="M489.1,253.3v-4.2c0-1,0-1.8-0.7-1.8c-0.4,0-0.8,0.5-0.9,0.7c0,0.3,0,0.6,0,0.9v4.4h-0.8v-4.4
			c0-0.8,0-1.6-0.6-1.6c-0.4,0-0.8,0.6-1,0.9v5.1h-0.9v-6.5h0.9v0.7c0.2-0.4,0.6-0.9,1.2-0.9c0.7,0,1,0.4,1.1,0.9
			c0.3-0.5,0.6-0.9,1.3-0.9c1.3,0,1.4,1.1,1.4,2.3v4.4H489.1z"/>
		<path class="st17" d="M492.5,250.2c0.1,2.1,1.1,2.3,2.4,2.3c0.5,0,1.3-0.1,1.7-0.2l0.2,0.8c-0.3,0.1-1,0.3-2.1,0.3
			c-1.9,0-3.1-0.8-3.1-3.3c0-2.7,1.3-3.5,3-3.5c1.6,0,2.4,1.1,2.4,3.3v0.3H492.5z M494.3,247.3c-1,0-1.7,0.7-1.8,2.2h3.4
			C495.9,248.1,495.3,247.3,494.3,247.3z"/>
		<path class="st17" d="M501.1,253.4c-1,0-1.7-0.1-2.2-0.3l0.2-0.8c0.5,0.2,1.2,0.3,1.9,0.3c1,0,2-0.2,2-1c0-1.5-3.9-0.9-3.9-3.3
			c0-1.3,1.1-1.8,2.4-1.8c0.8,0,1.5,0.1,2,0.3l-0.2,0.7c-0.5-0.2-1.1-0.3-1.8-0.3c-0.8,0-1.4,0.3-1.4,0.9c0,1.6,3.9,1.1,3.9,3.3
			C503.9,253.1,502.2,253.4,501.1,253.4z"/>
		<path class="st17" d="M508.3,253.4c-1,0-1.7-0.1-2.2-0.3l0.2-0.8c0.5,0.2,1.2,0.3,1.9,0.3c1,0,2-0.2,2-1c0-1.5-3.9-0.9-3.9-3.3
			c0-1.3,1.1-1.8,2.4-1.8c0.8,0,1.5,0.1,2,0.3l-0.2,0.7c-0.5-0.2-1.1-0.3-1.8-0.3c-0.8,0-1.4,0.3-1.4,0.9c0,1.6,3.9,1.1,3.9,3.3
			C511.1,253.1,509.4,253.4,508.3,253.4z"/>
		<path class="st17" d="M518.5,253.4c-0.6,0-1.3-0.2-1.4-0.8c-0.3,0.2-0.9,0.9-2.2,0.9c-1.2,0-1.8-0.6-1.8-1.8c0-1.6,1.4-1.9,2.5-2
			l1.5,0v-0.9c0-1-0.5-1.2-1.7-1.2c-0.6,0-1.3,0.2-1.5,0.3l-0.2-0.7c0.2-0.1,1.1-0.4,2-0.4c1.3,0,2.3,0.4,2.3,1.7v3.7
			c0,0.5,0.3,0.6,0.6,0.6L518.5,253.4z M517,250.2l-1.5,0.1c-1.1,0-1.6,0.6-1.6,1.2c0,0.9,0.4,1.1,1.2,1.1c0.8,0,1.8-0.6,1.9-0.7
			V250.2z"/>
		<path class="st17" d="M522.9,256c-1,0-1.8-0.2-2.1-0.2l0.2-0.8c0.3,0.1,1.2,0.2,1.7,0.2c1.1,0,2-0.2,2-1.7v-0.7
			c-0.4,0.4-0.9,0.6-1.6,0.6c-1.3,0-2.7-0.4-2.7-3.3c0-2.3,1.3-3.4,3-3.4c0.8,0,1.5,0.1,2.2,0.2v6.9
			C525.6,255.3,524.4,256,522.9,256z M524.6,247.5c-0.3-0.1-0.7-0.1-1.3-0.1c-1.6,0-2.1,1.2-2.1,2.7c0,1.8,0.6,2.5,1.9,2.5
			c0.6,0,1.2-0.4,1.4-0.6V247.5z"/>
		<path class="st17" d="M528.5,250.2c0.1,2.1,1.1,2.3,2.4,2.3c0.5,0,1.3-0.1,1.7-0.2l0.2,0.8c-0.3,0.1-1,0.3-2.1,0.3
			c-1.9,0-3.1-0.8-3.1-3.3c0-2.7,1.3-3.5,3-3.5c1.6,0,2.4,1.1,2.4,3.3v0.3H528.5z M530.3,247.3c-1,0-1.7,0.7-1.8,2.2h3.4
			C531.9,248.1,531.3,247.3,530.3,247.3z"/>
		<path class="st17" d="M537.1,253.4c-1,0-1.7-0.1-2.2-0.3l0.2-0.8c0.5,0.2,1.2,0.3,1.9,0.3c1,0,2-0.2,2-1c0-1.5-3.9-0.9-3.9-3.3
			c0-1.3,1.1-1.8,2.4-1.8c0.8,0,1.5,0.1,2,0.3l-0.2,0.7c-0.5-0.2-1.1-0.3-1.8-0.3c-0.8,0-1.4,0.3-1.4,0.9c0,1.6,3.9,1.1,3.9,3.3
			C539.9,253.1,538.2,253.4,537.1,253.4z"/>
	</g>
</g>
<g>
	<path class="st3" d="M19.4,20.1c-3.5,0-3.9-2.4-3.9-6.2c0-4,0.6-6.2,4.2-6.2c3.3,0,3.9,2.5,3.9,6.2C23.6,17.8,23,20.1,19.4,20.1z
		 M19.5,9.5c-1.7,0-1.8,1.6-1.8,4.3c0,3,0.2,4.4,1.7,4.4c1.7,0,1.9-1.4,1.9-4.4C21.3,11,21.1,9.5,19.5,9.5z"/>
	<path class="st3" d="M31.3,20.1c-1.8,0-3.9,0-3.9-2.9v-4.9h-2v-1.7h2V8.7h2.2v1.9h4v1.7h-4v4.8c0,0.9,0.6,1.1,1.6,1.1
		c0.8,0,2.1-0.2,2.4-0.3l0.3,1.8C33.2,19.9,32.1,20.1,31.3,20.1z"/>
	<path class="st3" d="M41.5,19.9v-5.6c0-1.4-0.1-1.9-1.3-1.9c-0.9,0-1.5,0.5-1.9,0.7v6.8h-2.3V7.1h2.3v4.5c0.5-0.5,1.3-1.2,2.6-1.2
		c2.9,0,2.8,1.7,2.8,3.6v5.9H41.5z"/>
	<path class="st3" d="M48.5,16.1c0.1,1.9,1.1,2.1,2.5,2.1c0.6,0,1.9-0.1,2.7-0.3l0.3,1.8c-0.8,0.3-2,0.4-3.2,0.4
		c-2.7,0-4.5-1-4.5-4.6c0-3.8,1.6-5,4.2-5c2.7,0,3.5,2,3.5,4.9v0.8H48.5z M50.2,12.1c-1,0-1.6,0.7-1.7,2.4h3.1
		C51.7,12.9,51.2,12.1,50.2,12.1z"/>
	<path class="st3" d="M64.5,12.7c-0.5-0.2-0.9-0.3-1.6-0.3c-1,0-1.8,0.5-2.2,1v4.7h3.2v1.8h-7.7v-1.8h2.2v-5.7h-2.2v-1.7h4.5v1.2
		c0.5-0.6,1.2-1.4,2.7-1.4c0.8,0,1.2,0.2,1.5,0.3L64.5,12.7z"/>
	<path class="st3" d="M70,20c-1.4,0-2.4-0.1-3.3-0.4l0.3-1.8c1,0.2,2,0.3,2.8,0.3c1.4,0,2.3-0.2,2.3-0.9c0-1.5-5.2-0.6-5.2-4.1
		c0-1.9,2-2.8,3.9-2.8c1.1,0,2.1,0.2,3,0.5l-0.4,1.7c-0.8-0.2-1.6-0.3-2.6-0.3c-1.1,0-1.7,0.3-1.7,0.9c0,1.6,5.2,0.9,5.2,4.1
		C74.3,19.5,71.5,20,70,20z"/>
	<path class="st3" d="M79.4,12.9v-2.3H82v2.3H79.4z M79.4,19.9v-2.3H82v2.3H79.4z"/>
	<path class="st3" d="M15.6,34.3v-8.5h4.7v0.6h-4v3.3H20v0.6h-3.7v3.3h4.2v0.6H15.6z"/>
	<path class="st3" d="M25.6,34.3h-1L22,27.7h0.7l2.1,5.3l0.3,0.8h0l0.3-0.8l2.3-5.3h0.7L25.6,34.3z"/>
	<path class="st3" d="M30.4,31.1c0,2.4,1.2,2.7,2.7,2.7c0.5,0,1.3-0.1,1.5-0.2l0.1,0.6c-0.2,0.1-0.8,0.3-2,0.3
		c-1.8,0-3.1-0.8-3.1-3.3c0-2.6,1.4-3.5,2.9-3.5c1.5,0,2.4,1,2.4,3.2v0.2H30.4z M32.6,28.1c-1.1,0-2,0.8-2.1,2.4h3.9
		C34.3,29.1,33.7,28.1,32.6,28.1z"/>
	<path class="st3" d="M42.6,28.7c-0.4-0.2-0.9-0.5-1.6-0.5c-0.9,0-1.5,0.6-1.8,1.1v4.4h2.4v0.6h-4.9v-0.6h1.8v-5.3h-1.8v-0.6h2.5
		v0.8c0.3-0.4,0.9-0.9,1.9-0.9c1.1,0,1.6,0.4,1.9,0.6L42.6,28.7z"/>
	<path class="st3" d="M46,36.9h-0.6l1.1-2.6h-0.3l-2.6-6.5h0.7l2.3,6.2h0l2.6-6.2H50L46,36.9z"/>
	<path class="st3" d="M54.7,34.4c-1.2,0-2.1-0.2-2.1-1.8v-4.3H51v-0.6h1.6v-1.3h0.6v1.3h3.7v0.6h-3.7v4.1c0,1,0.4,1.3,1.5,1.3
		c0.8,0,1.5-0.2,2.2-0.4l0.2,0.5C56.4,34.1,55.6,34.4,54.7,34.4z"/>
	<path class="st3" d="M63.1,34.3v-4.1c0-1.2-0.1-2-1.5-2c-0.8,0-1.9,0.7-2.2,0.9v5.2h-0.7v-9h0.7v3.3c0.5-0.3,1.2-0.9,2.3-0.9
		c1.9,0,2,1.4,2,2.4v4.3H63.1z"/>
	<path class="st3" d="M65.9,34.3v-0.6h2.5v-5.3h-2.3v-0.6h2.9v5.9h2.5v0.6H65.9z M68.7,26.4l-0.6-0.7l0.6-0.6l0.7,0.6L68.7,26.4z"/>
	<path class="st3" d="M77.5,34.3v-4.1c0-1.2-0.1-2-1.5-2c-0.9,0-1.9,0.7-2.2,0.9v5.2h-0.7v-6.5h0.7v0.8c0.5-0.3,1.2-0.9,2.3-0.9
		c1.9,0,2,1.4,2,2.4v4.3H77.5z"/>
	<path class="st3" d="M82.7,37c-0.9,0-1.8-0.2-2-0.2l0.1-0.6c0.1,0,1.1,0.2,1.6,0.2c1.2,0,2.2-0.2,2.2-1.8v-0.8
		c-0.4,0.4-1,0.6-1.7,0.6c-1.3,0-2.8-0.4-2.8-3.3c0-2.4,1.3-3.4,3-3.4c0.8,0,1.6,0.1,2.2,0.2v7C85.3,36.3,84.3,37,82.7,37z
		 M84.7,28.3c-0.3-0.1-0.8-0.2-1.5-0.2c-1.7,0-2.3,1.3-2.3,2.9c0,1.9,0.7,2.7,2.2,2.7c0.8,0,1.4-0.5,1.7-0.7L84.7,28.3z"/>
	<path class="st3" d="M94.7,34.3v-0.6h2.5v-5.3H95v-0.6h2.9v5.9h2.5v0.6H94.7z M97.5,26.4l-0.6-0.7l0.6-0.6l0.7,0.6L97.5,26.4z"/>
	<path class="st3" d="M104.1,34.4c-1,0-1.7-0.2-2.2-0.4l0.2-0.6c0.5,0.2,1.1,0.4,1.9,0.4c1,0,2.1-0.2,2.1-1.1c0-1.6-4-1.1-4-3.4
		c0-1.2,1-1.7,2.2-1.7c0.8,0,1.4,0.1,2,0.3l-0.2,0.5c-0.5-0.2-1.1-0.3-1.8-0.3c-0.9,0-1.5,0.3-1.5,1.1c0,1.8,4,1.3,4,3.4
		C106.8,34.1,105.2,34.4,104.1,34.4z"/>
	<path class="st3" d="M118.5,34.4c-1,0-1.7-0.2-2.2-0.4l0.2-0.6c0.5,0.2,1.1,0.4,1.9,0.4c1,0,2.1-0.2,2.1-1.1c0-1.6-4-1.1-4-3.4
		c0-1.2,1-1.7,2.2-1.7c0.8,0,1.4,0.1,2,0.3l-0.2,0.5c-0.5-0.2-1.1-0.3-1.8-0.3c-0.9,0-1.5,0.3-1.5,1.1c0,1.8,4,1.3,4,3.4
		C121.2,34.1,119.6,34.4,118.5,34.4z"/>
	<path class="st3" d="M124,31.1c0,2.4,1.2,2.7,2.7,2.7c0.5,0,1.3-0.1,1.5-0.2l0.1,0.6c-0.2,0.1-0.8,0.3-2,0.3
		c-1.8,0-3.1-0.8-3.1-3.3c0-2.6,1.4-3.5,2.9-3.5c1.5,0,2.4,1,2.4,3.2v0.2H124z M126.2,28.1c-1.1,0-2,0.8-2.1,2.4h3.9
		C127.9,29.1,127.3,28.1,126.2,28.1z"/>
	<path class="st3" d="M136.2,28.7c-0.4-0.2-0.9-0.5-1.6-0.5c-0.9,0-1.5,0.6-1.8,1.1v4.4h2.4v0.6h-4.9v-0.6h1.8v-5.3h-1.8v-0.6h2.5
		v0.8c0.3-0.4,0.9-0.9,1.9-0.9c1.1,0,1.6,0.4,1.9,0.6L136.2,28.7z"/>
	<path class="st3" d="M137.9,34.3v-0.6h2.5v-5.3h-2.3v-0.6h2.9v5.9h2.5v0.6H137.9z M140.7,26.4l-0.6-0.7l0.6-0.6l0.7,0.6L140.7,26.4
		z"/>
	<path class="st3" d="M150.2,34.4c-0.5,0-1.1-0.2-1.2-0.9c-0.2,0.2-1,0.9-2.4,0.9c-1.1,0-1.8-0.6-1.8-1.8c0-1.6,1.4-1.9,2.4-2l1.7,0
		v-1c0-1.2-0.6-1.4-1.8-1.4c-0.6,0-1.3,0.2-1.5,0.3l-0.1-0.6c0.2-0.1,1-0.3,1.9-0.3c1.3,0,2.2,0.4,2.2,1.7v3.8
		c0,0.6,0.4,0.7,0.6,0.7L150.2,34.4z M149,31.1l-1.7,0.1c-1.1,0-1.7,0.6-1.7,1.3c0,1,0.5,1.3,1.3,1.3c0.9,0,2.1-0.8,2.1-0.9V31.1z"
		/>
	<path class="st3" d="M152,34.3v-0.6h2.5v-7.9h-2.3v-0.6h2.9v8.4h2.5v0.6H152z"/>
</g>
<g>
	<path class="st3" d="M303.4,19.9l-2-4.4c-0.1,0-0.4,0-0.5,0H300v4.3h-2.3v-12h4c2.5,0,3.9,1.5,3.9,3.8c0,1.4-0.6,2.7-2.1,3.4
		l2.4,4.9H303.4z M301.2,9.7H300v4h0.9c1.5,0,2.3-0.7,2.3-2C303.2,10.5,302.7,9.7,301.2,9.7z"/>
	<path class="st3" d="M311.1,16.1h-0.8v3.8H308v-12h4c2.6,0,3.9,1.5,3.9,4.1C315.9,14.2,314.6,16.1,311.1,16.1z M311.5,9.7h-1.2v4.6
		h0.9c1.8,0,2.3-0.9,2.3-2.3C313.5,10.6,313.2,9.7,311.5,9.7z"/>
	<path class="st3" d="M318.2,19.9v-1.8h2.9v-5.7h-2.7v-1.7h5v7.4h2.8v1.8H318.2z M322.3,9.4l-1.6-1.7l1.6-1.6l1.6,1.6L322.3,9.4z"/>
	<path class="st3" d="M328,19.9v-1.8h3V8.8h-2.8V7.1h5.1v11h3v1.8H328z"/>
	<path class="st3" d="M342.2,20.1c-2.9,0-4-1.8-4-4.7c0-3.1,1.4-4.9,4.1-4.9c3.1,0,3.9,1.8,3.9,4.9
		C346.3,18.4,344.9,20.1,342.2,20.1z M342.3,12.2c-1.6,0-1.8,1.5-1.8,3.1c0,1.7,0.3,3,1.8,3c1.5,0,1.6-1.3,1.6-3
		C344,13.7,343.9,12.2,342.3,12.2z"/>
	<path class="st3" d="M354.1,20.1c-1.8,0-3.9,0-3.9-2.9v-4.9h-2v-1.7h2V8.7h2.2v1.9h4v1.7h-4v4.8c0,0.9,0.6,1.1,1.6,1.1
		c0.8,0,2.1-0.2,2.4-0.3l0.3,1.8C356,19.9,354.9,20.1,354.1,20.1z"/>
	<path class="st3" d="M361.4,12.9v-2.3h2.6v2.3H361.4z M361.4,19.9v-2.3h2.6v2.3H361.4z"/>
	<path class="st3" d="M300,34.4c-1.6,0-2.8-0.6-2.8-3v-5.7h0.7v5.6c0,2,0.9,2.4,2.1,2.4c1.3,0,2.1-0.5,2.1-2.7v-5.3h0.7v5.3
		C302.8,33.8,301.4,34.4,300,34.4z"/>
	<path class="st3" d="M306.9,34.4c-1,0-1.7-0.2-2.2-0.4l0.2-0.6c0.5,0.2,1.1,0.4,1.9,0.4c1,0,2.1-0.2,2.1-1.1c0-1.6-4-1.1-4-3.4
		c0-1.2,1-1.7,2.2-1.7c0.8,0,1.4,0.1,2,0.3l-0.2,0.5c-0.5-0.2-1.1-0.3-1.8-0.3c-0.9,0-1.5,0.3-1.5,1.1c0,1.8,4,1.3,4,3.4
		C309.6,34.1,308,34.4,306.9,34.4z"/>
	<path class="st3" d="M312.4,31.1c0,2.4,1.2,2.7,2.7,2.7c0.5,0,1.3-0.1,1.5-0.2l0.1,0.6c-0.2,0.1-0.8,0.3-2,0.3
		c-1.8,0-3.1-0.8-3.1-3.3c0-2.6,1.4-3.5,2.9-3.5c1.5,0,2.4,1,2.4,3.2v0.2H312.4z M314.6,28.1c-1.1,0-2,0.8-2.1,2.4h3.9
		C316.3,29.1,315.7,28.1,314.6,28.1z"/>
	<path class="st3" d="M331,34.3v-4.1c0-1.1,0-2-0.8-2c-0.5,0-0.9,0.6-1.1,0.9c0,0.3,0,0.6,0,0.9v4.3h-0.6V30c0-0.9,0-1.8-0.7-1.8
		c-0.5,0-1,0.8-1.2,1.1v5h-0.7v-6.5h0.7v0.8c0.2-0.4,0.6-0.9,1.2-0.9c0.7,0,1,0.4,1.1,0.9c0.3-0.5,0.6-0.9,1.3-0.9
		c1.4,0,1.4,1.3,1.4,2.4v4.3H331z"/>
	<path class="st3" d="M337.8,34.3v-0.8c-0.5,0.3-1.3,0.9-2.4,0.9c-1.8,0-1.9-1.5-1.9-2.5v-4.2h0.7v4c0,1.1,0,2,1.4,2
		c0.9,0,2-0.7,2.3-0.9v-5.1h0.6v6.5H337.8z"/>
	<path class="st3" d="M340.4,34.3v-0.6h2.5v-7.9h-2.3v-0.6h2.9v8.4h2.5v0.6H340.4z"/>
	<path class="st3" d="M351.1,34.4c-1.2,0-2.1-0.2-2.1-1.8v-4.3h-1.6v-0.6h1.6v-1.3h0.6v1.3h3.7v0.6h-3.7v4.1c0,1,0.4,1.3,1.5,1.3
		c0.8,0,1.5-0.2,2.2-0.4l0.2,0.5C352.8,34.1,352,34.4,351.1,34.4z"/>
	<path class="st3" d="M355.1,34.3v-0.6h2.5v-5.3h-2.3v-0.6h2.9v5.9h2.5v0.6H355.1z M357.9,26.4l-0.6-0.7l0.6-0.6l0.7,0.6L357.9,26.4
		z"/>
	<path class="st3" d="M364.4,34.4c-0.6,0-1.1,0-1.5-0.1v2.6h-0.7v-9.2h0.7v0.6c0.5-0.3,1.2-0.6,1.9-0.6c1.7,0,2.6,1.1,2.6,3.2
		C367.4,33.6,365.9,34.4,364.4,34.4z M366.7,31.1c0-1.4-0.3-2.9-2-2.9c-0.7,0-1.6,0.5-1.8,0.7v4.7c0.3,0,0.6,0.1,1.5,0.1
		C365.9,33.8,366.7,32.7,366.7,31.1L366.7,31.1z"/>
	<path class="st3" d="M369.2,34.3v-0.6h2.5v-7.9h-2.3v-0.6h2.9v8.4h2.5v0.6H369.2z"/>
	<path class="st3" d="M377.2,31.1c0,2.4,1.2,2.7,2.7,2.7c0.5,0,1.3-0.1,1.5-0.2l0.1,0.6c-0.2,0.1-0.8,0.3-2,0.3
		c-1.8,0-3.1-0.8-3.1-3.3c0-2.6,1.4-3.5,2.9-3.5c1.5,0,2.4,1,2.4,3.2v0.2H377.2z M379.4,28.1c-1.1,0-2,0.8-2.1,2.4h3.9
		C381.1,29.1,380.5,28.1,379.4,28.1z"/>
	<path class="st3" d="M394.3,34.4c-1.2,0-2.1-0.2-2.1-1.8v-4.3h-1.6v-0.6h1.6v-1.3h0.6v1.3h3.7v0.6h-3.7v4.1c0,1,0.4,1.3,1.5,1.3
		c0.8,0,1.5-0.2,2.2-0.4l0.2,0.5C396,34.1,395.2,34.4,394.3,34.4z"/>
	<path class="st3" d="M402.7,34.3v-4.1c0-1.2-0.1-2-1.5-2c-0.8,0-1.9,0.7-2.2,0.9v5.2h-0.7v-9h0.7v3.3c0.5-0.3,1.2-0.9,2.3-0.9
		c1.9,0,2,1.4,2,2.4v4.3H402.7z"/>
	<path class="st3" d="M411,28.7c-0.4-0.2-0.9-0.5-1.6-0.5c-0.9,0-1.5,0.6-1.8,1.1v4.4h2.4v0.6h-4.9v-0.6h1.8v-5.3h-1.8v-0.6h2.5v0.8
		c0.3-0.4,0.9-0.9,1.9-0.9c1.1,0,1.6,0.4,1.9,0.6L411,28.7z"/>
	<path class="st3" d="M413.2,31.1c0,2.4,1.2,2.7,2.7,2.7c0.5,0,1.3-0.1,1.5-0.2l0.1,0.6c-0.2,0.1-0.8,0.3-2,0.3
		c-1.8,0-3.1-0.8-3.1-3.3c0-2.6,1.4-3.5,2.9-3.5c1.5,0,2.4,1,2.4,3.2v0.2H413.2z M415.3,28.1c-1.1,0-2,0.8-2.1,2.4h3.9
		C417.1,29.1,416.5,28.1,415.3,28.1z"/>
	<path class="st3" d="M425,34.4c-0.5,0-1.1-0.2-1.2-0.9c-0.2,0.2-1,0.9-2.4,0.9c-1.1,0-1.8-0.6-1.8-1.8c0-1.6,1.4-1.9,2.4-2l1.7,0
		v-1c0-1.2-0.6-1.4-1.8-1.4c-0.6,0-1.3,0.2-1.5,0.3l-0.1-0.6c0.2-0.1,1-0.3,1.9-0.3c1.3,0,2.2,0.4,2.2,1.7v3.8
		c0,0.6,0.4,0.7,0.6,0.7L425,34.4z M423.8,31.1l-1.7,0.1c-1.1,0-1.7,0.6-1.7,1.3c0,1,0.5,1.3,1.3,1.3c0.9,0,2.1-0.8,2.1-0.9V31.1z"
		/>
	<path class="st3" d="M431.5,34.3v-0.7c-0.4,0.4-1.2,0.8-1.8,0.8c-1.1,0-2.7-0.4-2.7-3.3c0-2.3,1.4-3.5,3-3.5c0.7,0,1,0,1.5,0.2
		v-2.5h0.7v9H431.5z M431.5,28.4c-0.3-0.1-0.8-0.2-1.5-0.2c-1.7,0-2.3,1.5-2.3,3c0,1.9,0.8,2.7,2,2.7c0.7,0,1.6-0.6,1.8-0.8V28.4z"
		/>
	<path class="st3" d="M436.5,34.4c-1,0-1.7-0.2-2.2-0.4l0.2-0.6c0.5,0.2,1.1,0.4,1.9,0.4c1,0,2.1-0.2,2.1-1.1c0-1.6-4-1.1-4-3.4
		c0-1.2,1-1.7,2.2-1.7c0.8,0,1.4,0.1,2,0.3l-0.2,0.5c-0.5-0.2-1.1-0.3-1.8-0.3c-0.9,0-1.5,0.3-1.5,1.1c0,1.8,4,1.3,4,3.4
		C439.2,34.1,437.6,34.4,436.5,34.4z"/>
	<path class="st3" d="M444,35.9h-0.6c0.2-0.3,0.5-1.1,0.5-1.7v-1.5h0.8v0.8C444.7,35,444.2,35.6,444,35.9z"/>
	<path class="st3" d="M458,34.4c-0.6,0-1.1,0-1.5-0.1v2.6h-0.7v-9.2h0.7v0.6c0.5-0.3,1.2-0.6,1.9-0.6c1.7,0,2.6,1.1,2.6,3.2
		C461,33.6,459.5,34.4,458,34.4z M460.3,31.1c0-1.4-0.3-2.9-2-2.9c-0.7,0-1.6,0.5-1.8,0.7v4.7c0.3,0,0.6,0.1,1.5,0.1
		C459.5,33.8,460.3,32.7,460.3,31.1L460.3,31.1z"/>
	<path class="st3" d="M468.6,28.7c-0.4-0.2-0.9-0.5-1.6-0.5c-0.9,0-1.5,0.6-1.8,1.1v4.4h2.4v0.6h-4.9v-0.6h1.8v-5.3h-1.8v-0.6h2.5
		v0.8c0.3-0.4,0.9-0.9,1.9-0.9c1.1,0,1.6,0.4,1.9,0.6L468.6,28.7z"/>
	<path class="st3" d="M472.8,34.4c-1.7,0-2.8-1.1-2.8-3.3c0-2.3,1.2-3.5,2.9-3.5c1.8,0,2.8,1.2,2.8,3.4
		C475.6,33.3,474.4,34.4,472.8,34.4z M475,31c0-1.2-0.4-2.9-2.1-2.9c-1.7,0-2.2,1.6-2.2,2.9c0,1.4,0.5,2.8,2.2,2.8
		C474.5,33.8,474.9,32.4,475,31L475,31z"/>
	<path class="st3" d="M480.7,34.4c-2.2,0-3.2-1-3.2-3.4c0-2.1,1.2-3.4,2.9-3.4c1,0,1.6,0.3,2.2,0.6l-0.3,0.5c-0.5-0.3-1.1-0.5-2-0.5
		c-1.4,0-2.2,1.1-2.2,2.8c0,1.9,0.6,2.8,2.6,2.8c0.8,0,1.4-0.2,1.7-0.3l0.2,0.6C482.3,34.2,481.7,34.4,480.7,34.4z"/>
	<path class="st3" d="M485.2,31.1c0,2.4,1.2,2.7,2.7,2.7c0.5,0,1.3-0.1,1.5-0.2l0.1,0.6c-0.2,0.1-0.8,0.3-2,0.3
		c-1.8,0-3.1-0.8-3.1-3.3c0-2.6,1.4-3.5,2.9-3.5c1.5,0,2.4,1,2.4,3.2v0.2H485.2z M487.3,28.1c-1.1,0-2,0.8-2.1,2.4h3.9
		C489.1,29.1,488.5,28.1,487.3,28.1z"/>
	<path class="st3" d="M494.1,34.4c-1,0-1.7-0.2-2.2-0.4l0.2-0.6c0.5,0.2,1.1,0.4,1.9,0.4c1,0,2.1-0.2,2.1-1.1c0-1.6-4-1.1-4-3.4
		c0-1.2,1-1.7,2.2-1.7c0.8,0,1.4,0.1,2,0.3l-0.2,0.5c-0.5-0.2-1.1-0.3-1.8-0.3c-0.9,0-1.5,0.3-1.5,1.1c0,1.8,4,1.3,4,3.4
		C496.8,34.1,495.2,34.4,494.1,34.4z"/>
	<path class="st3" d="M501.3,34.4c-1,0-1.7-0.2-2.2-0.4l0.2-0.6c0.5,0.2,1.1,0.4,1.9,0.4c1,0,2.1-0.2,2.1-1.1c0-1.6-4-1.1-4-3.4
		c0-1.2,1-1.7,2.2-1.7c0.8,0,1.4,0.1,2,0.3l-0.2,0.5c-0.5-0.2-1.1-0.3-1.8-0.3c-0.9,0-1.5,0.3-1.5,1.1c0,1.8,4,1.3,4,3.4
		C504,34.1,502.4,34.4,501.3,34.4z"/>
	<path class="st3" d="M506.8,31.1c0,2.4,1.2,2.7,2.7,2.7c0.5,0,1.3-0.1,1.5-0.2l0.1,0.6c-0.2,0.1-0.8,0.3-2,0.3
		c-1.8,0-3.1-0.8-3.1-3.3c0-2.6,1.4-3.5,2.9-3.5c1.5,0,2.4,1,2.4,3.2v0.2H506.8z M508.9,28.1c-1.1,0-2,0.8-2.1,2.4h3.9
		C510.7,29.1,510.1,28.1,508.9,28.1z"/>
	<path class="st3" d="M515.7,34.4c-1,0-1.7-0.2-2.2-0.4l0.2-0.6c0.5,0.2,1.1,0.4,1.9,0.4c1,0,2.1-0.2,2.1-1.1c0-1.6-4-1.1-4-3.4
		c0-1.2,1-1.7,2.2-1.7c0.8,0,1.4,0.1,2,0.3l-0.2,0.5c-0.5-0.2-1.1-0.3-1.8-0.3c-0.9,0-1.5,0.3-1.5,1.1c0,1.8,4,1.3,4,3.4
		C518.4,34.1,516.8,34.4,515.7,34.4z"/>
	<path class="st3" d="M523.2,35.9h-0.6c0.2-0.3,0.5-1.1,0.5-1.7v-1.5h0.8v0.8C523.9,35,523.4,35.6,523.2,35.9z"/>
	<path class="st3" d="M302.6,48.8c-0.5,0-1.1-0.2-1.2-0.9c-0.2,0.2-1,0.9-2.4,0.9c-1.1,0-1.8-0.6-1.8-1.8c0-1.6,1.4-1.9,2.4-2l1.7,0
		v-1c0-1.2-0.6-1.4-1.8-1.4c-0.6,0-1.3,0.2-1.5,0.3l-0.1-0.6c0.2-0.1,1-0.3,1.9-0.3c1.3,0,2.2,0.4,2.2,1.7v3.8
		c0,0.6,0.4,0.7,0.6,0.7L302.6,48.8z M301.4,45.5l-1.7,0.1c-1.1,0-1.7,0.6-1.7,1.3c0,1,0.5,1.3,1.3,1.3c0.9,0,2.1-0.8,2.1-0.9V45.5z
		"/>
	<path class="st3" d="M309.1,48.7v-4.1c0-1.2-0.1-2-1.5-2c-0.9,0-1.9,0.7-2.2,0.9v5.2h-0.7v-6.5h0.7v0.8c0.5-0.3,1.2-0.9,2.3-0.9
		c1.9,0,2,1.4,2,2.4v4.3H309.1z"/>
	<path class="st3" d="M316.3,48.7V48c-0.4,0.4-1.2,0.8-1.8,0.8c-1.1,0-2.7-0.4-2.7-3.3c0-2.3,1.4-3.5,3-3.5c0.7,0,1,0,1.5,0.2v-2.5
		h0.7v9H316.3z M316.3,42.8c-0.3-0.1-0.8-0.2-1.5-0.2c-1.7,0-2.3,1.5-2.3,3c0,1.9,0.8,2.7,2,2.7c0.7,0,1.6-0.6,1.8-0.8V42.8z"/>
	<path class="st3" d="M329.5,48.8c-2.2,0-3.2-1-3.2-3.4c0-2.1,1.2-3.4,2.9-3.4c1,0,1.6,0.3,2.2,0.6l-0.3,0.5c-0.5-0.3-1.1-0.5-2-0.5
		c-1.4,0-2.2,1.1-2.2,2.8c0,1.9,0.6,2.8,2.6,2.8c0.8,0,1.4-0.2,1.7-0.3l0.2,0.6C331.1,48.6,330.5,48.8,329.5,48.8z"/>
	<path class="st3" d="M336,48.8c-1.7,0-2.8-1.1-2.8-3.3c0-2.3,1.2-3.5,2.9-3.5c1.8,0,2.8,1.2,2.8,3.4
		C338.8,47.7,337.6,48.8,336,48.8z M338.2,45.4c0-1.2-0.4-2.9-2.1-2.9c-1.7,0-2.2,1.6-2.2,2.9c0,1.4,0.5,2.8,2.2,2.8
		C337.7,48.2,338.2,46.8,338.2,45.4L338.2,45.4z"/>
	<path class="st3" d="M345.4,48.7v-4.1c0-1.1,0-2-0.8-2c-0.5,0-0.9,0.6-1.1,0.9c0,0.3,0,0.6,0,0.9v4.3h-0.6v-4.3
		c0-0.9,0-1.8-0.7-1.8c-0.5,0-1,0.8-1.2,1.1v5h-0.7v-6.5h0.7v0.8c0.2-0.4,0.6-0.9,1.2-0.9c0.7,0,1,0.4,1.1,0.9
		c0.3-0.5,0.6-0.9,1.3-0.9c1.4,0,1.4,1.3,1.4,2.4v4.3H345.4z"/>
	<path class="st3" d="M350,48.8c-0.6,0-1.1,0-1.5-0.1v2.6h-0.7v-9.2h0.7v0.6c0.5-0.3,1.2-0.6,1.9-0.6c1.7,0,2.6,1.1,2.6,3.2
		C353,48,351.5,48.8,350,48.8z M352.3,45.5c0-1.4-0.3-2.9-2-2.9c-0.7,0-1.6,0.5-1.8,0.7v4.7c0.3,0,0.6,0.1,1.5,0.1
		C351.5,48.2,352.3,47.1,352.3,45.5L352.3,45.5z"/>
	<path class="st3" d="M359.4,48.7v-0.8c-0.5,0.3-1.3,0.9-2.4,0.9c-1.8,0-1.9-1.5-1.9-2.5v-4.2h0.7v4c0,1.1,0,2,1.4,2
		c0.9,0,2-0.7,2.3-0.9v-5.1h0.6v6.5H359.4z"/>
	<path class="st3" d="M365.5,48.8c-1.2,0-2.1-0.2-2.1-1.8v-4.3h-1.6v-0.6h1.6v-1.3h0.6v1.3h3.7v0.6H364v4.1c0,1,0.4,1.3,1.5,1.3
		c0.8,0,1.5-0.2,2.2-0.4l0.2,0.5C367.2,48.5,366.4,48.8,365.5,48.8z"/>
	<path class="st3" d="M370,45.5c0,2.4,1.2,2.7,2.7,2.7c0.5,0,1.3-0.1,1.5-0.2l0.1,0.6c-0.2,0.1-0.8,0.3-2,0.3
		c-1.8,0-3.1-0.8-3.1-3.3c0-2.6,1.4-3.5,2.9-3.5c1.5,0,2.4,1,2.4,3.2v0.2H370z M372.2,42.5c-1.1,0-2,0.8-2.1,2.4h3.9
		C373.9,43.5,373.3,42.5,372.2,42.5z"/>
	<path class="st3" d="M382.2,43.1c-0.4-0.2-0.9-0.5-1.6-0.5c-0.9,0-1.5,0.6-1.8,1.1v4.4h2.4v0.6h-4.9v-0.6h1.8v-5.3h-1.8v-0.6h2.5
		V43c0.3-0.4,0.9-0.9,1.9-0.9c1.1,0,1.6,0.4,1.9,0.6L382.2,43.1z"/>
	<path class="st3" d="M386.1,48.8c-1,0-1.7-0.2-2.2-0.4l0.2-0.6c0.5,0.2,1.1,0.4,1.9,0.4c1,0,2.1-0.2,2.1-1.1c0-1.6-4-1.1-4-3.4
		c0-1.2,1-1.7,2.2-1.7c0.8,0,1.4,0.1,2,0.3l-0.2,0.5c-0.5-0.2-1.1-0.3-1.8-0.3c-0.9,0-1.5,0.3-1.5,1.1c0,1.8,4,1.3,4,3.4
		C388.8,48.5,387.2,48.8,386.1,48.8z"/>
</g>
</svg>
