<?xml version="1.0" encoding="utf-8"?>
<!-- Generator: Adobe Illustrator 21.1.0, SVG Export Plug-In . SVG Version: 6.00 Build 0)  -->
<svg version="1.1" id="Layer_1" xmlns="http://www.w3.org/2000/svg" xmlns:xlink="http://www.w3.org/1999/xlink" x="0px" y="0px"
	 viewBox="0 0 576 284" style="enable-background:new 0 0 576 284;" xml:space="preserve">
<style type="text/css">
	.st0{clip-path:url(#SVGID_2_);fill:#40D375;}
	.st1{clip-path:url(#SVGID_4_);fill:#187CD6;}
	.st2{clip-path:url(#SVGID_6_);fill:#FF0000;}
	.st3{clip-path:url(#SVGID_8_);fill:#9102D3;}
	.st4{clip-path:url(#SVGID_10_);fill:#FF0000;}
	.st5{clip-path:url(#SVGID_12_);fill:#FF0000;}
	.st6{clip-path:url(#SVGID_14_);fill:#FF0000;}
	.st7{clip-path:url(#SVGID_16_);fill:#FF0000;}
	.st8{clip-path:url(#SVGID_18_);fill:#FF0000;}
	.st9{clip-path:url(#SVGID_20_);fill:#FF0000;}
	.st10{clip-path:url(#SVGID_22_);fill:#FF0000;}
	.st11{clip-path:url(#SVGID_24_);fill:#FF0000;}
	.st12{clip-path:url(#SVGID_26_);fill:#FF0000;}
	.st13{clip-path:url(#SVGID_28_);fill:#FF0000;}
	.st14{clip-path:url(#SVGID_30_);}
	.st15{fill:#187CD6;}
	.st16{clip-path:url(#SVGID_32_);fill:#40D375;}
	.st17{clip-path:url(#SVGID_34_);fill:#40D375;}
	.st18{clip-path:url(#SVGID_36_);fill:#40D375;}
	.st19{clip-path:url(#SVGID_38_);fill:#40D375;}
	.st20{fill:#F5F5F5;}
	.st21{fill:none;stroke:#FFFFFF;stroke-width:0.5;stroke-miterlimit:10;}
	.st22{fill:none;stroke:#000000;stroke-width:0.5;stroke-miterlimit:10;}
	.st23{clip-path:url(#SVGID_40_);fill:#187CD6;}
	.st24{fill:none;stroke:#F5F5F5;stroke-width:0.4;stroke-miterlimit:10;}
	.st25{fill:#FFFFFF;}
	.st26{clip-path:url(#SVGID_42_);fill:#40D375;}
	.st27{clip-path:url(#SVGID_44_);fill:#40D375;}
	.st28{clip-path:url(#SVGID_46_);fill:#40D375;}
	.st29{clip-path:url(#SVGID_48_);fill:#40D375;}
	.st30{clip-path:url(#SVGID_50_);fill:#40D375;}
	.st31{clip-path:url(#SVGID_52_);fill:#40D375;}
	.st32{clip-path:url(#SVGID_54_);fill:#40D375;}
	.st33{clip-path:url(#SVGID_56_);fill:#40D375;}
	.st34{clip-path:url(#SVGID_58_);fill:#40D375;}
	.st35{clip-path:url(#SVGID_60_);fill:#40D375;}
	.st36{clip-path:url(#SVGID_62_);fill:#40D375;}
	.st37{clip-path:url(#SVGID_64_);fill:#40D375;}
	.st38{clip-path:url(#SVGID_66_);fill:#40D375;}
	.st39{clip-path:url(#SVGID_68_);fill:#40D375;}
	.st40{clip-path:url(#SVGID_70_);fill:#40D375;}
	.st41{fill:#FF2020;}
	.st42{fill:none;stroke:#FF2020;stroke-linejoin:round;stroke-miterlimit:10;}
</style>
<g>
	<g>
		<g>
			<defs>
				<path id="SVGID_1_" d="M538.8,194.8H347.9c-3.9,0-7.2-3.2-7.2-7.2v-84.3c0-3.9,3.2-7.2,7.2-7.2h190.9c3.9,0,7.2,3.2,7.2,7.2
					v84.3C545.9,191.6,542.7,194.8,538.8,194.8z"/>
			</defs>
			<clipPath id="SVGID_2_">
				<use xlink:href="#SVGID_1_"  style="overflow:visible;"/>
			</clipPath>
			<rect x="450.6" y="96.1" class="st0" width="36.1" height="22.7"/>
		</g>
		<g>
			<defs>
				<path id="SVGID_3_" d="M538.8,194.8H347.9c-3.9,0-7.2-3.2-7.2-7.2v-84.3c0-3.9,3.2-7.2,7.2-7.2h190.9c3.9,0,7.2,3.2,7.2,7.2
					v84.3C545.9,191.6,542.7,194.8,538.8,194.8z"/>
			</defs>
			<clipPath id="SVGID_4_">
				<use xlink:href="#SVGID_3_"  style="overflow:visible;"/>
			</clipPath>
			<rect x="442.1" y="121.4" class="st1" width="3.9" height="22.7"/>
		</g>
		<g>
			<defs>
				<path id="SVGID_5_" d="M538.8,194.8H347.9c-3.9,0-7.2-3.2-7.2-7.2v-84.3c0-3.9,3.2-7.2,7.2-7.2h190.9c3.9,0,7.2,3.2,7.2,7.2
					v84.3C545.9,191.6,542.7,194.8,538.8,194.8z"/>
			</defs>
			<clipPath id="SVGID_6_">
				<use xlink:href="#SVGID_5_"  style="overflow:visible;"/>
			</clipPath>
			<rect x="337.6" y="172.1" class="st2" width="19.1" height="22.7"/>
		</g>
		<g>
			<defs>
				<path id="SVGID_7_" d="M538.8,194.8H347.9c-3.9,0-7.2-3.2-7.2-7.2v-84.3c0-3.9,3.2-7.2,7.2-7.2h190.9c3.9,0,7.2,3.2,7.2,7.2
					v84.3C545.9,191.6,542.7,194.8,538.8,194.8z"/>
			</defs>
			<clipPath id="SVGID_8_">
				<use xlink:href="#SVGID_7_"  style="overflow:visible;"/>
			</clipPath>
			<rect x="358.1" y="148" class="st3" width="41.8" height="22.7"/>
		</g>
		<g>
			<defs>
				<path id="SVGID_9_" d="M538.8,194.8H347.9c-3.9,0-7.2-3.2-7.2-7.2v-84.3c0-3.9,3.2-7.2,7.2-7.2h190.9c3.9,0,7.2,3.2,7.2,7.2
					v84.3C545.9,191.6,542.7,194.8,538.8,194.8z"/>
			</defs>
			<clipPath id="SVGID_10_">
				<use xlink:href="#SVGID_9_"  style="overflow:visible;"/>
			</clipPath>
			<rect x="352.7" y="172.1" class="st4" width="3.9" height="22.7"/>
		</g>
		<g>
			<defs>
				<path id="SVGID_11_" d="M538.8,194.8H347.9c-3.9,0-7.2-3.2-7.2-7.2v-84.3c0-3.9,3.2-7.2,7.2-7.2h190.9c3.9,0,7.2,3.2,7.2,7.2
					v84.3C545.9,191.6,542.7,194.8,538.8,194.8z"/>
			</defs>
			<clipPath id="SVGID_12_">
				<use xlink:href="#SVGID_11_"  style="overflow:visible;"/>
			</clipPath>
			<rect x="358.1" y="172.1" class="st5" width="3.9" height="22.7"/>
		</g>
		<g>
			<defs>
				<path id="SVGID_13_" d="M538.8,194.8H347.9c-3.9,0-7.2-3.2-7.2-7.2v-84.3c0-3.9,3.2-7.2,7.2-7.2h190.9c3.9,0,7.2,3.2,7.2,7.2
					v84.3C545.9,191.6,542.7,194.8,538.8,194.8z"/>
			</defs>
			<clipPath id="SVGID_14_">
				<use xlink:href="#SVGID_13_"  style="overflow:visible;"/>
			</clipPath>
			<rect x="363.5" y="172.1" class="st6" width="3.9" height="22.7"/>
		</g>
		<g>
			<defs>
				<path id="SVGID_15_" d="M538.8,194.8H347.9c-3.9,0-7.2-3.2-7.2-7.2v-84.3c0-3.9,3.2-7.2,7.2-7.2h190.9c3.9,0,7.2,3.2,7.2,7.2
					v84.3C545.9,191.6,542.7,194.8,538.8,194.8z"/>
			</defs>
			<clipPath id="SVGID_16_">
				<use xlink:href="#SVGID_15_"  style="overflow:visible;"/>
			</clipPath>
			<rect x="368.9" y="172.1" class="st7" width="3.9" height="22.7"/>
		</g>
		<g>
			<defs>
				<path id="SVGID_17_" d="M538.8,194.8H347.9c-3.9,0-7.2-3.2-7.2-7.2v-84.3c0-3.9,3.2-7.2,7.2-7.2h190.9c3.9,0,7.2,3.2,7.2,7.2
					v84.3C545.9,191.6,542.7,194.8,538.8,194.8z"/>
			</defs>
			<clipPath id="SVGID_18_">
				<use xlink:href="#SVGID_17_"  style="overflow:visible;"/>
			</clipPath>
			<rect x="374.3" y="172.1" class="st8" width="3.9" height="22.7"/>
		</g>
		<g>
			<defs>
				<path id="SVGID_19_" d="M538.8,194.8H347.9c-3.9,0-7.2-3.2-7.2-7.2v-84.3c0-3.9,3.2-7.2,7.2-7.2h190.9c3.9,0,7.2,3.2,7.2,7.2
					v84.3C545.9,191.6,542.7,194.8,538.8,194.8z"/>
			</defs>
			<clipPath id="SVGID_20_">
				<use xlink:href="#SVGID_19_"  style="overflow:visible;"/>
			</clipPath>
			<rect x="379.7" y="172.1" class="st9" width="3.9" height="22.7"/>
		</g>
		<g>
			<defs>
				<path id="SVGID_21_" d="M538.8,194.8H347.9c-3.9,0-7.2-3.2-7.2-7.2v-84.3c0-3.9,3.2-7.2,7.2-7.2h190.9c3.9,0,7.2,3.2,7.2,7.2
					v84.3C545.9,191.6,542.7,194.8,538.8,194.8z"/>
			</defs>
			<clipPath id="SVGID_22_">
				<use xlink:href="#SVGID_21_"  style="overflow:visible;"/>
			</clipPath>
			<rect x="385.1" y="172.1" class="st10" width="3.9" height="22.7"/>
		</g>
		<g>
			<defs>
				<path id="SVGID_23_" d="M538.8,194.8H347.9c-3.9,0-7.2-3.2-7.2-7.2v-84.3c0-3.9,3.2-7.2,7.2-7.2h190.9c3.9,0,7.2,3.2,7.2,7.2
					v84.3C545.9,191.6,542.7,194.8,538.8,194.8z"/>
			</defs>
			<clipPath id="SVGID_24_">
				<use xlink:href="#SVGID_23_"  style="overflow:visible;"/>
			</clipPath>
			<rect x="390.5" y="172.1" class="st11" width="3.9" height="22.7"/>
		</g>
		<g>
			<defs>
				<path id="SVGID_25_" d="M538.8,194.8H347.9c-3.9,0-7.2-3.2-7.2-7.2v-84.3c0-3.9,3.2-7.2,7.2-7.2h190.9c3.9,0,7.2,3.2,7.2,7.2
					v84.3C545.9,191.6,542.7,194.8,538.8,194.8z"/>
			</defs>
			<clipPath id="SVGID_26_">
				<use xlink:href="#SVGID_25_"  style="overflow:visible;"/>
			</clipPath>
			<rect x="395.9" y="172.1" class="st12" width="3.9" height="22.7"/>
		</g>
		<g>
			<defs>
				<path id="SVGID_27_" d="M538.8,194.8H347.9c-3.9,0-7.2-3.2-7.2-7.2v-84.3c0-3.9,3.2-7.2,7.2-7.2h190.9c3.9,0,7.2,3.2,7.2,7.2
					v84.3C545.9,191.6,542.7,194.8,538.8,194.8z"/>
			</defs>
			<clipPath id="SVGID_28_">
				<use xlink:href="#SVGID_27_"  style="overflow:visible;"/>
			</clipPath>
			<rect x="401.7" y="172.1" class="st13" width="39.4" height="22.7"/>
		</g>
		<g>
			<defs>
				<path id="SVGID_29_" d="M538.8,194.8H347.9c-3.9,0-7.2-3.2-7.2-7.2v-84.3c0-3.9,3.2-7.2,7.2-7.2h190.9c3.9,0,7.2,3.2,7.2,7.2
					v84.3C545.9,191.6,542.7,194.8,538.8,194.8z"/>
			</defs>
			<clipPath id="SVGID_30_">
				<use xlink:href="#SVGID_29_"  style="overflow:visible;"/>
			</clipPath>
			<g class="st14">
				<rect x="441.4" y="121.4" class="st15" width="7.7" height="22.7"/>
				<rect x="450.5" y="121.4" class="st15" width="3.9" height="22.7"/>
				<rect x="455.9" y="121.4" class="st15" width="3.9" height="22.7"/>
				<rect x="461.3" y="121.4" class="st15" width="3.9" height="22.7"/>
				<rect x="466.7" y="121.4" class="st15" width="3.9" height="22.7"/>
				<rect x="472.1" y="121.4" class="st15" width="3.9" height="22.7"/>
				<rect x="477.5" y="121.4" class="st15" width="3.9" height="22.7"/>
				<rect x="482.9" y="121.4" class="st15" width="3.9" height="22.7"/>
				<rect x="488.2" y="121.4" class="st15" width="9.2" height="22.7"/>
			</g>
		</g>
		<g>
			<defs>
				<path id="SVGID_31_" d="M538.8,194.8H347.9c-3.9,0-7.2-3.2-7.2-7.2v-84.3c0-3.9,3.2-7.2,7.2-7.2h190.9c3.9,0,7.2,3.2,7.2,7.2
					v84.3C545.9,191.6,542.7,194.8,538.8,194.8z"/>
			</defs>
			<clipPath id="SVGID_32_">
				<use xlink:href="#SVGID_31_"  style="overflow:visible;"/>
			</clipPath>
			<rect x="482.8" y="96.1" class="st16" width="3.9" height="22.7"/>
		</g>
		<g>
			<defs>
				<path id="SVGID_33_" d="M538.8,194.8H347.9c-3.9,0-7.2-3.2-7.2-7.2v-84.3c0-3.9,3.2-7.2,7.2-7.2h190.9c3.9,0,7.2,3.2,7.2,7.2
					v84.3C545.9,191.6,542.7,194.8,538.8,194.8z"/>
			</defs>
			<clipPath id="SVGID_34_">
				<use xlink:href="#SVGID_33_"  style="overflow:visible;"/>
			</clipPath>
			<rect x="488.2" y="96.1" class="st17" width="3.9" height="22.7"/>
		</g>
		<g>
			<defs>
				<path id="SVGID_35_" d="M538.8,194.8H347.9c-3.9,0-7.2-3.2-7.2-7.2v-84.3c0-3.9,3.2-7.2,7.2-7.2h190.9c3.9,0,7.2,3.2,7.2,7.2
					v84.3C545.9,191.6,542.7,194.8,538.8,194.8z"/>
			</defs>
			<clipPath id="SVGID_36_">
				<use xlink:href="#SVGID_35_"  style="overflow:visible;"/>
			</clipPath>
			<rect x="493.6" y="96.1" class="st18" width="3.9" height="22.7"/>
		</g>
		<g>
			<defs>
				<path id="SVGID_37_" d="M538.8,194.8H347.9c-3.9,0-7.2-3.2-7.2-7.2v-84.3c0-3.9,3.2-7.2,7.2-7.2h190.9c3.9,0,7.2,3.2,7.2,7.2
					v84.3C545.9,191.6,542.7,194.8,538.8,194.8z"/>
			</defs>
			<clipPath id="SVGID_38_">
				<use xlink:href="#SVGID_37_"  style="overflow:visible;"/>
			</clipPath>
			<rect x="498.7" y="96.2" class="st19" width="48.4" height="22.7"/>
		</g>
	</g>
	<g>
		<path class="st20" d="M538.7,93.5c5.2,0,9.4,4.2,9.4,9.4v84.8c0,5.2-4.2,9.4-9.4,9.4H348c-5.2,0-9.4-4.2-9.4-9.4v-84.8
			c0-5.2,4.2-9.4,9.4-9.4L538.7,93.5 M538.7,92.5H348c-5.7,0-10.4,4.7-10.4,10.4v84.8c0,5.7,4.7,10.4,10.4,10.4h190.7
			c5.7,0,10.4-4.7,10.4-10.4v-84.8C549.1,97.1,544.4,92.5,538.7,92.5L538.7,92.5z"/>
	</g>
	<g>
		<path class="st20" d="M302,150c-2.8,0-4-1.2-4-4.2c0-2.7,1.4-4.3,3.7-4.3c1.3,0,2,0.3,2.7,0.7l-0.3,0.6c-0.7-0.4-1.4-0.6-2.4-0.6
			c-1.7,0-2.8,1.3-2.8,3.5c0,2.4,0.8,3.5,3.3,3.5c1,0,1.8-0.2,2.1-0.3l0.2,0.7C304.1,149.8,303.4,150,302,150z"/>
		<path class="st20" d="M309.6,150c-0.8,0-1.4,0-1.8-0.1v3.3H307v-11.5h0.8v0.7c0.6-0.4,1.4-0.8,2.4-0.8c2.1,0,3.3,1.4,3.3,4
			C313.4,149,311.6,150,309.6,150z M312.5,146c0-1.8-0.4-3.6-2.5-3.6c-0.9,0-2,0.7-2.2,0.9v5.9c0.4,0.1,0.8,0.1,1.9,0.1
			C311.6,149.3,312.5,147.9,312.5,146L312.5,146z"/>
		<path class="st20" d="M321.5,149.9v-1c-0.7,0.4-1.6,1.2-3,1.2c-2.2,0-2.4-1.8-2.4-3.1v-5.3h0.8v5c0,1.3,0,2.5,1.7,2.5
			c1.1,0,2.5-0.9,2.8-1.2v-6.4h0.8v8.2h-0.7V149.9z"/>
		<path class="st20" d="M328.1,150c-2.7,0-3.6-2.3-3.6-5.3s0.9-5.6,3.8-5.6c2.8,0,3.5,2.6,3.5,5.2C331.8,147.9,330.8,150,328.1,150z
			 M330.9,144.5c0-2-0.4-4.6-2.7-4.6c-2.4,0-2.8,2.7-2.8,4.8c0,2.3,0.6,4.6,2.7,4.6C330.5,149.3,330.9,146.8,330.9,144.5
			L330.9,144.5z M328.2,145.4l-0.8-0.8l0.8-0.8l0.8,0.8L328.2,145.4z"/>
	</g>
	<g>
		<path class="st20" d="M452.7,187.3h-1l-1.1-6l0,0l-1.4,6h-1l-0.9-6.5h0.7l0.7,6.1l0,0l1.4-6.1h1l1.2,6.1l0,0l0.9-6.1h0.7
			L452.7,187.3z"/>
		<path class="st20" d="M460.4,187.4c-0.5,0-1.1-0.2-1.2-0.9c-0.2,0.2-1,0.9-2.4,0.9c-1.1,0-1.8-0.6-1.8-1.8c0-1.6,1.4-1.9,2.4-2
			h1.7v-1c0-1.2-0.6-1.4-1.8-1.4c-0.6,0-1.3,0.2-1.5,0.3l-0.1-0.6c0.2-0.1,1-0.3,1.9-0.3c1.3,0,2.2,0.4,2.2,1.7v3.8
			c0,0.6,0.4,0.7,0.6,0.7L460.4,187.4z M459.2,184.1l-1.7,0.1c-1.1,0-1.7,0.6-1.7,1.3c0,1,0.5,1.3,1.3,1.3c0.9,0,2.1-0.8,2.1-0.9
			L459.2,184.1L459.2,184.1z"/>
		<path class="st20" d="M462.5,187.3v-0.6h2.5v-5.3h-2.3v-0.6h2.9v5.9h2.5v0.6L462.5,187.3L462.5,187.3z M465.3,179.4l-0.6-0.7
			l0.6-0.6l0.7,0.6L465.3,179.4z"/>
		<path class="st20" d="M472.8,187.4c-1.2,0-2.1-0.2-2.1-1.8v-4.3h-1.6v-0.6h1.6v-1.3h0.6v1.3h3.7v0.6h-3.7v4.1c0,1,0.4,1.3,1.5,1.3
			c0.8,0,1.5-0.2,2.2-0.4l0.2,0.5C474.6,187.1,473.7,187.4,472.8,187.4z"/>
		<path class="st20" d="M489.5,178.8c-0.2,0-0.8-0.2-1.3-0.2c-1.1,0-1.7,0.3-1.7,1.5v0.6h2.8v0.6h-2.8v5.3h2.8v0.6h-5.4v-0.6h1.9
			v-5.3h-1.9v-0.6h1.9v-0.6c0-1.7,1.2-2.1,2.4-2.1c0.5,0,1.2,0.1,1.5,0.2L489.5,178.8z"/>
		<path class="st20" d="M493.7,187.4c-1.7,0-2.8-1.1-2.8-3.3c0-2.3,1.2-3.5,2.9-3.5c1.8,0,2.8,1.2,2.8,3.4
			C496.6,186.3,495.4,187.4,493.7,187.4z M495.9,184c0-1.2-0.4-2.9-2.1-2.9s-2.2,1.6-2.2,2.9c0,1.4,0.5,2.8,2.2,2.8
			S495.9,185.4,495.9,184L495.9,184z"/>
		<path class="st20" d="M504,181.7c-0.4-0.2-0.9-0.5-1.6-0.5c-0.9,0-1.5,0.6-1.8,1.1v4.4h2.4v0.6h-4.9v-0.6h1.8v-5.3h-1.8v-0.6h2.5
			v0.8c0.3-0.4,0.9-0.9,1.9-0.9c1.1,0,1.6,0.4,1.9,0.6L504,181.7z"/>
		<path class="st20" d="M514.9,187.4c-0.6,0-1.1,0-1.5-0.1v2.6h-0.7v-9.2h0.7v0.6c0.5-0.3,1.2-0.6,1.9-0.6c1.7,0,2.6,1.1,2.6,3.2
			C517.9,186.6,516.5,187.4,514.9,187.4z M517.3,184.2c0-1.4-0.3-2.9-2-2.9c-0.7,0-1.6,0.5-1.8,0.7v4.8c0.3,0,0.6,0.1,1.5,0.1
			C516.5,186.8,517.2,185.7,517.3,184.2L517.3,184.2z"/>
		<path class="st20" d="M522.6,187.4c-1.7,0-2.8-1.1-2.8-3.3c0-2.3,1.2-3.5,2.9-3.5c1.8,0,2.8,1.2,2.8,3.4
			C525.4,186.3,524.2,187.4,522.6,187.4z M524.7,184c0-1.2-0.4-2.9-2.1-2.9c-1.7,0-2.2,1.6-2.2,2.9c0,1.4,0.5,2.8,2.2,2.8
			C524.3,186.8,524.7,185.4,524.7,184L524.7,184z"/>
		<path class="st20" d="M527.5,187.3v-9h0.7v9H527.5z M531.8,187.3l-3.1-3.5l3.1-3.1h0.8l-3.1,3.1l3.1,3.5H531.8z"/>
		<path class="st20" d="M535,184.1c0,2.4,1.2,2.7,2.7,2.7c0.5,0,1.3-0.1,1.5-0.2l0.1,0.6c-0.2,0.1-0.8,0.3-2,0.3
			c-1.8,0-3.1-0.8-3.1-3.3c0-2.6,1.4-3.5,2.9-3.5s2.4,1,2.4,3.2v0.2H535z M537.1,181.1c-1.1,0-2,0.8-2.1,2.4h3.9
			C538.9,182.1,538.3,181.1,537.1,181.1z"/>
	</g>
	<g>
		<path class="st20" d="M345.3,112c-0.6,0-1.1,0-1.5-0.1v2.6h-0.7v-9.2h0.7v0.6c0.5-0.3,1.2-0.6,1.9-0.6c1.7,0,2.6,1.1,2.6,3.2
			C348.3,111.2,346.8,112,345.3,112z M347.6,108.7c0-1.4-0.3-2.9-2-2.9c-0.7,0-1.6,0.5-1.8,0.7v4.8c0.3,0,0.6,0.1,1.5,0.1
			C346.8,111.4,347.6,110.3,347.6,108.7L347.6,108.7z"/>
		<path class="st20" d="M350,111.9v-0.6h2.5v-7.9h-2.3v-0.6h2.9v8.4h2.5v0.6L350,111.9L350,111.9z"/>
		<path class="st20" d="M360.1,112c-1.7,0-2.8-1.1-2.8-3.3c0-2.3,1.2-3.5,2.9-3.5c1.8,0,2.8,1.2,2.8,3.4
			C362.9,110.9,361.7,112,360.1,112z M362.3,108.6c0-1.2-0.4-2.9-2.1-2.9s-2.2,1.6-2.2,2.9c0,1.4,0.5,2.8,2.2,2.8
			C361.8,111.4,362.2,110,362.3,108.6L362.3,108.6z"/>
		<path class="st20" d="M368,112c-1.2,0-2.1-0.2-2.1-1.8v-4.3h-1.6v-0.6h1.6V104h0.6v1.3h3.7v0.6h-3.7v4.1c0,1,0.4,1.3,1.5,1.3
			c0.8,0,1.5-0.2,2.2-0.4l0.2,0.5C369.7,111.7,368.8,112,368,112z"/>
		<path class="st20" d="M384.7,106.3c-0.4-0.2-0.9-0.5-1.6-0.5c-0.9,0-1.5,0.6-1.8,1.1v4.4h2.4v0.6h-4.9v-0.6h1.8V106h-1.8v-0.6h2.5
			v0.8c0.3-0.4,0.9-0.9,1.9-0.9c1.1,0,1.6,0.4,1.9,0.6L384.7,106.3z"/>
		<path class="st20" d="M386.9,108.7c0,2.4,1.2,2.7,2.7,2.7c0.5,0,1.3-0.1,1.5-0.2l0.1,0.6c-0.2,0.1-0.8,0.3-2,0.3
			c-1.8,0-3.1-0.8-3.1-3.3c0-2.6,1.4-3.5,2.9-3.5s2.4,1,2.4,3.2v0.2C391.4,108.7,386.9,108.7,386.9,108.7z M389,105.7
			c-1.1,0-2,0.8-2.1,2.4h3.9C390.8,106.7,390.2,105.7,389,105.7z"/>
		<path class="st20" d="M395.8,112c-1,0-1.7-0.2-2.2-0.4l0.2-0.6c0.5,0.2,1.1,0.4,1.9,0.4c1,0,2.1-0.2,2.1-1.1c0-1.6-4-1.1-4-3.4
			c0-1.2,1-1.7,2.2-1.7c0.8,0,1.4,0.1,2,0.3l-0.2,0.5c-0.5-0.2-1.1-0.3-1.8-0.3c-0.9,0-1.5,0.3-1.5,1.1c0,1.8,4,1.3,4,3.4
			C398.5,111.7,396.9,112,395.8,112z"/>
		<path class="st20" d="M405.1,111.9v-0.8c-0.5,0.3-1.3,0.9-2.4,0.9c-1.8,0-1.9-1.5-1.9-2.5v-4.2h0.7v4c0,1.1,0,2,1.4,2
			c0.9,0,2-0.7,2.3-0.9v-5.1h0.6v6.5L405.1,111.9L405.1,111.9z"/>
		<path class="st20" d="M407.6,111.9v-0.6h2.5v-7.9h-2.3v-0.6h2.9v8.4h2.5v0.6L407.6,111.9L407.6,111.9z"/>
		<path class="st20" d="M418.4,112c-1.2,0-2.1-0.2-2.1-1.8v-4.3h-1.6v-0.6h1.6V104h0.6v1.3h3.7v0.6h-3.7v4.1c0,1,0.4,1.3,1.5,1.3
			c0.8,0,1.5-0.2,2.2-0.4l0.2,0.5C420.1,111.7,419.2,112,418.4,112z"/>
	</g>
	<g>
		<path class="st20" d="M415.2,162.7c-2.2,0-3.2-1-3.2-3.4c0-2.1,1.2-3.4,2.9-3.4c1,0,1.6,0.3,2.2,0.6l-0.3,0.5
			c-0.5-0.3-1.1-0.5-2-0.5c-1.4,0-2.2,1.1-2.2,2.8c0,1.9,0.6,2.8,2.6,2.8c0.8,0,1.4-0.2,1.7-0.3l0.2,0.6
			C416.9,162.5,416.3,162.7,415.2,162.7z"/>
		<path class="st20" d="M421.7,162.7c-1.7,0-2.8-1.1-2.8-3.3c0-2.3,1.2-3.5,2.9-3.5c1.8,0,2.8,1.2,2.8,3.4
			C424.6,161.6,423.4,162.7,421.7,162.7z M423.9,159.3c0-1.2-0.4-2.9-2.1-2.9s-2.2,1.6-2.2,2.9c0,1.4,0.5,2.8,2.2,2.8
			S423.9,160.7,423.9,159.3L423.9,159.3z"/>
		<path class="st20" d="M431.2,162.6v-4.1c0-1.1,0-2-0.8-2c-0.5,0-0.9,0.6-1.1,0.9c0,0.3,0,0.6,0,0.9v4.3h-0.6v-4.3
			c0-0.9,0-1.8-0.7-1.8c-0.5,0-1,0.8-1.2,1.1v5h-0.7V156h0.7v0.8c0.2-0.4,0.6-0.9,1.2-0.9c0.7,0,1,0.4,1.1,0.9
			c0.3-0.5,0.6-0.9,1.3-0.9c1.4,0,1.4,1.3,1.4,2.4v4.3H431.2z"/>
		<path class="st20" d="M435.7,162.7c-0.6,0-1.1,0-1.5-0.1v2.6h-0.7V156h0.7v0.6c0.5-0.3,1.2-0.6,1.9-0.6c1.7,0,2.6,1.1,2.6,3.2
			C438.7,161.9,437.3,162.7,435.7,162.7z M438.1,159.4c0-1.4-0.3-2.9-2-2.9c-0.7,0-1.6,0.5-1.8,0.7v4.8c0.3,0,0.6,0.1,1.5,0.1
			C437.3,162.1,438,161,438.1,159.4L438.1,159.4z"/>
		<path class="st20" d="M445.2,162.6v-0.8c-0.5,0.3-1.3,0.9-2.4,0.9c-1.8,0-1.9-1.5-1.9-2.5V156h0.7v4c0,1.1,0,2,1.4,2
			c0.9,0,2-0.7,2.3-0.9V156h0.6v6.5h-0.7V162.6z"/>
		<path class="st20" d="M451.2,162.7c-1.2,0-2.1-0.2-2.1-1.8v-4.3h-1.6V156h1.6v-1.3h0.6v1.3h3.7v0.6h-3.7v4.1c0,1,0.4,1.3,1.5,1.3
			c0.8,0,1.5-0.2,2.2-0.4l0.2,0.5C453,162.4,452.1,162.7,451.2,162.7z"/>
		<path class="st20" d="M455.8,159.4c0,2.4,1.2,2.7,2.7,2.7c0.5,0,1.3-0.1,1.5-0.2l0.1,0.6c-0.2,0.1-0.8,0.3-2,0.3
			c-1.8,0-3.1-0.8-3.1-3.3c0-2.6,1.4-3.5,2.9-3.5s2.4,1,2.4,3.2v0.2H455.8z M457.9,156.4c-1.1,0-2,0.8-2.1,2.4h3.9
			C459.7,157.4,459.1,156.4,457.9,156.4z"/>
		<path class="st20" d="M474,162.6v-4.1c0-1.2-0.1-2-1.5-2c-0.9,0-1.9,0.7-2.2,0.9v5.2h-0.7V156h0.7v0.8c0.5-0.3,1.2-0.9,2.3-0.9
			c1.9,0,2,1.4,2,2.4v4.3H474z"/>
		<path class="st20" d="M477.4,159.4c0,2.4,1.2,2.7,2.7,2.7c0.5,0,1.3-0.1,1.5-0.2l0.1,0.6c-0.2,0.1-0.8,0.3-2,0.3
			c-1.8,0-3.1-0.8-3.1-3.3c0-2.6,1.4-3.5,2.9-3.5s2.4,1,2.4,3.2v0.2H477.4z M479.5,156.4c-1.1,0-2,0.8-2.1,2.4h3.9
			C481.3,157.4,480.7,156.4,479.5,156.4z"/>
		<path class="st20" d="M487,159.3l2.8,3.3H489l-2.4-2.9l-2.4,2.9h-0.8l2.8-3.3l-2.8-3.3h0.8l2.4,2.9l2.4-2.9h0.8L487,159.3z"/>
		<path class="st20" d="M494.4,162.7c-1.2,0-2.1-0.2-2.1-1.8v-4.3h-1.6V156h1.6v-1.3h0.6v1.3h3.7v0.6H493v4.1c0,1,0.4,1.3,1.5,1.3
			c0.8,0,1.5-0.2,2.2-0.4l0.2,0.5C496.2,162.4,495.3,162.7,494.4,162.7z"/>
		<path class="st20" d="M507.9,162.7c-1,0-1.7-0.2-2.2-0.4l0.2-0.6c0.5,0.2,1.1,0.4,1.9,0.4c1,0,2.1-0.2,2.1-1.1c0-1.6-4-1.1-4-3.4
			c0-1.2,1-1.7,2.2-1.7c0.8,0,1.4,0.1,2,0.3l-0.2,0.5c-0.5-0.2-1.1-0.3-1.8-0.3c-0.9,0-1.5,0.3-1.5,1.1c0,1.8,4,1.3,4,3.4
			C510.6,162.4,508.9,162.7,507.9,162.7z"/>
		<path class="st20" d="M516,162.7c-1.2,0-2.1-0.2-2.1-1.8v-4.3h-1.6V156h1.6v-1.3h0.6v1.3h3.7v0.6h-3.7v4.1c0,1,0.4,1.3,1.5,1.3
			c0.8,0,1.5-0.2,2.2-0.4l0.2,0.5C517.8,162.4,516.9,162.7,516,162.7z"/>
		<path class="st20" d="M525.2,162.7c-0.5,0-1.1-0.2-1.2-0.9c-0.2,0.2-1,0.9-2.4,0.9c-1.1,0-1.8-0.6-1.8-1.8c0-1.6,1.4-1.9,2.4-2
			h1.7v-1c0-1.2-0.6-1.4-1.8-1.4c-0.6,0-1.3,0.2-1.5,0.3l-0.1-0.6c0.2-0.1,1-0.3,1.9-0.3c1.3,0,2.2,0.4,2.2,1.7v3.8
			c0,0.6,0.4,0.7,0.6,0.7L525.2,162.7z M524,159.4l-1.7,0.1c-1.1,0-1.7,0.6-1.7,1.3c0,1,0.5,1.3,1.3,1.3c0.9,0,2.1-0.8,2.1-0.9
			L524,159.4L524,159.4z"/>
		<path class="st20" d="M529.6,165.3c-0.9,0-1.8-0.2-2-0.2l0.1-0.6c0.1,0,1.1,0.2,1.6,0.2c1.2,0,2.2-0.2,2.2-1.8v-0.8
			c-0.4,0.4-1,0.6-1.7,0.6c-1.3,0-2.8-0.4-2.8-3.3c0-2.4,1.3-3.4,3-3.4c0.8,0,1.6,0.1,2.2,0.2v7
			C532.3,164.6,531.2,165.3,529.6,165.3z M531.6,156.6c-0.3-0.1-0.8-0.2-1.5-0.2c-1.7,0-2.3,1.3-2.3,2.9c0,1.9,0.7,2.7,2.2,2.7
			c0.8,0,1.4-0.5,1.7-0.7L531.6,156.6z"/>
		<path class="st20" d="M535,159.4c0,2.4,1.2,2.7,2.7,2.7c0.5,0,1.3-0.1,1.5-0.2l0.1,0.6c-0.2,0.1-0.8,0.3-2,0.3
			c-1.8,0-3.1-0.8-3.1-3.3c0-2.6,1.4-3.5,2.9-3.5s2.4,1,2.4,3.2v0.2H535z M537.1,156.4c-1.1,0-2,0.8-2.1,2.4h3.9
			C538.9,157.4,538.3,156.4,537.1,156.4z"/>
	</g>
	<g>
		<path class="st20" d="M347.6,137.1v-0.7c-0.4,0.4-1.2,0.8-1.8,0.8c-1.1,0-2.7-0.4-2.7-3.3c0-2.3,1.4-3.5,3-3.5c0.7,0,1,0,1.5,0.2
			V128h0.7v9h-0.7V137.1z M347.6,131.2c-0.3-0.1-0.8-0.2-1.5-0.2c-1.7,0-2.3,1.5-2.3,3c0,1.9,0.8,2.7,2,2.7c0.7,0,1.6-0.6,1.8-0.8
			V131.2z"/>
		<path class="st20" d="M350.9,133.8c0,2.4,1.2,2.7,2.7,2.7c0.5,0,1.3-0.1,1.5-0.2l0.1,0.6c-0.2,0.1-0.8,0.3-2,0.3
			c-1.8,0-3.1-0.8-3.1-3.3c0-2.6,1.4-3.5,2.9-3.5s2.4,1,2.4,3.2v0.2H350.9z M353,130.9c-1.1,0-2,0.8-2.1,2.4h3.9
			C354.8,131.8,354.2,130.9,353,130.9z"/>
		<path class="st20" d="M357.2,137.1v-0.6h2.5v-7.9h-2.3V128h2.9v8.4h2.5v0.6h-5.6V137.1z"/>
		<path class="st20" d="M364.8,137.1v-0.6h2.5v-5.3H365v-0.6h2.9v5.9h2.5v0.6L364.8,137.1L364.8,137.1z M367.6,129.1l-0.6-0.7
			l0.6-0.6l0.7,0.6L367.6,129.1z"/>
		<path class="st20" d="M374.9,137.1h-1l-2.5-6.5h0.7l2.1,5.3l0.3,0.8l0,0l0.3-0.8l2.3-5.3h0.7L374.9,137.1z"/>
		<path class="st20" d="M379.7,133.8c0,2.4,1.2,2.7,2.7,2.7c0.5,0,1.3-0.1,1.5-0.2l0.1,0.6c-0.2,0.1-0.8,0.3-2,0.3
			c-1.8,0-3.1-0.8-3.1-3.3c0-2.6,1.4-3.5,2.9-3.5s2.4,1,2.4,3.2v0.2H379.7z M381.8,130.9c-1.1,0-2,0.8-2.1,2.4h3.9
			C383.6,131.8,383,130.9,381.8,130.9z"/>
		<path class="st20" d="M391.9,131.5c-0.4-0.2-0.9-0.5-1.6-0.5c-0.9,0-1.5,0.6-1.8,1.1v4.4h2.4v0.6H386v-0.6h1.8v-5.3H386v-0.6h2.5
			v0.8c0.3-0.4,0.9-0.9,1.9-0.9c1.1,0,1.6,0.4,1.9,0.6L391.9,131.5z"/>
		<path class="st20" d="M405.4,137.1h-1l-1.1-6l0,0l-1.4,6h-1l-0.9-6.5h0.7l0.7,6.1l0,0l1.4-6.1h1l1.2,6.1l0,0l0.9-6.1h0.7
			L405.4,137.1z"/>
		<path class="st20" d="M413.1,137.1c-0.5,0-1.1-0.2-1.2-0.9c-0.2,0.2-1,0.9-2.4,0.9c-1.1,0-1.8-0.6-1.8-1.8c0-1.6,1.4-1.9,2.4-2
			h1.7v-1c0-1.2-0.6-1.4-1.8-1.4c-0.6,0-1.3,0.2-1.5,0.3l-0.1-0.6c0.2-0.1,1-0.3,1.9-0.3c1.3,0,2.2,0.4,2.2,1.7v3.8
			c0,0.6,0.4,0.7,0.6,0.7L413.1,137.1z M411.9,133.9l-1.7,0.1c-1.1,0-1.7,0.6-1.7,1.3c0,1,0.5,1.3,1.3,1.3c0.9,0,2.1-0.8,2.1-0.9
			L411.9,133.9L411.9,133.9z"/>
		<path class="st20" d="M418.4,137.1c-1.2,0-2.1-0.2-2.1-1.8V131h-1.6v-0.6h1.6v-1.3h0.6v1.3h3.7v0.6h-3.7v4.1c0,1,0.4,1.3,1.5,1.3
			c0.8,0,1.5-0.2,2.2-0.4l0.2,0.5C420.1,136.9,419.2,137.1,418.4,137.1z"/>
		<path class="st20" d="M422.9,133.8c0,2.4,1.2,2.7,2.7,2.7c0.5,0,1.3-0.1,1.5-0.2l0.1,0.6c-0.2,0.1-0.8,0.3-2,0.3
			c-1.8,0-3.1-0.8-3.1-3.3c0-2.6,1.4-3.5,2.9-3.5s2.4,1,2.4,3.2v0.2H422.9z M425,130.9c-1.1,0-2,0.8-2.1,2.4h3.9
			C426.8,131.8,426.2,130.9,425,130.9z"/>
		<path class="st20" d="M435.1,131.5c-0.4-0.2-0.9-0.5-1.6-0.5c-0.9,0-1.5,0.6-1.8,1.1v4.4h2.4v0.6h-4.9v-0.6h1.8v-5.3h-1.8v-0.6
			h2.5v0.8c0.3-0.4,0.9-0.9,1.9-0.9c1.1,0,1.6,0.4,1.9,0.6L435.1,131.5z"/>
	</g>
	<g>
		<path class="st20" d="M438.9,82.9h-1l-1.1-6l0,0l-1.4,6h-1l-0.9-6.5h0.7l0.7,6.1l0,0l1.4-6.1h1l1.2,6.1l0,0l0.9-6.1h0.7
			L438.9,82.9z"/>
		<path class="st20" d="M446.5,82.9c-0.5,0-1.1-0.2-1.2-0.9c-0.2,0.2-1,0.9-2.4,0.9c-1.1,0-1.8-0.6-1.8-1.8c0-1.6,1.4-1.9,2.4-2h1.7
			v-1c0-1.2-0.6-1.4-1.8-1.4c-0.6,0-1.3,0.2-1.5,0.3l-0.1-0.6c0.2-0.1,1-0.3,1.9-0.3c1.3,0,2.2,0.4,2.2,1.7v3.8
			c0,0.6,0.4,0.7,0.6,0.7L446.5,82.9z M445.3,79.7l-1.7,0.1c-1.1,0-1.7,0.6-1.7,1.3c0,1,0.5,1.3,1.3,1.3c0.9,0,2.1-0.8,2.1-0.9
			L445.3,79.7L445.3,79.7z"/>
		<path class="st20" d="M448.6,82.9v-0.6h2.5V77h-2.3v-0.6h2.9v5.9h2.5v0.6H448.6z M451.5,74.9l-0.6-0.7l0.6-0.6l0.7,0.6L451.5,74.9
			z"/>
		<path class="st20" d="M459,83c-1.2,0-2.1-0.2-2.1-1.8v-4.3h-1.6v-0.6h1.6V75h0.6v1.3h3.7v0.6h-3.7V81c0,1,0.4,1.3,1.5,1.3
			c0.8,0,1.5-0.2,2.2-0.4l0.2,0.5C460.7,82.7,459.9,83,459,83z"/>
		<path class="st20" d="M463,82.9v-0.6h2.5V77h-2.3v-0.6h2.9v5.9h2.5v0.6H463z M465.9,74.9l-0.6-0.7l0.6-0.6l0.7,0.6L465.9,74.9z"/>
		<path class="st20" d="M474.6,82.9v-4.1c0-1.2-0.1-2-1.5-2c-0.9,0-1.9,0.7-2.2,0.9v5.2h-0.7v-6.5h0.7v0.8c0.5-0.3,1.2-0.9,2.3-0.9
			c1.9,0,2,1.4,2,2.4V83h-0.6V82.9z"/>
		<path class="st20" d="M479.8,85.6c-0.9,0-1.8-0.2-2-0.2l0.1-0.6c0.1,0,1.1,0.2,1.6,0.2c1.2,0,2.2-0.2,2.2-1.8v-0.8
			c-0.4,0.4-1,0.6-1.7,0.6c-1.3,0-2.8-0.4-2.8-3.3c0-2.4,1.3-3.4,3-3.4c0.8,0,1.6,0.1,2.2,0.2v7C482.4,84.9,481.4,85.6,479.8,85.6z
			 M481.8,76.9c-0.3-0.1-0.8-0.2-1.5-0.2c-1.7,0-2.3,1.3-2.3,2.9c0,1.9,0.7,2.7,2.2,2.7c0.8,0,1.4-0.5,1.7-0.7L481.8,76.9z"/>
	</g>
	<rect x="414.5" y="67.9" class="st20" width="3.9" height="22.7"/>
	<rect x="419.9" y="67.9" class="st20" width="3.9" height="22.7"/>
	<rect x="425.3" y="67.9" class="st20" width="3.9" height="22.7"/>
	<line class="st21" x1="485.4" y1="86.3" x2="491.6" y2="102.5"/>
	<line class="st22" x1="484.6" y1="86.3" x2="491" y2="102.8"/>
</g>
<g>
	<g>
		<g>
			<defs>
				<path id="SVGID_39_" d="M542.5,228.5H344.2c-1.9,0-3.4-1.5-3.4-3.4v-15.9c0-1.9,1.5-3.4,3.4-3.4h198.3c1.9,0,3.4,1.5,3.4,3.4
					V225C545.9,226.9,544.4,228.5,542.5,228.5z"/>
			</defs>
			<clipPath id="SVGID_40_">
				<use xlink:href="#SVGID_39_"  style="overflow:visible;"/>
			</clipPath>
			<rect x="441.4" y="202.8" class="st23" width="107.7" height="28.5"/>
		</g>
	</g>
	<g>
		<path class="st20" d="M543.7,203.8c2.4,0,4.4,2,4.4,4.4v17.7c0,2.4-2,4.4-4.4,4.4H343c-2.4,0-4.4-2-4.4-4.4v-17.7
			c0-2.4,2-4.4,4.4-4.4H543.7 M543.7,202.8H343c-3,0-5.4,2.4-5.4,5.4v17.7c0,3,2.4,5.4,5.4,5.4h200.7c3,0,5.4-2.4,5.4-5.4v-17.7
			C549.1,205.2,546.6,202.8,543.7,202.8L543.7,202.8z"/>
	</g>
	<g>
		<path class="st20" d="M347,278c-1.5,0-2.7-0.3-2.7-2.2v-5.4h-2v-0.8h2v-1.7h0.8v1.7h4.7v0.8h-4.7v5.1c0,1.3,0.5,1.7,1.8,1.7
			c1,0,1.8-0.2,2.7-0.6l0.2,0.7C349.2,277.7,348.1,278,347,278z"/>
		<path class="st20" d="M352.1,277.9v-0.8h3.1v-6.7h-2.8v-0.7h3.7v7.4h3.1v0.8L352.1,277.9L352.1,277.9z M355.6,268l-0.8-0.8
			l0.8-0.8l0.8,0.8L355.6,268z"/>
		<path class="st20" d="M366.9,277.9v-5.1c0-1.3,0-2.5-1-2.5c-0.6,0-1.2,0.8-1.4,1.1c0,0.3,0,0.8,0,1.2v5.3h-0.8v-5.4
			c0-1.1,0.1-2.3-0.9-2.3c-0.6,0-1.2,1-1.5,1.3v6.3h-0.8v-8.2h0.8v0.9c0.3-0.5,0.8-1.1,1.5-1.1c0.9,0,1.3,0.5,1.4,1.1
			c0.3-0.6,0.8-1.1,1.6-1.1c1.8,0,1.8,1.6,1.8,3v5.3h-0.7V277.9z"/>
		<path class="st20" d="M370.7,273.9c0.1,3,1.6,3.4,3.4,3.4c0.6,0,1.7-0.2,1.9-0.3l0.2,0.7c-0.3,0.1-1,0.3-2.5,0.3
			c-2.3,0-3.9-1-3.9-4.1c0-3.3,1.7-4.4,3.7-4.4c1.9,0,2.9,1.3,2.9,4.1v0.3H370.7z M373.4,270.2c-1.3,0-2.5,1-2.6,3h4.9
			C375.6,271.4,374.8,270.2,373.4,270.2z"/>
	</g>
	<g>
		<path class="st20" d="M302,221.9c-2.8,0-4-1.2-4-4.2c0-2.7,1.4-4.3,3.7-4.3c1.3,0,2,0.3,2.7,0.7l-0.3,0.6
			c-0.7-0.4-1.4-0.6-2.4-0.6c-1.7,0-2.8,1.3-2.8,3.5c0,2.4,0.8,3.5,3.3,3.5c1,0,1.8-0.2,2.1-0.3l0.2,0.7
			C304.1,221.6,303.4,221.9,302,221.9z"/>
		<path class="st20" d="M309.6,221.9c-0.8,0-1.4,0-1.8-0.1v3.3H307v-11.5h0.8v0.7c0.6-0.4,1.4-0.8,2.4-0.8c2.1,0,3.3,1.4,3.3,4
			C313.4,220.8,311.6,221.9,309.6,221.9z M312.5,217.8c0-1.8-0.4-3.6-2.5-3.6c-0.9,0-2,0.7-2.2,0.9v5.9c0.4,0.1,0.8,0.1,1.9,0.1
			C311.6,221.1,312.5,219.7,312.5,217.8L312.5,217.8z"/>
		<path class="st20" d="M321.5,221.7v-1c-0.7,0.4-1.6,1.2-3,1.2c-2.2,0-2.4-1.8-2.4-3.1v-5.3h0.8v5c0,1.3,0,2.5,1.7,2.5
			c1.1,0,2.5-0.9,2.8-1.2v-6.4h0.8v8.2h-0.7V221.7z"/>
		<path class="st20" d="M324.6,221.7V221h3.1v-8.8l-3,1.1v-0.8l3.8-1.5v10h3.1v0.8h-7V221.7z"/>
	</g>
	<g>
		<g>
			<line class="st24" x1="379.8" y1="273.5" x2="427.2" y2="273.5"/>
			<g>
				<polygon class="st20" points="425.2,276 424.8,275.6 426.9,273.5 424.8,271.5 425.2,271.1 427.8,273.5 				"/>
			</g>
		</g>
	</g>
	<g>
		<path class="st25" d="M472.2,220.9c-0.6,0-1,0-1.3-0.1v2.6H470v-9.2h0.9v0.6c0.4-0.3,1.1-0.7,1.8-0.7c1.6,0,2.5,1,2.5,3.2
			C475.2,220.1,473.9,220.9,472.2,220.9z M472.5,215c-0.6,0-1.4,0.4-1.6,0.6v4.4c0.3,0,0.6,0.1,1.3,0.1c1.4,0,2-1.1,2-2.5
			C474.3,216.2,474,215,472.5,215z"/>
		<path class="st25" d="M476.9,220.8V220h2.4v-7.5h-2.2v-0.8h3.1v8.2h2.4v0.8h-5.7V220.8z"/>
		<path class="st25" d="M489.7,220.9c-0.6,0-1.3-0.2-1.4-0.8c-0.3,0.2-0.9,0.9-2.2,0.9c-1.2,0-1.8-0.6-1.8-1.8c0-1.6,1.4-1.9,2.5-2
			h1.5v-0.9c0-1-0.5-1.2-1.7-1.2c-0.6,0-1.3,0.2-1.5,0.3l-0.2-0.7c0.2-0.1,1.1-0.4,2-0.4c1.3,0,2.3,0.4,2.3,1.7v3.7
			c0,0.5,0.3,0.6,0.6,0.6L489.7,220.9z M488.2,217.7l-1.5,0.1c-1.1,0-1.6,0.6-1.6,1.2c0,0.9,0.4,1.1,1.2,1.1c0.8,0,1.8-0.6,1.9-0.7
			V217.7z"/>
		<path class="st25" d="M493.7,223.4h-0.9l1-2.6h-0.4l-2.3-6.5h1l2,5.9l0,0l2.3-5.9h0.9L493.7,223.4z"/>
		<path class="st25" d="M508.3,220.9c-1,0-1.7-0.1-2.2-0.3l0.2-0.8c0.5,0.2,1.2,0.3,1.9,0.3c1,0,2-0.2,2-1c0-1.5-3.9-0.9-3.9-3.3
			c0-1.3,1.1-1.8,2.4-1.8c0.8,0,1.5,0.1,2,0.3l-0.2,0.7c-0.5-0.2-1.1-0.3-1.8-0.3c-0.8,0-1.4,0.3-1.4,0.9c0,1.6,3.9,1.1,3.9,3.3
			C511.1,220.6,509.4,220.9,508.3,220.9z"/>
		<path class="st25" d="M515.8,220.9c-1.8,0-2.8-1.2-2.8-3.3c0-2.3,1.2-3.5,2.9-3.5c1.9,0,2.8,1.2,2.8,3.4
			C518.6,219.8,517.5,220.9,515.8,220.9z M515.8,214.9c-1.5,0-1.9,1.4-1.9,2.7c0,1.4,0.4,2.6,1.9,2.6s1.8-1.3,1.8-2.6
			C517.7,216.3,517.4,214.9,515.8,214.9z"/>
		<path class="st25" d="M524.6,220.8V220c-0.5,0.3-1.2,0.9-2.2,0.9c-1.8,0-1.9-1.4-1.9-2.5v-4.2h0.9v4c0,1,0,1.8,1.2,1.8
			c0.8,0,1.7-0.6,2-0.8v-5h0.9v6.5h-0.9V220.8z"/>
		<path class="st25" d="M531.8,220.8v-4c0-1.1-0.1-1.8-1.3-1.8c-0.8,0-1.7,0.6-1.9,0.8v5.1h-0.9v-6.5h0.9v0.7
			c0.4-0.3,1.1-0.9,2.2-0.9c1.9,0,2,1.4,2,2.5v4.2h-1V220.8z"/>
		<path class="st25" d="M539,220.8v-0.7c-0.4,0.4-1.1,0.8-1.7,0.8c-1.1,0-2.6-0.4-2.6-3.3c0-2.3,1.3-3.5,3-3.5c0.6,0,0.9,0,1.3,0.2
			v-2.5h0.9v9H539z M539,215.1c-0.3-0.1-0.7-0.2-1.3-0.2c-1.5,0-2.1,1.4-2.1,2.7c0,1.8,0.7,2.5,1.8,2.5c0.6,0,1.4-0.5,1.6-0.7V215.1
			z"/>
	</g>
	<g>
		<g>
			<defs>
				<path id="SVGID_41_" d="M542.5,261H344.2c-1.9,0-3.4-1.5-3.4-3.4v-15.9c0-1.9,1.5-3.4,3.4-3.4h198.3c1.9,0,3.4,1.5,3.4,3.4v15.9
					C545.9,259.4,544.4,261,542.5,261z"/>
			</defs>
			<clipPath id="SVGID_42_">
				<use xlink:href="#SVGID_41_"  style="overflow:visible;"/>
			</clipPath>
			<rect x="340.7" y="238.2" class="st26" width="48.4" height="22.7"/>
		</g>
		<g>
			<defs>
				<path id="SVGID_43_" d="M542.5,261H344.2c-1.9,0-3.4-1.5-3.4-3.4v-15.9c0-1.9,1.5-3.4,3.4-3.4h198.3c1.9,0,3.4,1.5,3.4,3.4v15.9
					C545.9,259.4,544.4,261,542.5,261z"/>
			</defs>
			<clipPath id="SVGID_44_">
				<use xlink:href="#SVGID_43_"  style="overflow:visible;"/>
			</clipPath>
			<rect x="377" y="238.2" class="st27" width="12.1" height="22.7"/>
		</g>
		<g>
			<defs>
				<path id="SVGID_45_" d="M542.5,261H344.2c-1.9,0-3.4-1.5-3.4-3.4v-15.9c0-1.9,1.5-3.4,3.4-3.4h198.3c1.9,0,3.4,1.5,3.4,3.4v15.9
					C545.9,259.4,544.4,261,542.5,261z"/>
			</defs>
			<clipPath id="SVGID_46_">
				<use xlink:href="#SVGID_45_"  style="overflow:visible;"/>
			</clipPath>
			<rect x="393.2" y="238.2" class="st28" width="2.3" height="22.7"/>
		</g>
		<g>
			<defs>
				<path id="SVGID_47_" d="M542.5,261H344.2c-1.9,0-3.4-1.5-3.4-3.4v-15.9c0-1.9,1.5-3.4,3.4-3.4h198.3c1.9,0,3.4,1.5,3.4,3.4v15.9
					C545.9,259.4,544.4,261,542.5,261z"/>
			</defs>
			<clipPath id="SVGID_48_">
				<use xlink:href="#SVGID_47_"  style="overflow:visible;"/>
			</clipPath>
			<rect x="405.3" y="238.2" class="st29" width="3.1" height="22.7"/>
		</g>
		<g>
			<defs>
				<path id="SVGID_49_" d="M542.5,261H344.2c-1.9,0-3.4-1.5-3.4-3.4v-15.9c0-1.9,1.5-3.4,3.4-3.4h198.3c1.9,0,3.4,1.5,3.4,3.4v15.9
					C545.9,259.4,544.4,261,542.5,261z"/>
			</defs>
			<clipPath id="SVGID_50_">
				<use xlink:href="#SVGID_49_"  style="overflow:visible;"/>
			</clipPath>
			<rect x="406.4" y="238.2" class="st30" width="3.1" height="22.7"/>
		</g>
		<g>
			<defs>
				<path id="SVGID_51_" d="M542.5,261H344.2c-1.9,0-3.4-1.5-3.4-3.4v-15.9c0-1.9,1.5-3.4,3.4-3.4h198.3c1.9,0,3.4,1.5,3.4,3.4v15.9
					C545.9,259.4,544.4,261,542.5,261z"/>
			</defs>
			<clipPath id="SVGID_52_">
				<use xlink:href="#SVGID_51_"  style="overflow:visible;"/>
			</clipPath>
			<rect x="407.5" y="238.2" class="st31" width="3.1" height="22.7"/>
		</g>
		<g>
			<defs>
				<path id="SVGID_53_" d="M542.5,261H344.2c-1.9,0-3.4-1.5-3.4-3.4v-15.9c0-1.9,1.5-3.4,3.4-3.4h198.3c1.9,0,3.4,1.5,3.4,3.4v15.9
					C545.9,259.4,544.4,261,542.5,261z"/>
			</defs>
			<clipPath id="SVGID_54_">
				<use xlink:href="#SVGID_53_"  style="overflow:visible;"/>
			</clipPath>
			<rect x="411.6" y="238.2" class="st32" width="3.1" height="22.7"/>
		</g>
		<g>
			<defs>
				<path id="SVGID_55_" d="M542.5,261H344.2c-1.9,0-3.4-1.5-3.4-3.4v-15.9c0-1.9,1.5-3.4,3.4-3.4h198.3c1.9,0,3.4,1.5,3.4,3.4v15.9
					C545.9,259.4,544.4,261,542.5,261z"/>
			</defs>
			<clipPath id="SVGID_56_">
				<use xlink:href="#SVGID_55_"  style="overflow:visible;"/>
			</clipPath>
			<rect x="415.7" y="238.2" class="st33" width="0.7" height="22.7"/>
		</g>
		<g>
			<defs>
				<path id="SVGID_57_" d="M542.5,261H344.2c-1.9,0-3.4-1.5-3.4-3.4v-15.9c0-1.9,1.5-3.4,3.4-3.4h198.3c1.9,0,3.4,1.5,3.4,3.4v15.9
					C545.9,259.4,544.4,261,542.5,261z"/>
			</defs>
			<clipPath id="SVGID_58_">
				<use xlink:href="#SVGID_57_"  style="overflow:visible;"/>
			</clipPath>
			<rect x="418.7" y="238.2" class="st34" width="1.1" height="22.7"/>
		</g>
		<g>
			<defs>
				<path id="SVGID_59_" d="M542.5,261H344.2c-1.9,0-3.4-1.5-3.4-3.4v-15.9c0-1.9,1.5-3.4,3.4-3.4h198.3c1.9,0,3.4,1.5,3.4,3.4v15.9
					C545.9,259.4,544.4,261,542.5,261z"/>
			</defs>
			<clipPath id="SVGID_60_">
				<use xlink:href="#SVGID_59_"  style="overflow:visible;"/>
			</clipPath>
			<rect x="424" y="238.2" class="st35" width="25.2" height="22.7"/>
		</g>
		<g>
			<defs>
				<path id="SVGID_61_" d="M542.5,261H344.2c-1.9,0-3.4-1.5-3.4-3.4v-15.9c0-1.9,1.5-3.4,3.4-3.4h198.3c1.9,0,3.4,1.5,3.4,3.4v15.9
					C545.9,259.4,544.4,261,542.5,261z"/>
			</defs>
			<clipPath id="SVGID_62_">
				<use xlink:href="#SVGID_61_"  style="overflow:visible;"/>
			</clipPath>
			<rect x="447.9" y="238.2" class="st36" width="28.7" height="22.7"/>
		</g>
		<g>
			<defs>
				<path id="SVGID_63_" d="M542.5,261H344.2c-1.9,0-3.4-1.5-3.4-3.4v-15.9c0-1.9,1.5-3.4,3.4-3.4h198.3c1.9,0,3.4,1.5,3.4,3.4v15.9
					C545.9,259.4,544.4,261,542.5,261z"/>
			</defs>
			<clipPath id="SVGID_64_">
				<use xlink:href="#SVGID_63_"  style="overflow:visible;"/>
			</clipPath>
			<rect x="481.9" y="238.2" class="st37" width="14.9" height="22.7"/>
		</g>
		<g>
			<defs>
				<path id="SVGID_65_" d="M542.5,261H344.2c-1.9,0-3.4-1.5-3.4-3.4v-15.9c0-1.9,1.5-3.4,3.4-3.4h198.3c1.9,0,3.4,1.5,3.4,3.4v15.9
					C545.9,259.4,544.4,261,542.5,261z"/>
			</defs>
			<clipPath id="SVGID_66_">
				<use xlink:href="#SVGID_65_"  style="overflow:visible;"/>
			</clipPath>
			<rect x="495.2" y="238.2" class="st38" width="51.8" height="22.7"/>
		</g>
		<g>
			<defs>
				<path id="SVGID_67_" d="M542.5,261H344.2c-1.9,0-3.4-1.5-3.4-3.4v-15.9c0-1.9,1.5-3.4,3.4-3.4h198.3c1.9,0,3.4,1.5,3.4,3.4v15.9
					C545.9,259.4,544.4,261,542.5,261z"/>
			</defs>
			<clipPath id="SVGID_68_">
				<use xlink:href="#SVGID_67_"  style="overflow:visible;"/>
			</clipPath>
			<rect x="478.1" y="238.2" class="st39" width="0.7" height="22.7"/>
		</g>
		<g>
			<defs>
				<path id="SVGID_69_" d="M542.5,261H344.2c-1.9,0-3.4-1.5-3.4-3.4v-15.9c0-1.9,1.5-3.4,3.4-3.4h198.3c1.9,0,3.4,1.5,3.4,3.4v15.9
					C545.9,259.4,544.4,261,542.5,261z"/>
			</defs>
			<clipPath id="SVGID_70_">
				<use xlink:href="#SVGID_69_"  style="overflow:visible;"/>
			</clipPath>
			<rect x="480.5" y="238.2" class="st40" width="1" height="22.7"/>
		</g>
	</g>
	<g>
		<path class="st20" d="M543.7,236.3c2.4,0,4.4,2,4.4,4.4v17.7c0,2.4-2,4.4-4.4,4.4H343c-2.4,0-4.4-2-4.4-4.4v-17.7
			c0-2.4,2-4.4,4.4-4.4H543.7 M543.7,235.3H343c-3,0-5.4,2.4-5.4,5.4v17.7c0,3,2.4,5.4,5.4,5.4h200.7c3,0,5.4-2.4,5.4-5.4v-17.7
			C549.1,237.7,546.6,235.3,543.7,235.3L543.7,235.3z"/>
	</g>
	<g>
		<path class="st20" d="M302,254.4c-2.8,0-4-1.2-4-4.2c0-2.7,1.4-4.3,3.7-4.3c1.3,0,2,0.3,2.7,0.7l-0.3,0.6
			c-0.7-0.4-1.4-0.6-2.4-0.6c-1.7,0-2.8,1.3-2.8,3.5c0,2.4,0.8,3.5,3.3,3.5c1,0,1.8-0.2,2.1-0.3l0.2,0.7
			C304.1,254.1,303.4,254.4,302,254.4z"/>
		<path class="st20" d="M309.6,254.3c-0.8,0-1.4,0-1.8-0.1v3.3H307V246h0.8v0.7c0.6-0.4,1.4-0.8,2.4-0.8c2.1,0,3.3,1.4,3.3,4
			C313.4,253.3,311.6,254.3,309.6,254.3z M312.5,250.3c0-1.8-0.4-3.6-2.5-3.6c-0.9,0-2,0.7-2.2,0.9v5.9c0.4,0.1,0.8,0.1,1.9,0.1
			C311.6,253.6,312.5,252.2,312.5,250.3L312.5,250.3z"/>
		<path class="st20" d="M321.5,254.2v-1c-0.7,0.4-1.6,1.2-3,1.2c-2.2,0-2.4-1.8-2.4-3.1V246h0.8v5c0,1.3,0,2.5,1.7,2.5
			c1.1,0,2.5-0.9,2.8-1.2V246h0.8v8.2H321.5z"/>
		<path class="st20" d="M324.8,254.2v-0.8c0.1-0.2,5.1-4.4,5.1-6.9c0-1.7-0.7-2.3-2.1-2.3c-1.2,0-2.1,0.6-2.3,0.7l-0.4-0.6
			c0.4-0.3,1.3-0.9,2.7-0.9c2.4,0,2.9,1.6,2.9,2.9c0,2.3-2.2,4.6-4.9,7h5.6v0.8h-6.6V254.2z"/>
	</g>
	<g>
		<path class="st25" d="M429,253.4c-0.6,0-1,0-1.3-0.1v2.6h-0.9v-9.2h0.9v0.6c0.4-0.3,1.1-0.7,1.8-0.7c1.6,0,2.5,1,2.5,3.2
			C432,252.6,430.7,253.4,429,253.4z M429.3,247.4c-0.6,0-1.4,0.4-1.6,0.6v4.4c0.3,0,0.6,0.1,1.3,0.1c1.4,0,2-1.1,2-2.5
			C431.1,248.7,430.8,247.4,429.3,247.4z"/>
		<path class="st25" d="M439.6,247.9c-0.4-0.2-0.8-0.4-1.5-0.4c-0.8,0-1.4,0.5-1.8,0.9v4.1h2.4v0.8h-5v-0.8h1.7v-5h-1.7v-0.8h2.7
			v0.8c0.3-0.4,0.9-0.9,1.9-0.9c0.9,0,1.3,0.3,1.6,0.5L439.6,247.9z"/>
		<path class="st25" d="M443.8,253.4c-1.8,0-2.8-1.2-2.8-3.3c0-2.3,1.2-3.5,2.9-3.5c1.9,0,2.8,1.2,2.8,3.4
			C446.6,252.3,445.5,253.4,443.8,253.4z M443.8,247.4c-1.5,0-1.9,1.4-1.9,2.7c0,1.4,0.4,2.6,1.9,2.6s1.8-1.3,1.8-2.6
			C445.7,248.8,445.4,247.4,443.8,247.4z"/>
		<path class="st25" d="M451.7,253.4c-2.3,0-3.3-1-3.3-3.4c0-2.1,1.2-3.4,3.1-3.4c1,0,1.6,0.2,2.2,0.6l-0.3,0.7
			c-0.5-0.3-1.1-0.4-1.9-0.4c-1.2,0-2.1,0.9-2.1,2.6c0,1.8,0.6,2.6,2.5,2.6c0.7,0,1.3-0.1,1.7-0.2l0.2,0.8
			C453.3,253.2,452.7,253.4,451.7,253.4z"/>
		<path class="st25" d="M456.5,250.2c0.1,2.1,1.1,2.3,2.4,2.3c0.5,0,1.3-0.1,1.7-0.2l0.2,0.8c-0.3,0.1-1,0.3-2.1,0.3
			c-1.9,0-3.1-0.8-3.1-3.3c0-2.7,1.3-3.5,3-3.5c1.6,0,2.4,1.1,2.4,3.3v0.3L456.5,250.2L456.5,250.2z M458.3,247.3
			c-1,0-1.7,0.7-1.8,2.2h3.4C459.9,248.1,459.3,247.3,458.3,247.3z"/>
		<path class="st25" d="M465.1,253.4c-1,0-1.7-0.1-2.2-0.3l0.2-0.8c0.5,0.2,1.2,0.3,1.9,0.3c1,0,2-0.2,2-1c0-1.5-3.9-0.9-3.9-3.3
			c0-1.3,1.1-1.8,2.4-1.8c0.8,0,1.5,0.1,2,0.3l-0.2,0.7c-0.5-0.2-1.1-0.3-1.8-0.3c-0.8,0-1.4,0.3-1.4,0.9c0,1.6,3.9,1.1,3.9,3.3
			C467.9,253.1,466.2,253.4,465.1,253.4z"/>
		<path class="st25" d="M472.3,253.4c-1,0-1.7-0.1-2.2-0.3l0.2-0.8c0.5,0.2,1.2,0.3,1.9,0.3c1,0,2-0.2,2-1c0-1.5-3.9-0.9-3.9-3.3
			c0-1.3,1.1-1.8,2.4-1.8c0.8,0,1.5,0.1,2,0.3l-0.2,0.7c-0.5-0.2-1.1-0.3-1.8-0.3c-0.8,0-1.4,0.3-1.4,0.9c0,1.6,3.9,1.1,3.9,3.3
			C475.1,253.1,473.4,253.4,472.3,253.4z"/>
		<path class="st25" d="M489.1,253.3v-4.2c0-1,0-1.8-0.7-1.8c-0.4,0-0.8,0.5-0.9,0.7c0,0.3,0,0.6,0,0.9v4.4h-0.8v-4.4
			c0-0.8,0-1.6-0.6-1.6c-0.4,0-0.8,0.6-1,0.9v5.1h-0.9v-6.5h0.9v0.7c0.2-0.4,0.6-0.9,1.2-0.9c0.7,0,1,0.4,1.1,0.9
			c0.3-0.5,0.6-0.9,1.3-0.9c1.3,0,1.4,1.1,1.4,2.3v4.4L489.1,253.3L489.1,253.3z"/>
		<path class="st25" d="M492.5,250.2c0.1,2.1,1.1,2.3,2.4,2.3c0.5,0,1.3-0.1,1.7-0.2l0.2,0.8c-0.3,0.1-1,0.3-2.1,0.3
			c-1.9,0-3.1-0.8-3.1-3.3c0-2.7,1.3-3.5,3-3.5c1.6,0,2.4,1.1,2.4,3.3v0.3L492.5,250.2L492.5,250.2z M494.3,247.3
			c-1,0-1.7,0.7-1.8,2.2h3.4C495.9,248.1,495.3,247.3,494.3,247.3z"/>
		<path class="st25" d="M501.1,253.4c-1,0-1.7-0.1-2.2-0.3l0.2-0.8c0.5,0.2,1.2,0.3,1.9,0.3c1,0,2-0.2,2-1c0-1.5-3.9-0.9-3.9-3.3
			c0-1.3,1.1-1.8,2.4-1.8c0.8,0,1.5,0.1,2,0.3l-0.2,0.7c-0.5-0.2-1.1-0.3-1.8-0.3c-0.8,0-1.4,0.3-1.4,0.9c0,1.6,3.9,1.1,3.9,3.3
			C503.9,253.1,502.2,253.4,501.1,253.4z"/>
		<path class="st25" d="M508.3,253.4c-1,0-1.7-0.1-2.2-0.3l0.2-0.8c0.5,0.2,1.2,0.3,1.9,0.3c1,0,2-0.2,2-1c0-1.5-3.9-0.9-3.9-3.3
			c0-1.3,1.1-1.8,2.4-1.8c0.8,0,1.5,0.1,2,0.3l-0.2,0.7c-0.5-0.2-1.1-0.3-1.8-0.3c-0.8,0-1.4,0.3-1.4,0.9c0,1.6,3.9,1.1,3.9,3.3
			C511.1,253.1,509.4,253.4,508.3,253.4z"/>
		<path class="st25" d="M518.5,253.4c-0.6,0-1.3-0.2-1.4-0.8c-0.3,0.2-0.9,0.9-2.2,0.9c-1.2,0-1.8-0.6-1.8-1.8c0-1.6,1.4-1.9,2.5-2
			h1.5v-0.9c0-1-0.5-1.2-1.7-1.2c-0.6,0-1.3,0.2-1.5,0.3l-0.2-0.7c0.2-0.1,1.1-0.4,2-0.4c1.3,0,2.3,0.4,2.3,1.7v3.7
			c0,0.5,0.3,0.6,0.6,0.6L518.5,253.4z M517,250.2l-1.5,0.1c-1.1,0-1.6,0.6-1.6,1.2c0,0.9,0.4,1.1,1.2,1.1s1.8-0.6,1.9-0.7
			L517,250.2L517,250.2z"/>
		<path class="st25" d="M522.9,256c-1,0-1.8-0.2-2.1-0.2l0.2-0.8c0.3,0.1,1.2,0.2,1.7,0.2c1.1,0,2-0.2,2-1.7v-0.7
			c-0.4,0.4-0.9,0.6-1.6,0.6c-1.3,0-2.7-0.4-2.7-3.3c0-2.3,1.3-3.4,3-3.4c0.8,0,1.5,0.1,2.2,0.2v6.9
			C525.6,255.3,524.4,256,522.9,256z M524.6,247.5c-0.3-0.1-0.7-0.1-1.3-0.1c-1.6,0-2.1,1.2-2.1,2.7c0,1.8,0.6,2.5,1.9,2.5
			c0.6,0,1.2-0.4,1.4-0.6L524.6,247.5L524.6,247.5z"/>
		<path class="st25" d="M528.5,250.2c0.1,2.1,1.1,2.3,2.4,2.3c0.5,0,1.3-0.1,1.7-0.2l0.2,0.8c-0.3,0.1-1,0.3-2.1,0.3
			c-1.9,0-3.1-0.8-3.1-3.3c0-2.7,1.3-3.5,3-3.5c1.6,0,2.4,1.1,2.4,3.3v0.3L528.5,250.2L528.5,250.2z M530.3,247.3
			c-1,0-1.7,0.7-1.8,2.2h3.4C531.9,248.1,531.3,247.3,530.3,247.3z"/>
		<path class="st25" d="M537.1,253.4c-1,0-1.7-0.1-2.2-0.3l0.2-0.8c0.5,0.2,1.2,0.3,1.9,0.3c1,0,2-0.2,2-1c0-1.5-3.9-0.9-3.9-3.3
			c0-1.3,1.1-1.8,2.4-1.8c0.8,0,1.5,0.1,2,0.3l-0.2,0.7c-0.5-0.2-1.1-0.3-1.8-0.3c-0.8,0-1.4,0.3-1.4,0.9c0,1.6,3.9,1.1,3.9,3.3
			C539.9,253.1,538.2,253.4,537.1,253.4z"/>
	</g>
</g>
<g>
	<path class="st20" d="M300,34.4c-1.6,0-2.8-0.6-2.8-3v-5.7h0.7v5.6c0,2,0.9,2.4,2.1,2.4c1.3,0,2.1-0.5,2.1-2.7v-5.3h0.7V31
		C302.8,33.8,301.4,34.4,300,34.4z"/>
	<path class="st20" d="M306.9,34.4c-1,0-1.7-0.2-2.2-0.4l0.2-0.6c0.5,0.2,1.1,0.4,1.9,0.4c1,0,2.1-0.2,2.1-1.1c0-1.6-4-1.1-4-3.4
		c0-1.2,1-1.7,2.2-1.7c0.8,0,1.4,0.1,2,0.3l-0.2,0.5c-0.5-0.2-1.1-0.3-1.8-0.3c-0.9,0-1.5,0.3-1.5,1.1c0,1.8,4,1.3,4,3.4
		C309.6,34.1,308,34.4,306.9,34.4z"/>
	<path class="st20" d="M312.4,31.1c0,2.4,1.2,2.7,2.7,2.7c0.5,0,1.3-0.1,1.5-0.2l0.1,0.6c-0.2,0.1-0.8,0.3-2,0.3
		c-1.8,0-3.1-0.8-3.1-3.3c0-2.6,1.4-3.5,2.9-3.5s2.4,1,2.4,3.2v0.2C316.9,31.1,312.4,31.1,312.4,31.1z M314.6,28.1
		c-1.1,0-2,0.8-2.1,2.4h3.9C316.3,29.1,315.7,28.1,314.6,28.1z"/>
	<path class="st20" d="M331,34.3v-4.1c0-1.1,0-2-0.8-2c-0.5,0-0.9,0.6-1.1,0.9c0,0.3,0,0.6,0,0.9v4.3h-0.6V30c0-0.9,0-1.8-0.7-1.8
		c-0.5,0-1,0.8-1.2,1.1v5h-0.7v-6.5h0.7v0.8c0.2-0.4,0.6-0.9,1.2-0.9c0.7,0,1,0.4,1.1,0.9c0.3-0.5,0.6-0.9,1.3-0.9
		c1.4,0,1.4,1.3,1.4,2.4v4.3H331V34.3z"/>
	<path class="st20" d="M337.8,34.3v-0.8c-0.5,0.3-1.3,0.9-2.4,0.9c-1.8,0-1.9-1.5-1.9-2.5v-4.2h0.7v4c0,1.1,0,2,1.4,2
		c0.9,0,2-0.7,2.3-0.9v-5.1h0.6v6.5h-0.7V34.3z"/>
	<path class="st20" d="M340.4,34.3v-0.6h2.5v-7.9h-2.3v-0.6h2.9v8.4h2.5v0.6h-5.6V34.3z"/>
	<path class="st20" d="M351.1,34.4c-1.2,0-2.1-0.2-2.1-1.8v-4.3h-1.6v-0.6h1.6v-1.3h0.6v1.3h3.7v0.6h-3.7v4.1c0,1,0.4,1.3,1.5,1.3
		c0.8,0,1.5-0.2,2.2-0.4l0.2,0.5C352.8,34.1,352,34.4,351.1,34.4z"/>
	<path class="st20" d="M355.1,34.3v-0.6h2.5v-5.3h-2.3v-0.6h2.9v5.9h2.5v0.6H355.1z M357.9,26.4l-0.6-0.7l0.6-0.6l0.7,0.6
		L357.9,26.4z"/>
	<path class="st20" d="M364.4,34.4c-0.6,0-1.1,0-1.5-0.1v2.6h-0.7v-9.2h0.7v0.6c0.5-0.3,1.2-0.6,1.9-0.6c1.7,0,2.6,1.1,2.6,3.2
		C367.4,33.6,365.9,34.4,364.4,34.4z M366.7,31.1c0-1.4-0.3-2.9-2-2.9c-0.7,0-1.6,0.5-1.8,0.7v4.7c0.3,0,0.6,0.1,1.5,0.1
		C365.9,33.8,366.7,32.7,366.7,31.1L366.7,31.1z"/>
	<path class="st20" d="M369.2,34.3v-0.6h2.5v-7.9h-2.3v-0.6h2.9v8.4h2.5v0.6h-5.6V34.3z"/>
	<path class="st20" d="M377.2,31.1c0,2.4,1.2,2.7,2.7,2.7c0.5,0,1.3-0.1,1.5-0.2l0.1,0.6c-0.2,0.1-0.8,0.3-2,0.3
		c-1.8,0-3.1-0.8-3.1-3.3c0-2.6,1.4-3.5,2.9-3.5s2.4,1,2.4,3.2v0.2C381.7,31.1,377.2,31.1,377.2,31.1z M379.4,28.1
		c-1.1,0-2,0.8-2.1,2.4h3.9C381.1,29.1,380.5,28.1,379.4,28.1z"/>
	<path class="st20" d="M394.3,34.4c-1.2,0-2.1-0.2-2.1-1.8v-4.3h-1.6v-0.6h1.6v-1.3h0.6v1.3h3.7v0.6h-3.7v4.1c0,1,0.4,1.3,1.5,1.3
		c0.8,0,1.5-0.2,2.2-0.4l0.2,0.5C396,34.1,395.2,34.4,394.3,34.4z"/>
	<path class="st20" d="M402.7,34.3v-4.1c0-1.2-0.1-2-1.5-2c-0.8,0-1.9,0.7-2.2,0.9v5.2h-0.7v-9h0.7v3.3c0.5-0.3,1.2-0.9,2.3-0.9
		c1.9,0,2,1.4,2,2.4v4.3L402.7,34.3L402.7,34.3z"/>
	<path class="st20" d="M411,28.7c-0.4-0.2-0.9-0.5-1.6-0.5c-0.9,0-1.5,0.6-1.8,1.1v4.4h2.4v0.6h-4.9v-0.6h1.8v-5.3h-1.8v-0.6h2.5
		v0.8c0.3-0.4,0.9-0.9,1.9-0.9c1.1,0,1.6,0.4,1.9,0.6L411,28.7z"/>
	<path class="st20" d="M413.2,31.1c0,2.4,1.2,2.7,2.7,2.7c0.5,0,1.3-0.1,1.5-0.2l0.1,0.6c-0.2,0.1-0.8,0.3-2,0.3
		c-1.8,0-3.1-0.8-3.1-3.3c0-2.6,1.4-3.5,2.9-3.5s2.4,1,2.4,3.2v0.2C417.7,31.1,413.2,31.1,413.2,31.1z M415.3,28.1
		c-1.1,0-2,0.8-2.1,2.4h3.9C417.1,29.1,416.5,28.1,415.3,28.1z"/>
	<path class="st20" d="M425,34.4c-0.5,0-1.1-0.2-1.2-0.9c-0.2,0.2-1,0.9-2.4,0.9c-1.1,0-1.8-0.6-1.8-1.8c0-1.6,1.4-1.9,2.4-2h1.7v-1
		c0-1.2-0.6-1.4-1.8-1.4c-0.6,0-1.3,0.2-1.5,0.3l-0.1-0.6c0.2-0.1,1-0.3,1.9-0.3c1.3,0,2.2,0.4,2.2,1.7v3.8c0,0.6,0.4,0.7,0.6,0.7
		L425,34.4z M423.8,31.1l-1.7,0.1c-1.1,0-1.7,0.6-1.7,1.3c0,1,0.5,1.3,1.3,1.3c0.9,0,2.1-0.8,2.1-0.9L423.8,31.1L423.8,31.1z"/>
	<path class="st20" d="M431.5,34.3v-0.7c-0.4,0.4-1.2,0.8-1.8,0.8c-1.1,0-2.7-0.4-2.7-3.3c0-2.3,1.4-3.5,3-3.5c0.7,0,1,0,1.5,0.2
		v-2.5h0.7v9H431.5z M431.5,28.4c-0.3-0.1-0.8-0.2-1.5-0.2c-1.7,0-2.3,1.5-2.3,3c0,1.9,0.8,2.7,2,2.7c0.7,0,1.6-0.6,1.8-0.8V28.4z"
		/>
	<path class="st20" d="M436.5,34.4c-1,0-1.7-0.2-2.2-0.4l0.2-0.6c0.5,0.2,1.1,0.4,1.9,0.4c1,0,2.1-0.2,2.1-1.1c0-1.6-4-1.1-4-3.4
		c0-1.2,1-1.7,2.2-1.7c0.8,0,1.4,0.1,2,0.3l-0.2,0.5c-0.5-0.2-1.1-0.3-1.8-0.3c-0.9,0-1.5,0.3-1.5,1.1c0,1.8,4,1.3,4,3.4
		C439.2,34.1,437.6,34.4,436.5,34.4z"/>
	<path class="st20" d="M444,35.9h-0.6c0.2-0.3,0.5-1.1,0.5-1.7v-1.5h0.8v0.8C444.7,35,444.2,35.6,444,35.9z"/>
	<path class="st20" d="M458,34.4c-0.6,0-1.1,0-1.5-0.1v2.6h-0.7v-9.2h0.7v0.6c0.5-0.3,1.2-0.6,1.9-0.6c1.7,0,2.6,1.1,2.6,3.2
		C461,33.6,459.5,34.4,458,34.4z M460.3,31.1c0-1.4-0.3-2.9-2-2.9c-0.7,0-1.6,0.5-1.8,0.7v4.7c0.3,0,0.6,0.1,1.5,0.1
		C459.5,33.8,460.3,32.7,460.3,31.1L460.3,31.1z"/>
	<path class="st20" d="M468.6,28.7c-0.4-0.2-0.9-0.5-1.6-0.5c-0.9,0-1.5,0.6-1.8,1.1v4.4h2.4v0.6h-4.9v-0.6h1.8v-5.3h-1.8v-0.6h2.5
		v0.8c0.3-0.4,0.9-0.9,1.9-0.9c1.1,0,1.6,0.4,1.9,0.6L468.6,28.7z"/>
	<path class="st20" d="M472.8,34.4c-1.7,0-2.8-1.1-2.8-3.3c0-2.3,1.2-3.5,2.9-3.5c1.8,0,2.8,1.2,2.8,3.4
		C475.6,33.3,474.4,34.4,472.8,34.4z M475,31c0-1.2-0.4-2.9-2.1-2.9s-2.2,1.6-2.2,2.9c0,1.4,0.5,2.8,2.2,2.8
		C474.5,33.8,474.9,32.4,475,31L475,31z"/>
	<path class="st20" d="M480.7,34.4c-2.2,0-3.2-1-3.2-3.4c0-2.1,1.2-3.4,2.9-3.4c1,0,1.6,0.3,2.2,0.6l-0.3,0.5
		c-0.5-0.3-1.1-0.5-2-0.5c-1.4,0-2.2,1.1-2.2,2.8c0,1.9,0.6,2.8,2.6,2.8c0.8,0,1.4-0.2,1.7-0.3l0.2,0.6
		C482.3,34.2,481.7,34.4,480.7,34.4z"/>
	<path class="st20" d="M485.2,31.1c0,2.4,1.2,2.7,2.7,2.7c0.5,0,1.3-0.1,1.5-0.2l0.1,0.6c-0.2,0.1-0.8,0.3-2,0.3
		c-1.8,0-3.1-0.8-3.1-3.3c0-2.6,1.4-3.5,2.9-3.5s2.4,1,2.4,3.2v0.2C489.7,31.1,485.2,31.1,485.2,31.1z M487.3,28.1
		c-1.1,0-2,0.8-2.1,2.4h3.9C489.1,29.1,488.5,28.1,487.3,28.1z"/>
	<path class="st20" d="M494.1,34.4c-1,0-1.7-0.2-2.2-0.4l0.2-0.6c0.5,0.2,1.1,0.4,1.9,0.4c1,0,2.1-0.2,2.1-1.1c0-1.6-4-1.1-4-3.4
		c0-1.2,1-1.7,2.2-1.7c0.8,0,1.4,0.1,2,0.3l-0.2,0.5c-0.5-0.2-1.1-0.3-1.8-0.3c-0.9,0-1.5,0.3-1.5,1.1c0,1.8,4,1.3,4,3.4
		C496.8,34.1,495.2,34.4,494.1,34.4z"/>
	<path class="st20" d="M501.3,34.4c-1,0-1.7-0.2-2.2-0.4l0.2-0.6c0.5,0.2,1.1,0.4,1.9,0.4c1,0,2.1-0.2,2.1-1.1c0-1.6-4-1.1-4-3.4
		c0-1.2,1-1.7,2.2-1.7c0.8,0,1.4,0.1,2,0.3l-0.2,0.5c-0.5-0.2-1.1-0.3-1.8-0.3c-0.9,0-1.5,0.3-1.5,1.1c0,1.8,4,1.3,4,3.4
		C504,34.1,502.4,34.4,501.3,34.4z"/>
	<path class="st20" d="M506.8,31.1c0,2.4,1.2,2.7,2.7,2.7c0.5,0,1.3-0.1,1.5-0.2l0.1,0.6c-0.2,0.1-0.8,0.3-2,0.3
		c-1.8,0-3.1-0.8-3.1-3.3c0-2.6,1.4-3.5,2.9-3.5s2.4,1,2.4,3.2v0.2C511.3,31.1,506.8,31.1,506.8,31.1z M508.9,28.1
		c-1.1,0-2,0.8-2.1,2.4h3.9C510.7,29.1,510.1,28.1,508.9,28.1z"/>
	<path class="st20" d="M515.7,34.4c-1,0-1.7-0.2-2.2-0.4l0.2-0.6c0.5,0.2,1.1,0.4,1.9,0.4c1,0,2.1-0.2,2.1-1.1c0-1.6-4-1.1-4-3.4
		c0-1.2,1-1.7,2.2-1.7c0.8,0,1.4,0.1,2,0.3l-0.2,0.5c-0.5-0.2-1.1-0.3-1.8-0.3c-0.9,0-1.5,0.3-1.5,1.1c0,1.8,4,1.3,4,3.4
		C518.4,34.1,516.8,34.4,515.7,34.4z"/>
	<path class="st20" d="M523.2,35.9h-0.6c0.2-0.3,0.5-1.1,0.5-1.7v-1.5h0.8v0.8C523.9,35,523.4,35.6,523.2,35.9z"/>
	<path class="st20" d="M302.6,48.8c-0.5,0-1.1-0.2-1.2-0.9c-0.2,0.2-1,0.9-2.4,0.9c-1.1,0-1.8-0.6-1.8-1.8c0-1.6,1.4-1.9,2.4-2h1.7
		v-1c0-1.2-0.6-1.4-1.8-1.4c-0.6,0-1.3,0.2-1.5,0.3l-0.1-0.6c0.2-0.1,1-0.3,1.9-0.3c1.3,0,2.2,0.4,2.2,1.7v3.8
		c0,0.6,0.4,0.7,0.6,0.7L302.6,48.8z M301.4,45.5l-1.7,0.1c-1.1,0-1.7,0.6-1.7,1.3c0,1,0.5,1.3,1.3,1.3c0.9,0,2.1-0.8,2.1-0.9
		L301.4,45.5L301.4,45.5z"/>
	<path class="st20" d="M309.1,48.7v-4.1c0-1.2-0.1-2-1.5-2c-0.9,0-1.9,0.7-2.2,0.9v5.2h-0.7v-6.5h0.7V43c0.5-0.3,1.2-0.9,2.3-0.9
		c1.9,0,2,1.4,2,2.4v4.3h-0.6V48.7z"/>
	<path class="st20" d="M316.3,48.7V48c-0.4,0.4-1.2,0.8-1.8,0.8c-1.1,0-2.7-0.4-2.7-3.3c0-2.3,1.4-3.5,3-3.5c0.7,0,1,0,1.5,0.2v-2.5
		h0.7v9H316.3z M316.3,42.8c-0.3-0.1-0.8-0.2-1.5-0.2c-1.7,0-2.3,1.5-2.3,3c0,1.9,0.8,2.7,2,2.7c0.7,0,1.6-0.6,1.8-0.8V42.8z"/>
	<path class="st20" d="M329.5,48.8c-2.2,0-3.2-1-3.2-3.4c0-2.1,1.2-3.4,2.9-3.4c1,0,1.6,0.3,2.2,0.6l-0.3,0.5
		c-0.5-0.3-1.1-0.5-2-0.5c-1.4,0-2.2,1.1-2.2,2.8c0,1.9,0.6,2.8,2.6,2.8c0.8,0,1.4-0.2,1.7-0.3l0.2,0.6
		C331.1,48.6,330.5,48.8,329.5,48.8z"/>
	<path class="st20" d="M336,48.8c-1.7,0-2.8-1.1-2.8-3.3c0-2.3,1.2-3.5,2.9-3.5c1.8,0,2.8,1.2,2.8,3.4
		C338.8,47.7,337.6,48.8,336,48.8z M338.2,45.4c0-1.2-0.4-2.9-2.1-2.9s-2.2,1.6-2.2,2.9c0,1.4,0.5,2.8,2.2,2.8
		C337.7,48.2,338.2,46.8,338.2,45.4L338.2,45.4z"/>
	<path class="st20" d="M345.4,48.7v-4.1c0-1.1,0-2-0.8-2c-0.5,0-0.9,0.6-1.1,0.9c0,0.3,0,0.6,0,0.9v4.3h-0.6v-4.3
		c0-0.9,0-1.8-0.7-1.8c-0.5,0-1,0.8-1.2,1.1v5h-0.7v-6.5h0.7V43c0.2-0.4,0.6-0.9,1.2-0.9c0.7,0,1,0.4,1.1,0.9
		c0.3-0.5,0.6-0.9,1.3-0.9c1.4,0,1.4,1.3,1.4,2.4v4.3h-0.6V48.7z"/>
	<path class="st20" d="M350,48.8c-0.6,0-1.1,0-1.5-0.1v2.6h-0.7v-9.2h0.7v0.6c0.5-0.3,1.2-0.6,1.9-0.6c1.7,0,2.6,1.1,2.6,3.2
		C353,48,351.5,48.8,350,48.8z M352.3,45.5c0-1.4-0.3-2.9-2-2.9c-0.7,0-1.6,0.5-1.8,0.7V48c0.3,0,0.6,0.1,1.5,0.1
		C351.5,48.2,352.3,47.1,352.3,45.5L352.3,45.5z"/>
	<path class="st20" d="M359.4,48.7v-0.8c-0.5,0.3-1.3,0.9-2.4,0.9c-1.8,0-1.9-1.5-1.9-2.5v-4.2h0.7v4c0,1.1,0,2,1.4,2
		c0.9,0,2-0.7,2.3-0.9v-5.1h0.6v6.5L359.4,48.7L359.4,48.7z"/>
	<path class="st20" d="M365.5,48.8c-1.2,0-2.1-0.2-2.1-1.8v-4.3h-1.6v-0.6h1.6v-1.3h0.6v1.3h3.7v0.6H364v4.1c0,1,0.4,1.3,1.5,1.3
		c0.8,0,1.5-0.2,2.2-0.4l0.2,0.5C367.2,48.5,366.4,48.8,365.5,48.8z"/>
	<path class="st20" d="M370,45.5c0,2.4,1.2,2.7,2.7,2.7c0.5,0,1.3-0.1,1.5-0.2l0.1,0.6c-0.2,0.1-0.8,0.3-2,0.3
		c-1.8,0-3.1-0.8-3.1-3.3c0-2.6,1.4-3.5,2.9-3.5s2.4,1,2.4,3.2v0.2H370z M372.2,42.5c-1.1,0-2,0.8-2.1,2.4h3.9
		C373.9,43.5,373.3,42.5,372.2,42.5z"/>
	<path class="st20" d="M382.2,43.1c-0.4-0.2-0.9-0.5-1.6-0.5c-0.9,0-1.5,0.6-1.8,1.1v4.4h2.4v0.6h-4.9v-0.6h1.8v-5.3h-1.8v-0.6h2.5
		V43c0.3-0.4,0.9-0.9,1.9-0.9c1.1,0,1.6,0.4,1.9,0.6L382.2,43.1z"/>
	<path class="st20" d="M386.1,48.8c-1,0-1.7-0.2-2.2-0.4l0.2-0.6c0.5,0.2,1.1,0.4,1.9,0.4c1,0,2.1-0.2,2.1-1.1c0-1.6-4-1.1-4-3.4
		c0-1.2,1-1.7,2.2-1.7c0.8,0,1.4,0.1,2,0.3l-0.2,0.5c-0.5-0.2-1.1-0.3-1.8-0.3c-0.9,0-1.5,0.3-1.5,1.1c0,1.8,4,1.3,4,3.4
		C388.8,48.5,387.2,48.8,386.1,48.8z"/>
</g>
<g>
	<path class="st41" d="M78.6,140.1c-1.6,0-2.8-0.3-2.8-2.3v-5.7h-2.1v-0.8h2.1v-1.8h0.8v1.8h5v0.8h-5v5.5c0,1.4,0.5,1.8,2,1.8
		c1.1,0,2-0.2,2.9-0.6l0.2,0.7C81,139.8,79.8,140.1,78.6,140.1z"/>
	<path class="st41" d="M89.8,140v-5.4c0-1.6-0.2-2.7-2-2.7c-1.1,0-2.6,1-2.9,1.2v6.9H84v-12.1h0.9v4.4c0.6-0.4,1.6-1.2,3.1-1.2
		c2.5,0,2.6,1.9,2.6,3.2v5.7H89.8z"/>
	<path class="st41" d="M101,132.6c-0.5-0.3-1.2-0.7-2.1-0.7c-1.1,0-2,0.8-2.5,1.4v5.9h3.2v0.8h-6.5v-0.8h2.4v-7.1h-2.4v-0.8h3.3v1.1
		c0.4-0.5,1.2-1.2,2.5-1.2c1.4,0,2.1,0.5,2.5,0.7L101,132.6z"/>
	<path class="st41" d="M103.9,135.7c0.1,3.2,1.7,3.6,3.6,3.6c0.6,0,1.8-0.2,2.1-0.3l0.2,0.8c-0.3,0.1-1.1,0.4-2.6,0.4
		c-2.4,0-4.1-1-4.1-4.4c0-3.5,1.8-4.7,3.9-4.7c2,0,3.1,1.4,3.1,4.3v0.3L103.9,135.7L103.9,135.7z M106.7,131.7
		c-1.4,0-2.6,1.1-2.8,3.2h5.2C109.1,133,108.3,131.7,106.7,131.7z"/>
	<path class="st41" d="M119.6,140.1c-0.6,0-1.5-0.3-1.6-1.2c-0.3,0.2-1.3,1.2-3.2,1.2c-1.5,0-2.3-0.9-2.3-2.4c0-2.1,1.9-2.6,3.2-2.6
		h2.2v-1.3c0-1.6-0.7-1.8-2.4-1.8c-0.8,0-1.8,0.3-2,0.4l-0.2-0.7c0.2-0.1,1.3-0.5,2.6-0.5c1.7,0,2.9,0.6,2.9,2.2v5.1
		c0,0.8,0.5,0.9,0.8,1V140.1z M118,135.7l-2.3,0.1c-1.5,0.1-2.3,0.8-2.3,1.7c0,1.3,0.7,1.7,1.7,1.7c1.2,0,2.7-1,2.9-1.1
		C118,138.1,118,135.7,118,135.7z"/>
	<path class="st41" d="M128.2,140v-0.9c-0.5,0.5-1.5,1-2.4,1c-1.5,0-3.6-0.5-3.6-4.4c0-3.1,1.8-4.6,4-4.6c0.9,0,1.3,0,2,0.3V128h0.9
		v12H128.2z M128.2,132.1c-0.4-0.2-1.1-0.3-2.1-0.3c-2.2,0-3.1,2-3.1,3.9c0,2.5,1.1,3.6,2.7,3.6c1,0,2.1-0.8,2.5-1.1V132.1z"/>
	<path class="st41" d="M134.9,140.1c-1.4,0-2.2-0.2-2.9-0.5l0.3-0.8c0.6,0.3,1.4,0.5,2.6,0.5c1.4,0,2.9-0.3,2.9-1.5
		c0-2.2-5.3-1.5-5.3-4.5c0-1.6,1.3-2.2,3-2.2c1,0,1.9,0.2,2.6,0.5l-0.3,0.7c-0.7-0.2-1.4-0.4-2.4-0.4c-1.2,0-2,0.4-2,1.4
		c0,2.3,5.3,1.7,5.3,4.6C138.6,139.7,136.3,140.1,134.9,140.1z"/>
	<path class="st41" d="M154.1,140.1c-1.4,0-2.2-0.2-2.9-0.5l0.3-0.8c0.6,0.3,1.4,0.5,2.6,0.5c1.4,0,2.9-0.3,2.9-1.5
		c0-2.2-5.3-1.5-5.3-4.5c0-1.6,1.3-2.2,3-2.2c1,0,1.9,0.2,2.6,0.5l-0.3,0.7c-0.7-0.2-1.4-0.4-2.4-0.4c-1.2,0-2,0.4-2,1.4
		c0,2.3,5.3,1.7,5.3,4.6C157.8,139.7,155.5,140.1,154.1,140.1z"/>
	<path class="st41" d="M163.5,140.1c-0.8,0-1.5,0-2-0.1v3.5h-0.9v-12.3h0.9v0.7c0.6-0.4,1.5-0.9,2.5-0.9c2.2,0,3.5,1.5,3.5,4.3
		C167.6,139.1,165.6,140.1,163.5,140.1z M166.7,135.8c0-1.9-0.4-3.9-2.7-3.9c-1,0-2.1,0.7-2.4,0.9v6.3c0.4,0.1,0.8,0.2,2,0.2
		C165.6,139.3,166.6,137.8,166.7,135.8L166.7,135.8z"/>
	<path class="st41" d="M169.9,140v-0.8h3.4v-10.5h-3v-0.8h3.9v11.3h3.3v0.8H169.9z"/>
	<path class="st41" d="M180,140v-0.8h3.3V132h-3v-0.8h3.9v7.9h3.3v0.8H180V140z M183.8,129.4l-0.8-0.9l0.8-0.9l0.9,0.9L183.8,129.4z
		"/>
	<path class="st41" d="M193.8,140.1c-1.6,0-2.8-0.3-2.8-2.3v-5.7h-2.1v-0.8h2.1v-1.8h0.8v1.8h5v0.8h-5v5.5c0,1.4,0.5,1.8,2,1.8
		c1.1,0,2-0.2,2.9-0.6l0.2,0.7C196.2,139.8,195,140.1,193.8,140.1z"/>
	<path class="st41" d="M125.7,159.3c-2.3,0-3.8-1.5-3.8-4.4c0-3.1,1.6-4.7,3.9-4.7c2.5,0,3.7,1.6,3.7,4.6
		C129.5,157.9,127.9,159.3,125.7,159.3z M128.6,154.8c0-1.7-0.5-3.8-2.9-3.8c-2.3,0-2.9,2.1-2.9,3.8c0,1.9,0.7,3.7,2.9,3.7
		C128,158.6,128.6,156.6,128.6,154.8L128.6,154.8z"/>
	<path class="st41" d="M137.8,159.2v-5.4c0-1.6-0.2-2.7-2-2.7c-1.2,0-2.6,1-2.9,1.2v6.9H132v-8.7h0.9v1c0.6-0.4,1.6-1.2,3.1-1.2
		c2.5,0,2.7,1.9,2.7,3.2v5.7H137.8z"/>
	<path class="st41" d="M142.3,154.9c0.1,3.2,1.7,3.6,3.6,3.6c0.6,0,1.8-0.2,2.1-0.3l0.2,0.8c-0.3,0.1-1.1,0.4-2.6,0.4
		c-2.4,0-4.1-1-4.1-4.4c0-3.5,1.8-4.7,3.9-4.7c2,0,3.1,1.4,3.1,4.3v0.3L142.3,154.9L142.3,154.9z M145.1,150.9
		c-1.4,0-2.6,1.1-2.8,3.2h5.2C147.5,152.2,146.7,150.9,145.1,150.9z"/>
	<path class="st41" d="M165,159.3c-2.9,0-4.3-1.3-4.3-4.5c0-2.9,1.5-4.6,3.9-4.6c1.3,0,2.2,0.3,2.9,0.8l-0.4,0.7
		c-0.7-0.4-1.5-0.7-2.6-0.7c-1.8,0-2.9,1.4-2.9,3.7c0,2.6,0.8,3.7,3.5,3.7c1,0,1.9-0.2,2.3-0.4l0.2,0.8
		C167.2,159.1,166.5,159.3,165,159.3z"/>
	<path class="st41" d="M173.7,159.3c-2.3,0-3.8-1.5-3.8-4.4c0-3.1,1.6-4.7,3.9-4.7c2.5,0,3.7,1.6,3.7,4.6
		C177.5,157.9,175.9,159.3,173.7,159.3z M176.6,154.8c0-1.7-0.5-3.8-2.9-3.8c-2.3,0-2.9,2.1-2.9,3.8c0,1.9,0.7,3.7,2.9,3.7
		C176,158.6,176.6,156.6,176.6,154.8L176.6,154.8z"/>
	<path class="st41" d="M187.4,151.8c-0.5-0.3-1.2-0.7-2.1-0.7c-1.1,0-2,0.8-2.5,1.4v5.9h3.2v0.8h-6.5v-0.8h2.4v-7.1h-2.4v-0.8h3.3
		v1.1c0.4-0.5,1.2-1.2,2.5-1.2c1.4,0,2.1,0.5,2.5,0.7L187.4,151.8z"/>
	<path class="st41" d="M190.3,154.9c0.1,3.2,1.7,3.6,3.6,3.6c0.6,0,1.8-0.2,2.1-0.3l0.2,0.8c-0.3,0.1-1.1,0.4-2.6,0.4
		c-2.4,0-4.1-1-4.1-4.4c0-3.5,1.8-4.7,3.9-4.7c2,0,3.1,1.4,3.1,4.3v0.3L190.3,154.9L190.3,154.9z M193.1,150.9
		c-1.4,0-2.6,1.1-2.8,3.2h5.2C195.5,152.2,194.7,150.9,193.1,150.9z"/>
</g>
<polyline class="st42" points="204.6,145 280.6,145 280.6,92 293.6,92 "/>
<polyline class="st42" points="280.6,145 280.6,198 293.6,198 "/>
<g>
	<path class="st41" d="M46.3,226.7c0.1,3.2,1.7,3.6,3.6,3.6c0.6,0,1.8-0.2,2.1-0.3l0.2,0.8c-0.3,0.1-1.1,0.4-2.6,0.4
		c-2.4,0-4.1-1-4.1-4.4c0-3.5,1.8-4.7,3.9-4.7c2,0,3.1,1.4,3.1,4.3v0.3L46.3,226.7L46.3,226.7z M49.1,222.7c-1.4,0-2.6,1.1-2.8,3.2
		h5.2C51.5,224,50.7,222.7,49.1,222.7z"/>
	<path class="st41" d="M59.1,226.6l3.8,4.4h-1.1l-3.2-3.8l-3.2,3.8h-1.1l3.8-4.4l-3.8-4.4h1.1l3.2,3.8l3.2-3.8h1.1L59.1,226.6z"/>
	<path class="st41" d="M67.5,231.1c-0.8,0-1.5,0-2-0.1v3.5h-0.9v-12.3h0.9v0.7c0.6-0.4,1.5-0.9,2.5-0.9c2.2,0,3.5,1.5,3.5,4.3
		C71.6,230.1,69.6,231.1,67.5,231.1z M70.7,226.8c0-1.9-0.4-3.9-2.7-3.9c-1,0-2.1,0.7-2.4,0.9v6.3c0.4,0.1,0.8,0.2,2,0.2
		C69.6,230.3,70.6,228.8,70.7,226.8L70.7,226.8z"/>
	<path class="st41" d="M75.1,226.7c0.1,3.2,1.7,3.6,3.6,3.6c0.6,0,1.8-0.2,2.1-0.3l0.2,0.8c-0.3,0.1-1.1,0.4-2.6,0.4
		c-2.4,0-4.1-1-4.1-4.4c0-3.5,1.8-4.7,3.9-4.7c2,0,3.1,1.4,3.1,4.3v0.3L75.1,226.7L75.1,226.7z M77.9,222.7c-1.4,0-2.6,1.1-2.8,3.2
		h5.2C80.3,224,79.5,222.7,77.9,222.7z"/>
	<path class="st41" d="M89.8,231v-5.4c0-1.6-0.2-2.7-2-2.7c-1.2,0-2.6,1-2.9,1.2v6.9H84v-8.7h0.9v1c0.6-0.4,1.6-1.2,3.1-1.2
		c2.5,0,2.7,1.9,2.7,3.2v5.7H89.8z"/>
	<path class="st41" d="M96.5,231.1c-1.4,0-2.2-0.2-2.9-0.5l0.3-0.8c0.6,0.3,1.4,0.5,2.6,0.5c1.4,0,2.9-0.3,2.9-1.5
		c0-2.2-5.3-1.5-5.3-4.5c0-1.6,1.3-2.2,3-2.2c1,0,1.9,0.2,2.6,0.5l-0.3,0.7c-0.7-0.2-1.4-0.4-2.4-0.4c-1.2,0-2,0.4-2,1.4
		c0,2.3,5.3,1.7,5.3,4.6C100.2,230.7,97.9,231.1,96.5,231.1z"/>
	<path class="st41" d="M103.2,231v-0.8h3.3V223h-3v-0.8h3.9v7.9h3.3v0.8h-7.5V231z M107,220.4l-0.8-0.9l0.8-0.9l0.9,0.9L107,220.4z"
		/>
	<path class="st41" d="M116.7,231h-1.4l-3.4-8.7h0.9l2.7,7.1l0.4,1.1l0,0l0.5-1.1l3-7.1h0.9L116.7,231z"/>
	<path class="st41" d="M123.1,226.7c0.1,3.2,1.7,3.6,3.6,3.6c0.6,0,1.8-0.2,2.1-0.3l0.2,0.8c-0.3,0.1-1.1,0.4-2.6,0.4
		c-2.4,0-4.1-1-4.1-4.4c0-3.5,1.8-4.7,3.9-4.7c2,0,3.1,1.4,3.1,4.3v0.3L123.1,226.7L123.1,226.7z M125.9,222.7
		c-1.4,0-2.6,1.1-2.8,3.2h5.2C128.3,224,127.5,222.7,125.9,222.7z"/>
	<path class="st41" d="M145.8,231.1c-1.6,0-2.8-0.3-2.8-2.3v-5.7h-2.1v-0.8h2.1v-1.8h0.8v1.8h5v0.8h-5v5.5c0,1.4,0.5,1.8,2,1.8
		c1.1,0,2-0.2,2.9-0.6l0.2,0.7C148.2,230.8,147,231.1,145.8,231.1z"/>
	<path class="st41" d="M157,231v-5.4c0-1.6-0.2-2.7-2-2.7c-1.1,0-2.6,1-2.9,1.2v6.9h-0.9v-12.1h0.9v4.4c0.6-0.4,1.6-1.2,3.1-1.2
		c2.5,0,2.6,1.9,2.6,3.2v5.7L157,231L157,231z"/>
	<path class="st41" d="M160.8,231v-0.8h3.3V223h-3v-0.8h3.9v7.9h3.3v0.8h-7.5V231z M164.6,220.4l-0.8-0.9l0.8-0.9l0.9,0.9
		L164.6,220.4z"/>
	<path class="st41" d="M176.2,231v-5.4c0-1.6-0.2-2.7-2-2.7c-1.2,0-2.6,1-2.9,1.2v6.9h-0.9v-8.7h0.9v1c0.6-0.4,1.6-1.2,3.1-1.2
		c2.5,0,2.7,1.9,2.7,3.2v5.7H176.2z"/>
	<path class="st41" d="M183.2,234.7c-1.3,0-2.4-0.2-2.6-0.3l0.2-0.8c0.2,0,1.5,0.3,2.2,0.3c1.5,0,2.9-0.3,2.9-2.5v-1.1
		c-0.6,0.5-1.4,0.8-2.3,0.8c-1.8,0-3.7-0.6-3.7-4.5c0-3.2,1.8-4.6,4-4.6c1.1,0,2.1,0.2,2.9,0.3v9.3
		C186.7,233.7,185.3,234.7,183.2,234.7z M185.8,223c-0.5-0.1-1.1-0.2-2-0.2c-2.3,0-3.1,1.8-3.1,3.9c0,2.6,1,3.6,2.9,3.6
		c1,0,1.9-0.6,2.2-0.9L185.8,223z"/>
	<path class="st41" d="M192.5,231.1c-1.4,0-2.2-0.2-2.9-0.5l0.3-0.8c0.6,0.3,1.4,0.5,2.6,0.5c1.4,0,2.9-0.3,2.9-1.5
		c0-2.2-5.3-1.5-5.3-4.5c0-1.6,1.3-2.2,3-2.2c1,0,1.9,0.2,2.6,0.5l-0.3,0.7c-0.7-0.2-1.4-0.4-2.4-0.4c-1.2,0-2,0.4-2,1.4
		c0,2.3,5.3,1.7,5.3,4.6C196.2,230.7,193.9,231.1,192.5,231.1z"/>
	<path class="st41" d="M77.6,253.9c-1.3,0-2.4-0.2-2.6-0.3l0.2-0.8c0.2,0,1.5,0.3,2.2,0.3c1.5,0,2.9-0.3,2.9-2.5v-1.1
		c-0.6,0.5-1.4,0.8-2.3,0.8c-1.8,0-3.7-0.6-3.7-4.5c0-3.2,1.8-4.6,4-4.6c1.1,0,2.1,0.2,2.9,0.3v9.3
		C81.1,252.9,79.7,253.9,77.6,253.9z M80.2,242.2c-0.5-0.1-1.1-0.2-2-0.2c-2.3,0-3.1,1.8-3.1,3.9c0,2.6,1,3.6,2.9,3.6
		c1,0,1.9-0.6,2.2-0.9V242.2z"/>
	<path class="st41" d="M84.7,245.9c0.1,3.2,1.7,3.6,3.6,3.6c0.6,0,1.8-0.2,2.1-0.3l0.2,0.8c-0.3,0.1-1.1,0.4-2.6,0.4
		c-2.4,0-4.1-1-4.1-4.4c0-3.5,1.8-4.7,3.9-4.7c2,0,3.1,1.4,3.1,4.3v0.3L84.7,245.9L84.7,245.9z M87.5,241.9c-1.4,0-2.6,1.1-2.8,3.2
		h5.2C89.9,243.2,89.1,241.9,87.5,241.9z"/>
	<path class="st41" d="M97.8,250.3c-1.6,0-2.8-0.3-2.8-2.3v-5.7h-2.1v-0.8H95v-1.8h0.8v1.8h5v0.8h-5v5.5c0,1.4,0.5,1.8,2,1.8
		c1.1,0,2-0.2,2.9-0.6l0.2,0.7C100.2,250,99,250.3,97.8,250.3z"/>
	<path class="st41" d="M117,250.3c-1.6,0-2.8-0.3-2.8-2.3v-5.7h-2.1v-0.8h2.1v-1.8h0.8v1.8h5v0.8h-5v5.5c0,1.4,0.5,1.8,2,1.8
		c1.1,0,2-0.2,2.9-0.6l0.2,0.7C119.4,250,118.2,250.3,117,250.3z"/>
	<path class="st41" d="M128.2,250.2v-5.4c0-1.6-0.2-2.7-2-2.7c-1.1,0-2.6,1-2.9,1.2v6.9h-0.9v-12.1h0.9v4.4c0.6-0.4,1.6-1.2,3.1-1.2
		c2.5,0,2.6,1.9,2.6,3.2v5.7L128.2,250.2L128.2,250.2z"/>
	<path class="st41" d="M132.7,245.9c0.1,3.2,1.7,3.6,3.6,3.6c0.6,0,1.8-0.2,2.1-0.3l0.2,0.8c-0.3,0.1-1.1,0.4-2.6,0.4
		c-2.4,0-4.1-1-4.1-4.4c0-3.5,1.8-4.7,3.9-4.7c2,0,3.1,1.4,3.1,4.3v0.3L132.7,245.9L132.7,245.9z M135.5,241.9
		c-1.4,0-2.6,1.1-2.8,3.2h5.2C137.9,243.2,137.1,241.9,135.5,241.9z"/>
	<path class="st41" d="M141.6,250.2v-0.8h3.3v-7.1h-3v-0.8h3.9v7.9h3.3v0.8L141.6,250.2L141.6,250.2z M145.4,239.6l-0.8-0.9l0.8-0.9
		l0.9,0.9L145.4,239.6z"/>
	<path class="st41" d="M158.6,242.8c-0.5-0.3-1.2-0.7-2.1-0.7c-1.1,0-2,0.8-2.5,1.4v5.9h3.2v0.8h-6.5v-0.8h2.4v-7.1h-2.4v-0.8h3.3
		v1.1c0.4-0.5,1.2-1.2,2.5-1.2c1.4,0,2.1,0.5,2.5,0.7L158.6,242.8z"/>
	<path class="st41" d="M173.7,250.3c-2.3,0-3.8-1.5-3.8-4.4c0-3.1,1.6-4.7,3.9-4.7c2.5,0,3.7,1.6,3.7,4.6
		C177.5,248.9,175.9,250.3,173.7,250.3z M176.6,245.8c0-1.7-0.5-3.8-2.9-3.8c-2.3,0-2.9,2.1-2.9,3.8c0,1.9,0.7,3.7,2.9,3.7
		C176,249.6,176.6,247.6,176.6,245.8L176.6,245.8z"/>
	<path class="st41" d="M186.2,250.2h-1.3l-1.5-8.1l0,0l-1.8,8.1h-1.3l-1.2-8.7h0.9l1,8.2l0,0l1.9-8.2h1.3l1.6,8.2l0,0l1.2-8.2h0.9
		L186.2,250.2z"/>
	<path class="st41" d="M195.4,250.2v-5.4c0-1.6-0.2-2.7-2-2.7c-1.2,0-2.6,1-2.9,1.2v6.9h-0.9v-8.7h0.9v1c0.6-0.4,1.6-1.2,3.1-1.2
		c2.5,0,2.7,1.9,2.7,3.2v5.7H195.4z"/>
</g>
<polyline class="st42" points="204.6,235 280.6,235 280.6,203.5 293.6,203.5 "/>
<polyline class="st42" points="280.6,235 280.6,264.5 293.6,264.5 "/>
<path class="st20" d="M303.5,19.9l-0.6-3.1H300l-0.7,3.1H297l2.8-12h3.6l2.5,12H303.5z M302,11.3L301.6,9h-0.1l-0.4,2.3l-0.8,3.8
	h2.3L302,11.3z"/>
<path class="st20" d="M313.3,19.9v-1c-0.5,0.5-1.3,1.2-2.7,1.2c-2.8,0-2.8-1.7-2.8-3.6v-5.9h2.2v5.6c0,1.3,0.1,1.9,1.2,1.9
	c0.8,0,1.6-0.5,1.9-0.7v-6.8h2.2v9.3H313.3z"/>
<path class="st20" d="M323.5,20.1c-1.8,0-3.9,0-3.9-2.9v-4.9h-2v-1.7h2V8.7h2.2v1.9h4v1.7h-4v4.8c0,0.9,0.6,1.1,1.6,1.1
	c0.8,0,2.1-0.2,2.4-0.3l0.3,1.8C325.4,19.9,324.3,20.1,323.5,20.1z"/>
<path class="st20" d="M332,20.1c-2.9,0-4-1.8-4-4.7c0-3.1,1.4-4.9,4.1-4.9c3.1,0,3.9,1.8,3.9,4.9C336.1,18.4,334.7,20.1,332,20.1z
	 M332.1,12.2c-1.6,0-1.8,1.5-1.8,3.1c0,1.7,0.3,3,1.8,3s1.6-1.3,1.6-3C333.8,13.7,333.7,12.2,332.1,12.2z"/>
<path class="st20" d="M341.9,20c-0.6,0-0.8,0-1.2-0.1v3.7h-2.3v-13h2.3v0.8c0.4-0.4,1.3-1,2.3-1c2.2,0,3.2,1.3,3.2,4.5
	C346.3,18.8,344.5,20,341.9,20z M342.2,12.4c-0.6,0-1.2,0.3-1.5,0.5v5.3c0.3,0.1,0.5,0.1,1.3,0.1c1.7,0,2-1.3,2-3.2
	C344,13.3,343.7,12.4,342.2,12.4z"/>
<path class="st20" d="M348.8,19.9v-1.8h2.9v-5.7H349v-1.7h5v7.4h2.8v1.8H348.8z M352.9,9.4l-1.6-1.7l1.6-1.6l1.6,1.6L352.9,9.4z"/>
<path class="st20" d="M358.6,19.9v-1.8h3V8.8h-2.8V7.1h5.1v11h3v1.8H358.6z"/>
<path class="st20" d="M372.8,20.1c-2.9,0-4-1.8-4-4.7c0-3.1,1.4-4.9,4.1-4.9c3.1,0,3.9,1.8,3.9,4.9
	C376.9,18.4,375.5,20.1,372.8,20.1z M372.9,12.2c-1.6,0-1.8,1.5-1.8,3.1c0,1.7,0.3,3,1.8,3s1.6-1.3,1.6-3
	C374.6,13.7,374.5,12.2,372.9,12.2z"/>
<path class="st20" d="M384.7,20.1c-1.8,0-3.9,0-3.9-2.9v-4.9h-2v-1.7h2V8.7h2.2v1.9h4v1.7h-4v4.8c0,0.9,0.6,1.1,1.6,1.1
	c0.8,0,2.1-0.2,2.4-0.3l0.3,1.8C386.6,19.9,385.5,20.1,384.7,20.1z"/>
<path class="st20" d="M392,12.9v-2.3h2.6v2.3H392z M392,19.9v-2.3h2.6v2.3H392z"/>
</svg>
