<?xml version="1.0" encoding="utf-8"?>
<!-- Generator: Adobe Illustrator 21.1.0, SVG Export Plug-In . SVG Version: 6.00 Build 0)  -->
<svg version="1.1" id="Layer_1" xmlns="http://www.w3.org/2000/svg" xmlns:xlink="http://www.w3.org/1999/xlink" x="0px" y="0px"
	 width="950px" height="410px" viewBox="0 0 950 410" style="enable-background:new 0 0 950 410;" xml:space="preserve">
<style type="text/css">
	.st0{fill:#F5F5F5;}
	.st1{fill:#FF3030;}
	.st2{fill:none;stroke:#ED3424;stroke-width:4;stroke-miterlimit:10;}
	.st3{fill:none;stroke:#ED3424;stroke-width:4;stroke-miterlimit:10;stroke-dasharray:18.7964,6.2655;}
	.st4{fill:none;stroke:#F5F5F5;stroke-width:6.4;stroke-miterlimit:10;}
	.st5{fill:none;stroke:#FF3030;stroke-width:6.4;stroke-miterlimit:10;}
	.st6{fill:none;stroke:#FF3030;stroke-width:6.4;stroke-linecap:round;stroke-miterlimit:10;}
	.st7{fill:#FFFFFF;stroke:#F5F5F5;stroke-width:3.2;stroke-miterlimit:10;}
	.st8{fill:#FFFFFF;stroke:#231F20;stroke-width:6.4;stroke-miterlimit:10;}
</style>
<g>
	<g>
		<path class="st0" d="M767.7,299.1c0-1.1,0-2,0-2.9c0-14,0-27.9,0-41.9c0-6.5,3.1-9.5,9.6-9.5c42.5,0,84.9,0,127.4,0
			c6.8,0,9.7,3,9.7,9.8c0,9.4,0,18.8,0,28.2c0,0.8,0,1.7,0,2.4c0.3,0.2,0.5,0.3,0.6,0.3c6.6,0.5,7.5,1.6,7.5,8.1
			c0,8.5,0,17.1,0,25.6c0,5.2-1.6,6.9-6.9,7.1c-0.3,0-0.6,0.1-1.2,0.1c0,1,0,2,0,3c0,19.2,0,38.5,0,57.7c0,6.8-3,9.8-9.8,9.8
			c-8.4,0-16.7,0-25.5,0c0,1,0,1.9,0,2.8c-0.3,4.7-3.6,7.9-8.3,8c-5.1,0.1-10.2,0-15.4,0c-5.6,0-8.8-3.1-8.9-8.8
			c0-0.6-0.1-1.2-0.1-1.9c-1.8,0-3.4,0-5.1,0c-1.1,7.6-1.6,8-9.3,8c-7.3,0-14.6,0-21.9,0c-5.3,0-6.9-1.6-7.1-6.9
			c0-0.3-0.1-0.6-0.2-1.2c-0.8,0-1.7,0-2.5,0c-7.8,0-15.7,0-23.5,0c-5.8,0-9.1-3.3-9.1-9.1c0-14,0-28.1,0-42.1c0-0.9,0-1.8,0-3.1
			c-1.1,0-2,0-2.9,0c-3-0.2-5.2-2.2-5.2-5.2c-0.1-11-0.1-22,0-33.1c0-3,2.2-5,5.2-5.2C765.7,299.1,766.5,299.1,767.7,299.1z
			 M794.9,339.8c1.7,0,3.3,0,4.8,0c1.8,0,3.1,0.7,3.2,2.6c0.1,2.1-1.3,2.8-3.2,2.9c-1.6,0-3.2,0-4.7,0c0,2,0,3.6,0,5.4
			c1.5,0,2.9,0,4.3,0c1.9,0,3.5,0.4,3.6,2.6c0.1,1.8-1.2,2.8-3.7,2.8c-5.4,0-10.7,0-16.1,0c-4.1,0-4.6-0.5-4.6-4.5c0-3,0-6,0-8.9
			c-2,0-3.6,0-5.3,0c-0.1,0.5-0.1,0.8-0.1,1.2c0,14.7,0,29.5,0,44.2c0,2.4,1,3.3,3.5,3.3c8.2,0,16.5,0,24.7,0c0.5,0,1-0.1,1.7-0.2
			c0-6.1,0-12,0-18c0-4.1,2.1-6.2,6.2-6.2c8.6,0,17.2,0,25.8,0c4,0,6,2.1,6.1,6c0,5.3,0,10.6,0,15.8c0,0.8,0,1.6,0,2.4
			c2,0,3.6,0,5.5,0c0-0.9,0-1.8,0-2.6c0-11.5,0-23,0-34.5c0-4.3,1.9-6.2,6.3-6.2c6.5,0,13,0,19.6,0c4.9,0,6.8,1.9,6.8,6.8
			c0,11.3,0,22.7,0,34c0,0.8,0.1,1.7,0.1,2.7c0.9,0,1.5,0,2.2,0c7.8,0,15.5,0,23.3,0c3.5,0,4.2-0.7,4.2-4.2c0-19.6,0-39.1,0-58.7
			c0-0.7,0-1.5,0-2.3c-8.1,0-15.7,0-23.4,0c-4.5,0-6.4-1.9-6.4-6.3c0-9.3,0-18.6,0-27.9c0-4.6,1.9-6.5,6.6-6.5c6.9,0,13.8,0,20.7,0
			c0.8,0,1.6-0.1,2.6-0.2c0-1,0-1.8,0-2.6c0-9.4,0-18.8,0-28.2c0-3.7-0.6-4.4-4.3-4.4c-42.4,0-84.9,0-127.3,0
			c-3.5,0-4.2,0.7-4.2,4.2c0,14,0,28.1,0,42.1c0,0.8,0.1,1.6,0.1,2.4c1.9,0,3.5,0,5.3,0c0-3.4,0-6.8,0-10.1c0-2.4,0.8-3.4,3.1-3.4
			c6.1-0.1,12.1,0,18.2,0c1.8,0,3.1,0.8,3,2.7c0,1.9-1.3,2.7-3.1,2.7c-1.6,0-3.2,0-4.8,0c0,2,0,3.7,0,5.5c1.7,0,3.1,0,4.6,0
			c1.9,0,3.3,0.7,3.3,2.7c0,2.1-1.5,2.7-3.3,2.7c-1.5,0-3,0-4.5,0c0,2,0,3.7,0,5.4c1.7,0,3.1,0,4.6,0c1.9,0,3.2,0.7,3.2,2.8
			c0,1.9-1.4,2.6-3.1,2.7c-1.6,0-3.2,0-4.8,0c0,2,0,3.6,0,5.4c1.7,0,3.3,0,5,0c1.8,0,3,0.9,3,2.8c-0.1,1.8-1.2,2.6-3,2.6
			c-1.6,0-3.2,0-4.9,0c0,1.9,0,3.6,0,5.5c1.7,0,3.2,0,4.7,0c1.8,0,3.1,0.7,3.2,2.6c0.1,2.1-1.3,2.8-3.2,2.8c-1.6,0-3.2,0-4.8,0
			C794.9,336.4,794.9,337.9,794.9,339.8z M916.9,320.7c0-10,0-19.7,0-29.5c-10.8,0-21.6,0-32.3,0c0,9.9,0,19.7,0,29.5
			C895.4,320.7,906.1,320.7,916.9,320.7z M835.4,399.5c0-9,0-17.9,0-26.9c-9,0-17.9,0-26.8,0c0,9,0,17.9,0,26.9
			C817.6,399.5,826.4,399.5,835.4,399.5z M873.5,380.5c0-9.1,0-18,0-26.9c-7.3,0-14.3,0-21.4,0c0,9.1,0,18,0,26.8c2.7,0,5.2,0,7.9,0
			c0-0.8,0.1-1.4,0.1-2c0-2.9,0-5.7,0-8.6c0-1.8,1-2.8,2.7-2.8c1.7,0,2.5,1,2.6,2.7c0.1,1.2,0,2.3,0,3.5c0,2.4,0,4.9,0,7.3
			C868.4,380.5,870.9,380.5,873.5,380.5z M765.1,336.9c4.6,0,8.9,0,13.2,0c0-10.9,0-21.6,0-32.3c-4.5,0-8.8,0-13.2,0
			C765.1,315.5,765.1,326.1,765.1,336.9z M851.9,386.1c0,4.7-0.1,9.2,0.1,13.7c0.1,0.9,1.6,2.3,2.5,2.4c5.5,0.2,11,0.2,16.5,0
			c0.9,0,2.4-1.4,2.4-2.2c0.2-4.5,0.1-9.1,0.1-13.8C866.4,386.1,859.3,386.1,851.9,386.1z M784.2,291c0,20,0,39.8,0,59.6
			c1.8,0,3.4,0,5,0c0-19.9,0-39.7,0-59.6C787.5,291,786,291,784.2,291z"/>
		<path class="st1" d="M841,342.6c-5.2,0-10.4,0-15.6,0c-3.9,0-6.1-2.1-6.1-6c0-5.9,0.2-11.8,0.3-17.6c0-4.4-0.2-8.9-0.3-13.3
			c0-4.4,2-6.4,6.4-6.4c10.2,0,20.5,0,30.7,0c4.3,0,6.4,2,6.4,6.2c0,5.9-0.3,11.8-0.3,17.8c0,4.4,0.1,8.9,0.3,13.3
			c0.1,3.6-2.1,6.1-5.7,6.1C851.7,342.6,846.3,342.6,841,342.6z M857.3,337.1c0-10.9,0-21.7,0-32.4c-11,0-21.7,0-32.5,0
			c0,10.9,0,21.5,0,32.4C835.8,337.1,846.5,337.1,857.3,337.1z"/>
		<path class="st0" d="M786.8,386c-4.6,0-8.2-3.5-8.2-8c0-4.5,3.5-8.2,8-8.3c4.4-0.1,8.2,3.6,8.3,8.1
			C794.9,382.3,791.3,385.9,786.8,386z M789.8,378.5c0-0.4,0-0.7,0-1.1c-1-0.8-1.9-1.9-3-2.2c-1.5-0.3-2.6,0.8-2.8,2.4
			c-0.1,1.8,0.9,3,2.6,2.8C787.8,380.4,788.7,379.2,789.8,378.5z"/>
		<path class="st0" d="M786.6,271.9c-4.5,0-8.1-3.7-8-8.2c0.1-4.5,3.8-8.1,8.3-8c4.5,0.1,8.1,3.8,8,8.3
			C794.8,268.4,791.2,271.9,786.6,271.9z M789.8,264.2c0-0.4,0-0.7,0-1.1c-1-0.7-2-1.8-3.1-1.9c-1.6-0.2-2.5,1-2.6,2.6
			c-0.1,1.5,1.4,3.1,2.8,2.6C788,266.1,788.8,265,789.8,264.2z"/>
		<path class="st0" d="M903.5,378c0,4.5-3.7,8-8.2,8c-4.5,0-8.1-3.7-8-8.2c0.1-4.5,3.8-8.1,8.3-8.1C900,369.8,903.6,373.5,903.5,378
			z M898.4,378.4c0-0.4,0-0.7,0-1.1c-1-0.7-1.9-1.8-3-2c-1.5-0.3-2.6,0.9-2.7,2.5c0,1.8,1.1,2.9,2.7,2.7
			C896.5,380.3,897.4,379.1,898.4,378.4z"/>
		<path class="st0" d="M903.5,263.8c0,4.5-3.6,8.1-8.1,8.1c-4.5,0-8.2-3.6-8.2-8.1c0-4.5,3.7-8.2,8.1-8.2
			C899.8,255.6,903.5,259.3,903.5,263.8z M898.5,264.2c0-0.4,0-0.7,0-1.1c-1-0.7-2-1.8-3.1-1.9c-1.5-0.2-2.6,0.9-2.6,2.6
			c0,1.8,1.2,2.9,2.8,2.6C896.6,266.2,897.5,265,898.5,264.2z"/>
		<path class="st0" d="M825.4,255.3c0.7,1,1.8,2,2,3.1c0.2,1.5-0.9,2.6-2.5,2.7c-1.5,0.1-3.1-1.4-2.7-2.8c0.3-1.1,1.4-2,2.1-3
			C824.6,255.3,825,255.3,825.4,255.3z"/>
		<path class="st0" d="M856.8,261.4c-0.7-1-1.9-1.9-2.1-3c-0.3-1.5,0.8-2.6,2.5-2.7c1.5-0.1,3.2,1.2,2.8,2.7
			c-0.3,1.1-1.3,2.1-2.1,3.1C857.6,261.4,857.2,261.4,856.8,261.4z"/>
		<path class="st0" d="M816.9,259c-1,0.7-2,1.8-3.1,1.9c-1.7,0.2-2.7-1.1-2.6-2.8c0.1-1.6,1.3-2.7,2.8-2.4c1.1,0.2,2,1.4,3,2.2
			C817,258.3,817,258.6,816.9,259z"/>
		<path class="st0" d="M838.7,259c-1,0.7-2,1.8-3.1,1.9c-1.6,0.2-2.5-1-2.6-2.6c-0.1-1.6,1.4-3.1,2.8-2.6c1.1,0.4,2,1.4,3,2.2
			C838.7,258.3,838.7,258.7,838.7,259z"/>
		<path class="st0" d="M806.1,258.8c-1,0.8-1.9,1.9-3,2.2c-1.5,0.3-2.6-0.8-2.8-2.4c-0.2-1.5,1.2-3.2,2.6-2.8c1.1,0.3,2.1,1.3,3.1,2
			C806.1,258.1,806.1,258.4,806.1,258.8z"/>
		<path class="st0" d="M845.9,261.4c-0.7-1-1.8-1.9-2-3c-0.3-1.7,0.9-2.7,2.7-2.7c1.6,0,2.8,1.1,2.5,2.7c-0.2,1.1-1.3,2-2,3.1
			C846.7,261.4,846.3,261.4,845.9,261.4z"/>
		<path class="st0" d="M868.8,255.3c0.7,1,1.8,2,2,3.1c0.2,1.7-1,2.7-2.7,2.7c-1.7-0.1-2.7-1.2-2.4-2.8c0.2-1.1,1.3-2,2.1-3
			C868.1,255.3,868.5,255.3,868.8,255.3z"/>
		<path class="st0" d="M882.2,258.8c-1,0.7-1.9,1.9-3,2.1c-1.6,0.3-2.7-0.8-2.8-2.4c-0.1-1.8,1-3,2.6-2.8c1.1,0.1,2.1,1.3,3.1,2
			C882.1,258.1,882.2,258.4,882.2,258.8z"/>
		<path class="st0" d="M806.1,269.8c-1,0.7-1.9,1.8-3,2c-1.7,0.3-2.7-0.9-2.7-2.7c0.1-1.6,1.1-2.8,2.7-2.5c1.1,0.2,2,1.3,3,2
			C806.1,269,806.1,269.4,806.1,269.8z"/>
		<path class="st0" d="M814.4,266.2c0.7,1,1.9,1.9,2,3c0.3,1.7-0.9,2.8-2.7,2.7c-1.6,0-2.8-1.1-2.5-2.7c0.2-1.1,1.3-2,2-3
			C813.7,266.2,814,266.2,814.4,266.2z"/>
		<path class="st0" d="M836.2,266.2c0.7,1,1.8,2,2,3.1c0.2,1.6-0.9,2.6-2.6,2.6c-1.8,0-2.9-1.1-2.6-2.8c0.2-1.1,1.4-2,2.1-3
			C835.5,266.1,835.9,266.2,836.2,266.2z"/>
		<path class="st0" d="M845.9,272.3c-0.7-1-1.8-2-2-3.1c-0.2-1.5,0.9-2.6,2.5-2.6c1.7,0,2.9,1.1,2.6,2.8c-0.2,1.1-1.4,2-2.1,3
			C846.6,272.3,846.2,272.3,845.9,272.3z"/>
		<path class="st0" d="M871.3,269.8c-1,0.7-1.9,1.8-3,2c-1.6,0.3-2.6-0.8-2.7-2.5c0-1.7,1-3,2.7-2.7c1.1,0.2,2,1.3,3,2
			C871.3,269,871.3,269.4,871.3,269.8z"/>
		<path class="st0" d="M879.7,266.2c0.7,1,1.8,1.9,2,3c0.3,1.5-0.9,2.6-2.5,2.7c-1.7,0-3-1-2.7-2.7c0.2-1.1,1.3-2,2.1-3
			C878.9,266.1,879.3,266.1,879.7,266.2z"/>
		<path class="st0" d="M824.3,272.3c-0.8-1-1.9-1.8-2.2-2.9c-0.3-1.5,0.7-2.7,2.4-2.8c1.8-0.1,3,0.9,2.8,2.6
			c-0.1,1.1-1.3,2.1-1.9,3.1C825.1,272.3,824.7,272.3,824.3,272.3z"/>
		<path class="st0" d="M856.9,272.3c-0.8-1-1.9-1.8-2.2-2.9c-0.3-1.5,0.7-2.7,2.4-2.8c1.8-0.1,3,0.9,2.8,2.6
			c-0.1,1.1-1.3,2.1-1.9,3.1C857.7,272.3,857.3,272.3,856.9,272.3z"/>
		<path class="st0" d="M898.3,310c1.6,0,3.2,0,4.9,0c1.8,0,3,0.8,3,2.7c0,1.9-1.3,2.7-3.1,2.7c-3.4,0-6.8,0-10.2,0
			c-1.8,0-3-1-2.9-2.8c0.1-1.7,1.2-2.6,3-2.6C894.7,310,896.5,310,898.3,310z"/>
		<path class="st0" d="M898.2,296.4c1.7,0,3.4,0,5.1,0c1.7,0,2.8,0.9,2.9,2.6c0.1,1.8-1.1,2.7-2.8,2.7c-3.5,0.1-7.1,0.1-10.6,0
			c-1.7,0-2.8-1-2.8-2.7c0-1.7,1.1-2.6,2.9-2.6C894.7,296.4,896.4,296.4,898.2,296.4z"/>
		<path class="st0" d="M824.8,386c0-1-0.3-2.2,0.1-3c0.5-1,1.6-2.3,2.4-2.2c1,0,2.6,1.1,2.7,2c0.4,2.1,0.4,4.3,0,6.4
			c-0.2,0.9-1.7,2.1-2.5,2c-1-0.1-2.1-1.3-2.6-2.3C824.4,388.2,824.8,387,824.8,386C824.8,386,824.8,386,824.8,386z"/>
		<path class="st0" d="M819.3,385.9c0,0.9,0,1.9,0,2.8c-0.1,1.7-1,2.8-2.8,2.7c-1.6,0-2.5-1.1-2.6-2.7c-0.1-1.8-0.1-3.5,0-5.3
			c0.1-1.7,1-2.8,2.7-2.7c1.6,0,2.5,1.1,2.6,2.7C819.3,384.2,819.3,385,819.3,385.9z"/>
	</g>
	<g>
		<path class="st0" d="M35.6,299.1c0-1.1,0-2,0-2.9c0-14,0-27.9,0-41.9c0-6.5,3.1-9.5,9.6-9.5c42.5,0,84.9,0,127.4,0
			c6.8,0,9.7,3,9.7,9.8c0,9.4,0,18.8,0,28.2c0,0.8,0,1.7,0,2.4c0.3,0.2,0.5,0.3,0.6,0.3c6.6,0.5,7.5,1.6,7.5,8.1
			c0,8.5,0,17.1,0,25.6c0,5.2-1.6,6.9-6.9,7.1c-0.3,0-0.6,0.1-1.2,0.1c0,1,0,2,0,3c0,19.2,0,38.5,0,57.7c0,6.8-3,9.8-9.8,9.8
			c-8.4,0-16.7,0-25.5,0c0,1,0,1.9,0,2.8c-0.3,4.7-3.6,7.9-8.3,8c-5.1,0.1-10.2,0-15.4,0c-5.6,0-8.8-3.1-8.9-8.8
			c0-0.6-0.1-1.2-0.1-1.9c-1.8,0-3.4,0-5.1,0c-1.1,7.6-1.6,8-9.3,8c-7.3,0-14.6,0-21.9,0c-5.3,0-6.9-1.6-7.1-6.9
			c0-0.3-0.1-0.6-0.2-1.2c-0.8,0-1.7,0-2.5,0c-7.8,0-15.7,0-23.5,0c-5.8,0-9.1-3.3-9.1-9.1c0-14,0-28.1,0-42.1c0-0.9,0-1.8,0-3.1
			c-1.1,0-2,0-2.9,0c-3-0.2-5.2-2.2-5.2-5.2c-0.1-11-0.1-22,0-33.1c0-3,2.2-5,5.2-5.2C33.6,299.1,34.4,299.1,35.6,299.1z
			 M62.9,339.8c1.7,0,3.3,0,4.8,0c1.8,0,3.1,0.7,3.2,2.6c0.1,2.1-1.3,2.8-3.2,2.9c-1.6,0-3.2,0-4.7,0c0,2,0,3.6,0,5.4
			c1.5,0,2.9,0,4.3,0c1.9,0,3.5,0.4,3.6,2.6c0.1,1.8-1.2,2.8-3.7,2.8c-5.4,0-10.7,0-16.1,0c-4.1,0-4.6-0.5-4.6-4.5c0-3,0-6,0-8.9
			c-2,0-3.6,0-5.3,0c-0.1,0.5-0.1,0.8-0.1,1.2c0,14.7,0,29.5,0,44.2c0,2.4,1,3.3,3.5,3.3c8.2,0,16.5,0,24.7,0c0.5,0,1-0.1,1.7-0.2
			c0-6.1,0-12,0-18c0-4.1,2.1-6.2,6.2-6.2c8.6,0,17.2,0,25.8,0c4,0,6,2.1,6.1,6c0,5.3,0,10.6,0,15.8c0,0.8,0,1.6,0,2.4
			c2,0,3.6,0,5.5,0c0-0.9,0-1.8,0-2.6c0-11.5,0-23,0-34.5c0-4.3,1.9-6.2,6.3-6.2c6.5,0,13,0,19.6,0c4.9,0,6.8,1.9,6.8,6.8
			c0,11.3,0,22.7,0,34c0,0.8,0.1,1.7,0.1,2.7c0.9,0,1.5,0,2.2,0c7.8,0,15.5,0,23.3,0c3.5,0,4.2-0.7,4.2-4.2c0-19.6,0-39.1,0-58.7
			c0-0.7,0-1.5,0-2.3c-8.1,0-15.7,0-23.4,0c-4.5,0-6.4-1.9-6.4-6.3c0-9.3,0-18.6,0-27.9c0-4.6,1.9-6.5,6.6-6.5c6.9,0,13.8,0,20.7,0
			c0.8,0,1.6-0.1,2.6-0.2c0-1,0-1.8,0-2.6c0-9.4,0-18.8,0-28.2c0-3.7-0.6-4.4-4.3-4.4c-42.4,0-84.9,0-127.3,0
			c-3.5,0-4.2,0.7-4.2,4.2c0,14,0,28.1,0,42.1c0,0.8,0.1,1.6,0.1,2.4c1.9,0,3.5,0,5.3,0c0-3.4,0-6.8,0-10.1c0-2.4,0.8-3.4,3.1-3.4
			c6.1-0.1,12.1,0,18.2,0c1.8,0,3.1,0.8,3,2.7c0,1.9-1.3,2.7-3.1,2.7c-1.6,0-3.2,0-4.8,0c0,2,0,3.7,0,5.5c1.7,0,3.1,0,4.6,0
			c1.9,0,3.3,0.7,3.3,2.7c0,2.1-1.5,2.7-3.3,2.7c-1.5,0-3,0-4.5,0c0,2,0,3.7,0,5.4c1.7,0,3.1,0,4.6,0c1.9,0,3.2,0.7,3.2,2.8
			c0,1.9-1.4,2.6-3.1,2.7c-1.6,0-3.2,0-4.8,0c0,2,0,3.6,0,5.4c1.7,0,3.3,0,5,0c1.8,0,3,0.9,3,2.8c-0.1,1.8-1.2,2.6-3,2.6
			c-1.6,0-3.2,0-4.9,0c0,1.9,0,3.6,0,5.5c1.7,0,3.2,0,4.7,0c1.8,0,3.1,0.7,3.2,2.6c0.1,2.1-1.3,2.8-3.2,2.8c-1.6,0-3.2,0-4.8,0
			C62.9,336.4,62.9,337.9,62.9,339.8z M184.9,320.7c0-10,0-19.7,0-29.5c-10.8,0-21.6,0-32.3,0c0,9.9,0,19.7,0,29.5
			C163.4,320.7,174,320.7,184.9,320.7z M103.4,399.5c0-9,0-17.9,0-26.9c-9,0-17.9,0-26.8,0c0,9,0,17.9,0,26.9
			C85.5,399.5,94.3,399.5,103.4,399.5z M141.4,380.5c0-9.1,0-18,0-26.9c-7.3,0-14.3,0-21.4,0c0,9.1,0,18,0,26.8c2.7,0,5.2,0,7.9,0
			c0-0.8,0.1-1.4,0.1-2c0-2.9,0-5.7,0-8.6c0-1.8,1-2.8,2.7-2.8c1.7,0,2.5,1,2.6,2.7c0.1,1.2,0,2.3,0,3.5c0,2.4,0,4.9,0,7.3
			C136.3,380.5,138.8,380.5,141.4,380.5z M33.1,336.9c4.6,0,8.9,0,13.2,0c0-10.9,0-21.6,0-32.3c-4.5,0-8.8,0-13.2,0
			C33.1,315.5,33.1,326.1,33.1,336.9z M119.8,386.1c0,4.7-0.1,9.2,0.1,13.7c0.1,0.9,1.6,2.3,2.5,2.4c5.5,0.2,11,0.2,16.5,0
			c0.9,0,2.4-1.4,2.4-2.2c0.2-4.5,0.1-9.1,0.1-13.8C134.3,386.1,127.2,386.1,119.8,386.1z M52.1,291c0,20,0,39.8,0,59.6
			c1.8,0,3.4,0,5,0c0-19.9,0-39.7,0-59.6C55.4,291,53.9,291,52.1,291z"/>
		<path class="st1" d="M108.9,342.6c-5.2,0-10.4,0-15.6,0c-3.9,0-6.1-2.1-6.1-6c0-5.9,0.2-11.8,0.3-17.6c0-4.4-0.2-8.9-0.3-13.3
			c0-4.4,2-6.4,6.4-6.4c10.2,0,20.5,0,30.7,0c4.3,0,6.4,2,6.4,6.2c0,5.9-0.3,11.8-0.3,17.8c0,4.4,0.1,8.9,0.3,13.3
			c0.1,3.6-2.1,6.1-5.7,6.1C119.6,342.6,114.3,342.6,108.9,342.6z M125.2,337.1c0-10.9,0-21.7,0-32.4c-11,0-21.7,0-32.5,0
			c0,10.9,0,21.5,0,32.4C103.7,337.1,114.4,337.1,125.2,337.1z"/>
		<path class="st0" d="M54.7,386c-4.6,0-8.2-3.5-8.2-8c0-4.5,3.5-8.2,8-8.3c4.4-0.1,8.2,3.6,8.3,8.1C62.9,382.3,59.3,385.9,54.7,386
			z M57.7,378.5c0-0.4,0-0.7,0-1.1c-1-0.8-1.9-1.9-3-2.2c-1.5-0.3-2.6,0.8-2.8,2.4c-0.1,1.8,0.9,3,2.6,2.8
			C55.7,380.4,56.7,379.2,57.7,378.5z"/>
		<path class="st0" d="M54.5,271.9c-4.5,0-8.1-3.7-8-8.2c0.1-4.5,3.8-8.1,8.3-8c4.5,0.1,8.1,3.8,8,8.3
			C62.7,268.4,59.1,271.9,54.5,271.9z M57.7,264.2c0-0.4,0-0.7,0-1.1c-1-0.7-2-1.8-3.1-1.9c-1.6-0.2-2.5,1-2.6,2.6
			c-0.1,1.5,1.4,3.1,2.8,2.6C55.9,266.1,56.8,265,57.7,264.2z"/>
		<path class="st0" d="M171.4,378c0,4.5-3.7,8-8.2,8c-4.5,0-8.1-3.7-8-8.2c0.1-4.5,3.8-8.1,8.3-8.1
			C167.9,369.8,171.5,373.5,171.4,378z M166.4,378.4c0-0.4,0-0.7,0-1.1c-1-0.7-1.9-1.8-3-2c-1.5-0.3-2.6,0.9-2.7,2.5
			c0,1.8,1.1,2.9,2.7,2.7C164.4,380.3,165.4,379.1,166.4,378.4z"/>
		<path class="st0" d="M171.4,263.8c0,4.5-3.6,8.1-8.1,8.1c-4.5,0-8.2-3.6-8.2-8.1c0-4.5,3.7-8.2,8.1-8.2
			C167.7,255.6,171.4,259.3,171.4,263.8z M166.4,264.2c0-0.4,0-0.7,0-1.1c-1-0.7-2-1.8-3.1-1.9c-1.5-0.2-2.6,0.9-2.6,2.6
			c0,1.8,1.2,2.9,2.8,2.6C164.5,266.2,165.4,265,166.4,264.2z"/>
		<path class="st0" d="M93.3,255.3c0.7,1,1.8,2,2,3.1c0.2,1.5-0.9,2.6-2.5,2.7c-1.5,0.1-3.1-1.4-2.7-2.8c0.3-1.1,1.4-2,2.1-3
			C92.5,255.3,92.9,255.3,93.3,255.3z"/>
		<path class="st0" d="M124.8,261.4c-0.7-1-1.9-1.9-2.1-3c-0.3-1.5,0.8-2.6,2.5-2.7c1.5-0.1,3.2,1.2,2.8,2.7
			c-0.3,1.1-1.3,2.1-2.1,3.1C125.5,261.4,125.1,261.4,124.8,261.4z"/>
		<path class="st0" d="M84.9,259c-1,0.7-2,1.8-3.1,1.9c-1.7,0.2-2.7-1.1-2.6-2.8c0.1-1.6,1.3-2.7,2.8-2.4c1.1,0.2,2,1.4,3,2.2
			C84.9,258.3,84.9,258.6,84.9,259z"/>
		<path class="st0" d="M106.6,259c-1,0.7-2,1.8-3.1,1.9c-1.6,0.2-2.5-1-2.6-2.6c-0.1-1.6,1.4-3.1,2.8-2.6c1.1,0.4,2,1.4,3,2.2
			C106.6,258.3,106.6,258.7,106.6,259z"/>
		<path class="st0" d="M74,258.8c-1,0.8-1.9,1.9-3,2.2c-1.5,0.3-2.6-0.8-2.8-2.4c-0.2-1.5,1.2-3.2,2.6-2.8c1.1,0.3,2.1,1.3,3.1,2
			C74,258.1,74,258.4,74,258.8z"/>
		<path class="st0" d="M113.9,261.4c-0.7-1-1.8-1.9-2-3c-0.3-1.7,0.9-2.7,2.7-2.7c1.6,0,2.8,1.1,2.5,2.7c-0.2,1.1-1.3,2-2,3.1
			C114.6,261.4,114.2,261.4,113.9,261.4z"/>
		<path class="st0" d="M136.7,255.3c0.7,1,1.8,2,2,3.1c0.2,1.7-1,2.7-2.7,2.7c-1.7-0.1-2.7-1.2-2.4-2.8c0.2-1.1,1.3-2,2.1-3
			C136,255.3,136.4,255.3,136.7,255.3z"/>
		<path class="st0" d="M150.1,258.8c-1,0.7-1.9,1.9-3,2.1c-1.6,0.3-2.7-0.8-2.8-2.4c-0.1-1.8,1-3,2.6-2.8c1.1,0.1,2.1,1.3,3.1,2
			C150.1,258.1,150.1,258.4,150.1,258.8z"/>
		<path class="st0" d="M74,269.8c-1,0.7-1.9,1.8-3,2c-1.7,0.3-2.7-0.9-2.7-2.7c0.1-1.6,1.1-2.8,2.7-2.5c1.1,0.2,2,1.3,3,2
			C74,269,74,269.4,74,269.8z"/>
		<path class="st0" d="M82.3,266.2c0.7,1,1.9,1.9,2,3c0.3,1.7-0.9,2.8-2.7,2.7c-1.6,0-2.8-1.1-2.5-2.7c0.2-1.1,1.3-2,2-3
			C81.6,266.2,82,266.2,82.3,266.2z"/>
		<path class="st0" d="M104.2,266.2c0.7,1,1.8,2,2,3.1c0.2,1.6-0.9,2.6-2.6,2.6c-1.8,0-2.9-1.1-2.6-2.8c0.2-1.1,1.4-2,2.1-3
			C103.4,266.1,103.8,266.2,104.2,266.2z"/>
		<path class="st0" d="M113.8,272.3c-0.7-1-1.8-2-2-3.1c-0.2-1.5,0.9-2.6,2.5-2.6c1.7,0,2.9,1.1,2.6,2.8c-0.2,1.1-1.4,2-2.1,3
			C114.5,272.3,114.1,272.3,113.8,272.3z"/>
		<path class="st0" d="M139.2,269.8c-1,0.7-1.9,1.8-3,2c-1.6,0.3-2.6-0.8-2.7-2.5c0-1.7,1-3,2.7-2.7c1.1,0.2,2,1.3,3,2
			C139.2,269,139.2,269.4,139.2,269.8z"/>
		<path class="st0" d="M147.6,266.2c0.7,1,1.8,1.9,2,3c0.3,1.5-0.9,2.6-2.5,2.7c-1.7,0-3-1-2.7-2.7c0.2-1.1,1.3-2,2.1-3
			C146.8,266.1,147.2,266.1,147.6,266.2z"/>
		<path class="st0" d="M92.2,272.3c-0.8-1-1.9-1.8-2.2-2.9c-0.3-1.5,0.7-2.7,2.4-2.8c1.8-0.1,3,0.9,2.8,2.6
			c-0.1,1.1-1.3,2.1-1.9,3.1C93,272.3,92.6,272.3,92.2,272.3z"/>
		<path class="st0" d="M124.8,272.3c-0.8-1-1.9-1.8-2.2-2.9c-0.3-1.5,0.7-2.7,2.4-2.8c1.8-0.1,3,0.9,2.8,2.6
			c-0.1,1.1-1.3,2.1-1.9,3.1C125.6,272.3,125.2,272.3,124.8,272.3z"/>
		<path class="st0" d="M166.2,310c1.6,0,3.2,0,4.9,0c1.8,0,3,0.8,3,2.7c0,1.9-1.3,2.7-3.1,2.7c-3.4,0-6.8,0-10.2,0
			c-1.8,0-3-1-2.9-2.8c0.1-1.7,1.2-2.6,3-2.6C162.6,310,164.4,310,166.2,310z"/>
		<path class="st0" d="M166.1,296.4c1.7,0,3.4,0,5.1,0c1.7,0,2.8,0.9,2.9,2.6c0.1,1.8-1.1,2.7-2.8,2.7c-3.5,0.1-7.1,0.1-10.6,0
			c-1.7,0-2.8-1-2.8-2.7c0-1.7,1.1-2.6,2.9-2.6C162.6,296.4,164.3,296.4,166.1,296.4z"/>
		<path class="st0" d="M92.7,386c0-1-0.3-2.2,0.1-3c0.5-1,1.6-2.3,2.4-2.2c1,0,2.6,1.1,2.7,2c0.4,2.1,0.4,4.3,0,6.4
			c-0.2,0.9-1.7,2.1-2.5,2c-1-0.1-2.1-1.3-2.6-2.3C92.4,388.2,92.7,387,92.7,386L92.7,386z"/>
		<path class="st0" d="M87.2,385.9c0,0.9,0,1.9,0,2.8c-0.1,1.7-1,2.8-2.8,2.7c-1.6,0-2.5-1.1-2.6-2.7c-0.1-1.8-0.1-3.5,0-5.3
			c0.1-1.7,1-2.8,2.7-2.7c1.6,0,2.5,1.1,2.6,2.7C87.2,384.2,87.2,385,87.2,385.9z"/>
	</g>
	<g>
		<g>
			<line class="st0" x1="254" y1="326.3" x2="329.6" y2="326.3"/>
			<g>
				<line class="st2" x1="254" y1="326.3" x2="263.6" y2="326.3"/>
				<line class="st3" x1="269.8" y1="326.3" x2="316.8" y2="326.3"/>
				<line class="st2" x1="320" y1="326.3" x2="329.6" y2="326.3"/>
			</g>
		</g>
		<path class="st4" d="M232.8,275.2c28.2,28.2,28.2,74,0,102.1 M220.9,288.8c20.6,20.7,20.6,54.2,0,74.9 M208.2,301.8
			c13.5,13.5,13.5,35.4,0,48.9"/>
		<path class="st4" d="M350.7,377.3c-28.2-28.2-28.2-74,0-102.1 M362.6,363.7c-20.6-20.6-20.6-54.2,0-74.9 M375.4,350.7
			c-13.5-13.5-13.5-35.4,0-48.9"/>
	</g>
	<g>
		<g>
			<g>
				<path class="st0" d="M851,57.2c-2.9-4.3-5.5-8.2-7.9-11.8c-0.3-0.5-0.9-1-1.4-1.4c-2.1-1.4-4.8-0.7-6.2,1.4
					c-2.2,3.6-4.8,7.3-7.9,11.8c-13.5,19.8-33.7,49.7-33.7,66.8c0,12.5,5.1,23.8,13.3,32c8.2,8,19.5,13.2,32,13.2s23.8-5.1,32-13.3
					s13.3-19.5,13.3-32C884.7,106.8,864.5,77.1,851,57.2z M865.2,149.7c-6.7,6.7-15.7,10.6-25.8,10.6s-19.1-4.1-25.8-10.6
					C806.9,143,803,134,803,123.9c0-14.4,19.3-42.9,32.1-61.9c1.5-2.2,2.9-4.4,4.3-6.3c1.4,1.9,2.7,4.1,4.3,6.3
					c12.8,19.1,32.1,47.5,32.1,61.9C875.8,134,871.7,143,865.2,149.7z"/>
			</g>
		</g>
		<g>
			<g>
				<path class="st1" d="M865.9,120.8c-2.4-0.2-4.4,1.7-4.6,4.1c-0.2,3.8-1.4,7.3-3.2,10.4c-1.9,3.1-4.6,5.8-7.9,7.5
					c-2.1,1.2-2.9,3.9-1.7,6c1.4,2.4,4.1,3.1,6.2,1.9c4.6-2.6,8.4-6.3,10.9-10.6c2.7-4.3,4.3-9.4,4.4-14.7
					C870.2,123,868.3,121,865.9,120.8z"/>
			</g>
		</g>
	</g>
	<g>
		<path class="st0" d="M524,42c8.3-1.5,13.1,9.5,6.1,14.5c-1.5,1.1-1.9,3.3-0.8,4.8c1.1,1.5,3.3,1.9,4.8,0.8
			c8.4-6,8.4-18.5-0.1-24.4c-10.9-7.6-25.6,1.8-23.3,14.9c0.8,4.6,3.6,8.4,7.7,10.6c1.7,0.9,3.8,0.3,4.7-1.4
			c0.9-1.7,0.3-3.8-1.4-4.7C514.8,53.4,516.5,43.3,524,42z"/>
		<path class="st1" d="M422.1,102.3c0,9,7.3,16.4,16.4,16.4c9,0,16.4-7.3,16.4-16.4s-7.3-16.4-16.4-16.4
			C429.5,85.9,422.1,93.2,422.1,102.3z M429,102.3c0-5.2,4.2-9.5,9.5-9.5s9.5,4.2,9.5,9.5c0,5.2-4.2,9.5-9.5,9.5
			S429,107.5,429,102.3z"/>
		<path class="st0" d="M530.2,83.4c2.6,0,4.8,2.1,4.8,4.8c0,2.6-2.1,4.8-4.8,4.8c-2.6,0-4.8-2.1-4.8-4.8
			C525.5,85.5,527.6,83.4,530.2,83.4z"/>
		<path class="st0" d="M438.5,27.5c-1.5,0.2-3,0.6-4.5,0.9l-6.6,2c-23.1,8.4-38.6,29.3-40.7,53c-1.1,17.5-2.9,20.4-0.6,25.2h-14.6
			c-3.7,0-6.9-2.1-8.2-5.3c-5.1-12.2,20.2-31.8,6.5-49.2c-3.7-4.7-9.2-7.4-15.2-7.4c-1.9,0-3.5,1.5-3.5,3.5c0,1.9,1.5,3.5,3.5,3.5
			c8,0,14,7.5,12.1,15.2C363.7,81.5,352,94,357,106c2.4,5.8,8.2,9.5,14.6,9.5h38.9c11.2,23.6,44.7,23.6,55.9,0h20.1
			c1.9,0,3.5-1.5,3.5-3.5c0-1.9-1.5-3.5-3.5-3.5h-17.8c4-19.3-10.8-37.2-30.3-37.2h0c-19.6,0-34.3,18.1-30.3,37.2H397
			c-3,0-5.3-2.6-5-5.5l1.7-19.1c2.8-32.2,32.4-55,64.1-49.7c13.3,2.2,26.4,5.8,39,10.7c-2.4,12.2,3.2,25.1,15,31.4
			c1.5,0.8,3.3,0.4,4.3-0.9c1.3-1.7,0.8-4.2-1.1-5.2c-18.8-10-14.1-38.1,6.6-41.7c12.2-2.1,23.7,6,25.9,18.1
			c1.5,8.4-2.1,17.1-9,22.1c-2.2,1.6-1.8,5,0.7,6c2.1,0.8,3.9-0.7,6.1-2.7c12.5,9.5,23.9,20.5,33.8,32.6c1.3,1.5,0.2,3.8-1.8,3.8
			h-77.9c-1.9,0-3.5,1.5-3.5,3.5c0,1.9,1.5,3.5,3.5,3.5h10.9c-0.1,9.8,7.9,17.7,17.6,17.7c9.7,0,17.7-7.9,17.6-17.7h31.7
			c7.8,0,12.1-9,7.2-15.1c-10.2-12.5-21.9-23.8-34.7-33.5c14.2-21.4-4-49.5-29.4-45c-9.7,1.7-17.5,8-21.5,16.6
			c-14.2-5.5-38.2-12.5-53.5-11.7L438.5,27.5z M538.7,115.5c0.1,5.9-4.7,10.8-10.7,10.8c-6,0-10.8-4.9-10.7-10.8H538.7z
			 M415.9,110.4c-5.7-15.5,5.9-32.2,22.6-32.2c11.7,0,21.5,8.5,23.6,19.6c2.7,14.7-8.6,28.4-23.6,28.4
			C428.1,126.3,419.3,119.7,415.9,110.4z"/>
	</g>
	<polyline class="st4" points="849.1,207.2 945.8,207.2 945.8,4.2 736.3,4.2 736.3,55.7 593.5,55.7 	"/>
	<polyline class="st4" points="117,207.2 213.7,207.2 213.7,154.5 736.3,154.5 736.3,207.2 843.9,207.2 	"/>
	<polyline class="st4" points="111.8,207.2 4.2,207.2 4.2,4.2 213.7,4.2 213.7,55.7 329.6,55.7 	"/>
	<g>
		<path class="st0" d="M401.7,299.1c0-1.1,0-2,0-2.9c0-14,0-27.9,0-41.9c0-6.5,3.1-9.5,9.6-9.5c42.5,0,84.9,0,127.4,0
			c6.8,0,9.7,3,9.7,9.8c0,9.4,0,18.8,0,28.2c0,0.8,0,1.7,0,2.4c0.3,0.2,0.5,0.3,0.6,0.3c6.6,0.5,7.5,1.6,7.5,8.1
			c0,8.5,0,17.1,0,25.6c0,5.2-1.6,6.9-6.9,7.1c-0.3,0-0.6,0.1-1.2,0.1c0,1,0,2,0,3c0,19.2,0,38.5,0,57.7c0,6.8-3,9.8-9.8,9.8
			c-8.4,0-16.7,0-25.5,0c0,1,0,1.9,0,2.8c-0.3,4.7-3.6,7.9-8.3,8c-5.1,0.1-10.2,0-15.4,0c-5.6,0-8.8-3.1-8.9-8.8
			c0-0.6-0.1-1.2-0.1-1.9c-1.8,0-3.4,0-5.1,0c-1.1,7.6-1.6,8-9.3,8c-7.3,0-14.6,0-21.9,0c-5.3,0-6.9-1.6-7.1-6.9
			c0-0.3-0.1-0.6-0.2-1.2c-0.8,0-1.7,0-2.5,0c-7.8,0-15.7,0-23.5,0c-5.8,0-9.1-3.3-9.1-9.1c0-14,0-28.1,0-42.1c0-0.9,0-1.8,0-3.1
			c-1.1,0-2,0-2.9,0c-3-0.2-5.2-2.2-5.2-5.2c-0.1-11-0.1-22,0-33.1c0-3,2.2-5,5.2-5.2C399.6,299.1,400.5,299.1,401.7,299.1z
			 M428.9,339.8c1.7,0,3.3,0,4.8,0c1.8,0,3.1,0.7,3.2,2.6c0.1,2.1-1.3,2.8-3.2,2.9c-1.6,0-3.2,0-4.7,0c0,2,0,3.6,0,5.4
			c1.5,0,2.9,0,4.3,0c1.9,0,3.5,0.4,3.6,2.6c0.1,1.8-1.2,2.8-3.7,2.8c-5.4,0-10.7,0-16.1,0c-4.1,0-4.6-0.5-4.6-4.5c0-3,0-6,0-8.9
			c-2,0-3.6,0-5.3,0c-0.1,0.5-0.1,0.8-0.1,1.2c0,14.7,0,29.5,0,44.2c0,2.4,1,3.3,3.5,3.3c8.2,0,16.5,0,24.7,0c0.5,0,1-0.1,1.7-0.2
			c0-6.1,0-12,0-18c0-4.1,2.1-6.2,6.2-6.2c8.6,0,17.2,0,25.8,0c4,0,6,2.1,6.1,6c0,5.3,0,10.6,0,15.8c0,0.8,0,1.6,0,2.4
			c2,0,3.6,0,5.5,0c0-0.9,0-1.8,0-2.6c0-11.5,0-23,0-34.5c0-4.3,1.9-6.2,6.3-6.2c6.5,0,13,0,19.6,0c4.9,0,6.8,1.9,6.8,6.8
			c0,11.3,0,22.7,0,34c0,0.8,0.1,1.7,0.1,2.7c0.9,0,1.5,0,2.2,0c7.8,0,15.5,0,23.3,0c3.5,0,4.2-0.7,4.2-4.2c0-19.6,0-39.1,0-58.7
			c0-0.7,0-1.5,0-2.3c-8.1,0-15.7,0-23.4,0c-4.5,0-6.4-1.9-6.4-6.3c0-9.3,0-18.6,0-27.9c0-4.6,1.9-6.5,6.6-6.5c6.9,0,13.8,0,20.7,0
			c0.8,0,1.6-0.1,2.6-0.2c0-1,0-1.8,0-2.6c0-9.4,0-18.8,0-28.2c0-3.7-0.6-4.4-4.3-4.4c-42.4,0-84.9,0-127.3,0
			c-3.5,0-4.2,0.7-4.2,4.2c0,14,0,28.1,0,42.1c0,0.8,0.1,1.6,0.1,2.4c1.9,0,3.5,0,5.3,0c0-3.4,0-6.8,0-10.1c0-2.4,0.8-3.4,3.1-3.4
			c6.1-0.1,12.1,0,18.2,0c1.8,0,3.1,0.8,3,2.7c0,1.9-1.3,2.7-3.1,2.7c-1.6,0-3.2,0-4.8,0c0,2,0,3.7,0,5.5c1.7,0,3.1,0,4.6,0
			c1.9,0,3.3,0.7,3.3,2.7c0,2.1-1.5,2.7-3.3,2.7c-1.5,0-3,0-4.5,0c0,2,0,3.7,0,5.4c1.7,0,3.1,0,4.6,0c1.9,0,3.2,0.7,3.2,2.8
			c0,1.9-1.4,2.6-3.1,2.7c-1.6,0-3.2,0-4.8,0c0,2,0,3.6,0,5.4c1.7,0,3.3,0,5,0c1.8,0,3,0.9,3,2.8c-0.1,1.8-1.2,2.6-3,2.6
			c-1.6,0-3.2,0-4.9,0c0,1.9,0,3.6,0,5.5c1.7,0,3.2,0,4.7,0c1.8,0,3.1,0.7,3.2,2.6c0.1,2.1-1.3,2.8-3.2,2.8c-1.6,0-3.2,0-4.8,0
			C428.9,336.4,428.9,337.9,428.9,339.8z M550.9,320.7c0-10,0-19.7,0-29.5c-10.8,0-21.6,0-32.3,0c0,9.9,0,19.7,0,29.5
			C529.4,320.7,540.1,320.7,550.9,320.7z M469.4,399.5c0-9,0-17.9,0-26.9c-9,0-17.9,0-26.8,0c0,9,0,17.9,0,26.9
			C451.5,399.5,460.3,399.5,469.4,399.5z M507.4,380.5c0-9.1,0-18,0-26.9c-7.3,0-14.3,0-21.4,0c0,9.1,0,18,0,26.8c2.7,0,5.2,0,7.9,0
			c0-0.8,0.1-1.4,0.1-2c0-2.9,0-5.7,0-8.6c0-1.8,1-2.8,2.7-2.8c1.7,0,2.5,1,2.6,2.7c0.1,1.2,0,2.3,0,3.5c0,2.4,0,4.9,0,7.3
			C502.4,380.5,504.8,380.5,507.4,380.5z M399.1,336.9c4.6,0,8.9,0,13.2,0c0-10.9,0-21.6,0-32.3c-4.5,0-8.8,0-13.2,0
			C399.1,315.5,399.1,326.1,399.1,336.9z M485.9,386.1c0,4.7-0.1,9.2,0.1,13.7c0.1,0.9,1.6,2.3,2.5,2.4c5.5,0.2,11,0.2,16.5,0
			c0.9,0,2.4-1.4,2.4-2.2c0.2-4.5,0.1-9.1,0.1-13.8C500.3,386.1,493.3,386.1,485.9,386.1z M418.1,291c0,20,0,39.8,0,59.6
			c1.8,0,3.4,0,5,0c0-19.9,0-39.7,0-59.6C421.4,291,419.9,291,418.1,291z"/>
		<path class="st1" d="M474.9,342.6c-5.2,0-10.4,0-15.6,0c-3.9,0-6.1-2.1-6.1-6c0-5.9,0.2-11.8,0.3-17.6c0-4.4-0.2-8.9-0.3-13.3
			c0-4.4,2-6.4,6.4-6.4c10.2,0,20.5,0,30.7,0c4.3,0,6.4,2,6.4,6.2c0,5.9-0.3,11.8-0.3,17.8c0,4.4,0.1,8.9,0.3,13.3
			c0.1,3.6-2.1,6.1-5.7,6.1C485.6,342.6,480.3,342.6,474.9,342.6z M491.3,337.1c0-10.9,0-21.7,0-32.4c-11,0-21.7,0-32.5,0
			c0,10.9,0,21.5,0,32.4C469.7,337.1,480.5,337.1,491.3,337.1z"/>
		<path class="st0" d="M420.8,386c-4.6,0-8.2-3.5-8.2-8c0-4.5,3.5-8.2,8-8.3c4.4-0.1,8.2,3.6,8.3,8.1
			C428.9,382.3,425.3,385.9,420.8,386z M423.7,378.5c0-0.4,0-0.7,0-1.1c-1-0.8-1.9-1.9-3-2.2c-1.5-0.3-2.6,0.8-2.8,2.4
			c-0.1,1.8,0.9,3,2.6,2.8C421.7,380.4,422.7,379.2,423.7,378.5z"/>
		<path class="st0" d="M420.6,271.9c-4.5,0-8.1-3.7-8-8.2c0.1-4.5,3.8-8.1,8.3-8c4.5,0.1,8.1,3.8,8,8.3
			C428.8,268.4,425.1,271.9,420.6,271.9z M423.8,264.2c0-0.4,0-0.7,0-1.1c-1-0.7-2-1.8-3.1-1.9c-1.6-0.2-2.5,1-2.6,2.6
			c-0.1,1.5,1.4,3.1,2.8,2.6C421.9,266.1,422.8,265,423.8,264.2z"/>
		<path class="st0" d="M537.5,378c0,4.5-3.7,8-8.2,8c-4.5,0-8.1-3.7-8-8.2c0.1-4.5,3.8-8.1,8.3-8.1
			C533.9,369.8,537.5,373.5,537.5,378z M532.4,378.4c0-0.4,0-0.7,0-1.1c-1-0.7-1.9-1.8-3-2c-1.5-0.3-2.6,0.9-2.7,2.5
			c0,1.8,1.1,2.9,2.7,2.7C530.5,380.3,531.4,379.1,532.4,378.4z"/>
		<path class="st0" d="M537.5,263.8c0,4.5-3.6,8.1-8.1,8.1c-4.5,0-8.2-3.6-8.2-8.1c0-4.5,3.7-8.2,8.1-8.2
			C533.8,255.6,537.4,259.3,537.5,263.8z M532.4,264.2c0-0.4,0-0.7,0-1.1c-1-0.7-2-1.8-3.1-1.9c-1.5-0.2-2.6,0.9-2.6,2.6
			c0,1.8,1.2,2.9,2.8,2.6C530.6,266.2,531.4,265,532.4,264.2z"/>
		<path class="st0" d="M459.3,255.3c0.7,1,1.8,2,2,3.1c0.2,1.5-0.9,2.6-2.5,2.7c-1.5,0.1-3.1-1.4-2.7-2.8c0.3-1.1,1.4-2,2.1-3
			C458.6,255.3,458.9,255.3,459.3,255.3z"/>
		<path class="st0" d="M490.8,261.4c-0.7-1-1.9-1.9-2.1-3c-0.3-1.5,0.8-2.6,2.5-2.7c1.5-0.1,3.2,1.2,2.8,2.7
			c-0.3,1.1-1.3,2.1-2.1,3.1C491.5,261.4,491.2,261.4,490.8,261.4z"/>
		<path class="st0" d="M450.9,259c-1,0.7-2,1.8-3.1,1.9c-1.7,0.2-2.7-1.1-2.6-2.8c0.1-1.6,1.3-2.7,2.8-2.4c1.1,0.2,2,1.4,3,2.2
			C450.9,258.3,450.9,258.6,450.9,259z"/>
		<path class="st0" d="M472.6,259c-1,0.7-2,1.8-3.1,1.9c-1.6,0.2-2.5-1-2.6-2.6c-0.1-1.6,1.4-3.1,2.8-2.6c1.1,0.4,2,1.4,3,2.2
			C472.7,258.3,472.6,258.7,472.6,259z"/>
		<path class="st0" d="M440.1,258.8c-1,0.8-1.9,1.9-3,2.2c-1.5,0.3-2.6-0.8-2.8-2.4c-0.2-1.5,1.2-3.2,2.6-2.8c1.1,0.3,2.1,1.3,3.1,2
			C440,258.1,440.1,258.4,440.1,258.8z"/>
		<path class="st0" d="M479.9,261.4c-0.7-1-1.8-1.9-2-3c-0.3-1.7,0.9-2.7,2.7-2.7c1.6,0,2.8,1.1,2.5,2.7c-0.2,1.1-1.3,2-2,3.1
			C480.6,261.4,480.3,261.4,479.9,261.4z"/>
		<path class="st0" d="M502.8,255.3c0.7,1,1.8,2,2,3.1c0.2,1.7-1,2.7-2.7,2.7c-1.7-0.1-2.7-1.2-2.4-2.8c0.2-1.1,1.3-2,2.1-3
			C502,255.3,502.4,255.3,502.8,255.3z"/>
		<path class="st0" d="M516.1,258.8c-1,0.7-1.9,1.9-3,2.1c-1.6,0.3-2.7-0.8-2.8-2.4c-0.1-1.8,1-3,2.6-2.8c1.1,0.1,2.1,1.3,3.1,2
			C516.1,258.1,516.1,258.4,516.1,258.8z"/>
		<path class="st0" d="M440.1,269.8c-1,0.7-1.9,1.8-3,2c-1.7,0.3-2.7-0.9-2.7-2.7c0.1-1.6,1.1-2.8,2.7-2.5c1.1,0.2,2,1.3,3,2
			C440.1,269,440.1,269.4,440.1,269.8z"/>
		<path class="st0" d="M448.4,266.2c0.7,1,1.9,1.9,2,3c0.3,1.7-0.9,2.8-2.7,2.7c-1.6,0-2.8-1.1-2.5-2.7c0.2-1.1,1.3-2,2-3
			C447.6,266.2,448,266.2,448.4,266.2z"/>
		<path class="st0" d="M470.2,266.2c0.7,1,1.8,2,2,3.1c0.2,1.6-0.9,2.6-2.6,2.6c-1.8,0-2.9-1.1-2.6-2.8c0.2-1.1,1.4-2,2.1-3
			C469.5,266.1,469.8,266.2,470.2,266.2z"/>
		<path class="st0" d="M479.8,272.3c-0.7-1-1.8-2-2-3.1c-0.2-1.5,0.9-2.6,2.5-2.6c1.7,0,2.9,1.1,2.6,2.8c-0.2,1.1-1.4,2-2.1,3
			C480.6,272.3,480.2,272.3,479.8,272.3z"/>
		<path class="st0" d="M505.3,269.8c-1,0.7-1.9,1.8-3,2c-1.6,0.3-2.6-0.8-2.7-2.5c0-1.7,1-3,2.7-2.7c1.1,0.2,2,1.3,3,2
			C505.3,269,505.3,269.4,505.3,269.8z"/>
		<path class="st0" d="M513.6,266.2c0.7,1,1.8,1.9,2,3c0.3,1.5-0.9,2.6-2.5,2.7c-1.7,0-3-1-2.7-2.7c0.2-1.1,1.3-2,2.1-3
			C512.9,266.1,513.3,266.1,513.6,266.2z"/>
		<path class="st0" d="M458.3,272.3c-0.8-1-1.9-1.8-2.2-2.9c-0.3-1.5,0.7-2.7,2.4-2.8c1.8-0.1,3,0.9,2.8,2.6
			c-0.1,1.1-1.3,2.1-1.9,3.1C459,272.3,458.7,272.3,458.3,272.3z"/>
		<path class="st0" d="M490.9,272.3c-0.8-1-1.9-1.8-2.2-2.9c-0.3-1.5,0.7-2.7,2.4-2.8c1.8-0.1,3,0.9,2.8,2.6
			c-0.1,1.1-1.3,2.1-1.9,3.1C491.6,272.3,491.3,272.3,490.9,272.3z"/>
		<path class="st0" d="M532.2,310c1.6,0,3.2,0,4.9,0c1.8,0,3,0.8,3,2.7c0,1.9-1.3,2.7-3.1,2.7c-3.4,0-6.8,0-10.2,0
			c-1.8,0-3-1-2.9-2.8c0.1-1.7,1.2-2.6,3-2.6C528.7,310,530.5,310,532.2,310z"/>
		<path class="st0" d="M532.2,296.4c1.7,0,3.4,0,5.1,0c1.7,0,2.8,0.9,2.9,2.6c0.1,1.8-1.1,2.7-2.8,2.7c-3.5,0.1-7.1,0.1-10.6,0
			c-1.7,0-2.8-1-2.8-2.7c0-1.7,1.1-2.6,2.9-2.6C528.6,296.4,530.4,296.4,532.2,296.4z"/>
		<path class="st0" d="M458.7,386c0-1-0.3-2.2,0.1-3c0.5-1,1.6-2.3,2.4-2.2c1,0,2.6,1.1,2.7,2c0.4,2.1,0.4,4.3,0,6.4
			c-0.2,0.9-1.7,2.1-2.5,2c-1-0.1-2.1-1.3-2.6-2.3C458.4,388.2,458.7,387,458.7,386L458.7,386z"/>
		<path class="st0" d="M453.2,385.9c0,0.9,0,1.9,0,2.8c-0.1,1.7-1,2.8-2.8,2.7c-1.6,0-2.5-1.1-2.6-2.7c-0.1-1.8-0.1-3.5,0-5.3
			c0.1-1.7,1-2.8,2.7-2.7c1.6,0,2.5,1.1,2.6,2.7C453.3,384.2,453.2,385,453.2,385.9z"/>
	</g>
	<g>
		<g>
			<line class="st0" x1="621.2" y1="326.3" x2="696.8" y2="326.3"/>
			<g>
				<line class="st2" x1="621.2" y1="326.3" x2="630.8" y2="326.3"/>
				<line class="st3" x1="637.1" y1="326.3" x2="684.1" y2="326.3"/>
				<line class="st2" x1="687.2" y1="326.3" x2="696.8" y2="326.3"/>
			</g>
		</g>
		<path class="st4" d="M717,377.3c-28.2-28.2-28.2-74,0-102.1 M728.9,363.7c-20.6-20.6-20.6-54.2,0-74.9 M741.6,350.7
			c-13.5-13.5-13.5-35.4,0-48.9"/>
		<path class="st4" d="M600.1,275.2c28.2,28.2,28.2,74,0,102.1 M588.1,288.8c20.6,20.7,20.6,54.2,0,74.9 M575.4,301.8
			c13.5,13.5,13.5,35.4,0,48.9"/>
	</g>
	<line class="st5" x1="841" y1="233.2" x2="841" y2="185.9"/>
	<g>
		<ellipse class="st4" cx="108.6" cy="74.4" rx="52.2" ry="16.2"/>
		<line class="st4" x1="160.9" y1="74.4" x2="160.9" y2="107.3"/>
		<line class="st4" x1="56.4" y1="74.4" x2="56.4" y2="107.3"/>
		<path class="st4" d="M57.9,90.2"/>
		<path class="st4" d="M160.9,90.5"/>
		<path class="st4" d="M57.9,90.2c-13.1,4.9-21.2,11.7-21.2,19.3c0,15,32.3,27.2,72.3,27.2s72.3-12.2,72.3-27.2
			c0-7.4-7.7-14-20.3-18.9"/>
		<path class="st4" d="M160.9,104.9c0,8.9-23.4,16.2-52.2,16.2s-52.2-7.3-52.2-16.2"/>
		<path class="st4" d="M160.9,116.6"/>
		<path class="st4" d="M181.2,135.6"/>
		<path class="st4" d="M36.7,135.6c0,15,32.3,27.2,72.3,27.2s72.3-12.2,72.3-27.2"/>
		<path class="st4" d="M36.7,135.6"/>
		<path class="st4" d="M57.9,116.3"/>
		<line class="st4" x1="36.7" y1="109.5" x2="36.7" y2="135.6"/>
		<line class="st4" x1="181.2" y1="109.5" x2="181.2" y2="135.6"/>
		<path class="st6" d="M151.4,74.4c-3.3,5.2-23,7.5-28.9,7.5"/>
	</g>
	<line class="st5" x1="109" y1="233.2" x2="109" y2="185.9"/>
	<line class="st7" x1="243.6" y1="136.7" x2="303.2" y2="77.1"/>
	<line class="st7" x1="301.2" y1="136.7" x2="360.8" y2="77.1"/>
	<line class="st7" x1="358.8" y1="136.7" x2="373" y2="122.5"/>
	<line class="st7" x1="416.4" y1="136.7" x2="423.5" y2="129.6"/>
	<line class="st7" x1="474" y1="136.7" x2="487.6" y2="123.2"/>
	<path class="st8" d="M519.1,136.7"/>
	<line class="st7" x1="589.2" y1="136.7" x2="648.8" y2="77.1"/>
	<line class="st7" x1="646.8" y1="136.7" x2="706.4" y2="77.1"/>
	<line class="st7" x1="704.4" y1="136.7" x2="716.8" y2="124.3"/>
	<line class="st5" x1="301.2" y1="169.2" x2="301.2" y2="188.2"/>
	<polyline class="st5" points="243.6,169.2 243.6,188.2 301,188.2 474,188.2 474,233.2 	"/>
	<line class="st5" x1="360.8" y1="169.2" x2="360.8" y2="188.2"/>
	<line class="st5" x1="416.4" y1="169.2" x2="416.4" y2="188.2"/>
	<line class="st5" x1="474" y1="169.2" x2="474" y2="207.2"/>
	<line class="st5" x1="531.6" y1="169.2" x2="531.6" y2="188.2"/>
	<line class="st5" x1="589.2" y1="169.2" x2="589.2" y2="188.2"/>
	<polyline class="st5" points="474,188.2 646.8,188.2 646.8,169.2 	"/>
	<polyline class="st5" points="646.8,188.2 704.4,188.2 704.4,169.2 	"/>
</g>
</svg>
