<?xml version="1.0" encoding="utf-8"?>
<!-- Generator: Adobe Illustrator 21.1.0, SVG Export Plug-In . SVG Version: 6.00 Build 0)  -->
<svg version="1.1" id="Layer_1" xmlns="http://www.w3.org/2000/svg" xmlns:xlink="http://www.w3.org/1999/xlink" x="0px" y="0px"
	 viewBox="0 0 25.2 25.2" style="enable-background:new 0 0 25.2 25.2;" xml:space="preserve">
<style type="text/css">
	.st0{fill:#F5F5F5;}
	.st1{fill:#F26483;}
</style>
<g>
	<path class="st0" d="M16.1,0.6c0.1,0.2,0.4,0.4,0.4,0.7c0,1.3,0,2.6,0,3.8c0,0.1,0.1,0.2,0.2,0.2c0.8,0,1.5,0,2.3,0
		c0.3,0,0.6,0.3,0.6,0.6c0,0.8,0,1.5,0,2.3c0,0.1,0.1,0.3,0.3,0.3c1.3,0,2.5,0,3.8,0c0.4,0,0.6,0.1,0.6,0.5c0,0.4-0.3,0.5-0.6,0.5
		c-1.3,0-2.6,0-3.8,0c-0.1,0-0.2,0.1-0.2,0.2c0,0.9,0,1.8,0,2.7c0,0.1,0.1,0.2,0.2,0.2c1.3,0,2.6,0,3.8,0c0.4,0,0.7,0.1,0.7,0.5
		c0,0.4-0.3,0.5-0.7,0.5c-1.3,0-2.5,0-3.8,0c-0.1,0-0.2,0.1-0.2,0.2c0,0.9,0,1.7,0,2.6c0,0.2,0,0.3,0.3,0.3c1.2,0,2.5,0,3.7,0
		c0.4,0,0.7,0.1,0.7,0.5c0,0.4-0.3,0.5-0.7,0.5c-1.3,0-2.6,0-3.8,0c-0.1,0-0.2,0.1-0.2,0.2c0,0.7,0,1.5,0,2.2c0,0.4-0.3,0.7-0.7,0.7
		c-0.7,0-1.5,0-2.2,0c-0.1,0-0.2,0.1-0.2,0.2c0,1.3,0,2.5,0,3.8c0,0.4-0.1,0.6-0.5,0.6c-0.4,0-0.5-0.3-0.5-0.7c0-1.3,0-2.6,0-3.8
		c0-0.1-0.1-0.2-0.2-0.2c-0.9,0-1.8,0-2.7,0c-0.1,0-0.2,0.1-0.2,0.2c0,1.3,0,2.5,0,3.8c0,0.4-0.1,0.7-0.5,0.7
		c-0.4,0-0.5-0.3-0.5-0.7c0-1.3,0-2.5,0-3.8c0-0.1-0.1-0.2-0.2-0.2c-0.9,0-1.8,0-2.7,0c-0.1,0-0.2,0.1-0.2,0.2c0,1.3,0,2.6,0,3.9
		c0,0.2-0.3,0.4-0.5,0.6c-0.2-0.2-0.5-0.4-0.5-0.6c0-1.3,0-2.6,0-3.9c0-0.1-0.1-0.2-0.2-0.2c-0.8,0-1.5,0-2.3,0
		c-0.4,0-0.7-0.3-0.7-0.7c0-0.8,0-1.5,0-2.3c0-0.1-0.1-0.2-0.2-0.2c-1.3,0-2.5,0-3.8,0c-0.4,0-0.7-0.1-0.7-0.5
		c0-0.4,0.3-0.5,0.7-0.5c1.2,0,2.5,0,3.7,0c0.3,0,0.3-0.1,0.3-0.3c0-0.9,0-1.7,0-2.6c0-0.1-0.1-0.2-0.2-0.2c-1.3,0-2.5,0-3.8,0
		c-0.4,0-0.6-0.1-0.6-0.5c0-0.4,0.3-0.5,0.6-0.5c1.3,0,2.6,0,3.8,0c0.1,0,0.2-0.1,0.2-0.2c0-0.9,0-1.8,0-2.7c0-0.1-0.1-0.2-0.2-0.2
		c-1.3,0-2.6,0-3.9,0c-0.4,0-0.7-0.2-0.6-0.5c0-0.2,0.4-0.5,0.6-0.5c1.3,0,2.6,0,3.9,0c0.1,0,0.2-0.1,0.2-0.2c0-0.8,0-1.5,0-2.3
		c0-0.3,0.3-0.6,0.6-0.6c0.8,0,1.5,0,2.3,0c0.1,0,0.2-0.1,0.2-0.2c0-1.3,0-2.5,0-3.8c0-0.2,0.2-0.5,0.4-0.7h0.3
		c0.1,0.2,0.3,0.5,0.3,0.7c0,1.3,0,2.5,0,3.8c0,0.1,0.1,0.2,0.2,0.2c0.9,0,1.8,0,2.7,0c0.1,0,0.2-0.1,0.2-0.2c0-1.3,0-2.5,0-3.8
		c0-0.2,0.2-0.5,0.4-0.7h0.3c0.1,0.2,0.4,0.5,0.4,0.7c0,1.3,0,2.5,0,3.8c0,0.1,0.1,0.2,0.2,0.2c0.9,0,1.8,0,2.7,0
		c0.1,0,0.2-0.1,0.2-0.2c0-1.3,0-2.5,0-3.8c0-0.2,0.2-0.5,0.3-0.7H16.1z M11.8,6.6c-2.2,0-4.4,0-6.6,0C5.1,6.6,5,6.7,5,6.8
		c0,4.4,0,8.8,0,13.1c0,0.1,0.2,0.3,0.3,0.3c4.4,0,8.7,0,13.1,0c0.1,0,0.3-0.2,0.3-0.3c0-4.4,0-8.8,0-13.1c0-0.1-0.2-0.2-0.3-0.2
		C16.2,6.6,14,6.6,11.8,6.6"/>
	<path class="st1" d="M11.8,18.1c-1.4,0-2.7,0-4.1,0c-0.4,0-0.6-0.3-0.6-0.6c0-2.7,0-5.5,0-8.2c0-0.3,0.3-0.6,0.6-0.6
		c2.7,0,5.5,0,8.2,0c0.3,0,0.6,0.3,0.6,0.6c0,2.7,0,5.5,0,8.2c0,0.4-0.3,0.7-0.7,0.7C14.5,18.1,13.2,18.1,11.8,18.1 M7.8,13.6h0.3
		c0,1.1,0,2.3,0,3.4c0,0.1,0.1,0.3,0.3,0.3c2.3,0,4.6,0,6.8,0c0.1,0,0.3-0.1,0.3-0.3c0-2.3,0-4.6,0-6.8c0-0.1-0.1-0.2-0.2-0.2
		c-2.3,0-4.6,0-6.9,0c-0.1,0-0.2,0.1-0.2,0.2c0,1.1,0,2.3,0,3.4"/>
</g>
</svg>
