<?xml version="1.0" encoding="utf-8"?>
<!-- Generator: Adobe Illustrator 21.1.0, SVG Export Plug-In . SVG Version: 6.00 Build 0)  -->
<svg version="1.1" id="Layer_1" xmlns="http://www.w3.org/2000/svg" xmlns:xlink="http://www.w3.org/1999/xlink" x="0px" y="0px"
	 width="598.6px" height="245.8px" viewBox="0 0 598.6 245.8" style="enable-background:new 0 0 598.6 245.8;" xml:space="preserve"
	>
<style type="text/css">
	.st0{fill:#FF2020;}
	.st1{fill:#40D375;}
	.st2{opacity:0.502;fill:#F5F5F5;}
	.st3{opacity:0.502;fill:none;stroke:#F5F5F5;stroke-width:0.71;stroke-linecap:round;stroke-linejoin:round;stroke-miterlimit:10;}
	.st4{fill:#F5F5F5;}
	.st5{fill:none;stroke:#4CB69F;stroke-miterlimit:10;}
	.st6{fill:#4CB69F;}
</style>
<rect x="74.8" y="208.2" class="st0" width="523.6" height="37.4"/>
<rect x="74.8" y="166.7" class="st1" width="251.1" height="37.4"/>
<rect x="74.8" y="125.1" class="st0" width="196.4" height="37.4"/>
<rect x="74.8" y="83.6" class="st0" width="98.2" height="37.4"/>
<rect x="74.8" y="42.1" class="st1" width="50.8" height="37.4"/>
<g>
	<path class="st2" d="M119.8,60.4c0-0.5,0.4-0.9,0.9-0.9s0.9,0.4,0.9,0.9c0,0.5-0.4,0.9-0.9,0.9S119.8,60.9,119.8,60.4"/>
	<path class="st3" d="M119.8,60.4c0-0.5,0.4-0.9,0.9-0.9s0.9,0.4,0.9,0.9c0,0.5-0.4,0.9-0.9,0.9S119.8,60.9,119.8,60.4"/>
</g>
<g>
	<path class="st2" d="M119.8,63.1c0-0.5,0.4-0.9,0.9-0.9s0.9,0.4,0.9,0.9c0,0.5-0.4,0.9-0.9,0.9S119.8,63.6,119.8,63.1"/>
	<path class="st3" d="M119.8,63.1c0-0.5,0.4-0.9,0.9-0.9s0.9,0.4,0.9,0.9c0,0.5-0.4,0.9-0.9,0.9S119.8,63.6,119.8,63.1"/>
</g>
<g>
	<path class="st2" d="M126.3,57.7c0-0.5,0.4-0.9,0.9-0.9c0.5,0,0.9,0.4,0.9,0.9s-0.4,0.9-0.9,0.9C126.7,58.5,126.3,58.1,126.3,57.7"
		/>
	<path class="st3" d="M126.3,57.7c0-0.5,0.4-0.9,0.9-0.9c0.5,0,0.9,0.4,0.9,0.9s-0.4,0.9-0.9,0.9C126.7,58.5,126.3,58.1,126.3,57.7"
		/>
</g>
<g>
	<path class="st2" d="M119.8,64.2c0-0.5,0.4-0.9,0.9-0.9s0.9,0.4,0.9,0.9s-0.4,0.9-0.9,0.9S119.8,64.6,119.8,64.2"/>
	<path class="st3" d="M119.8,64.2c0-0.5,0.4-0.9,0.9-0.9s0.9,0.4,0.9,0.9s-0.4,0.9-0.9,0.9S119.8,64.6,119.8,64.2"/>
</g>
<g>
	<path class="st2" d="M126.3,66.8c0-0.5,0.4-0.9,0.9-0.9c0.5,0,0.9,0.4,0.9,0.9c0,0.5-0.4,0.9-0.9,0.9
		C126.7,67.7,126.3,67.3,126.3,66.8"/>
	<path class="st3" d="M126.3,66.8c0-0.5,0.4-0.9,0.9-0.9c0.5,0,0.9,0.4,0.9,0.9c0,0.5-0.4,0.9-0.9,0.9
		C126.7,67.7,126.3,67.3,126.3,66.8"/>
</g>
<g>
	<path class="st2" d="M126.3,62.8c0-0.5,0.4-0.9,0.9-0.9c0.5,0,0.9,0.4,0.9,0.9c0,0.5-0.4,0.9-0.9,0.9
		C126.7,63.7,126.3,63.3,126.3,62.8"/>
	<path class="st3" d="M126.3,62.8c0-0.5,0.4-0.9,0.9-0.9c0.5,0,0.9,0.4,0.9,0.9c0,0.5-0.4,0.9-0.9,0.9
		C126.7,63.7,126.3,63.3,126.3,62.8"/>
</g>
<g>
	<path class="st2" d="M123.7,59c0-0.5,0.4-0.9,0.9-0.9s0.9,0.4,0.9,0.9c0,0.5-0.4,0.9-0.9,0.9S123.7,59.4,123.7,59"/>
	<path class="st3" d="M123.7,59c0-0.5,0.4-0.9,0.9-0.9s0.9,0.4,0.9,0.9c0,0.5-0.4,0.9-0.9,0.9S123.7,59.4,123.7,59"/>
</g>
<g>
	<path class="st2" d="M119.8,62c0-0.5,0.4-0.9,0.9-0.9s0.9,0.4,0.9,0.9c0,0.5-0.4,0.9-0.9,0.9S119.8,62.4,119.8,62"/>
	<path class="st3" d="M119.8,62c0-0.5,0.4-0.9,0.9-0.9s0.9,0.4,0.9,0.9c0,0.5-0.4,0.9-0.9,0.9S119.8,62.4,119.8,62"/>
</g>
<g>
	<path class="st2" d="M126.3,58.8c0-0.5,0.4-0.9,0.9-0.9c0.5,0,0.9,0.4,0.9,0.9c0,0.5-0.4,0.9-0.9,0.9
		C126.7,59.7,126.3,59.3,126.3,58.8"/>
	<path class="st3" d="M126.3,58.8c0-0.5,0.4-0.9,0.9-0.9c0.5,0,0.9,0.4,0.9,0.9c0,0.5-0.4,0.9-0.9,0.9
		C126.7,59.7,126.3,59.3,126.3,58.8"/>
</g>
<g>
	<path class="st2" d="M123.7,54.8c0-0.5,0.4-0.9,0.9-0.9s0.9,0.4,0.9,0.9c0,0.5-0.4,0.9-0.9,0.9S123.7,55.3,123.7,54.8"/>
	<path class="st3" d="M123.7,54.8c0-0.5,0.4-0.9,0.9-0.9s0.9,0.4,0.9,0.9c0,0.5-0.4,0.9-0.9,0.9S123.7,55.3,123.7,54.8"/>
</g>
<g>
	<path class="st2" d="M127.6,54c0-0.5,0.4-0.9,0.9-0.9c0.5,0,0.9,0.4,0.9,0.9c0,0.5-0.4,0.9-0.9,0.9C128,54.9,127.6,54.5,127.6,54"
		/>
	<path class="st3" d="M127.6,54c0-0.5,0.4-0.9,0.9-0.9c0.5,0,0.9,0.4,0.9,0.9c0,0.5-0.4,0.9-0.9,0.9C128,54.9,127.6,54.5,127.6,54"
		/>
</g>
<g>
	<path class="st2" d="M123.7,52.8c0-0.5,0.4-0.9,0.9-0.9s0.9,0.4,0.9,0.9s-0.4,0.9-0.9,0.9S123.7,53.3,123.7,52.8"/>
	<path class="st3" d="M123.7,52.8c0-0.5,0.4-0.9,0.9-0.9s0.9,0.4,0.9,0.9s-0.4,0.9-0.9,0.9S123.7,53.3,123.7,52.8"/>
</g>
<g>
	<path class="st2" d="M123.7,54.4c0-0.5,0.4-0.9,0.9-0.9s0.9,0.4,0.9,0.9c0,0.5-0.4,0.9-0.9,0.9S123.7,54.9,123.7,54.4"/>
	<path class="st3" d="M123.7,54.4c0-0.5,0.4-0.9,0.9-0.9s0.9,0.4,0.9,0.9c0,0.5-0.4,0.9-0.9,0.9S123.7,54.9,123.7,54.4"/>
</g>
<g>
	<path class="st2" d="M128.9,57c0-0.5,0.4-0.9,0.9-0.9c0.5,0,0.9,0.4,0.9,0.9c0,0.5-0.4,0.9-0.9,0.9C129.3,57.9,128.9,57.5,128.9,57
		"/>
	<path class="st3" d="M128.9,57c0-0.5,0.4-0.9,0.9-0.9c0.5,0,0.9,0.4,0.9,0.9c0,0.5-0.4,0.9-0.9,0.9C129.3,57.9,128.9,57.5,128.9,57
		"/>
</g>
<g>
	<path class="st2" d="M122.4,62.2c0-0.5,0.4-0.9,0.9-0.9c0.5,0,0.9,0.4,0.9,0.9c0,0.5-0.4,0.9-0.9,0.9
		C122.8,63.1,122.4,62.7,122.4,62.2"/>
	<path class="st3" d="M122.4,62.2c0-0.5,0.4-0.9,0.9-0.9c0.5,0,0.9,0.4,0.9,0.9c0,0.5-0.4,0.9-0.9,0.9
		C122.8,63.1,122.4,62.7,122.4,62.2"/>
</g>
<g>
	<path class="st2" d="M119.8,63.3c0-0.5,0.4-0.9,0.9-0.9s0.9,0.4,0.9,0.9c0,0.5-0.4,0.9-0.9,0.9S119.8,63.8,119.8,63.3"/>
	<path class="st3" d="M119.8,63.3c0-0.5,0.4-0.9,0.9-0.9s0.9,0.4,0.9,0.9c0,0.5-0.4,0.9-0.9,0.9S119.8,63.8,119.8,63.3"/>
</g>
<g>
	<path class="st2" d="M130.2,55.8c0-0.5,0.4-0.9,0.9-0.9c0.5,0,0.9,0.4,0.9,0.9c0,0.5-0.4,0.9-0.9,0.9
		C130.6,56.7,130.2,56.3,130.2,55.8"/>
	<path class="st3" d="M130.2,55.8c0-0.5,0.4-0.9,0.9-0.9c0.5,0,0.9,0.4,0.9,0.9c0,0.5-0.4,0.9-0.9,0.9
		C130.6,56.7,130.2,56.3,130.2,55.8"/>
</g>
<g>
	<path class="st2" d="M128.9,55.7c0-0.5,0.4-0.9,0.9-0.9c0.5,0,0.9,0.4,0.9,0.9c0,0.5-0.4,0.9-0.9,0.9
		C129.3,56.6,128.9,56.2,128.9,55.7"/>
	<path class="st3" d="M128.9,55.7c0-0.5,0.4-0.9,0.9-0.9c0.5,0,0.9,0.4,0.9,0.9c0,0.5-0.4,0.9-0.9,0.9
		C129.3,56.6,128.9,56.2,128.9,55.7"/>
</g>
<g>
	<path class="st2" d="M134.2,64.3c0-0.5,0.4-0.9,0.9-0.9c0.5,0,0.9,0.4,0.9,0.9c0,0.5-0.4,0.9-0.9,0.9
		C134.6,65.2,134.2,64.8,134.2,64.3"/>
	<path class="st3" d="M134.2,64.3c0-0.5,0.4-0.9,0.9-0.9c0.5,0,0.9,0.4,0.9,0.9c0,0.5-0.4,0.9-0.9,0.9
		C134.6,65.2,134.2,64.8,134.2,64.3"/>
</g>
<g>
	<path class="st2" d="M119.8,55.6c0-0.5,0.4-0.9,0.9-0.9s0.9,0.4,0.9,0.9c0,0.5-0.4,0.9-0.9,0.9S119.8,56,119.8,55.6"/>
	<path class="st3" d="M119.8,55.6c0-0.5,0.4-0.9,0.9-0.9s0.9,0.4,0.9,0.9c0,0.5-0.4,0.9-0.9,0.9S119.8,56,119.8,55.6"/>
</g>
<g>
	<path class="st2" d="M123.7,67.8c0-0.5,0.4-0.9,0.9-0.9s0.9,0.4,0.9,0.9c0,0.5-0.4,0.9-0.9,0.9S123.7,68.3,123.7,67.8"/>
	<path class="st3" d="M123.7,67.8c0-0.5,0.4-0.9,0.9-0.9s0.9,0.4,0.9,0.9c0,0.5-0.4,0.9-0.9,0.9S123.7,68.3,123.7,67.8"/>
</g>
<g>
	<path class="st2" d="M123.7,66.9c0-0.5,0.4-0.9,0.9-0.9s0.9,0.4,0.9,0.9c0,0.5-0.4,0.9-0.9,0.9S123.7,67.4,123.7,66.9"/>
	<path class="st3" d="M123.7,66.9c0-0.5,0.4-0.9,0.9-0.9s0.9,0.4,0.9,0.9c0,0.5-0.4,0.9-0.9,0.9S123.7,67.4,123.7,66.9"/>
</g>
<g>
	<path class="st2" d="M126.3,67.2c0-0.5,0.4-0.9,0.9-0.9c0.5,0,0.9,0.4,0.9,0.9c0,0.5-0.4,0.9-0.9,0.9
		C126.7,68.1,126.3,67.7,126.3,67.2"/>
	<path class="st3" d="M126.3,67.2c0-0.5,0.4-0.9,0.9-0.9c0.5,0,0.9,0.4,0.9,0.9c0,0.5-0.4,0.9-0.9,0.9
		C126.7,68.1,126.3,67.7,126.3,67.2"/>
</g>
<g>
	<path class="st2" d="M132.8,66.3c0-0.5,0.4-0.9,0.9-0.9s0.9,0.4,0.9,0.9c0,0.5-0.4,0.9-0.9,0.9S132.8,66.8,132.8,66.3"/>
	<path class="st3" d="M132.8,66.3c0-0.5,0.4-0.9,0.9-0.9s0.9,0.4,0.9,0.9c0,0.5-0.4,0.9-0.9,0.9S132.8,66.8,132.8,66.3"/>
</g>
<g>
	<path class="st2" d="M119.8,65.7c0-0.5,0.4-0.9,0.9-0.9s0.9,0.4,0.9,0.9c0,0.5-0.4,0.9-0.9,0.9S119.8,66.2,119.8,65.7"/>
	<path class="st3" d="M119.8,65.7c0-0.5,0.4-0.9,0.9-0.9s0.9,0.4,0.9,0.9c0,0.5-0.4,0.9-0.9,0.9S119.8,66.2,119.8,65.7"/>
</g>
<g>
	<path class="st2" d="M123.7,66.1c0-0.5,0.4-0.9,0.9-0.9s0.9,0.4,0.9,0.9c0,0.5-0.4,0.9-0.9,0.9S123.7,66.6,123.7,66.1"/>
	<path class="st3" d="M123.7,66.1c0-0.5,0.4-0.9,0.9-0.9s0.9,0.4,0.9,0.9c0,0.5-0.4,0.9-0.9,0.9S123.7,66.6,123.7,66.1"/>
</g>
<g>
	<path class="st2" d="M127.6,65.6c0-0.5,0.4-0.9,0.9-0.9c0.5,0,0.9,0.4,0.9,0.9c0,0.5-0.4,0.9-0.9,0.9
		C128,66.5,127.6,66.1,127.6,65.6"/>
	<path class="st3" d="M127.6,65.6c0-0.5,0.4-0.9,0.9-0.9c0.5,0,0.9,0.4,0.9,0.9c0,0.5-0.4,0.9-0.9,0.9
		C128,66.5,127.6,66.1,127.6,65.6"/>
</g>
<g>
	<path class="st2" d="M128.9,63.3c0-0.5,0.4-0.9,0.9-0.9c0.5,0,0.9,0.4,0.9,0.9c0,0.5-0.4,0.9-0.9,0.9
		C129.3,64.2,128.9,63.8,128.9,63.3"/>
	<path class="st3" d="M128.9,63.3c0-0.5,0.4-0.9,0.9-0.9c0.5,0,0.9,0.4,0.9,0.9c0,0.5-0.4,0.9-0.9,0.9
		C129.3,64.2,128.9,63.8,128.9,63.3"/>
</g>
<g>
	<path class="st2" d="M119.8,59.1c0-0.5,0.4-0.9,0.9-0.9s0.9,0.4,0.9,0.9s-0.4,0.9-0.9,0.9S119.8,59.6,119.8,59.1"/>
	<path class="st3" d="M119.8,59.1c0-0.5,0.4-0.9,0.9-0.9s0.9,0.4,0.9,0.9s-0.4,0.9-0.9,0.9S119.8,59.6,119.8,59.1"/>
</g>
<g>
	<path class="st2" d="M121.1,57.3c0-0.5,0.4-0.9,0.9-0.9c0.5,0,0.9,0.4,0.9,0.9c0,0.5-0.4,0.9-0.9,0.9
		C121.5,58.1,121.1,57.7,121.1,57.3"/>
	<path class="st3" d="M121.1,57.3c0-0.5,0.4-0.9,0.9-0.9c0.5,0,0.9,0.4,0.9,0.9c0,0.5-0.4,0.9-0.9,0.9
		C121.5,58.1,121.1,57.7,121.1,57.3"/>
</g>
<g>
	<path class="st2" d="M128.9,58.9c0-0.5,0.4-0.9,0.9-0.9c0.5,0,0.9,0.4,0.9,0.9c0,0.5-0.4,0.9-0.9,0.9
		C129.3,59.8,128.9,59.4,128.9,58.9"/>
	<path class="st3" d="M128.9,58.9c0-0.5,0.4-0.9,0.9-0.9c0.5,0,0.9,0.4,0.9,0.9c0,0.5-0.4,0.9-0.9,0.9
		C129.3,59.8,128.9,59.4,128.9,58.9"/>
</g>
<g>
	<path class="st2" d="M121.1,62.1c0-0.5,0.4-0.9,0.9-0.9c0.5,0,0.9,0.4,0.9,0.9S122.4,63,122,63C121.5,63,121.1,62.6,121.1,62.1"/>
	<path class="st3" d="M121.1,62.1c0-0.5,0.4-0.9,0.9-0.9c0.5,0,0.9,0.4,0.9,0.9S122.4,63,122,63C121.5,63,121.1,62.6,121.1,62.1"/>
</g>
<g>
	<path class="st2" d="M128.9,67.2c0-0.5,0.4-0.9,0.9-0.9c0.5,0,0.9,0.4,0.9,0.9s-0.4,0.9-0.9,0.9C129.3,68.1,128.9,67.7,128.9,67.2"
		/>
	<path class="st3" d="M128.9,67.2c0-0.5,0.4-0.9,0.9-0.9c0.5,0,0.9,0.4,0.9,0.9s-0.4,0.9-0.9,0.9C129.3,68.1,128.9,67.7,128.9,67.2"
		/>
</g>
<g>
	<path class="st2" d="M127.6,64.5c0-0.5,0.4-0.9,0.9-0.9c0.5,0,0.9,0.4,0.9,0.9c0,0.5-0.4,0.9-0.9,0.9C128,65.4,127.6,65,127.6,64.5
		"/>
	<path class="st3" d="M127.6,64.5c0-0.5,0.4-0.9,0.9-0.9c0.5,0,0.9,0.4,0.9,0.9c0,0.5-0.4,0.9-0.9,0.9C128,65.4,127.6,65,127.6,64.5
		"/>
</g>
<g>
	<path class="st2" d="M119.8,61.8c0-0.5,0.4-0.9,0.9-0.9s0.9,0.4,0.9,0.9s-0.4,0.9-0.9,0.9S119.8,62.3,119.8,61.8"/>
	<path class="st3" d="M119.8,61.8c0-0.5,0.4-0.9,0.9-0.9s0.9,0.4,0.9,0.9s-0.4,0.9-0.9,0.9S119.8,62.3,119.8,61.8"/>
</g>
<g>
	<path class="st2" d="M126.3,58.6c0-0.5,0.4-0.9,0.9-0.9c0.5,0,0.9,0.4,0.9,0.9c0,0.5-0.4,0.9-0.9,0.9
		C126.7,59.4,126.3,59,126.3,58.6"/>
	<path class="st3" d="M126.3,58.6c0-0.5,0.4-0.9,0.9-0.9c0.5,0,0.9,0.4,0.9,0.9c0,0.5-0.4,0.9-0.9,0.9
		C126.7,59.4,126.3,59,126.3,58.6"/>
</g>
<g>
	<path class="st2" d="M125,64c0-0.5,0.4-0.9,0.9-0.9c0.5,0,0.9,0.4,0.9,0.9c0,0.5-0.4,0.9-0.9,0.9C125.4,64.9,125,64.5,125,64"/>
	<path class="st3" d="M125,64c0-0.5,0.4-0.9,0.9-0.9c0.5,0,0.9,0.4,0.9,0.9c0,0.5-0.4,0.9-0.9,0.9C125.4,64.9,125,64.5,125,64"/>
</g>
<g>
	<path class="st2" d="M125,56.1c0-0.5,0.4-0.9,0.9-0.9c0.5,0,0.9,0.4,0.9,0.9c0,0.5-0.4,0.9-0.9,0.9C125.4,56.9,125,56.5,125,56.1"
		/>
	<path class="st3" d="M125,56.1c0-0.5,0.4-0.9,0.9-0.9c0.5,0,0.9,0.4,0.9,0.9c0,0.5-0.4,0.9-0.9,0.9C125.4,56.9,125,56.5,125,56.1"
		/>
</g>
<g>
	<path class="st2" d="M122.4,66.5c0-0.5,0.4-0.9,0.9-0.9c0.5,0,0.9,0.4,0.9,0.9c0,0.5-0.4,0.9-0.9,0.9
		C122.8,67.4,122.4,67,122.4,66.5"/>
	<path class="st3" d="M122.4,66.5c0-0.5,0.4-0.9,0.9-0.9c0.5,0,0.9,0.4,0.9,0.9c0,0.5-0.4,0.9-0.9,0.9
		C122.8,67.4,122.4,67,122.4,66.5"/>
</g>
<g>
	<path class="st2" d="M118.4,60.1c0-0.5,0.4-0.9,0.9-0.9c0.5,0,0.9,0.4,0.9,0.9c0,0.5-0.4,0.9-0.9,0.9
		C118.8,61,118.4,60.6,118.4,60.1"/>
	<path class="st3" d="M118.4,60.1c0-0.5,0.4-0.9,0.9-0.9c0.5,0,0.9,0.4,0.9,0.9c0,0.5-0.4,0.9-0.9,0.9
		C118.8,61,118.4,60.6,118.4,60.1"/>
</g>
<g>
	<path class="st2" d="M118.4,64.9c0-0.5,0.4-0.9,0.9-0.9c0.5,0,0.9,0.4,0.9,0.9c0,0.5-0.4,0.9-0.9,0.9
		C118.8,65.8,118.4,65.4,118.4,64.9"/>
	<path class="st3" d="M118.4,64.9c0-0.5,0.4-0.9,0.9-0.9c0.5,0,0.9,0.4,0.9,0.9c0,0.5-0.4,0.9-0.9,0.9
		C118.8,65.8,118.4,65.4,118.4,64.9"/>
</g>
<g>
	<path class="st2" d="M121.1,64.2c0-0.5,0.4-0.9,0.9-0.9c0.5,0,0.9,0.4,0.9,0.9c0,0.5-0.4,0.9-0.9,0.9
		C121.5,65.1,121.1,64.7,121.1,64.2"/>
	<path class="st3" d="M121.1,64.2c0-0.5,0.4-0.9,0.9-0.9c0.5,0,0.9,0.4,0.9,0.9c0,0.5-0.4,0.9-0.9,0.9
		C121.5,65.1,121.1,64.7,121.1,64.2"/>
</g>
<g>
	<path class="st2" d="M125,55c0-0.5,0.4-0.9,0.9-0.9c0.5,0,0.9,0.4,0.9,0.9c0,0.5-0.4,0.9-0.9,0.9C125.4,55.9,125,55.5,125,55"/>
	<path class="st3" d="M125,55c0-0.5,0.4-0.9,0.9-0.9c0.5,0,0.9,0.4,0.9,0.9c0,0.5-0.4,0.9-0.9,0.9C125.4,55.9,125,55.5,125,55"/>
</g>
<g>
	<path class="st2" d="M125,63.3c0-0.5,0.4-0.9,0.9-0.9c0.5,0,0.9,0.4,0.9,0.9c0,0.5-0.4,0.9-0.9,0.9C125.4,64.2,125,63.8,125,63.3"
		/>
	<path class="st3" d="M125,63.3c0-0.5,0.4-0.9,0.9-0.9c0.5,0,0.9,0.4,0.9,0.9c0,0.5-0.4,0.9-0.9,0.9C125.4,64.2,125,63.8,125,63.3"
		/>
</g>
<g>
	<path class="st2" d="M122.4,52.9c0-0.5,0.4-0.9,0.9-0.9c0.5,0,0.9,0.4,0.9,0.9s-0.4,0.9-0.9,0.9C122.8,53.8,122.4,53.4,122.4,52.9"
		/>
	<path class="st3" d="M122.4,52.9c0-0.5,0.4-0.9,0.9-0.9c0.5,0,0.9,0.4,0.9,0.9s-0.4,0.9-0.9,0.9C122.8,53.8,122.4,53.4,122.4,52.9"
		/>
</g>
<g>
	<path class="st2" d="M123.7,54.7c0-0.5,0.4-0.9,0.9-0.9s0.9,0.4,0.9,0.9c0,0.5-0.4,0.9-0.9,0.9S123.7,55.2,123.7,54.7"/>
	<path class="st3" d="M123.7,54.7c0-0.5,0.4-0.9,0.9-0.9s0.9,0.4,0.9,0.9c0,0.5-0.4,0.9-0.9,0.9S123.7,55.2,123.7,54.7"/>
</g>
<g>
	<path class="st2" d="M132.8,66.7c0-0.5,0.4-0.9,0.9-0.9s0.9,0.4,0.9,0.9c0,0.5-0.4,0.9-0.9,0.9S132.8,67.2,132.8,66.7"/>
	<path class="st3" d="M132.8,66.7c0-0.5,0.4-0.9,0.9-0.9s0.9,0.4,0.9,0.9c0,0.5-0.4,0.9-0.9,0.9S132.8,67.2,132.8,66.7"/>
</g>
<g>
	<path class="st2" d="M126.3,54.8c0-0.5,0.4-0.9,0.9-0.9c0.5,0,0.9,0.4,0.9,0.9c0,0.5-0.4,0.9-0.9,0.9
		C126.7,55.7,126.3,55.3,126.3,54.8"/>
	<path class="st3" d="M126.3,54.8c0-0.5,0.4-0.9,0.9-0.9c0.5,0,0.9,0.4,0.9,0.9c0,0.5-0.4,0.9-0.9,0.9
		C126.7,55.7,126.3,55.3,126.3,54.8"/>
</g>
<g>
	<path class="st2" d="M132.8,66.9c0-0.5,0.4-0.9,0.9-0.9s0.9,0.4,0.9,0.9c0,0.5-0.4,0.9-0.9,0.9S132.8,67.3,132.8,66.9"/>
	<path class="st3" d="M132.8,66.9c0-0.5,0.4-0.9,0.9-0.9s0.9,0.4,0.9,0.9c0,0.5-0.4,0.9-0.9,0.9S132.8,67.3,132.8,66.9"/>
</g>
<g>
	<path class="st2" d="M122.4,55.7c0-0.5,0.4-0.9,0.9-0.9c0.5,0,0.9,0.4,0.9,0.9s-0.4,0.9-0.9,0.9C122.8,56.6,122.4,56.2,122.4,55.7"
		/>
	<path class="st3" d="M122.4,55.7c0-0.5,0.4-0.9,0.9-0.9c0.5,0,0.9,0.4,0.9,0.9s-0.4,0.9-0.9,0.9C122.8,56.6,122.4,56.2,122.4,55.7"
		/>
</g>
<g>
	<path class="st2" d="M130.2,56.5c0-0.5,0.4-0.9,0.9-0.9c0.5,0,0.9,0.4,0.9,0.9c0,0.5-0.4,0.9-0.9,0.9
		C130.6,57.3,130.2,56.9,130.2,56.5"/>
	<path class="st3" d="M130.2,56.5c0-0.5,0.4-0.9,0.9-0.9c0.5,0,0.9,0.4,0.9,0.9c0,0.5-0.4,0.9-0.9,0.9
		C130.6,57.3,130.2,56.9,130.2,56.5"/>
</g>
<g>
	<path class="st2" d="M309.6,188c0-0.5,0.4-0.9,0.9-0.9c0.5,0,0.9,0.4,0.9,0.9c0,0.5-0.4,0.9-0.9,0.9
		C310,188.9,309.6,188.5,309.6,188"/>
	<path class="st3" d="M309.6,188c0-0.5,0.4-0.9,0.9-0.9c0.5,0,0.9,0.4,0.9,0.9c0,0.5-0.4,0.9-0.9,0.9
		C310,188.9,309.6,188.5,309.6,188"/>
</g>
<g>
	<path class="st2" d="M296.5,181.8c0-0.5,0.4-0.9,0.9-0.9s0.9,0.4,0.9,0.9c0,0.5-0.4,0.9-0.9,0.9S296.5,182.3,296.5,181.8"/>
	<path class="st3" d="M296.5,181.8c0-0.5,0.4-0.9,0.9-0.9s0.9,0.4,0.9,0.9c0,0.5-0.4,0.9-0.9,0.9S296.5,182.3,296.5,181.8"/>
</g>
<g>
	<path class="st2" d="M348.8,191.1c0-0.5,0.4-0.9,0.9-0.9s0.9,0.4,0.9,0.9c0,0.5-0.4,0.9-0.9,0.9S348.8,191.6,348.8,191.1"/>
	<path class="st3" d="M348.8,191.1c0-0.5,0.4-0.9,0.9-0.9s0.9,0.4,0.9,0.9c0,0.5-0.4,0.9-0.9,0.9S348.8,191.6,348.8,191.1"/>
</g>
<g>
	<path class="st2" d="M335.8,191.4c0-0.5,0.4-0.9,0.9-0.9s0.9,0.4,0.9,0.9s-0.4,0.9-0.9,0.9S335.8,191.8,335.8,191.4"/>
	<path class="st3" d="M335.8,191.4c0-0.5,0.4-0.9,0.9-0.9s0.9,0.4,0.9,0.9s-0.4,0.9-0.9,0.9S335.8,191.8,335.8,191.4"/>
</g>
<g>
	<path class="st2" d="M322.7,188.6c0-0.5,0.4-0.9,0.9-0.9s0.9,0.4,0.9,0.9c0,0.5-0.4,0.9-0.9,0.9S322.7,189.1,322.7,188.6"/>
	<path class="st3" d="M322.7,188.6c0-0.5,0.4-0.9,0.9-0.9s0.9,0.4,0.9,0.9c0,0.5-0.4,0.9-0.9,0.9S322.7,189.1,322.7,188.6"/>
</g>
<g>
	<path class="st2" d="M322.7,191.5c0-0.5,0.4-0.9,0.9-0.9s0.9,0.4,0.9,0.9c0,0.5-0.4,0.9-0.9,0.9S322.7,192,322.7,191.5"/>
	<path class="st3" d="M322.7,191.5c0-0.5,0.4-0.9,0.9-0.9s0.9,0.4,0.9,0.9c0,0.5-0.4,0.9-0.9,0.9S322.7,192,322.7,191.5"/>
</g>
<g>
	<path class="st2" d="M322.7,193.1c0-0.5,0.4-0.9,0.9-0.9s0.9,0.4,0.9,0.9c0,0.5-0.4,0.9-0.9,0.9S322.7,193.6,322.7,193.1"/>
	<path class="st3" d="M322.7,193.1c0-0.5,0.4-0.9,0.9-0.9s0.9,0.4,0.9,0.9c0,0.5-0.4,0.9-0.9,0.9S322.7,193.6,322.7,193.1"/>
</g>
<g>
	<path class="st2" d="M322.7,185.7c0-0.5,0.4-0.9,0.9-0.9s0.9,0.4,0.9,0.9c0,0.5-0.4,0.9-0.9,0.9S322.7,186.2,322.7,185.7"/>
	<path class="st3" d="M322.7,185.7c0-0.5,0.4-0.9,0.9-0.9s0.9,0.4,0.9,0.9c0,0.5-0.4,0.9-0.9,0.9S322.7,186.2,322.7,185.7"/>
</g>
<g>
	<path class="st2" d="M361.9,183.8c0-0.5,0.4-0.9,0.9-0.9c0.5,0,0.9,0.4,0.9,0.9c0,0.5-0.4,0.9-0.9,0.9
		C362.3,184.7,361.9,184.3,361.9,183.8"/>
	<path class="st3" d="M361.9,183.8c0-0.5,0.4-0.9,0.9-0.9c0.5,0,0.9,0.4,0.9,0.9c0,0.5-0.4,0.9-0.9,0.9
		C362.3,184.7,361.9,184.3,361.9,183.8"/>
</g>
<g>
	<path class="st2" d="M309.6,193.4c0-0.5,0.4-0.9,0.9-0.9c0.5,0,0.9,0.4,0.9,0.9c0,0.5-0.4,0.9-0.9,0.9
		C310,194.3,309.6,193.9,309.6,193.4"/>
	<path class="st3" d="M309.6,193.4c0-0.5,0.4-0.9,0.9-0.9c0.5,0,0.9,0.4,0.9,0.9c0,0.5-0.4,0.9-0.9,0.9
		C310,194.3,309.6,193.9,309.6,193.4"/>
</g>
<g>
	<path class="st2" d="M348.8,182.8c0-0.5,0.4-0.9,0.9-0.9s0.9,0.4,0.9,0.9c0,0.5-0.4,0.9-0.9,0.9S348.8,183.3,348.8,182.8"/>
	<path class="st3" d="M348.8,182.8c0-0.5,0.4-0.9,0.9-0.9s0.9,0.4,0.9,0.9c0,0.5-0.4,0.9-0.9,0.9S348.8,183.3,348.8,182.8"/>
</g>
<g>
	<path class="st2" d="M309.6,182c0-0.5,0.4-0.9,0.9-0.9c0.5,0,0.9,0.4,0.9,0.9c0,0.5-0.4,0.9-0.9,0.9
		C310,182.9,309.6,182.5,309.6,182"/>
	<path class="st3" d="M309.6,182c0-0.5,0.4-0.9,0.9-0.9c0.5,0,0.9,0.4,0.9,0.9c0,0.5-0.4,0.9-0.9,0.9
		C310,182.9,309.6,182.5,309.6,182"/>
</g>
<g>
	<path class="st2" d="M335.8,181.3c0-0.5,0.4-0.9,0.9-0.9s0.9,0.4,0.9,0.9s-0.4,0.9-0.9,0.9S335.8,181.8,335.8,181.3"/>
	<path class="st3" d="M335.8,181.3c0-0.5,0.4-0.9,0.9-0.9s0.9,0.4,0.9,0.9s-0.4,0.9-0.9,0.9S335.8,181.8,335.8,181.3"/>
</g>
<g>
	<path class="st2" d="M309.6,178.4c0-0.5,0.4-0.9,0.9-0.9c0.5,0,0.9,0.4,0.9,0.9c0,0.5-0.4,0.9-0.9,0.9
		C310,179.3,309.6,178.9,309.6,178.4"/>
	<path class="st3" d="M309.6,178.4c0-0.5,0.4-0.9,0.9-0.9c0.5,0,0.9,0.4,0.9,0.9c0,0.5-0.4,0.9-0.9,0.9
		C310,179.3,309.6,178.9,309.6,178.4"/>
</g>
<g>
	<path class="st2" d="M322.7,186.7c0-0.5,0.4-0.9,0.9-0.9s0.9,0.4,0.9,0.9s-0.4,0.9-0.9,0.9S322.7,187.2,322.7,186.7"/>
	<path class="st3" d="M322.7,186.7c0-0.5,0.4-0.9,0.9-0.9s0.9,0.4,0.9,0.9s-0.4,0.9-0.9,0.9S322.7,187.2,322.7,186.7"/>
</g>
<g>
	<path class="st2" d="M322.7,185.6c0-0.5,0.4-0.9,0.9-0.9s0.9,0.4,0.9,0.9c0,0.5-0.4,0.9-0.9,0.9S322.7,186.1,322.7,185.6"/>
	<path class="st3" d="M322.7,185.6c0-0.5,0.4-0.9,0.9-0.9s0.9,0.4,0.9,0.9c0,0.5-0.4,0.9-0.9,0.9S322.7,186.1,322.7,185.6"/>
</g>
<g>
	<path class="st2" d="M309.6,179.2c0-0.5,0.4-0.9,0.9-0.9c0.5,0,0.9,0.4,0.9,0.9s-0.4,0.9-0.9,0.9
		C310,180.1,309.6,179.7,309.6,179.2"/>
	<path class="st3" d="M309.6,179.2c0-0.5,0.4-0.9,0.9-0.9c0.5,0,0.9,0.4,0.9,0.9s-0.4,0.9-0.9,0.9
		C310,180.1,309.6,179.7,309.6,179.2"/>
</g>
<g>
	<path class="st2" d="M322.7,178.4c0-0.5,0.4-0.9,0.9-0.9s0.9,0.4,0.9,0.9c0,0.5-0.4,0.9-0.9,0.9S322.7,178.9,322.7,178.4"/>
	<path class="st3" d="M322.7,178.4c0-0.5,0.4-0.9,0.9-0.9s0.9,0.4,0.9,0.9c0,0.5-0.4,0.9-0.9,0.9S322.7,178.9,322.7,178.4"/>
</g>
<g>
	<path class="st2" d="M335.8,177.6c0-0.5,0.4-0.9,0.9-0.9s0.9,0.4,0.9,0.9s-0.4,0.9-0.9,0.9S335.8,178.1,335.8,177.6"/>
	<path class="st3" d="M335.8,177.6c0-0.5,0.4-0.9,0.9-0.9s0.9,0.4,0.9,0.9s-0.4,0.9-0.9,0.9S335.8,178.1,335.8,177.6"/>
</g>
<g>
	<path class="st2" d="M309.6,183.2c0-0.5,0.4-0.9,0.9-0.9c0.5,0,0.9,0.4,0.9,0.9c0,0.5-0.4,0.9-0.9,0.9
		C310,184.1,309.6,183.7,309.6,183.2"/>
	<path class="st3" d="M309.6,183.2c0-0.5,0.4-0.9,0.9-0.9c0.5,0,0.9,0.4,0.9,0.9c0,0.5-0.4,0.9-0.9,0.9
		C310,184.1,309.6,183.7,309.6,183.2"/>
</g>
<g>
	<path class="st2" d="M296.5,180.2c0-0.5,0.4-0.9,0.9-0.9s0.9,0.4,0.9,0.9s-0.4,0.9-0.9,0.9S296.5,180.7,296.5,180.2"/>
	<path class="st3" d="M296.5,180.2c0-0.5,0.4-0.9,0.9-0.9s0.9,0.4,0.9,0.9s-0.4,0.9-0.9,0.9S296.5,180.7,296.5,180.2"/>
</g>
<g>
	<path class="st2" d="M309.6,179.6c0-0.5,0.4-0.9,0.9-0.9c0.5,0,0.9,0.4,0.9,0.9c0,0.5-0.4,0.9-0.9,0.9
		C310,180.5,309.6,180.1,309.6,179.6"/>
	<path class="st3" d="M309.6,179.6c0-0.5,0.4-0.9,0.9-0.9c0.5,0,0.9,0.4,0.9,0.9c0,0.5-0.4,0.9-0.9,0.9
		C310,180.5,309.6,180.1,309.6,179.6"/>
</g>
<g>
	<path class="st2" d="M322.7,186.2c0-0.5,0.4-0.9,0.9-0.9s0.9,0.4,0.9,0.9c0,0.5-0.4,0.9-0.9,0.9S322.7,186.7,322.7,186.2"/>
	<path class="st3" d="M322.7,186.2c0-0.5,0.4-0.9,0.9-0.9s0.9,0.4,0.9,0.9c0,0.5-0.4,0.9-0.9,0.9S322.7,186.7,322.7,186.2"/>
</g>
<g>
	<path class="st2" d="M309.6,177.2c0-0.5,0.4-0.9,0.9-0.9c0.5,0,0.9,0.4,0.9,0.9c0,0.5-0.4,0.9-0.9,0.9
		C310,178.1,309.6,177.7,309.6,177.2"/>
	<path class="st3" d="M309.6,177.2c0-0.5,0.4-0.9,0.9-0.9c0.5,0,0.9,0.4,0.9,0.9c0,0.5-0.4,0.9-0.9,0.9
		C310,178.1,309.6,177.7,309.6,177.2"/>
</g>
<g>
	<path class="st2" d="M335.8,179.8c0-0.5,0.4-0.9,0.9-0.9s0.9,0.4,0.9,0.9c0,0.5-0.4,0.9-0.9,0.9S335.8,180.3,335.8,179.8"/>
	<path class="st3" d="M335.8,179.8c0-0.5,0.4-0.9,0.9-0.9s0.9,0.4,0.9,0.9c0,0.5-0.4,0.9-0.9,0.9S335.8,180.3,335.8,179.8"/>
</g>
<g>
	<path class="st2" d="M335.8,180.9c0-0.5,0.4-0.9,0.9-0.9s0.9,0.4,0.9,0.9c0,0.5-0.4,0.9-0.9,0.9S335.8,181.4,335.8,180.9"/>
	<path class="st3" d="M335.8,180.9c0-0.5,0.4-0.9,0.9-0.9s0.9,0.4,0.9,0.9c0,0.5-0.4,0.9-0.9,0.9S335.8,181.4,335.8,180.9"/>
</g>
<g>
	<path class="st2" d="M335.8,188.7c0-0.5,0.4-0.9,0.9-0.9s0.9,0.4,0.9,0.9c0,0.5-0.4,0.9-0.9,0.9S335.8,189.2,335.8,188.7"/>
	<path class="st3" d="M335.8,188.7c0-0.5,0.4-0.9,0.9-0.9s0.9,0.4,0.9,0.9c0,0.5-0.4,0.9-0.9,0.9S335.8,189.2,335.8,188.7"/>
</g>
<g>
	<path class="st2" d="M309.6,192c0-0.5,0.4-0.9,0.9-0.9c0.5,0,0.9,0.4,0.9,0.9c0,0.5-0.4,0.9-0.9,0.9
		C310,192.9,309.6,192.5,309.6,192"/>
	<path class="st3" d="M309.6,192c0-0.5,0.4-0.9,0.9-0.9c0.5,0,0.9,0.4,0.9,0.9c0,0.5-0.4,0.9-0.9,0.9
		C310,192.9,309.6,192.5,309.6,192"/>
</g>
<g>
	<path class="st2" d="M348.8,181.7c0-0.5,0.4-0.9,0.9-0.9s0.9,0.4,0.9,0.9c0,0.5-0.4,0.9-0.9,0.9S348.8,182.2,348.8,181.7"/>
	<path class="st3" d="M348.8,181.7c0-0.5,0.4-0.9,0.9-0.9s0.9,0.4,0.9,0.9c0,0.5-0.4,0.9-0.9,0.9S348.8,182.2,348.8,181.7"/>
</g>
<g>
	<path class="st2" d="M309.6,188.8c0-0.5,0.4-0.9,0.9-0.9c0.5,0,0.9,0.4,0.9,0.9c0,0.5-0.4,0.9-0.9,0.9
		C310,189.7,309.6,189.3,309.6,188.8"/>
	<path class="st3" d="M309.6,188.8c0-0.5,0.4-0.9,0.9-0.9c0.5,0,0.9,0.4,0.9,0.9c0,0.5-0.4,0.9-0.9,0.9
		C310,189.7,309.6,189.3,309.6,188.8"/>
</g>
<g>
	<path class="st2" d="M335.8,190.4c0-0.5,0.4-0.9,0.9-0.9s0.9,0.4,0.9,0.9c0,0.5-0.4,0.9-0.9,0.9S335.8,190.9,335.8,190.4"/>
	<path class="st3" d="M335.8,190.4c0-0.5,0.4-0.9,0.9-0.9s0.9,0.4,0.9,0.9c0,0.5-0.4,0.9-0.9,0.9S335.8,190.9,335.8,190.4"/>
</g>
<g>
	<path class="st2" d="M296.5,188.7c0-0.5,0.4-0.9,0.9-0.9s0.9,0.4,0.9,0.9c0,0.5-0.4,0.9-0.9,0.9S296.5,189.1,296.5,188.7"/>
	<path class="st3" d="M296.5,188.7c0-0.5,0.4-0.9,0.9-0.9s0.9,0.4,0.9,0.9c0,0.5-0.4,0.9-0.9,0.9S296.5,189.1,296.5,188.7"/>
</g>
<g>
	<path class="st2" d="M322.7,180.5c0-0.5,0.4-0.9,0.9-0.9s0.9,0.4,0.9,0.9c0,0.5-0.4,0.9-0.9,0.9S322.7,181,322.7,180.5"/>
	<path class="st3" d="M322.7,180.5c0-0.5,0.4-0.9,0.9-0.9s0.9,0.4,0.9,0.9c0,0.5-0.4,0.9-0.9,0.9S322.7,181,322.7,180.5"/>
</g>
<g>
	<path class="st2" d="M335.8,191.7c0-0.5,0.4-0.9,0.9-0.9s0.9,0.4,0.9,0.9c0,0.5-0.4,0.9-0.9,0.9S335.8,192.2,335.8,191.7"/>
	<path class="st3" d="M335.8,191.7c0-0.5,0.4-0.9,0.9-0.9s0.9,0.4,0.9,0.9c0,0.5-0.4,0.9-0.9,0.9S335.8,192.2,335.8,191.7"/>
</g>
<g>
	<path class="st2" d="M322.7,178.5c0-0.5,0.4-0.9,0.9-0.9s0.9,0.4,0.9,0.9c0,0.5-0.4,0.9-0.9,0.9S322.7,179,322.7,178.5"/>
	<path class="st3" d="M322.7,178.5c0-0.5,0.4-0.9,0.9-0.9s0.9,0.4,0.9,0.9c0,0.5-0.4,0.9-0.9,0.9S322.7,179,322.7,178.5"/>
</g>
<g>
	<path class="st2" d="M335.8,180.1c0-0.5,0.4-0.9,0.9-0.9s0.9,0.4,0.9,0.9s-0.4,0.9-0.9,0.9S335.8,180.6,335.8,180.1"/>
	<path class="st3" d="M335.8,180.1c0-0.5,0.4-0.9,0.9-0.9s0.9,0.4,0.9,0.9s-0.4,0.9-0.9,0.9S335.8,180.6,335.8,180.1"/>
</g>
<g>
	<path class="st2" d="M335.8,181.6c0-0.5,0.4-0.9,0.9-0.9s0.9,0.4,0.9,0.9s-0.4,0.9-0.9,0.9S335.8,182.1,335.8,181.6"/>
	<path class="st3" d="M335.8,181.6c0-0.5,0.4-0.9,0.9-0.9s0.9,0.4,0.9,0.9s-0.4,0.9-0.9,0.9S335.8,182.1,335.8,181.6"/>
</g>
<g>
	<path class="st2" d="M322.7,178.7c0-0.5,0.4-0.9,0.9-0.9s0.9,0.4,0.9,0.9c0,0.5-0.4,0.9-0.9,0.9S322.7,179.2,322.7,178.7"/>
	<path class="st3" d="M322.7,178.7c0-0.5,0.4-0.9,0.9-0.9s0.9,0.4,0.9,0.9c0,0.5-0.4,0.9-0.9,0.9S322.7,179.2,322.7,178.7"/>
</g>
<g>
	<path class="st2" d="M335.8,188.2c0-0.5,0.4-0.9,0.9-0.9s0.9,0.4,0.9,0.9c0,0.5-0.4,0.9-0.9,0.9S335.8,188.7,335.8,188.2"/>
	<path class="st3" d="M335.8,188.2c0-0.5,0.4-0.9,0.9-0.9s0.9,0.4,0.9,0.9c0,0.5-0.4,0.9-0.9,0.9S335.8,188.7,335.8,188.2"/>
</g>
<g>
	<path class="st2" d="M322.7,191.6c0-0.5,0.4-0.9,0.9-0.9s0.9,0.4,0.9,0.9c0,0.5-0.4,0.9-0.9,0.9S322.7,192.1,322.7,191.6"/>
	<path class="st3" d="M322.7,191.6c0-0.5,0.4-0.9,0.9-0.9s0.9,0.4,0.9,0.9c0,0.5-0.4,0.9-0.9,0.9S322.7,192.1,322.7,191.6"/>
</g>
<g>
	<path class="st2" d="M322.7,182.4c0-0.5,0.4-0.9,0.9-0.9s0.9,0.4,0.9,0.9s-0.4,0.9-0.9,0.9S322.7,182.9,322.7,182.4"/>
	<path class="st3" d="M322.7,182.4c0-0.5,0.4-0.9,0.9-0.9s0.9,0.4,0.9,0.9s-0.4,0.9-0.9,0.9S322.7,182.9,322.7,182.4"/>
</g>
<g>
	<path class="st2" d="M322.7,178.9c0-0.5,0.4-0.9,0.9-0.9s0.9,0.4,0.9,0.9c0,0.5-0.4,0.9-0.9,0.9S322.7,179.4,322.7,178.9"/>
	<path class="st3" d="M322.7,178.9c0-0.5,0.4-0.9,0.9-0.9s0.9,0.4,0.9,0.9c0,0.5-0.4,0.9-0.9,0.9S322.7,179.4,322.7,178.9"/>
</g>
<g>
	<path class="st2" d="M322.7,183.5c0-0.5,0.4-0.9,0.9-0.9s0.9,0.4,0.9,0.9c0,0.5-0.4,0.9-0.9,0.9S322.7,184,322.7,183.5"/>
	<path class="st3" d="M322.7,183.5c0-0.5,0.4-0.9,0.9-0.9s0.9,0.4,0.9,0.9c0,0.5-0.4,0.9-0.9,0.9S322.7,184,322.7,183.5"/>
</g>
<g>
	<path class="st2" d="M309.6,180.2c0-0.5,0.4-0.9,0.9-0.9c0.5,0,0.9,0.4,0.9,0.9c0,0.5-0.4,0.9-0.9,0.9
		C310,181,309.6,180.6,309.6,180.2"/>
	<path class="st3" d="M309.6,180.2c0-0.5,0.4-0.9,0.9-0.9c0.5,0,0.9,0.4,0.9,0.9c0,0.5-0.4,0.9-0.9,0.9
		C310,181,309.6,180.6,309.6,180.2"/>
</g>
<g>
	<path class="st2" d="M348.8,191.2c0-0.5,0.4-0.9,0.9-0.9s0.9,0.4,0.9,0.9c0,0.5-0.4,0.9-0.9,0.9S348.8,191.7,348.8,191.2"/>
	<path class="st3" d="M348.8,191.2c0-0.5,0.4-0.9,0.9-0.9s0.9,0.4,0.9,0.9c0,0.5-0.4,0.9-0.9,0.9S348.8,191.7,348.8,191.2"/>
</g>
<g>
	<path class="st2" d="M309.6,189.3c0-0.5,0.4-0.9,0.9-0.9c0.5,0,0.9,0.4,0.9,0.9c0,0.5-0.4,0.9-0.9,0.9
		C310,190.2,309.6,189.8,309.6,189.3"/>
	<path class="st3" d="M309.6,189.3c0-0.5,0.4-0.9,0.9-0.9c0.5,0,0.9,0.4,0.9,0.9c0,0.5-0.4,0.9-0.9,0.9
		C310,190.2,309.6,189.8,309.6,189.3"/>
</g>
<g>
	<path class="st2" d="M309.6,181.6c0-0.5,0.4-0.9,0.9-0.9c0.5,0,0.9,0.4,0.9,0.9c0,0.5-0.4,0.9-0.9,0.9
		C310,182.5,309.6,182.1,309.6,181.6"/>
	<path class="st3" d="M309.6,181.6c0-0.5,0.4-0.9,0.9-0.9c0.5,0,0.9,0.4,0.9,0.9c0,0.5-0.4,0.9-0.9,0.9
		C310,182.5,309.6,182.1,309.6,181.6"/>
</g>
<g>
	<path class="st2" d="M335.8,177.4c0-0.5,0.4-0.9,0.9-0.9s0.9,0.4,0.9,0.9c0,0.5-0.4,0.9-0.9,0.9S335.8,177.9,335.8,177.4"/>
	<path class="st3" d="M335.8,177.4c0-0.5,0.4-0.9,0.9-0.9s0.9,0.4,0.9,0.9c0,0.5-0.4,0.9-0.9,0.9S335.8,177.9,335.8,177.4"/>
</g>
<g>
	<path class="st2" d="M322.7,184.2c0-0.5,0.4-0.9,0.9-0.9s0.9,0.4,0.9,0.9c0,0.5-0.4,0.9-0.9,0.9S322.7,184.7,322.7,184.2"/>
	<path class="st3" d="M322.7,184.2c0-0.5,0.4-0.9,0.9-0.9s0.9,0.4,0.9,0.9c0,0.5-0.4,0.9-0.9,0.9S322.7,184.7,322.7,184.2"/>
</g>
<g>
	<path class="st2" d="M296.5,190c0-0.5,0.4-0.9,0.9-0.9s0.9,0.4,0.9,0.9c0,0.5-0.4,0.9-0.9,0.9S296.5,190.5,296.5,190"/>
	<path class="st3" d="M296.5,190c0-0.5,0.4-0.9,0.9-0.9s0.9,0.4,0.9,0.9c0,0.5-0.4,0.9-0.9,0.9S296.5,190.5,296.5,190"/>
</g>
<g>
	<path class="st2" d="M309.6,186.9c0-0.5,0.4-0.9,0.9-0.9c0.5,0,0.9,0.4,0.9,0.9c0,0.5-0.4,0.9-0.9,0.9
		C310,187.7,309.6,187.3,309.6,186.9"/>
	<path class="st3" d="M309.6,186.9c0-0.5,0.4-0.9,0.9-0.9c0.5,0,0.9,0.4,0.9,0.9c0,0.5-0.4,0.9-0.9,0.9
		C310,187.7,309.6,187.3,309.6,186.9"/>
</g>
<g>
	<path class="st2" d="M335.8,181.3c0-0.5,0.4-0.9,0.9-0.9s0.9,0.4,0.9,0.9c0,0.5-0.4,0.9-0.9,0.9S335.8,181.8,335.8,181.3"/>
	<path class="st3" d="M335.8,181.3c0-0.5,0.4-0.9,0.9-0.9s0.9,0.4,0.9,0.9c0,0.5-0.4,0.9-0.9,0.9S335.8,181.8,335.8,181.3"/>
</g>
<g>
	<path class="st2" d="M322.7,192c0-0.5,0.4-0.9,0.9-0.9s0.9,0.4,0.9,0.9c0,0.5-0.4,0.9-0.9,0.9S322.7,192.5,322.7,192"/>
	<path class="st3" d="M322.7,192c0-0.5,0.4-0.9,0.9-0.9s0.9,0.4,0.9,0.9c0,0.5-0.4,0.9-0.9,0.9S322.7,192.5,322.7,192"/>
</g>
<g>
	<path class="st2" d="M335.8,184.2c0-0.5,0.4-0.9,0.9-0.9s0.9,0.4,0.9,0.9c0,0.5-0.4,0.9-0.9,0.9S335.8,184.7,335.8,184.2"/>
	<path class="st3" d="M335.8,184.2c0-0.5,0.4-0.9,0.9-0.9s0.9,0.4,0.9,0.9c0,0.5-0.4,0.9-0.9,0.9S335.8,184.7,335.8,184.2"/>
</g>
<g>
	<path class="st2" d="M322.7,191.9c0-0.5,0.4-0.9,0.9-0.9s0.9,0.4,0.9,0.9c0,0.5-0.4,0.9-0.9,0.9S322.7,192.4,322.7,191.9"/>
	<path class="st3" d="M322.7,191.9c0-0.5,0.4-0.9,0.9-0.9s0.9,0.4,0.9,0.9c0,0.5-0.4,0.9-0.9,0.9S322.7,192.4,322.7,191.9"/>
</g>
<g>
	<path class="st2" d="M309.6,191.8c0-0.5,0.4-0.9,0.9-0.9c0.5,0,0.9,0.4,0.9,0.9c0,0.5-0.4,0.9-0.9,0.9
		C310,192.6,309.6,192.2,309.6,191.8"/>
	<path class="st3" d="M309.6,191.8c0-0.5,0.4-0.9,0.9-0.9c0.5,0,0.9,0.4,0.9,0.9c0,0.5-0.4,0.9-0.9,0.9
		C310,192.6,309.6,192.2,309.6,191.8"/>
</g>
<g>
	<path class="st2" d="M335.8,177.3c0-0.5,0.4-0.9,0.9-0.9s0.9,0.4,0.9,0.9c0,0.5-0.4,0.9-0.9,0.9S335.8,177.8,335.8,177.3"/>
	<path class="st3" d="M335.8,177.3c0-0.5,0.4-0.9,0.9-0.9s0.9,0.4,0.9,0.9c0,0.5-0.4,0.9-0.9,0.9S335.8,177.8,335.8,177.3"/>
</g>
<g>
	<path class="st2" d="M296.5,178.7c0-0.5,0.4-0.9,0.9-0.9s0.9,0.4,0.9,0.9s-0.4,0.9-0.9,0.9S296.5,179.2,296.5,178.7"/>
	<path class="st3" d="M296.5,178.7c0-0.5,0.4-0.9,0.9-0.9s0.9,0.4,0.9,0.9s-0.4,0.9-0.9,0.9S296.5,179.2,296.5,178.7"/>
</g>
<g>
	<path class="st2" d="M335.8,192.9c0-0.5,0.4-0.9,0.9-0.9s0.9,0.4,0.9,0.9c0,0.5-0.4,0.9-0.9,0.9S335.8,193.4,335.8,192.9"/>
	<path class="st3" d="M335.8,192.9c0-0.5,0.4-0.9,0.9-0.9s0.9,0.4,0.9,0.9c0,0.5-0.4,0.9-0.9,0.9S335.8,193.4,335.8,192.9"/>
</g>
<g>
	<path class="st2" d="M335.8,182.7c0-0.5,0.4-0.9,0.9-0.9s0.9,0.4,0.9,0.9c0,0.5-0.4,0.9-0.9,0.9S335.8,183.1,335.8,182.7"/>
	<path class="st3" d="M335.8,182.7c0-0.5,0.4-0.9,0.9-0.9s0.9,0.4,0.9,0.9c0,0.5-0.4,0.9-0.9,0.9S335.8,183.1,335.8,182.7"/>
</g>
<g>
	<path class="st2" d="M361.9,187.8c0-0.5,0.4-0.9,0.9-0.9c0.5,0,0.9,0.4,0.9,0.9c0,0.5-0.4,0.9-0.9,0.9
		C362.3,188.6,361.9,188.2,361.9,187.8"/>
	<path class="st3" d="M361.9,187.8c0-0.5,0.4-0.9,0.9-0.9c0.5,0,0.9,0.4,0.9,0.9c0,0.5-0.4,0.9-0.9,0.9
		C362.3,188.6,361.9,188.2,361.9,187.8"/>
</g>
<g>
	<path class="st2" d="M322.7,190.3c0-0.5,0.4-0.9,0.9-0.9s0.9,0.4,0.9,0.9c0,0.5-0.4,0.9-0.9,0.9S322.7,190.7,322.7,190.3"/>
	<path class="st3" d="M322.7,190.3c0-0.5,0.4-0.9,0.9-0.9s0.9,0.4,0.9,0.9c0,0.5-0.4,0.9-0.9,0.9S322.7,190.7,322.7,190.3"/>
</g>
<g>
	<path class="st2" d="M309.6,183c0-0.5,0.4-0.9,0.9-0.9c0.5,0,0.9,0.4,0.9,0.9c0,0.5-0.4,0.9-0.9,0.9
		C310,183.9,309.6,183.5,309.6,183"/>
	<path class="st3" d="M309.6,183c0-0.5,0.4-0.9,0.9-0.9c0.5,0,0.9,0.4,0.9,0.9c0,0.5-0.4,0.9-0.9,0.9
		C310,183.9,309.6,183.5,309.6,183"/>
</g>
<g>
	<path class="st2" d="M309.6,187.9c0-0.5,0.4-0.9,0.9-0.9c0.5,0,0.9,0.4,0.9,0.9s-0.4,0.9-0.9,0.9
		C310,188.8,309.6,188.4,309.6,187.9"/>
	<path class="st3" d="M309.6,187.9c0-0.5,0.4-0.9,0.9-0.9c0.5,0,0.9,0.4,0.9,0.9s-0.4,0.9-0.9,0.9
		C310,188.8,309.6,188.4,309.6,187.9"/>
</g>
<g>
	<path class="st2" d="M348.8,181.2c0-0.5,0.4-0.9,0.9-0.9s0.9,0.4,0.9,0.9s-0.4,0.9-0.9,0.9S348.8,181.7,348.8,181.2"/>
	<path class="st3" d="M348.8,181.2c0-0.5,0.4-0.9,0.9-0.9s0.9,0.4,0.9,0.9s-0.4,0.9-0.9,0.9S348.8,181.7,348.8,181.2"/>
</g>
<g>
	<path class="st2" d="M322.7,182.6c0-0.5,0.4-0.9,0.9-0.9s0.9,0.4,0.9,0.9s-0.4,0.9-0.9,0.9S322.7,183,322.7,182.6"/>
	<path class="st3" d="M322.7,182.6c0-0.5,0.4-0.9,0.9-0.9s0.9,0.4,0.9,0.9s-0.4,0.9-0.9,0.9S322.7,183,322.7,182.6"/>
</g>
<g>
	<path class="st2" d="M309.6,185.7c0-0.5,0.4-0.9,0.9-0.9c0.5,0,0.9,0.4,0.9,0.9c0,0.5-0.4,0.9-0.9,0.9
		C310,186.6,309.6,186.2,309.6,185.7"/>
	<path class="st3" d="M309.6,185.7c0-0.5,0.4-0.9,0.9-0.9c0.5,0,0.9,0.4,0.9,0.9c0,0.5-0.4,0.9-0.9,0.9
		C310,186.6,309.6,186.2,309.6,185.7"/>
</g>
<g>
	<path class="st2" d="M335.8,178.1c0-0.5,0.4-0.9,0.9-0.9s0.9,0.4,0.9,0.9s-0.4,0.9-0.9,0.9S335.8,178.5,335.8,178.1"/>
	<path class="st3" d="M335.8,178.1c0-0.5,0.4-0.9,0.9-0.9s0.9,0.4,0.9,0.9s-0.4,0.9-0.9,0.9S335.8,178.5,335.8,178.1"/>
</g>
<g>
	<path class="st2" d="M348.8,188.2c0-0.5,0.4-0.9,0.9-0.9s0.9,0.4,0.9,0.9c0,0.5-0.4,0.9-0.9,0.9S348.8,188.7,348.8,188.2"/>
	<path class="st3" d="M348.8,188.2c0-0.5,0.4-0.9,0.9-0.9s0.9,0.4,0.9,0.9c0,0.5-0.4,0.9-0.9,0.9S348.8,188.7,348.8,188.2"/>
</g>
<g>
	<path class="st2" d="M296.5,188.1c0-0.5,0.4-0.9,0.9-0.9s0.9,0.4,0.9,0.9c0,0.5-0.4,0.9-0.9,0.9S296.5,188.6,296.5,188.1"/>
	<path class="st3" d="M296.5,188.1c0-0.5,0.4-0.9,0.9-0.9s0.9,0.4,0.9,0.9c0,0.5-0.4,0.9-0.9,0.9S296.5,188.6,296.5,188.1"/>
</g>
<g>
	<path class="st2" d="M322.7,177.3c0-0.5,0.4-0.9,0.9-0.9s0.9,0.4,0.9,0.9c0,0.5-0.4,0.9-0.9,0.9S322.7,177.8,322.7,177.3"/>
	<path class="st3" d="M322.7,177.3c0-0.5,0.4-0.9,0.9-0.9s0.9,0.4,0.9,0.9c0,0.5-0.4,0.9-0.9,0.9S322.7,177.8,322.7,177.3"/>
</g>
<g>
	<path class="st2" d="M309.6,186.9c0-0.5,0.4-0.9,0.9-0.9c0.5,0,0.9,0.4,0.9,0.9c0,0.5-0.4,0.9-0.9,0.9
		C310,187.8,309.6,187.4,309.6,186.9"/>
	<path class="st3" d="M309.6,186.9c0-0.5,0.4-0.9,0.9-0.9c0.5,0,0.9,0.4,0.9,0.9c0,0.5-0.4,0.9-0.9,0.9
		C310,187.8,309.6,187.4,309.6,186.9"/>
</g>
<g>
	<path class="st2" d="M348.8,177.1c0-0.5,0.4-0.9,0.9-0.9s0.9,0.4,0.9,0.9c0,0.5-0.4,0.9-0.9,0.9S348.8,177.6,348.8,177.1"/>
	<path class="st3" d="M348.8,177.1c0-0.5,0.4-0.9,0.9-0.9s0.9,0.4,0.9,0.9c0,0.5-0.4,0.9-0.9,0.9S348.8,177.6,348.8,177.1"/>
</g>
<g>
	<path class="st2" d="M322.7,186.6c0-0.5,0.4-0.9,0.9-0.9s0.9,0.4,0.9,0.9s-0.4,0.9-0.9,0.9S322.7,187,322.7,186.6"/>
	<path class="st3" d="M322.7,186.6c0-0.5,0.4-0.9,0.9-0.9s0.9,0.4,0.9,0.9s-0.4,0.9-0.9,0.9S322.7,187,322.7,186.6"/>
</g>
<g>
	<path class="st2" d="M309.6,192.7c0-0.5,0.4-0.9,0.9-0.9c0.5,0,0.9,0.4,0.9,0.9c0,0.5-0.4,0.9-0.9,0.9
		C310,193.6,309.6,193.2,309.6,192.7"/>
	<path class="st3" d="M309.6,192.7c0-0.5,0.4-0.9,0.9-0.9c0.5,0,0.9,0.4,0.9,0.9c0,0.5-0.4,0.9-0.9,0.9
		C310,193.6,309.6,193.2,309.6,192.7"/>
</g>
<g>
	<path class="st2" d="M348.8,192.5c0-0.5,0.4-0.9,0.9-0.9s0.9,0.4,0.9,0.9c0,0.5-0.4,0.9-0.9,0.9S348.8,193,348.8,192.5"/>
	<path class="st3" d="M348.8,192.5c0-0.5,0.4-0.9,0.9-0.9s0.9,0.4,0.9,0.9c0,0.5-0.4,0.9-0.9,0.9S348.8,193,348.8,192.5"/>
</g>
<g>
	<path class="st2" d="M309.6,182.6c0-0.5,0.4-0.9,0.9-0.9c0.5,0,0.9,0.4,0.9,0.9c0,0.5-0.4,0.9-0.9,0.9
		C310,183.5,309.6,183.1,309.6,182.6"/>
	<path class="st3" d="M309.6,182.6c0-0.5,0.4-0.9,0.9-0.9c0.5,0,0.9,0.4,0.9,0.9c0,0.5-0.4,0.9-0.9,0.9
		C310,183.5,309.6,183.1,309.6,182.6"/>
</g>
<g>
	<path class="st2" d="M361.9,185.3c0-0.5,0.4-0.9,0.9-0.9c0.5,0,0.9,0.4,0.9,0.9c0,0.5-0.4,0.9-0.9,0.9
		C362.3,186.2,361.9,185.8,361.9,185.3"/>
	<path class="st3" d="M361.9,185.3c0-0.5,0.4-0.9,0.9-0.9c0.5,0,0.9,0.4,0.9,0.9c0,0.5-0.4,0.9-0.9,0.9
		C362.3,186.2,361.9,185.8,361.9,185.3"/>
</g>
<g>
	<path class="st2" d="M348.8,178.9c0-0.5,0.4-0.9,0.9-0.9s0.9,0.4,0.9,0.9s-0.4,0.9-0.9,0.9S348.8,179.4,348.8,178.9"/>
	<path class="st3" d="M348.8,178.9c0-0.5,0.4-0.9,0.9-0.9s0.9,0.4,0.9,0.9s-0.4,0.9-0.9,0.9S348.8,179.4,348.8,178.9"/>
</g>
<g>
	<path class="st2" d="M322.7,189.1c0-0.5,0.4-0.9,0.9-0.9s0.9,0.4,0.9,0.9c0,0.5-0.4,0.9-0.9,0.9S322.7,189.5,322.7,189.1"/>
	<path class="st3" d="M322.7,189.1c0-0.5,0.4-0.9,0.9-0.9s0.9,0.4,0.9,0.9c0,0.5-0.4,0.9-0.9,0.9S322.7,189.5,322.7,189.1"/>
</g>
<g>
	<path class="st2" d="M322.7,181.1c0-0.5,0.4-0.9,0.9-0.9s0.9,0.4,0.9,0.9s-0.4,0.9-0.9,0.9S322.7,181.6,322.7,181.1"/>
	<path class="st3" d="M322.7,181.1c0-0.5,0.4-0.9,0.9-0.9s0.9,0.4,0.9,0.9s-0.4,0.9-0.9,0.9S322.7,181.6,322.7,181.1"/>
</g>
<g>
	<path class="st2" d="M361.9,183.7c0-0.5,0.4-0.9,0.9-0.9c0.5,0,0.9,0.4,0.9,0.9c0,0.5-0.4,0.9-0.9,0.9
		C362.3,184.6,361.9,184.2,361.9,183.7"/>
	<path class="st3" d="M361.9,183.7c0-0.5,0.4-0.9,0.9-0.9c0.5,0,0.9,0.4,0.9,0.9c0,0.5-0.4,0.9-0.9,0.9
		C362.3,184.6,361.9,184.2,361.9,183.7"/>
</g>
<g>
	<path class="st2" d="M322.7,189.8c0-0.5,0.4-0.9,0.9-0.9s0.9,0.4,0.9,0.9c0,0.5-0.4,0.9-0.9,0.9S322.7,190.3,322.7,189.8"/>
	<path class="st3" d="M322.7,189.8c0-0.5,0.4-0.9,0.9-0.9s0.9,0.4,0.9,0.9c0,0.5-0.4,0.9-0.9,0.9S322.7,190.3,322.7,189.8"/>
</g>
<g>
	<path class="st2" d="M322.7,190.8c0-0.5,0.4-0.9,0.9-0.9s0.9,0.4,0.9,0.9c0,0.5-0.4,0.9-0.9,0.9S322.7,191.3,322.7,190.8"/>
	<path class="st3" d="M322.7,190.8c0-0.5,0.4-0.9,0.9-0.9s0.9,0.4,0.9,0.9c0,0.5-0.4,0.9-0.9,0.9S322.7,191.3,322.7,190.8"/>
</g>
<g>
	<path class="st2" d="M348.8,180c0-0.5,0.4-0.9,0.9-0.9s0.9,0.4,0.9,0.9c0,0.5-0.4,0.9-0.9,0.9S348.8,180.4,348.8,180"/>
	<path class="st3" d="M348.8,180c0-0.5,0.4-0.9,0.9-0.9s0.9,0.4,0.9,0.9c0,0.5-0.4,0.9-0.9,0.9S348.8,180.4,348.8,180"/>
</g>
<g>
	<path class="st2" d="M322.7,186.6c0-0.5,0.4-0.9,0.9-0.9s0.9,0.4,0.9,0.9s-0.4,0.9-0.9,0.9S322.7,187.1,322.7,186.6"/>
	<path class="st3" d="M322.7,186.6c0-0.5,0.4-0.9,0.9-0.9s0.9,0.4,0.9,0.9s-0.4,0.9-0.9,0.9S322.7,187.1,322.7,186.6"/>
</g>
<g>
	<path class="st2" d="M309.6,179.8c0-0.5,0.4-0.9,0.9-0.9c0.5,0,0.9,0.4,0.9,0.9c0,0.5-0.4,0.9-0.9,0.9
		C310,180.7,309.6,180.3,309.6,179.8"/>
	<path class="st3" d="M309.6,179.8c0-0.5,0.4-0.9,0.9-0.9c0.5,0,0.9,0.4,0.9,0.9c0,0.5-0.4,0.9-0.9,0.9
		C310,180.7,309.6,180.3,309.6,179.8"/>
</g>
<g>
	<path class="st2" d="M296.5,184.8c0-0.5,0.4-0.9,0.9-0.9s0.9,0.4,0.9,0.9c0,0.5-0.4,0.9-0.9,0.9S296.5,185.3,296.5,184.8"/>
	<path class="st3" d="M296.5,184.8c0-0.5,0.4-0.9,0.9-0.9s0.9,0.4,0.9,0.9c0,0.5-0.4,0.9-0.9,0.9S296.5,185.3,296.5,184.8"/>
</g>
<g>
	<path class="st2" d="M322.7,184.5c0-0.5,0.4-0.9,0.9-0.9s0.9,0.4,0.9,0.9s-0.4,0.9-0.9,0.9S322.7,185,322.7,184.5"/>
	<path class="st3" d="M322.7,184.5c0-0.5,0.4-0.9,0.9-0.9s0.9,0.4,0.9,0.9s-0.4,0.9-0.9,0.9S322.7,185,322.7,184.5"/>
</g>
<g>
	<path class="st2" d="M335.8,182.9c0-0.5,0.4-0.9,0.9-0.9s0.9,0.4,0.9,0.9s-0.4,0.9-0.9,0.9S335.8,183.4,335.8,182.9"/>
	<path class="st3" d="M335.8,182.9c0-0.5,0.4-0.9,0.9-0.9s0.9,0.4,0.9,0.9s-0.4,0.9-0.9,0.9S335.8,183.4,335.8,182.9"/>
</g>
<g>
	<path class="st2" d="M309.6,192.8c0-0.5,0.4-0.9,0.9-0.9c0.5,0,0.9,0.4,0.9,0.9c0,0.5-0.4,0.9-0.9,0.9
		C310,193.7,309.6,193.3,309.6,192.8"/>
	<path class="st3" d="M309.6,192.8c0-0.5,0.4-0.9,0.9-0.9c0.5,0,0.9,0.4,0.9,0.9c0,0.5-0.4,0.9-0.9,0.9
		C310,193.7,309.6,193.3,309.6,192.8"/>
</g>
<g>
	<path class="st2" d="M309.6,182.2c0-0.5,0.4-0.9,0.9-0.9c0.5,0,0.9,0.4,0.9,0.9s-0.4,0.9-0.9,0.9
		C310,183.1,309.6,182.7,309.6,182.2"/>
	<path class="st3" d="M309.6,182.2c0-0.5,0.4-0.9,0.9-0.9c0.5,0,0.9,0.4,0.9,0.9s-0.4,0.9-0.9,0.9
		C310,183.1,309.6,182.7,309.6,182.2"/>
</g>
<g>
	<path class="st2" d="M335.8,179.8c0-0.5,0.4-0.9,0.9-0.9s0.9,0.4,0.9,0.9c0,0.5-0.4,0.9-0.9,0.9S335.8,180.3,335.8,179.8"/>
	<path class="st3" d="M335.8,179.8c0-0.5,0.4-0.9,0.9-0.9s0.9,0.4,0.9,0.9c0,0.5-0.4,0.9-0.9,0.9S335.8,180.3,335.8,179.8"/>
</g>
<g>
	<path class="st2" d="M309.6,184.7c0-0.5,0.4-0.9,0.9-0.9c0.5,0,0.9,0.4,0.9,0.9c0,0.5-0.4,0.9-0.9,0.9
		C310,185.6,309.6,185.2,309.6,184.7"/>
	<path class="st3" d="M309.6,184.7c0-0.5,0.4-0.9,0.9-0.9c0.5,0,0.9,0.4,0.9,0.9c0,0.5-0.4,0.9-0.9,0.9
		C310,185.6,309.6,185.2,309.6,184.7"/>
</g>
<g>
	<path class="st2" d="M322.7,179.7c0-0.5,0.4-0.9,0.9-0.9s0.9,0.4,0.9,0.9c0,0.5-0.4,0.9-0.9,0.9S322.7,180.2,322.7,179.7"/>
	<path class="st3" d="M322.7,179.7c0-0.5,0.4-0.9,0.9-0.9s0.9,0.4,0.9,0.9c0,0.5-0.4,0.9-0.9,0.9S322.7,180.2,322.7,179.7"/>
</g>
<g>
	<path class="st2" d="M361.9,183c0-0.5,0.4-0.9,0.9-0.9c0.5,0,0.9,0.4,0.9,0.9c0,0.5-0.4,0.9-0.9,0.9
		C362.3,183.9,361.9,183.5,361.9,183"/>
	<path class="st3" d="M361.9,183c0-0.5,0.4-0.9,0.9-0.9c0.5,0,0.9,0.4,0.9,0.9c0,0.5-0.4,0.9-0.9,0.9
		C362.3,183.9,361.9,183.5,361.9,183"/>
</g>
<g>
	<path class="st2" d="M348.8,184.3c0-0.5,0.4-0.9,0.9-0.9s0.9,0.4,0.9,0.9c0,0.5-0.4,0.9-0.9,0.9S348.8,184.8,348.8,184.3"/>
	<path class="st3" d="M348.8,184.3c0-0.5,0.4-0.9,0.9-0.9s0.9,0.4,0.9,0.9c0,0.5-0.4,0.9-0.9,0.9S348.8,184.8,348.8,184.3"/>
</g>
<g>
	<path class="st2" d="M322.7,184.6c0-0.5,0.4-0.9,0.9-0.9s0.9,0.4,0.9,0.9c0,0.5-0.4,0.9-0.9,0.9S322.7,185.1,322.7,184.6"/>
	<path class="st3" d="M322.7,184.6c0-0.5,0.4-0.9,0.9-0.9s0.9,0.4,0.9,0.9c0,0.5-0.4,0.9-0.9,0.9S322.7,185.1,322.7,184.6"/>
</g>
<g>
	<path class="st2" d="M335.8,191.7c0-0.5,0.4-0.9,0.9-0.9s0.9,0.4,0.9,0.9c0,0.5-0.4,0.9-0.9,0.9S335.8,192.2,335.8,191.7"/>
	<path class="st3" d="M335.8,191.7c0-0.5,0.4-0.9,0.9-0.9s0.9,0.4,0.9,0.9c0,0.5-0.4,0.9-0.9,0.9S335.8,192.2,335.8,191.7"/>
</g>
<g>
	<path class="st2" d="M309.6,193.2c0-0.5,0.4-0.9,0.9-0.9c0.5,0,0.9,0.4,0.9,0.9c0,0.5-0.4,0.9-0.9,0.9
		C310,194.1,309.6,193.7,309.6,193.2"/>
	<path class="st3" d="M309.6,193.2c0-0.5,0.4-0.9,0.9-0.9c0.5,0,0.9,0.4,0.9,0.9c0,0.5-0.4,0.9-0.9,0.9
		C310,194.1,309.6,193.7,309.6,193.2"/>
</g>
<g>
	<path class="st4" d="M31.4,59c-0.4-0.2-0.8-0.4-1.5-0.4c-0.8,0-1.4,0.5-1.8,0.9v4.1h2.4v0.8h-5v-0.8h1.7v-5h-1.7v-0.8h2.7v0.8
		c0.3-0.4,0.9-0.9,1.9-0.9c0.9,0,1.3,0.3,1.6,0.5L31.4,59z"/>
	<path class="st4" d="M35.2,64.5c-0.6,0-1,0-1.3-0.1v2.6H33v-9.2h0.9v0.6c0.4-0.3,1.1-0.7,1.8-0.7c1.6,0,2.5,1,2.5,3.2
		C38.2,63.7,36.8,64.5,35.2,64.5z M35.5,58.6c-0.6,0-1.4,0.4-1.6,0.6v4.4c0.3,0,0.6,0.1,1.3,0.1c1.4,0,2-1.1,2-2.5
		C37.3,59.8,37,58.6,35.5,58.6z"/>
	<path class="st4" d="M40.3,64.4v-0.8h2.4v-5h-2.1v-0.8h3.1v5.7h2.3v0.8H40.3z M43.1,56.7l-0.8-0.8l0.8-0.8l0.8,0.8L43.1,56.7z"/>
	<path class="st4" d="M47.1,64.4v-0.8h2.4v-7.5h-2.2v-0.8h3.1v8.2h2.4v0.8H47.1z"/>
	<path class="st4" d="M57.1,64.5c-1.8,0-2.8-1.2-2.8-3.3c0-2.3,1.2-3.5,2.9-3.5c1.9,0,2.8,1.2,2.8,3.4C60,63.5,58.9,64.5,57.1,64.5z
		 M57.2,58.5c-1.5,0-1.9,1.4-1.9,2.7c0,1.4,0.4,2.6,1.9,2.6c1.5,0,1.8-1.3,1.8-2.6C59,59.9,58.7,58.5,57.2,58.5z"/>
	<path class="st4" d="M65.2,64.5c-1.2,0-2.3-0.2-2.3-1.8v-4h-1.5v-0.8h1.5v-1.3h0.9v1.3h3.5v0.8h-3.5v3.9c0,0.9,0.4,1.2,1.4,1.2
		c0.7,0,1.5-0.2,2-0.4l0.2,0.7C66.8,64.3,66,64.5,65.2,64.5z"/>
</g>
<g>
	<path class="st4" d="M41.4,106.1c-1.5,0-1.9-0.2-2.2-0.3v-8.9h0.9v2.8c0.3-0.1,1-0.4,1.8-0.4c1.7,0,2.6,1.1,2.6,3.1
		C44.4,105.2,43,106.1,41.4,106.1z M41.7,100.1c-0.7,0-1.4,0.3-1.6,0.4v4.6c0.3,0.1,0.6,0.1,1.3,0.1c1.4,0,2-1.1,2-2.6
		C43.5,101.4,43.2,100.1,41.7,100.1z"/>
	<path class="st4" d="M48.6,106.1c-0.6,0-1,0-1.3-0.1v2.6h-0.9v-9.2h0.9v0.6c0.4-0.3,1.1-0.7,1.8-0.7c1.6,0,2.5,1,2.5,3.2
		C51.6,105.2,50.2,106.1,48.6,106.1z M48.9,100.1c-0.6,0-1.4,0.4-1.6,0.6v4.4c0.3,0,0.6,0.1,1.3,0.1c1.4,0,2-1.1,2-2.5
		C50.7,101.4,50.4,100.1,48.9,100.1z"/>
	<path class="st4" d="M56.1,106.1c-1.8,0-2.8-1.2-2.8-3.3c0-2.3,1.2-3.5,2.9-3.5c1.9,0,2.8,1.2,2.8,3.4
		C59,105,57.9,106.1,56.1,106.1z M56.2,100c-1.5,0-1.9,1.4-1.9,2.7c0,1.4,0.4,2.6,1.9,2.6c1.5,0,1.8-1.3,1.8-2.6
		C58,101.5,57.7,100,56.2,100z"/>
	<path class="st4" d="M65,106v-0.7c-0.4,0.4-1.1,0.8-1.7,0.8c-1.1,0-2.6-0.4-2.6-3.3c0-2.3,1.3-3.5,3-3.5c0.6,0,0.9,0,1.3,0.2v-2.5
		H66v9H65z M65,100.2c-0.3-0.1-0.7-0.2-1.3-0.2c-1.5,0-2.1,1.4-2.1,2.7c0,1.8,0.7,2.5,1.8,2.5c0.6,0,1.4-0.5,1.6-0.7V100.2z"/>
</g>
<g>
	<path class="st4" d="M5.4,147.6c-0.6,0-1,0-1.3-0.1v2.6H3.2V141h0.9v0.6c0.4-0.3,1.1-0.7,1.8-0.7c1.6,0,2.5,1,2.5,3.2
		C8.4,146.8,7,147.6,5.4,147.6z M5.7,141.7c-0.6,0-1.4,0.4-1.6,0.6v4.5c0.3,0,0.6,0.1,1.3,0.1c1.4,0,2-1.1,2-2.5
		C7.5,142.9,7.2,141.7,5.7,141.7z"/>
	<path class="st4" d="M12.5,150.1h-0.9l1-2.6h-0.4L9.8,141h1l2,5.9h0l2.3-5.9h0.9L12.5,150.1z"/>
	<path class="st4" d="M20.9,147.6c-2.3,0-3.3-1-3.3-3.4c0-2.1,1.2-3.4,3.1-3.4c1,0,1.6,0.2,2.2,0.6l-0.3,0.7
		c-0.5-0.3-1.1-0.4-1.9-0.4c-1.2,0-2.1,0.9-2.1,2.6c0,1.8,0.6,2.6,2.5,2.6c0.7,0,1.3-0.1,1.7-0.2l0.2,0.8
		C22.5,147.4,21.9,147.6,20.9,147.6z"/>
	<path class="st4" d="M27.3,147.6c-1.8,0-2.8-1.2-2.8-3.3c0-2.3,1.2-3.5,2.9-3.5c1.9,0,2.8,1.2,2.8,3.4
		C30.2,146.5,29.1,147.6,27.3,147.6z M27.4,141.6c-1.5,0-1.9,1.4-1.9,2.7c0,1.4,0.4,2.6,1.9,2.6c1.5,0,1.8-1.3,1.8-2.6
		C29.2,143,28.9,141.6,27.4,141.6z"/>
	<path class="st4" d="M36.2,147.5v-4c0-1.1-0.1-1.8-1.3-1.8c-0.8,0-1.7,0.6-1.9,0.8v5.1H32V141H33v0.7c0.4-0.3,1.1-0.9,2.2-0.9
		c1.9,0,2,1.4,2,2.5v4.2H36.2z"/>
	<path class="st4" d="M42.6,147.6c-1.2,0-2.3-0.2-2.3-1.8v-4h-1.5V141h1.5v-1.3h0.9v1.3h3.5v0.8h-3.5v3.9c0,0.9,0.4,1.2,1.4,1.2
		c0.7,0,1.5-0.2,2-0.4l0.2,0.7C44.2,147.4,43.4,147.6,42.6,147.6z"/>
	<path class="st4" d="M52,142.1c-0.4-0.2-0.8-0.4-1.5-0.4c-0.8,0-1.4,0.5-1.8,0.9v4.1h2.4v0.8h-5v-0.8h1.7v-5h-1.7V141h2.7v0.8
		c0.3-0.4,0.9-0.9,1.9-0.9c0.9,0,1.3,0.3,1.6,0.5L52,142.1z"/>
	<path class="st4" d="M56.1,147.6c-1.8,0-2.8-1.2-2.8-3.3c0-2.3,1.2-3.5,2.9-3.5c1.9,0,2.8,1.2,2.8,3.4
		C59,146.5,57.9,147.6,56.1,147.6z M56.2,141.6c-1.5,0-1.9,1.4-1.9,2.7c0,1.4,0.4,2.6,1.9,2.6c1.5,0,1.8-1.3,1.8-2.6
		C58,143,57.7,141.6,56.2,141.6z"/>
	<path class="st4" d="M60.5,147.5v-0.8h2.4v-7.5h-2.2v-0.8h3.1v8.2h2.4v0.8H60.5z"/>
</g>
<g>
	<path class="st4" d="M42.4,189.1c-1.5,0-1.9-0.2-2.2-0.3V180h0.9v2.8c0.3-0.1,1-0.4,1.8-0.4c1.7,0,2.6,1.1,2.6,3.1
		C45.4,188.3,44,189.1,42.4,189.1z M42.7,183.2c-0.7,0-1.4,0.3-1.6,0.4v4.6c0.3,0.1,0.6,0.1,1.3,0.1c1.4,0,2-1.1,2-2.6
		C44.5,184.4,44.2,183.2,42.7,183.2z"/>
	<path class="st4" d="M49.6,189.1c-0.6,0-1,0-1.3-0.1v2.6h-0.9v-9.2h0.9v0.6c0.4-0.3,1.1-0.7,1.8-0.7c1.6,0,2.5,1,2.5,3.2
		C52.6,188.3,51.2,189.1,49.6,189.1z M49.9,183.2c-0.6,0-1.4,0.4-1.6,0.6v4.4c0.3,0,0.6,0.1,1.3,0.1c1.4,0,2-1.1,2-2.5
		C51.7,184.4,51.4,183.2,49.9,183.2z"/>
	<path class="st4" d="M57.1,189.2c-1.8,0-2.8-1.2-2.8-3.3c0-2.3,1.2-3.5,2.9-3.5c1.9,0,2.8,1.2,2.8,3.4
		C60,188.1,58.9,189.2,57.1,189.2z M57.2,183.1c-1.5,0-1.9,1.4-1.9,2.7c0,1.4,0.4,2.6,1.9,2.6c1.5,0,1.8-1.3,1.8-2.6
		C59,184.6,58.7,183.1,57.2,183.1z"/>
	<path class="st4" d="M66,189v-0.7c-0.4,0.4-1.1,0.8-1.7,0.8c-1.1,0-2.6-0.4-2.6-3.3c0-2.3,1.3-3.5,3-3.5c0.6,0,0.9,0,1.3,0.2V180
		H67v9H66z M66,183.3c-0.3-0.1-0.7-0.2-1.3-0.2c-1.5,0-2.1,1.4-2.1,2.7c0,1.8,0.7,2.5,1.8,2.5c0.6,0,1.4-0.5,1.6-0.7V183.3z"/>
</g>
<g>
	<path class="st4" d="M12.6,230.7c-0.6,0-1,0-1.3-0.1v2.6h-0.9V224h0.9v0.6c0.4-0.3,1.1-0.7,1.8-0.7c1.6,0,2.5,1,2.5,3.2
		C15.6,229.9,14.2,230.7,12.6,230.7z M12.9,224.7c-0.6,0-1.4,0.4-1.6,0.6v4.5c0.3,0,0.6,0.1,1.3,0.1c1.4,0,2-1.1,2-2.5
		C14.7,226,14.4,224.7,12.9,224.7z"/>
	<path class="st4" d="M19.9,230.7c-1,0-1.7-0.1-2.2-0.3l0.2-0.8c0.5,0.2,1.2,0.3,1.9,0.3c1,0,2-0.2,2-1c0-1.5-3.9-0.9-3.9-3.2
		c0-1.3,1.1-1.8,2.4-1.8c0.8,0,1.5,0.1,2,0.3L22,225c-0.5-0.2-1.1-0.3-1.8-0.3c-0.8,0-1.4,0.3-1.4,0.9c0,1.6,3.9,1.1,3.9,3.3
		C22.7,230.4,20.9,230.7,19.9,230.7z"/>
	<path class="st4" d="M26.9,233.2H26l1-2.6h-0.4l-2.3-6.5h1l2,5.9h0l2.3-5.9h0.9L26.9,233.2z"/>
	<path class="st4" d="M35.3,230.7c-2.3,0-3.3-1-3.3-3.4c0-2.1,1.2-3.4,3.1-3.4c1,0,1.6,0.2,2.2,0.6l-0.3,0.7
		c-0.5-0.3-1.1-0.4-1.9-0.4c-1.2,0-2.1,0.9-2.1,2.6c0,1.8,0.6,2.6,2.5,2.6c0.7,0,1.3-0.1,1.7-0.2l0.2,0.8
		C36.9,230.5,36.3,230.7,35.3,230.7z"/>
	<path class="st4" d="M43.4,230.6v-4c0-1.1-0.1-1.8-1.3-1.8c-0.7,0-1.7,0.6-1.9,0.8v5.1h-0.9v-9h0.9v3.2c0.4-0.3,1.1-0.9,2.2-0.9
		c1.9,0,2,1.4,2,2.5v4.2H43.4z"/>
	<path class="st4" d="M48.9,230.7c-1.8,0-2.8-1.2-2.8-3.3c0-2.3,1.2-3.5,2.9-3.5c1.9,0,2.8,1.2,2.8,3.4
		C51.8,229.6,50.7,230.7,48.9,230.7z M49,224.7c-1.5,0-1.9,1.4-1.9,2.7c0,1.4,0.4,2.6,1.9,2.6c1.5,0,1.8-1.3,1.8-2.6
		C50.8,226.1,50.5,224.7,49,224.7z"/>
	<path class="st4" d="M55.8,230.7c-0.6,0-1,0-1.3-0.1v2.6h-0.9V224h0.9v0.6c0.4-0.3,1.1-0.7,1.8-0.7c1.6,0,2.5,1,2.5,3.2
		C58.8,229.9,57.4,230.7,55.8,230.7z M56.1,224.7c-0.6,0-1.4,0.4-1.6,0.6v4.5c0.3,0,0.6,0.1,1.3,0.1c1.4,0,2-1.1,2-2.5
		C57.9,226,57.6,224.7,56.1,224.7z"/>
	<path class="st4" d="M62.9,233.2H62l1-2.6h-0.4l-2.3-6.5h1l2,5.9h0l2.3-5.9h0.9L62.9,233.2z"/>
</g>
<g>
	<path class="st4" d="M157,64.5c-1.4,0-2.2-0.3-2.2-0.3l0.2-0.8c0.3,0.1,1,0.3,1.8,0.3c1,0,1.9-0.2,1.9-1.5c0-1.1-1-1.7-2.3-1.8
		v-0.8c1-0.1,1.9-0.8,1.9-1.7c0-1-0.7-1.3-1.5-1.3c-0.8,0-1.4,0.3-1.4,0.3l-0.3-0.7c0.4-0.2,1-0.4,1.8-0.4c1.4,0,2.3,0.7,2.3,2
		c0,1.1-0.9,1.9-1.6,2.1v0c0.9,0.2,2,1,2,2.3C159.8,64,158.5,64.5,157,64.5z"/>
	<path class="st4" d="M163.9,64.4v-1.1h1.1v1.1H163.9z"/>
	<path class="st4" d="M171.7,64.6c-1.6,0-2.7-0.7-2.7-2c0-1.2,1-1.9,2-2.5c-1-0.6-1.7-1.2-1.7-2.2c0-1.2,0.9-2,2.5-2
		c1.6,0,2.4,0.9,2.4,1.9c0,1.2-0.9,1.8-1.8,2.3c1.1,0.6,2,1.4,2,2.4C174.4,63.8,173.4,64.6,171.7,64.6z M171.6,60.5
		c-0.9,0.5-1.7,1.2-1.7,1.9c0,0.9,0.7,1.3,1.8,1.3c1.1,0,1.7-0.4,1.7-1.4C173.5,61.5,172.3,60.9,171.6,60.5z M171.8,56.6
		c-1.1,0-1.6,0.5-1.6,1.2c0,0.8,0.9,1.4,1.5,1.8c0.7-0.4,1.5-1,1.5-1.7C173.2,57.3,172.9,56.6,171.8,56.6z"/>
	<path class="st4" d="M180.9,64.4v-4.2c0-1,0-1.8-0.7-1.8c-0.4,0-0.8,0.5-0.9,0.7c0,0.3,0,0.6,0,0.9v4.4h-0.8V60
		c0-0.8,0-1.6-0.6-1.6c-0.4,0-0.8,0.6-1,0.9v5.1H176v-6.5h0.9v0.7c0.2-0.4,0.6-0.9,1.2-0.9c0.7,0,1,0.4,1.1,0.9
		c0.3-0.5,0.6-0.9,1.3-0.9c1.3,0,1.4,1.1,1.4,2.3v4.4H180.9z"/>
	<path class="st4" d="M185.8,64.5c-1,0-1.7-0.1-2.2-0.3l0.2-0.8c0.5,0.2,1.2,0.3,1.9,0.3c1,0,2-0.2,2-1c0-1.5-3.9-0.9-3.9-3.2
		c0-1.3,1.1-1.8,2.4-1.8c0.8,0,1.5,0.1,2,0.3l-0.2,0.7c-0.5-0.2-1.1-0.3-1.8-0.3c-0.8,0-1.4,0.3-1.4,0.9c0,1.6,3.9,1.1,3.9,3.3
		C188.6,64.2,186.9,64.5,185.8,64.5z"/>
</g>
<g>
	<path class="st4" d="M132.8,106.1l-0.9-0.4l3.5-7.4h-4.1v-0.8h5.1v0.8L132.8,106.1z"/>
	<path class="st4" d="M140.5,106v-1.1h1.1v1.1H140.5z"/>
	<path class="st4" d="M147.9,106.1c-1.1,0-1.7-0.1-2.1-0.3l0.2-0.8c0.5,0.1,1,0.2,1.8,0.2c1.1,0,1.8-0.6,1.8-1.7
		c0-1.3-0.8-1.8-1.8-1.8c-0.6,0-1.1,0-1.7,0.1v-4.4h4.2v0.8h-3.3v2.7c0.4,0,0.7,0,1,0c1.6,0,2.6,0.9,2.6,2.5
		C150.7,105.2,149.6,106.1,147.9,106.1z"/>
	<path class="st4" d="M157.5,106v-4.2c0-1,0-1.8-0.7-1.8c-0.4,0-0.8,0.5-0.9,0.7c0,0.3,0,0.6,0,0.9v4.4h-0.8v-4.4
		c0-0.8,0-1.6-0.6-1.6c-0.4,0-0.8,0.6-1,0.9v5.1h-0.9v-6.5h0.9v0.7c0.2-0.4,0.6-0.9,1.2-0.9c0.7,0,1,0.4,1.1,0.9
		c0.3-0.5,0.6-0.9,1.3-0.9c1.3,0,1.4,1.1,1.4,2.3v4.4H157.5z"/>
	<path class="st4" d="M162.4,106.1c-1,0-1.7-0.1-2.2-0.3l0.2-0.8c0.5,0.2,1.2,0.3,1.9,0.3c1,0,2-0.2,2-1c0-1.5-3.9-0.9-3.9-3.2
		c0-1.3,1.1-1.8,2.4-1.8c0.8,0,1.5,0.1,2,0.3l-0.2,0.7c-0.5-0.2-1.1-0.3-1.8-0.3c-0.8,0-1.4,0.3-1.4,0.9c0,1.6,3.9,1.1,3.9,3.3
		C165.2,105.7,163.4,106.1,162.4,106.1z"/>
</g>
<g>
	<path class="st4" d="M233.5,147.5v-0.8h2.4v-6.6l-2.3,0.7V140l3.2-1.2v7.8h2.3v0.8H233.5z"/>
	<path class="st4" d="M243.1,147.6c-1.1,0-1.7-0.1-2.1-0.3l0.2-0.8c0.5,0.1,1,0.2,1.8,0.2c1.1,0,1.8-0.6,1.8-1.7
		c0-1.3-0.8-1.8-1.8-1.8c-0.6,0-1.1,0-1.7,0.1V139h4.2v0.8h-3.3v2.7c0.4,0,0.7,0,1,0c1.6,0,2.6,0.9,2.6,2.5
		C245.9,146.7,244.8,147.6,243.1,147.6z"/>
	<path class="st4" d="M252.7,147.5v-4.2c0-1,0-1.8-0.7-1.8c-0.4,0-0.8,0.5-0.9,0.7c0,0.3,0,0.6,0,0.9v4.4h-0.8v-4.4
		c0-0.8,0-1.6-0.6-1.6c-0.4,0-0.8,0.6-1,0.9v5.1h-0.9V141h0.9v0.7c0.2-0.4,0.6-0.9,1.2-0.9c0.7,0,1,0.4,1.1,0.9
		c0.3-0.5,0.6-0.9,1.3-0.9c1.3,0,1.4,1.1,1.4,2.3v4.4H252.7z"/>
	<path class="st4" d="M257.6,147.6c-1,0-1.7-0.1-2.2-0.3l0.2-0.8c0.5,0.2,1.2,0.3,1.9,0.3c1,0,2-0.2,2-1c0-1.5-3.9-0.9-3.9-3.2
		c0-1.3,1.1-1.8,2.4-1.8c0.8,0,1.5,0.1,2,0.3l-0.2,0.7c-0.5-0.2-1.1-0.3-1.8-0.3c-0.8,0-1.4,0.3-1.4,0.9c0,1.6,3.9,1.1,3.9,3.3
		C260.4,147.3,258.7,147.6,257.6,147.6z"/>
</g>
<g>
	<path class="st4" d="M377.9,189v-0.8h2.4v-6.6l-2.3,0.7v-0.7l3.2-1.2v7.8h2.3v0.8H377.9z"/>
	<path class="st4" d="M386.8,189.2c-0.5,0-0.8-0.1-1-0.2l0.2-0.8c0,0,0.4,0.1,0.8,0.1c2.1,0,2.6-1.2,2.7-2.7c-0.4,0.1-1,0.3-1.9,0.3
		c-1.6,0-2.4-1.1-2.4-2.7c0-1.8,1.1-2.8,2.6-2.8c1.7,0,2.7,1.4,2.7,3.8C390.6,188,389.3,189.2,386.8,189.2z M387.8,181.3
		c-1.1,0-1.6,0.8-1.6,1.8c0,1.6,0.7,2,1.6,2c0.7,0,1.4-0.2,1.8-0.3c0-0.2,0-0.5,0-0.7C389.6,182.8,389.2,181.3,387.8,181.3z"/>
	<path class="st4" d="M394.6,189V188h1.1v1.1H394.6z"/>
	<path class="st4" d="M399.7,189v-0.8c0.3-0.3,3.9-3.4,3.9-5.3c0-1.3-0.5-1.7-1.5-1.7c-1,0-1.6,0.4-1.8,0.5l-0.3-0.7
		c0.3-0.2,1-0.7,2.2-0.7c2,0,2.4,1.3,2.4,2.4c0,1.8-1.7,3.6-3.7,5.4h4.2v0.8H399.7z"/>
	<path class="st4" d="M411.6,189v-4.2c0-1,0-1.8-0.7-1.8c-0.4,0-0.8,0.5-0.9,0.7c0,0.3,0,0.6,0,0.9v4.4h-0.8v-4.4
		c0-0.8,0-1.6-0.6-1.6c-0.4,0-0.8,0.6-1,0.9v5.1h-0.9v-6.5h0.9v0.7c0.2-0.4,0.6-0.9,1.2-0.9c0.7,0,1,0.4,1.1,0.9
		c0.3-0.5,0.6-0.9,1.3-0.9c1.3,0,1.4,1.1,1.4,2.3v4.4H411.6z"/>
	<path class="st4" d="M416.4,189.1c-1,0-1.7-0.1-2.2-0.3l0.2-0.8c0.5,0.2,1.2,0.3,1.9,0.3c1,0,2-0.2,2-1c0-1.5-3.9-0.9-3.9-3.2
		c0-1.3,1.1-1.8,2.4-1.8c0.8,0,1.5,0.1,2,0.3l-0.2,0.7c-0.5-0.2-1.1-0.3-1.8-0.3c-0.8,0-1.4,0.3-1.4,0.9c0,1.6,3.9,1.1,3.9,3.3
		C419.3,188.8,417.5,189.1,416.4,189.1z"/>
</g>
<g>
	<path class="st4" d="M562.5,228.3v2.3h-0.9v-2.3h-3.6v-0.8l2.7-5.4h0.8l-2.6,5.4h2.7v-5.4h0.9v5.4h1.2v0.8H562.5z"/>
	<path class="st4" d="M568,230.7c-2.3,0-2.8-1.9-2.8-4.2c0-2.3,0.6-4.5,3-4.5c2.4,0,2.8,2.1,2.8,4.2
		C570.9,228.9,570.2,230.7,568,230.7z M568.1,222.8c-1.7,0-2,1.8-2,3.6c0,1.9,0.4,3.5,1.9,3.5c1.7,0,1.9-1.7,1.9-3.6
		C570,224.5,569.7,222.8,568.1,222.8z M568,227l-0.6-0.7l0.6-0.6l0.7,0.6L568,227z"/>
	<path class="st4" d="M577.3,230.6v-4.2c0-1,0-1.8-0.7-1.8c-0.4,0-0.8,0.5-0.9,0.7c0,0.3,0,0.6,0,0.9v4.4h-0.8v-4.4
		c0-0.8,0-1.6-0.6-1.6c-0.4,0-0.8,0.6-1,0.9v5.1h-0.9V224h0.9v0.7c0.2-0.4,0.6-0.9,1.2-0.9c0.7,0,1,0.4,1.1,0.9
		c0.3-0.5,0.6-0.9,1.3-0.9c1.3,0,1.4,1.1,1.4,2.3v4.4H577.3z"/>
	<path class="st4" d="M582.1,230.7c-1,0-1.7-0.1-2.2-0.3l0.2-0.8c0.5,0.2,1.2,0.3,1.9,0.3c1,0,2-0.2,2-1c0-1.5-3.9-0.9-3.9-3.2
		c0-1.3,1.1-1.8,2.4-1.8c0.8,0,1.5,0.1,2,0.3l-0.2,0.7c-0.5-0.2-1.1-0.3-1.8-0.3c-0.8,0-1.4,0.3-1.4,0.9c0,1.6,3.9,1.1,3.9,3.3
		C584.9,230.4,583.2,230.7,582.1,230.7z"/>
</g>
<rect x="504" y="55" class="st1" width="18.8" height="18.8"/>
<rect x="504" y="78.5" class="st0" width="18.8" height="18.8"/>
<g>
	<path class="st4" d="M534.6,68.2c-1.8,0-2.8-1.2-2.8-3.3c0-2.3,1.2-3.5,2.9-3.5c1.9,0,2.8,1.2,2.8,3.4
		C537.4,67.1,536.3,68.2,534.6,68.2z M534.6,62.1c-1.5,0-1.9,1.4-1.9,2.7c0,1.4,0.4,2.6,1.9,2.6c1.5,0,1.8-1.3,1.8-2.6
		C536.5,63.6,536.2,62.1,534.6,62.1z"/>
	<path class="st4" d="M541.4,68.2c-1.5,0-1.9-0.2-2.2-0.3V59h0.9v2.8c0.3-0.1,1-0.4,1.8-0.4c1.7,0,2.6,1.1,2.6,3.1
		C544.5,67.3,543,68.2,541.4,68.2z M541.7,62.2c-0.7,0-1.4,0.3-1.6,0.4v4.6c0.3,0.1,0.6,0.1,1.3,0.1c1.4,0,2-1.1,2-2.6
		C543.5,63.4,543.2,62.2,541.7,62.2z"/>
	<path class="st4" d="M548.7,68.2c-1,0-1.7-0.1-2.2-0.3l0.2-0.8c0.5,0.2,1.2,0.3,1.9,0.3c1,0,2-0.2,2-1c0-1.5-3.9-0.9-3.9-3.2
		c0-1.3,1.1-1.8,2.4-1.8c0.8,0,1.5,0.1,2,0.3l-0.2,0.7c-0.5-0.2-1.1-0.3-1.8-0.3c-0.8,0-1.4,0.3-1.4,0.9c0,1.6,3.9,1.1,3.9,3.3
		C551.5,67.8,549.7,68.2,548.7,68.2z"/>
	<path class="st4" d="M554.5,65c0.1,2.1,1.1,2.3,2.4,2.3c0.5,0,1.3-0.1,1.7-0.2l0.2,0.8c-0.3,0.1-1,0.3-2.1,0.3
		c-1.9,0-3.1-0.8-3.1-3.3c0-2.7,1.3-3.5,3-3.5c1.6,0,2.4,1.1,2.4,3.3V65H554.5z M556.3,62.1c-1,0-1.7,0.7-1.8,2.2h3.4
		C557.9,62.9,557.3,62.1,556.3,62.1z"/>
	<path class="st4" d="M566.4,62.6c-0.4-0.2-0.8-0.4-1.5-0.4c-0.8,0-1.4,0.5-1.8,0.9v4.1h2.4v0.8h-5v-0.8h1.7v-5h-1.7v-0.8h2.7v0.8
		c0.3-0.4,0.9-0.9,1.9-0.9c0.9,0,1.3,0.3,1.6,0.5L566.4,62.6z"/>
	<path class="st4" d="M571.1,68.1h-1.3l-2.3-6.5h1l1.8,5l0.3,0.9h0l0.3-0.9l2-5h0.9L571.1,68.1z"/>
	<path class="st4" d="M576.1,65c0.1,2.1,1.1,2.3,2.4,2.3c0.5,0,1.3-0.1,1.7-0.2l0.2,0.8c-0.3,0.1-1,0.3-2.1,0.3
		c-1.9,0-3.1-0.8-3.1-3.3c0-2.7,1.3-3.5,3-3.5c1.6,0,2.4,1.1,2.4,3.3V65H576.1z M577.9,62.1c-1,0-1.7,0.7-1.8,2.2h3.4
		C579.5,62.9,578.9,62.1,577.9,62.1z"/>
	<path class="st4" d="M586.6,68.1v-0.7c-0.4,0.4-1.1,0.8-1.7,0.8c-1.1,0-2.6-0.4-2.6-3.3c0-2.3,1.3-3.5,3-3.5c0.6,0,0.9,0,1.3,0.2
		V59h0.9v9H586.6z M586.6,62.3c-0.3-0.1-0.7-0.2-1.3-0.2c-1.5,0-2.1,1.4-2.1,2.7c0,1.8,0.7,2.5,1.8,2.5c0.6,0,1.4-0.5,1.6-0.7V62.3z
		"/>
</g>
<g>
	<path class="st4" d="M537.6,86.2c-0.4-0.2-0.8-0.4-1.5-0.4c-0.8,0-1.4,0.5-1.8,0.9v4.1h2.4v0.8h-5v-0.8h1.7v-5h-1.7V85h2.7v0.8
		c0.3-0.4,0.9-0.9,1.9-0.9c0.9,0,1.3,0.3,1.6,0.5L537.6,86.2z"/>
	<path class="st4" d="M540.1,88.5c0.1,2.1,1.1,2.3,2.4,2.3c0.5,0,1.3-0.1,1.7-0.2l0.2,0.8c-0.3,0.1-1,0.3-2.1,0.3
		c-1.9,0-3.1-0.8-3.1-3.3c0-2.7,1.3-3.5,3-3.5c1.6,0,2.4,1.1,2.4,3.3v0.3H540.1z M541.9,85.6c-1,0-1.7,0.7-1.8,2.2h3.4
		C543.5,86.5,542.9,85.6,541.9,85.6z"/>
	<path class="st4" d="M548.6,91.7c-0.6,0-1,0-1.3-0.1v2.6h-0.9V85h0.9v0.6c0.4-0.3,1.1-0.7,1.8-0.7c1.6,0,2.5,1,2.5,3.2
		C551.6,90.9,550.3,91.7,548.6,91.7z M548.9,85.8c-0.6,0-1.4,0.4-1.6,0.6v4.4c0.3,0,0.6,0.1,1.3,0.1c1.4,0,2-1.1,2-2.5
		C550.7,87,550.4,85.8,548.9,85.8z"/>
	<path class="st4" d="M556.2,91.7c-1.8,0-2.8-1.2-2.8-3.3c0-2.3,1.2-3.5,2.9-3.5c1.9,0,2.8,1.2,2.8,3.4
		C559,90.6,557.9,91.7,556.2,91.7z M556.2,85.7c-1.5,0-1.9,1.4-1.9,2.7c0,1.4,0.4,2.6,1.9,2.6c1.5,0,1.8-1.3,1.8-2.6
		C558.1,87.1,557.8,85.7,556.2,85.7z"/>
	<path class="st4" d="M566.4,86.2c-0.4-0.2-0.8-0.4-1.5-0.4c-0.8,0-1.4,0.5-1.8,0.9v4.1h2.4v0.8h-5v-0.8h1.7v-5h-1.7V85h2.7v0.8
		c0.3-0.4,0.9-0.9,1.9-0.9c0.9,0,1.3,0.3,1.6,0.5L566.4,86.2z"/>
	<path class="st4" d="M571.4,91.7c-1.2,0-2.3-0.2-2.3-1.8v-4h-1.5V85h1.5v-1.3h0.9V85h3.5v0.8H570v3.9c0,0.9,0.4,1.2,1.4,1.2
		c0.7,0,1.5-0.2,2-0.4l0.2,0.7C573,91.5,572.2,91.7,571.4,91.7z"/>
	<path class="st4" d="M576.1,88.5c0.1,2.1,1.1,2.3,2.4,2.3c0.5,0,1.3-0.1,1.7-0.2l0.2,0.8c-0.3,0.1-1,0.3-2.1,0.3
		c-1.9,0-3.1-0.8-3.1-3.3c0-2.7,1.3-3.5,3-3.5c1.6,0,2.4,1.1,2.4,3.3v0.3H576.1z M577.9,85.6c-1,0-1.7,0.7-1.8,2.2h3.4
		C579.5,86.5,578.9,85.6,577.9,85.6z"/>
	<path class="st4" d="M586.6,91.6v-0.7c-0.4,0.4-1.1,0.8-1.7,0.8c-1.1,0-2.6-0.4-2.6-3.3c0-2.3,1.3-3.5,3-3.5c0.6,0,0.9,0,1.3,0.2
		v-2.5h0.9v9H586.6z M586.6,85.9c-0.3-0.1-0.7-0.2-1.3-0.2c-1.5,0-2.1,1.4-2.1,2.7c0,1.8,0.7,2.5,1.8,2.5c0.6,0,1.4-0.5,1.6-0.7
		V85.9z"/>
</g>
<g>
	<path class="st4" d="M323.7,16.1v10.9h-3.2V16.1h-3.1v-2.5h9.4v2.5H323.7z"/>
	<path class="st4" d="M338.2,19.3c-0.6-0.1-0.9-0.1-1.4-0.1c-0.9,0-1.9,0.3-2.3,0.8v4.5h3.4v2.5H329v-2.5h2.4V19H329v-2.3h5.5v1.4
		c0.5-0.7,1.2-1.6,3-1.6c0.6,0,0.8,0,1.2,0.2L338.2,19.3z"/>
	<path class="st4" d="M340.7,27.1v-2.5h3V19h-2.8v-2.3h5.9v7.9h2.8v2.5H340.7z M345.3,15.7l-2.2-2.2l2.2-2.2l2.2,2.2L345.3,15.7z"/>
	<path class="st4" d="M356.1,31.2c-1.6,0-2.7-0.2-3.9-0.6l0.5-2.5c1.3,0.3,2.3,0.4,3,0.4c1.5,0,1.9-0.2,1.9-1.7v-0.3
		c-0.3,0.4-1,0.6-1.6,0.6c-2.1,0-4.3-0.6-4.3-5.3c0-3.6,2.1-5.5,5.2-5.5c1.2,0,1.9,0.2,3.9,0.4v10.3
		C360.7,30.2,358.3,31.2,356.1,31.2z M357.5,19.1c-0.2,0-0.3-0.1-0.7-0.1c-1.8,0-2,1.1-2,2.9c0,2.2,0.4,2.9,1.8,2.9
		c0.4,0,0.6-0.1,0.9-0.2V19.1z"/>
	<path class="st4" d="M367.5,31.2c-1.6,0-2.7-0.2-3.9-0.6l0.5-2.5c1.3,0.3,2.3,0.4,3,0.4c1.5,0,1.9-0.2,1.9-1.7v-0.3
		c-0.3,0.4-1,0.6-1.6,0.6c-2.1,0-4.3-0.6-4.3-5.3c0-3.6,2.1-5.5,5.2-5.5c1.2,0,1.9,0.2,3.9,0.4v10.3
		C372.1,30.2,369.7,31.2,367.5,31.2z M368.9,19.1c-0.2,0-0.3-0.1-0.7-0.1c-1.8,0-2,1.1-2,2.9c0,2.2,0.4,2.9,1.8,2.9
		c0.4,0,0.6-0.1,0.9-0.2V19.1z"/>
	<path class="st4" d="M379.7,27.2c-3.1,0-5.1-1.1-5.1-5.2c0-4.2,1.7-5.6,4.8-5.6c3.3,0,4.1,2.4,4.1,5.6v1.1h-5.7
		c0.1,1.3,1,1.4,2.1,1.4c0.7,0,2.1-0.1,3.2-0.2l0.4,2.4C382.4,27.1,381,27.2,379.7,27.2z M379.2,18.8c-0.9,0-1.2,0.6-1.3,2.1h2.4
		C380.3,19.4,380,18.8,379.2,18.8z"/>
	<path class="st4" d="M395.2,19.3c-0.6-0.1-0.9-0.1-1.4-0.1c-0.9,0-1.9,0.3-2.3,0.8v4.5h3.4v2.5H386v-2.5h2.4V19H386v-2.3h5.5v1.4
		c0.5-0.7,1.2-1.6,3-1.6c0.6,0,0.8,0,1.2,0.2L395.2,19.3z"/>
	<path class="st4" d="M415.4,27.3c-2,0-4.7,0.1-4.7-3.4V19h-2.1v-2.3h2.1v-2.1h3.2v2.1h3.8V19h-3.8v4.8c0,0.8,0.7,0.8,1.5,0.8
		c0.7,0,2.4-0.2,2.4-0.2l0.3,2.4C417.3,27.1,416.1,27.3,415.4,27.3z"/>
	<path class="st4" d="M424.6,27.3c-3.4,0-4.4-2.1-4.4-5.3c0-3.4,1.3-5.5,4.6-5.5c3.7,0,4.4,2.1,4.4,5.5
		C429.2,25.4,427.8,27.3,424.6,27.3z M424.7,18.9c-1.3,0-1.4,1.3-1.4,3c0,1.8,0.1,2.9,1.4,2.9c1.2,0,1.2-1.1,1.2-2.9
		C425.9,20.2,426,18.9,424.7,18.9z"/>
	<path class="st4" d="M446.9,27.2c-1.5,0-2.7-0.1-3.8-0.4l0.3-2.4c1.3,0.2,2.4,0.2,3.1,0.2c1.6,0,2.2-0.2,2.2-0.7
		c0-1.3-5.6-0.2-5.6-4.3c0-2.2,2.5-3.2,4.8-3.2c1.3,0,2.4,0.2,3.5,0.6l-0.5,2.3c-1-0.2-1.8-0.3-2.9-0.3c-1.1,0-1.7,0.3-1.7,0.7
		c0,1.4,5.6,0.6,5.6,4.2C451.9,26.6,448.7,27.2,446.9,27.2z"/>
	<path class="st4" d="M458.8,27.3c-3.4,0-4.4-2.1-4.4-5.3c0-3.4,1.3-5.5,4.6-5.5c3.7,0,4.4,2.1,4.4,5.5
		C463.4,25.4,462,27.3,458.8,27.3z M458.9,18.9c-1.3,0-1.4,1.3-1.4,3c0,1.8,0.1,2.9,1.4,2.9c1.2,0,1.2-1.1,1.2-2.9
		C460.1,20.2,460.2,18.9,458.9,18.9z"/>
	<path class="st4" d="M471.6,27.1v-1c-0.5,0.5-1.2,1.3-2.6,1.3c-3.2,0-3.1-1.7-3.1-4.1v-6.5h3.2v6.2c0,1.4,0.1,1.7,1,1.7
		c0.7,0,1.1-0.3,1.6-0.6v-7.4h3.2v10.4H471.6z"/>
	<path class="st4" d="M483,27.1v-6.2c0-1.4-0.1-1.7-1-1.7c-0.8,0-1.1,0.3-1.6,0.6v7.4h-3.2V16.7h3.2v1c0.5-0.5,1.2-1.3,2.6-1.3
		c3.2,0,3.1,1.8,3.1,4.2v6.5H483z"/>
	<path class="st4" d="M494.3,27.1v-0.9c-0.4,0.5-1.1,1.1-2.2,1.1c-1.9,0-3.7-1-3.7-5.5c0-3.6,1.7-5.3,4.9-5.3c0.6,0,0.7,0,1,0.1
		v-3.8h3.2v14.3H494.3z M494.3,18.9c-0.2-0.1-0.5-0.1-0.9-0.1c-1.6,0-1.8,1.2-1.8,3c0,2.3,0.5,2.8,1.4,2.8c0.6,0,0.9-0.1,1.3-0.3
		V18.9z"/>
	<path class="st4" d="M511.3,27.1v-2.5h3.1V15h-2.9v-2.3h6.1v11.8h3.1v2.5H511.3z"/>
	<path class="st4" d="M532.1,27.1c-1.4,0.1-3.2,0-3.5-1.1c-0.5,0.6-1.2,1.1-2.3,1.1c-2.3,0-3.5-1-3.5-3.1c0-2.6,2.4-3.1,4.4-3.1h1.1
		v-0.9c0-0.9-0.6-1.1-1.9-1.1c-1,0-1.6,0.2-2.5,0.4l-0.6-2.4c0.8-0.3,2.1-0.7,3.6-0.7c2.2,0,4.5,0.1,4.5,3.1v4.7
		c0,0.3,0.2,0.4,0.9,0.4L532.1,27.1z M528.3,22.8l-0.8,0c-1.6,0.1-1.6,0.6-1.6,1.1c0,0.5,0.3,0.8,0.9,0.8c0.6,0,1-0.1,1.5-0.3
		L528.3,22.8z"/>
	<path class="st4" d="M540.8,27.3c-2,0-4.7,0.1-4.7-3.4V19H534v-2.3h2.1v-2.1h3.2v2.1h3.8V19h-3.8v4.8c0,0.8,0.7,0.8,1.5,0.8
		c0.7,0,2.4-0.2,2.4-0.2l0.3,2.4C542.7,27.1,541.5,27.3,540.8,27.3z"/>
	<path class="st4" d="M550.7,27.2c-3.1,0-5.1-1.1-5.1-5.2c0-4.2,1.7-5.6,4.8-5.6c3.3,0,4.1,2.4,4.1,5.6v1.1h-5.7
		c0.1,1.3,1,1.4,2.1,1.4c0.7,0,2.1-0.1,3.2-0.2l0.4,2.4C553.4,27.1,552,27.2,550.7,27.2z M550.2,18.8c-0.9,0-1.2,0.6-1.3,2.1h2.4
		C551.3,19.4,551,18.8,550.2,18.8z"/>
	<path class="st4" d="M562.8,27.1v-6.2c0-1.4-0.1-1.7-1-1.7c-0.8,0-1.1,0.3-1.6,0.6v7.4h-3.2V16.7h3.2v1c0.5-0.5,1.2-1.3,2.6-1.3
		c3.2,0,3.1,1.8,3.1,4.2v6.5H562.8z"/>
	<path class="st4" d="M576.6,19.4c-0.9-0.3-1.3-0.4-2.4-0.4c-1.3,0-2.6,0.6-2.6,2.8c0,2,0.5,2.9,3,2.9c0.9,0,1.5-0.1,2.2-0.2
		l0.4,2.4c-1,0.2-1.8,0.4-3,0.4c-4.4,0-5.9-1.6-5.9-5.5c0-3.2,2.2-5.4,5.7-5.4c1.5,0,2.5,0.3,3.3,0.7L576.6,19.4z"/>
	<path class="st4" d="M585,31.2h-3l1.2-4.2h-1.1l-2.6-10.4h3.2l1.4,7.7h0.1l1.7-7.7h3.2L585,31.2z"/>
</g>
<polyline class="st5" points="120,36.4 120,32.1 135.8,32.1 135.8,36.4 "/>
<polyline class="st5" points="127.9,32.1 127.9,26.9 132.2,22 143.7,22 "/>
<polyline class="st5" points="296.5,161.4 296.5,157.1 363.7,157.1 363.7,161.4 "/>
<polyline class="st5" points="326,157.1 326,149.9 330.4,145 341.9,145 "/>
<g>
	<path class="st6" d="M347,152.2c-0.9,0-1.7-0.2-2.1-0.4l0.3-0.8c0.5,0.2,1.1,0.4,1.9,0.4c1,0,1.5-0.4,1.5-1.3v-6.3h-3.2l0-0.8h4.2
		v7.1C349.5,151.8,348.2,152.2,347,152.2z M349,141.7l-0.8-0.8l0.8-0.8l0.8,0.8L349,141.7z"/>
	<path class="st6" d="M352.7,149.5v-0.8h2.4v-5H353V143h3.1v5.7h2.3v0.8H352.7z M355.6,141.7l-0.8-0.8l0.8-0.8l0.8,0.8L355.6,141.7z
		"/>
	<path class="st6" d="M363.3,149.6c-1.2,0-2.3-0.2-2.3-1.8v-4h-1.5V143h1.5v-1.3h0.9v1.3h3.5v0.8h-3.5v3.9c0,0.9,0.4,1.2,1.4,1.2
		c0.7,0,1.5-0.2,2-0.4l0.2,0.7C364.9,149.4,364.1,149.6,363.3,149.6z"/>
	<path class="st6" d="M370.5,149.6c-1.2,0-2.3-0.2-2.3-1.8v-4h-1.5V143h1.5v-1.3h0.9v1.3h3.5v0.8h-3.5v3.9c0,0.9,0.4,1.2,1.4,1.2
		c0.7,0,1.5-0.2,2-0.4l0.2,0.7C372.1,149.4,371.3,149.6,370.5,149.6z"/>
	<path class="st6" d="M375.1,146.5c0.1,2.1,1.1,2.3,2.4,2.3c0.5,0,1.3-0.1,1.7-0.2l0.2,0.8c-0.3,0.1-1,0.3-2.1,0.3
		c-1.9,0-3.1-0.8-3.1-3.3c0-2.7,1.3-3.5,3-3.5c1.6,0,2.4,1.1,2.4,3.3v0.3H375.1z M377,143.5c-1,0-1.7,0.7-1.8,2.2h3.4
		C378.5,144.4,378,143.5,377,143.5z"/>
	<path class="st6" d="M387.1,144.1c-0.4-0.2-0.8-0.4-1.5-0.4c-0.8,0-1.4,0.5-1.8,0.9v4.1h2.4v0.8h-5v-0.8h1.7v-5h-1.7V143h2.7v0.8
		c0.3-0.4,0.9-0.9,1.9-0.9c0.9,0,1.3,0.3,1.6,0.5L387.1,144.1z"/>
	<path class="st6" d="M400.3,152.2c0,0-3.6-1.9-3.6-6.1c0-4.2,3.6-5.8,3.6-5.8l0.5,0.7c0,0-3.1,1.5-3.1,5.1c0,3.6,3.2,5.4,3.2,5.4
		L400.3,152.2z"/>
	<path class="st6" d="M405.3,149.6c-1,0-1.7-0.1-2.2-0.3l0.2-0.8c0.5,0.2,1.2,0.3,1.9,0.3c1,0,2-0.2,2-1c0-1.5-3.9-0.9-3.9-3.3
		c0-1.3,1.1-1.8,2.4-1.8c0.8,0,1.5,0.1,2,0.3l-0.2,0.7c-0.5-0.2-1.1-0.3-1.8-0.3c-0.8,0-1.4,0.3-1.4,0.9c0,1.6,3.9,1.1,3.9,3.3
		C408.2,149.3,406.4,149.6,405.3,149.6z"/>
	<path class="st6" d="M414.5,149.5v-0.7c-0.4,0.4-1.1,0.8-1.7,0.8c-1.1,0-2.6-0.4-2.6-3.3c0-2.3,1.3-3.5,3-3.5c0.6,0,0.9,0,1.3,0.2
		v-2.5h0.9v9H414.5z M414.5,143.8c-0.3-0.1-0.7-0.2-1.3-0.2c-1.5,0-2.1,1.4-2.1,2.7c0,1.8,0.7,2.5,1.8,2.5c0.6,0,1.4-0.5,1.6-0.7
		V143.8z"/>
	<path class="st6" d="M418.2,152.2l-0.6-0.7c0,0,3.2-1.8,3.2-5.4c0-3.6-3.1-5.1-3.1-5.1l0.5-0.7c0,0,3.6,1.6,3.6,5.8
		C421.8,150.3,418.2,152.2,418.2,152.2z"/>
	<path class="st6" d="M432.1,144.5v-0.8h4.7v0.8H432.1z M432.1,146.8V146h4.7v0.8H432.1z"/>
	<path class="st6" d="M446,149.5v-0.8h2.4v-6.6l-2.3,0.7V142l3.2-1.2v7.8h2.3v0.8H446z"/>
	<path class="st6" d="M455.5,149.5v-1.1h1.1v1.1H455.5z"/>
	<path class="st6" d="M463,149.6c-1.4,0-2.2-0.3-2.2-0.3l0.2-0.8c0.3,0.1,1,0.3,1.8,0.3c1,0,1.9-0.2,1.9-1.5c0-1.1-1-1.7-2.3-1.8
		v-0.8c1-0.1,1.9-0.8,1.9-1.7c0-1-0.7-1.3-1.5-1.3c-0.8,0-1.4,0.3-1.4,0.3l-0.3-0.7c0.4-0.2,1-0.4,1.8-0.4c1.4,0,2.3,0.7,2.3,2
		c0,1.1-0.9,1.9-1.6,2.1v0c0.9,0.2,2,1,2,2.3C465.7,149.1,464.5,149.6,463,149.6z"/>
	<path class="st6" d="M472.5,149.5v-4.2c0-1,0-1.8-0.7-1.8c-0.4,0-0.8,0.5-0.9,0.7c0,0.3,0,0.6,0,0.9v4.4H470v-4.4
		c0-0.8,0-1.6-0.6-1.6c-0.4,0-0.8,0.6-1,0.9v5.1h-0.9V143h0.9v0.7c0.2-0.4,0.6-0.9,1.2-0.9c0.7,0,1,0.4,1.1,0.9
		c0.3-0.5,0.6-0.9,1.3-0.9c1.3,0,1.4,1.1,1.4,2.3v4.4H472.5z"/>
	<path class="st6" d="M477.3,149.6c-1,0-1.7-0.1-2.2-0.3l0.2-0.8c0.5,0.2,1.2,0.3,1.9,0.3c1,0,2-0.2,2-1c0-1.5-3.9-0.9-3.9-3.3
		c0-1.3,1.1-1.8,2.4-1.8c0.8,0,1.5,0.1,2,0.3l-0.2,0.7c-0.5-0.2-1.1-0.3-1.8-0.3c-0.8,0-1.4,0.3-1.4,0.9c0,1.6,3.9,1.1,3.9,3.3
		C480.2,149.3,478.4,149.6,477.3,149.6z"/>
</g>
<g>
	<path class="st6" d="M155,26.3c-1.4,0-2.2-0.3-2.2-0.3l0.2-0.8c0.3,0.1,1,0.3,1.8,0.3c1,0,1.9-0.2,1.9-1.5c0-1.1-1-1.7-2.3-1.8
		v-0.8c1-0.1,1.9-0.8,1.9-1.7c0-1-0.7-1.3-1.5-1.3c-0.8,0-1.4,0.3-1.4,0.3l-0.3-0.7c0.4-0.2,1-0.4,1.8-0.4c1.4,0,2.3,0.7,2.3,2
		c0,1.1-0.9,1.9-1.6,2.1v0c0.9,0.2,2,1,2,2.3C157.8,25.7,156.6,26.3,155,26.3z"/>
	<path class="st6" d="M164.6,26.2V22c0-1,0-1.8-0.7-1.8c-0.4,0-0.8,0.5-0.9,0.7c0,0.3,0,0.6,0,0.9v4.4h-0.8v-4.4
		c0-0.8,0-1.6-0.6-1.6c-0.4,0-0.8,0.6-1,0.9v5.1h-0.9v-6.5h0.9v0.7c0.2-0.4,0.6-0.9,1.2-0.9c0.7,0,1,0.4,1.1,0.9
		c0.3-0.5,0.6-0.9,1.3-0.9c1.3,0,1.4,1.1,1.4,2.3v4.4H164.6z"/>
	<path class="st6" d="M169.4,26.3c-1,0-1.7-0.1-2.2-0.3l0.2-0.8c0.5,0.2,1.2,0.3,1.9,0.3c1,0,2-0.2,2-1c0-1.5-3.9-0.9-3.9-3.3
		c0-1.3,1.1-1.8,2.4-1.8c0.8,0,1.5,0.1,2,0.3l-0.2,0.7c-0.5-0.2-1.1-0.3-1.8-0.3c-0.8,0-1.4,0.3-1.4,0.9c0,1.6,3.9,1.1,3.9,3.3
		C172.2,25.9,170.5,26.3,169.4,26.3z"/>
</g>
<path class="st6" d="M147.7,26.7v-1.1h1.1v1.1H147.7z"/>
</svg>
