<svg xmlns="http://www.w3.org/2000/svg" width="7.54in" height="2.81in" viewBox="0 0 542.79 202.19"><defs><style>.a{fill:#ff0000;}.b{fill:#4cb69f;}.c,.f{fill:#f5f5f5;}.c,.d{opacity:0.5;}.d,.e{fill:none;}.d{stroke:#f5f5f5;stroke-linecap:round;stroke-linejoin:round;stroke-width:0.71px;}.e{stroke:#4cb69f;stroke-miterlimit:10;}</style></defs><title>lags</title><rect class="a" x="71.52" y="160.87" width="471.28" height="41.32"/><rect class="a" x="71.52" y="114.97" width="176.72" height="41.32"/><rect class="a" x="71.52" y="69.06" width="88.36" height="41.32"/><rect class="b" x="71.52" y="23.15" width="45.72" height="41.32"/><path class="c" d="M128.84,52.81a.8.8,0,1,1,.8.79.8.8,0,0,1-.8-.79" transform="translate(-16.89 -6.1)"/><path class="d" d="M128.84,52.81a.8.8,0,1,1,.8.79.8.8,0,0,1-.8-.79" transform="translate(-16.89 -6.1)"/><path class="c" d="M128.84,41.43a.8.8,0,1,1,.8.79.8.8,0,0,1-.8-.79" transform="translate(-16.89 -6.1)"/><path class="d" d="M128.84,41.43a.8.8,0,1,1,.8.79.8.8,0,0,1-.8-.79" transform="translate(-16.89 -6.1)"/><path class="c" d="M134.74,42a.8.8,0,1,1,.8.79.8.8,0,0,1-.8-.79" transform="translate(-16.89 -6.1)"/><path class="d" d="M134.74,42a.8.8,0,1,1,.8.79.8.8,0,0,1-.8-.79" transform="translate(-16.89 -6.1)"/><path class="c" d="M128.84,41.79a.8.8,0,1,1,.8.79.8.8,0,0,1-.8-.79" transform="translate(-16.89 -6.1)"/><path class="d" d="M128.84,41.79a.8.8,0,1,1,.8.79.8.8,0,0,1-.8-.79" transform="translate(-16.89 -6.1)"/><path class="c" d="M134.74,44.51a.8.8,0,1,1,.8.79.8.8,0,0,1-.8-.79" transform="translate(-16.89 -6.1)"/><path class="d" d="M134.74,44.51a.8.8,0,1,1,.8.79.8.8,0,0,1-.8-.79" transform="translate(-16.89 -6.1)"/><path class="c" d="M134.74,46.91a.8.8,0,1,1,.8.79.8.8,0,0,1-.8-.79" transform="translate(-16.89 -6.1)"/><path class="d" d="M134.74,46.91a.8.8,0,1,1,.8.79.8.8,0,0,1-.8-.79" transform="translate(-16.89 -6.1)"/><path class="c" d="M132.38,49a.8.8,0,1,1,.8.79.79.79,0,0,1-.8-.79" transform="translate(-16.89 -6.1)"/><path class="d" d="M132.38,49a.8.8,0,1,1,.8.79.79.79,0,0,1-.8-.79" transform="translate(-16.89 -6.1)"/><path class="c" d="M128.84,58.75a.8.8,0,1,1,.8.79.8.8,0,0,1-.8-.79" transform="translate(-16.89 -6.1)"/><path class="d" d="M128.84,58.75a.8.8,0,1,1,.8.79.8.8,0,0,1-.8-.79" transform="translate(-16.89 -6.1)"/><path class="c" d="M134.74,52.3a.8.8,0,1,1,.8.79.8.8,0,0,1-.8-.79" transform="translate(-16.89 -6.1)"/><path class="d" d="M134.74,52.3a.8.8,0,1,1,.8.79.8.8,0,0,1-.8-.79" transform="translate(-16.89 -6.1)"/><path class="c" d="M132.38,42a.8.8,0,1,1,.8.79.8.8,0,0,1-.8-.79" transform="translate(-16.89 -6.1)"/><path class="d" d="M132.38,42a.8.8,0,1,1,.8.79.8.8,0,0,1-.8-.79" transform="translate(-16.89 -6.1)"/><path class="c" d="M135.92,54.2a.8.8,0,1,1,.79.79.8.8,0,0,1-.79-.79" transform="translate(-16.89 -6.1)"/><path class="d" d="M135.92,54.2a.8.8,0,1,1,.79.79.8.8,0,0,1-.79-.79" transform="translate(-16.89 -6.1)"/><path class="c" d="M132.38,58a.8.8,0,1,1,.8.79.8.8,0,0,1-.8-.79" transform="translate(-16.89 -6.1)"/><path class="d" d="M132.38,58a.8.8,0,1,1,.8.79.8.8,0,0,1-.8-.79" transform="translate(-16.89 -6.1)"/><path class="c" d="M132.38,46a.8.8,0,1,1,.8.79.8.8,0,0,1-.8-.79" transform="translate(-16.89 -6.1)"/><path class="d" d="M132.38,46a.8.8,0,1,1,.8.79.8.8,0,0,1-.8-.79" transform="translate(-16.89 -6.1)"/><path class="c" d="M137.1,45.85a.8.8,0,1,1,.79.79.8.8,0,0,1-.79-.79" transform="translate(-16.89 -6.1)"/><path class="d" d="M137.1,45.85a.8.8,0,1,1,.79.79.8.8,0,0,1-.79-.79" transform="translate(-16.89 -6.1)"/><path class="c" d="M131.2,55.95a.8.8,0,1,1,.8.79.8.8,0,0,1-.8-.79" transform="translate(-16.89 -6.1)"/><path class="d" d="M131.2,55.95a.8.8,0,1,1,.8.79.8.8,0,0,1-.8-.79" transform="translate(-16.89 -6.1)"/><path class="c" d="M128.84,55.4a.8.8,0,1,1,.8.79.8.8,0,0,1-.8-.79" transform="translate(-16.89 -6.1)"/><path class="d" d="M128.84,55.4a.8.8,0,1,1,.8.79.8.8,0,0,1-.8-.79" transform="translate(-16.89 -6.1)"/><path class="c" d="M138.27,46.89a.8.8,0,1,1,.8.79.8.8,0,0,1-.8-.79" transform="translate(-16.89 -6.1)"/><path class="d" d="M138.27,46.89a.8.8,0,1,1,.8.79.8.8,0,0,1-.8-.79" transform="translate(-16.89 -6.1)"/><path class="c" d="M137.1,43.43a.8.8,0,1,1,.79.79.8.8,0,0,1-.79-.79" transform="translate(-16.89 -6.1)"/><path class="d" d="M137.1,43.43a.8.8,0,1,1,.79.79.8.8,0,0,1-.79-.79" transform="translate(-16.89 -6.1)"/><path class="c" d="M141.8,57.27a.8.8,0,1,1,.8.79.8.8,0,0,1-.8-.79" transform="translate(-16.89 -6.1)"/><path class="d" d="M141.8,57.27a.8.8,0,1,1,.8.79.8.8,0,0,1-.8-.79" transform="translate(-16.89 -6.1)"/><path class="c" d="M128.84,43.84a.8.8,0,1,1,.8.79.8.8,0,0,1-.8-.79" transform="translate(-16.89 -6.1)"/><path class="d" d="M128.84,43.84a.8.8,0,1,1,.8.79.8.8,0,0,1-.8-.79" transform="translate(-16.89 -6.1)"/><path class="c" d="M132.38,53.59a.8.8,0,1,1,.8.79.8.8,0,0,1-.8-.79" transform="translate(-16.89 -6.1)"/><path class="d" d="M132.38,53.59a.8.8,0,1,1,.8.79.8.8,0,0,1-.8-.79" transform="translate(-16.89 -6.1)"/><path class="c" d="M132.38,46.75a.8.8,0,1,1,.8.79.8.8,0,0,1-.8-.79" transform="translate(-16.89 -6.1)"/><path class="d" d="M132.38,46.75a.8.8,0,1,1,.8.79.8.8,0,0,1-.8-.79" transform="translate(-16.89 -6.1)"/><path class="c" d="M134.74,50.72a.8.8,0,1,1,.8.79.8.8,0,0,1-.8-.79" transform="translate(-16.89 -6.1)"/><path class="d" d="M134.74,50.72a.8.8,0,1,1,.8.79.8.8,0,0,1-.8-.79" transform="translate(-16.89 -6.1)"/><path class="c" d="M140.62,53.44a.8.8,0,1,1,.8.79.8.8,0,0,1-.8-.79" transform="translate(-16.89 -6.1)"/><path class="d" d="M140.62,53.44a.8.8,0,1,1,.8.79.8.8,0,0,1-.8-.79" transform="translate(-16.89 -6.1)"/><path class="c" d="M128.84,41.68a.8.8,0,1,1,.8.79.8.8,0,0,1-.8-.79" transform="translate(-16.89 -6.1)"/><path class="d" d="M128.84,41.68a.8.8,0,1,1,.8.79.8.8,0,0,1-.8-.79" transform="translate(-16.89 -6.1)"/><path class="c" d="M132.38,44.25a.8.8,0,1,1,.8.79.8.8,0,0,1-.8-.79" transform="translate(-16.89 -6.1)"/><path class="d" d="M132.38,44.25a.8.8,0,1,1,.8.79.8.8,0,0,1-.8-.79" transform="translate(-16.89 -6.1)"/><path class="c" d="M135.92,49.85a.8.8,0,1,1,.79.79.8.8,0,0,1-.79-.79" transform="translate(-16.89 -6.1)"/><path class="d" d="M135.92,49.85a.8.8,0,1,1,.79.79.8.8,0,0,1-.79-.79" transform="translate(-16.89 -6.1)"/><path class="c" d="M137.1,53.15a.8.8,0,1,1,.79.79.8.8,0,0,1-.79-.79" transform="translate(-16.89 -6.1)"/><path class="d" d="M137.1,53.15a.8.8,0,1,1,.79.79.8.8,0,0,1-.79-.79" transform="translate(-16.89 -6.1)"/><path class="c" d="M128.84,58.94a.8.8,0,1,1,.8.79.8.8,0,0,1-.8-.79" transform="translate(-16.89 -6.1)"/><path class="d" d="M128.84,58.94a.8.8,0,1,1,.8.79.8.8,0,0,1-.8-.79" transform="translate(-16.89 -6.1)"/><path class="c" d="M130,57.47a.8.8,0,1,1,.8.79.8.8,0,0,1-.8-.79" transform="translate(-16.89 -6.1)"/><path class="d" d="M130,57.47a.8.8,0,1,1,.8.79.8.8,0,0,1-.8-.79" transform="translate(-16.89 -6.1)"/><path class="c" d="M137.1,45.22a.8.8,0,1,1,.79.79.8.8,0,0,1-.79-.79" transform="translate(-16.89 -6.1)"/><path class="d" d="M137.1,45.22a.8.8,0,1,1,.79.79.8.8,0,0,1-.79-.79" transform="translate(-16.89 -6.1)"/><path class="c" d="M130,48.19a.8.8,0,1,1,.8.79.8.8,0,0,1-.8-.79" transform="translate(-16.89 -6.1)"/><path class="d" d="M130,48.19a.8.8,0,1,1,.8.79.8.8,0,0,1-.8-.79" transform="translate(-16.89 -6.1)"/><path class="c" d="M137.1,47.68a.8.8,0,1,1,.79.79.8.8,0,0,1-.79-.79" transform="translate(-16.89 -6.1)"/><path class="d" d="M137.1,47.68a.8.8,0,1,1,.79.79.8.8,0,0,1-.79-.79" transform="translate(-16.89 -6.1)"/><path class="c" d="M135.92,59a.8.8,0,1,1,.79.79.8.8,0,0,1-.79-.79" transform="translate(-16.89 -6.1)"/><path class="d" d="M135.92,59a.8.8,0,1,1,.79.79.8.8,0,0,1-.79-.79" transform="translate(-16.89 -6.1)"/><path class="c" d="M128.84,57.83a.8.8,0,1,1,.8.79.8.8,0,0,1-.8-.79" transform="translate(-16.89 -6.1)"/><path class="d" d="M128.84,57.83a.8.8,0,1,1,.8.79.8.8,0,0,1-.8-.79" transform="translate(-16.89 -6.1)"/><path class="c" d="M134.74,51.38a.8.8,0,1,1,.8.79.8.8,0,0,1-.8-.79" transform="translate(-16.89 -6.1)"/><path class="d" d="M134.74,51.38a.8.8,0,1,1,.8.79.8.8,0,0,1-.8-.79" transform="translate(-16.89 -6.1)"/><path class="c" d="M133.56,54a.8.8,0,1,1,.8.79.8.8,0,0,1-.8-.79" transform="translate(-16.89 -6.1)"/><path class="d" d="M133.56,54a.8.8,0,1,1,.8.79.8.8,0,0,1-.8-.79" transform="translate(-16.89 -6.1)"/><path class="c" d="M133.56,42.73a.8.8,0,1,1,.8.79.8.8,0,0,1-.8-.79" transform="translate(-16.89 -6.1)"/><path class="d" d="M133.56,42.73a.8.8,0,1,1,.8.79.8.8,0,0,1-.8-.79" transform="translate(-16.89 -6.1)"/><path class="c" d="M131.2,51a.8.8,0,1,1,.8.79.8.8,0,0,1-.8-.79" transform="translate(-16.89 -6.1)"/><path class="d" d="M131.2,51a.8.8,0,1,1,.8.79.8.8,0,0,1-.8-.79" transform="translate(-16.89 -6.1)"/><path class="c" d="M127.66,41.06a.8.8,0,1,1,.8.79.8.8,0,0,1-.8-.79" transform="translate(-16.89 -6.1)"/><path class="d" d="M127.66,41.06a.8.8,0,1,1,.8.79.8.8,0,0,1-.8-.79" transform="translate(-16.89 -6.1)"/><path class="c" d="M127.66,53.08a.8.8,0,1,1,.8.79.8.8,0,0,1-.8-.79" transform="translate(-16.89 -6.1)"/><path class="d" d="M127.66,53.08a.8.8,0,1,1,.8.79.8.8,0,0,1-.8-.79" transform="translate(-16.89 -6.1)"/><path class="c" d="M130,56.6a.8.8,0,1,1,.8.79.8.8,0,0,1-.8-.79" transform="translate(-16.89 -6.1)"/><path class="d" d="M130,56.6a.8.8,0,1,1,.8.79.8.8,0,0,1-.8-.79" transform="translate(-16.89 -6.1)"/><path class="c" d="M133.56,48.16a.8.8,0,1,1,.8.79.8.8,0,0,1-.8-.79" transform="translate(-16.89 -6.1)"/><path class="d" d="M133.56,48.16a.8.8,0,1,1,.8.79.8.8,0,0,1-.8-.79" transform="translate(-16.89 -6.1)"/><path class="c" d="M133.56,41a.8.8,0,1,1,.8.79.8.8,0,0,1-.8-.79" transform="translate(-16.89 -6.1)"/><path class="d" d="M133.56,41a.8.8,0,1,1,.8.79.8.8,0,0,1-.8-.79" transform="translate(-16.89 -6.1)"/><path class="c" d="M131.2,53.34a.8.8,0,1,1,.8.79.79.79,0,0,1-.8-.79" transform="translate(-16.89 -6.1)"/><path class="d" d="M131.2,53.34a.8.8,0,1,1,.8.79.79.79,0,0,1-.8-.79" transform="translate(-16.89 -6.1)"/><path class="c" d="M132.38,57.54a.8.8,0,1,1,.8.79.8.8,0,0,1-.8-.79" transform="translate(-16.89 -6.1)"/><path class="d" d="M132.38,57.54a.8.8,0,1,1,.8.79.8.8,0,0,1-.8-.79" transform="translate(-16.89 -6.1)"/><path class="c" d="M140.62,51.66a.8.8,0,1,1,.8.79.8.8,0,0,1-.8-.79" transform="translate(-16.89 -6.1)"/><path class="d" d="M140.62,51.66a.8.8,0,1,1,.8.79.8.8,0,0,1-.8-.79" transform="translate(-16.89 -6.1)"/><path class="c" d="M134.74,53.91a.8.8,0,1,1,.8.79.8.8,0,0,1-.8-.79" transform="translate(-16.89 -6.1)"/><path class="d" d="M134.74,53.91a.8.8,0,1,1,.8.79.8.8,0,0,1-.8-.79" transform="translate(-16.89 -6.1)"/><path class="c" d="M140.62,52a.8.8,0,1,1,.8.79.8.8,0,0,1-.8-.79" transform="translate(-16.89 -6.1)"/><path class="d" d="M140.62,52a.8.8,0,1,1,.8.79.8.8,0,0,1-.8-.79" transform="translate(-16.89 -6.1)"/><path class="c" d="M131.2,57a.8.8,0,1,1,.8.79.8.8,0,0,1-.8-.79" transform="translate(-16.89 -6.1)"/><path class="d" d="M131.2,57a.8.8,0,1,1,.8.79.8.8,0,0,1-.8-.79" transform="translate(-16.89 -6.1)"/><path class="c" d="M138.27,49a.8.8,0,1,1,.8.79.8.8,0,0,1-.8-.79" transform="translate(-16.89 -6.1)"/><path class="d" d="M138.27,49a.8.8,0,1,1,.8.79.8.8,0,0,1-.8-.79" transform="translate(-16.89 -6.1)"/><path class="b" d="M159.31,17a5.29,5.29,0,0,1-2-.41l.22-.54a4.82,4.82,0,0,0,1.78.37c1,0,1.55-.37,1.55-1.25V9.1h-3.1V8.56h3.7V15.2C161.48,16.63,160.35,17,159.31,17ZM161.2,7.3l-.59-.6.59-.59.61.59Z" transform="translate(-16.89 -6.1)"/><path class="b" d="M164.61,14.57V14h2.29V9.1h-2.07V8.56h2.68V14h2.29v.56Zm2.6-7.27-.58-.6.58-.59.6.59Z" transform="translate(-16.89 -6.1)"/><path class="b" d="M174.11,14.66c-1.1,0-1.95-.21-1.95-1.61V9.11h-1.43V8.56h1.43V7.33h.58V8.56h3.43v.55h-3.42v3.77c0,.94.33,1.21,1.34,1.21a5.45,5.45,0,0,0,2-.41l.17.5A5.76,5.76,0,0,1,174.11,14.66Z" transform="translate(-16.89 -6.1)"/><path class="b" d="M180.71,14.66c-1.1,0-1.95-.21-1.95-1.61V9.11h-1.43V8.56h1.43V7.33h.58V8.56h3.43v.55h-3.42v3.77c0,.94.33,1.21,1.34,1.21a5.45,5.45,0,0,0,2-.41l.17.5A5.76,5.76,0,0,1,180.71,14.66Z" transform="translate(-16.89 -6.1)"/><path class="b" d="M184.89,11.62c0,2.18,1.14,2.49,2.48,2.49a6.85,6.85,0,0,0,1.42-.2l.13.52a5.2,5.2,0,0,1-1.8.24c-1.68,0-2.85-.72-2.85-3s1.25-3.26,2.68-3.26,2.16.95,2.16,3v.22Zm1.94-2.73c-1,0-1.8.74-1.94,2.22h3.56C188.46,9.77,187.87,8.89,186.83,8.89Z" transform="translate(-16.89 -6.1)"/><path class="b" d="M196.07,9.45A2.92,2.92,0,0,0,194.59,9a2.27,2.27,0,0,0-1.69,1v4h2.21v.56h-4.47V14h1.65V9.11h-1.65V8.56h2.26v.75a2.13,2.13,0,0,1,1.72-.86,3,3,0,0,1,1.71.51Z" transform="translate(-16.89 -6.1)"/><path class="b" d="M208.22,17A6.64,6.64,0,0,1,205,11.43a6,6,0,0,1,3.17-5.33l.37.43a5.64,5.64,0,0,0-2.92,4.88,6.31,6.31,0,0,0,2.92,5.15Z" transform="translate(-16.89 -6.1)"/><path class="b" d="M212.81,14.66a4.76,4.76,0,0,1-2-.34l.19-.55a4.23,4.23,0,0,0,1.76.35c.94,0,2-.18,2-1,0-1.5-3.65-1-3.65-3.11,0-1.11.91-1.53,2-1.53a4.76,4.76,0,0,1,1.79.32l-.18.5a5,5,0,0,0-1.67-.3c-.79,0-1.41.29-1.41,1,0,1.61,3.65,1.17,3.65,3.14C215.32,14.37,213.79,14.66,212.81,14.66Z" transform="translate(-16.89 -6.1)"/><path class="b" d="M221.4,14.57V14a2.68,2.68,0,0,1-1.68.7c-1,0-2.46-.36-2.46-3,0-2.11,1.25-3.19,2.74-3.19a4.25,4.25,0,0,1,1.41.18V6.27h.6v8.3Zm0-5.4A4.14,4.14,0,0,0,220,8.95c-1.54,0-2.1,1.39-2.1,2.71,0,1.71.73,2.48,1.83,2.48a3.2,3.2,0,0,0,1.69-.77Z" transform="translate(-16.89 -6.1)"/><path class="b" d="M224.51,17l-.36-.43a6.31,6.31,0,0,0,2.9-5.15,5.64,5.64,0,0,0-2.9-4.88l.36-.43a6,6,0,0,1,3.17,5.33A6.64,6.64,0,0,1,224.51,17Z" transform="translate(-16.89 -6.1)"/><path class="b" d="M237.39,9.86V9.31h4.18v.55Zm0,2.17v-.55h4.18V12Z" transform="translate(-16.89 -6.1)"/><path class="b" d="M252.47,14.66a4.85,4.85,0,0,1-2-.34l.18-.52a5.09,5.09,0,0,0,1.67.31c.88,0,1.89-.15,1.89-1.49,0-1.07-1-1.74-2.18-1.82v-.59a2,2,0,0,0,1.83-1.69c0-1-.73-1.27-1.46-1.27a3.31,3.31,0,0,0-1.29.25L250.94,7a3.64,3.64,0,0,1,1.54-.33c1.23,0,2,.62,2,1.76a2.08,2.08,0,0,1-1.57,1.95v0a2.28,2.28,0,0,1,1.94,2.12C254.85,14.12,253.85,14.66,252.47,14.66Z" transform="translate(-16.89 -6.1)"/><path class="b" d="M259.23,14.67c-2,0-2.62-1.68-2.62-3.86s.66-4.08,2.79-4.08S262,8.61,262,10.56C262,13.06,261.18,14.67,259.23,14.67Zm2.08-4c0-1.46-.26-3.37-2-3.37s-2.09,1.95-2.09,3.5.42,3.36,2,3.36c1.75,0,2-1.8,2-3.49Zm-2,.66-.58-.61.58-.59.6.59Z" transform="translate(-16.89 -6.1)"/><path class="b" d="M265.83,14.67c-2,0-2.62-1.68-2.62-3.86s.66-4.08,2.79-4.08,2.55,1.88,2.55,3.84C268.56,13.06,267.77,14.67,265.83,14.67Zm2.08-4c0-1.46-.26-3.37-2-3.37s-2.09,1.95-2.09,3.5.42,3.36,2,3.36c1.75,0,2-1.8,2-3.49Zm-2,.66-.58-.61.58-.59.6.59Z" transform="translate(-16.89 -6.1)"/><path class="b" d="M274.17,14.57v-.73a4,4,0,0,1-2.19.85c-1.64,0-1.75-1.33-1.75-2.27V8.56h.61v3.67c0,1,0,1.87,1.25,1.87a4.63,4.63,0,0,0,2.08-.85V8.56h.57v6Z" transform="translate(-16.89 -6.1)"/><path class="b" d="M278.81,14.66a4.76,4.76,0,0,1-2-.34l.19-.55a4.23,4.23,0,0,0,1.76.35c.94,0,2-.18,2-1,0-1.5-3.65-1-3.65-3.11,0-1.11.91-1.53,2-1.53a4.76,4.76,0,0,1,1.79.32l-.18.5a5,5,0,0,0-1.67-.3c-.79,0-1.41.29-1.41,1,0,1.61,3.65,1.17,3.65,3.14C281.32,14.37,279.79,14.66,278.81,14.66Z" transform="translate(-16.89 -6.1)"/><polyline class="e" points="110.77 19.86 110.77 15.48 126.52 15.48 126.52 19.86"/><polyline class="e" points="118.64 15.48 118.64 10.29 122.98 5.47 134.45 5.47"/><path class="f" d="M44.13,48.25a3,3,0,0,0-1.28-.32,2.26,2.26,0,0,0-1.67.83v3.72h2.29v1H38.26v-1h1.66V47.95H38.27V47h2.9v.84a2.25,2.25,0,0,1,1.88-1,2.78,2.78,0,0,1,1.38.35Z" transform="translate(-16.89 -6.1)"/><path class="f" d="M48,53.61a8.07,8.07,0,0,1-1.07-.06v2.6H45.69V47h1.25v.56a2.88,2.88,0,0,1,1.69-.68c1.58,0,2.41,1,2.41,3.17C51,52.75,49.72,53.61,48,53.61Zm.25-5.69a2.65,2.65,0,0,0-1.32.47v4.13a4.67,4.67,0,0,0,1.12.1c1.31,0,1.73-1,1.73-2.41S49.53,47.92,48.25,47.92Z" transform="translate(-16.89 -6.1)"/><path class="f" d="M53,53.51v-1H55.2V47.94h-2V47h3.29v5.5h2.18v1Zm2.83-7.6-1-1,1-1,1,1Z" transform="translate(-16.89 -6.1)"/><path class="f" d="M59.84,53.51v-1H62.1v-7H60v-1h3.33v8H65.6v1Z" transform="translate(-16.89 -6.1)"/><path class="f" d="M69.88,53.63c-1.92,0-2.81-1.21-2.81-3.32s1.06-3.5,2.9-3.5c2.05,0,2.77,1.26,2.77,3.43S71.68,53.63,69.88,53.63Zm.06-5.81c-1.34,0-1.6,1.24-1.6,2.42s.31,2.36,1.62,2.36,1.51-1.13,1.51-2.37S71.28,47.83,69.94,47.83Z" transform="translate(-16.89 -6.1)"/><path class="f" d="M78.07,53.62c-1.22,0-2.49-.1-2.49-1.93V47.95H74.13V47h1.45V45.62h1.24V47H80v1H76.81v3.63c0,.79.4,1,1.25,1a6.78,6.78,0,0,0,1.9-.29l.18,1A6.72,6.72,0,0,1,78.07,53.62Z" transform="translate(-16.89 -6.1)"/><path class="f" d="M55.19,99.5a6.13,6.13,0,0,1-2.31-.31V90.38h1.25v2.78a3.45,3.45,0,0,1,1.56-.38c1.7,0,2.6,1,2.6,3.13C58.29,98.66,56.85,99.5,55.19,99.5Zm.28-5.73a3.91,3.91,0,0,0-1.34.3v4.31a4.3,4.3,0,0,0,1.1.11c1.24,0,1.77-1,1.77-2.43S56.77,93.77,55.47,93.77Z" transform="translate(-16.89 -6.1)"/><path class="f" d="M62.4,99.52a8.09,8.09,0,0,1-1.07-.06v2.6H60.09V92.87h1.25v.56A2.88,2.88,0,0,1,63,92.75c1.58,0,2.41,1,2.41,3.17C65.44,98.65,64.12,99.52,62.4,99.52Zm.25-5.69a2.65,2.65,0,0,0-1.32.47v4.13a4.68,4.68,0,0,0,1.12.1c1.31,0,1.73-1,1.73-2.41S63.93,93.83,62.65,93.83Z" transform="translate(-16.89 -6.1)"/><path class="f" d="M69.88,99.54c-1.92,0-2.81-1.21-2.81-3.32s1.06-3.5,2.9-3.5c2.05,0,2.77,1.26,2.77,3.43S71.68,99.54,69.88,99.54Zm.06-5.81c-1.34,0-1.59,1.24-1.59,2.42s.31,2.36,1.62,2.36,1.51-1.13,1.51-2.37S71.28,93.73,69.94,93.73Z" transform="translate(-16.89 -6.1)"/><path class="f" d="M78.49,99.42v-.64a2.42,2.42,0,0,1-1.63.73c-1.15,0-2.53-.5-2.53-3.38,0-2.28,1.25-3.43,3-3.43a3.39,3.39,0,0,1,1.13.14V90.38h1.25v9Zm0-5.58a3.44,3.44,0,0,0-1.13-.17c-1.38,0-1.77,1.19-1.77,2.49,0,1.67.58,2.29,1.5,2.29a2.81,2.81,0,0,0,1.4-.56Z" transform="translate(-16.89 -6.1)"/><path class="f" d="M19.2,145.42a8.19,8.19,0,0,1-1.07-.06V148H16.89v-9.19h1.25v.56a2.89,2.89,0,0,1,1.69-.68c1.58,0,2.41,1,2.41,3.17C22.24,144.56,20.92,145.42,19.2,145.42Zm.25-5.68a2.65,2.65,0,0,0-1.32.47v4.13a4.64,4.64,0,0,0,1.12.1c1.31,0,1.73-1,1.73-2.41S20.73,139.74,19.46,139.74Z" transform="translate(-16.89 -6.1)"/><path class="f" d="M26.48,148H25.3l1-2.64h-.5l-2.13-6.55h1.3l1.7,5.59h0l1.94-5.59h1.24Z" transform="translate(-16.89 -6.1)"/><path class="f" d="M34.61,145.45c-2.82,0-3.32-1.7-3.32-4.31s.65-4.39,3.35-4.39a3.53,3.53,0,0,1,2,.54l-.43.94a3.56,3.56,0,0,0-1.56-.37c-1.6,0-2,.9-2,3.17s.35,3.32,2.21,3.32a5.2,5.2,0,0,0,1.56-.22l.29,1A4.93,4.93,0,0,1,34.61,145.45Z" transform="translate(-16.89 -6.1)"/><path class="f" d="M41.08,145.45c-1.92,0-2.81-1.21-2.81-3.32s1.06-3.5,2.9-3.5c2.05,0,2.77,1.26,2.77,3.43S42.88,145.45,41.08,145.45Zm.06-5.81c-1.34,0-1.59,1.24-1.59,2.42s.31,2.36,1.62,2.36,1.51-1.13,1.51-2.37S42.48,139.64,41.14,139.64Z" transform="translate(-16.89 -6.1)"/><path class="f" d="M49.72,145.33v-4c0-1.07-.11-1.6-1.1-1.6a3.15,3.15,0,0,0-1.67.67v4.94H45.7v-6.55h1.25v.72a3,3,0,0,1,2-.89c2,0,2,1.3,2,2.52v4.2Z" transform="translate(-16.89 -6.1)"/><path class="f" d="M56.47,145.43c-1.22,0-2.49-.1-2.49-1.93v-3.74H52.53v-1H54v-1.34h1.24v1.34h3.14v1H55.21v3.63c0,.79.4,1,1.25,1a6.76,6.76,0,0,0,1.9-.29l.18,1A6.7,6.7,0,0,1,56.47,145.43Z" transform="translate(-16.89 -6.1)"/><path class="f" d="M65.72,140.06a3,3,0,0,0-1.28-.32,2.26,2.26,0,0,0-1.67.83v3.72h2.29v1H59.86v-1h1.66v-4.52H59.87v-1h2.9v.84a2.25,2.25,0,0,1,1.88-1A2.78,2.78,0,0,1,66,139Z" transform="translate(-16.89 -6.1)"/><path class="f" d="M69.88,145.45c-1.92,0-2.81-1.21-2.81-3.32s1.06-3.5,2.9-3.5c2.05,0,2.77,1.26,2.77,3.43S71.68,145.45,69.88,145.45Zm.06-5.81c-1.34,0-1.59,1.24-1.59,2.42s.31,2.36,1.62,2.36,1.51-1.13,1.51-2.37S71.28,139.64,69.94,139.64Z" transform="translate(-16.89 -6.1)"/><path class="f" d="M74.24,145.33v-1H76.5v-7H74.42v-1h3.33v8H80v1Z" transform="translate(-16.89 -6.1)"/><path class="f" d="M26.4,191.33a8.17,8.17,0,0,1-1.07-.06v2.6H24.09v-9.19h1.25v.56a2.88,2.88,0,0,1,1.69-.68c1.58,0,2.41,1,2.41,3.17C29.44,190.47,28.12,191.33,26.4,191.33Zm.25-5.68a2.65,2.65,0,0,0-1.32.47v4.13a4.63,4.63,0,0,0,1.12.1c1.31,0,1.73-1,1.73-2.41S27.93,185.65,26.65,185.65Z" transform="translate(-16.89 -6.1)"/><path class="f" d="M33.59,191.34a6.61,6.61,0,0,1-2.27-.32l.2-1a7.6,7.6,0,0,0,1.94.28c1,0,1.81-.17,1.81-.82,0-1.27-3.79-.7-3.79-3.09,0-1.31,1.25-1.83,2.57-1.83a5.79,5.79,0,0,1,2.07.35l-.26.94a6.27,6.27,0,0,0-1.81-.28c-.79,0-1.33.26-1.33.78,0,1.37,3.78.86,3.78,3.09C36.51,191,34.67,191.34,33.59,191.34Z" transform="translate(-16.89 -6.1)"/><path class="f" d="M40.88,193.87H39.7l1-2.64h-.5L38,184.69h1.3l1.7,5.59h0L43,184.69h1.24Z" transform="translate(-16.89 -6.1)"/><path class="f" d="M50.63,186a3.77,3.77,0,0,0-1.74-.4c-1.13,0-1.94.76-1.94,2.35s.49,2.38,2.29,2.38a7.08,7.08,0,0,0,1.58-.2l.19,1a6.71,6.71,0,0,1-1.93.26c-2.46,0-3.42-1-3.42-3.41a3.08,3.08,0,0,1,3.21-3.41,4,4,0,0,1,2.13.53Z" transform="translate(-16.89 -6.1)"/><path class="f" d="M56.93,191.23v-4c0-1.07-.12-1.6-1.12-1.6a3.28,3.28,0,0,0-1.65.67v4.94H52.9v-9h1.26v3.21a2.89,2.89,0,0,1,2-.89c2,0,2,1.3,2,2.52v4.2Z" transform="translate(-16.89 -6.1)"/><path class="f" d="M62.68,191.35c-1.92,0-2.81-1.21-2.81-3.32s1.06-3.5,2.9-3.5c2.05,0,2.77,1.26,2.77,3.43S64.48,191.35,62.68,191.35Zm.06-5.81c-1.34,0-1.59,1.24-1.59,2.42s.31,2.36,1.62,2.36,1.51-1.13,1.51-2.37S64.08,185.55,62.74,185.55Z" transform="translate(-16.89 -6.1)"/><path class="f" d="M69.6,191.33a8.17,8.17,0,0,1-1.07-.06v2.6H67.29v-9.19h1.25v.56a2.88,2.88,0,0,1,1.69-.68c1.58,0,2.41,1,2.41,3.17C72.64,190.47,71.32,191.33,69.6,191.33Zm.25-5.68a2.65,2.65,0,0,0-1.32.47v4.13a4.63,4.63,0,0,0,1.12.1c1.31,0,1.73-1,1.73-2.41S71.13,185.65,69.85,185.65Z" transform="translate(-16.89 -6.1)"/><path class="f" d="M76.87,193.87H75.7l1-2.64h-.5L74,184.69h1.3l1.7,5.59h0L79,184.69h1.24Z" transform="translate(-16.89 -6.1)"/><path class="f" d="M179.86,53.17a4.85,4.85,0,0,1-2-.34l.18-.52a5.09,5.09,0,0,0,1.67.31c.88,0,1.89-.15,1.89-1.49,0-1.07-1-1.74-2.18-1.82v-.59A2,2,0,0,0,181.29,47c0-1-.73-1.27-1.46-1.27a3.31,3.31,0,0,0-1.29.25l-.21-.46a3.64,3.64,0,0,1,1.54-.33c1.23,0,2,.62,2,1.76a2.08,2.08,0,0,1-1.57,1.95v0a2.28,2.28,0,0,1,1.94,2.12C182.23,52.63,181.23,53.17,179.86,53.17Z" transform="translate(-16.89 -6.1)"/><path class="f" d="M186.28,53.08V52.3h.77v.78Z" transform="translate(-16.89 -6.1)"/><path class="f" d="M193.25,53.19c-1.47,0-2.41-.68-2.41-1.79s1-1.78,1.94-2.32c-.95-.61-1.64-1.08-1.64-2.1s.83-1.75,2.22-1.75,2.11.8,2.11,1.69c0,1.18-.92,1.64-1.74,2.13,1.14.67,2,1.28,2,2.23C195.7,52.5,194.8,53.19,193.25,53.19Zm0-3.78c-1,.53-1.74,1.11-1.74,1.94s.77,1.31,1.83,1.31,1.75-.33,1.75-1.41C195,50.39,193.88,49.81,193.21,49.4Zm1.61-2.4c0-.66-.4-1.27-1.45-1.27s-1.63.46-1.63,1.25,1,1.38,1.55,1.78c.76-.46,1.52-1,1.52-1.77Z" transform="translate(-16.89 -6.1)"/><path class="f" d="M201.88,53.08V49.35c0-1,0-1.86-.74-1.86-.47,0-.85.55-1,.83a7.22,7.22,0,0,1,0,.86v3.91h-.59V49.13c0-.8,0-1.66-.65-1.66-.42,0-.9.72-1.07,1v4.63h-.6v-6h.6v.69a1.4,1.4,0,0,1,1.13-.82,1,1,0,0,1,1,.79,1.28,1.28,0,0,1,1.18-.79c1.29,0,1.3,1.2,1.3,2.23v3.91Z" transform="translate(-16.89 -6.1)"/><path class="f" d="M206.19,53.17a4.76,4.76,0,0,1-2-.34l.19-.55a4.23,4.23,0,0,0,1.76.35c.94,0,2-.18,2-1,0-1.5-3.65-1-3.65-3.11,0-1.11.91-1.53,2-1.53a4.76,4.76,0,0,1,1.79.32l-.18.5a5,5,0,0,0-1.67-.3c-.79,0-1.41.29-1.41,1,0,1.61,3.65,1.17,3.65,3.14C208.7,52.88,207.17,53.17,206.19,53.17Z" transform="translate(-16.89 -6.1)"/><path class="f" d="M138.78,99.32l-.57-.24,3.33-7h-4v-.57h4.58v.63Z" transform="translate(-16.89 -6.1)"/><path class="f" d="M146.08,99.24v-.78h.77v.78Z" transform="translate(-16.89 -6.1)"/><path class="f" d="M152.75,99.33a6.55,6.55,0,0,1-1.8-.21l.15-.57a5.84,5.84,0,0,0,1.64.2,1.74,1.74,0,1,0,0-3.48,13.74,13.74,0,0,0-1.54.09V91.46H155V92H151.8v2.68c.4,0,.74,0,1.11,0a2.11,2.11,0,0,1,2.28,2.26A2.22,2.22,0,0,1,152.75,99.33Z" transform="translate(-16.89 -6.1)"/><path class="f" d="M161.68,99.24V95.51c0-1,0-1.86-.74-1.86-.47,0-.85.55-1,.83a7.22,7.22,0,0,1,0,.86v3.91h-.59V95.29c0-.8,0-1.66-.65-1.66-.42,0-.9.72-1.07,1v4.63H157v-6h.6v.69a1.4,1.4,0,0,1,1.13-.82,1,1,0,0,1,1,.79A1.28,1.28,0,0,1,161,93.1c1.29,0,1.3,1.2,1.3,2.23v3.91Z" transform="translate(-16.89 -6.1)"/><path class="f" d="M166,99.33a4.76,4.76,0,0,1-2-.34l.19-.55a4.23,4.23,0,0,0,1.76.35c.94,0,2-.18,2-1,0-1.5-3.65-1-3.65-3.11,0-1.11.91-1.53,2-1.53a4.76,4.76,0,0,1,1.79.32l-.18.5a5,5,0,0,0-1.67-.3c-.79,0-1.41.29-1.41,1,0,1.61,3.65,1.17,3.65,3.14C168.5,99,167,99.33,166,99.33Z" transform="translate(-16.89 -6.1)"/><path class="f" d="M232.22,145.15v-.57h2.31v-6.46l-2.21.77v-.55l2.82-1.1v7.34h2.28v.57Z" transform="translate(-16.89 -6.1)"/><path class="f" d="M241.11,145.23a6.52,6.52,0,0,1-1.8-.21l.15-.57a5.85,5.85,0,0,0,1.64.2,1.74,1.74,0,1,0,0-3.48,13.74,13.74,0,0,0-1.54.09v-3.89h3.74v.56h-3.16v2.68c.4,0,.74,0,1.11,0a2.11,2.11,0,0,1,2.28,2.26A2.22,2.22,0,0,1,241.11,145.23Z" transform="translate(-16.89 -6.1)"/><path class="f" d="M250,145.15v-3.73c0-1,0-1.86-.74-1.86-.47,0-.85.55-1,.83a7.23,7.23,0,0,1,0,.86v3.91h-.59V141.2c0-.8,0-1.66-.65-1.66-.42,0-.9.71-1.07,1v4.63h-.6v-6h.6v.69a1.4,1.4,0,0,1,1.13-.83,1,1,0,0,1,1,.79,1.28,1.28,0,0,1,1.18-.79c1.29,0,1.3,1.2,1.3,2.23v3.91Z" transform="translate(-16.89 -6.1)"/><path class="f" d="M254.35,145.23a4.76,4.76,0,0,1-2-.34l.19-.55a4.24,4.24,0,0,0,1.76.35c.94,0,2-.18,2-1,0-1.5-3.65-1-3.65-3.11,0-1.11.91-1.53,2-1.53a4.75,4.75,0,0,1,1.79.32l-.18.5a5,5,0,0,0-1.67-.3c-.79,0-1.41.29-1.41,1,0,1.61,3.65,1.17,3.65,3.14C256.86,144.95,255.33,145.23,254.35,145.23Z" transform="translate(-16.89 -6.1)"/><path class="f" d="M530.81,188.84v2.21h-.62v-2.21h-3.46v-.6l2.55-5h.59l-2.5,5h2.81v-5h.62v5H532v.58Z" transform="translate(-16.89 -6.1)"/><path class="f" d="M535.93,191.15c-2,0-2.62-1.68-2.62-3.86s.66-4.08,2.79-4.08,2.55,1.88,2.55,3.84C538.66,189.55,537.87,191.15,535.93,191.15Zm2.08-4c0-1.46-.26-3.37-2-3.37s-2.09,1.95-2.09,3.5.42,3.36,2,3.36c1.75,0,2-1.8,2-3.49Zm-2,.66-.58-.61.58-.59.61.59Z" transform="translate(-16.89 -6.1)"/><path class="f" d="M544.59,191.05v-3.73c0-1,0-1.86-.74-1.86-.47,0-.85.55-1,.83a7.22,7.22,0,0,1,0,.86v3.91h-.59v-4c0-.8,0-1.66-.65-1.66-.42,0-.9.72-1.07,1v4.63H540v-6h.61v.69a1.4,1.4,0,0,1,1.13-.82,1,1,0,0,1,1,.79,1.27,1.27,0,0,1,1.18-.79c1.29,0,1.3,1.2,1.3,2.23v3.91Z" transform="translate(-16.89 -6.1)"/><path class="f" d="M548.91,191.14a4.77,4.77,0,0,1-2-.34l.19-.55a4.22,4.22,0,0,0,1.76.35c.94,0,2-.18,2-1,0-1.5-3.65-1-3.65-3.11,0-1.11.91-1.53,2-1.53a4.77,4.77,0,0,1,1.79.32l-.18.5a5,5,0,0,0-1.67-.3c-.79,0-1.41.29-1.41,1,0,1.61,3.65,1.17,3.65,3.13C551.42,190.86,549.89,191.14,548.91,191.14Z" transform="translate(-16.89 -6.1)"/></svg>
