<?xml version="1.0" encoding="utf-8"?>
<!-- Generator: Adobe Illustrator 21.1.0, SVG Export Plug-In . SVG Version: 6.00 Build 0)  -->
<svg version="1.1" id="Layer_1" xmlns="http://www.w3.org/2000/svg" xmlns:xlink="http://www.w3.org/1999/xlink" x="0px" y="0px"
	 width="950px" height="410px" viewBox="0 0 950 410" style="enable-background:new 0 0 950 410;" xml:space="preserve">
<style type="text/css">
	.st0{fill:#F5F5F5;}
	.st1{fill:#EC1E24;}
	.st2{fill:none;stroke:#F5F5F5;stroke-width:6;stroke-linejoin:round;stroke-miterlimit:10;}
	.st3{fill:none;stroke:#F5F5F5;stroke-width:3;stroke-miterlimit:10;}
	.st4{fill:none;stroke:#F5F5F5;stroke-width:6;stroke-miterlimit:10;}
	.st5{fill:none;stroke:#FF3030;stroke-width:3;stroke-linejoin:round;stroke-miterlimit:10;}
	.st6{fill:none;stroke:#F5F5F5;stroke-width:3;stroke-linejoin:round;stroke-miterlimit:10;}
	.st7{fill:none;stroke:#F5F5F5;stroke-width:1.5;stroke-miterlimit:10;}
	.st8{fill:none;stroke:#F5F5F5;stroke-width:1.5;stroke-linejoin:round;stroke-miterlimit:10;}
	.st9{fill:none;stroke:#ED3424;stroke-width:3;stroke-miterlimit:10;}
	.st10{fill:none;stroke:#ED3424;stroke-width:3;stroke-miterlimit:10;stroke-dasharray:17.6216,5.8739;}
	.st11{fill:none;stroke:#F5F5F5;stroke-width:4.5;stroke-linecap:round;stroke-linejoin:round;stroke-miterlimit:10;}
	.st12{fill:none;stroke:#EC1E24;stroke-width:4.5;stroke-linecap:round;stroke-linejoin:round;stroke-miterlimit:10;}
	.st13{fill:none;stroke:#ED3424;stroke-width:6;stroke-miterlimit:10;}
	.st14{fill:none;stroke:#ED3424;stroke-width:3;stroke-miterlimit:10;stroke-dasharray:16.3763,5.4588;}
	.st15{fill:#ED3424;}
</style>
<g>
	<g>
		<path class="st0" d="M46.8,55.5c0-1.1,0-1.9,0-2.8c0-13.1,0-26.2,0-39.3c0-6.1,2.9-8.9,9-8.9c39.8,0,79.6,0,119.4,0
			c6.4,0,9.1,2.8,9.1,9.2c0,8.8,0,17.6,0,26.4c0,0.8,0,1.6,0,2.3c0.3,0.2,0.4,0.3,0.6,0.3c6.2,0.5,7.1,1.5,7.1,7.6c0,8,0,16,0,24
			c0,4.9-1.5,6.5-6.5,6.6c-0.3,0-0.6,0.1-1.2,0.1c0,1,0,1.9,0,2.8c0,18,0,36.1,0,54.1c0,6.3-2.8,9.2-9.2,9.2c-7.8,0-15.7,0-23.9,0
			c0,1,0,1.8,0,2.6c-0.3,4.4-3.4,7.4-7.8,7.5c-4.8,0.1-9.6,0-14.4,0c-5.3,0-8.2-2.9-8.4-8.2c0-0.6-0.1-1.1-0.1-1.8
			c-1.7,0-3.2,0-4.8,0c-1,7.1-1.5,7.5-8.8,7.5c-6.8,0-13.7,0-20.5,0c-4.9,0-6.4-1.5-6.6-6.5c0-0.3-0.1-0.6-0.1-1.1
			c-0.8,0-1.6,0-2.3,0c-7.3,0-14.7,0-22,0c-5.5,0-8.5-3.1-8.5-8.5c0-13.2,0-26.3,0-39.5c0-0.9,0-1.7,0-2.9c-1,0-1.8,0-2.7,0
			c-2.8-0.2-4.9-2.1-4.9-4.9c-0.1-10.3-0.1-20.7,0-31c0-2.8,2.1-4.7,4.9-4.8C44.9,55.5,45.7,55.5,46.8,55.5z M72.3,93.7
			c1.6,0,3.1,0,4.5,0c1.7,0,2.9,0.6,3,2.5c0.1,1.9-1.2,2.7-3,2.7c-1.5,0-3,0-4.4,0c0,1.9,0,3.4,0,5.1c1.4,0,2.7,0,4,0
			c1.8,0,3.3,0.4,3.4,2.5c0.1,1.7-1.1,2.6-3.5,2.6c-5,0-10,0-15.1,0c-3.8,0-4.3-0.5-4.3-4.2c0-2.8,0-5.6,0-8.4c-1.9,0-3.4,0-5,0
			c0,0.4-0.1,0.8-0.1,1.1c0,13.8,0,27.6,0,41.5c0,2.2,0.9,3.1,3.3,3.1c7.7,0,15.4,0,23.1,0c0.5,0,1-0.1,1.6-0.2c0-5.7,0-11.3,0-16.9
			c0-3.8,2-5.8,5.8-5.8c8.1,0,16.2,0,24.2,0c3.7,0,5.7,2,5.7,5.7c0,4.9,0,9.9,0,14.8c0,0.8,0,1.5,0,2.3c1.9,0,3.4,0,5.1,0
			c0-0.9,0-1.7,0-2.4c0-10.8,0-21.5,0-32.3c0-4,1.8-5.8,5.9-5.9c6.1,0,12.2,0,18.3,0c4.6,0,6.3,1.8,6.3,6.3c0,10.6,0,21.2,0,31.9
			c0,0.8,0.1,1.6,0.1,2.5c0.8,0,1.4,0,2.1,0c7.3,0,14.6,0,21.8,0c3.3,0,4-0.7,4-3.9c0-18.3,0-36.7,0-55c0-0.7,0-1.4,0-2.2
			c-7.6,0-14.8,0-22,0c-4.2,0-6-1.8-6-5.9c0-8.7,0-17.5,0-26.2c0-4.3,1.8-6.1,6.1-6.1c6.5,0,12.9,0,19.4,0c0.8,0,1.5-0.1,2.4-0.2
			c0-1,0-1.7,0-2.4c0-8.8,0-17.6,0-26.4c0-3.5-0.6-4.1-4-4.1c-39.8,0-79.6,0-119.4,0c-3.3,0-4,0.6-4,3.9c0,13.2,0,26.3,0,39.5
			c0,0.8,0.1,1.5,0.1,2.3c1.8,0,3.3,0,5,0c0-3.2,0-6.3,0-9.4c0-2.3,0.8-3.1,2.9-3.2c5.7-0.1,11.3,0,17,0c1.7,0,2.9,0.7,2.9,2.6
			c0,1.8-1.2,2.5-2.9,2.5c-1.5,0-3,0-4.5,0c0,1.9,0,3.4,0,5.1c1.5,0,2.9,0,4.3,0c1.8,0,3.1,0.6,3.1,2.6c0,2-1.4,2.5-3.1,2.5
			c-1.4,0-2.8,0-4.2,0c0,1.9,0,3.5,0,5.1c1.6,0,2.9,0,4.3,0c1.8,0,3,0.7,3,2.6c0,1.8-1.3,2.5-2.9,2.5c-1.5,0-3,0-4.5,0
			c0,1.8,0,3.3,0,5.1c1.6,0,3.1,0,4.6,0c1.7,0,2.8,0.8,2.8,2.6c-0.1,1.7-1.2,2.4-2.8,2.4c-1.5,0-3,0-4.6,0c0,1.8,0,3.3,0,5.1
			c1.6,0,3,0,4.4,0c1.7,0,2.9,0.6,3,2.4c0.1,1.9-1.2,2.6-3,2.6c-1.5,0-3,0-4.5,0C72.3,90.4,72.3,91.9,72.3,93.7z M186.7,75.7
			c0-9.4,0-18.5,0-27.7c-10.2,0-20.2,0-30.3,0c0,9.3,0,18.4,0,27.7C166.5,75.7,176.5,75.7,186.7,75.7z M110.3,149.6
			c0-8.5,0-16.8,0-25.2c-8.5,0-16.8,0-25.2,0c0,8.5,0,16.8,0,25.2C93.5,149.6,101.8,149.6,110.3,149.6z M146,131.8
			c0-8.6,0-16.9,0-25.2c-6.8,0-13.4,0-20,0c0,8.5,0,16.8,0,25.2c2.6,0,4.9,0,7.4,0c0-0.7,0.1-1.3,0.1-1.8c0-2.7,0-5.4,0-8.1
			c0-1.6,0.9-2.6,2.6-2.6c1.6,0,2.4,1,2.5,2.5c0.1,1.1,0,2.2,0,3.3c0,2.3,0,4.6,0,6.8C141.2,131.8,143.5,131.8,146,131.8z M44.4,91
			c4.3,0,8.3,0,12.4,0c0-10.2,0-20.2,0-30.3c-4.2,0-8.3,0-12.4,0C44.4,70.8,44.4,80.8,44.4,91z M125.8,137.1c0,4.4-0.1,8.6,0.1,12.8
			c0,0.8,1.5,2.2,2.4,2.2c5.2,0.2,10.3,0.2,15.5,0c0.8,0,2.2-1.3,2.2-2.1c0.2-4.3,0.1-8.5,0.1-12.9
			C139.3,137.1,132.7,137.1,125.8,137.1z M62.2,47.9c0,18.7,0,37.3,0,55.9c1.7,0,3.2,0,4.7,0c0-18.7,0-37.2,0-55.9
			C65.3,47.9,63.9,47.9,62.2,47.9z"/>
		<path class="st1" d="M115.5,96.2c-4.9,0-9.7,0-14.6,0c-3.7,0-5.7-2-5.7-5.7c0-5.5,0.2-11,0.2-16.5c0-4.2-0.2-8.3-0.2-12.5
			c0-4.1,1.9-6,6-6c9.6,0,19.2,0,28.8,0c4,0,6,1.9,6,5.8c0,5.6-0.2,11.1-0.3,16.7c0,4.2,0.1,8.3,0.2,12.5c0.1,3.4-1.9,5.7-5.4,5.7
			C125.5,96.2,120.5,96.2,115.5,96.2z M130.8,91.1c0-10.3,0-20.3,0-30.4c-10.3,0-20.3,0-30.5,0c0,10.2,0,20.2,0,30.4
			C110.6,91.1,120.7,91.1,130.8,91.1z"/>
		<path class="st0" d="M64.7,136.9c-4.3,0-7.7-3.3-7.7-7.5c0-4.2,3.3-7.7,7.5-7.8c4.2-0.1,7.7,3.4,7.7,7.6
			C72.3,133.4,68.9,136.9,64.7,136.9z M67.5,129.9c0-0.3,0-0.7,0-1c-0.9-0.7-1.7-1.8-2.8-2c-1.4-0.3-2.5,0.7-2.6,2.2
			c-0.1,1.6,0.9,2.8,2.4,2.6C65.6,131.6,66.5,130.6,67.5,129.9z"/>
		<path class="st0" d="M64.5,30c-4.2,0-7.6-3.5-7.5-7.7c0.1-4.2,3.6-7.6,7.7-7.5c4.2,0.1,7.6,3.6,7.5,7.8C72.2,26.7,68.8,30,64.5,30
			z M67.5,22.7c0-0.3,0-0.7,0-1c-1-0.6-1.9-1.7-2.9-1.8c-1.5-0.2-2.4,0.9-2.4,2.4c-0.1,1.4,1.3,2.9,2.6,2.5
			C65.8,24.5,66.6,23.5,67.5,22.7z"/>
		<path class="st0" d="M174.1,129.4c0,4.2-3.4,7.5-7.7,7.5c-4.2,0-7.6-3.5-7.5-7.7c0.1-4.2,3.6-7.6,7.8-7.6
			C170.8,121.7,174.1,125.2,174.1,129.4z M169.4,129.8c0-0.3,0-0.7,0-1c-0.9-0.7-1.8-1.7-2.9-1.9c-1.4-0.2-2.4,0.8-2.5,2.4
			c0,1.6,1,2.8,2.5,2.5C167.6,131.6,168.4,130.5,169.4,129.8z"/>
		<path class="st0" d="M174.1,22.3c0,4.2-3.4,7.6-7.6,7.6c-4.2,0-7.6-3.4-7.7-7.6c0-4.2,3.4-7.7,7.6-7.7
			C170.6,14.7,174.1,18.1,174.1,22.3z M169.4,22.7c0-0.3,0-0.7,0-1c-1-0.6-1.9-1.7-2.9-1.8c-1.4-0.2-2.4,0.9-2.4,2.4
			c0,1.7,1.1,2.7,2.6,2.4C167.6,24.6,168.5,23.5,169.4,22.7z"/>
		<path class="st0" d="M100.8,14.4c0.7,1,1.7,1.9,1.9,2.9c0.2,1.4-0.8,2.4-2.4,2.5c-1.4,0.1-2.9-1.3-2.5-2.6c0.3-1,1.3-1.9,2-2.8
			C100.2,14.4,100.5,14.4,100.8,14.4z"/>
		<path class="st0" d="M130.4,20.2c-0.7-0.9-1.8-1.8-2-2.8c-0.3-1.5,0.8-2.4,2.3-2.6c1.4-0.1,3,1.2,2.6,2.5
			c-0.3,1.1-1.3,1.9-1.9,2.9C131,20.2,130.7,20.2,130.4,20.2z"/>
		<path class="st0" d="M92.9,17.9c-1,0.6-1.9,1.7-2.9,1.8c-1.6,0.2-2.5-1-2.4-2.6c0.1-1.5,1.2-2.6,2.6-2.3c1,0.2,1.9,1.3,2.8,2
			C93,17.2,93,17.5,92.9,17.9z"/>
		<path class="st0" d="M113.3,17.9c-1,0.6-1.9,1.7-2.9,1.8c-1.5,0.2-2.4-0.9-2.4-2.4c-0.1-1.5,1.3-2.9,2.6-2.5
			c1,0.3,1.9,1.4,2.8,2.1C113.3,17.2,113.3,17.6,113.3,17.9z"/>
		<path class="st0" d="M82.8,17.7c-0.9,0.7-1.7,1.8-2.8,2c-1.4,0.3-2.4-0.7-2.6-2.2c-0.2-1.5,1.1-3,2.4-2.7c1.1,0.2,2,1.2,2.9,1.9
			C82.8,17,82.8,17.3,82.8,17.7z"/>
		<path class="st0" d="M120.1,20.2c-0.7-0.9-1.7-1.8-1.9-2.8c-0.3-1.6,0.9-2.6,2.5-2.5c1.5,0,2.6,1,2.3,2.5c-0.2,1-1.2,1.9-1.9,2.9
			C120.8,20.2,120.5,20.2,120.1,20.2z"/>
		<path class="st0" d="M141.6,14.4c0.6,1,1.7,1.9,1.8,2.9c0.2,1.6-0.9,2.6-2.6,2.5c-1.6-0.1-2.5-1.1-2.3-2.6c0.2-1,1.3-1.9,1.9-2.8
			C140.9,14.4,141.2,14.4,141.6,14.4z"/>
		<path class="st0" d="M154.1,17.7c-0.9,0.7-1.8,1.8-2.8,2c-1.5,0.3-2.5-0.7-2.6-2.3c-0.1-1.7,0.9-2.8,2.5-2.6
			c1,0.1,1.9,1.2,2.9,1.9C154.1,17,154.1,17.4,154.1,17.7z"/>
		<path class="st0" d="M82.8,28c-0.9,0.7-1.8,1.7-2.9,1.9c-1.6,0.3-2.6-0.9-2.5-2.5c0-1.5,1-2.6,2.5-2.3c1,0.2,1.9,1.2,2.9,1.9
			C82.8,27.3,82.8,27.6,82.8,28z"/>
		<path class="st0" d="M90.6,24.6c0.7,0.9,1.7,1.8,1.9,2.8c0.3,1.6-0.9,2.6-2.5,2.5c-1.5,0-2.6-1-2.3-2.5c0.2-1,1.2-1.9,1.9-2.8
			C89.9,24.6,90.2,24.6,90.6,24.6z"/>
		<path class="st0" d="M111,24.6c0.6,1,1.7,1.9,1.8,2.9c0.2,1.5-0.9,2.4-2.4,2.5c-1.6,0-2.8-1-2.4-2.6c0.2-1,1.3-1.9,2-2.8
			C110.4,24.6,110.7,24.6,111,24.6z"/>
		<path class="st0" d="M120.1,30.3c-0.6-1-1.7-1.9-1.8-2.9c-0.2-1.5,0.8-2.5,2.4-2.5c1.6,0,2.8,1,2.5,2.6c-0.2,1-1.3,1.9-2,2.8
			C120.8,30.3,120.4,30.3,120.1,30.3z"/>
		<path class="st0" d="M143.9,28c-0.9,0.7-1.8,1.7-2.9,1.9c-1.5,0.3-2.5-0.8-2.5-2.3c0-1.6,0.9-2.8,2.5-2.5c1,0.2,1.9,1.2,2.9,1.9
			C143.9,27.3,143.9,27.6,143.9,28z"/>
		<path class="st0" d="M151.8,24.6c0.7,0.9,1.7,1.8,1.9,2.9c0.2,1.4-0.8,2.5-2.3,2.5c-1.6,0-2.8-1-2.5-2.5c0.2-1,1.3-1.9,1.9-2.8
			C151.1,24.6,151.4,24.6,151.8,24.6z"/>
		<path class="st0" d="M99.9,30.3c-0.7-0.9-1.8-1.7-2.1-2.8c-0.3-1.4,0.7-2.5,2.2-2.6c1.7-0.1,2.8,0.8,2.7,2.4
			c-0.1,1-1.2,1.9-1.8,2.9C100.6,30.3,100.2,30.3,99.9,30.3z"/>
		<path class="st0" d="M130.4,30.3c-0.7-0.9-1.8-1.7-2.1-2.8c-0.3-1.4,0.7-2.5,2.2-2.6c1.7-0.1,2.8,0.8,2.7,2.4
			c-0.1,1-1.2,1.9-1.8,2.9C131.1,30.3,130.8,30.3,130.4,30.3z"/>
		<path class="st0" d="M169.2,65.7c1.5,0,3,0,4.6,0c1.7,0,2.9,0.8,2.9,2.6c0,1.8-1.2,2.5-2.9,2.6c-3.2,0-6.4,0-9.6,0
			c-1.7,0-2.8-0.9-2.7-2.7c0.1-1.6,1.2-2.4,2.8-2.4C165.9,65.6,167.5,65.7,169.2,65.7z"/>
		<path class="st0" d="M169.1,52.9c1.6,0,3.2,0,4.8,0c1.6,0,2.7,0.8,2.7,2.5c0,1.6-1,2.5-2.6,2.6c-3.3,0.1-6.7,0.1-10,0
			c-1.6,0-2.6-0.9-2.6-2.6c0-1.6,1.1-2.5,2.7-2.5C165.8,52.9,167.5,52.9,169.1,52.9z"/>
		<path class="st0" d="M100.3,136.9c0-0.9-0.3-2,0.1-2.8c0.4-0.9,1.5-2.1,2.2-2.1c0.9,0,2.4,1.1,2.6,1.9c0.4,1.9,0.3,4.1,0,6
			c-0.1,0.8-1.6,2-2.4,1.9c-0.9-0.1-1.9-1.2-2.4-2.2C100,139,100.3,137.9,100.3,136.9L100.3,136.9z"/>
		<path class="st0" d="M95.1,136.8c0,0.9,0,1.7,0,2.6c-0.1,1.6-0.9,2.6-2.6,2.6c-1.5,0-2.4-1-2.4-2.5c-0.1-1.7-0.1-3.3,0-5
			c0.1-1.6,0.9-2.6,2.6-2.6c1.5,0,2.3,1,2.4,2.5C95.2,135.2,95.1,136,95.1,136.8z"/>
	</g>
	<g>
		<path class="st0" d="M392.6,55.5c0-1.1,0-1.9,0-2.8c0-13.1,0-26.2,0-39.3c0-6.1,2.9-8.9,9-8.9c39.8,0,79.6,0,119.4,0
			c6.4,0,9.1,2.8,9.1,9.2c0,8.8,0,17.6,0,26.4c0,0.8,0,1.6,0,2.3c0.3,0.2,0.4,0.3,0.6,0.3c6.2,0.5,7.1,1.5,7.1,7.6c0,8,0,16,0,24
			c0,4.9-1.5,6.5-6.5,6.6c-0.3,0-0.6,0.1-1.2,0.1c0,1,0,1.9,0,2.8c0,18,0,36.1,0,54.1c0,6.3-2.8,9.2-9.2,9.2c-7.8,0-15.7,0-23.9,0
			c0,1,0,1.8,0,2.6c-0.3,4.4-3.4,7.4-7.8,7.5c-4.8,0.1-9.6,0-14.4,0c-5.3,0-8.2-2.9-8.4-8.2c0-0.6-0.1-1.1-0.1-1.8
			c-1.7,0-3.2,0-4.8,0c-1,7.1-1.5,7.5-8.8,7.5c-6.8,0-13.7,0-20.5,0c-4.9,0-6.4-1.5-6.6-6.5c0-0.3-0.1-0.6-0.1-1.1
			c-0.8,0-1.6,0-2.3,0c-7.3,0-14.7,0-22,0c-5.5,0-8.5-3.1-8.5-8.5c0-13.2,0-26.3,0-39.5c0-0.9,0-1.7,0-2.9c-1,0-1.8,0-2.7,0
			c-2.8-0.2-4.9-2.1-4.9-4.9c-0.1-10.3-0.1-20.7,0-31c0-2.8,2.1-4.7,4.9-4.8C390.7,55.5,391.5,55.5,392.6,55.5z M418.1,93.7
			c1.6,0,3.1,0,4.5,0c1.7,0,2.9,0.6,3,2.5c0.1,1.9-1.2,2.7-3,2.7c-1.5,0-3,0-4.4,0c0,1.9,0,3.4,0,5.1c1.4,0,2.7,0,4,0
			c1.8,0,3.3,0.4,3.4,2.5c0.1,1.7-1.1,2.6-3.5,2.6c-5,0-10,0-15.1,0c-3.8,0-4.3-0.5-4.3-4.2c0-2.8,0-5.6,0-8.4c-1.9,0-3.4,0-5,0
			c0,0.4-0.1,0.8-0.1,1.1c0,13.8,0,27.6,0,41.5c0,2.2,0.9,3.1,3.3,3.1c7.7,0,15.4,0,23.1,0c0.5,0,1-0.1,1.6-0.2c0-5.7,0-11.3,0-16.9
			c0-3.8,2-5.8,5.8-5.8c8.1,0,16.2,0,24.2,0c3.7,0,5.7,2,5.7,5.7c0,4.9,0,9.9,0,14.8c0,0.8,0,1.5,0,2.3c1.9,0,3.4,0,5.1,0
			c0-0.9,0-1.7,0-2.4c0-10.8,0-21.5,0-32.3c0-4,1.8-5.8,5.9-5.9c6.1,0,12.2,0,18.3,0c4.6,0,6.3,1.8,6.3,6.3c0,10.6,0,21.2,0,31.9
			c0,0.8,0.1,1.6,0.1,2.5c0.8,0,1.4,0,2.1,0c7.3,0,14.6,0,21.8,0c3.3,0,4-0.7,4-3.9c0-18.3,0-36.7,0-55c0-0.7,0-1.4,0-2.2
			c-7.6,0-14.8,0-22,0c-4.2,0-6-1.8-6-5.9c0-8.7,0-17.5,0-26.2c0-4.3,1.8-6.1,6.1-6.1c6.5,0,12.9,0,19.4,0c0.8,0,1.5-0.1,2.4-0.2
			c0-1,0-1.7,0-2.4c0-8.8,0-17.6,0-26.4c0-3.5-0.6-4.1-4-4.1c-39.8,0-79.6,0-119.4,0c-3.3,0-4,0.6-4,3.9c0,13.2,0,26.3,0,39.5
			c0,0.8,0.1,1.5,0.1,2.3c1.8,0,3.3,0,5,0c0-3.2,0-6.3,0-9.4c0-2.3,0.8-3.1,2.9-3.2c5.7-0.1,11.3,0,17,0c1.7,0,2.9,0.7,2.9,2.6
			c0,1.8-1.2,2.5-2.9,2.5c-1.5,0-3,0-4.5,0c0,1.9,0,3.4,0,5.1c1.5,0,2.9,0,4.3,0c1.8,0,3.1,0.6,3.1,2.6c0,2-1.4,2.5-3.1,2.5
			c-1.4,0-2.8,0-4.2,0c0,1.9,0,3.5,0,5.1c1.6,0,2.9,0,4.3,0c1.8,0,3,0.7,3,2.6c0,1.8-1.3,2.5-2.9,2.5c-1.5,0-3,0-4.5,0
			c0,1.8,0,3.3,0,5.1c1.6,0,3.1,0,4.6,0c1.7,0,2.8,0.8,2.8,2.6c-0.1,1.7-1.2,2.4-2.8,2.4c-1.5,0-3,0-4.6,0c0,1.8,0,3.3,0,5.1
			c1.6,0,3,0,4.4,0c1.7,0,2.9,0.6,3,2.4c0.1,1.9-1.2,2.6-3,2.6c-1.5,0-3,0-4.5,0C418.1,90.4,418.1,91.9,418.1,93.7z M532.5,75.7
			c0-9.4,0-18.5,0-27.7c-10.2,0-20.2,0-30.3,0c0,9.3,0,18.4,0,27.7C512.3,75.7,522.3,75.7,532.5,75.7z M456.1,149.6
			c0-8.5,0-16.8,0-25.2c-8.5,0-16.8,0-25.2,0c0,8.5,0,16.8,0,25.2C439.3,149.6,447.6,149.6,456.1,149.6z M491.7,131.8
			c0-8.6,0-16.9,0-25.2c-6.8,0-13.4,0-20,0c0,8.5,0,16.8,0,25.2c2.6,0,4.9,0,7.4,0c0-0.7,0.1-1.3,0.1-1.8c0-2.7,0-5.4,0-8.1
			c0-1.6,0.9-2.6,2.6-2.6c1.6,0,2.4,1,2.5,2.5c0.1,1.1,0,2.2,0,3.3c0,2.3,0,4.6,0,6.8C487,131.8,489.3,131.8,491.7,131.8z M390.2,91
			c4.3,0,8.3,0,12.4,0c0-10.2,0-20.2,0-30.3c-4.2,0-8.3,0-12.4,0C390.2,70.8,390.2,80.8,390.2,91z M471.6,137.1
			c0,4.4-0.1,8.6,0.1,12.8c0,0.8,1.5,2.2,2.4,2.2c5.2,0.2,10.3,0.2,15.5,0c0.8,0,2.2-1.3,2.2-2.1c0.2-4.3,0.1-8.5,0.1-12.9
			C485.1,137.1,478.5,137.1,471.6,137.1z M408,47.9c0,18.7,0,37.3,0,55.9c1.7,0,3.2,0,4.7,0c0-18.7,0-37.2,0-55.9
			C411.1,47.9,409.7,47.9,408,47.9z"/>
		<path class="st1" d="M461.3,96.2c-4.9,0-9.7,0-14.6,0c-3.7,0-5.7-2-5.7-5.7c0-5.5,0.2-11,0.2-16.5c0-4.2-0.2-8.3-0.2-12.5
			c0-4.1,1.9-6,6-6c9.6,0,19.2,0,28.8,0c4,0,6,1.9,6,5.8c0,5.6-0.2,11.1-0.3,16.7c0,4.2,0.1,8.3,0.2,12.5c0.1,3.4-1.9,5.7-5.4,5.7
			C471.3,96.2,466.3,96.2,461.3,96.2z M476.6,91.1c0-10.3,0-20.3,0-30.4c-10.3,0-20.3,0-30.5,0c0,10.2,0,20.2,0,30.4
			C456.4,91.1,466.5,91.1,476.6,91.1z"/>
		<path class="st0" d="M410.5,136.9c-4.3,0-7.7-3.3-7.7-7.5c0-4.2,3.3-7.7,7.5-7.8c4.2-0.1,7.7,3.4,7.7,7.6
			C418.1,133.4,414.7,136.9,410.5,136.9z M413.3,129.9c0-0.3,0-0.7,0-1c-0.9-0.7-1.7-1.8-2.8-2c-1.4-0.3-2.5,0.7-2.6,2.2
			c-0.1,1.6,0.9,2.8,2.4,2.6C411.4,131.6,412.3,130.6,413.3,129.9z"/>
		<path class="st0" d="M410.3,30c-4.2,0-7.6-3.5-7.5-7.7c0.1-4.2,3.6-7.6,7.7-7.5c4.2,0.1,7.6,3.6,7.5,7.8
			C418,26.7,414.6,30,410.3,30z M413.3,22.7c0-0.3,0-0.7,0-1c-1-0.6-1.9-1.7-2.9-1.8c-1.5-0.2-2.4,0.9-2.4,2.4
			c-0.1,1.4,1.3,2.9,2.6,2.5C411.6,24.5,412.4,23.5,413.3,22.7z"/>
		<path class="st0" d="M519.9,129.4c0,4.2-3.4,7.5-7.7,7.5c-4.2,0-7.6-3.5-7.5-7.7c0.1-4.2,3.6-7.6,7.8-7.6
			C516.6,121.7,519.9,125.2,519.9,129.4z M515.1,129.8c0-0.3,0-0.7,0-1c-0.9-0.7-1.8-1.7-2.9-1.9c-1.4-0.2-2.4,0.8-2.5,2.4
			c0,1.6,1,2.8,2.5,2.5C513.4,131.6,514.2,130.5,515.1,129.8z"/>
		<path class="st0" d="M519.9,22.3c0,4.2-3.4,7.6-7.6,7.6c-4.2,0-7.6-3.4-7.7-7.6c0-4.2,3.4-7.7,7.6-7.7
			C516.4,14.7,519.9,18.1,519.9,22.3z M515.2,22.7c0-0.3,0-0.7,0-1c-1-0.6-1.9-1.7-2.9-1.8c-1.4-0.2-2.4,0.9-2.4,2.4
			c0,1.7,1.1,2.7,2.6,2.4C513.4,24.6,514.3,23.5,515.2,22.7z"/>
		<path class="st0" d="M446.6,14.4c0.7,1,1.7,1.9,1.9,2.9c0.2,1.4-0.8,2.4-2.4,2.5c-1.4,0.1-2.9-1.3-2.5-2.6c0.3-1,1.3-1.9,2-2.8
			C446,14.4,446.3,14.4,446.6,14.4z"/>
		<path class="st0" d="M476.1,20.2c-0.7-0.9-1.8-1.8-2-2.8c-0.3-1.5,0.8-2.4,2.3-2.6c1.4-0.1,3,1.2,2.6,2.5
			c-0.3,1.1-1.3,1.9-1.9,2.9C476.8,20.2,476.5,20.2,476.1,20.2z"/>
		<path class="st0" d="M438.7,17.9c-1,0.6-1.9,1.7-2.9,1.8c-1.6,0.2-2.5-1-2.4-2.6c0.1-1.5,1.2-2.6,2.6-2.3c1,0.2,1.9,1.3,2.8,2
			C438.8,17.2,438.8,17.5,438.7,17.9z"/>
		<path class="st0" d="M459.1,17.9c-1,0.6-1.9,1.7-2.9,1.8c-1.5,0.2-2.4-0.9-2.4-2.4c-0.1-1.5,1.3-2.9,2.6-2.5
			c1,0.3,1.9,1.4,2.8,2.1C459.1,17.2,459.1,17.6,459.1,17.9z"/>
		<path class="st0" d="M428.6,17.7c-0.9,0.7-1.7,1.8-2.8,2c-1.4,0.3-2.4-0.7-2.6-2.2c-0.2-1.5,1.1-3,2.4-2.7c1.1,0.2,2,1.2,2.9,1.9
			C428.6,17,428.6,17.3,428.6,17.7z"/>
		<path class="st0" d="M465.9,20.2c-0.7-0.9-1.7-1.8-1.9-2.8c-0.3-1.6,0.9-2.6,2.5-2.5c1.5,0,2.6,1,2.3,2.5c-0.2,1-1.2,1.9-1.9,2.9
			C466.6,20.2,466.3,20.2,465.9,20.2z"/>
		<path class="st0" d="M487.4,14.4c0.6,1,1.7,1.9,1.8,2.9c0.2,1.6-0.9,2.6-2.6,2.5c-1.6-0.1-2.5-1.1-2.3-2.6c0.2-1,1.3-1.9,1.9-2.8
			C486.7,14.4,487,14.4,487.4,14.4z"/>
		<path class="st0" d="M499.9,17.7c-0.9,0.7-1.8,1.8-2.8,2c-1.5,0.3-2.5-0.7-2.6-2.3c-0.1-1.7,0.9-2.8,2.5-2.6
			c1,0.1,1.9,1.2,2.9,1.9C499.9,17,499.9,17.4,499.9,17.7z"/>
		<path class="st0" d="M428.6,28c-0.9,0.7-1.8,1.7-2.9,1.9c-1.6,0.3-2.6-0.9-2.5-2.5c0-1.5,1-2.6,2.5-2.3c1,0.2,1.9,1.2,2.9,1.9
			C428.6,27.3,428.6,27.6,428.6,28z"/>
		<path class="st0" d="M436.4,24.6c0.7,0.9,1.7,1.8,1.9,2.8c0.3,1.6-0.9,2.6-2.5,2.5c-1.5,0-2.6-1-2.3-2.5c0.2-1,1.2-1.9,1.9-2.8
			C435.7,24.6,436,24.6,436.4,24.6z"/>
		<path class="st0" d="M456.8,24.6c0.6,1,1.7,1.9,1.8,2.9c0.2,1.5-0.9,2.4-2.4,2.5c-1.6,0-2.8-1-2.4-2.6c0.2-1,1.3-1.9,2-2.8
			C456.2,24.6,456.5,24.6,456.8,24.6z"/>
		<path class="st0" d="M465.9,30.3c-0.6-1-1.7-1.9-1.8-2.9c-0.2-1.5,0.8-2.5,2.4-2.5c1.6,0,2.8,1,2.5,2.6c-0.2,1-1.3,1.9-2,2.8
			C466.5,30.3,466.2,30.3,465.9,30.3z"/>
		<path class="st0" d="M489.7,28c-0.9,0.7-1.8,1.7-2.9,1.9c-1.5,0.3-2.5-0.8-2.5-2.3c0-1.6,0.9-2.8,2.5-2.5c1,0.2,1.9,1.2,2.9,1.9
			C489.7,27.3,489.7,27.6,489.7,28z"/>
		<path class="st0" d="M497.5,24.6c0.7,0.9,1.7,1.8,1.9,2.9c0.2,1.4-0.8,2.5-2.3,2.5c-1.6,0-2.8-1-2.5-2.5c0.2-1,1.3-1.9,1.9-2.8
			C496.9,24.6,497.2,24.6,497.5,24.6z"/>
		<path class="st0" d="M445.7,30.3c-0.7-0.9-1.8-1.7-2.1-2.8c-0.3-1.4,0.7-2.5,2.2-2.6c1.7-0.1,2.8,0.8,2.7,2.4
			c-0.1,1-1.2,1.9-1.8,2.9C446.4,30.3,446,30.3,445.7,30.3z"/>
		<path class="st0" d="M476.2,30.3c-0.7-0.9-1.8-1.7-2.1-2.8c-0.3-1.4,0.7-2.5,2.2-2.6c1.7-0.1,2.8,0.8,2.7,2.4
			c-0.1,1-1.2,1.9-1.8,2.9C476.9,30.3,476.6,30.3,476.2,30.3z"/>
		<path class="st0" d="M515,65.7c1.5,0,3,0,4.6,0c1.7,0,2.9,0.8,2.9,2.6c0,1.8-1.2,2.5-2.9,2.6c-3.2,0-6.4,0-9.6,0
			c-1.7,0-2.8-0.9-2.7-2.7c0.1-1.6,1.2-2.4,2.8-2.4C511.7,65.6,513.3,65.7,515,65.7z"/>
		<path class="st0" d="M514.9,52.9c1.6,0,3.2,0,4.8,0c1.6,0,2.7,0.8,2.7,2.5c0,1.6-1,2.5-2.6,2.6c-3.3,0.1-6.7,0.1-10,0
			c-1.6,0-2.6-0.9-2.6-2.6c0-1.6,1.1-2.5,2.7-2.5C511.6,52.9,513.3,52.9,514.9,52.9z"/>
		<path class="st0" d="M446.1,136.9c0-0.9-0.3-2,0.1-2.8c0.4-0.9,1.5-2.1,2.2-2.1c0.9,0,2.4,1.1,2.6,1.9c0.4,1.9,0.3,4.1,0,6
			c-0.1,0.8-1.6,2-2.4,1.9c-0.9-0.1-1.9-1.2-2.4-2.2C445.8,139,446.1,137.9,446.1,136.9L446.1,136.9z"/>
		<path class="st0" d="M440.9,136.8c0,0.9,0,1.7,0,2.6c-0.1,1.6-0.9,2.6-2.6,2.6c-1.5,0-2.4-1-2.4-2.5c-0.1-1.7-0.1-3.3,0-5
			c0.1-1.6,0.9-2.6,2.6-2.6c1.5,0,2.3,1,2.4,2.5C441,135.2,440.9,136,440.9,136.8z"/>
	</g>
	<g>
		<path class="st0" d="M735.8,55.5c0-1.1,0-1.9,0-2.8c0-13.1,0-26.2,0-39.3c0-6.1,2.9-8.9,9-8.9c39.8,0,79.6,0,119.4,0
			c6.4,0,9.1,2.8,9.1,9.2c0,8.8,0,17.6,0,26.4c0,0.8,0,1.6,0,2.3c0.3,0.2,0.4,0.3,0.6,0.3c6.2,0.5,7.1,1.5,7.1,7.6c0,8,0,16,0,24
			c0,4.9-1.5,6.5-6.5,6.6c-0.3,0-0.6,0.1-1.2,0.1c0,1,0,1.9,0,2.8c0,18,0,36.1,0,54.1c0,6.3-2.8,9.2-9.2,9.2c-7.8,0-15.7,0-23.9,0
			c0,1,0,1.8,0,2.6c-0.3,4.4-3.4,7.4-7.8,7.5c-4.8,0.1-9.6,0-14.4,0c-5.3,0-8.2-2.9-8.4-8.2c0-0.6-0.1-1.1-0.1-1.8
			c-1.7,0-3.2,0-4.8,0c-1,7.1-1.5,7.5-8.8,7.5c-6.8,0-13.7,0-20.5,0c-4.9,0-6.4-1.5-6.6-6.5c0-0.3-0.1-0.6-0.1-1.1
			c-0.8,0-1.6,0-2.3,0c-7.3,0-14.7,0-22,0c-5.5,0-8.5-3.1-8.5-8.5c0-13.2,0-26.3,0-39.5c0-0.9,0-1.7,0-2.9c-1,0-1.8,0-2.7,0
			c-2.8-0.2-4.9-2.1-4.9-4.9c-0.1-10.3-0.1-20.7,0-31c0-2.8,2.1-4.7,4.9-4.8C733.9,55.5,734.6,55.5,735.8,55.5z M761.3,93.7
			c1.6,0,3.1,0,4.5,0c1.7,0,2.9,0.6,3,2.5c0.1,1.9-1.2,2.7-3,2.7c-1.5,0-3,0-4.4,0c0,1.9,0,3.4,0,5.1c1.4,0,2.7,0,4,0
			c1.8,0,3.3,0.4,3.4,2.5c0.1,1.7-1.1,2.6-3.5,2.6c-5,0-10,0-15.1,0c-3.8,0-4.3-0.5-4.3-4.2c0-2.8,0-5.6,0-8.4c-1.9,0-3.4,0-5,0
			c0,0.4-0.1,0.8-0.1,1.1c0,13.8,0,27.6,0,41.5c0,2.2,0.9,3.1,3.3,3.1c7.7,0,15.4,0,23.1,0c0.5,0,1-0.1,1.6-0.2c0-5.7,0-11.3,0-16.9
			c0-3.8,2-5.8,5.8-5.8c8.1,0,16.2,0,24.2,0c3.7,0,5.7,2,5.7,5.7c0,4.9,0,9.9,0,14.8c0,0.8,0,1.5,0,2.3c1.9,0,3.4,0,5.1,0
			c0-0.9,0-1.7,0-2.4c0-10.8,0-21.5,0-32.3c0-4,1.8-5.8,5.9-5.9c6.1,0,12.2,0,18.3,0c4.6,0,6.3,1.8,6.3,6.3c0,10.6,0,21.2,0,31.9
			c0,0.8,0.1,1.6,0.1,2.5c0.8,0,1.4,0,2.1,0c7.3,0,14.6,0,21.8,0c3.3,0,4-0.7,4-3.9c0-18.3,0-36.7,0-55c0-0.7,0-1.4,0-2.2
			c-7.6,0-14.8,0-22,0c-4.2,0-6-1.8-6-5.9c0-8.7,0-17.5,0-26.2c0-4.3,1.8-6.1,6.1-6.1c6.5,0,12.9,0,19.4,0c0.8,0,1.5-0.1,2.4-0.2
			c0-1,0-1.7,0-2.4c0-8.8,0-17.6,0-26.4c0-3.5-0.6-4.1-4-4.1c-39.8,0-79.6,0-119.4,0c-3.3,0-4,0.6-4,3.9c0,13.2,0,26.3,0,39.5
			c0,0.8,0.1,1.5,0.1,2.3c1.8,0,3.3,0,5,0c0-3.2,0-6.3,0-9.4c0-2.3,0.8-3.1,2.9-3.2c5.7-0.1,11.3,0,17,0c1.7,0,2.9,0.7,2.9,2.6
			c0,1.8-1.2,2.5-2.9,2.5c-1.5,0-3,0-4.5,0c0,1.9,0,3.4,0,5.1c1.5,0,2.9,0,4.3,0c1.8,0,3.1,0.6,3.1,2.6c0,2-1.4,2.5-3.1,2.5
			c-1.4,0-2.8,0-4.2,0c0,1.9,0,3.5,0,5.1c1.6,0,2.9,0,4.3,0c1.8,0,3,0.7,3,2.6c0,1.8-1.3,2.5-2.9,2.5c-1.5,0-3,0-4.5,0
			c0,1.8,0,3.3,0,5.1c1.6,0,3.1,0,4.6,0c1.7,0,2.8,0.8,2.8,2.6c-0.1,1.7-1.2,2.4-2.8,2.4c-1.5,0-3,0-4.6,0c0,1.8,0,3.3,0,5.1
			c1.6,0,3,0,4.4,0c1.7,0,2.9,0.6,3,2.4c0.1,1.9-1.2,2.6-3,2.6c-1.5,0-3,0-4.5,0C761.3,90.4,761.3,91.9,761.3,93.7z M875.7,75.7
			c0-9.4,0-18.5,0-27.7c-10.2,0-20.2,0-30.3,0c0,9.3,0,18.4,0,27.7C855.5,75.7,865.5,75.7,875.7,75.7z M799.3,149.6
			c0-8.5,0-16.8,0-25.2c-8.5,0-16.8,0-25.2,0c0,8.5,0,16.8,0,25.2C782.5,149.6,790.8,149.6,799.3,149.6z M834.9,131.8
			c0-8.6,0-16.9,0-25.2c-6.8,0-13.4,0-20,0c0,8.5,0,16.8,0,25.2c2.6,0,4.9,0,7.4,0c0-0.7,0.1-1.3,0.1-1.8c0-2.7,0-5.4,0-8.1
			c0-1.6,0.9-2.6,2.6-2.6c1.6,0,2.4,1,2.5,2.5c0.1,1.1,0,2.2,0,3.3c0,2.3,0,4.6,0,6.8C830.2,131.8,832.5,131.8,834.9,131.8z
			 M733.3,91c4.3,0,8.3,0,12.4,0c0-10.2,0-20.2,0-30.3c-4.2,0-8.3,0-12.4,0C733.3,70.8,733.3,80.8,733.3,91z M814.7,137.1
			c0,4.4-0.1,8.6,0.1,12.8c0,0.8,1.5,2.2,2.4,2.2c5.2,0.2,10.3,0.2,15.5,0c0.8,0,2.2-1.3,2.2-2.1c0.2-4.3,0.1-8.5,0.1-12.9
			C828.2,137.1,821.6,137.1,814.7,137.1z M751.2,47.9c0,18.7,0,37.3,0,55.9c1.7,0,3.2,0,4.7,0c0-18.7,0-37.2,0-55.9
			C754.3,47.9,752.9,47.9,751.2,47.9z"/>
		<path class="st1" d="M804.4,96.2c-4.9,0-9.7,0-14.6,0c-3.7,0-5.7-2-5.7-5.7c0-5.5,0.2-11,0.2-16.5c0-4.2-0.2-8.3-0.2-12.5
			c0-4.1,1.9-6,6-6c9.6,0,19.2,0,28.8,0c4,0,6,1.9,6,5.8c0,5.6-0.2,11.1-0.3,16.7c0,4.2,0.1,8.3,0.2,12.5c0.1,3.4-1.9,5.7-5.4,5.7
			C814.5,96.2,809.5,96.2,804.4,96.2z M819.7,91.1c0-10.3,0-20.3,0-30.4c-10.3,0-20.3,0-30.5,0c0,10.2,0,20.2,0,30.4
			C799.6,91.1,809.6,91.1,819.7,91.1z"/>
		<path class="st0" d="M753.7,136.9c-4.3,0-7.7-3.3-7.7-7.5c0-4.2,3.3-7.7,7.5-7.8c4.2-0.1,7.7,3.4,7.7,7.6
			C761.3,133.4,757.9,136.9,753.7,136.9z M756.4,129.9c0-0.3,0-0.7,0-1c-0.9-0.7-1.7-1.8-2.8-2c-1.4-0.3-2.5,0.7-2.6,2.2
			c-0.1,1.6,0.9,2.8,2.4,2.6C754.6,131.6,755.5,130.6,756.4,129.9z"/>
		<path class="st0" d="M753.5,30c-4.2,0-7.6-3.5-7.5-7.7c0.1-4.2,3.6-7.6,7.7-7.5c4.2,0.1,7.6,3.6,7.5,7.8
			C761.2,26.7,757.7,30,753.5,30z M756.5,22.7c0-0.3,0-0.7,0-1c-1-0.6-1.9-1.7-2.9-1.8c-1.5-0.2-2.4,0.9-2.4,2.4
			c-0.1,1.4,1.3,2.9,2.6,2.5C754.7,24.5,755.6,23.5,756.5,22.7z"/>
		<path class="st0" d="M863.1,129.4c0,4.2-3.4,7.5-7.7,7.5c-4.2,0-7.6-3.5-7.5-7.7c0.1-4.2,3.6-7.6,7.8-7.6
			C859.8,121.7,863.1,125.2,863.1,129.4z M858.3,129.8c0-0.3,0-0.7,0-1c-0.9-0.7-1.8-1.7-2.9-1.9c-1.4-0.2-2.4,0.8-2.5,2.4
			c0,1.6,1,2.8,2.5,2.5C856.5,131.6,857.4,130.5,858.3,129.8z"/>
		<path class="st0" d="M863.1,22.3c0,4.2-3.4,7.6-7.6,7.6c-4.2,0-7.6-3.4-7.7-7.6c0-4.2,3.4-7.7,7.6-7.7
			C859.6,14.7,863,18.1,863.1,22.3z M858.3,22.7c0-0.3,0-0.7,0-1c-1-0.6-1.9-1.7-2.9-1.8c-1.4-0.2-2.4,0.9-2.4,2.4
			c0,1.7,1.1,2.7,2.6,2.4C856.6,24.6,857.4,23.5,858.3,22.7z"/>
		<path class="st0" d="M789.8,14.4c0.7,1,1.7,1.9,1.9,2.9c0.2,1.4-0.8,2.4-2.4,2.5c-1.4,0.1-2.9-1.3-2.5-2.6c0.3-1,1.3-1.9,2-2.8
			C789.1,14.4,789.5,14.4,789.8,14.4z"/>
		<path class="st0" d="M819.3,20.2c-0.7-0.9-1.8-1.8-2-2.8c-0.3-1.5,0.8-2.4,2.3-2.6c1.4-0.1,3,1.2,2.6,2.5
			c-0.3,1.1-1.3,1.9-1.9,2.9C820,20.2,819.7,20.2,819.3,20.2z"/>
		<path class="st0" d="M781.9,17.9c-1,0.6-1.9,1.7-2.9,1.8c-1.6,0.2-2.5-1-2.4-2.6c0.1-1.5,1.2-2.6,2.6-2.3c1,0.2,1.9,1.3,2.8,2
			C781.9,17.2,781.9,17.5,781.9,17.9z"/>
		<path class="st0" d="M802.3,17.9c-1,0.6-1.9,1.7-2.9,1.8c-1.5,0.2-2.4-0.9-2.4-2.4c-0.1-1.5,1.3-2.9,2.6-2.5
			c1,0.3,1.9,1.4,2.8,2.1C802.3,17.2,802.3,17.6,802.3,17.9z"/>
		<path class="st0" d="M771.8,17.7c-0.9,0.7-1.7,1.8-2.8,2c-1.4,0.3-2.4-0.7-2.6-2.2c-0.2-1.5,1.1-3,2.4-2.7c1.1,0.2,2,1.2,2.9,1.9
			C771.7,17,771.7,17.3,771.8,17.7z"/>
		<path class="st0" d="M809.1,20.2c-0.7-0.9-1.7-1.8-1.9-2.8c-0.3-1.6,0.9-2.6,2.5-2.5c1.5,0,2.6,1,2.3,2.5c-0.2,1-1.2,1.9-1.9,2.9
			C809.8,20.2,809.4,20.2,809.1,20.2z"/>
		<path class="st0" d="M830.6,14.4c0.6,1,1.7,1.9,1.8,2.9c0.2,1.6-0.9,2.6-2.6,2.5c-1.6-0.1-2.5-1.1-2.3-2.6c0.2-1,1.3-1.9,1.9-2.8
			C829.9,14.4,830.2,14.4,830.6,14.4z"/>
		<path class="st0" d="M843.1,17.7c-0.9,0.7-1.8,1.8-2.8,2c-1.5,0.3-2.5-0.7-2.6-2.3c-0.1-1.7,0.9-2.8,2.5-2.6
			c1,0.1,1.9,1.2,2.9,1.9C843,17,843,17.4,843.1,17.7z"/>
		<path class="st0" d="M771.7,28c-0.9,0.7-1.8,1.7-2.9,1.9c-1.6,0.3-2.6-0.9-2.5-2.5c0-1.5,1-2.6,2.5-2.3c1,0.2,1.9,1.2,2.9,1.9
			C771.7,27.3,771.7,27.6,771.7,28z"/>
		<path class="st0" d="M779.5,24.6c0.7,0.9,1.7,1.8,1.9,2.8c0.3,1.6-0.9,2.6-2.5,2.5c-1.5,0-2.6-1-2.3-2.5c0.2-1,1.2-1.9,1.9-2.8
			C778.8,24.6,779.2,24.6,779.5,24.6z"/>
		<path class="st0" d="M800,24.6c0.6,1,1.7,1.9,1.8,2.9c0.2,1.5-0.9,2.4-2.4,2.5c-1.6,0-2.8-1-2.4-2.6c0.2-1,1.3-1.9,2-2.8
			C799.3,24.6,799.7,24.6,800,24.6z"/>
		<path class="st0" d="M809,30.3c-0.6-1-1.7-1.9-1.8-2.9c-0.2-1.5,0.8-2.5,2.4-2.5c1.6,0,2.8,1,2.5,2.6c-0.2,1-1.3,1.9-2,2.8
			C809.7,30.3,809.4,30.3,809,30.3z"/>
		<path class="st0" d="M832.9,28c-0.9,0.7-1.8,1.7-2.9,1.9c-1.5,0.3-2.5-0.8-2.5-2.3c0-1.6,0.9-2.8,2.5-2.5c1,0.2,1.9,1.2,2.9,1.9
			C832.9,27.3,832.9,27.6,832.9,28z"/>
		<path class="st0" d="M840.7,24.6c0.7,0.9,1.7,1.8,1.9,2.9c0.2,1.4-0.8,2.5-2.3,2.5c-1.6,0-2.8-1-2.5-2.5c0.2-1,1.3-1.9,1.9-2.8
			C840,24.6,840.4,24.6,840.7,24.6z"/>
		<path class="st0" d="M788.8,30.3c-0.7-0.9-1.8-1.7-2.1-2.8c-0.3-1.4,0.7-2.5,2.2-2.6c1.7-0.1,2.8,0.8,2.7,2.4
			c-0.1,1-1.2,1.9-1.8,2.9C789.5,30.3,789.2,30.3,788.8,30.3z"/>
		<path class="st0" d="M819.4,30.3c-0.7-0.9-1.8-1.7-2.1-2.8c-0.3-1.4,0.7-2.5,2.2-2.6c1.7-0.1,2.8,0.8,2.7,2.4
			c-0.1,1-1.2,1.9-1.8,2.9C820.1,30.3,819.7,30.3,819.4,30.3z"/>
		<path class="st0" d="M858.2,65.7c1.5,0,3,0,4.6,0c1.7,0,2.9,0.8,2.9,2.6c0,1.8-1.2,2.5-2.9,2.6c-3.2,0-6.4,0-9.6,0
			c-1.7,0-2.8-0.9-2.7-2.7c0.1-1.6,1.2-2.4,2.8-2.4C854.8,65.6,856.5,65.7,858.2,65.7z"/>
		<path class="st0" d="M858.1,52.9c1.6,0,3.2,0,4.8,0c1.6,0,2.7,0.8,2.7,2.5c0,1.6-1,2.5-2.6,2.6c-3.3,0.1-6.7,0.1-10,0
			c-1.6,0-2.6-0.9-2.6-2.6c0-1.6,1.1-2.5,2.7-2.5C854.8,52.9,856.4,52.9,858.1,52.9z"/>
		<path class="st0" d="M789.3,136.9c0-0.9-0.3-2,0.1-2.8c0.4-0.9,1.5-2.1,2.2-2.1c0.9,0,2.4,1.1,2.6,1.9c0.4,1.9,0.3,4.1,0,6
			c-0.1,0.8-1.6,2-2.4,1.9c-0.9-0.1-1.9-1.2-2.4-2.2C788.9,139,789.3,137.9,789.3,136.9L789.3,136.9z"/>
		<path class="st0" d="M784.1,136.8c0,0.9,0,1.7,0,2.6c-0.1,1.6-0.9,2.6-2.6,2.6c-1.5,0-2.4-1-2.4-2.5c-0.1-1.7-0.1-3.3,0-5
			c0.1-1.6,0.9-2.6,2.6-2.6c1.5,0,2.3,1,2.4,2.5C784.1,135.2,784.1,136,784.1,136.8z"/>
	</g>
	<g>
		<g>
			<path class="st0" d="M478.3,266.7c4.5-0.8,7.1,5.1,3.3,7.8c-0.8,0.6-1,1.8-0.4,2.6s1.8,1,2.6,0.4c4.5-3.2,4.5-10-0.1-13.2
				c-5.9-4.1-13.8,1-12.6,8c0.4,2.5,2,4.5,4.2,5.7c0.9,0.5,2,0.1,2.5-0.8c0.5-0.9,0.1-2-0.8-2.5
				C473.4,272.9,474.3,267.5,478.3,266.7z"/>
			<path class="st1" d="M423.5,299.2c0,4.9,4,8.8,8.8,8.8s8.8-4,8.8-8.8s-4-8.8-8.8-8.8S423.5,294.4,423.5,299.2z M427.2,299.2
				c0-2.8,2.3-5.1,5.1-5.1c2.8,0,5.1,2.3,5.1,5.1c0,2.8-2.3,5.1-5.1,5.1C429.5,304.3,427.2,302,427.2,299.2z"/>
			<path class="st0" d="M481.7,289.1c1.4,0,2.6,1.1,2.6,2.6c0,1.4-1.1,2.6-2.6,2.6c-1.4,0-2.6-1.1-2.6-2.6
				C479.2,290.2,480.3,289.1,481.7,289.1z"/>
			<path class="st0" d="M432.3,258.9c-0.8,0.1-1.6,0.3-2.4,0.5l-3.6,1.1c-12.4,4.5-20.8,15.8-21.9,28.5c-0.6,9.4-1.5,11-0.3,13.6
				h-7.8c-2,0-3.7-1.1-4.4-2.8c-2.8-6.6,10.9-17.1,3.5-26.5c-2-2.5-5-4-8.2-4c-1,0-1.9,0.8-1.9,1.9c0,1,0.8,1.9,1.9,1.9
				c4.3,0,7.5,4,6.5,8.2c-1.6,6.9-8,13.5-5.3,20c1.3,3.1,4.4,5.1,7.9,5.1h21c6,12.7,24.1,12.7,30.1,0h10.8c1,0,1.9-0.8,1.9-1.9
				c0-1-0.8-1.9-1.9-1.9h-9.6c2.2-10.4-5.8-20.1-16.3-20.1h0c-10.6,0-18.5,9.7-16.3,20.1h-6c-1.6,0-2.9-1.4-2.7-3l0.9-10.3
				c1.5-17.4,17.5-29.6,34.5-26.7c7.2,1.2,14.2,3.1,21,5.8c-1.3,6.6,1.7,13.5,8.1,16.9c0.8,0.4,1.8,0.2,2.3-0.5
				c0.7-0.9,0.4-2.3-0.6-2.8c-10.1-5.4-7.6-20.5,3.5-22.5c6.5-1.2,12.8,3.2,13.9,9.8c0.8,4.5-1.1,9.2-4.8,11.9
				c-1.2,0.9-1,2.7,0.4,3.2c1.2,0.5,2.1-0.4,3.3-1.4c6.7,5.1,12.9,11,18.2,17.6c0.7,0.8,0.1,2.1-1,2.1h-41.9c-1,0-1.9,0.8-1.9,1.9
				c0,1,0.8,1.9,1.9,1.9h5.9c0,5.3,4.2,9.5,9.5,9.5c5.2,0,9.5-4.3,9.5-9.5h17.1c4.2,0,6.5-4.9,3.9-8.1c-5.5-6.7-11.8-12.8-18.7-18.1
				c7.7-11.5-2.2-26.7-15.8-24.3c-5.2,0.9-9.5,4.3-11.6,9c-7.6-2.9-20.6-6.7-28.8-6.3L432.3,258.9z M486.3,306.3
				c0,3.2-2.6,5.8-5.8,5.8c-3.2,0-5.8-2.6-5.8-5.8H486.3z M420.1,303.6c-3-8.4,3.2-17.3,12.2-17.3c6.3,0,11.6,4.6,12.7,10.6
				c1.5,7.9-4.6,15.3-12.7,15.3C426.7,312.2,421.9,308.6,420.1,303.6z"/>
		</g>
		<polyline class="st2" points="382.1,286.6 372,286.6 338.3,320.2 420.4,320.2 383.1,357.5 446,357.5 483.5,319.9 549.7,319.9 
			581.4,288.2 511.9,288.2 559.6,240.4 495.2,240.4 484.3,251.3 		"/>
		<line class="st3" x1="483.5" y1="330.8" x2="483.5" y2="366.6"/>
		<line class="st3" x1="446" y1="365.3" x2="446" y2="405.5"/>
		<line class="st3" x1="383.1" y1="365.3" x2="383.1" y2="405.5"/>
		<line class="st3" x1="338.3" y1="328.7" x2="338.3" y2="366.6"/>
		<line class="st3" x1="549.7" y1="330.8" x2="549.7" y2="366.6"/>
		<line class="st3" x1="581.4" y1="299.2" x2="581.4" y2="335.8"/>
		<line class="st3" x1="559.6" y1="250.1" x2="559.6" y2="278.4"/>
		<line class="st3" x1="453.1" y1="397.9" x2="478.1" y2="372.8"/>
		<line class="st3" x1="452.5" y1="381.6" x2="478.1" y2="356"/>
		<line class="st3" x1="453.2" y1="364.7" x2="478.1" y2="339.8"/>
		<line class="st3" x1="555.2" y1="360.3" x2="576" y2="339.5"/>
		<line class="st3" x1="555.2" y1="345.8" x2="576.6" y2="324.4"/>
		<line class="st3" x1="555.2" y1="330.6" x2="575.9" y2="309.9"/>
		<line class="st3" x1="552.6" y1="259.4" x2="530.4" y2="281.6"/>
		<line class="st3" x1="552.6" y1="270.7" x2="540.4" y2="282.9"/>
	</g>
	<g>
		<g>
			<path class="st0" d="M817.1,280.2c4.5-0.8,7.1,5.1,3.3,7.8c-0.8,0.6-1,1.8-0.4,2.6s1.8,1,2.6,0.4c4.5-3.2,4.5-10-0.1-13.2
				c-5.9-4.1-13.8,1-12.6,8c0.4,2.5,2,4.5,4.2,5.7c0.9,0.5,2,0.1,2.5-0.8c0.5-0.9,0.1-2-0.8-2.5C812.1,286.4,813,280.9,817.1,280.2z
				"/>
			<path class="st1" d="M762.2,312.7c0,4.9,4,8.8,8.8,8.8s8.8-4,8.8-8.8s-4-8.8-8.8-8.8S762.2,307.8,762.2,312.7z M765.9,312.7
				c0-2.8,2.3-5.1,5.1-5.1c2.8,0,5.1,2.3,5.1,5.1c0,2.8-2.3,5.1-5.1,5.1C768.2,317.8,765.9,315.5,765.9,312.7z"/>
			<path class="st0" d="M820.5,302.5c1.4,0,2.6,1.1,2.6,2.6c0,1.4-1.1,2.6-2.6,2.6c-1.4,0-2.6-1.1-2.6-2.6
				C817.9,303.7,819,302.5,820.5,302.5z"/>
			<path class="st0" d="M771,272.4c-0.8,0.1-1.6,0.3-2.4,0.5l-3.6,1.1c-12.4,4.5-20.8,15.8-21.9,28.5c-0.6,9.4-1.5,11-0.3,13.6H735
				c-2,0-3.7-1.1-4.4-2.8c-2.8-6.6,10.9-17.1,3.5-26.5c-2-2.5-5-4-8.2-4c-1,0-1.9,0.8-1.9,1.9c0,1,0.8,1.9,1.9,1.9
				c4.3,0,7.5,4,6.5,8.2c-1.6,6.9-8,13.5-5.3,20c1.3,3.1,4.4,5.1,7.9,5.1h21c6,12.7,24.1,12.7,30.1,0h10.8c1,0,1.9-0.8,1.9-1.9
				c0-1-0.8-1.9-1.9-1.9h-9.6c2.2-10.4-5.8-20.1-16.3-20.1h0c-10.6,0-18.5,9.7-16.3,20.1h-6c-1.6,0-2.9-1.4-2.7-3l0.9-10.3
				c1.5-17.4,17.5-29.6,34.5-26.7c7.2,1.2,14.2,3.1,21,5.8c-1.3,6.6,1.7,13.5,8.1,16.9c0.8,0.4,1.8,0.2,2.3-0.5
				c0.7-0.9,0.4-2.3-0.6-2.8c-10.1-5.4-7.6-20.5,3.5-22.5c6.5-1.2,12.8,3.2,13.9,9.8c0.8,4.5-1.1,9.2-4.8,11.9
				c-1.2,0.9-1,2.7,0.4,3.2c1.2,0.5,2.1-0.4,3.3-1.4c6.7,5.1,12.9,11,18.2,17.6c0.7,0.8,0.1,2.1-1,2.1h-41.9c-1,0-1.9,0.8-1.9,1.9
				c0,1,0.8,1.9,1.9,1.9h5.9c0,5.3,4.2,9.5,9.5,9.5c5.2,0,9.5-4.3,9.5-9.5h17.1c4.2,0,6.5-4.9,3.9-8.1c-5.5-6.7-11.8-12.8-18.7-18.1
				c7.7-11.5-2.2-26.7-15.8-24.3c-5.2,0.9-9.5,4.3-11.6,9c-7.6-2.9-20.6-6.7-28.8-6.3L771,272.4z M825,319.8c0,3.2-2.6,5.8-5.8,5.8
				c-3.2,0-5.8-2.6-5.8-5.8H825z M758.9,317.1c-3-8.4,3.2-17.3,12.2-17.3c6.3,0,11.6,4.6,12.7,10.6c1.5,7.9-4.6,15.3-12.7,15.3
				C765.4,325.6,760.7,322.1,758.9,317.1z"/>
		</g>
		<path class="st4" d="M698,381.6c22.2-27.6,56.3-45.3,94.5-45.3c37.6,0,71.3,17.2,93.5,44.1"/>
		<path class="st4" d="M698,381.6"/>
		<line class="st3" x1="725.2" y1="390.1" x2="715.3" y2="380.3"/>
		<line class="st3" x1="760.1" y1="380.7" x2="750.1" y2="356.6"/>
		<line class="st3" x1="792.5" y1="374.2" x2="792.5" y2="347.8"/>
		<line class="st3" x1="868.4" y1="381.6" x2="859.9" y2="390.1"/>
		<line class="st3" x1="833.6" y1="357.5" x2="823.9" y2="380.7"/>
	</g>
	<g>
		<line class="st5" x1="875.9" y1="176.3" x2="934.2" y2="234.5"/>
		<polygon class="st6" points="832.4,265.8 828.3,252.3 826.1,250.1 825.4,245.6 835.2,235.8 829.2,229.9 831.4,221.3 838.1,214.6 
			837.3,213.7 839.1,212 838.4,211.2 838.4,208.8 845.4,201.9 846.9,201.7 849.1,200.7 850.3,201.9 875.9,176.3 889,168 
			889.9,168.9 891.8,168 894.5,170.6 896.7,168.4 895.6,167.2 898.6,164.2 899.9,165.5 901.5,163.8 901.5,163.8 901.6,163.9 
			946.6,208.9 945,210.6 946.3,211.8 943.2,214.9 942.1,213.7 939.8,216 942.5,218.7 941.5,220.6 942.4,221.5 934.2,234.5 
			908.5,260.2 909.7,261.4 908.7,263.6 908.6,265.1 901.6,272.1 899.2,272.1 898.5,271.3 896.7,273.2 895.9,272.3 889.2,279.1 
			880.6,281.3 874.6,275.3 864.8,285.1 860.4,284.3 858.2,282.2 844.7,278 832.6,265.9 		"/>
		<line class="st6" x1="896.7" y1="168.4" x2="942.1" y2="213.7"/>
		<line class="st6" x1="889.9" y1="168.9" x2="941.5" y2="220.6"/>
		<line class="st6" x1="850.3" y1="201.9" x2="908.5" y2="260.2"/>
		<line class="st6" x1="846.9" y1="201.7" x2="908.7" y2="263.6"/>
		<line class="st6" x1="839.1" y1="212" x2="898.5" y2="271.3"/>
		<line class="st6" x1="838.1" y1="214.6" x2="895.9" y2="272.3"/>
		<line class="st6" x1="832.8" y1="219.9" x2="890.5" y2="277.7"/>
		<line class="st6" x1="831.4" y1="221.3" x2="889.2" y2="279.1"/>
		<line class="st6" x1="835.2" y1="235.8" x2="874.6" y2="275.3"/>
		<line class="st6" x1="832.8" y1="238.2" x2="872.3" y2="277.7"/>
		<line class="st6" x1="827.9" y1="243.1" x2="867.4" y2="282.5"/>
		<line class="st6" x1="825.4" y1="245.6" x2="864.8" y2="285.1"/>
		<line class="st6" x1="828.3" y1="252.3" x2="858.2" y2="282.2"/>
		<polyline class="st7" points="849.7,204.6 847.8,204.4 840.9,211.3 841.5,214.4 		"/>
		<polyline class="st7" points="852.7,207.6 850.2,207.2 843.4,213.9 844.3,217.2 		"/>
		<polyline class="st7" points="856.5,211.3 853.7,210.7 847,217.4 847.8,220.7 		"/>
		<polyline class="st7" points="860.3,215.1 858.3,214.9 851.3,221.9 852.2,225.1 		"/>
		<polyline class="st7" points="865.1,219.9 863.3,219.7 856.3,226.7 857.2,230.1 		"/>
		<line class="st7" x1="871.6" y1="226.4" x2="862.6" y2="235.4"/>
		<polyline class="st7" points="877.9,232.7 878.1,234.9 871.4,241.6 868.4,241.3 		"/>
		<polyline class="st7" points="883.2,238 884,240.6 877.2,247.4 873.6,246.4 		"/>
		
			<ellipse transform="matrix(0.7071 -0.7071 0.7071 0.7071 84.1064 696.4331)" class="st8" cx="882.7" cy="246.7" rx="2.3" ry="2.3"/>
		<polyline class="st7" points="884,240.6 888.8,245.5 890.8,245.7 		"/>
		<polyline class="st7" points="888.8,245.5 881.9,252.4 877,247.5 881.9,252.4 882.2,255 885.9,256.2 892.7,249.4 892.5,247.3 		
			"/>
		<polyline class="st7" points="886.9,259.8 890.4,260.8 897.3,253.9 897.1,251.9 		"/>
		<polyline class="st7" points="891,263.8 894.7,264.9 901.5,258.1 901.2,256 		"/>
		<polyline class="st7" points="894.4,267.3 897.7,268.2 904.6,261.2 904.5,259.3 		"/>
		<polyline class="st7" points="897.1,270 900.2,270.5 907,263.7 906.9,261.8 		"/>
	</g>
	<g>
		<g>
			<g>
				<line class="st9" x1="254.1" y1="75.9" x2="263.1" y2="75.9"/>
				<line class="st10" x1="269" y1="75.9" x2="313.1" y2="75.9"/>
				<line class="st9" x1="316" y1="75.9" x2="325" y2="75.9"/>
			</g>
		</g>
		<path class="st4" d="M234.3,28c26.4,26.4,26.4,69.4,0,95.7 M223.1,40.8c19.3,19.4,19.3,50.9,0,70.2 M211.2,52.9
			c12.6,12.6,12.6,33.2,0,45.8"/>
		<path class="st4" d="M344.8,123.7c-26.4-26.4-26.4-69.3,0-95.7 M356,111c-19.3-19.3-19.3-50.8,0-70.2 M367.9,98.8
			c-12.6-12.6-12.6-33.2,0-45.8"/>
	</g>
	<g>
		<g>
			<g>
				<line class="st9" x1="598" y1="75.9" x2="607" y2="75.9"/>
				<line class="st10" x1="612.8" y1="75.9" x2="656.9" y2="75.9"/>
				<line class="st9" x1="659.8" y1="75.9" x2="668.8" y2="75.9"/>
			</g>
		</g>
		<path class="st4" d="M578.1,28c26.4,26.4,26.4,69.4,0,95.7 M567,40.8c19.3,19.4,19.3,50.9,0,70.2 M555,52.9
			c12.6,12.6,12.6,33.2,0,45.8"/>
		<path class="st4" d="M688.6,123.7c-26.4-26.4-26.4-69.3,0-95.7 M699.8,111c-19.3-19.3-19.3-50.8,0-70.2 M711.8,98.8
			c-12.6-12.6-12.6-33.2,0-45.8"/>
	</g>
	<g>
		<rect x="10.6" y="229.8" class="st11" width="209.9" height="114.7"/>
		<circle class="st12" cx="115.6" cy="297" r="36.9"/>
		<polygon class="st11" points="10.6,344.5 21.8,397.5 209.7,397.5 220.5,344.5 31.8,344.5 		"/>
		<line class="st11" x1="10.6" y1="344.5" x2="3.4" y2="344.5"/>
		<line class="st11" x1="220.5" y1="344.5" x2="228.5" y2="344.5"/>
		<line class="st11" x1="10.6" y1="287.2" x2="220.5" y2="287.2"/>
		<line class="st11" x1="115.6" y1="229.8" x2="115.6" y2="344.5"/>
		<line class="st11" x1="47.6" y1="344.5" x2="47.6" y2="229.8"/>
		<line class="st11" x1="184" y1="344.5" x2="184" y2="229.8"/>
		<polyline class="st11" points="10.6,313.4 31.8,313.4 31.8,344.5 		"/>
		<polyline class="st11" points="75.4,344.5 115.6,299.2 156.2,344.5 		"/>
		<line class="st11" x1="17.3" y1="376.2" x2="214.1" y2="376.2"/>
		<polyline class="st11" points="220.5,250.4 246.5,250.4 246.5,313.4 220.5,313.4 209.1,324.8 		"/>
		<line class="st11" x1="220.5" y1="271" x2="246.5" y2="271"/>
		<line class="st11" x1="220.5" y1="292.6" x2="246.5" y2="292.6"/>
		<line class="st11" x1="30.3" y1="397.5" x2="39.1" y2="388.7"/>
		<line class="st11" x1="50.5" y1="397.5" x2="59.6" y2="388.3"/>
		<line class="st11" x1="70.8" y1="397.5" x2="80" y2="388.3"/>
		<line class="st11" x1="91.2" y1="397.5" x2="100.4" y2="388.3"/>
		<line class="st11" x1="111.6" y1="397.5" x2="120.8" y2="388.3"/>
		<line class="st11" x1="132" y1="397.5" x2="141.2" y2="388.3"/>
		<line class="st11" x1="152.4" y1="397.5" x2="161.5" y2="388.3"/>
		<line class="st11" x1="172.8" y1="397.5" x2="181.9" y2="388.3"/>
		<line class="st11" x1="193.1" y1="397.5" x2="202.3" y2="388.3"/>
	</g>
	<line class="st13" x1="115.5" y1="173.6" x2="115.5" y2="217.9"/>
	<line class="st13" x1="461.3" y1="173.6" x2="461.3" y2="240.4"/>
	<g>
		<g>
			<path class="st9" d="M261.9,230.2c1.6-1.8,3.7-4,6.3-6.4"/>
			<path class="st14" d="M272.4,220.3c8.3-6.6,20.4-13.6,36.1-16c27.6-4.2,49.7,8.4,62.1,18.2"/>
			<path class="st9" d="M372.6,224.2c2.9,2.4,5.1,4.5,6.6,6.1"/>
			<g>
				<polygon class="st15" points="277.8,231.5 277.6,228.5 262.8,229.5 263,214.7 260,214.6 259.8,232.7 				"/>
			</g>
			<g>
				<polygon class="st15" points="363.4,232.3 363.5,229.3 378.3,229.6 377.5,214.8 380.5,214.7 381.4,232.7 				"/>
			</g>
		</g>
	</g>
	<line class="st13" x1="804.5" y1="168.3" x2="804.5" y2="235.1"/>
	<g>
		<g>
			<path class="st9" d="M609.6,230.2c1.6-1.8,3.7-4,6.3-6.4"/>
			<path class="st14" d="M620.1,220.3c8.3-6.6,20.4-13.6,36.1-16c27.6-4.2,49.7,8.4,62.1,18.2"/>
			<path class="st9" d="M720.4,224.2c2.9,2.4,5.1,4.5,6.6,6.1"/>
			<g>
				<polygon class="st15" points="625.5,231.5 625.3,228.5 610.6,229.5 610.7,214.7 607.7,214.6 607.5,232.7 				"/>
			</g>
			<g>
				<polygon class="st15" points="711.2,232.3 711.3,229.3 726.1,229.6 725.3,214.8 728.3,214.7 729.2,232.7 				"/>
			</g>
		</g>
	</g>
</g>
</svg>
