<?xml version="1.0" encoding="utf-8"?>
<!-- Generator: Adobe Illustrator 21.1.0, SVG Export Plug-In . SVG Version: 6.00 Build 0)  -->
<svg version="1.1" id="Layer_1" xmlns="http://www.w3.org/2000/svg" xmlns:xlink="http://www.w3.org/1999/xlink" x="0px" y="0px"
	 width="950px" height="950px" viewBox="0 0 950 950" style="enable-background:new 0 0 950 950;" xml:space="preserve">
<style type="text/css">
	.st0{fill:#F5F5F5;}
	.st1{fill:#FF3030;}
</style>
<g>
	<path class="st0" d="M47.8,317c0-6.6,0-11.9,0-17.1c0-81.4,0-162.8,0-244.2c0-37.7,18-55.5,55.8-55.5c247.4,0,494.7,0,742.1,0
		c39.5,0,56.8,17.4,56.8,57.2c0,54.7,0,109.4,0,164.1c0,4.9,0,9.8,0,14c1.9,1,2.7,1.7,3.5,1.8c38.3,3.1,44,9.2,44,47.2
		c0,49.7,0,99.5,0,149.2c0,30.5-9.6,40.3-40.3,41.3c-1.7,0.1-3.5,0.3-7.2,0.7c0,5.9,0,11.6,0,17.3c0,112.1,0,224.3,0,336.4
		c0,39.4-17.7,57.2-57,57.2c-48.8,0-97.6,0-148.6,0c0,6,0.3,11.2,0,16.4c-1.6,27.5-20.9,46.3-48.3,46.6c-29.8,0.4-59.7,0.2-89.5,0.1
		c-32.7-0.1-51.1-18.3-52-51c-0.1-3.5-0.5-7-0.9-11.3c-10.3,0-20,0-29.5,0c-6.5,44-9.3,46.4-54.4,46.4c-42.5,0-85,0-127.5,0
		c-30.6,0-40-9.2-41.3-40.3c-0.1-1.7-0.5-3.5-0.9-6.9c-4.9,0-9.8,0-14.6,0c-45.7,0-91.3,0.1-137,0c-33.9-0.1-52.9-19.1-52.9-53.1
		c-0.1-81.8,0-163.7,0-245.5c0-5.4,0-10.8,0-18.1c-6.2,0-11.4,0.3-16.7,0c-17.3-1-30.4-13-30.6-30.2c-0.4-64.2-0.5-128.4,0-192.6
		c0.1-17.3,13.1-29.1,30.6-30C36,316.8,40.9,317,47.8,317z M206.5,554.1c10.2,0,19.1,0,28.1,0c10.4,0,18.1,4,18.5,15.2
		c0.4,12-7.4,16.5-18.5,16.6c-9.3,0.1-18.5,0-27.5,0c0,11.6,0,20.9,0,31.5c8.9,0,16.9,0.1,25,0c11-0.2,20.3,2.2,21.1,15.4
		c0.7,10.6-7,16.1-21.6,16.2c-31.2,0.1-62.4,0-93.6,0c-23.9,0-26.7-2.8-26.7-26.2c0-17.4,0-34.8,0-52.1c-11.6,0-21,0-31,0
		c-0.3,2.8-0.8,4.9-0.8,7.1c0,85.9-0.1,171.8,0,257.7c0,13.9,5.9,19.3,20.2,19.4c47.9,0.1,95.9,0.1,143.8,0c3,0,6-0.7,9.9-1.2
		c0-35.4-0.2-70.2,0.1-104.9c0.1-23.9,12.1-36.1,35.9-36.2c50.2-0.2,100.4-0.2,150.6,0c23.2,0.1,35.1,12.2,35.3,35.2
		c0.2,30.7,0,61.5,0,92.2c0,4.7,0,9.5,0,14.2c11.6,0,20.9,0,31.8,0c0-5.5,0-10.3,0-15.2c0-66.9,0-133.8,0.1-200.8
		c0-25.2,11.3-36.3,36.5-36.4c38-0.1,76-0.1,113.9,0c28.3,0,39.4,11,39.4,39.4c0.1,66,0,132,0.1,198c0,4.8,0.4,9.6,0.7,15.6
		c5,0,9,0,13,0c45.2,0,90.4,0,135.6,0c20.4,0,24.7-4.2,24.7-24.5c0-113.9,0-227.9,0-341.8c0-4.3,0-8.6,0-13.5c-47,0-91.7,0-136.4,0
		c-25.9,0-37.5-11.3-37.5-36.9c-0.1-54.3-0.1-108.5,0-162.8c0-26.6,11.2-37.6,38.2-37.7c40.2-0.1,80.5,0,120.7-0.1
		c4.7,0,9.5-0.6,15.1-1c0-6,0-10.4,0-14.9c0-54.7,0-109.4,0-164.1c0-21.7-3.7-25.5-24.9-25.5c-247.3,0-494.7,0-742,0
		c-20.6,0-24.6,4-24.6,24.4c0,81.8,0,163.7,0,245.5c0,4.7,0.4,9.5,0.7,14.1c11,0,20.3,0,31.2,0c0-20.1-0.2-39.4,0.1-58.7
		c0.1-14,4.9-19.5,18.3-19.7c35.3-0.3,70.5-0.2,105.8-0.1c10.5,0,17.9,4.6,17.7,15.9c-0.2,11.2-7.4,15.7-18.1,15.6
		c-9.3-0.1-18.6,0-27.7,0c0,11.7,0,21.3,0,31.9c9.6,0,18.2,0.1,26.7,0c11.1-0.2,19.1,3.9,19,16c0,12.3-8.6,15.7-19.4,15.6
		c-8.8,0-17.7,0-26.3,0c0,11.8,0,21.4,0,31.6c9.7,0,18.3,0,26.9,0c11,0,18.9,4.3,18.8,16.3c-0.2,11.3-7.9,15.4-18.2,15.5
		c-9.3,0.1-18.6,0-27.8,0c0,11.4,0,20.8,0,31.6c10.1,0,19.5-0.2,28.9,0c10.6,0.2,17.7,5.2,17.2,16.4c-0.4,10.4-7.2,15-17.2,15
		c-9.4,0-18.8,0-28.8,0c0,11.1,0,20.8,0,31.9c9.7,0,18.6,0.1,27.5,0c10.5-0.1,18.2,4,18.5,15.1c0.4,12.1-7.6,16.4-18.6,16.4
		c-9.2,0-18.5,0-27.9,0C206.5,533.9,206.5,542.9,206.5,554.1z M917.4,442.4c0-58.3,0-115,0-172.1c-63.2,0-125.6,0-188.3,0
		c0,57.9,0,114.6,0,172.1C792.1,442.4,854.2,442.4,917.4,442.4z M442.5,901.7c0-52.7,0-104.5,0-156.8c-52.6,0-104.3,0-156.4,0
		c0,52.6,0,104.4,0,156.8C338.3,901.7,389.7,901.7,442.5,901.7z M664.1,791.1c0-53.3,0-105,0-156.7c-42.2,0-83.5,0-124.6,0
		c0,52.9,0,104.6,0,156.4c15.9,0,30.6,0,45.8,0c0.3-4.4,0.7-7.9,0.7-11.5c0.1-16.7-0.1-33.5,0.1-50.2c0.1-10.2,5.6-16.4,15.9-16.3
		c9.7,0,14.8,6.1,15.4,15.5c0.4,6.8,0.2,13.6,0.2,20.3c0,14.2,0,28.4,0,42.4C634.6,791.1,649,791.1,664.1,791.1z M32.9,537.3
		c26.7,0,51.8,0,77.1,0c0-63.3,0-125.7,0-188.2c-26.3,0-51.4,0-77.1,0C32.9,412.1,32.9,474.3,32.9,537.3z M538.6,824
		c0,27.4-0.8,53.5,0.7,79.6c0.3,5.1,9.4,13.5,14.7,13.8c32,1.3,64.2,1.2,96.2-0.1c5-0.2,13.7-8.2,13.9-13c1.4-26.5,0.7-53,0.7-80.3
		C622.6,824,581.6,824,538.6,824z M143.9,269.6c0,116.5,0,231.8,0,347.2c10.4,0,19.8,0,29.3,0c0-116.1,0-231.4,0-347.2
		C163.1,269.6,154.1,269.6,143.9,269.6z"/>
	<path class="st1" d="M474.8,570c-30.3,0-60.6,0.1-90.9,0c-22.8-0.1-35.5-12.4-35.4-35.2c0.1-34.3,1.4-68.5,1.5-102.8
		c0.1-25.9-1.4-51.8-1.5-77.8c-0.2-25.6,11.7-37.2,37.4-37.2c59.7-0.1,119.4-0.1,179,0c24.9,0,37.2,11.7,37,36.2
		c-0.2,34.5-1.5,69-1.6,103.5c-0.1,25.9,0.7,51.7,1.5,77.6c0.7,21.2-12.1,35.4-33.4,35.7C537.2,570.2,506,570,474.8,570z
		 M569.8,538.3c0-63.7,0-126.2,0-188.8c-64,0-126.5,0-189.4,0c0,63.3,0,125.4,0,188.8C444.4,538.3,507,538.3,569.8,538.3z"/>
	<path class="st0" d="M159.2,823c-26.5,0.3-47.7-20.3-48-46.6s20.6-47.8,46.7-48.2c25.9-0.4,47.7,20.9,48.2,47
		C206.6,801.3,185.5,822.8,159.2,823z M176.4,779.6c0.1-2.1,0.2-4.2,0.3-6.3c-5.7-4.4-10.8-11.2-17.2-12.6c-9-2-15.4,4.5-16.1,13.9
		c-0.8,10.2,5.4,17.4,15,16.4C164.7,790.2,170.4,783.6,176.4,779.6z"/>
	<path class="st0" d="M157.9,158.3c-26.3-0.3-47-21.5-46.6-48c0.4-26.2,22.2-47.4,48.1-46.8c26.1,0.6,47.2,22.4,46.8,48.3
		C205.7,138,184.4,158.5,157.9,158.3z M176.6,113.4c-0.1-2.1-0.2-4.2-0.2-6.3c-6-3.9-11.7-10.3-18.1-11.2
		c-9.1-1.3-14.7,5.6-15.1,15.1c-0.4,9,8.1,17.9,16.3,15.3C165.9,124.2,170.9,117.9,176.6,113.4z"/>
	<path class="st0" d="M839.1,776.4c-0.3,26.3-21.4,46.9-48,46.6c-26.3-0.3-47.3-21.7-46.9-47.9c0.4-26,22.3-47.4,48.2-46.9
		C818.5,728.6,839.3,750.1,839.1,776.4z M809.5,778.7c0-2.1-0.1-4.2-0.1-6.3c-5.9-4.1-11.3-10.7-17.7-11.8
		c-9-1.5-15.2,5.2-15.4,14.6c-0.2,10.2,6.2,17.1,15.8,15.6C798.4,789.9,803.8,783,809.5,778.7z"/>
	<path class="st0" d="M839.1,110.9c0.1,26.3-20.9,47.3-47.3,47.4c-26.4,0-47.5-20.9-47.6-47.2c-0.1-26,21.4-47.5,47.4-47.7
		C817.5,63.3,839,84.7,839.1,110.9z M809.7,113.4c-0.1-2.1-0.2-4.2-0.2-6.3c-6-3.9-11.7-10.4-18.1-11.3c-9-1.2-15.1,5.5-15,15.1
		c0.1,10.3,6.8,16.9,16.3,15.2C798.8,125,804,117.9,809.7,113.4z"/>
	<path class="st0" d="M383.7,61.5c4.1,6,10.7,11.5,11.7,17.9c1.3,8.8-5.1,15.1-14.8,15.6c-9,0.4-18.1-7.9-15.7-16.1
		c1.9-6.5,8.2-11.7,12.5-17.5C379.5,61.4,381.6,61.5,383.7,61.5z"/>
	<path class="st0" d="M567.1,97.4c-4.3-5.8-11-11.2-12.3-17.6c-1.8-9,4.9-15.1,14.4-16c8.9-0.9,18.4,7.3,16.2,15.5
		c-1.7,6.6-7.9,12-12,17.9C571.3,97.3,569.2,97.4,567.1,97.4z"/>
	<path class="st0" d="M334.7,83.1c-6,4-11.7,10.6-18.1,11.4c-9.8,1.2-15.8-6.2-15.1-16.4c0.6-9.6,7.3-15.9,16.2-14
		c6.4,1.4,11.6,8.3,17.3,12.7C334.8,78.9,334.8,81,334.7,83.1z"/>
	<path class="st0" d="M461.3,83.3c-6,3.9-11.7,10.3-18.2,11.3c-9.1,1.3-14.8-5.6-15.2-15.1c-0.3-9.2,8.1-18,16.4-15.4
		c6.5,2.1,11.5,8.4,17.2,12.9C461.5,79,461.4,81.1,461.3,83.3z"/>
	<path class="st0" d="M271.6,81.8c-5.7,4.4-10.9,11.2-17.2,12.6c-9,2-15.2-4.4-16.3-13.9c-1-9,6.7-18.6,15.1-16.6
		c6.6,1.5,12.1,7.5,18.1,11.5C271.4,77.6,271.5,79.7,271.6,81.8z"/>
	<path class="st0" d="M503.7,97.4c-4.2-5.9-10.8-11.3-11.9-17.7c-1.8-10,5.5-16,15.6-15.8c9.5,0.2,16.2,6.4,14.5,15.6
		c-1.2,6.4-7.6,11.9-11.7,17.8C508,97.4,505.8,97.4,503.7,97.4z"/>
	<path class="st0" d="M637,61.5c4,6,10.6,11.6,11.5,18c1.3,9.8-5.7,15.9-16,15.5c-9.7-0.4-15.8-7.1-14.1-16
		c1.3-6.4,7.8-11.7,12-17.5C632.7,61.4,634.8,61.4,637,61.5z"/>
	<path class="st0" d="M714.7,82c-5.8,4.3-11,11.1-17.4,12.5c-9.1,2-15.5-4.6-16.1-14c-0.7-10.3,5.7-17.4,15.3-16.3
		c6.3,0.7,12,7.5,18,11.5C714.6,77.8,714.7,79.9,714.7,82z"/>
	<path class="st0" d="M271.5,145.9c-5.9,4.1-11.3,10.7-17.7,11.7c-9.9,1.6-16-5.4-15.6-15.6c0.3-9.5,6.5-16.1,15.7-14.3
		c6.4,1.2,11.9,7.7,17.7,11.8C271.5,141.6,271.5,143.7,271.5,145.9z"/>
	<path class="st0" d="M320,124.9c4.2,5.8,10.9,11.1,11.9,17.4c1.6,9.8-5.3,16-15.5,15.8c-9.5-0.2-16.2-6.4-14.6-15.5
		c1.1-6.4,7.6-11.8,11.6-17.6C315.6,124.9,317.8,124.9,320,124.9z"/>
	<path class="st0" d="M447.2,124.9c4,6,10.4,11.6,11.4,18c1.4,9.1-5.4,15.2-14.9,15.2c-10.2,0.1-17.1-6.3-15.2-16.1
		c1.2-6.3,8-11.6,12.3-17.3C442.9,124.7,445,124.8,447.2,124.9z"/>
	<path class="st0" d="M503.2,160.4c-4-5.9-10.4-11.5-11.5-17.9c-1.4-9,5.2-15.3,14.8-15.3c10.2,0,17.1,6.2,15.3,16
		c-1.2,6.3-7.9,11.6-12.2,17.4C507.5,160.6,505.3,160.5,503.2,160.4z"/>
	<path class="st0" d="M651.4,145.9c-5.9,4.1-11.3,10.5-17.8,11.8c-9.2,1.8-15.4-4.9-15.6-14.4c-0.3-10.1,5.8-17.3,15.7-15.7
		c6.4,1.1,11.8,7.7,17.7,11.8C651.4,141.6,651.4,143.7,651.4,145.9z"/>
	<path class="st0" d="M700.2,124.8c4.1,5.9,10.6,11.4,11.7,17.7c1.5,8.9-5,15.3-14.6,15.5c-10.2,0.2-17.2-6-15.5-15.8
		c1.1-6.3,7.8-11.7,12-17.5C695.9,124.8,698,124.8,700.2,124.8z"/>
	<path class="st0" d="M377.8,160.6c-4.5-5.7-11.4-10.8-12.8-17.1c-2-8.8,4.1-15.4,13.8-16.1c10.3-0.7,17.6,5.2,16.6,14.9
		c-0.6,6.3-7.3,12.1-11.3,18.1C382,160.5,379.9,160.5,377.8,160.6z"/>
	<path class="st0" d="M567.7,160.6c-4.5-5.7-11.4-10.8-12.8-17.1c-2-8.8,4.1-15.5,13.8-16.1c10.3-0.7,17.6,5,16.5,14.9
		c-0.7,6.4-7.3,12.1-11.3,18.1C571.9,160.5,569.8,160.5,567.7,160.6z"/>
	<path class="st0" d="M808.6,380.1c9.4,0,18.9,0,28.3,0c10.6,0.1,17.7,4.9,17.7,15.9s-7.5,15.8-17.9,15.9
		c-19.8,0.2-39.6,0.3-59.4-0.1c-10.4-0.2-17.5-5.6-17.1-16.6c0.4-10.1,7.2-15,17.2-15.1C787.9,380,798.3,380.1,808.6,380.1z"/>
	<path class="st0" d="M808.2,301.1c9.9,0,19.8-0.1,29.7,0c10.1,0.1,16.6,5.2,16.9,15.3c0.3,10.2-6.2,15.8-16.2,16
		c-20.7,0.4-41.4,0.4-62,0c-9.9-0.2-16.4-5.7-16.2-16c0.3-10.1,6.7-15.3,16.8-15.4C787.5,301,797.8,301.1,808.2,301.1z"/>
	<path class="st0" d="M380.4,823.2c0-5.8-1.8-12.6,0.5-17.3c2.8-5.6,9.2-13.1,13.9-13c5.7,0.2,15,6.7,16,11.8
		c2.3,12.1,2.1,25.3,0,37.4c-0.9,5-10.1,12.3-14.7,11.7c-5.7-0.7-12-7.6-15.2-13.4C378.4,835.9,380.4,829,380.4,823.2L380.4,823.2z"
		/>
	<path class="st0" d="M348.3,822.5c0,5.4,0.2,10.8,0,16.2c-0.5,10.1-5.9,16.2-16.1,16c-9.5-0.2-14.7-6.2-15-15.7
		c-0.3-10.3-0.3-20.6,0-31c0.3-10.1,5.7-16.2,16-15.9c9.6,0.2,14.5,6.2,15,15.6C348.5,812.6,348.3,817.5,348.3,822.5z"/>
</g>
</svg>
