<?xml version="1.0" encoding="utf-8"?>
<!-- Generator: Adobe Illustrator 21.1.0, SVG Export Plug-In . SVG Version: 6.00 Build 0)  -->
<svg version="1.1" id="Layer_1" xmlns="http://www.w3.org/2000/svg" xmlns:xlink="http://www.w3.org/1999/xlink" x="0px" y="0px"
	 width="299.1px" height="100.7px" viewBox="0 0 299.1 100.7" style="enable-background:new 0 0 299.1 100.7;" xml:space="preserve"
	>
<style type="text/css">
	.st0{fill:#187CD6;stroke:#F5F5F5;stroke-miterlimit:10;}
	.st1{fill:#FFFFFF;}
	.st2{fill:#F5F5F5;}
	.st3{fill:#FF0000;stroke:#F5F5F5;stroke-miterlimit:10;}
	.st4{fill:none;stroke:#F5F5F5;stroke-miterlimit:10;}
	.st5{fill:#40D375;stroke:#000000;stroke-miterlimit:10;}
	.st6{fill:#40D375;stroke:#F5F5F5;stroke-miterlimit:10;}
	.st7{fill:#187CD6;stroke:#231F20;stroke-miterlimit:10;}
	.st8{fill:#20201D;}
	.st9{fill:none;stroke:#40D375;stroke-width:0.5;stroke-miterlimit:10;}
	.st10{fill:#40D375;}
	.st11{fill:#FF0000;}
	.st12{fill:none;stroke:#FF0000;stroke-width:0.5;stroke-miterlimit:10;}
</style>
<path class="st0" d="M196.4,49.1h-58.5c-3.6,0-6.5-2.9-6.5-6.5v-8c0-3.6,2.9-6.5,6.5-6.5h58.5c3.6,0,6.5,2.9,6.5,6.5v8
	C202.9,46.1,200,49.1,196.4,49.1z"/>
<g>
	<path class="st1" d="M141.4,42.7c-1.3,0-3,0.1-3-2.2v-3h-1.3V36h1.3v-1.3h2V36h2.4v1.5h-2.4v3c0,0.5,0.4,0.5,1,0.5
		c0.4,0,1.5-0.1,1.5-0.1l0.2,1.5C142.6,42.6,141.9,42.7,141.4,42.7z"/>
	<path class="st1" d="M150.3,42.6c-0.9,0-2,0-2.2-0.7c-0.3,0.4-0.7,0.7-1.5,0.7c-1.4,0-2.2-0.6-2.2-1.9c0-1.7,1.5-1.9,2.8-1.9h0.7
		v-0.6c0-0.6-0.4-0.7-1.2-0.7c-0.6,0-1,0.1-1.6,0.2l-0.4-1.5c0.5-0.2,1.3-0.4,2.3-0.4c1.4,0,2.8,0.1,2.8,2v3c0,0.2,0.2,0.3,0.5,0.3
		L150.3,42.6z M147.9,39.9l-0.5,0c-1,0-1,0.4-1,0.7c0,0.3,0.2,0.5,0.5,0.5c0.4,0,0.7-0.1,1-0.2L147.9,39.9z"/>
	<path class="st1" d="M154.1,42.7c-0.9,0-1.7-0.1-2.4-0.3l0.2-1.5c0.9,0.1,1.5,0.2,2,0.2c1,0,1.4-0.2,1.4-0.4c0-0.8-3.5-0.1-3.5-2.7
		c0-1.4,1.6-2.1,3-2.1c0.8,0,1.5,0.1,2.2,0.3l-0.3,1.5c-0.6-0.1-1.1-0.2-1.8-0.2c-0.7,0-1.1,0.2-1.1,0.4c0,0.9,3.5,0.4,3.5,2.7
		C157.3,42.3,155.2,42.7,154.1,42.7z"/>
	<path class="st1" d="M162.5,42.5l-1.4-2.9v2.9h-2v-9h2v4.9l1.6-2.4h2.1l-2,2.8l2.1,3.7H162.5z"/>
	<path class="st1" d="M165.3,44.9v-1.6h7.2v1.6H165.3z"/>
	<path class="st1" d="M176,42.7c-2.8,0-2.8-2-2.8-4.2c0-2.2,0-4.4,3-4.4c3,0,2.7,2.3,2.7,4.2C178.9,40.6,178.7,42.7,176,42.7z
		 M176.1,35.6c-0.6,0-0.9,0.3-0.9,2.8c0,2,0.3,2.7,0.9,2.7c0.7,0,0.9-0.7,0.9-2.8C177,35.9,176.8,35.6,176.1,35.6z M176.1,39
		l-0.6-0.7l0.6-0.6l0.7,0.6L176.1,39z"/>
</g>
<g>
	<path class="st2" d="M134.6,97.6c-0.9,0-1.7-0.1-2.4-0.3l0.2-1.5c0.9,0.1,1.5,0.2,2,0.2c1,0,1.4-0.2,1.4-0.4c0-0.8-3.5-0.1-3.5-2.7
		c0-1.4,1.6-2.1,3-2.1c0.8,0,1.5,0.1,2.2,0.3l-0.3,1.5c-0.6-0.1-1.1-0.2-1.8-0.2c-0.7,0-1.1,0.2-1.1,0.4c0,0.9,3.5,0.4,3.5,2.7
		C137.8,97.2,135.7,97.6,134.6,97.6z"/>
	<path class="st2" d="M143.5,97.6c-1.3,0-3,0.1-3-2.2v-3h-1.3v-1.5h1.3v-1.3h2v1.3h2.4v1.5h-2.4v3c0,0.5,0.4,0.5,1,0.5
		c0.4,0,1.5-0.1,1.5-0.1l0.2,1.5C144.7,97.5,144,97.6,143.5,97.6z"/>
	<path class="st2" d="M152.4,97.5c-0.9,0-2,0-2.2-0.7c-0.3,0.4-0.7,0.7-1.5,0.7c-1.4,0-2.2-0.6-2.2-1.9c0-1.7,1.5-1.9,2.8-1.9h0.7
		v-0.6c0-0.6-0.4-0.7-1.2-0.7c-0.6,0-1,0.1-1.6,0.2l-0.4-1.5c0.5-0.2,1.3-0.4,2.3-0.4c1.4,0,2.8,0.1,2.8,2v3c0,0.2,0.2,0.3,0.5,0.3
		L152.4,97.5z M150,94.8l-0.5,0c-1,0-1,0.4-1,0.7c0,0.3,0.2,0.5,0.5,0.5c0.4,0,0.7-0.1,1-0.2L150,94.8z"/>
	<path class="st2" d="M156.4,100.1c-1,0-1.7-0.2-2.5-0.4l0.3-1.6c0.8,0.2,1.4,0.3,1.9,0.3c1,0,1.2-0.1,1.2-1.1v-0.2
		c-0.2,0.3-0.6,0.4-1,0.4c-1.3,0-2.7-0.4-2.7-3.3c0-2.2,1.3-3.5,3.3-3.5c0.8,0,1.2,0.1,2.4,0.3v6.5
		C159.3,99.4,157.9,100.1,156.4,100.1z M157.3,92.5c-0.1,0-0.2-0.1-0.4-0.1c-1.1,0-1.3,0.7-1.3,1.8c0,1.4,0.2,1.8,1.1,1.8
		c0.3,0,0.4,0,0.6-0.1V92.5z"/>
	<path class="st2" d="M164.2,97.6c-2,0-3.2-0.7-3.2-3.3c0-2.7,1-3.5,3-3.5c2.1,0,2.6,1.5,2.6,3.5V95H163c0.1,0.9,0.6,0.9,1.3,0.9
		c0.4,0,1.4,0,2-0.2l0.2,1.5C165.8,97.5,165,97.6,164.2,97.6z M163.8,92.3c-0.6,0-0.8,0.4-0.8,1.3h1.5
		C164.5,92.6,164.3,92.3,163.8,92.3z"/>
	<path class="st2" d="M170.6,97.6c-0.9,0-1.7-0.1-2.4-0.3l0.2-1.5c0.9,0.1,1.5,0.2,2,0.2c1,0,1.4-0.2,1.4-0.4c0-0.8-3.5-0.1-3.5-2.7
		c0-1.4,1.6-2.1,3-2.1c0.8,0,1.5,0.1,2.2,0.3l-0.3,1.5c-0.6-0.1-1.1-0.2-1.8-0.2c-0.7,0-1.1,0.2-1.1,0.4c0,0.9,3.5,0.4,3.5,2.7
		C173.8,97.2,171.7,97.6,170.6,97.6z"/>
</g>
<path class="st3" d="M147.5,81.2h-12.2c-2.1,0-3.9-1.7-3.9-3.9V58.5c0-2.1,1.7-3.9,3.9-3.9h12.2c2.1,0,3.9,1.7,3.9,3.9v18.8
	C151.4,79.5,149.6,81.2,147.5,81.2z"/>
<path class="st3" d="M173.3,81.2H161c-2.1,0-3.9-1.7-3.9-3.9V58.5c0-2.1,1.7-3.9,3.9-3.9h12.2c2.1,0,3.9,1.7,3.9,3.9v18.8
	C177.1,79.5,175.4,81.2,173.3,81.2z"/>
<path class="st3" d="M199,81.2h-12.2c-2.1,0-3.9-1.7-3.9-3.9V58.5c0-2.1,1.7-3.9,3.9-3.9H199c2.1,0,3.9,1.7,3.9,3.9v18.8
	C202.9,79.5,201.1,81.2,199,81.2z"/>
<g>
	<line class="st1" x1="147.1" y1="67.9" x2="162.8" y2="67.9"/>
	<g>
		<line class="st4" x1="147.1" y1="67.9" x2="161.7" y2="67.9"/>
		<g>
			<polygon class="st2" points="159.7,69.6 161.4,67.9 159.7,66.3 161.1,66.3 162.8,67.9 161.1,69.6 			"/>
		</g>
	</g>
</g>
<g>
	<line class="st1" x1="172" y1="67.9" x2="187.7" y2="67.9"/>
	<g>
		<line class="st4" x1="172" y1="67.9" x2="186.6" y2="67.9"/>
		<g>
			<polygon class="st2" points="184.6,69.6 186.3,67.9 184.6,66.3 186,66.3 187.7,67.9 186,69.6 			"/>
		</g>
	</g>
</g>
<g>
	<g>
		<path class="st4" d="M192.9,73c-2.3,8.2-10,14.4-25.8,14.4c-15.1,0-23.3-5.7-26.4-13.4"/>
		<g>
			<polygon class="st2" points="143.1,75.3 140.9,74.4 139.9,76.5 139.4,75.2 140.4,73 142.6,74 			"/>
		</g>
	</g>
</g>
<path class="st5" d="M209.3,22"/>
<path class="st5" d="M230.3,22"/>
<path class="st6" d="M298.6,22h-68.4v1.4v55.2c0,2.2-1.8,4-4,4h-13c-2.2,0-4-1.8-4-4V23.4V22h-71.4c-3.6,0-6.5-2.9-6.5-6.5v-8
	c0-3.6,2.9-6.5,6.5-6.5h160.7"/>
<g>
	<path class="st2" d="M139.9,15.2c-0.3,0-0.3,0-0.6,0v2.6h-2V8.5h2v0.6c0.2-0.3,0.8-0.7,1.5-0.7c1.5,0,2.2,0.8,2.2,3.1
		C143,14.2,141.8,15.2,139.9,15.2z M141,11.5c0-1.2-0.2-1.5-0.9-1.5c-0.3,0-0.5,0.1-0.8,0.2v3.3c0.2,0,0.3,0,0.6,0
		C141,13.6,141,12.8,141,11.5L141,11.5z"/>
	<path class="st2" d="M150.3,10.2c-0.4-0.1-0.5-0.1-0.9-0.1c-0.6,0-1.2,0.2-1.4,0.5v2.9h2.2v1.6h-5.6v-1.6h1.5V10h-1.5V8.5h3.5v0.9
		c0.3-0.4,0.8-1,1.9-1c0.4,0,0.5,0,0.8,0.1L150.3,10.2z"/>
	<path class="st2" d="M154.4,15.2c-2.2,0-2.8-1.3-2.8-3.4c0-2.2,0.8-3.5,2.9-3.5c2.3,0,2.8,1.3,2.8,3.4
		C157.3,14,156.4,15.2,154.4,15.2z M154.5,9.9c-0.9,0-0.9,0.8-0.9,1.9c0,1.1,0.1,1.8,0.9,1.8c0.8,0,0.7-0.7,0.7-1.8
		C155.2,10.7,155.3,9.9,154.5,9.9z"/>
	<path class="st2" d="M163,15.2c-1.3,0-3,0.1-3-2.2v-3h-1.3V8.5h1.3V7.2h2v1.3h2.4V10H162v3c0,0.5,0.4,0.5,1,0.5
		c0.4,0,1.5-0.1,1.5-0.1l0.2,1.5C164.2,15.1,163.5,15.2,163,15.2z"/>
	<path class="st2" d="M168.8,15.2c-2.2,0-2.8-1.3-2.8-3.4c0-2.2,0.8-3.5,2.9-3.5c2.3,0,2.8,1.3,2.8,3.4
		C171.7,14,170.8,15.2,168.8,15.2z M168.9,9.9c-0.9,0-0.9,0.8-0.9,1.9c0,1.1,0.1,1.8,0.9,1.8c0.8,0,0.7-0.7,0.7-1.8
		C169.6,10.7,169.7,9.9,168.9,9.9z"/>
	<path class="st2" d="M178.4,10.3c-0.5-0.2-0.8-0.3-1.5-0.3c-0.8,0-1.6,0.4-1.6,1.8c0,1.3,0.3,1.8,1.9,1.8c0.6,0,0.9,0,1.4-0.1
		l0.3,1.5c-0.6,0.2-1.2,0.2-1.9,0.2c-2.8,0-3.7-1-3.7-3.4c0-2,1.4-3.4,3.6-3.4c1,0,1.6,0.2,2.1,0.5L178.4,10.3z"/>
	<path class="st2" d="M183.2,15.2c-2.2,0-2.8-1.3-2.8-3.4c0-2.2,0.8-3.5,2.9-3.5c2.3,0,2.8,1.3,2.8,3.4
		C186.1,14,185.2,15.2,183.2,15.2z M183.3,9.9c-0.9,0-0.9,0.8-0.9,1.9c0,1.1,0.1,1.8,0.9,1.8c0.8,0,0.7-0.7,0.7-1.8
		C184,10.7,184.1,9.9,183.3,9.9z"/>
	<path class="st2" d="M187.5,15.1v-1.6h2v-6h-1.8V6h3.8v7.5h2v1.6H187.5z"/>
</g>
<g>
	<path class="st2" d="M214.7,25.2c0-0.7,0.1-1.4,0.2-1.5l0.5,0.1c0,0.1-0.2,0.8-0.2,1.2c0,0.9,0.2,1.6,1.4,1.6h0.6
		c-0.3-0.3-0.5-0.8-0.5-1.3c0-1,0.3-2.1,2.5-2.1c1.8,0,2.6,1,2.6,2.2c0,0.6-0.1,1.2-0.2,1.6h-5.2C215.3,27.2,214.7,26.4,214.7,25.2z
		 M221.3,26.7c0-0.3,0.1-0.6,0.1-1.1c0-1.3-1-1.7-2.2-1.7c-1.4,0-2,0.5-2,1.6c0,0.6,0.4,1.1,0.5,1.3L221.3,26.7z"/>
	<path class="st2" d="M221,33c0.2-0.3,0.4-0.7,0.4-1.2c0-0.6-0.5-1.1-0.8-1.4h-3.3v1.8h-0.5v-3.7h0.5v1.4h4v-1.4h0.5v1.8h-0.6
		c0.3,0.2,0.7,0.7,0.7,1.4c0,0.8-0.3,1.2-0.4,1.4L221,33z"/>
	<path class="st2" d="M216.8,38.1c0-0.4,0.2-0.8,0.6-0.9c-0.1-0.2-0.7-0.7-0.7-1.8c0-0.8,0.5-1.3,1.4-1.3c1.2,0,1.5,1.1,1.5,1.8
		l0,1.3h0.7c0.9,0,1-0.4,1-1.4c0-0.4-0.2-1-0.2-1.2l0.4-0.1c0.1,0.1,0.3,0.7,0.3,1.5c0,1-0.3,1.6-1.3,1.6h-2.9
		c-0.4,0-0.5,0.3-0.5,0.5L216.8,38.1z M219.2,37.2l-0.1-1.3c0-0.9-0.5-1.3-1-1.3c-0.8,0-1,0.4-1,1c0,0.7,0.6,1.5,0.6,1.6H219.2z"/>
	<path class="st2" d="M216.8,42.9h0.5c-0.3-0.3-0.6-0.9-0.6-1.4c0-0.9,0.3-2,2.5-2c1.7,0,2.6,1,2.6,2.2c0,0.5,0,0.8-0.1,1.2h1.9v0.5
		h-6.8V42.9z M221.2,42.9c0.1-0.3,0.2-0.6,0.2-1.2c0-1.3-1.1-1.7-2.2-1.7c-1.4,0-2,0.6-2,1.5c0,0.5,0.5,1.2,0.6,1.4H221.2z"/>
	<path class="st2" d="M216.8,48.3h0.6c-0.3-0.4-0.7-1-0.7-1.8c0-1.3,1.1-1.4,1.9-1.4h3.2v0.5h-3c-0.8,0-1.5,0-1.5,1
		c0,0.7,0.6,1.5,0.7,1.7h3.8v0.5h-4.9V48.3z"/>
	<path class="st2" d="M216.8,54.3c0-0.4,0.2-0.8,0.6-0.9c-0.1-0.2-0.7-0.7-0.7-1.8c0-0.8,0.5-1.3,1.4-1.3c1.2,0,1.5,1.1,1.5,1.8
		l0,1.3h0.7c0.9,0,1-0.4,1-1.4c0-0.4-0.2-1-0.2-1.2l0.4-0.1c0.1,0.1,0.3,0.7,0.3,1.5c0,1-0.3,1.6-1.3,1.6h-2.9
		c-0.4,0-0.5,0.3-0.5,0.5L216.8,54.3z M219.2,53.4l-0.1-1.3c0-0.9-0.5-1.3-1-1.3c-0.8,0-1,0.4-1,1c0,0.7,0.6,1.5,0.6,1.6H219.2z"/>
	<path class="st2" d="M216.7,58.2c0-0.9,0.2-1.6,1.3-1.6h3.2v-1.2h0.5v1.2h1v0.5h-1v2.8h-0.5v-2.8h-3.1c-0.8,0-1,0.3-1,1.1
		c0,0.6,0.1,1.1,0.3,1.6l-0.4,0.1C216.9,59.5,216.7,58.9,216.7,58.2z"/>
	<path class="st2" d="M216.8,61.3h0.5v1.9h4v-1.7h0.4v2.2h-4.5v1.9h-0.5V61.3z M222.8,63.4l0.5-0.5l0.5,0.5l-0.5,0.5L222.8,63.4z"/>
	<path class="st2" d="M216.7,68.5c0-1.3,0.8-2.1,2.5-2.1c1.7,0,2.6,0.9,2.6,2.2c0,1.4-0.9,2.1-2.6,2.1
		C217.5,70.6,216.7,69.7,216.7,68.5z M219.3,70.1c0.9,0,2.1-0.3,2.1-1.6c0-1.3-1.2-1.6-2.2-1.6c-1.1,0-2.1,0.4-2.1,1.6
		C217.2,69.8,218.2,70.1,219.3,70.1L219.3,70.1z"/>
	<path class="st2" d="M216.8,75.3h3.1c0.9,0,1.5-0.1,1.5-1.1c0-0.7-0.5-1.4-0.7-1.6h-3.9V72h4.9v0.5h-0.6c0.3,0.4,0.7,0.9,0.7,1.7
		c0,1.4-1.1,1.5-1.8,1.5h-3.2V75.3z"/>
</g>
<path class="st0" d="M298.6,49.1h-56.2c-3.2,0-5.9-2.6-5.9-5.9V34c0-3.2,2.6-5.9,5.9-5.9h56.2"/>
<path class="st7" d="M298.6,49.1"/>
<path class="st7" d="M298.6,28.1"/>
<g>
	<path class="st1" d="M246.6,42.7c-1.3,0-3,0.1-3-2.2v-3h-1.3V36h1.3v-1.3h2V36h2.4v1.5h-2.4v3c0,0.5,0.4,0.5,1,0.5
		c0.4,0,1.5-0.1,1.5-0.1l0.2,1.5C247.8,42.6,247.1,42.7,246.6,42.7z"/>
	<path class="st1" d="M255.5,42.6c-0.9,0-2,0-2.2-0.7c-0.3,0.4-0.7,0.7-1.5,0.7c-1.4,0-2.2-0.6-2.2-1.9c0-1.7,1.5-1.9,2.8-1.9h0.7
		v-0.6c0-0.6-0.4-0.7-1.2-0.7c-0.6,0-1,0.1-1.6,0.2l-0.4-1.5c0.5-0.2,1.3-0.4,2.3-0.4c1.4,0,2.8,0.1,2.8,2v3c0,0.2,0.2,0.3,0.5,0.3
		L255.5,42.6z M253.1,39.9l-0.5,0c-1,0-1,0.4-1,0.7c0,0.3,0.2,0.5,0.5,0.5c0.4,0,0.7-0.1,1-0.2L253.1,39.9z"/>
	<path class="st1" d="M259.3,42.7c-0.9,0-1.7-0.1-2.4-0.3l0.2-1.5c0.9,0.1,1.5,0.2,2,0.2c1,0,1.4-0.2,1.4-0.4c0-0.8-3.5-0.1-3.5-2.7
		c0-1.4,1.6-2.1,3-2.1c0.8,0,1.5,0.1,2.2,0.3l-0.3,1.5c-0.6-0.1-1.1-0.2-1.8-0.2c-0.7,0-1.1,0.2-1.1,0.4c0,0.9,3.5,0.4,3.5,2.7
		C262.5,42.3,260.4,42.7,259.3,42.7z"/>
	<path class="st1" d="M267.7,42.5l-1.4-2.9v2.9h-2v-9h2v4.9l1.6-2.4h2.1l-2,2.8l2.1,3.7H267.7z"/>
	<path class="st1" d="M270.5,44.9v-1.6h7.2v1.6H270.5z"/>
	<path class="st1" d="M278.5,42.5v-1.6h1.8v-4.9l-1.8,0.1v-1.3l3.7-1v7h1.8v1.6H278.5z"/>
</g>
<path class="st3" d="M252.7,81.2h-12.2c-2.1,0-3.9-1.7-3.9-3.9V58.5c0-2.1,1.7-3.9,3.9-3.9h12.2c2.1,0,3.9,1.7,3.9,3.9v18.8
	C256.6,79.5,254.8,81.2,252.7,81.2z"/>
<path class="st3" d="M278.5,81.2h-12.2c-2.1,0-3.9-1.7-3.9-3.9V58.5c0-2.1,1.7-3.9,3.9-3.9h12.2c2.1,0,3.9,1.7,3.9,3.9v18.8
	C282.3,79.5,280.6,81.2,278.5,81.2z"/>
<path class="st3" d="M298.6,81.2H292c-2.1,0-3.9-1.7-3.9-3.9V58.5c0-2.1,1.7-3.9,3.9-3.9h6.6"/>
<g>
	<line class="st1" x1="252.3" y1="67.9" x2="268" y2="67.9"/>
	<g>
		<line class="st4" x1="252.3" y1="67.9" x2="266.9" y2="67.9"/>
		<g>
			<polygon class="st2" points="264.9,69.6 266.6,67.9 264.9,66.3 266.4,66.3 268,67.9 266.4,69.6 			"/>
		</g>
	</g>
</g>
<rect x="295.9" y="1.5" class="st8" width="1.4" height="20"/>
<rect x="292.2" y="1.5" class="st8" width="1.4" height="20"/>
<rect x="287.7" y="1.5" class="st8" width="1.4" height="20"/>
<rect x="295.9" y="28.6" class="st8" width="1.4" height="20"/>
<rect x="292.2" y="28.6" class="st8" width="1.4" height="20"/>
<rect x="287.7" y="28.6" class="st8" width="1.4" height="20"/>
<rect x="295.9" y="55.2" class="st8" width="1.4" height="25.5"/>
<rect x="292.2" y="55.2" class="st8" width="1.4" height="25.5"/>
<g>
	<line class="st1" x1="277.2" y1="67.9" x2="293" y2="67.9"/>
	<g>
		<line class="st4" x1="277.2" y1="67.9" x2="291.8" y2="67.9"/>
		<g>
			<polygon class="st2" points="289.8,69.6 291.5,67.9 289.8,66.3 291.3,66.3 293,67.9 291.3,69.6 			"/>
		</g>
	</g>
</g>
<g>
	<g>
		<path class="st4" d="M294.5,79.8c-4,4.6-11.1,7.7-22.2,7.7c-15.1,0-23.3-5.7-26.4-13.4"/>
		<g>
			<polygon class="st2" points="248.3,75.3 246.1,74.4 245.1,76.5 244.6,75.2 245.6,73 247.8,74 			"/>
		</g>
	</g>
</g>
<line class="st9" x1="117.1" y1="11.7" x2="127.9" y2="11.7"/>
<g>
	<path class="st10" d="M18.4,14v-2.7c0-0.7,0-1.4-0.5-1.4c-0.3,0-0.6,0.4-0.7,0.6c0,0.2,0,0.4,0,0.6V14h-0.4v-2.9
		c0-0.6,0-1.2-0.5-1.2c-0.3,0-0.7,0.5-0.8,0.7V14H15V9.7h0.4v0.5c0.2-0.3,0.4-0.6,0.8-0.6c0.5,0,0.7,0.3,0.7,0.6
		c0.2-0.3,0.4-0.6,0.9-0.6c0.9,0,0.9,0.9,0.9,1.6V14H18.4z"/>
	<path class="st10" d="M22.9,14v-0.5c-0.4,0.2-0.9,0.6-1.6,0.6c-1.2,0-1.3-1-1.3-1.6V9.7h0.4v2.7c0,0.7,0,1.4,0.9,1.4
		c0.6,0,1.3-0.5,1.5-0.6V9.7h0.4V14H22.9z"/>
	<path class="st10" d="M24.6,14v-0.4h1.7V8.4h-1.5V8h2v5.6h1.7V14H24.6z"/>
	<path class="st10" d="M31.7,14.1c-0.8,0-1.4-0.2-1.4-1.2v-2.9h-1V9.7h1V8.8h0.4v0.9h2.5v0.4h-2.5v2.7c0,0.7,0.2,0.9,1,0.9
		c0.5,0,1-0.1,1.4-0.3l0.1,0.4C32.9,13.9,32.3,14.1,31.7,14.1z"/>
	<path class="st10" d="M34.4,14v-0.4h1.7v-3.6h-1.5V9.7h2v4h1.7V14H34.4z M36.3,8.7l-0.4-0.4l0.4-0.4l0.4,0.4L36.3,8.7z"/>
	<path class="st10" d="M40.6,14.1c-0.4,0-0.8,0-1-0.1v1.8h-0.4V9.7h0.4V10c0.3-0.2,0.8-0.4,1.3-0.4c1.1,0,1.7,0.7,1.7,2.1
		C42.6,13.6,41.6,14.1,40.6,14.1z M42.2,11.9c0-1-0.2-1.9-1.3-1.9c-0.5,0-1.1,0.4-1.2,0.5v3.2c0.2,0,0.4,0.1,1,0.1
		C41.6,13.7,42.1,12.9,42.2,11.9L42.2,11.9z"/>
	<path class="st10" d="M43.8,14v-0.4h1.7V8.4H44V8h2v5.6h1.7V14H43.8z"/>
	<path class="st10" d="M49.2,11.9c0,1.6,0.8,1.8,1.8,1.8c0.3,0,0.9-0.1,1-0.1l0.1,0.4c-0.1,0.1-0.6,0.2-1.3,0.2
		c-1.2,0-2.1-0.5-2.1-2.2c0-1.8,0.9-2.4,2-2.4c1,0,1.6,0.7,1.6,2.2v0.2H49.2z M50.6,9.9c-0.7,0-1.3,0.5-1.4,1.6h2.6
		C51.8,10.5,51.4,9.9,50.6,9.9z"/>
	<path class="st10" d="M60.5,14.1c-0.8,0-1.4-0.2-1.4-1.2v-2.9h-1V9.7h1V8.8h0.4v0.9H62v0.4h-2.5v2.7c0,0.7,0.2,0.9,1,0.9
		c0.5,0,1-0.1,1.4-0.3l0.1,0.4C61.7,13.9,61.1,14.1,60.5,14.1z"/>
	<path class="st10" d="M66.6,14.1c-0.3,0-0.7-0.1-0.8-0.6c-0.2,0.1-0.7,0.6-1.6,0.6c-0.7,0-1.2-0.4-1.2-1.2c0-1.1,1-1.3,1.6-1.3
		l1.1,0v-0.7c0-0.8-0.4-0.9-1.2-0.9c-0.4,0-0.9,0.2-1,0.2l-0.1-0.4c0.1-0.1,0.7-0.2,1.3-0.2c0.9,0,1.5,0.3,1.5,1.1v2.6
		c0,0.4,0.2,0.5,0.4,0.5L66.6,14.1z M65.8,11.9l-1.2,0c-0.8,0-1.2,0.4-1.2,0.9c0,0.7,0.3,0.9,0.9,0.9c0.6,0,1.4-0.5,1.4-0.6V11.9z"
		/>
	<path class="st10" d="M69.5,14.1c-0.7,0-1.1-0.1-1.4-0.2l0.1-0.4c0.3,0.1,0.7,0.3,1.3,0.3c0.7,0,1.4-0.1,1.4-0.8
		c0-1.1-2.7-0.8-2.7-2.3c0-0.8,0.7-1.1,1.5-1.1c0.5,0,1,0.1,1.3,0.2l-0.1,0.4c-0.3-0.1-0.7-0.2-1.2-0.2c-0.6,0-1,0.2-1,0.7
		c0,1.2,2.7,0.8,2.7,2.3C71.3,13.9,70.2,14.1,69.5,14.1z"/>
	<path class="st10" d="M73,14V8h0.4v6H73z M75.8,14l-2.1-2.3l2.1-2.1h0.5l-2.1,2l2.1,2.3H75.8z"/>
	<path class="st10" d="M79.1,14.1c-0.7,0-1.1-0.1-1.4-0.2l0.1-0.4c0.3,0.1,0.7,0.3,1.3,0.3c0.7,0,1.4-0.1,1.4-0.8
		c0-1.1-2.7-0.8-2.7-2.3c0-0.8,0.7-1.1,1.5-1.1c0.5,0,1,0.1,1.3,0.2l-0.1,0.4c-0.3-0.1-0.7-0.2-1.2-0.2c-0.6,0-1,0.2-1,0.7
		c0,1.2,2.7,0.8,2.7,2.3C80.9,13.9,79.8,14.1,79.1,14.1z"/>
	<path class="st10" d="M88.2,15.8c-0.6,0-1.1-0.2-1.4-0.3l0.2-0.4c0.3,0.1,0.8,0.3,1.3,0.3c0.7,0,1.1-0.3,1.1-0.9v-4.4h-2.3V9.7h2.7
		v4.8C89.8,15.5,88.9,15.8,88.2,15.8z M89.6,8.7l-0.4-0.4l0.4-0.4L90,8.3L89.6,8.7z"/>
	<path class="st10" d="M93.7,14.1c-1.2,0-1.9-0.8-1.9-2.2c0-1.5,0.8-2.3,1.9-2.3c1.2,0,1.9,0.8,1.9,2.3
		C95.6,13.4,94.8,14.1,93.7,14.1z M95.1,11.8c0-0.8-0.3-1.9-1.4-1.9c-1.1,0-1.5,1.1-1.5,1.9c0,1,0.3,1.9,1.5,1.9
		C94.8,13.7,95.1,12.8,95.1,11.8L95.1,11.8z"/>
	<path class="st10" d="M96.8,14v-0.4h1.7v-3.6H97V9.7h2v4h1.7V14H96.8z M98.7,8.7l-0.4-0.4l0.4-0.4l0.4,0.4L98.7,8.7z"/>
	<path class="st10" d="M104.5,14v-2.7c0-0.8-0.1-1.4-1-1.4c-0.6,0-1.3,0.5-1.5,0.6V14h-0.4V9.7h0.4v0.5c0.3-0.2,0.8-0.6,1.6-0.6
		c1.3,0,1.3,0.9,1.3,1.6V14H104.5z"/>
	<path class="st10" d="M106.8,11.9c0,1.6,0.8,1.8,1.8,1.8c0.3,0,0.9-0.1,1-0.1l0.1,0.4c-0.1,0.1-0.6,0.2-1.3,0.2
		c-1.2,0-2.1-0.5-2.1-2.2c0-1.8,0.9-2.4,2-2.4c1,0,1.6,0.7,1.6,2.2v0.2H106.8z M108.2,9.9c-0.7,0-1.3,0.5-1.4,1.6h2.6
		C109.4,10.5,108.9,9.9,108.2,9.9z"/>
	<path class="st10" d="M114.1,14v-0.4c-0.3,0.3-0.8,0.5-1.2,0.5c-0.8,0-1.8-0.3-1.8-2.2c0-1.5,0.9-2.3,2-2.3c0.4,0,0.7,0,1,0.1V8
		h0.4v6H114.1z M114.1,10.1c-0.2-0.1-0.6-0.2-1-0.2c-1.1,0-1.5,1-1.5,2c0,1.2,0.5,1.8,1.3,1.8c0.5,0,1.1-0.4,1.2-0.6V10.1z"/>
	<path class="st10" d="M11.8,23.7c-1,0-1.3-0.1-1.4-0.2v-5.9h0.4v1.9c0.2-0.1,0.7-0.3,1.3-0.3c1.1,0,1.7,0.8,1.7,2.1
		C13.8,23.2,12.8,23.7,11.8,23.7z M13.4,21.5c0-0.9-0.2-1.9-1.3-1.9c-0.6,0-1,0.2-1.2,0.3v3.3c0.2,0.1,0.5,0.1,1,0.1
		C12.8,23.3,13.3,22.5,13.4,21.5L13.4,21.5z"/>
	<path class="st10" d="M16.4,25.4H16l0.7-1.8h-0.2l-1.7-4.4h0.5l1.6,4.1h0l1.7-4.1H19L16.4,25.4z"/>
	<path class="st10" d="M26.4,25.4c-0.7,0-1.2-0.1-1.7-0.2l0.2-1c0.5,0.1,1,0.2,1.3,0.2c0.6,0,0.8-0.1,0.8-0.7v-0.1
		c-0.1,0.2-0.4,0.3-0.7,0.3c-0.9,0-1.8-0.2-1.8-2.2c0-1.5,0.9-2.3,2.2-2.3c0.5,0,0.8,0.1,1.6,0.2v4.3C28.3,25,27.3,25.4,26.4,25.4z
		 M27,20.3c-0.1,0-0.1,0-0.3,0c-0.8,0-0.8,0.5-0.8,1.2c0,0.9,0.2,1.2,0.8,1.2c0.2,0,0.3,0,0.4-0.1V20.3z"/>
	<path class="st10" d="M33.3,20.4c-0.3,0-0.4,0-0.6,0c-0.4,0-0.8,0.1-1,0.3v1.9h1.4v1.1h-3.8v-1.1h1v-2.3h-1v-1h2.3v0.6
		c0.2-0.3,0.5-0.7,1.3-0.7c0.3,0,0.3,0,0.5,0.1L33.3,20.4z"/>
	<path class="st10" d="M38.1,23.7c-0.6,0-1.3,0-1.5-0.5c-0.2,0.2-0.5,0.5-1,0.5c-1,0-1.5-0.4-1.5-1.3c0-1.1,1-1.3,1.9-1.3h0.4v-0.4
		c0-0.4-0.2-0.4-0.8-0.4c-0.4,0-0.7,0.1-1.1,0.2l-0.3-1c0.3-0.1,0.9-0.3,1.5-0.3c0.9,0,1.9,0.1,1.9,1.3v2c0,0.1,0.1,0.2,0.4,0.2
		L38.1,23.7z M36.5,21.8l-0.3,0c-0.7,0-0.7,0.3-0.7,0.5c0,0.2,0.1,0.3,0.4,0.3c0.3,0,0.4-0.1,0.6-0.1L36.5,21.8z"/>
	<path class="st10" d="M41.4,23.6v-0.4c-0.2,0.2-0.5,0.4-0.9,0.4c-0.8,0-1.6-0.4-1.6-2.3c0-1.5,0.7-2.2,2.1-2.2c0.2,0,0.3,0,0.4,0
		v-1.6h1.3v6H41.4z M41.4,20.2c-0.1,0-0.2-0.1-0.4-0.1c-0.7,0-0.8,0.5-0.8,1.3c0,1,0.2,1.2,0.6,1.2c0.2,0,0.4-0.1,0.6-0.1V20.2z"/>
	<path class="st10" d="M46.2,23.6v-0.4c-0.2,0.2-0.5,0.5-1.1,0.5c-1.4,0-1.3-0.7-1.3-1.7v-2.7h1.3v2.6c0,0.6,0.1,0.7,0.4,0.7
		c0.3,0,0.5-0.1,0.7-0.2v-3.1h1.3v4.4H46.2z"/>
	<path class="st10" d="M52.5,23.7c-0.6,0-1.3,0-1.5-0.5c-0.2,0.2-0.5,0.5-1,0.5c-1,0-1.5-0.4-1.5-1.3c0-1.1,1-1.3,1.9-1.3h0.4v-0.4
		c0-0.4-0.2-0.4-0.8-0.4c-0.4,0-0.7,0.1-1.1,0.2l-0.3-1c0.3-0.1,0.9-0.3,1.5-0.3c0.9,0,1.9,0.1,1.9,1.3v2c0,0.1,0.1,0.2,0.4,0.2
		L52.5,23.7z M50.9,21.8l-0.3,0c-0.7,0-0.7,0.3-0.7,0.5c0,0.2,0.1,0.3,0.4,0.3c0.3,0,0.4-0.1,0.6-0.1L50.9,21.8z"/>
	<path class="st10" d="M56.2,23.7c-0.8,0-2,0-2-1.4v-2h-0.9v-1h0.9v-0.9h1.3v0.9h1.6v1h-1.6v2c0,0.3,0.3,0.3,0.6,0.3
		c0.3,0,1-0.1,1-0.1l0.1,1C57,23.7,56.5,23.7,56.2,23.7z"/>
	<path class="st10" d="M58.3,23.6v-1.1h1.2v-2.3h-1.2v-1h2.5v3.3h1.2v1.1H58.3z M60.2,18.8l-0.9-0.9l0.9-0.9l0.9,0.9L60.2,18.8z"/>
	<path class="st10" d="M64.8,23.7c-1.4,0-1.9-0.9-1.9-2.2c0-1.4,0.6-2.3,1.9-2.3c1.6,0,1.9,0.9,1.9,2.3
		C66.8,22.9,66.2,23.7,64.8,23.7z M64.9,20.2c-0.6,0-0.6,0.5-0.6,1.2c0,0.8,0,1.2,0.6,1.2c0.5,0,0.5-0.5,0.5-1.2
		C65.4,20.7,65.4,20.2,64.9,20.2z"/>
	<path class="st10" d="M70.2,23.6V21c0-0.6-0.1-0.7-0.4-0.7c-0.4,0-0.5,0.1-0.7,0.2v3.1h-1.3v-4.4h1.3v0.4c0.2-0.2,0.5-0.6,1.1-0.6
		c1.4,0,1.3,0.8,1.3,1.8v2.7H70.2z"/>
	<path class="st10" d="M79.7,23.7c-1.5,0-2.1-0.7-2.1-2.2c0-1.4,0.8-2.3,2-2.3c0.7,0,1.1,0.2,1.5,0.4l-0.2,0.3
		c-0.4-0.2-0.7-0.3-1.3-0.3c-0.9,0-1.5,0.7-1.5,1.9c0,1.3,0.4,1.9,1.7,1.9c0.5,0,0.9-0.1,1.1-0.2l0.1,0.4
		C80.8,23.6,80.5,23.7,79.7,23.7z"/>
	<path class="st10" d="M86.1,19.9c-0.3-0.1-0.6-0.3-1.1-0.3c-0.6,0-1,0.4-1.2,0.7v2.9h1.6v0.4h-3.2v-0.4h1.2v-3.6h-1.2v-0.4h1.6v0.5
		c0.2-0.3,0.6-0.6,1.2-0.6c0.7,0,1,0.3,1.2,0.4L86.1,19.9z"/>
	<path class="st10" d="M87.2,23.6v-0.4h1.7v-3.6h-1.5v-0.4h2v4H91v0.4H87.2z M89.1,18.3l-0.4-0.4l0.4-0.4l0.4,0.4L89.1,18.3z"/>
	<path class="st10" d="M94.1,23.7c-0.8,0-1.4-0.2-1.4-1.2v-2.9h-1v-0.4h1v-0.9h0.4v0.9h2.5v0.4h-2.5v2.7c0,0.7,0.2,0.9,1,0.9
		c0.5,0,1-0.1,1.4-0.3l0.1,0.4C95.3,23.5,94.7,23.7,94.1,23.7z"/>
	<path class="st10" d="M97.2,21.5c0,1.6,0.8,1.8,1.8,1.8c0.3,0,0.9-0.1,1-0.1l0.1,0.4c-0.1,0.1-0.6,0.2-1.3,0.2
		c-1.2,0-2.1-0.5-2.1-2.2c0-1.8,0.9-2.4,2-2.4c1,0,1.6,0.7,1.6,2.2v0.2H97.2z M98.6,19.5c-0.7,0-1.3,0.5-1.4,1.6h2.6
		C99.8,20.1,99.3,19.5,98.6,19.5z"/>
	<path class="st10" d="M105.3,19.9c-0.3-0.1-0.6-0.3-1.1-0.3c-0.6,0-1,0.4-1.2,0.7v2.9h1.6v0.4h-3.2v-0.4h1.2v-3.6h-1.2v-0.4h1.6
		v0.5c0.2-0.3,0.6-0.6,1.2-0.6c0.7,0,1,0.3,1.2,0.4L105.3,19.9z"/>
	<path class="st10" d="M106.4,23.6v-0.4h1.7v-3.6h-1.5v-0.4h2v4h1.7v0.4H106.4z M108.3,18.3l-0.4-0.4l0.4-0.4l0.4,0.4L108.3,18.3z"
		/>
	<path class="st10" d="M114.6,23.7c-0.3,0-0.7-0.1-0.8-0.6c-0.2,0.1-0.7,0.6-1.6,0.6c-0.7,0-1.2-0.4-1.2-1.2c0-1.1,1-1.3,1.6-1.3
		l1.1,0v-0.7c0-0.8-0.4-0.9-1.2-0.9c-0.4,0-0.9,0.2-1,0.2l-0.1-0.4c0.1-0.1,0.7-0.2,1.3-0.2c0.9,0,1.5,0.3,1.5,1.1v2.6
		c0,0.4,0.2,0.5,0.4,0.5L114.6,23.7z M113.8,21.5l-1.2,0c-0.8,0-1.2,0.4-1.2,0.9c0,0.7,0.3,0.9,0.9,0.9c0.6,0,1.4-0.5,1.4-0.6V21.5z
		"/>
	<path class="st10" d="M9.3,27.5c-0.1,0-0.6-0.1-0.9-0.1c-0.7,0-1.2,0.2-1.2,1v0.4h1.9v0.4H7.2v3.6h1.9v0.4H5.5v-0.4h1.3v-3.6H5.5
		v-0.4h1.3v-0.4c0-1.2,0.8-1.4,1.6-1.4c0.3,0,0.8,0.1,1,0.1L9.3,27.5z"/>
	<path class="st10" d="M12.1,33.3c-1.2,0-1.9-0.8-1.9-2.2c0-1.5,0.8-2.3,1.9-2.3c1.2,0,1.9,0.8,1.9,2.3C14,32.6,13.2,33.3,12.1,33.3
		z M13.5,31c0-0.8-0.3-1.9-1.4-1.9c-1.1,0-1.5,1.1-1.5,1.9c0,1,0.3,1.9,1.5,1.9C13.2,32.9,13.5,32,13.5,31L13.5,31z"/>
	<path class="st10" d="M18.9,29.5c-0.3-0.1-0.6-0.3-1.1-0.3c-0.6,0-1,0.4-1.2,0.7v2.9h1.6v0.4H15v-0.4h1.2v-3.6H15v-0.4h1.6v0.5
		c0.2-0.3,0.6-0.6,1.2-0.6c0.7,0,1,0.3,1.2,0.4L18.9,29.5z"/>
	<path class="st10" d="M26.3,33.3c-0.7,0-1.1-0.1-1.4-0.2l0.1-0.4c0.3,0.1,0.7,0.3,1.3,0.3c0.7,0,1.4-0.1,1.4-0.8
		c0-1.1-2.7-0.8-2.7-2.3c0-0.8,0.7-1.1,1.5-1.1c0.5,0,1,0.1,1.3,0.2l-0.1,0.4c-0.3-0.1-0.7-0.2-1.2-0.2c-0.6,0-1,0.2-1,0.7
		c0,1.2,2.7,0.8,2.7,2.3C28.1,33.1,27,33.3,26.3,33.3z"/>
	<path class="st10" d="M32.5,33.2v-2.7c0-0.8-0.1-1.4-1-1.4c-0.5,0-1.3,0.5-1.5,0.6v3.5h-0.4v-6h0.4v2.2c0.3-0.2,0.8-0.6,1.6-0.6
		c1.3,0,1.3,0.9,1.3,1.6v2.8H32.5z"/>
	<path class="st10" d="M37.8,33.3c-0.3,0-0.7-0.1-0.8-0.6c-0.2,0.1-0.7,0.6-1.6,0.6c-0.7,0-1.2-0.4-1.2-1.2c0-1.1,1-1.3,1.6-1.3
		l1.1,0v-0.7c0-0.8-0.4-0.9-1.2-0.9c-0.4,0-0.9,0.2-1,0.2L34.7,29c0.1-0.1,0.7-0.2,1.3-0.2c0.9,0,1.5,0.3,1.5,1.1v2.6
		c0,0.4,0.2,0.5,0.4,0.5L37.8,33.3z M37,31.1l-1.2,0c-0.8,0-1.2,0.4-1.2,0.9c0,0.7,0.3,0.9,0.9,0.9c0.6,0,1.4-0.5,1.4-0.6V31.1z"/>
	<path class="st10" d="M40.6,33.3c-0.4,0-0.8,0-1-0.1V35h-0.4v-6.1h0.4v0.4c0.3-0.2,0.8-0.4,1.3-0.4c1.1,0,1.7,0.7,1.7,2.1
		C42.6,32.8,41.6,33.3,40.6,33.3z M42.2,31.1c0-1-0.2-1.9-1.3-1.9c-0.5,0-1.1,0.4-1.2,0.5v3.2c0.2,0,0.4,0.1,1,0.1
		C41.6,32.9,42.1,32.1,42.2,31.1L42.2,31.1z"/>
	<path class="st10" d="M44,33.2v-0.4h1.7v-3.6h-1.5v-0.4h2v4h1.7v0.4H44z M45.9,27.9l-0.4-0.4l0.4-0.4l0.4,0.4L45.9,27.9z"/>
	<path class="st10" d="M51.7,33.2v-2.7c0-0.8-0.1-1.4-1-1.4c-0.6,0-1.3,0.5-1.5,0.6v3.5h-0.4v-4.4h0.4v0.5c0.3-0.2,0.8-0.6,1.6-0.6
		c1.3,0,1.3,0.9,1.3,1.6v2.8H51.7z"/>
	<path class="st10" d="M55.2,35.1c-0.6,0-1.2-0.1-1.3-0.1l0.1-0.4c0.1,0,0.7,0.1,1.1,0.1c0.8,0,1.5-0.2,1.5-1.2v-0.6
		c-0.3,0.3-0.7,0.4-1.2,0.4c-0.9,0-1.9-0.3-1.9-2.2c0-1.6,0.9-2.3,2-2.3c0.5,0,1.1,0.1,1.5,0.2v4.6C57,34.6,56.3,35.1,55.2,35.1z
		 M56.5,29.3c-0.2,0-0.6-0.1-1-0.1c-1.1,0-1.5,0.9-1.5,1.9c0,1.3,0.5,1.8,1.4,1.8c0.5,0,0.9-0.3,1.1-0.5L56.5,29.3z"/>
	<path class="st10" d="M64.9,33.3c-1.2,0-1.9-0.8-1.9-2.2c0-1.5,0.8-2.3,1.9-2.3c1.2,0,1.9,0.8,1.9,2.3C66.8,32.6,66,33.3,64.9,33.3
		z M66.3,31c0-0.8-0.3-1.9-1.4-1.9c-1.1,0-1.5,1.1-1.5,1.9c0,1,0.3,1.9,1.5,1.9C66,32.9,66.3,32,66.3,31L66.3,31z"/>
	<path class="st10" d="M71.7,29.5c-0.3-0.1-0.6-0.3-1.1-0.3c-0.6,0-1,0.4-1.2,0.7v2.9H71v0.4h-3.2v-0.4H69v-3.6h-1.2v-0.4h1.6v0.5
		c0.2-0.3,0.6-0.6,1.2-0.6c0.7,0,1,0.3,1.2,0.4L71.7,29.5z"/>
	<path class="st10" d="M79.1,33.3c-0.7,0-1.1-0.1-1.4-0.2l0.1-0.4c0.3,0.1,0.7,0.3,1.3,0.3c0.7,0,1.4-0.1,1.4-0.8
		c0-1.1-2.7-0.8-2.7-2.3c0-0.8,0.7-1.1,1.5-1.1c0.5,0,1,0.1,1.3,0.2l-0.1,0.4c-0.3-0.1-0.7-0.2-1.2-0.2c-0.6,0-1,0.2-1,0.7
		c0,1.2,2.7,0.8,2.7,2.3C80.9,33.1,79.8,33.3,79.1,33.3z"/>
	<path class="st10" d="M82.8,31.1c0,1.6,0.8,1.8,1.8,1.8c0.3,0,0.9-0.1,1-0.1l0.1,0.4c-0.1,0.1-0.6,0.2-1.3,0.2
		c-1.2,0-2.1-0.5-2.1-2.2c0-1.8,0.9-2.4,2-2.4c1,0,1.6,0.7,1.6,2.2v0.2H82.8z M84.2,29.1c-0.7,0-1.3,0.5-1.4,1.6h2.6
		C85.4,29.7,84.9,29.1,84.2,29.1z"/>
	<path class="st10" d="M90.1,35v-1.9c-0.3,0.2-0.8,0.2-1.2,0.2c-0.8,0-1.8-0.3-1.8-2.3c0-1.5,0.9-2.3,2-2.3c0.6,0,1.1,0.1,1.5,0.2v6
		H90.1z M90.1,29.3c-0.2,0-0.6-0.1-1-0.1c-1.1,0-1.5,0.9-1.5,1.9c0,1.3,0.5,1.9,1.4,1.9c0.5,0,1-0.1,1.2-0.3V29.3z"/>
	<path class="st10" d="M94.9,33.2v-0.5c-0.4,0.2-0.9,0.6-1.6,0.6c-1.2,0-1.3-1-1.3-1.6v-2.8h0.4v2.7c0,0.7,0,1.4,0.9,1.4
		c0.6,0,1.3-0.5,1.5-0.6v-3.4h0.4v4.4H94.9z"/>
	<path class="st10" d="M97.2,31.1c0,1.6,0.8,1.8,1.8,1.8c0.3,0,0.9-0.1,1-0.1l0.1,0.4c-0.1,0.1-0.6,0.2-1.3,0.2
		c-1.2,0-2.1-0.5-2.1-2.2c0-1.8,0.9-2.4,2-2.4c1,0,1.6,0.7,1.6,2.2v0.2H97.2z M98.6,29.1c-0.7,0-1.3,0.5-1.4,1.6h2.6
		C99.8,29.7,99.3,29.1,98.6,29.1z"/>
	<path class="st10" d="M104.5,33.2v-2.7c0-0.8-0.1-1.4-1-1.4c-0.6,0-1.3,0.5-1.5,0.6v3.5h-0.4v-4.4h0.4v0.5c0.3-0.2,0.8-0.6,1.6-0.6
		c1.3,0,1.3,0.9,1.3,1.6v2.8H104.5z"/>
	<path class="st10" d="M108.5,33.3c-1.5,0-2.1-0.7-2.1-2.2c0-1.4,0.8-2.3,2-2.3c0.7,0,1.1,0.2,1.5,0.4l-0.2,0.3
		c-0.4-0.2-0.7-0.3-1.3-0.3c-0.9,0-1.5,0.7-1.5,1.9c0,1.3,0.4,1.9,1.7,1.9c0.5,0,0.9-0.1,1.1-0.2l0.1,0.4
		C109.6,33.2,109.3,33.3,108.5,33.3z"/>
	<path class="st10" d="M111.6,31.1c0,1.6,0.8,1.8,1.8,1.8c0.3,0,0.9-0.1,1-0.1l0.1,0.4c-0.1,0.1-0.6,0.2-1.3,0.2
		c-1.2,0-2.1-0.5-2.1-2.2c0-1.8,0.9-2.4,2-2.4c1,0,1.6,0.7,1.6,2.2v0.2H111.6z M113,29.1c-0.7,0-1.3,0.5-1.4,1.6h2.6
		C114.2,29.7,113.7,29.1,113,29.1z"/>
</g>
<line class="st9" x1="117.1" y1="11.7" x2="127.9" y2="11.7"/>
<g>
	<path class="st11" d="M17.3,69.2c-0.8,0-1.4-0.2-1.4-1.2v-2.9h-1v-0.4h1v-0.9h0.4v0.9h2.5v0.4h-2.5v2.7c0,0.7,0.2,0.9,1,0.9
		c0.5,0,1-0.1,1.4-0.3l0.1,0.4C18.5,69,17.9,69.2,17.3,69.2z"/>
	<path class="st11" d="M23.4,69.1c-0.3,0-0.7-0.1-0.8-0.6c-0.2,0.1-0.7,0.6-1.6,0.6c-0.7,0-1.2-0.4-1.2-1.2c0-1.1,1-1.3,1.6-1.3
		l1.1,0V66c0-0.8-0.4-0.9-1.2-0.9c-0.4,0-0.9,0.2-1,0.2l-0.1-0.4c0.1-0.1,0.7-0.2,1.3-0.2c0.9,0,1.5,0.3,1.5,1.1v2.6
		c0,0.4,0.2,0.5,0.4,0.5L23.4,69.1z M22.6,67l-1.2,0c-0.8,0-1.2,0.4-1.2,0.9c0,0.7,0.3,0.9,0.9,0.9c0.6,0,1.4-0.5,1.4-0.6V67z"/>
	<path class="st11" d="M26.3,69.2c-0.7,0-1.1-0.1-1.4-0.2l0.1-0.4c0.3,0.1,0.7,0.3,1.3,0.3c0.7,0,1.4-0.1,1.4-0.8
		c0-1.1-2.7-0.8-2.7-2.3c0-0.8,0.7-1.1,1.5-1.1c0.5,0,1,0.1,1.3,0.2l-0.1,0.4C27.4,65.1,27,65,26.5,65c-0.6,0-1,0.2-1,0.7
		c0,1.2,2.7,0.8,2.7,2.3C28.1,69,27,69.2,26.3,69.2z"/>
	<path class="st11" d="M29.8,69.1v-6h0.4v6H29.8z M32.6,69.1l-2.1-2.3l2.1-2.1h0.5l-2.1,2l2.1,2.3H32.6z"/>
	<path class="st11" d="M35.9,69.2c-0.7,0-1.1-0.1-1.4-0.2l0.1-0.4c0.3,0.1,0.7,0.3,1.3,0.3c0.7,0,1.4-0.1,1.4-0.8
		c0-1.1-2.7-0.8-2.7-2.3c0-0.8,0.7-1.1,1.5-1.1c0.5,0,1,0.1,1.3,0.2l-0.1,0.4C37,65.1,36.6,65,36.1,65c-0.6,0-1,0.2-1,0.7
		c0,1.2,2.7,0.8,2.7,2.3C37.7,69,36.6,69.2,35.9,69.2z"/>
	<path class="st11" d="M46.1,69.2c-1.5,0-2.1-0.7-2.1-2.2c0-1.4,0.8-2.3,2-2.3c0.7,0,1.1,0.2,1.5,0.4l-0.2,0.3
		c-0.4-0.2-0.7-0.3-1.3-0.3c-0.9,0-1.5,0.7-1.5,1.9c0,1.3,0.4,1.9,1.7,1.9c0.5,0,0.9-0.1,1.1-0.2l0.1,0.4
		C47.2,69,46.9,69.2,46.1,69.2z"/>
	<path class="st11" d="M50.5,69.2c-1.2,0-1.9-0.8-1.9-2.2c0-1.5,0.8-2.3,1.9-2.3c1.2,0,1.9,0.8,1.9,2.3
		C52.4,68.5,51.6,69.2,50.5,69.2z M51.9,66.9c0-0.8-0.3-1.9-1.4-1.9c-1.1,0-1.5,1.1-1.5,1.9c0,1,0.3,1.9,1.5,1.9
		C51.6,68.8,51.9,67.8,51.9,66.9L51.9,66.9z"/>
	<path class="st11" d="M56.5,69.1v-2.7c0-0.8-0.1-1.4-1-1.4c-0.6,0-1.3,0.5-1.5,0.6v3.5h-0.4v-4.4h0.4v0.5c0.3-0.2,0.8-0.6,1.6-0.6
		c1.3,0,1.3,0.9,1.3,1.6v2.8H56.5z"/>
	<path class="st11" d="M59.9,69.2c-0.7,0-1.1-0.1-1.4-0.2l0.1-0.4c0.3,0.1,0.7,0.3,1.3,0.3c0.7,0,1.4-0.1,1.4-0.8
		c0-1.1-2.7-0.8-2.7-2.3c0-0.8,0.7-1.1,1.5-1.1c0.5,0,1,0.1,1.3,0.2l-0.1,0.4C61,65.1,60.6,65,60.1,65c-0.6,0-1,0.2-1,0.7
		c0,1.2,2.7,0.8,2.7,2.3C61.7,69,60.6,69.2,59.9,69.2z"/>
	<path class="st11" d="M63.2,69.1v-0.4h1.7v-3.6h-1.5v-0.4h2v4H67v0.4H63.2z M65.1,63.8l-0.4-0.4l0.4-0.4l0.4,0.4L65.1,63.8z"/>
	<path class="st11" d="M69.5,69.2c-0.7,0-1.1-0.1-1.4-0.2l0.1-0.4c0.3,0.1,0.7,0.3,1.3,0.3c0.7,0,1.4-0.1,1.4-0.8
		c0-1.1-2.7-0.8-2.7-2.3c0-0.8,0.7-1.1,1.5-1.1c0.5,0,1,0.1,1.3,0.2l-0.1,0.4c-0.3-0.1-0.7-0.2-1.2-0.2c-0.6,0-1,0.2-1,0.7
		c0,1.2,2.7,0.8,2.7,2.3C71.3,69,70.2,69.2,69.5,69.2z"/>
	<path class="st11" d="M74.9,69.2c-0.8,0-1.4-0.2-1.4-1.2v-2.9h-1v-0.4h1v-0.9H74v0.9h2.5v0.4H74v2.7c0,0.7,0.2,0.9,1,0.9
		c0.5,0,1-0.1,1.4-0.3l0.1,0.4C76.1,69,75.5,69.2,74.9,69.2z"/>
	<path class="st11" d="M84.1,69.2c-1.2,0-1.9-0.8-1.9-2.2c0-1.5,0.8-2.3,1.9-2.3c1.2,0,1.9,0.8,1.9,2.3C86,68.5,85.2,69.2,84.1,69.2
		z M85.5,66.9c0-0.8-0.3-1.9-1.4-1.9c-1.1,0-1.5,1.1-1.5,1.9c0,1,0.3,1.9,1.5,1.9C85.2,68.8,85.5,67.8,85.5,66.9L85.5,66.9z"/>
	<path class="st11" d="M90.9,63.4c-0.1,0-0.6-0.1-0.9-0.1c-0.7,0-1.2,0.2-1.2,1v0.4h1.9v0.4h-1.9v3.6h1.9v0.4h-3.6v-0.4h1.3v-3.6
		h-1.3v-0.4h1.3v-0.4c0-1.2,0.8-1.4,1.6-1.4c0.3,0,0.8,0.1,1,0.1L90.9,63.4z"/>
	<path class="st11" d="M96.6,69.1v-0.4h1.7V64l-1.6,0.6v-0.4l2-0.8v5.3h1.7v0.4H96.6z"/>
	<path class="st11" d="M108.1,69.2c-1.2,0-1.9-0.8-1.9-2.2c0-1.5,0.8-2.3,1.9-2.3c1.2,0,1.9,0.8,1.9,2.3
		C110,68.5,109.2,69.2,108.1,69.2z M109.5,66.9c0-0.8-0.3-1.9-1.4-1.9c-1.1,0-1.5,1.1-1.5,1.9c0,1,0.3,1.9,1.5,1.9
		C109.2,68.8,109.5,67.8,109.5,66.9L109.5,66.9z"/>
	<path class="st11" d="M114.9,65.4c-0.3-0.1-0.6-0.3-1.1-0.3c-0.6,0-1,0.4-1.2,0.7v2.9h1.6v0.4H111v-0.4h1.2v-3.6H111v-0.4h1.6v0.5
		c0.2-0.3,0.6-0.6,1.2-0.6c0.7,0,1,0.3,1.2,0.4L114.9,65.4z"/>
	<path class="st11" d="M23.2,78.7V76c0-0.7,0-1.4-0.5-1.4c-0.3,0-0.6,0.4-0.7,0.6c0,0.2,0,0.4,0,0.6v2.8h-0.4v-2.9
		c0-0.6,0-1.2-0.5-1.2c-0.3,0-0.7,0.5-0.8,0.7v3.4h-0.4v-4.4h0.4v0.5c0.2-0.3,0.4-0.6,0.8-0.6c0.5,0,0.7,0.3,0.7,0.6
		c0.2-0.3,0.4-0.6,0.9-0.6c0.9,0,0.9,0.9,0.9,1.6v2.8H23.2z"/>
	<path class="st11" d="M28.2,78.8c-0.3,0-0.7-0.1-0.8-0.6c-0.2,0.1-0.7,0.6-1.6,0.6c-0.7,0-1.2-0.4-1.2-1.2c0-1.1,1-1.3,1.6-1.3
		l1.1,0v-0.7c0-0.8-0.4-0.9-1.2-0.9c-0.4,0-0.9,0.2-1,0.2l-0.1-0.4c0.1-0.1,0.7-0.2,1.3-0.2c0.9,0,1.5,0.3,1.5,1.1v2.6
		c0,0.4,0.2,0.5,0.4,0.5L28.2,78.8z M27.4,76.6l-1.2,0c-0.8,0-1.2,0.4-1.2,0.9c0,0.7,0.3,0.9,0.9,0.9c0.6,0,1.4-0.5,1.4-0.6V76.6z"
		/>
	<path class="st11" d="M32.5,78.7V76c0-0.8-0.1-1.4-1-1.4c-0.6,0-1.3,0.5-1.5,0.6v3.5h-0.4v-4.4h0.4v0.5c0.3-0.2,0.8-0.6,1.6-0.6
		c1.3,0,1.3,0.9,1.3,1.6v2.8H32.5z"/>
	<path class="st11" d="M35.6,80.5h-0.4l0.7-1.8h-0.2L34,74.3h0.5l1.6,4.1h0l1.7-4.1h0.4L35.6,80.5z"/>
	<path class="st11" d="M45.4,78.8c-0.6,0-1.1,0-1.6-0.2l0.1-1c0.6,0.1,1,0.1,1.3,0.1c0.7,0,0.9-0.1,0.9-0.3c0-0.6-2.4-0.1-2.4-1.8
		c0-0.9,1-1.4,2-1.4c0.5,0,1,0.1,1.5,0.2l-0.2,1c-0.4-0.1-0.8-0.1-1.2-0.1c-0.5,0-0.7,0.1-0.7,0.3c0,0.6,2.3,0.2,2.3,1.8
		C47.5,78.5,46.2,78.8,45.4,78.8z"/>
	<path class="st11" d="M51.4,78.8c-0.8,0-2,0-2-1.4v-2h-0.9v-1h0.9v-0.9h1.3v0.9h1.6v1h-1.6v2c0,0.3,0.3,0.3,0.6,0.3
		c0.3,0,1-0.1,1-0.1l0.1,1C52.2,78.7,51.7,78.8,51.4,78.8z"/>
	<path class="st11" d="M57.3,78.7c-0.6,0-1.3,0-1.5-0.5c-0.2,0.2-0.5,0.5-1,0.5c-1,0-1.5-0.4-1.5-1.3c0-1.1,1-1.3,1.9-1.3h0.4v-0.4
		c0-0.4-0.2-0.4-0.8-0.4c-0.4,0-0.7,0.1-1.1,0.2l-0.3-1c0.3-0.1,0.9-0.3,1.5-0.3c0.9,0,1.9,0.1,1.9,1.3v2c0,0.1,0.1,0.2,0.4,0.2
		L57.3,78.7z M55.7,76.9l-0.3,0c-0.7,0-0.7,0.3-0.7,0.5c0,0.2,0.1,0.3,0.4,0.3c0.3,0,0.4-0.1,0.6-0.1L55.7,76.9z"/>
	<path class="st11" d="M60,80.5c-0.7,0-1.2-0.1-1.7-0.2l0.2-1c0.5,0.1,1,0.2,1.3,0.2c0.6,0,0.8-0.1,0.8-0.7v-0.1
		c-0.1,0.2-0.4,0.3-0.7,0.3c-0.9,0-1.8-0.2-1.8-2.2c0-1.5,0.9-2.3,2.2-2.3c0.5,0,0.8,0.1,1.6,0.2v4.3C61.9,80,60.9,80.5,60,80.5z
		 M60.6,75.4c-0.1,0-0.1,0-0.3,0c-0.8,0-0.8,0.5-0.8,1.2c0,0.9,0.2,1.2,0.8,1.2c0.2,0,0.3,0,0.4-0.1V75.4z"/>
	<path class="st11" d="M65.1,78.8c-1.3,0-2.1-0.4-2.1-2.2c0-1.8,0.7-2.4,2-2.4c1.4,0,1.7,1,1.7,2.3v0.5h-2.4c0,0.6,0.4,0.6,0.9,0.6
		c0.3,0,0.9,0,1.4-0.1l0.2,1C66.3,78.7,65.7,78.8,65.1,78.8z M64.9,75.2c-0.4,0-0.5,0.2-0.5,0.9h1C65.4,75.5,65.3,75.2,64.9,75.2z"
		/>
	<path class="st11" d="M69.4,78.8c-0.6,0-1.1,0-1.6-0.2l0.1-1c0.6,0.1,1,0.1,1.3,0.1c0.7,0,0.9-0.1,0.9-0.3c0-0.6-2.4-0.1-2.4-1.8
		c0-0.9,1-1.4,2-1.4c0.5,0,1,0.1,1.5,0.2l-0.2,1c-0.4-0.1-0.8-0.1-1.2-0.1c-0.5,0-0.7,0.1-0.7,0.3c0,0.6,2.3,0.2,2.3,1.8
		C71.5,78.5,70.2,78.8,69.4,78.8z"/>
	<path class="st11" d="M80.7,78.7h-0.7l-0.8-4h0l-0.9,4h-0.7l-0.6-4.4h0.5l0.5,4.1h0l0.9-4.1h0.7l0.8,4.1h0l0.6-4.1h0.4L80.7,78.7z"
		/>
	<path class="st11" d="M82.4,78.7v-0.4h1.7v-3.6h-1.5v-0.4h2v4h1.7v0.4H82.4z M84.3,73.4L83.9,73l0.4-0.4l0.4,0.4L84.3,73.4z"/>
	<path class="st11" d="M89.3,78.8c-0.8,0-1.4-0.2-1.4-1.2v-2.9h-1v-0.4h1v-0.9h0.4v0.9h2.5v0.4h-2.5v2.7c0,0.7,0.2,0.9,1,0.9
		c0.5,0,1-0.1,1.4-0.3l0.1,0.4C90.5,78.6,89.9,78.8,89.3,78.8z"/>
	<path class="st11" d="M94.9,78.7V76c0-0.8-0.1-1.4-1-1.4c-0.5,0-1.3,0.5-1.5,0.6v3.5H92v-6h0.4v2.2c0.3-0.2,0.8-0.6,1.6-0.6
		c1.3,0,1.3,0.9,1.3,1.6v2.8H94.9z"/>
	<path class="st11" d="M105,78.8c-0.3,0-0.7-0.1-0.8-0.6c-0.2,0.1-0.7,0.6-1.6,0.6c-0.7,0-1.2-0.4-1.2-1.2c0-1.1,1-1.3,1.6-1.3
		l1.1,0v-0.7c0-0.8-0.4-0.9-1.2-0.9c-0.4,0-0.9,0.2-1,0.2l-0.1-0.4c0.1-0.1,0.7-0.2,1.3-0.2c0.9,0,1.5,0.3,1.5,1.1v2.6
		c0,0.4,0.2,0.5,0.4,0.5L105,78.8z M104.2,76.6l-1.2,0c-0.8,0-1.2,0.4-1.2,0.9c0,0.7,0.3,0.9,0.9,0.9c0.6,0,1.4-0.5,1.4-0.6V76.6z"
		/>
	<path class="st11" d="M109.3,78.7V76c0-0.8-0.1-1.4-1-1.4c-0.6,0-1.3,0.5-1.5,0.6v3.5h-0.4v-4.4h0.4v0.5c0.3-0.2,0.8-0.6,1.6-0.6
		c1.3,0,1.3,0.9,1.3,1.6v2.8H109.3z"/>
	<path class="st11" d="M112.4,80.5H112l0.7-1.8h-0.2l-1.7-4.4h0.5l1.6,4.1h0l1.7-4.1h0.4L112.4,80.5z"/>
	<path class="st11" d="M41.3,88.4c-0.8,0-1.4-0.2-1.4-1.2v-2.9h-1v-0.4h1V83h0.4v0.9h2.5v0.4h-2.5v2.7c0,0.7,0.2,0.9,1,0.9
		c0.5,0,1-0.1,1.4-0.3l0.1,0.4C42.5,88.2,41.9,88.4,41.3,88.4z"/>
	<path class="st11" d="M47.7,84.6c-0.3-0.1-0.6-0.3-1.1-0.3c-0.6,0-1,0.4-1.2,0.7v2.9H47v0.4h-3.2v-0.4H45v-3.6h-1.2v-0.4h1.6v0.5
		c0.2-0.3,0.6-0.6,1.2-0.6c0.7,0,1,0.3,1.2,0.4L47.7,84.6z"/>
	<path class="st11" d="M52.2,88.4c-0.3,0-0.7-0.1-0.8-0.6c-0.2,0.1-0.7,0.6-1.6,0.6c-0.7,0-1.2-0.4-1.2-1.2c0-1.1,1-1.3,1.6-1.3
		l1.1,0v-0.7c0-0.8-0.4-0.9-1.2-0.9c-0.4,0-0.9,0.2-1,0.2l-0.1-0.4c0.1-0.1,0.7-0.2,1.3-0.2c0.9,0,1.5,0.3,1.5,1.1v2.6
		c0,0.4,0.2,0.5,0.4,0.5L52.2,88.4z M51.4,86.2l-1.2,0c-0.8,0-1.2,0.4-1.2,0.9c0,0.7,0.3,0.9,0.9,0.9c0.6,0,1.4-0.5,1.4-0.6V86.2z"
		/>
	<path class="st11" d="M56.5,88.3v-2.7c0-0.8-0.1-1.4-1-1.4c-0.6,0-1.3,0.5-1.5,0.6v3.5h-0.4v-4.4h0.4v0.5c0.3-0.2,0.8-0.6,1.6-0.6
		c1.3,0,1.3,0.9,1.3,1.6v2.8H56.5z"/>
	<path class="st11" d="M59.9,88.4c-0.7,0-1.1-0.1-1.4-0.2l0.1-0.4c0.3,0.1,0.7,0.3,1.3,0.3c0.7,0,1.4-0.1,1.4-0.8
		c0-1.1-2.7-0.8-2.7-2.3c0-0.8,0.7-1.1,1.5-1.1c0.5,0,1,0.1,1.3,0.2l-0.1,0.4c-0.3-0.1-0.7-0.2-1.2-0.2c-0.6,0-1,0.2-1,0.7
		c0,1.2,2.7,0.8,2.7,2.3C61.7,88.2,60.6,88.4,59.9,88.4z"/>
	<path class="st11" d="M63.2,88.3v-0.4h1.7v-3.6h-1.5v-0.4h2v4H67v0.4H63.2z M65.1,83l-0.4-0.4l0.4-0.4l0.4,0.4L65.1,83z"/>
	<path class="st11" d="M70.1,88.4c-0.8,0-1.4-0.2-1.4-1.2v-2.9h-1v-0.4h1V83h0.4v0.9h2.5v0.4h-2.5v2.7c0,0.7,0.2,0.9,1,0.9
		c0.5,0,1-0.1,1.4-0.3l0.1,0.4C71.3,88.2,70.7,88.4,70.1,88.4z"/>
	<path class="st11" d="M72.8,88.3v-0.4h1.7v-3.6H73v-0.4h2v4h1.7v0.4H72.8z M74.7,83l-0.4-0.4l0.4-0.4l0.4,0.4L74.7,83z"/>
	<path class="st11" d="M79.3,88.4c-1.2,0-1.9-0.8-1.9-2.2c0-1.5,0.8-2.3,1.9-2.3c1.2,0,1.9,0.8,1.9,2.3
		C81.2,87.7,80.4,88.4,79.3,88.4z M80.7,86.1c0-0.8-0.3-1.9-1.4-1.9c-1.1,0-1.5,1.1-1.5,1.9c0,1,0.3,1.9,1.5,1.9
		C80.4,88,80.7,87,80.7,86.1L80.7,86.1z"/>
	<path class="st11" d="M85.3,88.3v-2.7c0-0.8-0.1-1.4-1-1.4c-0.6,0-1.3,0.5-1.5,0.6v3.5h-0.4v-4.4h0.4v0.5c0.3-0.2,0.8-0.6,1.6-0.6
		c1.3,0,1.3,0.9,1.3,1.6v2.8H85.3z"/>
	<path class="st11" d="M91.8,88.3v-0.4h1.7v-5.2H92v-0.4h2v5.6h1.7v0.4H91.8z"/>
	<path class="st11" d="M98.5,88.4c-1.2,0-1.9-0.8-1.9-2.2c0-1.5,0.8-2.3,1.9-2.3c1.2,0,1.9,0.8,1.9,2.3
		C100.4,87.7,99.6,88.4,98.5,88.4z M99.9,86.1c0-0.8-0.3-1.9-1.4-1.9c-1.1,0-1.5,1.1-1.5,1.9c0,1,0.3,1.9,1.5,1.9
		C99.6,88,99.9,87,99.9,86.1L99.9,86.1z"/>
	<path class="st11" d="M103.2,90.1c-0.6,0-1.2-0.1-1.3-0.1l0.1-0.4c0.1,0,0.7,0.1,1.1,0.1c0.8,0,1.5-0.2,1.5-1.2V88
		c-0.3,0.3-0.7,0.4-1.2,0.4c-0.9,0-1.9-0.3-1.9-2.2c0-1.6,0.9-2.3,2-2.3c0.5,0,1.1,0.1,1.5,0.2v4.6C105,89.6,104.3,90.1,103.2,90.1z
		 M104.5,84.3c-0.2,0-0.6-0.1-1-0.1c-1.1,0-1.5,0.9-1.5,1.9c0,1.3,0.5,1.8,1.4,1.8c0.5,0,0.9-0.3,1.1-0.5L104.5,84.3z"/>
	<path class="st11" d="M106.4,88.3v-0.4h1.7v-3.6h-1.5v-0.4h2v4h1.7v0.4H106.4z M108.3,83l-0.4-0.4l0.4-0.4l0.4,0.4L108.3,83z"/>
	<path class="st11" d="M113.3,88.4c-1.5,0-2.1-0.7-2.1-2.2c0-1.4,0.8-2.3,2-2.3c0.7,0,1.1,0.2,1.5,0.4l-0.2,0.3
		c-0.4-0.2-0.7-0.3-1.3-0.3c-0.9,0-1.5,0.7-1.5,1.9c0,1.3,0.4,1.9,1.7,1.9c0.5,0,0.9-0.1,1.1-0.2l0.1,0.4
		C114.4,88.2,114.1,88.4,113.3,88.4z"/>
</g>
<line class="st12" x1="117.1" y1="66.8" x2="127.9" y2="66.8"/>
</svg>
