<?xml version="1.0" encoding="utf-8"?>
<!-- Generator: Adobe Illustrator 21.1.0, SVG Export Plug-In . SVG Version: 6.00 Build 0)  -->
<svg version="1.1" id="Layer_1" xmlns="http://www.w3.org/2000/svg" xmlns:xlink="http://www.w3.org/1999/xlink" x="0px" y="0px"
	 width="950px" height="410px" viewBox="0 0 950 410" style="enable-background:new 0 0 950 410;" xml:space="preserve">
<style type="text/css">
	.st0{fill:#F5F5F5;}
	.st1{fill:#FF3030;}
	.st2{fill:none;stroke:#FF3030;stroke-width:3;stroke-miterlimit:10;}
	.st3{fill:none;stroke:#FF3030;stroke-width:4.053;stroke-miterlimit:10;}
	.st4{fill:none;stroke:#F5F5F5;stroke-width:6.9737;stroke-linecap:round;stroke-miterlimit:10;}
	.st5{fill:none;stroke:#F5F5F5;stroke-width:3.4868;stroke-linecap:round;stroke-miterlimit:10;}
</style>
<g>
	<path class="st0" d="M413,73.7c0-1.5,0-2.8,0-4c0-18.9,0-37.9,0-56.8C413,4.2,417.2,0,426,0c57.6,0,115.1,0,172.7,0
		c9.2,0,13.2,4.1,13.2,13.3c0,12.7,0,25.5,0,38.2c0,1.1,0,2.3,0,3.3c0.5,0.2,0.6,0.4,0.8,0.4c8.9,0.7,10.2,2.1,10.2,11
		c0,11.6,0,23.1,0,34.7c0,7.1-2.2,9.4-9.4,9.6c-0.4,0-0.8,0.1-1.7,0.2c0,1.4,0,2.7,0,4c0,26.1,0,52.2,0,78.3
		c0,9.2-4.1,13.3-13.3,13.3c-11.4,0-22.7,0-34.6,0c0,1.4,0.1,2.6,0,3.8c-0.4,6.4-4.9,10.8-11.2,10.9c-6.9,0.1-13.9,0-20.8,0
		c-7.6,0-11.9-4.3-12.1-11.9c0-0.8-0.1-1.6-0.2-2.6c-2.4,0-4.6,0-6.9,0c-1.5,10.2-2.2,10.8-12.7,10.8c-9.9,0-19.8,0-29.7,0
		c-7.1,0-9.3-2.1-9.6-9.4c0-0.4-0.1-0.8-0.2-1.6c-1.1,0-2.3,0-3.4,0c-10.6,0-21.3,0-31.9,0c-7.9,0-12.3-4.4-12.3-12.3
		c0-19,0-38.1,0-57.1c0-1.3,0-2.5,0-4.2c-1.4,0-2.7,0.1-3.9,0c-4-0.2-7.1-3-7.1-7c-0.1-14.9-0.1-29.9,0-44.8c0-4,3-6.8,7.1-7
		C410.2,73.7,411.4,73.7,413,73.7z M449.9,128.9c2.4,0,4.4,0,6.5,0c2.4,0,4.2,0.9,4.3,3.5c0.1,2.8-1.7,3.8-4.3,3.9
		c-2.2,0-4.3,0-6.4,0c0,2.7,0,4.9,0,7.3c2.1,0,3.9,0,5.8,0c2.6,0,4.7,0.5,4.9,3.6c0.2,2.5-1.6,3.8-5,3.8c-7.3,0-14.5,0-21.8,0
		c-5.6,0-6.2-0.7-6.2-6.1c0-4.1,0-8.1,0-12.1c-2.7,0-4.9,0-7.2,0c-0.1,0.6-0.2,1.1-0.2,1.6c0,20,0,40,0,60c0,3.2,1.4,4.5,4.7,4.5
		c11.2,0,22.3,0,33.5,0c0.7,0,1.4-0.2,2.3-0.3c0-8.2,0-16.3,0-24.4c0-5.6,2.8-8.4,8.3-8.4c11.7,0,23.4,0,35,0c5.4,0,8.2,2.8,8.2,8.2
		c0,7.2,0,14.3,0,21.5c0,1.1,0,2.2,0,3.3c2.7,0,4.9,0,7.4,0c0-1.3,0-2.4,0-3.5c0-15.6,0-31.1,0-46.7c0-5.9,2.6-8.5,8.5-8.5
		c8.8,0,17.7,0,26.5,0c6.6,0,9.2,2.6,9.2,9.2c0,15.4,0,30.7,0,46.1c0,1.1,0.1,2.2,0.2,3.6c1.2,0,2.1,0,3,0c10.5,0,21,0,31.6,0
		c4.8,0,5.7-1,5.7-5.7c0-26.5,0-53,0-79.5c0-1,0-2,0-3.1c-10.9,0-21.3,0-31.7,0c-6,0-8.7-2.6-8.7-8.6c0-12.6,0-25.2,0-37.9
		c0-6.2,2.6-8.7,8.9-8.8c9.4,0,18.7,0,28.1,0c1.1,0,2.2-0.1,3.5-0.2c0-1.4,0-2.4,0-3.5c0-12.7,0-25.5,0-38.2c0-5-0.9-5.9-5.8-5.9
		c-57.5,0-115.1,0-172.6,0c-4.8,0-5.7,0.9-5.7,5.7c0,19,0,38.1,0,57.1c0,1.1,0.1,2.2,0.2,3.3c2.6,0,4.7,0,7.2,0c0-4.7,0-9.2,0-13.7
		c0-3.3,1.1-4.5,4.3-4.6c8.2-0.1,16.4,0,24.6,0c2.4,0,4.2,1.1,4.1,3.7c0,2.6-1.7,3.6-4.2,3.6c-2.2,0-4.3,0-6.4,0c0,2.7,0,5,0,7.4
		c2.2,0,4.2,0,6.2,0c2.6,0,4.4,0.9,4.4,3.7c0,2.9-2,3.7-4.5,3.6c-2.1,0-4.1,0-6.1,0c0,2.8,0,5,0,7.3c2.3,0,4.3,0,6.3,0
		c2.6,0,4.4,1,4.4,3.8c0,2.6-1.8,3.6-4.2,3.6c-2.2,0-4.3,0-6.5,0c0,2.7,0,4.8,0,7.3c2.4,0,4.5,0,6.7,0c2.5,0.1,4.1,1.2,4,3.8
		c-0.1,2.4-1.7,3.5-4,3.5c-2.2,0-4.4,0-6.7,0c0,2.6,0,4.8,0,7.4c2.3,0,4.3,0,6.4,0c2.4,0,4.2,0.9,4.3,3.5c0.1,2.8-1.8,3.8-4.3,3.8
		c-2.2,0-4.3,0-6.5,0C449.9,124.2,449.9,126.3,449.9,128.9z M615.3,102.9c0-13.6,0-26.8,0-40c-14.7,0-29.2,0-43.8,0
		c0,13.5,0,26.7,0,40C586.1,102.9,600.6,102.9,615.3,102.9z M504.8,209.7c0-12.3,0-24.3,0-36.5c-12.2,0-24.3,0-36.4,0
		c0,12.2,0,24.3,0,36.5C480.6,209.7,492.5,209.7,504.8,209.7z M556.4,184c0-12.4,0-24.4,0-36.5c-9.8,0-19.4,0-29,0
		c0,12.3,0,24.3,0,36.4c3.7,0,7.1,0,10.7,0c0.1-1,0.2-1.8,0.2-2.7c0-3.9,0-7.8,0-11.7c0-2.4,1.3-3.8,3.7-3.8c2.2,0,3.4,1.4,3.6,3.6
		c0.1,1.6,0,3.2,0,4.7c0,3.3,0,6.6,0,9.9C549.5,184,552.9,184,556.4,184z M409.5,125c6.2,0,12.1,0,17.9,0c0-14.7,0-29.2,0-43.8
		c-6.1,0-12,0-17.9,0C409.5,95.8,409.5,110.3,409.5,125z M527.2,191.7c0,6.4-0.2,12.5,0.2,18.5c0.1,1.2,2.2,3.2,3.4,3.2
		c7.5,0.3,14.9,0.3,22.4,0c1.2,0,3.2-1.9,3.2-3c0.3-6.2,0.2-12.3,0.2-18.7C546.7,191.7,537.2,191.7,527.2,191.7z M435.3,62.7
		c0,27.1,0,53.9,0,80.8c2.4,0,4.6,0,6.8,0c0-27,0-53.8,0-80.8C439.8,62.7,437.7,62.7,435.3,62.7z"/>
	<path class="st1" d="M512.3,132.6c-7,0-14.1,0-21.1,0c-5.3,0-8.3-2.9-8.2-8.2c0-8,0.3-15.9,0.3-23.9c0-6-0.3-12.1-0.4-18.1
		c0-6,2.7-8.7,8.7-8.7c13.9,0,27.8,0,41.7,0c5.8,0,8.6,2.7,8.6,8.4c0,8-0.3,16.1-0.4,24.1c0,6,0.2,12,0.4,18.1
		c0.2,4.9-2.8,8.2-7.8,8.3C526.8,132.6,519.6,132.6,512.3,132.6z M534.4,125.2c0-14.8,0-29.4,0-43.9c-14.9,0-29.4,0-44.1,0
		c0,14.7,0,29.2,0,43.9C505.3,125.2,519.8,125.2,534.4,125.2z"/>
	<path class="st0" d="M438.9,191.4c-6.2,0.1-11.1-4.7-11.2-10.9c-0.1-6.1,4.8-11.1,10.9-11.2c6-0.1,11.1,4.9,11.2,10.9
		C449.9,186.4,445,191.4,438.9,191.4z M442.9,181.3c0-0.5,0-1,0.1-1.5c-1.3-1-2.5-2.6-4-2.9c-2.1-0.5-3.6,1-3.8,3.2
		c-0.2,2.4,1.2,4.1,3.5,3.8C440.2,183.8,441.5,182.3,442.9,181.3z"/>
	<path class="st0" d="M438.6,36.8c-6.1-0.1-10.9-5-10.9-11.2c0.1-6.1,5.2-11,11.2-10.9c6.1,0.1,11,5.2,10.9,11.2
		C449.7,32.1,444.8,36.8,438.6,36.8z M443,26.3c0-0.5,0-1-0.1-1.5c-1.4-0.9-2.7-2.4-4.2-2.6c-2.1-0.3-3.4,1.3-3.5,3.5
		c-0.1,2.1,1.9,4.2,3.8,3.6C440.5,28.9,441.6,27.4,443,26.3z"/>
	<path class="st0" d="M597.1,180.6c-0.1,6.1-5,10.9-11.2,10.8c-6.1-0.1-11-5-10.9-11.1c0.1-6,5.2-11,11.2-10.9
		C592.3,169.5,597.1,174.5,597.1,180.6z M590.2,181.1c0-0.5,0-1,0-1.5c-1.4-1-2.6-2.5-4.1-2.7c-2.1-0.4-3.5,1.2-3.6,3.4
		c-0.1,2.4,1.4,4,3.7,3.6C587.6,183.7,588.9,182.1,590.2,181.1z"/>
	<path class="st0" d="M597.1,25.8c0,6.1-4.9,11-11,11c-6.1,0-11.1-4.9-11.1-11c0-6,5-11.1,11-11.1C592.1,14.7,597.1,19.7,597.1,25.8
		z M590.2,26.3c0-0.5,0-1-0.1-1.5c-1.4-0.9-2.7-2.4-4.2-2.6c-2.1-0.3-3.5,1.3-3.5,3.5c0,2.4,1.6,3.9,3.8,3.5
		C587.7,29,588.9,27.4,590.2,26.3z"/>
	<path class="st0" d="M491.1,14.3c1,1.4,2.5,2.7,2.7,4.2c0.3,2.1-1.2,3.5-3.4,3.6c-2.1,0.1-4.2-1.8-3.7-3.8c0.4-1.5,1.9-2.7,2.9-4.1
		C490.2,14.2,490.6,14.2,491.1,14.3z"/>
	<path class="st0" d="M533.8,22.6c-1-1.4-2.6-2.6-2.9-4.1c-0.4-2.1,1.1-3.5,3.3-3.7c2.1-0.2,4.3,1.7,3.8,3.6
		c-0.4,1.5-1.8,2.8-2.8,4.2C534.8,22.6,534.3,22.6,533.8,22.6z"/>
	<path class="st0" d="M479.7,19.3c-1.4,0.9-2.7,2.5-4.2,2.6c-2.3,0.3-3.7-1.4-3.5-3.8c0.1-2.2,1.7-3.7,3.8-3.3c1.5,0.3,2.7,1.9,4,3
		C479.8,18.3,479.7,18.8,479.7,19.3z"/>
	<path class="st0" d="M509.2,19.3c-1.4,0.9-2.7,2.4-4.2,2.6c-2.1,0.3-3.5-1.3-3.5-3.5c-0.1-2.1,1.9-4.2,3.8-3.6c1.5,0.5,2.7,2,4,3
		C509.2,18.3,509.2,18.8,509.2,19.3z"/>
	<path class="st0" d="M465.1,19c-1.3,1-2.5,2.6-4,2.9c-2.1,0.5-3.5-1-3.8-3.2c-0.2-2.1,1.6-4.3,3.5-3.9c1.5,0.4,2.8,1.8,4.2,2.7
		C465,18,465,18.5,465.1,19z"/>
	<path class="st0" d="M519,22.6c-1-1.4-2.5-2.6-2.8-4.1c-0.4-2.3,1.3-3.7,3.6-3.7c2.2,0,3.8,1.5,3.4,3.6c-0.3,1.5-1.8,2.8-2.7,4.2
		C520,22.6,519.5,22.6,519,22.6z"/>
	<path class="st0" d="M550.1,14.3c0.9,1.4,2.5,2.7,2.7,4.2c0.3,2.3-1.3,3.7-3.7,3.6c-2.2-0.1-3.7-1.7-3.3-3.7
		c0.3-1.5,1.8-2.7,2.8-4.1C549.1,14.2,549.6,14.2,550.1,14.3z"/>
	<path class="st0" d="M568.2,19c-1.3,1-2.6,2.6-4,2.9c-2.1,0.5-3.6-1.1-3.7-3.3c-0.2-2.4,1.3-4.1,3.6-3.8c1.5,0.2,2.8,1.7,4.2,2.7
		C568.1,18.1,568.1,18.5,568.2,19z"/>
	<path class="st0" d="M465,33.9c-1.4,1-2.6,2.5-4.1,2.7c-2.3,0.4-3.7-1.3-3.6-3.6c0.1-2.2,1.5-3.7,3.6-3.3c1.5,0.3,2.8,1.8,4.1,2.7
		C465,32.9,465,33.4,465,33.9z"/>
	<path class="st0" d="M476.3,29c1,1.3,2.5,2.6,2.8,4c0.4,2.3-1.2,3.7-3.6,3.7c-2.2-0.1-3.8-1.5-3.4-3.6c0.3-1.5,1.8-2.7,2.7-4.1
		C475.3,29,475.8,29,476.3,29z"/>
	<path class="st0" d="M505.9,29c0.9,1.4,2.4,2.7,2.6,4.2c0.3,2.1-1.3,3.5-3.5,3.5c-2.4,0-4-1.5-3.5-3.7c0.3-1.5,1.9-2.7,2.9-4
		C504.9,29,505.4,29,505.9,29z"/>
	<path class="st0" d="M518.9,37.3c-0.9-1.4-2.4-2.7-2.7-4.2c-0.3-2.1,1.2-3.6,3.4-3.6c2.4,0,4,1.4,3.6,3.7c-0.3,1.5-1.8,2.7-2.8,4
		C519.9,37.3,519.4,37.3,518.9,37.3z"/>
	<path class="st0" d="M553.4,33.9c-1.4,1-2.6,2.4-4.1,2.7c-2.1,0.4-3.6-1.1-3.6-3.3c-0.1-2.3,1.3-4,3.7-3.6c1.5,0.2,2.8,1.8,4.1,2.8
		C553.4,32.9,553.4,33.4,553.4,33.9z"/>
	<path class="st0" d="M564.8,29c1,1.4,2.5,2.6,2.7,4.1c0.4,2.1-1.2,3.6-3.4,3.6c-2.4,0-4-1.4-3.6-3.7c0.2-1.5,1.8-2.7,2.8-4.1
		C563.8,29,564.3,29,564.8,29z"/>
	<path class="st0" d="M489.8,37.3c-1-1.3-2.6-2.5-3-4c-0.5-2.1,1-3.6,3.2-3.7c2.4-0.2,4.1,1.2,3.9,3.5c-0.2,1.5-1.7,2.8-2.6,4.2
		C490.7,37.3,490.2,37.3,489.8,37.3z"/>
	<path class="st0" d="M533.9,37.3c-1-1.3-2.6-2.5-3-4c-0.5-2.1,1-3.6,3.2-3.7c2.4-0.2,4.1,1.2,3.8,3.5c-0.2,1.5-1.7,2.8-2.6,4.2
		C534.9,37.3,534.4,37.3,533.9,37.3z"/>
	<path class="st0" d="M590,88.4c2.2,0,4.4,0,6.6,0c2.5,0,4.1,1.1,4.1,3.7c0,2.6-1.7,3.7-4.2,3.7c-4.6,0-9.2,0.1-13.8,0
		c-2.4,0-4.1-1.3-4-3.9c0.1-2.4,1.7-3.5,4-3.5C585.2,88.4,587.6,88.4,590,88.4z"/>
	<path class="st0" d="M589.9,70c2.3,0,4.6,0,6.9,0c2.4,0,3.9,1.2,3.9,3.6c0.1,2.4-1.4,3.7-3.8,3.7c-4.8,0.1-9.6,0.1-14.4,0
		c-2.3,0-3.8-1.3-3.8-3.7c0.1-2.4,1.6-3.6,3.9-3.6C585.1,70,587.5,70,589.9,70z"/>
	<path class="st0" d="M490.4,191.5c0-1.4-0.4-2.9,0.1-4c0.6-1.3,2.1-3.1,3.2-3c1.3,0,3.5,1.6,3.7,2.7c0.5,2.8,0.5,5.9,0,8.7
		c-0.2,1.2-2.3,2.9-3.4,2.7c-1.3-0.2-2.8-1.8-3.5-3.1C489.9,194.4,490.4,192.8,490.4,191.5C490.4,191.5,490.4,191.5,490.4,191.5z"/>
	<path class="st0" d="M482.9,191.3c0,1.3,0.1,2.5,0,3.8c-0.1,2.3-1.4,3.8-3.7,3.7c-2.2-0.1-3.4-1.4-3.5-3.6c-0.1-2.4-0.1-4.8,0-7.2
		c0.1-2.3,1.3-3.8,3.7-3.7c2.2,0.1,3.4,1.4,3.5,3.6C482.9,189,482.9,190.2,482.9,191.3z"/>
</g>
<line class="st2" x1="323.2" y1="104.6" x2="392.1" y2="104.6"/>
<line class="st3" x1="638.6" y1="104.6" x2="751.4" y2="104.6"/>
<g id="OaTQ0Q.tif">
	<g>
		<path class="st0" d="M507.9,330.7c0,10.8,0,21.6,0,32.3c0,1.2-0.2,2.3-1.4,2.9c-1.1,0.5-2.1,0.3-3.1-0.8
			c-4.7-5.1-9.3-10.2-14-15.2c-1.4-1.5-2.7-3.1-4.2-4.5c-0.4-0.4-1-0.6-1.5-0.6c-2.8-0.1-5.6,0.1-8.3-0.3c-5.4-0.6-9.2-4.5-9.6-10
			c-0.2-2.8-0.2-5.7,0.2-8.5c0.8-5.3,4.7-8.8,10-9.2c2.6-0.2,5.2-0.1,7.8-0.2c0.5,0,1.2-0.3,1.6-0.7c6-6.5,12-13,17.9-19.5
			c0.8-0.9,1.6-1.4,2.8-1.1c1.2,0.3,1.9,1.3,1.9,2.9c0,7,0,14.1,0,21.1C507.9,323,507.9,326.8,507.9,330.7z"/>
		<path class="st0" d="M566.9,331c-0.2,24.3-17.6,45.1-41.9,49.4c-1.5,0.3-3,0.4-4.5,0.5c-2.3,0.2-4-1.3-4.2-3.4
			c-0.2-2.9,1.1-4.7,3.6-4.9c8.4-0.8,16.1-3.7,22.6-9.1c11.8-9.7,17.2-22.3,15.6-37.5c-2-19.2-16.5-34.2-35.6-37.2
			c-0.9-0.1-1.7-0.2-2.6-0.3c-2.5-0.3-3.8-2.1-3.6-5c0.2-2.2,1.9-3.7,4.3-3.4c21.2,2.5,35.7,13.8,43.4,33.7
			C566.1,319.2,566.8,324.8,566.9,331z"/>
		<path class="st0" d="M553.2,329.8c0,19.1-13.5,34.6-31.5,37.3c-0.9,0.1-1.8,0.2-2.6,0.1c-2-0.4-2.9-2.1-2.8-4.6
			c0.1-2,1.4-3.3,3.3-3.6c11.7-1.9,19.9-8.3,23.6-19.6c5.8-17.3-6-34.9-23.5-37.1c-1.6-0.2-2.7-1-3.2-2.5c-0.5-1.7-0.5-3.3,0.8-4.8
			c0.9-1,2.1-1.3,3.5-1.2c16.6,2,30,15.3,32,31.9C553.1,327.4,553.1,329,553.2,329.8z"/>
		<path class="st1" d="M539.5,330.3c0.1,11.1-7.5,20.6-18.3,23.1c-2.4,0.5-4.3-0.5-4.9-2.7c-0.7-2.7,0.5-4.9,3-5.5
			c6.3-1.6,10.2-5.6,11.4-12c1.5-7.7-3.5-15.2-11.2-17.1c-3-0.7-4.3-3.9-2.8-6.6c0.8-1.4,2.4-2.1,4.2-1.8
			c9.7,1.7,17.9,10.9,18.5,20.8C539.5,329.1,539.5,329.8,539.5,330.3z"/>
	</g>
</g>
<line class="st2" x1="512.4" y1="229.5" x2="512.4" y2="264"/>
<g>
	<g>
		<g>
			<path class="st0" d="M843.6,381H881c1.7,0,3.2-1.4,3.2-3.2v-9.4l20.5,11c0.5,0.3,1,0.4,1.5,0.4c0.6,0,1.1-0.1,1.6-0.4
				c1-0.6,1.5-1.6,1.5-2.7v-45.1c0-1.1-0.6-2.1-1.5-2.7c-1-0.6-2.1-0.6-3.1-0.1l-20.5,11v-9.4c0-1.7-1.4-3.2-3.2-3.2h-5.1
				c6.4-5.2,10.5-13.2,10.5-22c0-15.6-12.7-28.4-28.4-28.4c-13.4,0-24.6,9.3-27.6,21.7c-3.9-4.7-9.9-7.8-16.5-7.8
				c-11.8,0-21.4,9.6-21.4,21.4c0,5.9,2.4,11.2,6.2,15.1h-2.9c-1.7,0-3.2,1.4-3.2,3.2v14.4h-8c-1.7,0-3.2,1.4-3.2,3.2v12.4
				c0,1.7,1.4,3.2,3.2,3.2h8v14.4c0,1.7,1.4,3.2,3.2,3.2h37.3 M792.7,357.1h-4.8V351h4.8V357.1z M858,283.1c12.2,0,22,9.9,22,22
				s-9.9,22-22,22c-12.2,0-22-9.9-22-22C835.9,292.9,845.8,283.1,858,283.1z M833.8,320c1.7,2.7,3.8,5.2,6.3,7.2h-11
				C831.1,325.1,832.7,322.7,833.8,320z M813.9,297c8.3,0,15.1,6.8,15.1,15.1s-6.8,15.1-15.1,15.1c-8.3,0-15.1-6.8-15.1-15.1
				C798.8,303.8,805.6,297,813.9,297z M877.8,345.1v18v11.6h-39.3c0,0,0,0,0,0h-0.1h0H799v-14.4v-12.4v-14.4h78.8V345.1z
				 M902.9,371.3l-18.8-10.1v-14.3l18.8-10.1V371.3z"/>
		</g>
	</g>
	<g>
		<g>
			<path class="st1" d="M813.9,302.5c-5.3,0-9.6,4.3-9.6,9.6c0,5.3,4.3,9.6,9.6,9.6c5.3,0,9.6-4.3,9.6-9.6
				C823.5,306.8,819.2,302.5,813.9,302.5z M813.9,316c-2.2,0-3.9-1.8-3.9-3.9s1.8-3.9,3.9-3.9s3.9,1.8,3.9,3.9S816.1,316,813.9,316z
				"/>
		</g>
	</g>
	<g>
		<g>
			<path class="st1" d="M858,291.3c-7.6,0-13.8,6.2-13.8,13.8c0,7.6,6.2,13.8,13.8,13.8c7.6,0,13.8-6.2,13.8-13.8
				C871.8,297.5,865.6,291.3,858,291.3z M858,312.6c-4.1,0-7.5-3.4-7.5-7.5s3.4-7.5,7.5-7.5s7.5,3.4,7.5,7.5S862.1,312.6,858,312.6z
				"/>
		</g>
	</g>
	<g>
		<g>
			<path class="st0" d="M847.7,342.7h-34.4c-1.7,0-3,1.3-3,3v16.8c0,1.7,1.3,3,3,3h34.4c1.7,0,3-1.3,3-3v-16.8
				C850.8,344,849.4,342.7,847.7,342.7z M844.7,359.4h-28.4v-10.7h28.4L844.7,359.4L844.7,359.4z"/>
		</g>
	</g>
	<g>
		<g>
			<circle class="st0" cx="864.4" cy="348.9" r="3.2"/>
		</g>
	</g>
	<g>
		<g>
			<circle class="st0" cx="864.4" cy="359.3" r="3.2"/>
		</g>
	</g>
</g>
<line class="st2" x1="839.5" y1="229.5" x2="839.5" y2="264"/>
<g>
	<g>
		<polygon class="st0" points="165.7,111.1 165.7,115.3 111.5,115.3 111.5,65.2 115.7,65.2 115.7,111.1 		"/>
		<rect x="122" y="90.2" class="st1" width="6.3" height="16.7"/>
		<rect x="134.5" y="73.6" class="st0" width="6.3" height="33.4"/>
		<rect x="149.1" y="84" class="st0" width="6.3" height="22.9"/>
	</g>
	<g>
		<path class="st0" d="M91.5,112.5c-0.4,1-1.2,1.2-2.2,1.2c-10.4,0-20.9,0-31.3,0c-1.1,0-2-0.9-2-2c0-2.1,0-4.2,0-6.3
			c0-1,0.8-1.9,1.9-1.9c10.5,0,21,0,31.4,0c1.1,0,1.8,0.3,2.2,1.3L91.5,112.5L91.5,112.5z"/>
		<path class="st0" d="M82.9,73.2c0,5.4-4.3,9.7-9.6,9.7c-5.3,0-9.6-4.3-9.6-9.7c-0.1-5.2,4.3-9.7,9.7-9.6
			C78.7,63.7,82.9,67.9,82.9,73.2 M66.9,73.2c0,1.3,0.2,2.6,0.9,3.8c1.1,1.9,3,1.9,4,0c0.5-0.9,0.8-1.9,0.9-3c0.2-1.8,0-3.5-1.1-5
			c-1-1.5-2.5-1.4-3.6,0c-0.1,0.2-0.2,0.4-0.4,0.6C67.1,70.7,66.9,72,66.9,73.2"/>
		<path class="st0" d="M75.6,102.6h-6V84.4c1.1,0.1,2,0.3,3,0.3c1,0,1.9-0.2,3-0.4V102.6z"/>
		<path class="st1" d="M89.5,102.6H79.2c0-0.6,0-1.1,0-1.7c0.1-0.6,0.6-0.9,1.2-0.8c2.6,0.5,5.3,0.5,7.9,0c0.6-0.1,1.1,0.2,1.2,0.9
			C89.5,101.5,89.4,102,89.5,102.6"/>
	</g>
	<g>
		<path class="st0" d="M245.6,301h-3.2v-2.8c0-6-4.9-10.9-10.9-10.9h-9.9c-2.3,0-4.4,0.7-6.1,1.9c-1.8-1.2-3.9-1.9-6.1-1.9h-9.9
			c-2.3,0-4.4,0.7-6.1,1.9c-1.8-1.2-3.9-1.9-6.1-1.9h-9.9c-6,0-10.9,4.9-10.9,10.9v2.8h-12.7v-2.8c0-6-4.9-10.9-10.9-10.9h-9.9
			c-2.3,0-4.4,0.7-6.1,1.9c-1.8-1.2-3.9-1.9-6.1-1.9h-9.9c-2.2,0-4.3,0.7-6,1.8c-1.7-1.2-3.8-1.8-6-1.8H44c-2.3,0-4.4,0.7-6.1,1.9
			c-1.8-1.2-3.9-1.9-6.1-1.9h-9.9c-6,0-10.9,4.9-10.9,10.9v2.8H7.8c-4.5,0-8.2,3.7-8.2,8.2v17.2c0,4.5,3.7,8.2,8.2,8.2h38.8
			c2.7,0,4.9-2.2,4.9-4.9s-2.2-4.9-4.9-4.9H9.3v-13.9h234.6v13.9H68.7c-2.7,0-4.9,2.2-4.9,4.9s2.2,4.9,4.9,4.9h176.9
			c4.5,0,8.2-3.7,8.2-8.2v-17.2C253.7,304.6,250.1,301,245.6,301z M32.9,301H20.7v-2.8c0-0.6,0.5-1.1,1.1-1.1h9.9
			c0.6,0,1.1,0.5,1.1,1.1V301z M99.7,301H42.9v-2.8c0-0.6,0.5-1.1,1.1-1.1h54.6c0.6,0,1.1,0.5,1.1,1.1V301L99.7,301z M121.6,301
			h-12.2v-2.8c0-0.6,0.5-1.1,1.1-1.1h9.9c0.6,0,1.1,0.5,1.1,1.1L121.6,301L121.6,301z M143.8,301h-12.2v-2.8c0-0.6,0.5-1.1,1.1-1.1
			h9.9c0.6,0,1.1,0.5,1.1,1.1L143.8,301L143.8,301z M188.2,301H176v-2.8c0-0.6,0.5-1.1,1.1-1.1h9.9c0.6,0,1.1,0.5,1.1,1.1V301z
			 M210.4,301h-12.2v-2.8c0-0.6,0.5-1.1,1.1-1.1h9.9c0.6,0,1.1,0.5,1.1,1.1L210.4,301L210.4,301z M232.6,301h-12.2v-2.8
			c0-0.6,0.5-1.1,1.1-1.1h9.9c0.6,0,1.1,0.5,1.1,1.1V301z"/>
		<path class="st0" d="M310.7,284.9H282c-12.3,0-22.3,10-22.3,22.3v19c0,4.5,3.7,8.2,8.2,8.2h57c4.5,0,8.2-3.7,8.2-8.2v-19
			C333,294.9,323,284.9,310.7,284.9z M323.2,324.7h-53.8v-17.4c0-6.9,5.6-12.5,12.5-12.5h28.7c6.9,0,12.5,5.6,12.5,12.5L323.2,324.7
			L323.2,324.7z"/>
		<path class="st0" d="M48.4,230h76.1v12.3h-11c-8.5,0-15.4,6.9-15.4,15.4v8.5c0,4.1,3.4,7.5,7.5,7.5h71.6c2.7,0,4.9-2.2,4.9-4.9
			c0-2.7-2.2-4.9-4.9-4.9h-69.3v-6.3c0-3.1,2.5-5.6,5.6-5.6h105.2c3.1,0,5.6,2.5,5.6,5.6v6.3H200c-2.7,0-4.9,2.2-4.9,4.9
			c0,2.7,2.2,4.9,4.9,4.9h26.5c4.1,0,7.5-3.4,7.5-7.5v-8.5c0-8.5-6.9-15.4-15.4-15.4h-11V230h76.1c10.1,0,18.3-8.2,18.3-18.3
			L302.4,19c0-10.1-8.2-18.3-18.3-18.3H48.4C38.3,0.7,30.1,8.9,30.1,19v192.6C30.1,221.8,38.3,230,48.4,230z M197.9,242.4h-63.6V230
			h63.6V242.4z M40.2,19c0-4.7,3.8-8.6,8.6-8.6h235c4.7,0,8.6,3.9,8.6,8.6v27.6H40.2V19z M39.9,56.4h252.5v131.4H39.9V56.4z
			 M39.9,197.6h252.5v14.1c0,4.7-3.9,8.6-8.6,8.6H48.4c-4.7,0-8.6-3.9-8.6-8.6C39.9,211.7,39.9,197.6,39.9,197.6z"/>
		<path class="st1" d="M60.2,15.9c-6.9,0-12.5,5.6-12.5,12.5S53.3,41,60.2,41s12.5-5.6,12.5-12.5S67.1,15.9,60.2,15.9z M60.2,34
			c-3.1,0-5.6-2.5-5.6-5.6c0-3.1,2.5-5.6,5.6-5.6c3.1,0,5.6,2.5,5.6,5.6C65.8,31.5,63.3,34,60.2,34z"/>
		<path class="st0" d="M89.8,15.9c-6.9,0-12.5,5.6-12.5,12.5S82.9,41,89.8,41c6.9,0,12.5-5.6,12.5-12.5S96.7,15.9,89.8,15.9z
			 M89.8,34c-3.1,0-5.6-2.5-5.6-5.6c0-3.1,2.5-5.6,5.6-5.6c3.1,0,5.6,2.5,5.6,5.6C95.3,31.5,92.9,34,89.8,34z"/>
		<path class="st0" d="M119.4,15.9c-6.9,0-12.5,5.6-12.5,12.5S112.5,41,119.4,41s12.5-5.6,12.5-12.5S126.3,15.9,119.4,15.9z
			 M119.4,34c-3.1,0-5.6-2.5-5.6-5.6c0-3.1,2.5-5.6,5.6-5.6c3.1,0,5.6,2.5,5.6,5.6C124.9,31.5,122.4,34,119.4,34z"/>
	</g>
</g>
<g>
	<g>
		<path class="st0" d="M905,112.3c-0.1,0-0.2-0.1-0.5-0.3c0-0.7,0-1.4,0-2.2c0-8.5,0-17,0-25.5c0-6.2-2.7-8.9-8.8-8.9
			c-1.4,0-2.9,0-4.3,0c0.3,1.6-0.2,3.4-0.9,5c0.5,0,1.1,0,1.6,0c0.2-0.1,0.4-0.2,0.7-0.3c0.4-0.1,0.8,0,1.1,0.3c0.7,0,1.3,0,1.9,0
			c3.3,0,3.9,0.6,3.9,4c0,8.5,0,17,0,25.5c0,0.7,0,1.4,0,2.3c-0.9,0.1-1.6,0.2-2.3,0.2c-6.3,0-12.5,0-18.8,0c-4.2,0-5.9,1.7-5.9,5.9
			c0,8.4,0,16.9,0,25.3c0,4,1.8,5.7,5.8,5.7c7,0,13.9,0,21.2,0c0,0.8,0,1.4,0,2.1c0,17.7,0,35.4,0,53.1c0,3.2-0.7,3.8-3.8,3.8
			c-7,0-14.1,0-21.1,0c-0.6,0-1.2,0-2,0c0-0.9-0.1-1.7-0.1-2.4c0-10.3,0-20.5,0-30.8c0-4.4-1.7-6.1-6.1-6.1c-5.9,0-11.8,0-17.7,0
			c-3.9,0-5.7,1.7-5.7,5.6c0,10.4,0,20.8,0,31.2c0,0.7,0,1.5,0,2.4h-5c0-0.7,0-1.5,0-2.2c0-4.8,0-9.6,0-14.3c0-3.6-1.9-5.5-5.5-5.5
			c-7.8,0-15.6,0-23.4,0c-3.7,0-5.6,1.9-5.6,5.6c0,5.4,0,10.8,0,16.3c-0.6,0.1-1.1,0.2-1.5,0.2c-7.4,0-14.9,0-22.3,0
			c-2.2,0-3.1-0.9-3.1-3c0-13.3,0-26.7,0-40.1c0-0.3,0.1-0.7,0.1-1.1h4.8c0,2.7,0,5.4,0,8.1c0,3.6,0.4,4.1,4.2,4.1
			c4.9,0,9.7,0,14.6,0c2.3,0,3.5-0.9,3.4-2.5c-0.1-2-1.6-2.4-3.3-2.4c-1.3,0-2.5,0-3.9,0v-4.9c1.4,0,2.8,0,4.3,0
			c1.7,0,2.9-0.7,2.9-2.6c0-1.7-1.3-2.4-2.9-2.4c-1.4,0-2.8,0-4.4,0v-4.9c1.5,0,2.9,0,4.3,0c1.7,0,3-0.7,2.9-2.6
			c-0.1-1.7-1.3-2.4-2.9-2.3c-1.4,0-2.8,0-4.3,0v-5c1.6,0,3,0,4.5,0c1.6,0,2.6-0.7,2.7-2.3c0.1-1.7-1-2.5-2.7-2.6
			c-1.5,0-2.9,0-4.5,0V137c1.4,0,2.9,0,4.3,0c1.6,0,2.8-0.7,2.8-2.4c0-1.9-1.2-2.5-2.9-2.5c-1.3,0-2.7,0-4.2,0v-4.9
			c1.3,0,2.7,0,4.1,0c1.7,0,3-0.5,3-2.4c0-1.9-1.2-2.5-3-2.5c-1.3,0-2.7,0-4.1,0v-5c1.4,0,2.9,0,4.3,0c1.7,0,2.8-0.7,2.8-2.4
			c0-1.8-1.1-2.5-2.8-2.5c-5.5,0-11,0-16.4,0c-2.1,0-2.8,0.9-2.8,3.1c0,3,0,6,0,9.1h-4.8c0-0.7-0.1-1.5-0.1-2.2
			c0-12.7,0-25.4,0-38.2c0-3.2,0.6-3.8,3.8-3.8c12.6,0,25.2,0,37.8,0c-2-0.8-3.9-1.9-5.5-3.3c-0.5-0.2-0.9-0.5-1.4-0.7
			c-0.4-0.2-0.6-0.6-0.6-0.9c-10.1,0-20.2,0-30.4,0c-5.9,0-8.7,2.8-8.7,8.6c0,12.6,0,25.3,0,38c0,0.8,0,1.6,0,2.7
			c-1.1,0-1.8,0-2.6,0c-2.7,0.2-4.7,2-4.7,4.7c-0.1,10-0.1,20,0,29.9c0,2.7,2.1,4.5,4.7,4.7c0.8,0,1.6,0,2.6,0v2.8
			c0,12.7,0,25.5,0,38.2c0,5.3,3,8.2,8.2,8.3c7.1,0,14.2,0,21.3,0c0.7,0,1.5,0,2.3,0c0.1,0.5,0.1,0.8,0.1,1.1
			c0.2,4.8,1.7,6.3,6.4,6.3c6.6,0,13.2,0,19.8,0c7,0,7.5-0.4,8.5-7.2h4.6c0,0.7,0.1,1.2,0.1,1.8c0.1,5.1,3,7.9,8.1,7.9
			c4.6,0,9.3,0,13.9,0c4.3,0,7.3-3,7.5-7.3c0-0.8,0-1.6,0-2.6c7.9,0,15.5,0,23.1,0c6.1,0,8.9-2.8,8.9-8.9c0-17.4,0-34.9,0-52.3
			c0-0.9,0-1.8,0-2.7c0.6-0.1,0.9-0.1,1.1-0.1c4.8-0.1,6.3-1.7,6.3-6.4c0-7.7,0-15.5,0-23.2C911.8,113.7,911,112.8,905,112.3z
			 M786.6,117.3h4.6v54h-4.6V117.3z M769.3,158.9v-29.3h12v29.2L769.3,158.9L769.3,158.9z M833,215.6h-24.3v-24.4H833V215.6z
			 M848.1,174h19.4v24.4h-7.2c0-2.2,0-4.4,0-6.6c0-1,0-2.1,0-3.2c-0.1-1.5-0.9-2.4-2.4-2.4c-1.6,0-2.4,1-2.5,2.5c0,2.6,0,5.2,0,7.8
			c0,0.6-0.1,1.1-0.1,1.8h-7.1L848.1,174L848.1,174z M867.4,215.9c0,0.7-1.4,2-2.2,2c-5,0.2-10,0.2-14.9,0c-0.8,0-2.2-1.3-2.3-2.1
			c-0.2-4-0.1-8.1-0.1-12.4h19.6C867.5,207.7,867.6,211.8,867.4,215.9z M906.8,144.2h-29.3v-26.8h29.3V144.2z"/>
		<path class="st1" d="M838,164c-4.7,0-9.4,0-14.1,0c-3.5,0-5.5-1.9-5.5-5.5c0-5.3,0.2-10.6,0.2-16c0-4-0.2-8.1-0.2-12.1
			c0-4,1.8-5.8,5.8-5.8c9.3,0,18.5,0,27.8,0c3.9,0,5.8,1.8,5.8,5.6c0,5.4-0.2,10.7-0.3,16.1c0,4,0.1,8,0.2,12.1
			c0.1,3.3-1.9,5.5-5.2,5.5C847.7,164,842.8,164,838,164z M852.8,159.1c0-9.9,0-19.6,0-29.3c-9.9,0-19.7,0-29.4,0
			c0,9.8,0,19.5,0,29.3C833.3,159.1,843,159.1,852.8,159.1z"/>
		<path class="st0" d="M788.9,203.3c-4.1,0-7.4-3.2-7.5-7.3c0-4.1,3.2-7.4,7.3-7.5c4-0.1,7.4,3.3,7.5,7.3
			C796.3,200,793,203.3,788.9,203.3z M791.6,196.6c0-0.3,0-0.7,0-1c-0.9-0.7-1.7-1.7-2.7-2c-1.4-0.3-2.4,0.7-2.5,2.2
			c-0.1,1.6,0.8,2.7,2.3,2.6C789.8,198.2,790.7,197.2,791.6,196.6z"/>
		<path class="st0" d="M788.7,100c-4.1,0-7.3-3.3-7.3-7.5c0-4.1,3.4-7.4,7.5-7.3c4.1,0.1,7.3,3.5,7.3,7.5
			C796.2,96.9,792.9,100,788.7,100z M791.6,93c0-0.3,0-0.7,0-1c-0.9-0.6-1.8-1.6-2.8-1.7c-1.4-0.2-2.3,0.9-2.3,2.3
			c-0.1,1.4,1.3,2.8,2.5,2.4C790,94.7,790.8,93.7,791.6,93z"/>
		<path class="st0" d="M894.6,196.1c0,4.1-3.3,7.3-7.5,7.3c-4.1,0-7.3-3.4-7.3-7.4c0-4,3.5-7.4,7.5-7.3
			C891.4,188.7,894.6,192,894.6,196.1z M890,196.4c0-0.3,0-0.7,0-1c-0.9-0.7-1.8-1.7-2.8-1.8c-1.4-0.2-2.4,0.8-2.4,2.3
			c0,1.6,1,2.7,2.5,2.4C888.3,198.2,889.1,197.1,890,196.4z"/>
		<path class="st0" d="M823.8,85c0.6,0.9,1.7,1.8,1.8,2.8c0.2,1.4-0.8,2.3-2.3,2.4c-1.4,0.1-2.8-1.2-2.4-2.5c0.3-1,1.3-1.8,2-2.7
			C823.2,84.9,823.5,85,823.8,85z"/>
		<path class="st0" d="M816.2,88.3c-0.9,0.6-1.8,1.7-2.8,1.8c-1.5,0.2-2.4-1-2.3-2.5c0.1-1.5,1.1-2.5,2.5-2.2c1,0.2,1.8,1.3,2.7,2
			C816.2,87.7,816.2,88,816.2,88.3z"/>
		<path class="st0" d="M835.9,88.4c-0.9,0.6-1.8,1.6-2.8,1.7c-1.4,0.2-2.3-0.9-2.4-2.3c0-1.4,1.3-2.8,2.5-2.4c1,0.3,1.8,1.3,2.7,2
			C835.9,87.7,835.9,88,835.9,88.4z"/>
		<path class="st0" d="M806.4,88.1c-0.9,0.7-1.7,1.7-2.7,2c-1.4,0.3-2.4-0.7-2.5-2.2c-0.2-1.4,1-2.9,2.3-2.6c1,0.2,1.9,1.2,2.8,1.8
			C806.4,87.5,806.4,87.8,806.4,88.1z"/>
		<path class="st0" d="M806.4,98.1c-0.9,0.6-1.8,1.7-2.8,1.8c-1.5,0.3-2.5-0.8-2.4-2.4c0-1.5,1-2.5,2.4-2.2c1,0.2,1.8,1.2,2.8,1.8
			C806.4,97.4,806.4,97.7,806.4,98.1z"/>
		<path class="st0" d="M813.9,94.8c0.7,0.9,1.7,1.7,1.9,2.7c0.3,1.5-0.8,2.5-2.4,2.5c-1.5,0-2.5-1-2.3-2.4c0.2-1,1.2-1.8,1.8-2.7
			C813.3,94.8,813.6,94.8,813.9,94.8z"/>
		<path class="st0" d="M833.7,94.8c0.6,0.9,1.6,1.8,1.8,2.8c0.2,1.4-0.8,2.3-2.3,2.4c-1.6,0-2.6-1-2.4-2.5c0.2-1,1.2-1.8,1.9-2.7
			C833,94.8,833.4,94.8,833.7,94.8z"/>
		<path class="st0" d="M842.4,100.3c-0.6-0.9-1.6-1.8-1.8-2.8c-0.2-1.4,0.8-2.4,2.3-2.4c1.6,0,2.6,1,2.4,2.5c-0.2,1-1.2,1.8-1.9,2.7
			C843.1,100.3,842.7,100.3,842.4,100.3z"/>
		<path class="st0" d="M822.9,100.4c-0.7-0.9-1.8-1.7-2-2.7c-0.3-1.4,0.6-2.4,2.2-2.5c1.6-0.1,2.7,0.8,2.6,2.3
			c-0.1,1-1.1,1.9-1.8,2.8C823.6,100.3,823.2,100.3,822.9,100.4z"/>
		<path class="st0" d="M852.4,100.4c-0.7-0.9-1.8-1.7-2-2.7c-0.3-1.4,0.7-2.4,2.2-2.5c1.6-0.1,2.7,0.8,2.6,2.3
			c-0.1,1-1.1,1.9-1.7,2.8C853.1,100.3,852.8,100.3,852.4,100.4z"/>
		<path class="st0" d="M889.9,134.5c1.5,0,2.9,0,4.4,0c1.7,0,2.8,0.8,2.7,2.5c0,1.7-1.2,2.5-2.8,2.5c-3.1,0-6.2,0-9.2,0
			c-1.6,0-2.7-0.9-2.7-2.6c0.1-1.6,1.1-2.3,2.7-2.3C886.7,134.5,888.3,134.5,889.9,134.5z"/>
		<path class="st0" d="M889.8,122.2c1.5,0,3.1,0,4.6,0c1.6,0,2.6,0.8,2.6,2.4c0,1.6-1,2.5-2.5,2.5c-3.2,0-6.4,0.1-9.6,0
			c-1.5,0-2.6-0.9-2.5-2.5c0-1.6,1-2.4,2.6-2.4C886.6,122.2,888.2,122.2,889.8,122.2z"/>
		<path class="st0" d="M823.3,203.3c0-0.9-0.3-2,0.1-2.7c0.4-0.9,1.4-2,2.2-2c0.9,0,2.3,1,2.5,1.8c0.4,1.9,0.3,3.9,0,5.8
			c-0.1,0.8-1.6,1.9-2.3,1.8c-0.9-0.1-1.9-1.2-2.4-2.1C823,205.3,823.3,204.3,823.3,203.3L823.3,203.3z"/>
		<path class="st0" d="M818.3,203.2c0,0.8,0,1.7,0,2.5c-0.1,1.6-0.9,2.5-2.5,2.5c-1.5,0-2.3-1-2.3-2.4c0-1.6,0-3.2,0-4.8
			c0-1.6,0.9-2.5,2.5-2.5c1.5,0,2.3,1,2.3,2.4C818.4,201.7,818.3,202.5,818.3,203.2z"/>
	</g>
	<g>
		<g>
			<g>
				<g>
					<path class="st0" d="M872.1,43.9l2.6-7.2c3,3.6,7.5,6.7,12.9,8.6c11.5,4.1,23.4,1.8,26.3-6.5c3-8.3-4.7-17.7-16.2-21.8
						c-7.3-2.6-14.7-2.7-19.9-0.2c-2.5-5.2-8.2-9.9-15.5-12.6c-11.5-4.1-23.4-1.8-26.3,6.5c-3,8.3,4.7,17.7,16.2,21.8
						c5.4,1.9,10.8,2.4,15.4,1.6l-2.6,7.2c-18.7-4.9-38.4,3.9-47.2,21.1c-0.4,0.4-0.7,0.8-0.9,1.4L811.9,78c-0.7,2,0.3,4.1,2.3,4.8
						l70.8,25.5c2,0.7,4.1-0.3,4.8-2.3l5.1-14.2c0.2-0.5,0.3-1.1,0.2-1.6C899.2,71.4,889.6,52,872.1,43.9z M895.3,24.1
						c8.1,2.9,12.9,8.8,11.6,12.2s-8.6,4.9-16.7,2s-12.9-8.8-11.6-12.2C879.8,22.6,887.2,21.1,895.3,24.1z M854.8,25.5
						c-8.1-2.9-12.9-8.8-11.6-12.2c1.2-3.4,8.6-4.9,16.7-2c8.1,2.9,12.9,8.8,11.6,12.2C870.3,26.9,862.9,28.4,854.8,25.5z
						 M866.1,49.6c15.1,5.4,24.1,20.5,22.2,36l-62.2-22.4C834.5,50,851,44.1,866.1,49.6z M884,100L820.2,77l2.6-7.1l63.7,22.9
						L884,100L884,100z"/>
				</g>
			</g>
		</g>
		<line class="st4" x1="815.4" y1="79.3" x2="765" y2="61.3"/>
		<path class="st5" d="M839.2,70.3c2.7-8.3,11.4-21.2,17.7-25.8"/>
		<path class="st5" d="M872,84.4c2.1-7.9,4.2-23.9,2.3-33.3"/>
	</g>
</g>
</svg>
