<?xml version="1.0" encoding="utf-8"?>
<!-- Generator: Adobe Illustrator 21.1.0, SVG Export Plug-In . SVG Version: 6.00 Build 0)  -->
<svg version="1.1" id="Layer_1" xmlns="http://www.w3.org/2000/svg" xmlns:xlink="http://www.w3.org/1999/xlink" x="0px" y="0px"
	 width="950px" height="410.8px" viewBox="0 0 950 410.8" style="enable-background:new 0 0 950 410.8;" xml:space="preserve">
<style type="text/css">
	.st0{fill:none;stroke:#FF3030;stroke-width:3;stroke-miterlimit:10;}
	.st1{fill:#F5F5F5;}
	.st2{fill:#FF3030;}
</style>
<g>
	<g>
		<line class="st0" x1="344.9" y1="206.5" x2="870.6" y2="206.5"/>
		<g>
			<path class="st1" d="M799.1,54.8c0-1.1,0-2,0-2.9c0-13.6,0-27.2,0-40.8c0-6.3,3-9.3,9.3-9.3c41.4,0,82.7,0,124.1,0
				c6.6,0,9.5,2.9,9.5,9.6c0,9.2,0,18.3,0,27.5c0,0.8,0,1.6,0,2.3c0.3,0.2,0.5,0.3,0.6,0.3C949,42,950,43,950,49.4
				c0,8.3,0,16.6,0,25c0,5.1-1.6,6.7-6.7,6.9c-0.3,0-0.6,0.1-1.2,0.1c0,1,0,1.9,0,2.9c0,18.8,0,37.5,0,56.3c0,6.6-3,9.6-9.5,9.6
				c-8.2,0-16.3,0-24.9,0c0,1,0,1.9,0,2.7c-0.3,4.6-3.5,7.7-8.1,7.8c-5,0.1-10,0-15,0c-5.5,0-8.6-3.1-8.7-8.5c0-0.6-0.1-1.2-0.1-1.9
				c-1.7,0-3.3,0-4.9,0c-1.1,7.4-1.6,7.8-9.1,7.8c-7.1,0-14.2,0-21.3,0c-5.1,0-6.7-1.5-6.9-6.7c0-0.3-0.1-0.6-0.2-1.2
				c-0.8,0-1.6,0-2.4,0c-7.6,0-15.3,0-22.9,0c-5.7,0-8.8-3.2-8.8-8.9c0-13.7,0-27.4,0-41.1c0-0.9,0-1.8,0-3c-1,0-1.9,0-2.8,0
				c-2.9-0.2-5.1-2.2-5.1-5c-0.1-10.7-0.1-21.5,0-32.2c0-2.9,2.2-4.9,5.1-5C797.1,54.7,798,54.8,799.1,54.8z M825.7,94.4
				c1.7,0,3.2,0,4.7,0c1.7,0,3,0.7,3.1,2.6c0.1,2-1.2,2.8-3.1,2.8c-1.5,0-3.1,0-4.6,0c0,1.9,0,3.5,0,5.3c1.5,0,2.8,0,4.2,0
				c1.8,0,3.4,0.4,3.5,2.6c0.1,1.8-1.2,2.7-3.6,2.7c-5.2,0-10.4,0-15.7,0c-4,0-4.5-0.5-4.5-4.4c0-2.9,0-5.8,0-8.7
				c-1.9,0-3.5,0-5.2,0c-0.1,0.5-0.1,0.8-0.1,1.2c0,14.4,0,28.7,0,43.1c0,2.3,1,3.2,3.4,3.2c8,0,16,0,24,0c0.5,0,1-0.1,1.7-0.2
				c0-5.9,0-11.7,0-17.6c0-4,2-6,6-6c8.4,0,16.8,0,25.2,0c3.9,0,5.9,2,5.9,5.9c0,5.1,0,10.3,0,15.4c0,0.8,0,1.6,0,2.4
				c1.9,0,3.5,0,5.3,0c0-0.9,0-1.7,0-2.5c0-11.2,0-22.4,0-33.6c0-4.2,1.9-6.1,6.1-6.1c6.4,0,12.7,0,19.1,0c4.7,0,6.6,1.8,6.6,6.6
				c0,11,0,22.1,0,33.1c0,0.8,0.1,1.6,0.1,2.6c0.8,0,1.5,0,2.2,0c7.6,0,15.1,0,22.7,0c3.4,0,4.1-0.7,4.1-4.1c0-19.1,0-38.1,0-57.2
				c0-0.7,0-1.4,0-2.3c-7.9,0-15.3,0-22.8,0c-4.3,0-6.3-1.9-6.3-6.2c0-9.1,0-18.1,0-27.2c0-4.4,1.9-6.3,6.4-6.3c6.7,0,13.5,0,20.2,0
				c0.8,0,1.6-0.1,2.5-0.2c0-1,0-1.7,0-2.5c0-9.1,0-18.3,0-27.4c0-3.6-0.6-4.3-4.2-4.3c-41.4,0-82.7,0-124.1,0
				c-3.5,0-4.1,0.7-4.1,4.1c0,13.7,0,27.4,0,41.1c0,0.8,0.1,1.6,0.1,2.4c1.8,0,3.4,0,5.2,0c0-3.4,0-6.6,0-9.8c0-2.3,0.8-3.3,3.1-3.3
				c5.9-0.1,11.8,0,17.7,0c1.8,0,3,0.8,3,2.7c0,1.9-1.2,2.6-3,2.6c-1.6,0-3.1,0-4.6,0c0,2,0,3.6,0,5.3c1.6,0,3,0,4.5,0
				c1.9,0,3.2,0.7,3.2,2.7c0,2.1-1.4,2.6-3.2,2.6c-1.5,0-3,0-4.4,0c0,2,0,3.6,0,5.3c1.6,0,3.1,0,4.5,0c1.8,0,3.2,0.7,3.1,2.7
				c0,1.9-1.3,2.6-3.1,2.6c-1.6,0-3.1,0-4.6,0c0,1.9,0,3.5,0,5.3c1.7,0,3.3,0,4.8,0c1.8,0,3,0.9,2.9,2.7c-0.1,1.7-1.2,2.5-2.9,2.5
				c-1.6,0-3.1,0-4.8,0c0,1.9,0,3.5,0,5.3c1.6,0,3.1,0,4.6,0c1.8,0,3,0.7,3.1,2.5c0.1,2-1.3,2.7-3.1,2.7c-1.5,0-3.1,0-4.7,0
				C825.7,91,825.7,92.5,825.7,94.4z M944.5,75.7c0-9.7,0-19.2,0-28.8c-10.6,0-21,0-31.5,0c0,9.7,0,19.2,0,28.8
				C923.6,75.7,934,75.7,944.5,75.7z M865.1,152.6c0-8.8,0-17.5,0-26.2c-8.8,0-17.4,0-26.2,0c0,8.8,0,17.5,0,26.2
				C847.7,152.6,856.3,152.6,865.1,152.6z M902.2,134.1c0-8.9,0-17.6,0-26.2c-7.1,0-14,0-20.8,0c0,8.8,0,17.5,0,26.2
				c2.7,0,5.1,0,7.7,0c0-0.7,0.1-1.3,0.1-1.9c0-2.8,0-5.6,0-8.4c0-1.7,0.9-2.7,2.7-2.7c1.6,0,2.5,1,2.6,2.6c0.1,1.1,0,2.3,0,3.4
				c0,2.4,0,4.8,0,7.1C897.3,134.1,899.7,134.1,902.2,134.1z M796.6,91.6c4.5,0,8.7,0,12.9,0c0-10.6,0-21,0-31.5
				c-4.4,0-8.6,0-12.9,0C796.6,70.7,796.6,81.1,796.6,91.6z M881.2,139.6c0,4.6-0.1,9,0.1,13.3c0,0.8,1.6,2.3,2.5,2.3
				c5.4,0.2,10.7,0.2,16.1,0c0.8,0,2.3-1.4,2.3-2.2c0.2-4.4,0.1-8.9,0.1-13.4C895.2,139.6,888.4,139.6,881.2,139.6z M815.2,46.8
				c0,19.5,0,38.8,0,58.1c1.7,0,3.3,0,4.9,0c0-19.4,0-38.7,0-58.1C818.4,46.8,816.9,46.8,815.2,46.8z"/>
			<path class="st2" d="M870.5,97.1c-5.1,0-10.1,0-15.2,0c-3.8,0-5.9-2.1-5.9-5.9c0-5.7,0.2-11.5,0.2-17.2c0-4.3-0.2-8.7-0.3-13
				c0-4.3,2-6.2,6.2-6.2c10,0,20,0,29.9,0c4.2,0,6.2,2,6.2,6.1c0,5.8-0.2,11.5-0.3,17.3c0,4.3,0.1,8.7,0.3,13c0.1,3.5-2,5.9-5.6,6
				C881,97.1,875.7,97.1,870.5,97.1z M886.4,91.8c0-10.7,0-21.1,0-31.6c-10.7,0-21.1,0-31.7,0c0,10.6,0,21,0,31.6
				C865.5,91.8,875.9,91.8,886.4,91.8z"/>
			<path class="st1" d="M817.8,139.4c-4.4,0-8-3.4-8-7.8c0-4.4,3.4-8,7.8-8.1c4.3-0.1,8,3.5,8.1,7.9
				C825.7,135.8,822.2,139.3,817.8,139.4z M820.6,132.1c0-0.4,0-0.7,0-1.1c-1-0.7-1.8-1.9-2.9-2.1c-1.5-0.3-2.6,0.7-2.7,2.3
				c-0.1,1.7,0.9,2.9,2.5,2.7C818.7,133.9,819.6,132.8,820.6,132.1z"/>
			<path class="st1" d="M817.5,28.2c-4.4,0-7.9-3.6-7.8-8c0.1-4.4,3.7-7.9,8-7.8c4.4,0.1,7.9,3.7,7.8,8.1
				C825.5,24.8,822,28.3,817.5,28.2z M820.7,20.7c0-0.3,0-0.7,0-1c-1-0.7-2-1.7-3-1.9c-1.5-0.2-2.5,0.9-2.5,2.5
				c-0.1,1.5,1.4,3,2.7,2.6C818.9,22.5,819.7,21.5,820.7,20.7z"/>
			<path class="st1" d="M931.4,131.6c0,4.4-3.6,7.8-8,7.8c-4.4,0-7.9-3.6-7.8-8c0.1-4.3,3.7-7.9,8.1-7.8
				C928,123.6,931.5,127.2,931.4,131.6z M926.5,132c0-0.4,0-0.7,0-1.1c-1-0.7-1.9-1.8-3-2c-1.5-0.3-2.5,0.9-2.6,2.4
				c0,1.7,1,2.9,2.6,2.6C924.6,133.9,925.5,132.7,926.5,132z"/>
			<path class="st1" d="M931.4,20.3c0,4.4-3.5,7.9-7.9,7.9c-4.4,0-8-3.5-8-7.9c0-4.3,3.6-8,7.9-8C927.8,12.3,931.4,15.9,931.4,20.3z
				 M926.5,20.7c0-0.3,0-0.7,0-1c-1-0.7-2-1.7-3-1.9c-1.5-0.2-2.5,0.9-2.5,2.5c0,1.7,1.1,2.8,2.7,2.5
				C924.7,22.7,925.6,21.5,926.5,20.7z"/>
			<path class="st1" d="M855.3,12c0.7,1,1.8,1.9,2,3c0.2,1.5-0.9,2.5-2.5,2.6c-1.5,0.1-3-1.3-2.6-2.7c0.3-1.1,1.4-2,2.1-2.9
				C854.6,12,854.9,12,855.3,12z"/>
			<path class="st1" d="M886,18c-0.7-1-1.8-1.9-2.1-2.9c-0.3-1.5,0.8-2.5,2.4-2.7c1.5-0.1,3.1,1.2,2.7,2.6c-0.3,1.1-1.3,2-2,3
				C886.7,18,886.3,18,886,18z"/>
			<path class="st1" d="M847.1,15.6c-1,0.7-2,1.8-3,1.9c-1.6,0.2-2.6-1-2.5-2.7c0.1-1.6,1.2-2.7,2.7-2.3c1.1,0.2,1.9,1.4,2.9,2.1
				C847.1,14.9,847.1,15.3,847.1,15.6z"/>
			<path class="st1" d="M868.3,15.7c-1,0.7-2,1.7-3,1.9c-1.5,0.2-2.5-0.9-2.5-2.5c-0.1-1.5,1.3-3,2.7-2.6c1.1,0.3,1.9,1.4,2.9,2.2
				C868.3,15,868.3,15.3,868.3,15.7z"/>
			<path class="st1" d="M836.5,15.4c-1,0.7-1.8,1.9-2.9,2.1c-1.5,0.3-2.5-0.7-2.7-2.3c-0.2-1.5,1.1-3.1,2.5-2.8c1.1,0.3,2,1.3,3,1.9
				C836.5,14.7,836.5,15.1,836.5,15.4z"/>
			<path class="st1" d="M875.4,18c-0.7-1-1.8-1.9-2-3c-0.3-1.7,0.9-2.7,2.6-2.6c1.6,0,2.7,1.1,2.4,2.6c-0.2,1.1-1.3,2-2,3
				C876.1,18,875.7,18,875.4,18z"/>
			<path class="st1" d="M897.7,12c0.7,1,1.8,1.9,1.9,3c0.2,1.6-1,2.7-2.7,2.6c-1.6-0.1-2.6-1.2-2.3-2.7c0.2-1.1,1.3-2,2-2.9
				C896.9,12,897.3,12,897.7,12z"/>
			<path class="st1" d="M910.7,15.5c-1,0.7-1.8,1.9-2.9,2.1c-1.5,0.3-2.6-0.8-2.7-2.3c-0.1-1.7,0.9-2.9,2.6-2.7c1.1,0.1,2,1.3,3,1.9
				C910.6,14.8,910.6,15.1,910.7,15.5z"/>
			<path class="st1" d="M836.5,26.1c-1,0.7-1.9,1.8-3,2c-1.7,0.3-2.7-0.9-2.6-2.6c0.1-1.6,1.1-2.7,2.6-2.4c1.1,0.2,2,1.3,3,2
				C836.5,25.4,836.5,25.8,836.5,26.1z"/>
			<path class="st1" d="M844.6,22.6c0.7,1,1.8,1.9,2,2.9c0.3,1.6-0.9,2.7-2.6,2.6c-1.6,0-2.7-1.1-2.4-2.6c0.2-1.1,1.3-2,1.9-2.9
				C843.9,22.6,844.3,22.6,844.6,22.6z"/>
			<path class="st1" d="M865.9,22.6c0.7,1,1.7,1.9,1.9,3c0.2,1.5-0.9,2.5-2.5,2.5c-1.7,0-2.9-1-2.5-2.7c0.2-1.1,1.3-1.9,2-2.9
				C865.2,22.6,865.5,22.6,865.9,22.6z"/>
			<path class="st1" d="M875.3,28.6c-0.7-1-1.7-1.9-1.9-3c-0.2-1.5,0.9-2.6,2.5-2.6c1.7,0,2.9,1,2.6,2.7c-0.2,1.1-1.3,1.9-2,2.9
				C876,28.6,875.6,28.6,875.3,28.6z"/>
			<path class="st1" d="M900.1,26.2c-1,0.7-1.9,1.8-3,2c-1.5,0.3-2.6-0.8-2.6-2.4c0-1.7,1-2.9,2.6-2.6c1.1,0.2,2,1.3,3,2
				C900.1,25.4,900.1,25.8,900.1,26.2z"/>
			<path class="st1" d="M908.2,22.6c0.7,1,1.8,1.9,2,3c0.3,1.5-0.8,2.6-2.4,2.6c-1.7,0-2.9-1-2.6-2.6c0.2-1.1,1.3-2,2-2.9
				C907.5,22.6,907.9,22.6,908.2,22.6z"/>
			<path class="st1" d="M854.3,28.6c-0.7-0.9-1.9-1.8-2.1-2.9c-0.3-1.5,0.7-2.6,2.3-2.7c1.7-0.1,2.9,0.9,2.8,2.5
				c-0.1,1.1-1.2,2-1.9,3C855,28.6,854.7,28.6,854.3,28.6z"/>
			<path class="st1" d="M886.1,28.6c-0.7-0.9-1.9-1.8-2.1-2.9c-0.3-1.5,0.7-2.6,2.3-2.7c1.7-0.1,2.9,0.8,2.8,2.5
				c-0.1,1.1-1.2,2-1.9,3C886.8,28.6,886.4,28.6,886.1,28.6z"/>
			<path class="st1" d="M926.4,65.3c1.6,0,3.2,0,4.7,0c1.8,0,3,0.8,3,2.7c0,1.8-1.3,2.6-3,2.7c-3.3,0-6.6,0-9.9,0
				c-1.7,0-2.9-0.9-2.9-2.8c0.1-1.7,1.2-2.5,2.9-2.5C922.9,65.3,924.6,65.3,926.4,65.3z"/>
			<path class="st1" d="M926.3,52.1c1.7,0,3.3,0,5,0c1.7,0,2.8,0.9,2.8,2.6c0,1.7-1,2.6-2.7,2.7c-3.5,0.1-6.9,0.1-10.4,0
				c-1.7,0-2.8-1-2.7-2.7c0-1.7,1.1-2.6,2.8-2.6C922.8,52.1,924.6,52.1,926.3,52.1z"/>
			<path class="st1" d="M854.7,139.4c0-1-0.3-2.1,0.1-2.9c0.5-0.9,1.5-2.2,2.3-2.2c1,0,2.5,1.1,2.7,2c0.4,2,0.4,4.2,0,6.3
				c-0.1,0.8-1.7,2.1-2.5,2c-0.9-0.1-2-1.3-2.5-2.2C854.4,141.6,854.7,140.4,854.7,139.4L854.7,139.4z"/>
			<path class="st1" d="M849.4,139.3c0,0.9,0,1.8,0,2.7c-0.1,1.7-1,2.7-2.7,2.7c-1.6,0-2.5-1-2.5-2.6c-0.1-1.7-0.1-3.5,0-5.2
				c0.1-1.7,1-2.7,2.7-2.7c1.6,0,2.4,1,2.5,2.6C849.4,137.6,849.4,138.5,849.4,139.3z"/>
		</g>
		<g>
			<path class="st1" d="M799.1,304.9c0-1.1,0-2,0-2.9c0-13.6,0-27.2,0-40.8c0-6.3,3-9.3,9.3-9.3c41.4,0,82.7,0,124.1,0
				c6.6,0,9.5,2.9,9.5,9.6c0,9.2,0,18.3,0,27.5c0,0.8,0,1.6,0,2.3c0.3,0.2,0.5,0.3,0.6,0.3c6.4,0.5,7.4,1.5,7.4,7.9
				c0,8.3,0,16.6,0,25c0,5.1-1.6,6.7-6.7,6.9c-0.3,0-0.6,0.1-1.2,0.1c0,1,0,1.9,0,2.9c0,18.8,0,37.5,0,56.3c0,6.6-3,9.6-9.5,9.6
				c-8.2,0-16.3,0-24.9,0c0,1,0,1.9,0,2.7c-0.3,4.6-3.5,7.7-8.1,7.8c-5,0.1-10,0-15,0c-5.5,0-8.6-3.1-8.7-8.5c0-0.6-0.1-1.2-0.1-1.9
				c-1.7,0-3.3,0-4.9,0c-1.1,7.4-1.6,7.8-9.1,7.8c-7.1,0-14.2,0-21.3,0c-5.1,0-6.7-1.5-6.9-6.7c0-0.3-0.1-0.6-0.2-1.2
				c-0.8,0-1.6,0-2.4,0c-7.6,0-15.3,0-22.9,0c-5.7,0-8.8-3.2-8.8-8.9c0-13.7,0-27.4,0-41.1c0-0.9,0-1.8,0-3c-1,0-1.9,0-2.8,0
				c-2.9-0.2-5.1-2.2-5.1-5c-0.1-10.7-0.1-21.5,0-32.2c0-2.9,2.2-4.9,5.1-5C797.1,304.9,798,304.9,799.1,304.9z M825.7,344.6
				c1.7,0,3.2,0,4.7,0c1.7,0,3,0.7,3.1,2.6c0.1,2-1.2,2.8-3.1,2.8c-1.5,0-3.1,0-4.6,0c0,1.9,0,3.5,0,5.3c1.5,0,2.8,0,4.2,0
				c1.8,0,3.4,0.4,3.5,2.6c0.1,1.8-1.2,2.7-3.6,2.7c-5.2,0-10.4,0-15.7,0c-4,0-4.5-0.5-4.5-4.4c0-2.9,0-5.8,0-8.7
				c-1.9,0-3.5,0-5.2,0c-0.1,0.5-0.1,0.8-0.1,1.2c0,14.4,0,28.7,0,43.1c0,2.3,1,3.2,3.4,3.2c8,0,16,0,24,0c0.5,0,1-0.1,1.7-0.2
				c0-5.9,0-11.7,0-17.6c0-4,2-6,6-6c8.4,0,16.8,0,25.2,0c3.9,0,5.9,2,5.9,5.9c0,5.1,0,10.3,0,15.4c0,0.8,0,1.6,0,2.4
				c1.9,0,3.5,0,5.3,0c0-0.9,0-1.7,0-2.5c0-11.2,0-22.4,0-33.6c0-4.2,1.9-6.1,6.1-6.1c6.4,0,12.7,0,19.1,0c4.7,0,6.6,1.8,6.6,6.6
				c0,11,0,22.1,0,33.1c0,0.8,0.1,1.6,0.1,2.6c0.8,0,1.5,0,2.2,0c7.6,0,15.1,0,22.7,0c3.4,0,4.1-0.7,4.1-4.1c0-19.1,0-38.1,0-57.2
				c0-0.7,0-1.4,0-2.3c-7.9,0-15.3,0-22.8,0c-4.3,0-6.3-1.9-6.3-6.2c0-9.1,0-18.1,0-27.2c0-4.4,1.9-6.3,6.4-6.3c6.7,0,13.5,0,20.2,0
				c0.8,0,1.6-0.1,2.5-0.2c0-1,0-1.7,0-2.5c0-9.1,0-18.3,0-27.4c0-3.6-0.6-4.3-4.2-4.3c-41.4,0-82.7,0-124.1,0
				c-3.5,0-4.1,0.7-4.1,4.1c0,13.7,0,27.4,0,41.1c0,0.8,0.1,1.6,0.1,2.4c1.8,0,3.4,0,5.2,0c0-3.4,0-6.6,0-9.8c0-2.3,0.8-3.3,3.1-3.3
				c5.9-0.1,11.8,0,17.7,0c1.8,0,3,0.8,3,2.7c0,1.9-1.2,2.6-3,2.6c-1.6,0-3.1,0-4.6,0c0,2,0,3.6,0,5.3c1.6,0,3,0,4.5,0
				c1.9,0,3.2,0.7,3.2,2.7c0,2.1-1.4,2.6-3.2,2.6c-1.5,0-3,0-4.4,0c0,2,0,3.6,0,5.3c1.6,0,3.1,0,4.5,0c1.8,0,3.2,0.7,3.1,2.7
				c0,1.9-1.3,2.6-3.1,2.6c-1.6,0-3.1,0-4.6,0c0,1.9,0,3.5,0,5.3c1.7,0,3.3,0,4.8,0c1.8,0,3,0.9,2.9,2.7c-0.1,1.7-1.2,2.5-2.9,2.5
				c-1.6,0-3.1,0-4.8,0c0,1.9,0,3.5,0,5.3c1.6,0,3.1,0,4.6,0c1.8,0,3,0.7,3.1,2.5c0.1,2-1.3,2.7-3.1,2.7c-1.5,0-3.1,0-4.7,0
				C825.7,341.2,825.7,342.7,825.7,344.6z M944.5,325.9c0-9.7,0-19.2,0-28.8c-10.6,0-21,0-31.5,0c0,9.7,0,19.2,0,28.8
				C923.6,325.9,934,325.9,944.5,325.9z M865.1,402.7c0-8.8,0-17.5,0-26.2c-8.8,0-17.4,0-26.2,0c0,8.8,0,17.5,0,26.2
				C847.7,402.7,856.3,402.7,865.1,402.7z M902.2,384.2c0-8.9,0-17.6,0-26.2c-7.1,0-14,0-20.8,0c0,8.8,0,17.5,0,26.2
				c2.7,0,5.1,0,7.7,0c0-0.7,0.1-1.3,0.1-1.9c0-2.8,0-5.6,0-8.4c0-1.7,0.9-2.7,2.7-2.7c1.6,0,2.5,1,2.6,2.6c0.1,1.1,0,2.3,0,3.4
				c0,2.4,0,4.8,0,7.1C897.3,384.2,899.7,384.2,902.2,384.2z M796.6,341.8c4.5,0,8.7,0,12.9,0c0-10.6,0-21,0-31.5
				c-4.4,0-8.6,0-12.9,0C796.6,320.8,796.6,331.2,796.6,341.8z M881.2,389.7c0,4.6-0.1,9,0.1,13.3c0,0.8,1.6,2.3,2.5,2.3
				c5.4,0.2,10.7,0.2,16.1,0c0.8,0,2.3-1.4,2.3-2.2c0.2-4.4,0.1-8.9,0.1-13.4C895.2,389.7,888.4,389.7,881.2,389.7z M815.2,297
				c0,19.5,0,38.8,0,58.1c1.7,0,3.3,0,4.9,0c0-19.4,0-38.7,0-58.1C818.4,297,816.9,297,815.2,297z"/>
			<path class="st2" d="M870.5,347.2c-5.1,0-10.1,0-15.2,0c-3.8,0-5.9-2.1-5.9-5.9c0-5.7,0.2-11.5,0.2-17.2c0-4.3-0.2-8.7-0.3-13
				c0-4.3,2-6.2,6.2-6.2c10,0,20,0,29.9,0c4.2,0,6.2,2,6.2,6.1c0,5.8-0.2,11.5-0.3,17.3c0,4.3,0.1,8.7,0.3,13c0.1,3.5-2,5.9-5.6,6
				C881,347.3,875.7,347.2,870.5,347.2z M886.4,341.9c0-10.7,0-21.1,0-31.6c-10.7,0-21.1,0-31.7,0c0,10.6,0,21,0,31.6
				C865.5,341.9,875.9,341.9,886.4,341.9z"/>
			<path class="st1" d="M817.8,389.6c-4.4,0-8-3.4-8-7.8c0-4.4,3.4-8,7.8-8.1c4.3-0.1,8,3.5,8.1,7.9
				C825.7,385.9,822.2,389.5,817.8,389.6z M820.6,382.3c0-0.4,0-0.7,0-1.1c-1-0.7-1.8-1.9-2.9-2.1c-1.5-0.3-2.6,0.7-2.7,2.3
				c-0.1,1.7,0.9,2.9,2.5,2.7C818.7,384.1,819.6,383,820.6,382.3z"/>
			<path class="st1" d="M817.5,278.4c-4.4,0-7.9-3.6-7.8-8c0.1-4.4,3.7-7.9,8-7.8c4.4,0.1,7.9,3.7,7.8,8.1
				C825.5,275,822,278.4,817.5,278.4z M820.7,270.9c0-0.3,0-0.7,0-1c-1-0.7-2-1.7-3-1.9c-1.5-0.2-2.5,0.9-2.5,2.5
				c-0.1,1.5,1.4,3,2.7,2.6C818.9,272.7,819.7,271.6,820.7,270.9z"/>
			<path class="st1" d="M931.4,381.8c0,4.4-3.6,7.8-8,7.8c-4.4,0-7.9-3.6-7.8-8c0.1-4.3,3.7-7.9,8.1-7.8
				C928,373.8,931.5,377.4,931.4,381.8z M926.5,382.2c0-0.4,0-0.7,0-1.1c-1-0.7-1.9-1.8-3-2c-1.5-0.3-2.5,0.9-2.6,2.4
				c0,1.7,1,2.9,2.6,2.6C924.6,384,925.5,382.9,926.5,382.2z"/>
			<path class="st1" d="M931.4,270.5c0,4.4-3.5,7.9-7.9,7.9c-4.4,0-8-3.5-8-7.9c0-4.3,3.6-8,7.9-8
				C927.8,262.5,931.4,266.1,931.4,270.5z M926.5,270.9c0-0.3,0-0.7,0-1c-1-0.7-2-1.7-3-1.9c-1.5-0.2-2.5,0.9-2.5,2.5
				c0,1.7,1.1,2.8,2.7,2.5C924.7,272.8,925.6,271.6,926.5,270.9z"/>
			<path class="st1" d="M855.3,262.2c0.7,1,1.8,1.9,2,3c0.2,1.5-0.9,2.5-2.5,2.6c-1.5,0.1-3-1.3-2.6-2.7c0.3-1.1,1.4-2,2.1-2.9
				C854.6,262.2,854.9,262.2,855.3,262.2z"/>
			<path class="st1" d="M886,268.2c-0.7-1-1.8-1.9-2.1-2.9c-0.3-1.5,0.8-2.5,2.4-2.7c1.5-0.1,3.1,1.2,2.7,2.6c-0.3,1.1-1.3,2-2,3
				C886.7,268.2,886.3,268.2,886,268.2z"/>
			<path class="st1" d="M847.1,265.8c-1,0.7-2,1.8-3,1.9c-1.6,0.2-2.6-1-2.5-2.7c0.1-1.6,1.2-2.7,2.7-2.3c1.1,0.2,1.9,1.4,2.9,2.1
				C847.1,265.1,847.1,265.5,847.1,265.8z"/>
			<path class="st1" d="M868.3,265.8c-1,0.7-2,1.7-3,1.9c-1.5,0.2-2.5-0.9-2.5-2.5c-0.1-1.5,1.3-3,2.7-2.6c1.1,0.3,1.9,1.4,2.9,2.2
				C868.3,265.1,868.3,265.5,868.3,265.8z"/>
			<path class="st1" d="M836.5,265.6c-1,0.7-1.8,1.9-2.9,2.1c-1.5,0.3-2.5-0.7-2.7-2.3c-0.2-1.5,1.1-3.1,2.5-2.8
				c1.1,0.3,2,1.3,3,1.9C836.5,264.9,836.5,265.2,836.5,265.6z"/>
			<path class="st1" d="M875.4,268.2c-0.7-1-1.8-1.9-2-3c-0.3-1.7,0.9-2.7,2.6-2.6c1.6,0,2.7,1.1,2.4,2.6c-0.2,1.1-1.3,2-2,3
				C876.1,268.2,875.7,268.2,875.4,268.2z"/>
			<path class="st1" d="M897.7,262.2c0.7,1,1.8,1.9,1.9,3c0.2,1.6-1,2.7-2.7,2.6c-1.6-0.1-2.6-1.2-2.3-2.7c0.2-1.1,1.3-2,2-2.9
				C896.9,262.2,897.3,262.2,897.7,262.2z"/>
			<path class="st1" d="M910.7,265.6c-1,0.7-1.8,1.9-2.9,2.1c-1.5,0.3-2.6-0.8-2.7-2.3c-0.1-1.7,0.9-2.9,2.6-2.7
				c1.1,0.1,2,1.3,3,1.9C910.6,264.9,910.6,265.3,910.7,265.6z"/>
			<path class="st1" d="M836.5,276.3c-1,0.7-1.9,1.8-3,2c-1.7,0.3-2.7-0.9-2.6-2.6c0.1-1.6,1.1-2.7,2.6-2.4c1.1,0.2,2,1.3,3,2
				C836.5,275.6,836.5,276,836.5,276.3z"/>
			<path class="st1" d="M844.6,272.8c0.7,1,1.8,1.9,2,2.9c0.3,1.6-0.9,2.7-2.6,2.6c-1.6,0-2.7-1.1-2.4-2.6c0.2-1.1,1.3-2,1.9-2.9
				C843.9,272.8,844.3,272.8,844.6,272.8z"/>
			<path class="st1" d="M865.9,272.8c0.7,1,1.7,1.9,1.9,3c0.2,1.5-0.9,2.5-2.5,2.5c-1.7,0-2.9-1-2.5-2.7c0.2-1.1,1.3-1.9,2-2.9
				C865.2,272.8,865.5,272.8,865.9,272.8z"/>
			<path class="st1" d="M875.3,278.7c-0.7-1-1.7-1.9-1.9-3c-0.2-1.5,0.9-2.6,2.5-2.6c1.7,0,2.9,1,2.6,2.7c-0.2,1.1-1.3,1.9-2,2.9
				C876,278.8,875.6,278.8,875.3,278.7z"/>
			<path class="st1" d="M900.1,276.3c-1,0.7-1.9,1.8-3,2c-1.5,0.3-2.6-0.8-2.6-2.4c0-1.7,1-2.9,2.6-2.6c1.1,0.2,2,1.3,3,2
				C900.1,275.6,900.1,276,900.1,276.3z"/>
			<path class="st1" d="M908.2,272.8c0.7,1,1.8,1.9,2,3c0.3,1.5-0.8,2.6-2.4,2.6c-1.7,0-2.9-1-2.6-2.6c0.2-1.1,1.3-2,2-2.9
				C907.5,272.8,907.9,272.8,908.2,272.8z"/>
			<path class="st1" d="M854.3,278.8c-0.7-0.9-1.9-1.8-2.1-2.9c-0.3-1.5,0.7-2.6,2.3-2.7c1.7-0.1,2.9,0.9,2.8,2.5
				c-0.1,1.1-1.2,2-1.9,3C855,278.8,854.7,278.8,854.3,278.8z"/>
			<path class="st1" d="M886.1,278.8c-0.7-0.9-1.9-1.8-2.1-2.9c-0.3-1.5,0.7-2.6,2.3-2.7c1.7-0.1,2.9,0.8,2.8,2.5
				c-0.1,1.1-1.2,2-1.9,3C886.8,278.8,886.4,278.8,886.1,278.8z"/>
			<path class="st1" d="M926.4,315.5c1.6,0,3.2,0,4.7,0c1.8,0,3,0.8,3,2.7c0,1.8-1.3,2.6-3,2.7c-3.3,0-6.6,0-9.9,0
				c-1.7,0-2.9-0.9-2.9-2.8c0.1-1.7,1.2-2.5,2.9-2.5C922.9,315.5,924.6,315.5,926.4,315.5z"/>
			<path class="st1" d="M926.3,302.3c1.7,0,3.3,0,5,0c1.7,0,2.8,0.9,2.8,2.6c0,1.7-1,2.6-2.7,2.7c-3.5,0.1-6.9,0.1-10.4,0
				c-1.7,0-2.8-1-2.7-2.7c0-1.7,1.1-2.6,2.8-2.6C922.8,302.3,924.6,302.3,926.3,302.3z"/>
			<path class="st1" d="M854.7,389.6c0-1-0.3-2.1,0.1-2.9c0.5-0.9,1.5-2.2,2.3-2.2c1,0,2.5,1.1,2.7,2c0.4,2,0.4,4.2,0,6.3
				c-0.1,0.8-1.7,2.1-2.5,2c-0.9-0.1-2-1.3-2.5-2.2C854.4,391.7,854.7,390.6,854.7,389.6L854.7,389.6z"/>
			<path class="st1" d="M849.4,389.5c0,0.9,0,1.8,0,2.7c-0.1,1.7-1,2.7-2.7,2.7c-1.6,0-2.5-1-2.5-2.6c-0.1-1.7-0.1-3.5,0-5.2
				c0.1-1.7,1-2.7,2.7-2.7c1.6,0,2.4,1,2.5,2.6C849.4,387.8,849.4,388.6,849.4,389.5z"/>
		</g>
		<g>
			<path class="st1" d="M607.2,54.8c0-1.1,0-2,0-2.9c0-13.6,0-27.2,0-40.8c0-6.3,3-9.3,9.3-9.3c41.4,0,82.7,0,124.1,0
				c6.6,0,9.5,2.9,9.5,9.6c0,9.2,0,18.3,0,27.5c0,0.8,0,1.6,0,2.3c0.3,0.2,0.5,0.3,0.6,0.3c6.4,0.5,7.4,1.5,7.4,7.9
				c0,8.3,0,16.6,0,25c0,5.1-1.6,6.7-6.7,6.9c-0.3,0-0.6,0.1-1.2,0.1c0,1,0,1.9,0,2.9c0,18.8,0,37.5,0,56.3c0,6.6-3,9.6-9.5,9.6
				c-8.2,0-16.3,0-24.9,0c0,1,0,1.9,0,2.7c-0.3,4.6-3.5,7.7-8.1,7.8c-5,0.1-10,0-15,0c-5.5,0-8.6-3.1-8.7-8.5c0-0.6-0.1-1.2-0.1-1.9
				c-1.7,0-3.3,0-4.9,0c-1.1,7.4-1.6,7.8-9.1,7.8c-7.1,0-14.2,0-21.3,0c-5.1,0-6.7-1.5-6.9-6.7c0-0.3-0.1-0.6-0.2-1.2
				c-0.8,0-1.6,0-2.4,0c-7.6,0-15.3,0-22.9,0c-5.7,0-8.8-3.2-8.8-8.9c0-13.7,0-27.4,0-41.1c0-0.9,0-1.8,0-3c-1,0-1.9,0-2.8,0
				c-2.9-0.2-5.1-2.2-5.1-5c-0.1-10.7-0.1-21.5,0-32.2c0-2.9,2.2-4.9,5.1-5C605.2,54.7,606,54.8,607.2,54.8z M633.7,94.4
				c1.7,0,3.2,0,4.7,0c1.7,0,3,0.7,3.1,2.6c0.1,2-1.2,2.8-3.1,2.8c-1.5,0-3.1,0-4.6,0c0,1.9,0,3.5,0,5.3c1.5,0,2.8,0,4.2,0
				c1.8,0,3.4,0.4,3.5,2.6c0.1,1.8-1.2,2.7-3.6,2.7c-5.2,0-10.4,0-15.7,0c-4,0-4.5-0.5-4.5-4.4c0-2.9,0-5.8,0-8.7
				c-1.9,0-3.5,0-5.2,0c-0.1,0.5-0.1,0.8-0.1,1.2c0,14.4,0,28.7,0,43.1c0,2.3,1,3.2,3.4,3.2c8,0,16,0,24,0c0.5,0,1-0.1,1.7-0.2
				c0-5.9,0-11.7,0-17.6c0-4,2-6,6-6c8.4,0,16.8,0,25.2,0c3.9,0,5.9,2,5.9,5.9c0,5.1,0,10.3,0,15.4c0,0.8,0,1.6,0,2.4
				c1.9,0,3.5,0,5.3,0c0-0.9,0-1.7,0-2.5c0-11.2,0-22.4,0-33.6c0-4.2,1.9-6.1,6.1-6.1c6.4,0,12.7,0,19.1,0c4.7,0,6.6,1.8,6.6,6.6
				c0,11,0,22.1,0,33.1c0,0.8,0.1,1.6,0.1,2.6c0.8,0,1.5,0,2.2,0c7.6,0,15.1,0,22.7,0c3.4,0,4.1-0.7,4.1-4.1c0-19.1,0-38.1,0-57.2
				c0-0.7,0-1.4,0-2.3c-7.9,0-15.3,0-22.8,0c-4.3,0-6.3-1.9-6.3-6.2c0-9.1,0-18.1,0-27.2c0-4.4,1.9-6.3,6.4-6.3c6.7,0,13.5,0,20.2,0
				c0.8,0,1.6-0.1,2.5-0.2c0-1,0-1.7,0-2.5c0-9.1,0-18.3,0-27.4c0-3.6-0.6-4.3-4.2-4.3c-41.4,0-82.7,0-124.1,0
				c-3.5,0-4.1,0.7-4.1,4.1c0,13.7,0,27.4,0,41.1c0,0.8,0.1,1.6,0.1,2.4c1.8,0,3.4,0,5.2,0c0-3.4,0-6.6,0-9.8c0-2.3,0.8-3.3,3.1-3.3
				c5.9-0.1,11.8,0,17.7,0c1.8,0,3,0.8,3,2.7c0,1.9-1.2,2.6-3,2.6c-1.6,0-3.1,0-4.6,0c0,2,0,3.6,0,5.3c1.6,0,3,0,4.5,0
				c1.9,0,3.2,0.7,3.2,2.7c0,2.1-1.4,2.6-3.2,2.6c-1.5,0-3,0-4.4,0c0,2,0,3.6,0,5.3c1.6,0,3.1,0,4.5,0c1.8,0,3.2,0.7,3.1,2.7
				c0,1.9-1.3,2.6-3.1,2.6c-1.6,0-3.1,0-4.6,0c0,1.9,0,3.5,0,5.3c1.7,0,3.3,0,4.8,0c1.8,0,3,0.9,2.9,2.7c-0.1,1.7-1.2,2.5-2.9,2.5
				c-1.6,0-3.1,0-4.8,0c0,1.9,0,3.5,0,5.3c1.6,0,3.1,0,4.6,0c1.8,0,3,0.7,3.1,2.5c0.1,2-1.3,2.7-3.1,2.7c-1.5,0-3.1,0-4.7,0
				C633.7,91,633.7,92.5,633.7,94.4z M752.6,75.7c0-9.7,0-19.2,0-28.8c-10.6,0-21,0-31.5,0c0,9.7,0,19.2,0,28.8
				C731.7,75.7,742.1,75.7,752.6,75.7z M673.2,152.6c0-8.8,0-17.5,0-26.2c-8.8,0-17.4,0-26.2,0c0,8.8,0,17.5,0,26.2
				C655.8,152.6,664.4,152.6,673.2,152.6z M710.3,134.1c0-8.9,0-17.6,0-26.2c-7.1,0-14,0-20.8,0c0,8.8,0,17.5,0,26.2
				c2.7,0,5.1,0,7.7,0c0-0.7,0.1-1.3,0.1-1.9c0-2.8,0-5.6,0-8.4c0-1.7,0.9-2.7,2.7-2.7c1.6,0,2.5,1,2.6,2.6c0.1,1.1,0,2.3,0,3.4
				c0,2.4,0,4.8,0,7.1C705.3,134.1,707.7,134.1,710.3,134.1z M604.7,91.6c4.5,0,8.7,0,12.9,0c0-10.6,0-21,0-31.5
				c-4.4,0-8.6,0-12.9,0C604.7,70.7,604.7,81.1,604.7,91.6z M689.3,139.6c0,4.6-0.1,9,0.1,13.3c0,0.8,1.6,2.3,2.5,2.3
				c5.4,0.2,10.7,0.2,16.1,0c0.8,0,2.3-1.4,2.3-2.2c0.2-4.4,0.1-8.9,0.1-13.4C703.3,139.6,696.5,139.6,689.3,139.6z M623.3,46.8
				c0,19.5,0,38.8,0,58.1c1.7,0,3.3,0,4.9,0c0-19.4,0-38.7,0-58.1C626.5,46.8,625,46.8,623.3,46.8z"/>
			<path class="st2" d="M678.6,97.1c-5.1,0-10.1,0-15.2,0c-3.8,0-5.9-2.1-5.9-5.9c0-5.7,0.2-11.5,0.2-17.2c0-4.3-0.2-8.7-0.3-13
				c0-4.3,2-6.2,6.2-6.2c10,0,20,0,29.9,0c4.2,0,6.2,2,6.2,6.1c0,5.8-0.2,11.5-0.3,17.3c0,4.3,0.1,8.7,0.3,13c0.1,3.5-2,5.9-5.6,6
				C689,97.1,683.8,97.1,678.6,97.1z M694.5,91.8c0-10.7,0-21.1,0-31.6c-10.7,0-21.1,0-31.7,0c0,10.6,0,21,0,31.6
				C673.5,91.8,684,91.8,694.5,91.8z"/>
			<path class="st1" d="M625.8,139.4c-4.4,0-8-3.4-8-7.8c0-4.4,3.4-8,7.8-8.1c4.3-0.1,8,3.5,8.1,7.9
				C633.8,135.8,630.2,139.3,625.8,139.4z M628.7,132.1c0-0.4,0-0.7,0-1.1c-1-0.7-1.8-1.9-2.9-2.1c-1.5-0.3-2.6,0.7-2.7,2.3
				c-0.1,1.7,0.9,2.9,2.5,2.7C626.7,133.9,627.7,132.8,628.7,132.1z"/>
			<path class="st1" d="M625.6,28.2c-4.4,0-7.9-3.6-7.8-8c0.1-4.4,3.7-7.9,8-7.8c4.4,0.1,7.9,3.7,7.8,8.1
				C633.6,24.8,630.1,28.3,625.6,28.2z M628.7,20.7c0-0.3,0-0.7,0-1c-1-0.7-2-1.7-3-1.9c-1.5-0.2-2.5,0.9-2.5,2.5
				c-0.1,1.5,1.4,3,2.7,2.6C626.9,22.5,627.8,21.5,628.7,20.7z"/>
			<path class="st1" d="M739.5,131.6c0,4.4-3.6,7.8-8,7.8c-4.4,0-7.9-3.6-7.8-8c0.1-4.3,3.7-7.9,8.1-7.8
				C736.1,123.6,739.6,127.2,739.5,131.6z M734.6,132c0-0.4,0-0.7,0-1.1c-1-0.7-1.9-1.8-3-2c-1.5-0.3-2.5,0.9-2.6,2.4
				c0,1.7,1,2.9,2.6,2.6C732.7,133.9,733.6,132.7,734.6,132z"/>
			<path class="st1" d="M739.5,20.3c0,4.4-3.5,7.9-7.9,7.9c-4.4,0-8-3.5-8-7.9c0-4.3,3.6-8,7.9-8C735.9,12.3,739.5,15.9,739.5,20.3z
				 M734.6,20.7c0-0.3,0-0.7,0-1c-1-0.7-2-1.7-3-1.9c-1.5-0.2-2.5,0.9-2.5,2.5c0,1.7,1.1,2.8,2.7,2.5
				C732.8,22.7,733.7,21.5,734.6,20.7z"/>
			<path class="st1" d="M663.4,12c0.7,1,1.8,1.9,2,3c0.2,1.5-0.9,2.5-2.5,2.6c-1.5,0.1-3-1.3-2.6-2.7c0.3-1.1,1.4-2,2.1-2.9
				C662.7,12,663,12,663.4,12z"/>
			<path class="st1" d="M694.1,18c-0.7-1-1.8-1.9-2.1-2.9c-0.3-1.5,0.8-2.5,2.4-2.7c1.5-0.1,3.1,1.2,2.7,2.6c-0.3,1.1-1.3,2-2,3
				C694.8,18,694.4,18,694.1,18z"/>
			<path class="st1" d="M655.2,15.6c-1,0.7-2,1.8-3,1.9c-1.6,0.2-2.6-1-2.5-2.7c0.1-1.6,1.2-2.7,2.7-2.3c1.1,0.2,1.9,1.4,2.9,2.1
				C655.2,14.9,655.2,15.3,655.2,15.6z"/>
			<path class="st1" d="M676.4,15.7c-1,0.7-2,1.7-3,1.9c-1.5,0.2-2.5-0.9-2.5-2.5c-0.1-1.5,1.3-3,2.7-2.6c1.1,0.3,1.9,1.4,2.9,2.2
				C676.4,15,676.4,15.3,676.4,15.7z"/>
			<path class="st1" d="M644.6,15.4c-1,0.7-1.8,1.9-2.9,2.1c-1.5,0.3-2.5-0.7-2.7-2.3c-0.2-1.5,1.1-3.1,2.5-2.8c1.1,0.3,2,1.3,3,1.9
				C644.6,14.7,644.6,15.1,644.6,15.4z"/>
			<path class="st1" d="M683.4,18c-0.7-1-1.8-1.9-2-3c-0.3-1.7,0.9-2.7,2.6-2.6c1.6,0,2.7,1.1,2.4,2.6c-0.2,1.1-1.3,2-2,3
				C684.2,18,683.8,18,683.4,18z"/>
			<path class="st1" d="M705.7,12c0.7,1,1.8,1.9,1.9,3c0.2,1.6-1,2.7-2.7,2.6c-1.6-0.1-2.6-1.2-2.3-2.7c0.2-1.1,1.3-2,2-2.9
				C705,12,705.4,12,705.7,12z"/>
			<path class="st1" d="M718.7,15.5c-1,0.7-1.8,1.9-2.9,2.1c-1.5,0.3-2.6-0.8-2.7-2.3c-0.1-1.7,0.9-2.9,2.6-2.7c1.1,0.1,2,1.3,3,1.9
				C718.7,14.8,718.7,15.1,718.7,15.5z"/>
			<path class="st1" d="M644.6,26.1c-1,0.7-1.9,1.8-3,2c-1.7,0.3-2.7-0.9-2.6-2.6c0.1-1.6,1.1-2.7,2.6-2.4c1.1,0.2,2,1.3,3,2
				C644.6,25.4,644.6,25.8,644.6,26.1z"/>
			<path class="st1" d="M652.7,22.6c0.7,1,1.8,1.9,2,2.9c0.3,1.6-0.9,2.7-2.6,2.6c-1.6,0-2.7-1.1-2.4-2.6c0.2-1.1,1.3-2,1.9-2.9
				C652,22.6,652.4,22.6,652.7,22.6z"/>
			<path class="st1" d="M674,22.6c0.7,1,1.7,1.9,1.9,3c0.2,1.5-0.9,2.5-2.5,2.5c-1.7,0-2.9-1-2.5-2.7c0.2-1.1,1.3-1.9,2-2.9
				C673.3,22.6,673.6,22.6,674,22.6z"/>
			<path class="st1" d="M683.4,28.6c-0.7-1-1.7-1.9-1.9-3c-0.2-1.5,0.9-2.6,2.5-2.6c1.7,0,2.9,1,2.6,2.7c-0.2,1.1-1.3,1.9-2,2.9
				C684.1,28.6,683.7,28.6,683.4,28.6z"/>
			<path class="st1" d="M708.1,26.2c-1,0.7-1.9,1.8-3,2c-1.5,0.3-2.6-0.8-2.6-2.4c0-1.7,1-2.9,2.6-2.6c1.1,0.2,2,1.3,3,2
				C708.1,25.4,708.1,25.8,708.1,26.2z"/>
			<path class="st1" d="M716.3,22.6c0.7,1,1.8,1.9,2,3c0.3,1.5-0.8,2.6-2.4,2.6c-1.7,0-2.9-1-2.6-2.6c0.2-1.1,1.3-2,2-2.9
				C715.6,22.6,715.9,22.6,716.3,22.6z"/>
			<path class="st1" d="M662.4,28.6c-0.7-0.9-1.9-1.8-2.1-2.9c-0.3-1.5,0.7-2.6,2.3-2.7c1.7-0.1,2.9,0.9,2.8,2.5
				c-0.1,1.1-1.2,2-1.9,3C663.1,28.6,662.7,28.6,662.4,28.6z"/>
			<path class="st1" d="M694.2,28.6c-0.7-0.9-1.9-1.8-2.1-2.9c-0.3-1.5,0.7-2.6,2.3-2.7c1.7-0.1,2.9,0.8,2.8,2.5
				c-0.1,1.1-1.2,2-1.9,3C694.9,28.6,694.5,28.6,694.2,28.6z"/>
			<path class="st1" d="M734.4,65.3c1.6,0,3.2,0,4.7,0c1.8,0,3,0.8,3,2.7c0,1.8-1.3,2.6-3,2.7c-3.3,0-6.6,0-9.9,0
				c-1.7,0-2.9-0.9-2.9-2.8c0.1-1.7,1.2-2.5,2.9-2.5C731,65.3,732.7,65.3,734.4,65.3z"/>
			<path class="st1" d="M734.4,52.1c1.7,0,3.3,0,5,0c1.7,0,2.8,0.9,2.8,2.6c0,1.7-1,2.6-2.7,2.7c-3.5,0.1-6.9,0.1-10.4,0
				c-1.7,0-2.8-1-2.7-2.7c0-1.7,1.1-2.6,2.8-2.6C730.9,52.1,732.6,52.1,734.4,52.1z"/>
			<path class="st1" d="M662.8,139.4c0-1-0.3-2.1,0.1-2.9c0.5-0.9,1.5-2.2,2.3-2.2c1,0,2.5,1.1,2.7,2c0.4,2,0.4,4.2,0,6.3
				c-0.1,0.8-1.7,2.1-2.5,2c-0.9-0.1-2-1.3-2.5-2.2C662.5,141.6,662.8,140.4,662.8,139.4L662.8,139.4z"/>
			<path class="st1" d="M657.5,139.3c0,0.9,0,1.8,0,2.7c-0.1,1.7-1,2.7-2.7,2.7c-1.6,0-2.5-1-2.5-2.6c-0.1-1.7-0.1-3.5,0-5.2
				c0.1-1.7,1-2.7,2.7-2.7c1.6,0,2.4,1,2.5,2.6C657.5,137.6,657.5,138.5,657.5,139.3z"/>
		</g>
		<g>
			<path class="st1" d="M607.2,304.9c0-1.1,0-2,0-2.9c0-13.6,0-27.2,0-40.8c0-6.3,3-9.3,9.3-9.3c41.4,0,82.7,0,124.1,0
				c6.6,0,9.5,2.9,9.5,9.6c0,9.2,0,18.3,0,27.5c0,0.8,0,1.6,0,2.3c0.3,0.2,0.5,0.3,0.6,0.3c6.4,0.5,7.4,1.5,7.4,7.9
				c0,8.3,0,16.6,0,25c0,5.1-1.6,6.7-6.7,6.9c-0.3,0-0.6,0.1-1.2,0.1c0,1,0,1.9,0,2.9c0,18.8,0,37.5,0,56.3c0,6.6-3,9.6-9.5,9.6
				c-8.2,0-16.3,0-24.9,0c0,1,0,1.9,0,2.7c-0.3,4.6-3.5,7.7-8.1,7.8c-5,0.1-10,0-15,0c-5.5,0-8.6-3.1-8.7-8.5c0-0.6-0.1-1.2-0.1-1.9
				c-1.7,0-3.3,0-4.9,0c-1.1,7.4-1.6,7.8-9.1,7.8c-7.1,0-14.2,0-21.3,0c-5.1,0-6.7-1.5-6.9-6.7c0-0.3-0.1-0.6-0.2-1.2
				c-0.8,0-1.6,0-2.4,0c-7.6,0-15.3,0-22.9,0c-5.7,0-8.8-3.2-8.8-8.9c0-13.7,0-27.4,0-41.1c0-0.9,0-1.8,0-3c-1,0-1.9,0-2.8,0
				c-2.9-0.2-5.1-2.2-5.1-5c-0.1-10.7-0.1-21.5,0-32.2c0-2.9,2.2-4.9,5.1-5C605.2,304.9,606,304.9,607.2,304.9z M633.7,344.6
				c1.7,0,3.2,0,4.7,0c1.7,0,3,0.7,3.1,2.6c0.1,2-1.2,2.8-3.1,2.8c-1.5,0-3.1,0-4.6,0c0,1.9,0,3.5,0,5.3c1.5,0,2.8,0,4.2,0
				c1.8,0,3.4,0.4,3.5,2.6c0.1,1.8-1.2,2.7-3.6,2.7c-5.2,0-10.4,0-15.7,0c-4,0-4.5-0.5-4.5-4.4c0-2.9,0-5.8,0-8.7
				c-1.9,0-3.5,0-5.2,0c-0.1,0.5-0.1,0.8-0.1,1.2c0,14.4,0,28.7,0,43.1c0,2.3,1,3.2,3.4,3.2c8,0,16,0,24,0c0.5,0,1-0.1,1.7-0.2
				c0-5.9,0-11.7,0-17.6c0-4,2-6,6-6c8.4,0,16.8,0,25.2,0c3.9,0,5.9,2,5.9,5.9c0,5.1,0,10.3,0,15.4c0,0.8,0,1.6,0,2.4
				c1.9,0,3.5,0,5.3,0c0-0.9,0-1.7,0-2.5c0-11.2,0-22.4,0-33.6c0-4.2,1.9-6.1,6.1-6.1c6.4,0,12.7,0,19.1,0c4.7,0,6.6,1.8,6.6,6.6
				c0,11,0,22.1,0,33.1c0,0.8,0.1,1.6,0.1,2.6c0.8,0,1.5,0,2.2,0c7.6,0,15.1,0,22.7,0c3.4,0,4.1-0.7,4.1-4.1c0-19.1,0-38.1,0-57.2
				c0-0.7,0-1.4,0-2.3c-7.9,0-15.3,0-22.8,0c-4.3,0-6.3-1.9-6.3-6.2c0-9.1,0-18.1,0-27.2c0-4.4,1.9-6.3,6.4-6.3c6.7,0,13.5,0,20.2,0
				c0.8,0,1.6-0.1,2.5-0.2c0-1,0-1.7,0-2.5c0-9.1,0-18.3,0-27.4c0-3.6-0.6-4.3-4.2-4.3c-41.4,0-82.7,0-124.1,0
				c-3.5,0-4.1,0.7-4.1,4.1c0,13.7,0,27.4,0,41.1c0,0.8,0.1,1.6,0.1,2.4c1.8,0,3.4,0,5.2,0c0-3.4,0-6.6,0-9.8c0-2.3,0.8-3.3,3.1-3.3
				c5.9-0.1,11.8,0,17.7,0c1.8,0,3,0.8,3,2.7c0,1.9-1.2,2.6-3,2.6c-1.6,0-3.1,0-4.6,0c0,2,0,3.6,0,5.3c1.6,0,3,0,4.5,0
				c1.9,0,3.2,0.7,3.2,2.7c0,2.1-1.4,2.6-3.2,2.6c-1.5,0-3,0-4.4,0c0,2,0,3.6,0,5.3c1.6,0,3.1,0,4.5,0c1.8,0,3.2,0.7,3.1,2.7
				c0,1.9-1.3,2.6-3.1,2.6c-1.6,0-3.1,0-4.6,0c0,1.9,0,3.5,0,5.3c1.7,0,3.3,0,4.8,0c1.8,0,3,0.9,2.9,2.7c-0.1,1.7-1.2,2.5-2.9,2.5
				c-1.6,0-3.1,0-4.8,0c0,1.9,0,3.5,0,5.3c1.6,0,3.1,0,4.6,0c1.8,0,3,0.7,3.1,2.5c0.1,2-1.3,2.7-3.1,2.7c-1.5,0-3.1,0-4.7,0
				C633.7,341.2,633.7,342.7,633.7,344.6z M752.6,325.9c0-9.7,0-19.2,0-28.8c-10.6,0-21,0-31.5,0c0,9.7,0,19.2,0,28.8
				C731.7,325.9,742.1,325.9,752.6,325.9z M673.2,402.7c0-8.8,0-17.5,0-26.2c-8.8,0-17.4,0-26.2,0c0,8.8,0,17.5,0,26.2
				C655.8,402.7,664.4,402.7,673.2,402.7z M710.3,384.2c0-8.9,0-17.6,0-26.2c-7.1,0-14,0-20.8,0c0,8.8,0,17.5,0,26.2
				c2.7,0,5.1,0,7.7,0c0-0.7,0.1-1.3,0.1-1.9c0-2.8,0-5.6,0-8.4c0-1.7,0.9-2.7,2.7-2.7c1.6,0,2.5,1,2.6,2.6c0.1,1.1,0,2.3,0,3.4
				c0,2.4,0,4.8,0,7.1C705.3,384.2,707.7,384.2,710.3,384.2z M604.7,341.8c4.5,0,8.7,0,12.9,0c0-10.6,0-21,0-31.5
				c-4.4,0-8.6,0-12.9,0C604.7,320.8,604.7,331.2,604.7,341.8z M689.3,389.7c0,4.6-0.1,9,0.1,13.3c0,0.8,1.6,2.3,2.5,2.3
				c5.4,0.2,10.7,0.2,16.1,0c0.8,0,2.3-1.4,2.3-2.2c0.2-4.4,0.1-8.9,0.1-13.4C703.3,389.7,696.5,389.7,689.3,389.7z M623.3,297
				c0,19.5,0,38.8,0,58.1c1.7,0,3.3,0,4.9,0c0-19.4,0-38.7,0-58.1C626.5,297,625,297,623.3,297z"/>
			<path class="st2" d="M678.6,347.2c-5.1,0-10.1,0-15.2,0c-3.8,0-5.9-2.1-5.9-5.9c0-5.7,0.2-11.5,0.2-17.2c0-4.3-0.2-8.7-0.3-13
				c0-4.3,2-6.2,6.2-6.2c10,0,20,0,29.9,0c4.2,0,6.2,2,6.2,6.1c0,5.8-0.2,11.5-0.3,17.3c0,4.3,0.1,8.7,0.3,13c0.1,3.5-2,5.9-5.6,6
				C689,347.3,683.8,347.2,678.6,347.2z M694.5,341.9c0-10.7,0-21.1,0-31.6c-10.7,0-21.1,0-31.7,0c0,10.6,0,21,0,31.6
				C673.5,341.9,684,341.9,694.5,341.9z"/>
			<path class="st1" d="M625.8,389.6c-4.4,0-8-3.4-8-7.8c0-4.4,3.4-8,7.8-8.1c4.3-0.1,8,3.5,8.1,7.9
				C633.8,385.9,630.2,389.5,625.8,389.6z M628.7,382.3c0-0.4,0-0.7,0-1.1c-1-0.7-1.8-1.9-2.9-2.1c-1.5-0.3-2.6,0.7-2.7,2.3
				c-0.1,1.7,0.9,2.9,2.5,2.7C626.7,384.1,627.7,383,628.7,382.3z"/>
			<path class="st1" d="M625.6,278.4c-4.4,0-7.9-3.6-7.8-8c0.1-4.4,3.7-7.9,8-7.8c4.4,0.1,7.9,3.7,7.8,8.1
				C633.6,275,630.1,278.4,625.6,278.4z M628.7,270.9c0-0.3,0-0.7,0-1c-1-0.7-2-1.7-3-1.9c-1.5-0.2-2.5,0.9-2.5,2.5
				c-0.1,1.5,1.4,3,2.7,2.6C626.9,272.7,627.8,271.6,628.7,270.9z"/>
			<path class="st1" d="M739.5,381.8c0,4.4-3.6,7.8-8,7.8c-4.4,0-7.9-3.6-7.8-8c0.1-4.3,3.7-7.9,8.1-7.8
				C736.1,373.8,739.6,377.4,739.5,381.8z M734.6,382.2c0-0.4,0-0.7,0-1.1c-1-0.7-1.9-1.8-3-2c-1.5-0.3-2.5,0.9-2.6,2.4
				c0,1.7,1,2.9,2.6,2.6C732.7,384,733.6,382.9,734.6,382.2z"/>
			<path class="st1" d="M739.5,270.5c0,4.4-3.5,7.9-7.9,7.9c-4.4,0-8-3.5-8-7.9c0-4.3,3.6-8,7.9-8
				C735.9,262.5,739.5,266.1,739.5,270.5z M734.6,270.9c0-0.3,0-0.7,0-1c-1-0.7-2-1.7-3-1.9c-1.5-0.2-2.5,0.9-2.5,2.5
				c0,1.7,1.1,2.8,2.7,2.5C732.8,272.8,733.7,271.6,734.6,270.9z"/>
			<path class="st1" d="M663.4,262.2c0.7,1,1.8,1.9,2,3c0.2,1.5-0.9,2.5-2.5,2.6c-1.5,0.1-3-1.3-2.6-2.7c0.3-1.1,1.4-2,2.1-2.9
				C662.7,262.2,663,262.2,663.4,262.2z"/>
			<path class="st1" d="M694.1,268.2c-0.7-1-1.8-1.9-2.1-2.9c-0.3-1.5,0.8-2.5,2.4-2.7c1.5-0.1,3.1,1.2,2.7,2.6c-0.3,1.1-1.3,2-2,3
				C694.8,268.2,694.4,268.2,694.1,268.2z"/>
			<path class="st1" d="M655.2,265.8c-1,0.7-2,1.8-3,1.9c-1.6,0.2-2.6-1-2.5-2.7c0.1-1.6,1.2-2.7,2.7-2.3c1.1,0.2,1.9,1.4,2.9,2.1
				C655.2,265.1,655.2,265.5,655.2,265.8z"/>
			<path class="st1" d="M676.4,265.8c-1,0.7-2,1.7-3,1.9c-1.5,0.2-2.5-0.9-2.5-2.5c-0.1-1.5,1.3-3,2.7-2.6c1.1,0.3,1.9,1.4,2.9,2.2
				C676.4,265.1,676.4,265.5,676.4,265.8z"/>
			<path class="st1" d="M644.6,265.6c-1,0.7-1.8,1.9-2.9,2.1c-1.5,0.3-2.5-0.7-2.7-2.3c-0.2-1.5,1.1-3.1,2.5-2.8
				c1.1,0.3,2,1.3,3,1.9C644.6,264.9,644.6,265.2,644.6,265.6z"/>
			<path class="st1" d="M683.4,268.2c-0.7-1-1.8-1.9-2-3c-0.3-1.7,0.9-2.7,2.6-2.6c1.6,0,2.7,1.1,2.4,2.6c-0.2,1.1-1.3,2-2,3
				C684.2,268.2,683.8,268.2,683.4,268.2z"/>
			<path class="st1" d="M705.7,262.2c0.7,1,1.8,1.9,1.9,3c0.2,1.6-1,2.7-2.7,2.6c-1.6-0.1-2.6-1.2-2.3-2.7c0.2-1.1,1.3-2,2-2.9
				C705,262.2,705.4,262.2,705.7,262.2z"/>
			<path class="st1" d="M718.7,265.6c-1,0.7-1.8,1.9-2.9,2.1c-1.5,0.3-2.6-0.8-2.7-2.3c-0.1-1.7,0.9-2.9,2.6-2.7
				c1.1,0.1,2,1.3,3,1.9C718.7,264.9,718.7,265.3,718.7,265.6z"/>
			<path class="st1" d="M644.6,276.3c-1,0.7-1.9,1.8-3,2c-1.7,0.3-2.7-0.9-2.6-2.6c0.1-1.6,1.1-2.7,2.6-2.4c1.1,0.2,2,1.3,3,2
				C644.6,275.6,644.6,276,644.6,276.3z"/>
			<path class="st1" d="M652.7,272.8c0.7,1,1.8,1.9,2,2.9c0.3,1.6-0.9,2.7-2.6,2.6c-1.6,0-2.7-1.1-2.4-2.6c0.2-1.1,1.3-2,1.9-2.9
				C652,272.8,652.4,272.8,652.7,272.8z"/>
			<path class="st1" d="M674,272.8c0.7,1,1.7,1.9,1.9,3c0.2,1.5-0.9,2.5-2.5,2.5c-1.7,0-2.9-1-2.5-2.7c0.2-1.1,1.3-1.9,2-2.9
				C673.3,272.8,673.6,272.8,674,272.8z"/>
			<path class="st1" d="M683.4,278.7c-0.7-1-1.7-1.9-1.9-3c-0.2-1.5,0.9-2.6,2.5-2.6c1.7,0,2.9,1,2.6,2.7c-0.2,1.1-1.3,1.9-2,2.9
				C684.1,278.8,683.7,278.8,683.4,278.7z"/>
			<path class="st1" d="M708.1,276.3c-1,0.7-1.9,1.8-3,2c-1.5,0.3-2.6-0.8-2.6-2.4c0-1.7,1-2.9,2.6-2.6c1.1,0.2,2,1.3,3,2
				C708.1,275.6,708.1,276,708.1,276.3z"/>
			<path class="st1" d="M716.3,272.8c0.7,1,1.8,1.9,2,3c0.3,1.5-0.8,2.6-2.4,2.6c-1.7,0-2.9-1-2.6-2.6c0.2-1.1,1.3-2,2-2.9
				C715.6,272.8,715.9,272.8,716.3,272.8z"/>
			<path class="st1" d="M662.4,278.8c-0.7-0.9-1.9-1.8-2.1-2.9c-0.3-1.5,0.7-2.6,2.3-2.7c1.7-0.1,2.9,0.9,2.8,2.5
				c-0.1,1.1-1.2,2-1.9,3C663.1,278.8,662.7,278.8,662.4,278.8z"/>
			<path class="st1" d="M694.2,278.8c-0.7-0.9-1.9-1.8-2.1-2.9c-0.3-1.5,0.7-2.6,2.3-2.7c1.7-0.1,2.9,0.8,2.8,2.5
				c-0.1,1.1-1.2,2-1.9,3C694.9,278.8,694.5,278.8,694.2,278.8z"/>
			<path class="st1" d="M734.4,315.5c1.6,0,3.2,0,4.7,0c1.8,0,3,0.8,3,2.7c0,1.8-1.3,2.6-3,2.7c-3.3,0-6.6,0-9.9,0
				c-1.7,0-2.9-0.9-2.9-2.8c0.1-1.7,1.2-2.5,2.9-2.5C731,315.5,732.7,315.5,734.4,315.5z"/>
			<path class="st1" d="M734.4,302.3c1.7,0,3.3,0,5,0c1.7,0,2.8,0.9,2.8,2.6c0,1.7-1,2.6-2.7,2.7c-3.5,0.1-6.9,0.1-10.4,0
				c-1.7,0-2.8-1-2.7-2.7c0-1.7,1.1-2.6,2.8-2.6C730.9,302.3,732.6,302.3,734.4,302.3z"/>
			<path class="st1" d="M662.8,389.6c0-1-0.3-2.1,0.1-2.9c0.5-0.9,1.5-2.2,2.3-2.2c1,0,2.5,1.1,2.7,2c0.4,2,0.4,4.2,0,6.3
				c-0.1,0.8-1.7,2.1-2.5,2c-0.9-0.1-2-1.3-2.5-2.2C662.5,391.7,662.8,390.6,662.8,389.6L662.8,389.6z"/>
			<path class="st1" d="M657.5,389.5c0,0.9,0,1.8,0,2.7c-0.1,1.7-1,2.7-2.7,2.7c-1.6,0-2.5-1-2.5-2.6c-0.1-1.7-0.1-3.5,0-5.2
				c0.1-1.7,1-2.7,2.7-2.7c1.6,0,2.4,1,2.5,2.6C657.5,387.8,657.5,388.6,657.5,389.5z"/>
		</g>
		<g>
			<path class="st1" d="M415.3,54.8c0-1.1,0-2,0-2.9c0-13.6,0-27.2,0-40.8c0-6.3,3-9.3,9.3-9.3c41.4,0,82.7,0,124.1,0
				c6.6,0,9.5,2.9,9.5,9.6c0,9.2,0,18.3,0,27.5c0,0.8,0,1.6,0,2.3c0.3,0.2,0.5,0.3,0.6,0.3c6.4,0.5,7.4,1.5,7.4,7.9
				c0,8.3,0,16.6,0,25c0,5.1-1.6,6.7-6.7,6.9c-0.3,0-0.6,0.1-1.2,0.1c0,1,0,1.9,0,2.9c0,18.8,0,37.5,0,56.3c0,6.6-3,9.6-9.5,9.6
				c-8.2,0-16.3,0-24.9,0c0,1,0,1.9,0,2.7c-0.3,4.6-3.5,7.7-8.1,7.8c-5,0.1-10,0-15,0c-5.5,0-8.6-3.1-8.7-8.5c0-0.6-0.1-1.2-0.1-1.9
				c-1.7,0-3.3,0-4.9,0c-1.1,7.4-1.6,7.8-9.1,7.8c-7.1,0-14.2,0-21.3,0c-5.1,0-6.7-1.5-6.9-6.7c0-0.3-0.1-0.6-0.2-1.2
				c-0.8,0-1.6,0-2.4,0c-7.6,0-15.3,0-22.9,0c-5.7,0-8.8-3.2-8.9-8.9c0-13.7,0-27.4,0-41.1c0-0.9,0-1.8,0-3c-1,0-1.9,0-2.8,0
				c-2.9-0.2-5.1-2.2-5.1-5c-0.1-10.7-0.1-21.5,0-32.2c0-2.9,2.2-4.9,5.1-5C413.3,54.7,414.1,54.8,415.3,54.8z M441.8,94.4
				c1.7,0,3.2,0,4.7,0c1.7,0,3,0.7,3.1,2.6c0.1,2-1.2,2.8-3.1,2.8c-1.5,0-3.1,0-4.6,0c0,1.9,0,3.5,0,5.3c1.5,0,2.8,0,4.2,0
				c1.8,0,3.4,0.4,3.5,2.6c0.1,1.8-1.2,2.7-3.6,2.7c-5.2,0-10.4,0-15.7,0c-4,0-4.5-0.5-4.5-4.4c0-2.9,0-5.8,0-8.7
				c-1.9,0-3.5,0-5.2,0c-0.1,0.5-0.1,0.8-0.1,1.2c0,14.4,0,28.7,0,43.1c0,2.3,1,3.2,3.4,3.2c8,0,16,0,24,0c0.5,0,1-0.1,1.7-0.2
				c0-5.9,0-11.7,0-17.6c0-4,2-6,6-6c8.4,0,16.8,0,25.2,0c3.9,0,5.9,2,5.9,5.9c0,5.1,0,10.3,0,15.4c0,0.8,0,1.6,0,2.4
				c1.9,0,3.5,0,5.3,0c0-0.9,0-1.7,0-2.5c0-11.2,0-22.4,0-33.6c0-4.2,1.9-6.1,6.1-6.1c6.4,0,12.7,0,19.1,0c4.7,0,6.6,1.8,6.6,6.6
				c0,11,0,22.1,0,33.1c0,0.8,0.1,1.6,0.1,2.6c0.8,0,1.5,0,2.2,0c7.6,0,15.1,0,22.7,0c3.4,0,4.1-0.7,4.1-4.1c0-19.1,0-38.1,0-57.2
				c0-0.7,0-1.4,0-2.3c-7.9,0-15.3,0-22.8,0c-4.3,0-6.3-1.9-6.3-6.2c0-9.1,0-18.1,0-27.2c0-4.4,1.9-6.3,6.4-6.3c6.7,0,13.5,0,20.2,0
				c0.8,0,1.6-0.1,2.5-0.2c0-1,0-1.7,0-2.5c0-9.1,0-18.3,0-27.4c0-3.6-0.6-4.3-4.2-4.3c-41.4,0-82.7,0-124.1,0
				c-3.5,0-4.1,0.7-4.1,4.1c0,13.7,0,27.4,0,41.1c0,0.8,0.1,1.6,0.1,2.4c1.8,0,3.4,0,5.2,0c0-3.4,0-6.6,0-9.8c0-2.3,0.8-3.3,3.1-3.3
				c5.9-0.1,11.8,0,17.7,0c1.8,0,3,0.8,3,2.7c0,1.9-1.2,2.6-3,2.6c-1.6,0-3.1,0-4.6,0c0,2,0,3.6,0,5.3c1.6,0,3,0,4.5,0
				c1.9,0,3.2,0.7,3.2,2.7c0,2.1-1.4,2.6-3.2,2.6c-1.5,0-3,0-4.4,0c0,2,0,3.6,0,5.3c1.6,0,3.1,0,4.5,0c1.8,0,3.2,0.7,3.1,2.7
				c0,1.9-1.3,2.6-3.1,2.6c-1.6,0-3.1,0-4.6,0c0,1.9,0,3.5,0,5.3c1.7,0,3.3,0,4.8,0c1.8,0,3,0.9,2.9,2.7c-0.1,1.7-1.2,2.5-2.9,2.5
				c-1.6,0-3.1,0-4.8,0c0,1.9,0,3.5,0,5.3c1.6,0,3.1,0,4.6,0c1.8,0,3,0.7,3.1,2.5c0.1,2-1.3,2.7-3.1,2.7c-1.5,0-3.1,0-4.7,0
				C441.8,91,441.8,92.5,441.8,94.4z M560.7,75.7c0-9.7,0-19.2,0-28.8c-10.6,0-21,0-31.5,0c0,9.7,0,19.2,0,28.8
				C539.8,75.7,550.1,75.7,560.7,75.7z M481.3,152.6c0-8.8,0-17.5,0-26.2c-8.8,0-17.4,0-26.2,0c0,8.8,0,17.5,0,26.2
				C463.9,152.6,472.5,152.6,481.3,152.6z M518.4,134.1c0-8.9,0-17.6,0-26.2c-7.1,0-14,0-20.8,0c0,8.8,0,17.5,0,26.2
				c2.7,0,5.1,0,7.7,0c0-0.7,0.1-1.3,0.1-1.9c0-2.8,0-5.6,0-8.4c0-1.7,0.9-2.7,2.7-2.7c1.6,0,2.5,1,2.6,2.6c0.1,1.1,0,2.3,0,3.4
				c0,2.4,0,4.8,0,7.1C513.4,134.1,515.8,134.1,518.4,134.1z M412.8,91.6c4.5,0,8.7,0,12.9,0c0-10.6,0-21,0-31.5
				c-4.4,0-8.6,0-12.9,0C412.8,70.7,412.8,81.1,412.8,91.6z M497.4,139.6c0,4.6-0.1,9,0.1,13.3c0,0.8,1.6,2.3,2.5,2.3
				c5.4,0.2,10.7,0.2,16.1,0c0.8,0,2.3-1.4,2.3-2.2c0.2-4.4,0.1-8.9,0.1-13.4C511.4,139.6,504.6,139.6,497.4,139.6z M431.4,46.8
				c0,19.5,0,38.8,0,58.1c1.7,0,3.3,0,4.9,0c0-19.4,0-38.7,0-58.1C434.6,46.8,433.1,46.8,431.4,46.8z"/>
			<path class="st2" d="M486.7,97.1c-5.1,0-10.1,0-15.2,0c-3.8,0-5.9-2.1-5.9-5.9c0-5.7,0.2-11.5,0.2-17.2c0-4.3-0.2-8.7-0.3-13
				c0-4.3,2-6.2,6.2-6.2c10,0,20,0,29.9,0c4.2,0,6.2,2,6.2,6.1c0,5.8-0.2,11.5-0.3,17.3c0,4.3,0.1,8.7,0.3,13c0.1,3.5-2,5.9-5.6,6
				C497.1,97.1,491.9,97.1,486.7,97.1z M502.6,91.8c0-10.7,0-21.1,0-31.6c-10.7,0-21.1,0-31.7,0c0,10.6,0,21,0,31.6
				C481.6,91.8,492.1,91.8,502.6,91.8z"/>
			<path class="st1" d="M433.9,139.4c-4.4,0-8-3.4-8-7.8c0-4.4,3.4-8,7.8-8.1c4.3-0.1,8,3.5,8.1,7.9
				C441.8,135.8,438.3,139.3,433.9,139.4z M436.8,132.1c0-0.4,0-0.7,0-1.1c-1-0.7-1.8-1.9-2.9-2.1c-1.5-0.3-2.6,0.7-2.7,2.3
				c-0.1,1.7,0.9,2.9,2.5,2.7C434.8,133.9,435.8,132.8,436.8,132.1z"/>
			<path class="st1" d="M433.7,28.2c-4.4,0-7.9-3.6-7.8-8c0.1-4.4,3.7-7.9,8-7.8c4.4,0.1,7.9,3.7,7.8,8.1
				C441.7,24.8,438.1,28.3,433.7,28.2z M436.8,20.7c0-0.3,0-0.7,0-1c-1-0.7-2-1.7-3-1.9c-1.5-0.2-2.5,0.9-2.5,2.5
				c-0.1,1.5,1.4,3,2.7,2.6C435,22.5,435.9,21.5,436.8,20.7z"/>
			<path class="st1" d="M547.6,131.6c0,4.4-3.6,7.8-8,7.8c-4.4,0-7.9-3.6-7.8-8c0.1-4.3,3.7-7.9,8.1-7.8
				C544.2,123.6,547.7,127.2,547.6,131.6z M542.7,132c0-0.4,0-0.7,0-1.1c-1-0.7-1.9-1.8-3-2c-1.5-0.3-2.5,0.9-2.6,2.4
				c0,1.7,1,2.9,2.6,2.6C540.8,133.9,541.7,132.7,542.7,132z"/>
			<path class="st1" d="M547.6,20.3c0,4.4-3.5,7.9-7.9,7.9c-4.4,0-8-3.5-8-7.9c0-4.3,3.6-8,7.9-8C544,12.3,547.6,15.9,547.6,20.3z
				 M542.7,20.7c0-0.3,0-0.7,0-1c-1-0.7-2-1.7-3-1.9c-1.5-0.2-2.5,0.9-2.5,2.5c0,1.7,1.1,2.8,2.7,2.5
				C540.9,22.7,541.8,21.5,542.7,20.7z"/>
			<path class="st1" d="M471.5,12c0.7,1,1.8,1.9,2,3c0.2,1.5-0.9,2.5-2.5,2.6c-1.5,0.1-3-1.3-2.6-2.7c0.3-1.1,1.4-2,2.1-2.9
				C470.8,12,471.1,12,471.5,12z"/>
			<path class="st1" d="M502.1,18c-0.7-1-1.8-1.9-2.1-2.9c-0.3-1.5,0.8-2.5,2.4-2.7c1.5-0.1,3.1,1.2,2.7,2.6c-0.3,1.1-1.3,2-2,3
				C502.8,18,502.5,18,502.1,18z"/>
			<path class="st1" d="M463.3,15.6c-1,0.7-2,1.8-3,1.9c-1.6,0.2-2.6-1-2.5-2.7c0.1-1.6,1.2-2.7,2.7-2.3c1.1,0.2,1.9,1.4,2.9,2.1
				C463.3,14.9,463.3,15.3,463.3,15.6z"/>
			<path class="st1" d="M484.4,15.7c-1,0.7-2,1.7-3,1.9c-1.5,0.2-2.5-0.9-2.5-2.5c-0.1-1.5,1.3-3,2.7-2.6c1.1,0.3,1.9,1.4,2.9,2.2
				C484.5,15,484.5,15.3,484.4,15.7z"/>
			<path class="st1" d="M452.7,15.4c-1,0.7-1.8,1.9-2.9,2.1c-1.5,0.3-2.5-0.7-2.7-2.3c-0.2-1.5,1.1-3.1,2.5-2.8c1.1,0.3,2,1.3,3,1.9
				C452.7,14.7,452.7,15.1,452.7,15.4z"/>
			<path class="st1" d="M491.5,18c-0.7-1-1.8-1.9-2-3c-0.3-1.7,0.9-2.7,2.6-2.6c1.6,0,2.7,1.1,2.4,2.6c-0.2,1.1-1.3,2-2,3
				C492.2,18,491.9,18,491.5,18z"/>
			<path class="st1" d="M513.8,12c0.7,1,1.8,1.9,1.9,3c0.2,1.6-1,2.7-2.7,2.6c-1.6-0.1-2.6-1.2-2.3-2.7c0.2-1.1,1.3-2,2-2.9
				C513.1,12,513.5,12,513.8,12z"/>
			<path class="st1" d="M526.8,15.5c-1,0.7-1.8,1.9-2.9,2.1c-1.5,0.3-2.6-0.8-2.7-2.3c-0.1-1.7,0.9-2.9,2.6-2.7c1.1,0.1,2,1.3,3,1.9
				C526.8,14.8,526.8,15.1,526.8,15.5z"/>
			<path class="st1" d="M452.7,26.1c-1,0.7-1.9,1.8-3,2c-1.7,0.3-2.7-0.9-2.6-2.6c0.1-1.6,1.1-2.7,2.6-2.4c1.1,0.2,2,1.3,3,2
				C452.7,25.4,452.7,25.8,452.7,26.1z"/>
			<path class="st1" d="M460.8,22.6c0.7,1,1.8,1.9,2,2.9c0.3,1.6-0.9,2.7-2.6,2.6c-1.6,0-2.7-1.1-2.4-2.6c0.2-1.1,1.3-2,1.9-2.9
				C460.1,22.6,460.4,22.6,460.8,22.6z"/>
			<path class="st1" d="M482.1,22.6c0.7,1,1.7,1.9,1.9,3c0.2,1.5-0.9,2.5-2.5,2.5c-1.7,0-2.9-1-2.5-2.7c0.2-1.1,1.3-1.9,2-2.9
				C481.4,22.6,481.7,22.6,482.1,22.6z"/>
			<path class="st1" d="M491.4,28.6c-0.7-1-1.7-1.9-1.9-3c-0.2-1.5,0.9-2.6,2.5-2.6c1.7,0,2.9,1,2.6,2.7c-0.2,1.1-1.3,1.9-2,2.9
				C492.2,28.6,491.8,28.6,491.4,28.6z"/>
			<path class="st1" d="M516.2,26.2c-1,0.7-1.9,1.8-3,2c-1.5,0.3-2.6-0.8-2.6-2.4c0-1.7,1-2.9,2.6-2.6c1.1,0.2,2,1.3,3,2
				C516.2,25.4,516.2,25.8,516.2,26.2z"/>
			<path class="st1" d="M524.4,22.6c0.7,1,1.8,1.9,2,3c0.3,1.5-0.8,2.6-2.4,2.6c-1.7,0-2.9-1-2.6-2.6c0.2-1.1,1.3-2,2-2.9
				C523.7,22.6,524,22.6,524.4,22.6z"/>
			<path class="st1" d="M470.5,28.6c-0.7-0.9-1.9-1.8-2.1-2.9c-0.3-1.5,0.7-2.6,2.3-2.7c1.7-0.1,2.9,0.9,2.8,2.5
				c-0.1,1.1-1.2,2-1.9,3C471.2,28.6,470.8,28.6,470.5,28.6z"/>
			<path class="st1" d="M502.2,28.6c-0.7-0.9-1.9-1.8-2.1-2.9c-0.3-1.5,0.7-2.6,2.3-2.7c1.7-0.1,2.9,0.8,2.8,2.5
				c-0.1,1.1-1.2,2-1.9,3C502.9,28.6,502.6,28.6,502.2,28.6z"/>
			<path class="st1" d="M542.5,65.3c1.6,0,3.2,0,4.7,0c1.8,0,3,0.8,3,2.7c0,1.8-1.3,2.6-3,2.7c-3.3,0-6.6,0-9.9,0
				c-1.7,0-2.9-0.9-2.9-2.8c0.1-1.7,1.2-2.5,2.9-2.5C539.1,65.3,540.8,65.3,542.5,65.3z"/>
			<path class="st1" d="M542.5,52.1c1.7,0,3.3,0,5,0c1.7,0,2.8,0.9,2.8,2.6c0,1.7-1,2.6-2.7,2.7c-3.5,0.1-6.9,0.1-10.4,0
				c-1.7,0-2.8-1-2.7-2.7c0-1.7,1.1-2.6,2.8-2.6C539,52.1,540.7,52.1,542.5,52.1z"/>
			<path class="st1" d="M470.9,139.4c0-1-0.3-2.1,0.1-2.9c0.5-0.9,1.5-2.2,2.3-2.2c1,0,2.5,1.1,2.7,2c0.4,2,0.4,4.2,0,6.3
				c-0.1,0.8-1.7,2.1-2.5,2c-0.9-0.1-2-1.3-2.5-2.2C470.6,141.6,470.9,140.4,470.9,139.4L470.9,139.4z"/>
			<path class="st1" d="M465.5,139.3c0,0.9,0,1.8,0,2.7c-0.1,1.7-1,2.7-2.7,2.7c-1.6,0-2.5-1-2.5-2.6c-0.1-1.7-0.1-3.5,0-5.2
				c0.1-1.7,1-2.7,2.7-2.7c1.6,0,2.4,1,2.5,2.6C465.6,137.6,465.5,138.5,465.5,139.3z"/>
		</g>
		<g>
			<path class="st1" d="M415.3,304.9c0-1.1,0-2,0-2.9c0-13.6,0-27.2,0-40.8c0-6.3,3-9.3,9.3-9.3c41.4,0,82.7,0,124.1,0
				c6.6,0,9.5,2.9,9.5,9.6c0,9.2,0,18.3,0,27.5c0,0.8,0,1.6,0,2.3c0.3,0.2,0.5,0.3,0.6,0.3c6.4,0.5,7.4,1.5,7.4,7.9
				c0,8.3,0,16.6,0,25c0,5.1-1.6,6.7-6.7,6.9c-0.3,0-0.6,0.1-1.2,0.1c0,1,0,1.9,0,2.9c0,18.8,0,37.5,0,56.3c0,6.6-3,9.6-9.5,9.6
				c-8.2,0-16.3,0-24.9,0c0,1,0,1.9,0,2.7c-0.3,4.6-3.5,7.7-8.1,7.8c-5,0.1-10,0-15,0c-5.5,0-8.6-3.1-8.7-8.5c0-0.6-0.1-1.2-0.1-1.9
				c-1.7,0-3.3,0-4.9,0c-1.1,7.4-1.6,7.8-9.1,7.8c-7.1,0-14.2,0-21.3,0c-5.1,0-6.7-1.5-6.9-6.7c0-0.3-0.1-0.6-0.2-1.2
				c-0.8,0-1.6,0-2.4,0c-7.6,0-15.3,0-22.9,0c-5.7,0-8.8-3.2-8.9-8.9c0-13.7,0-27.4,0-41.1c0-0.9,0-1.8,0-3c-1,0-1.9,0-2.8,0
				c-2.9-0.2-5.1-2.2-5.1-5c-0.1-10.7-0.1-21.5,0-32.2c0-2.9,2.2-4.9,5.1-5C413.3,304.9,414.1,304.9,415.3,304.9z M441.8,344.6
				c1.7,0,3.2,0,4.7,0c1.7,0,3,0.7,3.1,2.6c0.1,2-1.2,2.8-3.1,2.8c-1.5,0-3.1,0-4.6,0c0,1.9,0,3.5,0,5.3c1.5,0,2.8,0,4.2,0
				c1.8,0,3.4,0.4,3.5,2.6c0.1,1.8-1.2,2.7-3.6,2.7c-5.2,0-10.4,0-15.7,0c-4,0-4.5-0.5-4.5-4.4c0-2.9,0-5.8,0-8.7
				c-1.9,0-3.5,0-5.2,0c-0.1,0.5-0.1,0.8-0.1,1.2c0,14.4,0,28.7,0,43.1c0,2.3,1,3.2,3.4,3.2c8,0,16,0,24,0c0.5,0,1-0.1,1.7-0.2
				c0-5.9,0-11.7,0-17.6c0-4,2-6,6-6c8.4,0,16.8,0,25.2,0c3.9,0,5.9,2,5.9,5.9c0,5.1,0,10.3,0,15.4c0,0.8,0,1.6,0,2.4
				c1.9,0,3.5,0,5.3,0c0-0.9,0-1.7,0-2.5c0-11.2,0-22.4,0-33.6c0-4.2,1.9-6.1,6.1-6.1c6.4,0,12.7,0,19.1,0c4.7,0,6.6,1.8,6.6,6.6
				c0,11,0,22.1,0,33.1c0,0.8,0.1,1.6,0.1,2.6c0.8,0,1.5,0,2.2,0c7.6,0,15.1,0,22.7,0c3.4,0,4.1-0.7,4.1-4.1c0-19.1,0-38.1,0-57.2
				c0-0.7,0-1.4,0-2.3c-7.9,0-15.3,0-22.8,0c-4.3,0-6.3-1.9-6.3-6.2c0-9.1,0-18.1,0-27.2c0-4.4,1.9-6.3,6.4-6.3c6.7,0,13.5,0,20.2,0
				c0.8,0,1.6-0.1,2.5-0.2c0-1,0-1.7,0-2.5c0-9.1,0-18.3,0-27.4c0-3.6-0.6-4.3-4.2-4.3c-41.4,0-82.7,0-124.1,0
				c-3.5,0-4.1,0.7-4.1,4.1c0,13.7,0,27.4,0,41.1c0,0.8,0.1,1.6,0.1,2.4c1.8,0,3.4,0,5.2,0c0-3.4,0-6.6,0-9.8c0-2.3,0.8-3.3,3.1-3.3
				c5.9-0.1,11.8,0,17.7,0c1.8,0,3,0.8,3,2.7c0,1.9-1.2,2.6-3,2.6c-1.6,0-3.1,0-4.6,0c0,2,0,3.6,0,5.3c1.6,0,3,0,4.5,0
				c1.9,0,3.2,0.7,3.2,2.7c0,2.1-1.4,2.6-3.2,2.6c-1.5,0-3,0-4.4,0c0,2,0,3.6,0,5.3c1.6,0,3.1,0,4.5,0c1.8,0,3.2,0.7,3.1,2.7
				c0,1.9-1.3,2.6-3.1,2.6c-1.6,0-3.1,0-4.6,0c0,1.9,0,3.5,0,5.3c1.7,0,3.3,0,4.8,0c1.8,0,3,0.9,2.9,2.7c-0.1,1.7-1.2,2.5-2.9,2.5
				c-1.6,0-3.1,0-4.8,0c0,1.9,0,3.5,0,5.3c1.6,0,3.1,0,4.6,0c1.8,0,3,0.7,3.1,2.5c0.1,2-1.3,2.7-3.1,2.7c-1.5,0-3.1,0-4.7,0
				C441.8,341.2,441.8,342.7,441.8,344.6z M560.7,325.9c0-9.7,0-19.2,0-28.8c-10.6,0-21,0-31.5,0c0,9.7,0,19.2,0,28.8
				C539.8,325.9,550.1,325.9,560.7,325.9z M481.3,402.7c0-8.8,0-17.5,0-26.2c-8.8,0-17.4,0-26.2,0c0,8.8,0,17.5,0,26.2
				C463.9,402.7,472.5,402.7,481.3,402.7z M518.4,384.2c0-8.9,0-17.6,0-26.2c-7.1,0-14,0-20.8,0c0,8.8,0,17.5,0,26.2
				c2.7,0,5.1,0,7.7,0c0-0.7,0.1-1.3,0.1-1.9c0-2.8,0-5.6,0-8.4c0-1.7,0.9-2.7,2.7-2.7c1.6,0,2.5,1,2.6,2.6c0.1,1.1,0,2.3,0,3.4
				c0,2.4,0,4.8,0,7.1C513.4,384.2,515.8,384.2,518.4,384.2z M412.8,341.8c4.5,0,8.7,0,12.9,0c0-10.6,0-21,0-31.5
				c-4.4,0-8.6,0-12.9,0C412.8,320.8,412.8,331.2,412.8,341.8z M497.4,389.7c0,4.6-0.1,9,0.1,13.3c0,0.8,1.6,2.3,2.5,2.3
				c5.4,0.2,10.7,0.2,16.1,0c0.8,0,2.3-1.4,2.3-2.2c0.2-4.4,0.1-8.9,0.1-13.4C511.4,389.7,504.6,389.7,497.4,389.7z M431.4,297
				c0,19.5,0,38.8,0,58.1c1.7,0,3.3,0,4.9,0c0-19.4,0-38.7,0-58.1C434.6,297,433.1,297,431.4,297z"/>
			<path class="st2" d="M486.7,347.2c-5.1,0-10.1,0-15.2,0c-3.8,0-5.9-2.1-5.9-5.9c0-5.7,0.2-11.5,0.2-17.2c0-4.3-0.2-8.7-0.3-13
				c0-4.3,2-6.2,6.2-6.2c10,0,20,0,29.9,0c4.2,0,6.2,2,6.2,6.1c0,5.8-0.2,11.5-0.3,17.3c0,4.3,0.1,8.7,0.3,13c0.1,3.5-2,5.9-5.6,6
				C497.1,347.3,491.9,347.2,486.7,347.2z M502.6,341.9c0-10.7,0-21.1,0-31.6c-10.7,0-21.1,0-31.7,0c0,10.6,0,21,0,31.6
				C481.6,341.9,492.1,341.9,502.6,341.9z"/>
			<path class="st1" d="M433.9,389.6c-4.4,0-8-3.4-8-7.8c0-4.4,3.4-8,7.8-8.1c4.3-0.1,8,3.5,8.1,7.9
				C441.8,385.9,438.3,389.5,433.9,389.6z M436.8,382.3c0-0.4,0-0.7,0-1.1c-1-0.7-1.8-1.9-2.9-2.1c-1.5-0.3-2.6,0.7-2.7,2.3
				c-0.1,1.7,0.9,2.9,2.5,2.7C434.8,384.1,435.8,383,436.8,382.3z"/>
			<path class="st1" d="M433.7,278.4c-4.4,0-7.9-3.6-7.8-8c0.1-4.4,3.7-7.9,8-7.8c4.4,0.1,7.9,3.7,7.8,8.1
				C441.7,275,438.1,278.4,433.7,278.4z M436.8,270.9c0-0.3,0-0.7,0-1c-1-0.7-2-1.7-3-1.9c-1.5-0.2-2.5,0.9-2.5,2.5
				c-0.1,1.5,1.4,3,2.7,2.6C435,272.7,435.9,271.6,436.8,270.9z"/>
			<path class="st1" d="M547.6,381.8c0,4.4-3.6,7.8-8,7.8c-4.4,0-7.9-3.6-7.8-8c0.1-4.3,3.7-7.9,8.1-7.8
				C544.2,373.8,547.7,377.4,547.6,381.8z M542.7,382.2c0-0.4,0-0.7,0-1.1c-1-0.7-1.9-1.8-3-2c-1.5-0.3-2.5,0.9-2.6,2.4
				c0,1.7,1,2.9,2.6,2.6C540.8,384,541.7,382.9,542.7,382.2z"/>
			<path class="st1" d="M547.6,270.5c0,4.4-3.5,7.9-7.9,7.9c-4.4,0-8-3.5-8-7.9c0-4.3,3.6-8,7.9-8
				C544,262.5,547.6,266.1,547.6,270.5z M542.7,270.9c0-0.3,0-0.7,0-1c-1-0.7-2-1.7-3-1.9c-1.5-0.2-2.5,0.9-2.5,2.5
				c0,1.7,1.1,2.8,2.7,2.5C540.9,272.8,541.8,271.6,542.7,270.9z"/>
			<path class="st1" d="M471.5,262.2c0.7,1,1.8,1.9,2,3c0.2,1.5-0.9,2.5-2.5,2.6c-1.5,0.1-3-1.3-2.6-2.7c0.3-1.1,1.4-2,2.1-2.9
				C470.8,262.2,471.1,262.2,471.5,262.2z"/>
			<path class="st1" d="M502.1,268.2c-0.7-1-1.8-1.9-2.1-2.9c-0.3-1.5,0.8-2.5,2.4-2.7c1.5-0.1,3.1,1.2,2.7,2.6c-0.3,1.1-1.3,2-2,3
				C502.8,268.2,502.5,268.2,502.1,268.2z"/>
			<path class="st1" d="M463.3,265.8c-1,0.7-2,1.8-3,1.9c-1.6,0.2-2.6-1-2.5-2.7c0.1-1.6,1.2-2.7,2.7-2.3c1.1,0.2,1.9,1.4,2.9,2.1
				C463.3,265.1,463.3,265.5,463.3,265.8z"/>
			<path class="st1" d="M484.4,265.8c-1,0.7-2,1.7-3,1.9c-1.5,0.2-2.5-0.9-2.5-2.5c-0.1-1.5,1.3-3,2.7-2.6c1.1,0.3,1.9,1.4,2.9,2.2
				C484.5,265.1,484.5,265.5,484.4,265.8z"/>
			<path class="st1" d="M452.7,265.6c-1,0.7-1.8,1.9-2.9,2.1c-1.5,0.3-2.5-0.7-2.7-2.3c-0.2-1.5,1.1-3.1,2.5-2.8
				c1.1,0.3,2,1.3,3,1.9C452.7,264.9,452.7,265.2,452.7,265.6z"/>
			<path class="st1" d="M491.5,268.2c-0.7-1-1.8-1.9-2-3c-0.3-1.7,0.9-2.7,2.6-2.6c1.6,0,2.7,1.1,2.4,2.6c-0.2,1.1-1.3,2-2,3
				C492.2,268.2,491.9,268.2,491.5,268.2z"/>
			<path class="st1" d="M513.8,262.2c0.7,1,1.8,1.9,1.9,3c0.2,1.6-1,2.7-2.7,2.6c-1.6-0.1-2.6-1.2-2.3-2.7c0.2-1.1,1.3-2,2-2.9
				C513.1,262.2,513.5,262.2,513.8,262.2z"/>
			<path class="st1" d="M526.8,265.6c-1,0.7-1.8,1.9-2.9,2.1c-1.5,0.3-2.6-0.8-2.7-2.3c-0.1-1.7,0.9-2.9,2.6-2.7
				c1.1,0.1,2,1.3,3,1.9C526.8,264.9,526.8,265.3,526.8,265.6z"/>
			<path class="st1" d="M452.7,276.3c-1,0.7-1.9,1.8-3,2c-1.7,0.3-2.7-0.9-2.6-2.6c0.1-1.6,1.1-2.7,2.6-2.4c1.1,0.2,2,1.3,3,2
				C452.7,275.6,452.7,276,452.7,276.3z"/>
			<path class="st1" d="M460.8,272.8c0.7,1,1.8,1.9,2,2.9c0.3,1.6-0.9,2.7-2.6,2.6c-1.6,0-2.7-1.1-2.4-2.6c0.2-1.1,1.3-2,1.9-2.9
				C460.1,272.8,460.4,272.8,460.8,272.8z"/>
			<path class="st1" d="M482.1,272.8c0.7,1,1.7,1.9,1.9,3c0.2,1.5-0.9,2.5-2.5,2.5c-1.7,0-2.9-1-2.5-2.7c0.2-1.1,1.3-1.9,2-2.9
				C481.4,272.8,481.7,272.8,482.1,272.8z"/>
			<path class="st1" d="M491.4,278.7c-0.7-1-1.7-1.9-1.9-3c-0.2-1.5,0.9-2.6,2.5-2.6c1.7,0,2.9,1,2.6,2.7c-0.2,1.1-1.3,1.9-2,2.9
				C492.2,278.8,491.8,278.8,491.4,278.7z"/>
			<path class="st1" d="M516.2,276.3c-1,0.7-1.9,1.8-3,2c-1.5,0.3-2.6-0.8-2.6-2.4c0-1.7,1-2.9,2.6-2.6c1.1,0.2,2,1.3,3,2
				C516.2,275.6,516.2,276,516.2,276.3z"/>
			<path class="st1" d="M524.4,272.8c0.7,1,1.8,1.9,2,3c0.3,1.5-0.8,2.6-2.4,2.6c-1.7,0-2.9-1-2.6-2.6c0.2-1.1,1.3-2,2-2.9
				C523.7,272.8,524,272.8,524.4,272.8z"/>
			<path class="st1" d="M470.5,278.8c-0.7-0.9-1.9-1.8-2.1-2.9c-0.3-1.5,0.7-2.6,2.3-2.7c1.7-0.1,2.9,0.9,2.8,2.5
				c-0.1,1.1-1.2,2-1.9,3C471.2,278.8,470.8,278.8,470.5,278.8z"/>
			<path class="st1" d="M502.2,278.8c-0.7-0.9-1.9-1.8-2.1-2.9c-0.3-1.5,0.7-2.6,2.3-2.7c1.7-0.1,2.9,0.8,2.8,2.5
				c-0.1,1.1-1.2,2-1.9,3C502.9,278.8,502.6,278.8,502.2,278.8z"/>
			<path class="st1" d="M542.5,315.5c1.6,0,3.2,0,4.7,0c1.8,0,3,0.8,3,2.7c0,1.8-1.3,2.6-3,2.7c-3.3,0-6.6,0-9.9,0
				c-1.7,0-2.9-0.9-2.9-2.8c0.1-1.7,1.2-2.5,2.9-2.5C539.1,315.5,540.8,315.5,542.5,315.5z"/>
			<path class="st1" d="M542.5,302.3c1.7,0,3.3,0,5,0c1.7,0,2.8,0.9,2.8,2.6c0,1.7-1,2.6-2.7,2.7c-3.5,0.1-6.9,0.1-10.4,0
				c-1.7,0-2.8-1-2.7-2.7c0-1.7,1.1-2.6,2.8-2.6C539,302.3,540.7,302.3,542.5,302.3z"/>
			<path class="st1" d="M470.9,389.6c0-1-0.3-2.1,0.1-2.9c0.5-0.9,1.5-2.2,2.3-2.2c1,0,2.5,1.1,2.7,2c0.4,2,0.4,4.2,0,6.3
				c-0.1,0.8-1.7,2.1-2.5,2c-0.9-0.1-2-1.3-2.5-2.2C470.6,391.7,470.9,390.6,470.9,389.6L470.9,389.6z"/>
			<path class="st1" d="M465.5,389.5c0,0.9,0,1.8,0,2.7c-0.1,1.7-1,2.7-2.7,2.7c-1.6,0-2.5-1-2.5-2.6c-0.1-1.7-0.1-3.5,0-5.2
				c0.1-1.7,1-2.7,2.7-2.7c1.6,0,2.4,1,2.5,2.6C465.6,387.8,465.5,388.6,465.5,389.5z"/>
		</g>
		<line class="st0" x1="486.8" y1="178.1" x2="486.8" y2="234.9"/>
		<line class="st0" x1="678.7" y1="178.1" x2="678.7" y2="234.9"/>
		<line class="st0" x1="870.6" y1="178.1" x2="870.6" y2="234.9"/>
	</g>
	<g>
		<g>
			<polygon class="st1" points="160.7,152.3 160.7,156.3 108.9,156.3 108.9,108.4 112.9,108.4 112.9,152.3 			"/>
			<rect x="118.9" y="132.3" class="st2" width="6" height="16"/>
			<rect x="130.8" y="116.4" class="st1" width="6" height="31.9"/>
			<rect x="144.8" y="126.3" class="st1" width="6" height="21.9"/>
		</g>
		<g>
			<path class="st1" d="M89.7,153.6c-0.4,0.9-1.1,1.2-2.2,1.2c-10,0-20,0-30,0c-1,0-1.9-0.8-1.9-1.9c0-2,0-4,0-6
				c0-1,0.8-1.8,1.8-1.8c10,0,20.1,0,30.1,0c1,0,1.7,0.3,2.1,1.2L89.7,153.6L89.7,153.6z"/>
			<path class="st1" d="M81.5,116c0,5.1-4.1,9.2-9.2,9.2c-5.1,0-9.1-4.1-9.2-9.2c-0.1-4.9,4.1-9.3,9.3-9.2
				C77.4,106.9,81.5,110.9,81.5,116 M66.2,116c0,1.3,0.2,2.5,0.9,3.7c1.1,1.8,2.8,1.8,3.8,0c0.4-0.9,0.7-1.8,0.9-2.8
				c0.2-1.7,0-3.3-1-4.8c-1-1.4-2.4-1.4-3.4,0c-0.1,0.2-0.2,0.4-0.3,0.5C66.4,113.7,66.2,114.8,66.2,116"/>
			<path class="st1" d="M74.5,144.1h-5.7v-17.3c1,0.1,1.9,0.3,2.9,0.3s1.8-0.2,2.8-0.4V144.1z"/>
			<path class="st2" d="M87.8,144.1H78c0-0.5,0-1.1,0-1.6c0.1-0.6,0.5-0.9,1.1-0.8c2.5,0.5,5,0.5,7.6,0c0.6-0.1,1,0.2,1.1,0.8
				C87.8,143.1,87.7,143.5,87.8,144.1"/>
		</g>
		<g>
			<path class="st1" d="M237.1,333.9H234v-2.7c0-5.7-4.7-10.4-10.4-10.4h-9.5c-2.2,0-4.2,0.7-5.9,1.8c-1.7-1.1-3.7-1.8-5.9-1.8h-9.5
				c-2.2,0-4.2,0.7-5.9,1.8c-1.7-1.1-3.7-1.8-5.9-1.8h-9.5c-5.7,0-10.4,4.7-10.4,10.4v2.7h-12.1v-2.7c0-5.7-4.7-10.4-10.4-10.4h-9.5
				c-2.2,0-4.2,0.7-5.9,1.8c-1.7-1.1-3.7-1.8-5.9-1.8H108c-2.1,0-4.1,0.6-5.7,1.7c-1.6-1.1-3.6-1.7-5.7-1.7H44.3
				c-2.2,0-4.2,0.7-5.9,1.8c-1.7-1.1-3.7-1.8-5.9-1.8h-9.4c-5.7,0-10.4,4.7-10.4,10.4v2.7H9.6c-4.3,0-7.8,3.5-7.8,7.8v16.4
				c0,4.3,3.5,7.8,7.8,7.8h37.1c2.6,0,4.7-2.1,4.7-4.7s-2.1-4.7-4.7-4.7H11.1v-13.3h224.4v13.3H67.9c-2.6,0-4.7,2.1-4.7,4.7
				s2.1,4.7,4.7,4.7h169.2c4.3,0,7.8-3.5,7.8-7.8v-16.4C244.9,337.4,241.4,333.9,237.1,333.9z M33.6,333.9H22v-2.7
				c0-0.6,0.5-1.1,1.1-1.1h9.5c0.6,0,1.1,0.5,1.1,1.1V333.9z M97.6,333.9H43.2v-2.7c0-0.6,0.5-1.1,1.1-1.1h52.2
				c0.6,0,1.1,0.5,1.1,1.1V333.9L97.6,333.9z M118.5,333.9h-11.6v-2.7c0-0.6,0.5-1.1,1.1-1.1h9.5c0.6,0,1.1,0.5,1.1,1.1L118.5,333.9
				L118.5,333.9z M139.8,333.9h-11.6v-2.7c0-0.6,0.5-1.1,1.1-1.1h9.5c0.6,0,1.1,0.5,1.1,1.1V333.9L139.8,333.9z M182.2,333.9h-11.6
				v-2.7c0-0.6,0.5-1.1,1.1-1.1h9.5c0.6,0,1.1,0.5,1.1,1.1V333.9z M203.5,333.9h-11.6v-2.7c0-0.6,0.5-1.1,1.1-1.1h9.5
				c0.6,0,1.1,0.5,1.1,1.1L203.5,333.9L203.5,333.9z M224.7,333.9H213v-2.7c0-0.6,0.5-1.1,1.1-1.1h9.5c0.6,0,1.1,0.5,1.1,1.1V333.9z
				"/>
			<path class="st1" d="M299.4,318.6h-27.5c-11.8,0-21.3,9.6-21.3,21.3v18.2c0,4.3,3.5,7.8,7.8,7.8h54.5c4.3,0,7.8-3.5,7.8-7.8
				v-18.2C320.7,328.1,311.2,318.6,299.4,318.6z M311.4,356.6h-51.5v-16.7c0-6.6,5.4-12,12-12h27.5c6.6,0,12,5.4,12,12V356.6
				L311.4,356.6z"/>
			<path class="st1" d="M48.5,266h72.8v11.8h-10.6c-8.1,0-14.7,6.6-14.7,14.7v8.2c0,4,3.2,7.2,7.2,7.2h68.5c2.6,0,4.7-2.1,4.7-4.7
				s-2.1-4.7-4.7-4.7h-66.3v-6c0-3,2.4-5.4,5.4-5.4h100.6c3,0,5.4,2.4,5.4,5.4v6h-23.2c-2.6,0-4.7,2.1-4.7,4.7s2.1,4.7,4.7,4.7h25.4
				c4,0,7.2-3.2,7.2-7.2v-8.2c0-8.1-6.6-14.7-14.7-14.7h-10.6V266h72.8c9.7,0,17.5-7.9,17.5-17.5l0.3-184.3
				c0-9.7-7.9-17.5-17.5-17.5H48.5c-9.7,0-17.5,7.9-17.5,17.5v184.3C31,258.1,38.9,266,48.5,266z M191.5,277.8h-60.8V266h60.8V277.8
				z M40.6,64.2c0-4.5,3.7-8.2,8.2-8.2h224.8c4.5,0,8.2,3.7,8.2,8.2v26.4H40.6V64.2z M40.3,100h241.5v125.7H40.3V100z M40.3,235
				h241.5v13.5c0,4.5-3.7,8.2-8.2,8.2H48.5c-4.5,0-8.2-3.7-8.2-8.2C40.3,248.5,40.3,235,40.3,235z"/>
			<path class="st2" d="M59.8,61.2c-6.6,0-12,5.4-12,12s5.4,12,12,12s12-5.4,12-12C71.8,66.6,66.4,61.2,59.8,61.2z M59.8,78.5
				c-2.9,0-5.3-2.4-5.3-5.3s2.4-5.3,5.3-5.3s5.3,2.4,5.3,5.3C65.1,76.1,62.7,78.5,59.8,78.5z"/>
			<path class="st1" d="M88.1,61.2c-6.6,0-12,5.4-12,12s5.4,12,12,12c6.6,0,12-5.4,12-12C100.1,66.6,94.7,61.2,88.1,61.2z
				 M88.1,78.5c-2.9,0-5.3-2.4-5.3-5.3s2.4-5.3,5.3-5.3c2.9,0,5.3,2.4,5.3,5.3C93.4,76.1,91,78.5,88.1,78.5z"/>
			<path class="st1" d="M116.4,61.2c-6.6,0-12,5.4-12,12s5.4,12,12,12s12-5.4,12-12C128.4,66.6,123,61.2,116.4,61.2z M116.4,78.5
				c-2.9,0-5.3-2.4-5.3-5.3s2.4-5.3,5.3-5.3s5.3,2.4,5.3,5.3C121.7,76.1,119.3,78.5,116.4,78.5z"/>
		</g>
	</g>
</g>
</svg>
