<?xml version="1.0" encoding="utf-8"?>
<!-- Generator: Adobe Illustrator 21.1.0, SVG Export Plug-In . SVG Version: 6.00 Build 0)  -->
<svg version="1.1" id="Layer_1" xmlns="http://www.w3.org/2000/svg" xmlns:xlink="http://www.w3.org/1999/xlink" x="0px" y="0px"
	 width="950px" height="950px" viewBox="0 0 950 950" style="enable-background:new 0 0 950 950;" xml:space="preserve">
<style type="text/css">
	.st0{fill:#F5F5F5;}
	.st1{fill:#FF3030;}
</style>
<g>
	<polygon class="st0" points="473,314.2 473,326.1 318.7,326.1 318.7,183.6 330.6,183.6 330.6,314.2 	"/>
	<rect x="348.4" y="254.9" class="st1" width="17.8" height="47.5"/>
	<rect x="384" y="207.4" class="st0" width="17.8" height="95"/>
	<rect x="425.6" y="237.1" class="st0" width="17.8" height="65.3"/>
</g>
<g>
	<path class="st0" d="M261.6,318.2c-1.2,2.8-3.4,3.5-6.4,3.5c-29.7-0.1-59.4-0.1-89.2-0.1c-3.1,0-5.6-2.5-5.6-5.6c0-6,0-12,0-18
		c0-2.9,2.4-5.3,5.3-5.3c29.8,0,59.7,0,89.5,0c3,0,5.1,0.8,6.2,3.7V318.2z"/>
	<path class="st0" d="M237.1,206.4c0,15.3-12.1,27.5-27.4,27.5c-15.2,0-27.2-12.2-27.4-27.5c-0.2-14.7,12.3-27.6,27.7-27.4
		C225.1,179.2,237.1,191.2,237.1,206.4 M191.6,206.4c0.1,3.8,0.7,7.5,2.7,10.9c3.2,5.3,8.4,5.4,11.3-0.1c1.3-2.6,2.2-5.5,2.6-8.4
		c0.7-5-0.1-9.9-3.1-14.2c-2.9-4.2-7.2-4.1-10.2,0c-0.4,0.5-0.7,1.1-1,1.6C192.3,199.4,191.7,202.9,191.6,206.4"/>
	<path class="st0" d="M216.3,290h-17v-51.6c3,0.3,5.8,0.9,8.6,0.9c2.8,0,5.5-0.7,8.4-1.1V290z"/>
	<path class="st1" d="M256,290h-29.3c0-1.6-0.1-3.2,0-4.7c0.2-1.7,1.6-2.7,3.3-2.4c7.5,1.5,15,1.4,22.5,0c1.7-0.3,3.1,0.7,3.3,2.5
		c0.2,1.5,0,2.9,0,4.6"/>
</g>
<g>
	<path class="st0" d="M700.2,854.7h-9.1v-8c0-17.1-13.9-31-31-31h-28.2c-6.5,0-12.5,2-17.5,5.4c-5-3.4-11-5.4-17.5-5.4h-28.2
		c-6.5,0-12.5,2-17.5,5.4c-5-3.4-11-5.4-17.5-5.4h-28.2c-17.1,0-31,13.9-31,31v8h-36.1v-8c0-17.1-13.9-31-31-31h-28.2
		c-6.5,0-12.5,2-17.5,5.4c-5-3.4-11-5.4-17.5-5.4H316c-6.3,0-12.2,1.9-17.1,5.2c-4.9-3.3-10.8-5.2-17.1-5.2H126.5
		c-6.5,0-12.5,2-17.5,5.4c-5-3.4-11-5.4-17.5-5.4H63.4c-17.1,0-31,13.9-31,31v8h-9.1C10.4,854.7,0,865.1,0,877.9v48.9
		C0,939.6,10.4,950,23.2,950h110.4c7.7,0,13.9-6.2,13.9-13.9s-6.2-13.9-13.9-13.9H27.8v-39.6h667.7v39.6H196.7
		c-7.7,0-13.9,6.2-13.9,13.9S189,950,196.7,950h503.5c12.8,0,23.2-10.4,23.2-23.2v-48.9C723.4,865.1,713,854.7,700.2,854.7z
		 M94.8,854.7H60.2v-8c0-1.8,1.4-3.2,3.2-3.2h28.2c1.8,0,3.2,1.4,3.2,3.2V854.7z M285,854.7H123.3v-8c0-1.8,1.4-3.2,3.2-3.2h155.3
		c1.8,0,3.2,1.4,3.2,3.2L285,854.7L285,854.7z M347.4,854.7h-34.6v-8c0-1.8,1.4-3.2,3.2-3.2h28.2c1.8,0,3.2,1.4,3.2,3.2V854.7z
		 M410.6,854.7H376v-8c0-1.8,1.4-3.2,3.2-3.2h28.2c1.8,0,3.2,1.4,3.2,3.2V854.7z M536.9,854.7h-34.6v-8c0-1.8,1.4-3.2,3.2-3.2h28.2
		c1.8,0,3.2,1.4,3.2,3.2V854.7z M600.1,854.7h-34.6v-8c0-1.8,1.4-3.2,3.2-3.2h28.2c1.8,0,3.2,1.4,3.2,3.2V854.7z M663.2,854.7h-34.6
		v-8c0-1.8,1.4-3.2,3.2-3.2H660c1.8,0,3.2,1.4,3.2,3.2V854.7z"/>
	<path class="st0" d="M885.6,809.1h-81.7c-35,0-63.5,28.5-63.5,63.5v54.2c0,12.8,10.4,23.2,23.2,23.2h162.3
		c12.8,0,23.2-10.4,23.2-23.2v-54.2C949.1,837.6,920.6,809.1,885.6,809.1z M921.3,922.2H768.2v-49.6c0-19.7,16-35.7,35.7-35.7h81.7
		c19.7,0,35.7,16,35.7,35.7V922.2z"/>
	<path class="st0" d="M139.1,652.8h216.6v35.1h-31.4c-24.2,0-43.8,19.6-43.8,43.8V756c0,11.8,9.6,21.4,21.4,21.4h203.7
		c7.7,0,13.9-6.2,13.9-13.9c0-7.7-6.2-13.9-13.9-13.9H308.3v-17.9c0-8.8,7.2-16,16-16h299.4c8.8,0,16,7.2,16,16v17.9h-69.1
		c-7.7,0-13.9,6.2-13.9,13.9c0,7.7,6.2,13.9,13.9,13.9h75.5c11.8,0,21.4-9.6,21.4-21.4v-24.3c0-24.2-19.6-43.8-43.8-43.8h-31.4
		v-35.1h216.6c28.8,0,52.2-23.4,52.2-52.2L862,52.2C862,23.4,838.6,0,809.8,0H139.1c-28.8,0-52.2,23.4-52.2,52.2v548.3
		C86.9,629.3,110.3,652.8,139.1,652.8z M564.5,687.9h-181v-35.1h181V687.9z M115.5,52.2c0-13.5,10.9-24.4,24.4-24.4h669
		c13.5,0,24.4,11,24.4,24.4v78.5H115.5V52.2z M114.7,158.6h718.7v374H114.7V158.6z M114.7,560.4h718.7v40.1
		c0,13.5-11,24.4-24.4,24.4H139.1c-13.5,0-24.4-11-24.4-24.4V560.4z"/>
	<path class="st1" d="M172.6,43.2c-19.7,0-35.7,16-35.7,35.7s16,35.7,35.7,35.7s35.7-16,35.7-35.7S192.3,43.2,172.6,43.2z
		 M172.6,94.7c-8.7,0-15.8-7.1-15.8-15.8c0-8.7,7.1-15.8,15.8-15.8c8.7,0,15.8,7.1,15.8,15.8C188.4,87.7,181.3,94.7,172.6,94.7z"/>
	<path class="st0" d="M256.8,43.2c-19.7,0-35.7,16-35.7,35.7s16,35.7,35.7,35.7c19.7,0,35.7-16,35.7-35.7S276.5,43.2,256.8,43.2z
		 M256.8,94.7c-8.7,0-15.8-7.1-15.8-15.8c0-8.7,7.1-15.8,15.8-15.8c8.7,0,15.8,7.1,15.8,15.8C272.6,87.7,265.5,94.7,256.8,94.7z"/>
	<path class="st0" d="M341,43.2c-19.7,0-35.7,16-35.7,35.7s16,35.7,35.7,35.7s35.7-16,35.7-35.7S360.7,43.2,341,43.2z M341,94.7
		c-8.7,0-15.8-7.1-15.8-15.8c0-8.7,7.1-15.8,15.8-15.8c8.7,0,15.8,7.1,15.8,15.8C356.7,87.7,349.7,94.7,341,94.7z"/>
</g>
</svg>
