<svg xmlns="http://www.w3.org/2000/svg" xmlns:xlink="http://www.w3.org/1999/xlink" width="8.1in" height="3.38in" viewBox="0 0 583 243"><defs><style>.a{fill:url(#a);}.b{fill:#f5f5f5;}.c{fill:#f26483;}.d{fill:#fff;}.e{fill:#4cb69f;}.f,.g,.h,.j{fill:none;stroke-miterlimit:10;}.f,.g,.j{stroke:#4cb69f;stroke-width:2px;}.g{stroke-dasharray:12 3;}.h{stroke:#f5f5f5;}.i{mask:url(#b);}.j{stroke-dasharray:3 3;}</style><linearGradient id="a" x1="-9" y1="76.5" x2="66" y2="76.5" gradientUnits="userSpaceOnUse"><stop offset="0.39" stop-color="#020202"/><stop offset="1" stop-color="#fff"/></linearGradient><mask id="b" x="-9" y="36" width="75.21" height="81" maskUnits="userSpaceOnUse"><rect class="a" x="-9" y="36" width="75" height="81"/></mask></defs><title>4_rpilot</title><path class="b" d="M115.53,150c.13.22.37.44.38.66,0,1.28,0,2.56,0,3.84a.22.22,0,0,0,.21.22c.77,0,1.53,0,2.3,0a.63.63,0,0,1,.63.63c0,.75,0,1.51,0,2.26a.26.26,0,0,0,.26.25c1.27,0,2.54,0,3.82,0,.36,0,.63.14.63.53s-.26.53-.63.53c-1.28,0-2.56,0-3.84,0a.24.24,0,0,0-.24.24c0,.9,0,1.79,0,2.69a.21.21,0,0,0,.21.21c1.28,0,2.56,0,3.84,0,.37,0,.66.11.66.52s-.29.55-.67.55c-1.26,0-2.53,0-3.79,0a.26.26,0,0,0-.25.25c0,.86,0,1.71,0,2.57,0,.25,0,.33.32.33,1.25,0,2.5,0,3.74,0,.36,0,.66.1.67.51s-.28.55-.66.55q-1.92,0-3.84,0a.21.21,0,0,0-.21.2q0,1.12,0,2.25a.68.68,0,0,1-.69.69c-.74,0-1.47,0-2.21,0a.25.25,0,0,0-.24.25c0,1.27,0,2.54,0,3.82,0,.37-.13.65-.53.65s-.52-.29-.52-.66q0-1.92,0-3.84a.22.22,0,0,0-.21-.21c-.89,0-1.79,0-2.68,0a.25.25,0,0,0-.24.24c0,1.26,0,2.53,0,3.79,0,.37-.11.68-.53.68s-.53-.31-.53-.68c0-1.26,0-2.53,0-3.79a.25.25,0,0,0-.24-.24c-.9,0-1.79,0-2.69,0a.21.21,0,0,0-.21.21c0,1.3,0,2.61,0,3.91,0,.2-.32.4-.49.6-.18-.19-.5-.38-.51-.58,0-1.3,0-2.61,0-3.91a.22.22,0,0,0-.22-.22c-.75,0-1.51,0-2.26,0a.66.66,0,0,1-.66-.66c0-.75,0-1.5,0-2.25a.24.24,0,0,0-.23-.23q-1.89,0-3.79,0c-.38,0-.68-.1-.68-.52s.31-.54.69-.53c1.24,0,2.48,0,3.72,0,.27,0,.32-.08.32-.33,0-.86,0-1.71,0-2.57a.26.26,0,0,0-.25-.25c-1.27,0-2.54,0-3.82,0-.37,0-.64-.14-.64-.54s.28-.52.64-.52c1.28,0,2.56,0,3.84,0a.24.24,0,0,0,.23-.23q0-1.33,0-2.67a.24.24,0,0,0-.24-.24c-1.29,0-2.58,0-3.87,0-.36,0-.65-.17-.58-.52a.81.81,0,0,1,.59-.51c1.29,0,2.58,0,3.86,0a.24.24,0,0,0,.24-.23c0-.77,0-1.53,0-2.3a.61.61,0,0,1,.6-.61c.77,0,1.54,0,2.31,0a.24.24,0,0,0,.23-.24c0-1.26,0-2.53,0-3.79,0-.23.25-.46.38-.69h.3c.12.24.33.47.34.72,0,1.25,0,2.51,0,3.76a.24.24,0,0,0,.24.24q1.33,0,2.67,0a.23.23,0,0,0,.23-.23c0-1.26,0-2.53,0-3.79,0-.24.24-.47.37-.7h.3c.13.23.36.46.37.7,0,1.26,0,2.52,0,3.79a.23.23,0,0,0,.23.23q1.34,0,2.69,0a.22.22,0,0,0,.22-.22c0-1.26,0-2.53,0-3.79,0-.24.22-.48.34-.71Zm-4.34,6h-6.57a.35.35,0,0,0-.25.24q0,6.57,0,13.15a.39.39,0,0,0,.26.27q6.56,0,13.12,0a.39.39,0,0,0,.26-.27q0-6.57,0-13.15a.35.35,0,0,0-.25-.23H111.2"/><path class="c" d="M111.2,167.46h-4.08a.64.64,0,0,1-.65-.65q0-4.1,0-8.2a.62.62,0,0,1,.62-.62h8.22a.62.62,0,0,1,.62.62q0,4.09,0,8.19a.65.65,0,0,1-.65.65H111.2m-4-4.46h.32c0,1.15,0,2.3,0,3.44a.26.26,0,0,0,.26.25q3.42,0,6.84,0a.25.25,0,0,0,.25-.25q0-3.42,0-6.85a.25.25,0,0,0-.25-.25q-3.43,0-6.86,0a.24.24,0,0,0-.24.23c0,1.14,0,2.28,0,3.41"/><path class="b" d="M76.18,192v-3.62H72.54V192h-.66v-7.78h.65v3.59h3.64v-3.59h.66V192Z"/><path class="b" d="M83.36,192.1a1,1,0,0,1-1.08-.79,3.26,3.26,0,0,1-2.19.81,1.49,1.49,0,0,1-1.61-1.67c0-1.45,1.31-1.78,2.23-1.8l1.53,0v-.91c0-1.07-.51-1.26-1.66-1.26a5.41,5.41,0,0,0-1.41.27L79,186.2a5,5,0,0,1,1.78-.32c1.2,0,2,.41,2,1.54v3.52a.59.59,0,0,0,.57.66Zm-1.11-3-1.58.07c-1,0-1.58.55-1.58,1.2,0,.92.45,1.2,1.2,1.2a4,4,0,0,0,2-.78Z"/><path class="b" d="M90.33,186.92a2.92,2.92,0,0,0-1.47-.47,2.27,2.27,0,0,0-1.69,1v4h2.21V192H84.91v-.56h1.65v-4.9H84.91V186h2.26v.75a2.13,2.13,0,0,1,1.72-.86,3,3,0,0,1,1.71.51Z"/><path class="b" d="M95.87,192v-.62a2.68,2.68,0,0,1-1.68.7c-1,0-2.46-.36-2.46-3,0-2.11,1.25-3.19,2.74-3.19a4.24,4.24,0,0,1,1.41.18v-2.33h.6V192Zm0-5.4a4.15,4.15,0,0,0-1.42-.22c-1.54,0-2.1,1.39-2.1,2.71,0,1.71.73,2.48,1.83,2.48a3.2,3.2,0,0,0,1.69-.77Z"/><path class="b" d="M102.73,192h-.91l-1-5.54h0L99.48,192h-.91l-.85-6h.64l.66,5.61h0l1.28-5.61h.9l1.07,5.61h0l.86-5.61h.6Z"/><path class="b" d="M109.76,192.1a1,1,0,0,1-1.08-.79,3.26,3.26,0,0,1-2.19.81,1.49,1.49,0,0,1-1.61-1.67c0-1.45,1.31-1.78,2.23-1.8l1.53,0v-.91c0-1.07-.51-1.26-1.66-1.26a5.41,5.41,0,0,0-1.41.27l-.13-.51a5,5,0,0,1,1.78-.32c1.2,0,2,.41,2,1.54v3.52a.59.59,0,0,0,.57.66Zm-1.11-3-1.58.07c-1,0-1.58.55-1.58,1.2,0,.92.45,1.2,1.2,1.2a4,4,0,0,0,2-.78Z"/><path class="b" d="M116.73,186.92a2.92,2.92,0,0,0-1.47-.47,2.27,2.27,0,0,0-1.69,1v4h2.21V192h-4.47v-.56H113v-4.9h-1.65V186h2.26v.75a2.13,2.13,0,0,1,1.72-.86,3,3,0,0,1,1.71.51Z"/><path class="b" d="M118.76,189.08c0,2.18,1.14,2.49,2.48,2.49a6.88,6.88,0,0,0,1.42-.2l.13.52a5.2,5.2,0,0,1-1.8.24c-1.68,0-2.85-.71-2.85-3s1.25-3.26,2.68-3.26,2.16.95,2.16,3v.22Zm1.94-2.73c-1,0-1.8.74-1.94,2.22h3.56C122.32,187.23,121.74,186.35,120.69,186.35Z"/><path class="b" d="M157.08,192.13a5.23,5.23,0,0,1-2.17-.44l.26-.55a5.37,5.37,0,0,0,1.87.4c.85,0,2.12-.18,2.12-1.43,0-2.06-4.08-1.64-4.08-4.08,0-1.36,1.09-1.82,2.3-1.82a4.75,4.75,0,0,1,1.9.36l-.19.51a4.89,4.89,0,0,0-1.69-.32c-.86,0-1.71.24-1.71,1.19,0,1.94,4.09,1.61,4.09,4.09C159.79,191.67,158.55,192.13,157.08,192.13Z"/><path class="b" d="M164.58,192.12c-1.1,0-1.95-.21-1.95-1.61v-3.94H161.2V186h1.43v-1.23h.58V186h3.43v.55h-3.42v3.77c0,.93.33,1.21,1.34,1.21a5.45,5.45,0,0,0,2-.41l.17.5A5.76,5.76,0,0,1,164.58,192.12Z"/><path class="b" d="M168.27,192v-.56h2.29v-4.91h-2.07V186h2.68v5.45h2.29V192Zm2.6-7.27-.58-.61.58-.59.6.59Z"/><path class="b" d="M179.16,192V188.3c0-1,0-1.86-.74-1.86-.47,0-.85.55-1,.83a7.23,7.23,0,0,1,0,.86V192h-.59v-3.95c0-.8,0-1.66-.65-1.66-.42,0-.9.71-1.07,1V192h-.6v-6h.6v.69a1.4,1.4,0,0,1,1.13-.83,1,1,0,0,1,1,.79,1.28,1.28,0,0,1,1.18-.79c1.29,0,1.3,1.2,1.3,2.23V192Z"/><path class="b" d="M185.43,192v-.73a4,4,0,0,1-2.19.85c-1.64,0-1.75-1.33-1.75-2.27V186h.61v3.67c0,1,0,1.87,1.25,1.87a4.63,4.63,0,0,0,2.08-.85V186H186v6Z"/><path class="b" d="M187.74,192v-.56h2.31v-7.22H188v-.52h2.68v7.73h2.29V192Z"/><path class="b" d="M194.67,192v-.56H197v-4.91h-2.07V186h2.68v5.45h2.29V192Zm2.6-7.27-.58-.61.58-.59.6.59Z"/><path class="b" d="M166,162.64q0,4,0,8a.69.69,0,0,1-.36.71.59.59,0,0,1-.74-.16l-3-3.32c-.52-.53-1-1.11-1.53-1.64a.62.62,0,0,0-.35-.16c-.7,0-1.4,0-2.09-.07a2.78,2.78,0,0,1-2.39-2.58,9.18,9.18,0,0,1,.08-2.25,2.51,2.51,0,0,1,2.15-2c.75-.09,1.51,0,2.26-.09a.54.54,0,0,0,.37-.17q2.24-2.42,4.46-4.86a.69.69,0,0,1,.7-.27c.3.07.47.32.47.71q0,2.63,0,5.26Z"/><path class="b" d="M181,162.73A12.57,12.57,0,0,1,170.57,175a10.91,10.91,0,0,1-1.11.14.92.92,0,0,1-1-.86c-.06-.72.27-1.18.89-1.23a10,10,0,0,0,5.62-2.26,10.17,10.17,0,0,0,3.88-9.33,10.45,10.45,0,0,0-8.85-9.26c-.22,0-.44,0-.65-.07-.63-.06-1-.52-.89-1.23a.91.91,0,0,1,1.06-.85,12.4,12.4,0,0,1,10.8,8.39,11.88,11.88,0,0,1,.71,4.28"/><path class="b" d="M177.6,162.43a9.24,9.24,0,0,1-7.84,9.27,1.86,1.86,0,0,1-.65,0c-.49-.11-.73-.53-.69-1.15a.93.93,0,0,1,.83-.9,6.92,6.92,0,0,0,5.88-4.87,7.08,7.08,0,0,0-5.85-9.24.88.88,0,0,1-.8-.61,1.15,1.15,0,0,1,.19-1.18.94.94,0,0,1,.87-.29,9.19,9.19,0,0,1,8,7.95c0,.4.07.8.09,1"/><path class="c" d="M174.2,162.54a5.82,5.82,0,0,1-4.54,5.74.93.93,0,0,1-1.21-.68,1,1,0,0,1,.74-1.37,3.61,3.61,0,0,0,2.85-3,3.69,3.69,0,0,0-2.79-4.25,1.1,1.1,0,0,1-.7-1.63.94.94,0,0,1,1-.44,5.82,5.82,0,0,1,4.6,5.17l0,.45"/><path class="b" d="M282.68,146.38v7.21H282v-7.21h-2.4v-.57h5.44v.57Z"/><path class="b" d="M291.36,153.65a1,1,0,0,1-1.08-.79,3.26,3.26,0,0,1-2.19.81,1.49,1.49,0,0,1-1.61-1.67c0-1.45,1.31-1.78,2.23-1.8l1.53,0v-.91c0-1.07-.51-1.27-1.66-1.27a5.36,5.36,0,0,0-1.41.28l-.13-.51a5,5,0,0,1,1.78-.32c1.2,0,2,.41,2,1.54v3.52a.59.59,0,0,0,.57.66Zm-1.11-3-1.58.07c-1,0-1.58.55-1.58,1.2,0,.92.45,1.2,1.2,1.2a4,4,0,0,0,2-.78Z"/><path class="b" d="M295.28,153.68a4.76,4.76,0,0,1-2-.34l.19-.55a4.24,4.24,0,0,0,1.76.35c.94,0,2-.18,2-1,0-1.5-3.65-1-3.65-3.11,0-1.11.91-1.53,2-1.53a4.75,4.75,0,0,1,1.79.32l-.18.5a5,5,0,0,0-1.67-.3c-.79,0-1.41.29-1.41,1,0,1.61,3.65,1.17,3.65,3.14C297.78,153.39,296.25,153.68,295.28,153.68Z"/><path class="b" d="M300.09,153.59v-8.29h.6v8.29Zm3.89,0-2.85-3.18,2.85-2.83h.75l-2.87,2.82,2.88,3.19Z"/><path class="b" d="M308.48,153.68a4.76,4.76,0,0,1-2-.34l.19-.55a4.24,4.24,0,0,0,1.76.35c.94,0,2-.18,2-1,0-1.5-3.65-1-3.65-3.11,0-1.11.91-1.53,2-1.53a4.75,4.75,0,0,1,1.79.32l-.18.5a5,5,0,0,0-1.67-.3c-.79,0-1.41.29-1.41,1,0,1.61,3.65,1.17,3.65,3.14C311,153.39,309.45,153.68,308.48,153.68Z"/><path class="b" d="M302,123.27v17a1.79,1.79,0,0,1-1.82,1.77H281.82a1.79,1.79,0,0,1-1.82-1.77V118.77a1.79,1.79,0,0,1,1.82-1.77h13.74Z"/><polygon class="d" points="300 124.53 294.61 119 282 119 282 141 300 141 300 124.53"/><rect class="b" x="284" y="123" width="7" height="2"/><rect class="c" x="284" y="128" width="13" height="2"/><rect class="b" x="284" y="132" width="13" height="2"/><rect class="b" x="284" y="135" width="13" height="2"/><path class="b" d="M195.87,11.92h-1.53V4.15h1.46c2.46,0,3.38,1.38,3.38,3.86C199.18,10.75,198.41,11.92,195.87,11.92Zm-.1-7.22H195v6.66h1c2.08,0,2.55-1.08,2.55-3.23C198.55,5.79,197.91,4.71,195.77,4.71Z"/><path class="b" d="M205.66,12a1,1,0,0,1-1.08-.79,3.26,3.26,0,0,1-2.19.81,1.49,1.49,0,0,1-1.61-1.67c0-1.45,1.31-1.78,2.23-1.8l1.53,0V7.59c0-1.07-.51-1.27-1.66-1.27a5.39,5.39,0,0,0-1.41.27l-.13-.51a5,5,0,0,1,1.78-.32c1.2,0,2,.41,2,1.54v3.52a.59.59,0,0,0,.57.66Zm-1.11-3L203,9.06c-1,0-1.58.55-1.58,1.2,0,.92.45,1.2,1.2,1.2a4,4,0,0,0,2-.78Z"/><path class="b" d="M210.48,12c-1.1,0-1.95-.21-1.95-1.61V6.47H207.1V5.92h1.43V4.68h.58V5.92h3.43v.55h-3.42v3.77c0,.94.33,1.21,1.34,1.21a5.46,5.46,0,0,0,2-.41l.17.49A5.76,5.76,0,0,1,210.48,12Z"/><path class="b" d="M218.86,12a1,1,0,0,1-1.08-.79,3.26,3.26,0,0,1-2.19.81A1.49,1.49,0,0,1,214,10.34c0-1.45,1.31-1.78,2.23-1.8l1.53,0V7.59c0-1.07-.51-1.27-1.66-1.27a5.39,5.39,0,0,0-1.41.27l-.13-.51a5,5,0,0,1,1.78-.32c1.2,0,2,.41,2,1.54v3.52a.59.59,0,0,0,.57.66Zm-1.11-3-1.58.07c-1,0-1.58.55-1.58,1.2,0,.92.45,1.2,1.2,1.2a4,4,0,0,0,2-.78Z"/><path class="b" d="M217,24V39.45a1.35,1.35,0,0,1-.46,1.09,1.48,1.48,0,0,1-1.09.46H193.54a1.35,1.35,0,0,1-1.09-.46,1.48,1.48,0,0,1-.45-1.09V17.55a1.35,1.35,0,0,1,.45-1.09,1.67,1.67,0,0,1,1.09-.46h15.09a3.65,3.65,0,0,1,1.45.32,4.37,4.37,0,0,1,1.23.77l4.55,4.55a4,4,0,0,1,.77,1.23,3.26,3.26,0,0,1,.36,1.46"/><rect class="c" x="196" y="30" width="17" height="9"/><rect class="d" x="198" y="33" width="13" height="6"/><path class="d" d="M206,24V18.48a.45.45,0,0,0-.48-.48h-3a.45.45,0,0,0-.48.48v5a.5.5,0,0,0,.13.35.5.5,0,0,0,.35.13h3a.5.5,0,0,0,.35-.13.5.5,0,0,0,.13-.35"/><path class="d" d="M196,18h-3V39.57l2-.46V32.49a1.26,1.26,0,0,1,.47-1,1.56,1.56,0,0,1,1.11-.44h13.84a1.42,1.42,0,0,1,1.12.44,1.38,1.38,0,0,1,.46,1V39h3V24.29a1.59,1.59,0,0,0-.17-.64,1.46,1.46,0,0,0-.31-.55l-4.38-4.58a1.36,1.36,0,0,0-.53-.32A2.14,2.14,0,0,0,209,18v7.43a1.34,1.34,0,0,1-.47,1.1,1.78,1.78,0,0,1-1.13.46h-9.78a1.42,1.42,0,0,1-1.13-.46,1.47,1.47,0,0,1-.47-1.1V18"/><path class="b" d="M424.57,196.15H423v-7.78h1.46c2.46,0,3.38,1.38,3.38,3.86C427.88,195,427.11,196.15,424.57,196.15Zm-.1-7.22h-.79v6.66h1c2.08,0,2.55-1.08,2.55-3.23C427.24,190,426.6,188.93,424.47,188.93Z"/><path class="b" d="M434.36,196.21a1,1,0,0,1-1.08-.79,3.26,3.26,0,0,1-2.19.81,1.49,1.49,0,0,1-1.61-1.67c0-1.45,1.31-1.78,2.23-1.8l1.53,0v-.91c0-1.07-.51-1.26-1.66-1.26a5.41,5.41,0,0,0-1.41.27l-.13-.51a5,5,0,0,1,1.78-.32c1.2,0,2,.41,2,1.54v3.52a.59.59,0,0,0,.57.66Zm-1.11-3-1.58.07c-1,0-1.58.55-1.58,1.2,0,.92.45,1.2,1.2,1.2a4,4,0,0,0,2-.78Z"/><path class="b" d="M439.18,196.23c-1.1,0-1.95-.21-1.95-1.61v-3.94H435.8v-.55h1.43v-1.23h.58v1.23h3.43v.55h-3.42v3.77c0,.94.33,1.21,1.34,1.21a5.46,5.46,0,0,0,2-.41l.17.49A5.76,5.76,0,0,1,439.18,196.23Z"/><path class="b" d="M447.56,196.21a1,1,0,0,1-1.08-.79,3.25,3.25,0,0,1-2.19.81,1.49,1.49,0,0,1-1.61-1.67c0-1.45,1.31-1.78,2.23-1.8l1.53,0v-.91c0-1.07-.51-1.26-1.66-1.26a5.41,5.41,0,0,0-1.41.27l-.13-.51A5,5,0,0,1,445,190c1.2,0,2,.41,2,1.54v3.52a.59.59,0,0,0,.57.66Zm-1.11-3-1.58.07c-1,0-1.58.55-1.58,1.2,0,.92.45,1.2,1.2,1.2a4,4,0,0,0,2-.78Z"/><path class="b" d="M425.61,209.35h-1l-2.16-7.78h.7l1.64,6.15.32,1.19h0l.37-1.19,2-6.15h.65Z"/><path class="b" d="M429.67,209.35v-.56H432v-4.91h-2.07v-.54h2.68v5.45h2.29v.56Zm2.6-7.27-.58-.6.58-.59.61.59Z"/><path class="b" d="M438.28,209.43a4.77,4.77,0,0,1-2-.34l.19-.55a4.23,4.23,0,0,0,1.76.35c.93,0,2-.18,2-1,0-1.5-3.65-1-3.65-3.11,0-1.11.91-1.53,2-1.53a4.75,4.75,0,0,1,1.79.32l-.18.49a5,5,0,0,0-1.67-.3c-.79,0-1.41.29-1.41,1,0,1.61,3.65,1.17,3.65,3.13C440.78,209.15,439.25,209.43,438.28,209.43Z"/><path class="b" d="M446.83,209.35v-.73a3.94,3.94,0,0,1-2.19.85c-1.64,0-1.75-1.33-1.75-2.27v-3.86h.61V207c0,1,0,1.87,1.25,1.87a4.63,4.63,0,0,0,2.08-.85v-4.7h.57v6Z"/><path class="b" d="M454.16,209.41a1,1,0,0,1-1.08-.79,3.25,3.25,0,0,1-2.19.81,1.49,1.49,0,0,1-1.61-1.67c0-1.45,1.31-1.78,2.23-1.8l1.53,0V205c0-1.07-.51-1.26-1.66-1.26A5.41,5.41,0,0,0,450,204l-.13-.51a5,5,0,0,1,1.78-.32c1.2,0,2,.41,2,1.54v3.52a.59.59,0,0,0,.57.66Zm-1.11-3-1.58.07c-1,0-1.58.55-1.58,1.2,0,.92.45,1.2,1.2,1.2a4,4,0,0,0,2-.78Z"/><path class="b" d="M455.74,209.35v-.56h2.31v-7.22H456V201h2.68v7.73h2.29v.56Z"/><path class="b" d="M462.67,209.35v-.56H465v-4.91h-2.07v-.54h2.68v5.45h2.29v.56Zm2.6-7.27-.58-.6.58-.59.6.59Z"/><path class="b" d="M469.08,209.35v-.63l4.19-4.81H469.4v-.57H474v.58l-4.26,4.85H474v.57Z"/><path class="b" d="M480.56,209.41a1,1,0,0,1-1.08-.79,3.26,3.26,0,0,1-2.19.81,1.49,1.49,0,0,1-1.61-1.67c0-1.45,1.31-1.78,2.23-1.8l1.53,0V205c0-1.07-.51-1.26-1.66-1.26a5.41,5.41,0,0,0-1.41.27l-.13-.51a5,5,0,0,1,1.78-.32c1.2,0,2,.41,2,1.54v3.52a.59.59,0,0,0,.57.66Zm-1.11-3-1.58.07c-1,0-1.58.55-1.58,1.2,0,.92.45,1.2,1.2,1.2a4,4,0,0,0,2-.78Z"/><path class="b" d="M485.38,209.43c-1.1,0-1.95-.21-1.95-1.61v-3.94H482v-.55h1.43v-1.23H484v1.23h3.43v.55H484v3.77c0,.94.33,1.21,1.34,1.21a5.46,5.46,0,0,0,2-.41l.17.49A5.76,5.76,0,0,1,485.38,209.43Z"/><path class="b" d="M489.07,209.35v-.56h2.29v-4.91h-2.07v-.54H492v5.45h2.29v.56Zm2.6-7.27-.58-.6.58-.59.6.59Z"/><path class="b" d="M497.94,209.43c-1.58,0-2.6-1-2.6-3s1.13-3.2,2.65-3.2c1.69,0,2.56,1.11,2.56,3.13S499.43,209.43,497.94,209.43Zm2-3.09c0-1.14-.36-2.62-2-2.62s-2,1.45-2,2.63.47,2.56,2,2.56,1.95-1.33,1.95-2.57Z"/><path class="b" d="M506.25,209.35v-3.73c0-1.1-.13-1.86-1.36-1.86a4.33,4.33,0,0,0-2,.84v4.75h-.62v-6h.61v.7a3.41,3.41,0,0,1,2.13-.84c1.74,0,1.84,1.29,1.84,2.23v3.91Z"/><polygon class="b" points="448 181 448 183 422 183 422 159 424 159 424 181 448 181"/><rect class="c" x="427" y="171" width="3" height="8"/><rect class="b" x="433" y="163" width="3" height="16"/><rect class="b" x="440" y="168" width="3" height="11"/><path class="b" d="M405,182a1,1,0,0,1-1.12.62q-7.87,0-15.74,0a1,1,0,0,1-1-1q0-1.59,0-3.17a.94.94,0,0,1,.94-.94h15.8a1,1,0,0,1,1.09.66Z"/><path class="b" d="M400.67,162.24a4.84,4.84,0,1,1-4.77-4.84,4.81,4.81,0,0,1,4.77,4.84m-8,0a3.82,3.82,0,0,0,.48,1.92c.56.93,1.48.95,2,0a4.56,4.56,0,0,0,.46-1.48,3.44,3.44,0,0,0-.55-2.51,1,1,0,0,0-1.8,0,2.53,2.53,0,0,0-.18.29,4,4,0,0,0-.41,1.78"/><path class="b" d="M397,177h-3v-9.1a12.76,12.76,0,0,0,1.52.16,12,12,0,0,0,1.48-.19Z"/><path class="c" d="M404,177h-5.17c0-.29,0-.56,0-.83a.48.48,0,0,1,.59-.43,10.42,10.42,0,0,0,4,0,.46.46,0,0,1,.57.44,7.89,7.89,0,0,1,0,.82"/><path class="b" d="M107.94,64c0-.52,0-.94,0-1.35q0-9.65,0-19.29c0-3,1.42-4.39,4.41-4.39H171c3.12,0,4.49,1.38,4.49,4.52q0,6.48,0,13c0,.39,0,.77,0,1.11.15.08.21.14.28.14,3,.24,3.47.73,3.47,3.73q0,5.89,0,11.79c0,2.41-.76,3.18-3.18,3.26l-.57.06c0,.47,0,.92,0,1.37q0,13.29,0,26.58c0,3.12-1.4,4.52-4.5,4.52H159.22c0,.48,0,.89,0,1.29A3.73,3.73,0,0,1,155.4,114c-2.36,0-4.72,0-7.07,0a3.74,3.74,0,0,1-4.11-4c0-.28,0-.56-.07-.89h-2.33c-.51,3.48-.73,3.66-4.3,3.67H127.44c-2.42,0-3.16-.73-3.26-3.18,0-.14,0-.27-.07-.55h-12c-2.68,0-4.18-1.51-4.18-4.19q0-9.7,0-19.4V84c-.49,0-.9,0-1.32,0a2.41,2.41,0,0,1-2.41-2.38q-.05-7.61,0-15.22A2.38,2.38,0,0,1,106.63,64C107,64,107.4,64,107.94,64Zm12.54,18.73h2.22c.82,0,1.43.32,1.46,1.2s-.59,1.31-1.46,1.31h-2.17v2.49c.7,0,1.34,0,2,0,.87,0,1.6.18,1.67,1.22.06.84-.55,1.27-1.71,1.28h-7.39c-1.89,0-2.11-.22-2.11-2.07,0-1.38,0-2.75,0-4.12H110.5a5.5,5.5,0,0,0-.06.56q0,10.18,0,20.36c0,1.1.46,1.53,1.6,1.53q5.68,0,11.36,0a7,7,0,0,0,.78-.09c0-2.8,0-5.54,0-8.29A2.54,2.54,0,0,1,127,95.29q5.95,0,11.89,0a2.49,2.49,0,0,1,2.78,2.78c0,2.43,0,4.86,0,7.29,0,.38,0,.75,0,1.12h2.52c0-.43,0-.82,0-1.2q0-7.93,0-15.86c0-2,.89-2.87,2.88-2.88h9c2.24,0,3.11.87,3.11,3.11q0,7.82,0,15.65c0,.38,0,.76.05,1.23H171c1.61,0,2-.33,2-1.93q0-13.5,0-27c0-.34,0-.68,0-1.07H162.19c-2,0-3-.9-3-2.92q0-6.43,0-12.86c0-2.1.88-3,3-3h9.54c.37,0,.75,0,1.19-.08,0-.47,0-.82,0-1.17q0-6.48,0-13c0-1.71-.29-2-2-2H112.38c-1.63,0-1.95.31-1.95,1.93q0,9.7,0,19.4c0,.37,0,.75.05,1.12H113c0-1.59,0-3.11,0-4.64,0-1.11.39-1.54,1.45-1.55,2.79,0,5.57,0,8.36,0,.83,0,1.41.36,1.4,1.26s-.59,1.24-1.43,1.23h-2.19v2.52c.76,0,1.43,0,2.11,0,.88,0,1.51.31,1.5,1.26s-.68,1.24-1.53,1.24h-2.07v2.49h2.13c.87,0,1.5.34,1.48,1.29s-.62,1.22-1.44,1.23h-2.2v2.49c.8,0,1.54,0,2.28,0s1.4.41,1.36,1.3-.57,1.18-1.36,1.19h-2.28v2.52h2.18c.83,0,1.43.31,1.46,1.2s-.6,1.29-1.47,1.3h-2.21Zm56.16-8.82V60.35H161.76v13.6Zm-37.52,36.28V97.84H126.76v12.39Zm17.51-8.74V89.11h-9.84v12.36h3.62c0-.35.05-.63.06-.9,0-1.32,0-2.64,0-4a1.24,1.24,0,1,1,2.47-.07c0,.53,0,1.07,0,1.61,0,1.12,0,2.24,0,3.35Zm-49.87-20h6.09V66.58h-6.09Zm40,22.65c0,2.16-.06,4.23.05,6.29a1.64,1.64,0,0,0,1.16,1.09c2.53.1,5.07.09,7.6,0a1.55,1.55,0,0,0,1.1-1c.11-2.09.05-4.19.05-6.34Zm-31.18-43.8V87.72h2.32V60.29Z"/><path class="e" d="M141.67,84c-2.39,0-4.79,0-7.18,0a2.52,2.52,0,0,1-2.8-2.78c0-2.71.11-5.41.12-8.12,0-2-.11-4.1-.12-6.14s.93-2.94,3-2.94h14.14c2,0,2.94.93,2.93,2.86,0,2.73-.12,5.45-.13,8.18,0,2,.06,4.09.12,6.13A2.52,2.52,0,0,1,149.07,84C146.6,84,144.14,84,141.67,84Zm7.51-2.51V66.61h-15V81.52Z"/><path class="b" d="M116.75,104a3.71,3.71,0,0,1-3.79-3.69,3.75,3.75,0,1,1,3.79,3.69Zm1.35-3.43,0-.5c-.45-.35-.86-.88-1.36-1-.71-.16-1.22.35-1.27,1.1s.42,1.38,1.19,1.29C117.17,101.42,117.62,100.89,118.1,100.58Z"/><path class="b" d="M116.64,51.5A3.71,3.71,0,0,1,113,47.7a3.75,3.75,0,1,1,3.68,3.79ZM118.12,48l0-.5c-.47-.31-.92-.81-1.43-.89-.72-.11-1.16.44-1.19,1.19s.64,1.41,1.29,1.21A5.11,5.11,0,0,0,118.12,48Z"/><path class="b" d="M170.45,100.33a3.75,3.75,0,0,1-7.5-.1,3.75,3.75,0,1,1,7.5.1Zm-2.33.18V100c-.46-.33-.9-.84-1.4-.93-.71-.12-1.2.41-1.22,1.16s.49,1.35,1.25,1.23C167.24,101.4,167.66,100.85,168.12,100.51Z"/><path class="b" d="M170.45,47.75a3.75,3.75,0,0,1-7.5,0,3.75,3.75,0,1,1,7.5,0Zm-2.32.2,0-.49c-.48-.31-.92-.82-1.43-.89-.71-.1-1.19.43-1.19,1.19s.54,1.34,1.29,1.2C167.27,48.87,167.68,48.3,168.13,48Z"/><path class="b" d="M134.48,43.85c.32.47.85.91.92,1.42.11.7-.4,1.19-1.17,1.23s-1.43-.63-1.24-1.27a5.15,5.15,0,0,1,1-1.38Z"/><path class="b" d="M149,46.69c-.34-.46-.87-.88-1-1.39-.14-.71.39-1.19,1.14-1.26s1.45.57,1.28,1.23a5.19,5.19,0,0,1-.95,1.42Z"/><path class="b" d="M130.61,45.56c-.48.32-.93.84-1.43.9-.78.09-1.25-.49-1.19-1.29a1.06,1.06,0,0,1,1.28-1.1c.5.11.91.65,1.37,1Z"/><path class="b" d="M140.61,45.57c-.48.31-.92.82-1.43.89-.72.1-1.17-.44-1.2-1.2s.64-1.42,1.29-1.21a5.15,5.15,0,0,1,1.36,1Z"/><path class="b" d="M125.62,45.46c-.45.35-.86.88-1.36,1-.71.16-1.2-.35-1.29-1.1s.53-1.47,1.19-1.31a5.11,5.11,0,0,1,1.43.91Z"/><path class="b" d="M144,46.69c-.33-.46-.85-.89-.94-1.4-.14-.79.44-1.26,1.23-1.25s1.28.51,1.14,1.23c-.09.51-.6.94-.92,1.41Z"/><path class="b" d="M154.49,43.85c.32.47.84.91.91,1.42.11.77-.45,1.26-1.26,1.22A1.05,1.05,0,0,1,153,45.22c.1-.5.62-.93,1-1.39Z"/><path class="b" d="M160.63,45.47c-.45.34-.87.87-1.37,1-.72.16-1.22-.36-1.27-1.11a1.09,1.09,0,0,1,1.21-1.29c.5.06.95.59,1.42.91Z"/><path class="b" d="M125.61,50.52c-.46.32-.9.84-1.4.93-.78.13-1.26-.43-1.24-1.24s.52-1.27,1.24-1.13c.51.1.94.61,1.4.93Z"/><path class="b" d="M129.45,48.86c.33.46.86.88.94,1.37.13.77-.42,1.27-1.23,1.25s-1.28-.5-1.15-1.22c.09-.5.6-.93.92-1.39Z"/><path class="b" d="M139.49,48.86c.32.47.82.91.9,1.42.11.72-.43,1.2-1.18,1.2s-1.35-.49-1.2-1.27c.1-.5.63-.92,1-1.37Z"/><path class="b" d="M143.92,51.67c-.32-.47-.82-.91-.91-1.42A1,1,0,0,1,144.18,49c.81,0,1.35.49,1.21,1.27-.09.5-.62.92-1,1.37Z"/><path class="b" d="M155.62,50.52c-.46.32-.89.83-1.4.93-.72.14-1.22-.39-1.24-1.13s.45-1.37,1.24-1.24c.5.08.94.61,1.4.93Z"/><path class="b" d="M159.48,48.85c.32.46.84.9.92,1.4a1.05,1.05,0,0,1-1.15,1.22c-.8,0-1.36-.47-1.23-1.25.08-.5.62-.92.95-1.38Z"/><path class="b" d="M134,51.68c-.35-.45-.9-.85-1-1.35-.15-.7.32-1.22,1.09-1.27s1.39.41,1.31,1.17c-.05.5-.58,1-.89,1.43Z"/><path class="b" d="M149,51.68c-.35-.45-.9-.85-1-1.35a1,1,0,0,1,1.09-1.27c.81-.05,1.39.4,1.31,1.17-.05.5-.58,1-.89,1.43Z"/><path class="b" d="M168,69h2.24c.83,0,1.4.39,1.4,1.25s-.59,1.25-1.41,1.25c-1.56,0-3.13,0-4.69,0-.82,0-1.39-.44-1.35-1.31A1.2,1.2,0,0,1,165.6,69Z"/><path class="b" d="M168,62.78h2.34A1.18,1.18,0,0,1,171.69,64a1.16,1.16,0,0,1-1.28,1.26q-2.45,0-4.9,0A1.16,1.16,0,0,1,164.23,64a1.18,1.18,0,0,1,1.33-1.21Z"/><path class="b" d="M134.22,104a3.38,3.38,0,0,1,0-1.37c.22-.44.73-1,1.09-1a1.64,1.64,0,0,1,1.26.93,8.22,8.22,0,0,1,0,3,1.5,1.5,0,0,1-1.16.93,2,2,0,0,1-1.2-1.06c-.19-.36,0-.9,0-1.36Z"/><path class="b" d="M131.68,104c0,.43,0,.85,0,1.28a1.17,1.17,0,0,1-1.27,1.26,1.14,1.14,0,0,1-1.18-1.24q0-1.22,0-2.45a1.23,1.23,0,1,1,2.45,0C131.7,103.19,131.68,103.58,131.68,104Z"/><path class="b" d="M109.23,31h-1.18v3h-.66V26.17h2.41a2.14,2.14,0,0,1,2.39,2.34C112.19,29.87,111.31,31,109.23,31Zm.33-4.27h-1.51v3.7h1.24c1.23,0,2.2-.47,2.2-1.84S110.85,26.71,109.56,26.71Z"/><path class="b" d="M113.67,33.95v-.56H116V28.48h-2.07v-.54h2.68v5.45h2.29v.56Zm2.6-7.27-.58-.6.58-.59.6.59Z"/><path class="b" d="M119.94,33.95v-.56h2.31V26.17h-2.09v-.52h2.68v7.73h2.29v.56Z"/><path class="b" d="M129.14,34c-1.58,0-2.6-1-2.6-3s1.13-3.2,2.65-3.2c1.69,0,2.56,1.11,2.56,3.14S130.64,34,129.14,34Zm2-3.09c0-1.14-.36-2.62-2-2.62s-2,1.45-2,2.63.47,2.56,2,2.56,1.95-1.33,1.95-2.57Z"/><path class="b" d="M136.38,34c-1.1,0-1.95-.21-1.95-1.61V28.49H133v-.55h1.43V26.71H135v1.23h3.43v.55H135v3.77c0,.94.33,1.21,1.34,1.21a5.46,5.46,0,0,0,2-.41l.17.49A5.76,5.76,0,0,1,136.38,34Z"/><polyline class="f" points="168.1 146 168.1 139 148.1 139 142.1 133 142.1 126 142.1 120"/><polyline class="f" points="111 146 111 139 131 139 137 133 137 126 137 120"/><path class="b" d="M382.42,39.29h34.66c4.47,0,10.29-1,14.48.93,5.37,2.53,4.32,8.21,4.33,13.21q0,8,0,16.08c0,5.63.94,12.33-.09,17.85-.67,3.6-4,5.66-7.44,6.08-5.9.73-12.35.06-18.3.06-2.6,0-5.21-.06-7.81,0-3.23.07-1.44.32-2.32,2.48-1.65,4.06-11.16,2.3-14.49,2.31-5.09,0-10.19.12-15.27,0-2.36-.05-4.57-.07-5.41-2.62-.7-2.14.59-2.17-2.47-2.16H346.15c-4.7,0-11.22,1.22-15.06-2.3-3.47-3.19-2.17-9-2.17-13.19q0-8.94,0-17.88,0-4.66,0-9.33c0-2.4-.49-5.28.72-7.48,2.77-5,9.55-4.05,14.26-4.05Zm0,7.37h-38.9c-1,0-4.36-.62-5.08.06s-.15,4.92-.15,5.8q0,12.69,0,25.39c0,2-.08,4.11,0,6.15.08,2.28-.08,2,2.11,2.08,4.65.14,9.33,0,14,0H418c2.07,0,4.14,0,6.22,0,2.25,0,1.9.32,2.32-1.53.82-3.63,0-8.44,0-12.17q0-6.47,0-12.93c0-2.39,1.22-11.45-.38-12.8-.85-.71-5.38,0-6.51,0H382.37Z"/><path class="b" d="M382.36,113.87c-15.34,0-30.7.22-46,0-1.33,0-7,.51-6.75-1.62.09-.76,3.22-3.08,3.84-3.66,1.43-1.34,2.87-2.68,4.38-3.94,2.39-2,3.85-3.18,7-3.22,4.11-.05,8.22,0,12.33,0h57c3.3,0,7.15-.74,10,1,2.73,1.62,5.07,4.23,7.37,6.39,1.76,1.65,5.89,4.08,1.56,4.87-3.82.7-8.1.19-12,.19H382.36Zm-12.75-3.53c0-.36,3.82.67,2.58-1.51-.38-.67-5.81-.15-4.86,1.37C367.54,110.54,369.38,110.34,369.61,110.34Zm25.49,0c0-.12,4.83-.34.8-1.58C392.62,107.76,391.06,110.35,395.1,110.35Zm-6.39,0c0,.32,5.52-1,.48-1.6C386,108.34,385.25,110.34,388.7,110.34ZM366.55,109c-1.8-.52-4.65-.73-5.58,1.22C362.8,110.89,365.55,110.7,366.55,109Zm47.69,1.4a10.6,10.6,0,0,0,2.21-.13c-1.06-1.92-3.75-1.84-5.65-1.29C411.61,110.4,412.65,110.35,414.24,110.35Zm-66-.23c.35,1.61,6.61-.68,5.84-1.29C352.64,107.69,349.25,109.14,348.24,110.13Zm-4.14.22c0,.89,3.79-1.17,4-1.43-1.56-.59-5.27-.49-6.14,1.3A5.83,5.83,0,0,0,344.11,110.35Zm85.09-.06c.69-1.69-5.54-1.54-6.16-1.38C424.52,110.77,427,110.57,429.2,110.28Zm-46.84.06s5.23-.76.82-1.59C380.33,108.21,378.55,110.34,382.36,110.34Zm-6.39,0c0,.1,5.36-.53,1.33-1.6C374.74,108.07,371.87,110.35,376,110.35Zm-40.45-.2c.12,1.35,5.69-.33,6.44-1.25A7.39,7.39,0,0,0,335.53,110.15Zm85.1.2c.44,0,1.74.2,2.15-.15s-1.71-1.31-1.91-1.37a8.92,8.92,0,0,0-3.93.06C417.89,110.43,418.94,110.35,420.63,110.35Zm-60.25-1.26c-.11-1.26-5.16-.21-5.72,1.11A5.64,5.64,0,0,0,360.38,109.09Zm34.07-1.45s3.93,0,1.26-1.56C393.25,104.66,389.73,107.65,394.45,107.65Zm-12,0s2.06.11,2.26-.19c1-1.55-1.29-1.38-2-1.4C380.05,106,379.46,107.65,382.5,107.65Zm-5.92,0c0,.32,5.71-1.45.51-1.59C374.45,106,373.32,107.65,376.57,107.65Zm-11.92,0c0,.89,2.82-.85,3.05-1.4-1.69-.6-4.31-.65-5.16,1.23A5.43,5.43,0,0,0,364.66,107.65Zm-11.91,0c1.53,0,2.67,0,3.55-1.43-1.81-.74-4.44-.37-5.63,1.29A6.68,6.68,0,0,0,352.75,107.65Zm5.95,0c0,.95,3.06-1,3.31-1.42-.22-.07-6.18-.56-5.32,1.27C356.83,107.82,358.53,107.65,358.7,107.65Zm11.86,0c0-.19,4.08.16,2.26-1.58-.47-.45-5.2-.09-4.29,1.45C368.71,107.83,370.35,107.65,370.56,107.65Zm17.93,0c0,.11,5.33-1.33-.15-1.59C385.27,105.91,385.89,107.65,388.49,107.65Zm-49.7-.17c.73,1.34,5.58-.19,6.19-1.38C342.53,105.94,340.73,105.9,338.78,107.48Zm81.61-1.36c-.72,1.79,5.29,1.51,5.84,1.4C424.74,105.81,422.5,105.86,420.39,106.12Zm-8.11,1.53a9.22,9.22,0,0,0,2.07-.14c-.59-.92-4.37-2.65-5.09-1.42C408.36,107.61,411.56,107.64,412.28,107.64Zm-65.5,0c0,.9,3.6-1.16,3.81-1.48-1.59-.38-4.9-.45-5.79,1.34A5.31,5.31,0,0,0,346.78,107.65Zm71.45,0a8.75,8.75,0,0,0,2-.14c-.51-1.12-5.27-2.45-5.5-1.33C414.46,107.66,417.68,107.65,418.23,107.65Zm-55-4c-1.67-.4-4.34-.53-5.21,1.3A4.52,4.52,0,0,0,363.25,103.65Zm29.9,1.45c2.3,0,2.55-1.05.32-1.58C390.46,102.81,389.74,105.1,393.15,105.1Zm-22.16,0c0-.36,3.49.59,2.39-1.52-.3-.57-5.14-.24-4.33,1.34A2.63,2.63,0,0,0,371,105.1Zm5.55,0c2.22,0,3.63-1.59.45-1.59C374.83,103.51,373.26,105.1,376.54,105.1Zm-35.14-.26c1.11,1.36,5,0,5.89-1.2C345.18,102.76,343.22,104,341.4,104.84Zm40.71.26c3.3,0,2.24-2.07-.38-1.59C379.54,103.91,379.46,105.1,382.11,105.1Zm27.65,0a2.39,2.39,0,0,0,1.84-.14c.76-1.83-4.71-1.38-5-1.31C407.38,105.09,408.16,105.1,409.76,105.1Zm5.56,0c0-.15,1.73.24,1.84-.14.4-1.31-4.88-2.07-5.24-1.32C411.28,105,415,105.1,415.33,105.1Zm-27.72,0c2,0,2.92-1,.57-1.59C385.42,102.82,384.18,105.11,387.61,105.1ZM347,105c.57,1,5.37,0,5.6-1.4C350.63,103.29,348.36,103.33,347,105Zm18.5.14c.34,0,3.7-.07,2.82-1.45-.45-.71-5.5-.08-4.72,1.32A2.9,2.9,0,0,0,365.49,105.1Zm-7.58-1.47c-1.59-.39-4.56-.49-5.33,1.34A4.8,4.8,0,0,0,357.91,103.63Zm59.29-.09c-.63,1.16,4.93,2.36,5.51,1.4C421,103.38,419.42,103.4,417.2,103.54Z"/><path class="b" d="M384.68,26.74v7.21H384V26.74h-2.4v-.57h5.44v.57Z"/><path class="b" d="M389.16,31c0,2.18,1.14,2.49,2.48,2.49a6.84,6.84,0,0,0,1.42-.2l.13.52a5.2,5.2,0,0,1-1.8.24c-1.68,0-2.85-.72-2.85-3s1.25-3.26,2.68-3.26,2.16.95,2.16,3V31Zm1.94-2.73c-1,0-1.8.74-1.94,2.22h3.56C392.72,29.15,392.14,28.27,391.09,28.27Z"/><path class="b" d="M400.33,28.83a2.92,2.92,0,0,0-1.47-.47,2.27,2.27,0,0,0-1.69,1v4h2.21v.56h-4.47v-.56h1.65v-4.9h-1.65v-.55h2.25v.75a2.13,2.13,0,0,1,1.72-.86,3,3,0,0,1,1.71.51Z"/><path class="b" d="M406.16,33.95V30.22c0-1,0-1.86-.74-1.86-.47,0-.85.55-1,.83a7.22,7.22,0,0,1,0,.86v3.91h-.59V30c0-.8,0-1.66-.65-1.66-.42,0-.9.72-1.07,1v4.63h-.6v-6h.6v.69a1.4,1.4,0,0,1,1.13-.82,1,1,0,0,1,1,.79,1.28,1.28,0,0,1,1.18-.79c1.29,0,1.3,1.2,1.3,2.23v3.91Z"/><path class="b" d="M408.47,33.95v-.56h2.29V28.48h-2.07v-.54h2.68v5.45h2.29v.56Zm2.6-7.27-.58-.6.58-.59.6.59Z"/><path class="b" d="M419.06,33.95V30.22c0-1.1-.13-1.86-1.36-1.86a4.33,4.33,0,0,0-2,.84v4.75h-.62v-6h.61v.7a3.42,3.42,0,0,1,2.13-.84c1.74,0,1.84,1.29,1.84,2.23v3.91Z"/><path class="b" d="M426.36,34a1,1,0,0,1-1.08-.79,3.25,3.25,0,0,1-2.19.81,1.49,1.49,0,0,1-1.61-1.67c0-1.45,1.31-1.78,2.23-1.8l1.53,0v-.91c0-1.07-.51-1.27-1.66-1.27a5.39,5.39,0,0,0-1.41.27l-.13-.51a5,5,0,0,1,1.78-.32c1.2,0,2,.41,2,1.54v3.52a.59.59,0,0,0,.57.66Zm-1.11-3-1.58.07c-1,0-1.58.55-1.58,1.2,0,.92.45,1.2,1.2,1.2a4,4,0,0,0,2-.78Z"/><path class="b" d="M427.94,33.95v-.56h2.31V26.17h-2.09v-.52h2.68v7.73h2.29v.56Z"/><line class="f" x1="186" y1="48" x2="314.2" y2="48"/><path class="e" d="M303.94,55.2a.75.75,0,0,1,.23-1L313.85,48l-9.68-6.16a.75.75,0,1,1,.81-1.27l10.67,6.8a.75.75,0,0,1,0,1.27L305,55.43a.75.75,0,0,1-1-.23Z"/><line class="g" x1="187.8" y1="77" x2="314.2" y2="77"/><path class="e" d="M198.06,84.2a.75.75,0,0,0-.23-1L188.15,77l9.68-6.16a.75.75,0,1,0-.81-1.27l-10.67,6.8a.75.75,0,0,0,0,1.27L197,84.43a.75.75,0,0,0,1-.23Z"/><path class="e" d="M303.94,84.2a.75.75,0,0,1,.23-1L313.85,77l-9.68-6.16a.75.75,0,1,1,.81-1.27l10.67,6.8a.75.75,0,0,1,0,1.27L305,84.43a.75.75,0,0,1-1-.23Z"/><line class="f" x1="187.8" y1="106" x2="316" y2="106"/><path class="e" d="M198.06,113.2a.75.75,0,0,0-.23-1L188.15,106l9.68-6.16a.75.75,0,1,0-.81-1.27l-10.67,6.8a.75.75,0,0,0,0,1.27l10.67,6.8a.75.75,0,0,0,1-.23Z"/><path class="b" d="M221.67,70.59l-2.94-6.69-.26-.67h0l0,.74v6.62h-.65V62.81h1.07l2.92,6.55.4.91h0l0-1V62.81h.67v7.78Z"/><path class="b" d="M225.16,67.64c0,2.18,1.14,2.49,2.48,2.49a6.85,6.85,0,0,0,1.42-.2l.13.52a5.2,5.2,0,0,1-1.8.24c-1.68,0-2.85-.72-2.85-3s1.25-3.26,2.68-3.26,2.16.95,2.16,3v.22Zm1.94-2.73c-1,0-1.8.74-1.94,2.22h3.56C228.72,65.79,228.14,64.91,227.09,64.91Z"/><path class="b" d="M234.18,70.68c-1.1,0-1.95-.21-1.95-1.61V65.13H230.8v-.55h1.43V63.35h.58v1.23h3.43v.55h-3.42v3.77c0,.94.33,1.21,1.34,1.21a5.46,5.46,0,0,0,2-.41l.17.49A5.76,5.76,0,0,1,234.18,70.68Z"/><path class="b" d="M242.13,70.59h-.91l-1-5.54h0l-1.27,5.54H238l-.85-6h.64l.66,5.61h0l1.28-5.61h.9l1.07,5.61h0l.86-5.61h.6Z"/><path class="b" d="M246.74,70.68c-1.58,0-2.6-1-2.6-3s1.13-3.2,2.65-3.2c1.69,0,2.56,1.11,2.56,3.14S248.24,70.68,246.74,70.68Zm2-3.09c0-1.14-.36-2.62-2-2.62s-2,1.45-2,2.63.47,2.56,2,2.56,1.95-1.33,1.95-2.57Z"/><path class="b" d="M256.13,65.47a2.92,2.92,0,0,0-1.47-.47A2.27,2.27,0,0,0,253,66v4h2.21v.56h-4.47V70h1.65v-4.9h-1.65v-.55H253v.75a2.13,2.13,0,0,1,1.72-.86,3,3,0,0,1,1.71.51Z"/><path class="b" d="M257.89,70.59v-8.3h.6v8.3Zm3.89,0-2.85-3.18,2.85-2.83h.75l-2.87,2.82,2.88,3.19Z"/><path class="b" d="M264.27,70.59V70h2.29V65.12h-2.07v-.54h2.68V70h2.29v.56Zm2.6-7.27-.58-.6.58-.59.6.59Z"/><path class="b" d="M274.85,70.59V66.86c0-1.1-.13-1.86-1.36-1.86a4.33,4.33,0,0,0-2,.84v4.75h-.62v-6h.6v.7a3.42,3.42,0,0,1,2.13-.84c1.74,0,1.84,1.29,1.84,2.23v3.91Z"/><path class="b" d="M279.64,73.12a9.46,9.46,0,0,1-1.82-.19l.12-.57a9.58,9.58,0,0,0,1.51.2c1.06,0,2-.21,2-1.69V70.1a2.32,2.32,0,0,1-1.58.57c-1.21,0-2.55-.41-2.55-3.07,0-2.18,1.23-3.16,2.73-3.16a11.22,11.22,0,0,1,2,.22v6.38C282.06,72.44,281.09,73.12,279.64,73.12Zm1.82-8a7.33,7.33,0,0,0-1.4-.14c-1.56,0-2.12,1.21-2.12,2.66,0,1.77.66,2.5,2,2.5a2.42,2.42,0,0,0,1.53-.65Z"/><line class="h" x1="426.5" y1="84.5" x2="471.83" y2="131.05"/><path class="b" d="M575,130.61V237H375.12V130H574.42ZM564,231.69l-1.88-2.83-3.16,1.52c-1.55,2.88,2.09,2.22,2.63,3.73-.3.26-.82.78-.88.73-.75-.59-1.44-1.27-2.45-2.21v-2.56l2.18-1.64-3.85-1v8.25h8.21Zm-184.8,2.41c.52-1.52,4.2-.84,2.62-3.73l-3.16-1.52-1.88,2.84-.67,3.92h8v-8.33l-3.81,1.14,2.21,1.65v2.52c-1,1-1.72,1.64-2.47,2.23C380,234.88,379.49,234.36,379.19,234.1Zm192.35-10.55c-1.49-.56-.88-4.07-3.51-2.75l-1.78,2.76c-1.25.37-1.25.37-.93,3.4h7.75v-7.8h-7.74v3.21l.66.24,1.41-2.41H570c1,1,1.63,1.71,2.23,2.47C572.31,222.73,571.79,223.24,571.54,223.55Zm-5.32-66.75,1.81,2.77c2.63,1.32,2-2.22,3.54-2.77.24.32.75.85.69.93-.59.76-1.27,1.44-2.19,2.42h-2.6l-1.61-2.32-.57.39v3H573v-7.81h-7.86c0,1.17,0,2.21,0,3.25A4.81,4.81,0,0,0,566.22,156.8Zm-189.79-3.39v73.46h188V153.41Zm-.08-2.07H573v-9.53H376.35Zm8.73,84.29H555.59v-7.8H385.07Zm188-104.23H376.45v9.54H573.12Zm0,86.86V162.19h-7.78v56.06ZM377,152.2l-.12.29H572.46v-.29Zm196,83.48v-7.78h-7.79v7.78Z"/><path class="b" d="M502,136.51h69.9v.29h-70Z"/><path class="b" d="M571.89,138h-70v-.29H572Z"/><path class="b" d="M502,138.84h69.9v.29h-70Z"/><path class="b" d="M571.88,133.44H502v-.29h70Z"/><path class="b" d="M502,134.18h69.9v.29h-70Z"/><path class="b" d="M501.84,135.42h70.05v.22H501.84Z"/><path class="b" d="M388.63,133h58.86v.29h-59Z"/><path class="b" d="M388.51,134.26h59v.21h-59Z"/><path class="b" d="M388.64,137.67H447.5V138h-59Z"/><path class="b" d="M447.63,136.85h-59v-.22h59Z"/><path class="b" d="M388.64,138.84H447.5v.29h-59Z"/><path class="b" d="M447.49,135.76H388.63v-.29h59Z"/><path class="b" d="M381.09,133h6v6.14h-6Zm.46,5.49h5v-4.85h-5Z"/><path class="b" d="M572.56,230.17v4.91h-4.93l-1.7-5.68.65-.81Zm-.46,4.33a13.7,13.7,0,0,0,0-2.28,7.52,7.52,0,0,0-.7-1.6c-.34.44-.66.9-1,1.31a10.24,10.24,0,0,1-1.11,1c-.45.36-.92.7-1.37,1.05l.3.55Zm-2.42-5H567v2.61h2.66Z"/><line class="h" x1="338" y1="47" x2="375" y2="130"/><line class="h" x1="338.5" y1="84.5" x2="375.5" y2="235.5"/><line class="h" x1="426.5" y1="47.5" x2="574.5" y2="130.5"/><path class="b" d="M393.37,196.73c-1.44,0-2.56-.53-2.56-2.72v-5.2h.67v5.13c0,1.84.8,2.21,1.89,2.21s1.9-.5,1.9-2.48v-4.86h.62v4.91C395.89,196.15,394.67,196.73,393.37,196.73Z"/><path class="b" d="M397.34,196.59V196h2.29v-6.68h-2.29v-.54h5.19v.54h-2.27V196h2.27v.56Z"/><g class="i"><path class="b" d="M-5.06,64c0-.52,0-.94,0-1.35q0-9.65,0-19.29c0-3,1.42-4.39,4.41-4.39H58c3.12,0,4.49,1.38,4.49,4.52q0,6.48,0,13c0,.39,0,.77,0,1.11.15.08.21.14.28.14,3,.24,3.47.73,3.47,3.73q0,5.89,0,11.79c0,2.41-.76,3.18-3.18,3.26l-.57.06c0,.47,0,.92,0,1.37q0,13.29,0,26.58c0,3.12-1.4,4.52-4.5,4.52H46.22c0,.48,0,.89,0,1.29A3.73,3.73,0,0,1,42.4,114c-2.36,0-4.72,0-7.07,0a3.74,3.74,0,0,1-4.11-4c0-.28,0-.56-.07-.89H28.82c-.51,3.48-.73,3.66-4.3,3.67H14.44c-2.42,0-3.16-.73-3.26-3.18,0-.14,0-.27-.07-.55h-12c-2.68,0-4.18-1.51-4.18-4.19q0-9.7,0-19.4V84c-.49,0-.9,0-1.32,0a2.41,2.41,0,0,1-2.41-2.38q-.05-7.61,0-15.22A2.38,2.38,0,0,1-6.37,64C-6,64-5.6,64-5.06,64ZM7.48,82.77H9.7c.82,0,1.43.32,1.46,1.2s-.59,1.31-1.46,1.31H7.52v2.49c.7,0,1.34,0,2,0,.87,0,1.6.18,1.67,1.22.06.84-.55,1.27-1.71,1.28H2.06C.18,90.27,0,90,0,88.19c0-1.38,0-2.75,0-4.12H-2.5a5.5,5.5,0,0,0-.06.56q0,10.18,0,20.36c0,1.1.46,1.53,1.6,1.53q5.68,0,11.36,0a7,7,0,0,0,.78-.09c0-2.8,0-5.54,0-8.29A2.54,2.54,0,0,1,14,95.29q5.95,0,11.89,0a2.49,2.49,0,0,1,2.78,2.78c0,2.43,0,4.86,0,7.29,0,.38,0,.75,0,1.12h2.52c0-.43,0-.82,0-1.2q0-7.93,0-15.86c0-2,.89-2.87,2.88-2.88h9c2.24,0,3.11.87,3.11,3.11q0,7.82,0,15.65c0,.38,0,.76.05,1.23H58c1.61,0,2-.33,2-1.93q0-13.5,0-27c0-.34,0-.68,0-1.07H49.19c-2,0-3-.9-3-2.92q0-6.43,0-12.86c0-2.1.88-3,3-3h9.54c.37,0,.75,0,1.19-.08,0-.47,0-.82,0-1.17q0-6.48,0-13c0-1.71-.29-2-2-2H-.62c-1.63,0-1.95.31-1.95,1.93q0,9.7,0,19.4c0,.37,0,.75.05,1.12H0c0-1.59,0-3.11,0-4.64,0-1.11.39-1.54,1.45-1.55,2.79,0,5.57,0,8.36,0,.83,0,1.41.36,1.4,1.26s-.59,1.24-1.43,1.23H7.54v2.52c.76,0,1.43,0,2.11,0,.88,0,1.51.31,1.5,1.26s-.68,1.24-1.53,1.24H7.55v2.49H9.68c.87,0,1.5.34,1.48,1.29s-.62,1.22-1.44,1.23H7.52v2.49c.8,0,1.54,0,2.28,0s1.4.41,1.36,1.3-.57,1.18-1.36,1.19H7.52v2.52H9.7c.83,0,1.43.31,1.46,1.2s-.6,1.29-1.47,1.3H7.48Zm56.16-8.82V60.35H48.76v13.6ZM26.12,110.23V97.84H13.76v12.39Zm17.51-8.74V89.11H33.79v12.36h3.62c0-.35.05-.63.06-.9,0-1.32,0-2.64,0-4a1.24,1.24,0,1,1,2.47-.07c0,.53,0,1.07,0,1.61,0,1.12,0,2.24,0,3.35Zm-49.87-20H-.14V66.58H-6.24Zm40,22.65c0,2.16-.06,4.23.05,6.29a1.64,1.64,0,0,0,1.16,1.09c2.53.1,5.07.09,7.6,0a1.55,1.55,0,0,0,1.1-1c.11-2.09.05-4.19.05-6.34ZM2.53,60.29V87.72H4.85V60.29Z"/><path class="e" d="M28.67,84c-2.39,0-4.79,0-7.18,0a2.52,2.52,0,0,1-2.8-2.78c0-2.71.11-5.41.12-8.12,0-2-.11-4.1-.12-6.14s.93-2.94,3-2.94H35.79c2,0,2.94.93,2.93,2.86,0,2.73-.12,5.45-.13,8.18,0,2,.06,4.09.12,6.13A2.52,2.52,0,0,1,36.07,84C33.6,84,31.14,84,28.67,84Zm7.51-2.51V66.61h-15V81.52Z"/><path class="b" d="M3.75,104A3.71,3.71,0,0,1,0,100.33a3.76,3.76,0,0,1,3.69-3.81,3.79,3.79,0,0,1,3.8,3.71A3.73,3.73,0,0,1,3.75,104Zm1.35-3.43,0-.5c-.45-.35-.86-.88-1.36-1-.71-.16-1.22.35-1.27,1.1s.42,1.38,1.19,1.29C4.17,101.42,4.62,100.89,5.1,100.58Z"/><path class="b" d="M3.64,51.5A3.71,3.71,0,0,1,0,47.7,3.76,3.76,0,0,1,3.75,44a3.78,3.78,0,0,1,3.7,3.82A3.73,3.73,0,0,1,3.64,51.5ZM5.12,48l0-.5c-.47-.31-.92-.81-1.43-.89-.72-.11-1.16.44-1.19,1.19S3.12,49.17,3.76,49A5.11,5.11,0,0,0,5.12,48Z"/><path class="b" d="M57.45,100.33a3.75,3.75,0,0,1-7.5-.1,3.75,3.75,0,1,1,7.5.1Zm-2.33.18V100c-.46-.33-.9-.84-1.4-.93-.71-.12-1.2.41-1.22,1.16s.49,1.35,1.25,1.23C54.24,101.4,54.66,100.85,55.12,100.51Z"/><path class="b" d="M57.45,47.75a3.75,3.75,0,0,1-7.5,0,3.75,3.75,0,1,1,7.5,0Zm-2.32.2,0-.49c-.48-.31-.92-.82-1.43-.89-.71-.1-1.19.43-1.19,1.19S53,49.1,53.78,49C54.27,48.87,54.68,48.3,55.13,48Z"/><path class="b" d="M21.48,43.85c.32.47.85.91.92,1.42.11.7-.4,1.19-1.17,1.23S19.8,45.87,20,45.22a5.15,5.15,0,0,1,1-1.38Z"/><path class="b" d="M36,46.69c-.34-.46-.87-.88-1-1.39-.14-.71.39-1.19,1.14-1.26s1.45.57,1.28,1.23a5.19,5.19,0,0,1-.95,1.42Z"/><path class="b" d="M17.61,45.56c-.48.32-.93.84-1.43.9-.78.09-1.25-.49-1.19-1.29a1.06,1.06,0,0,1,1.28-1.1c.5.11.91.65,1.37,1Z"/><path class="b" d="M27.61,45.57c-.48.31-.92.82-1.43.89-.72.1-1.17-.44-1.2-1.2s.64-1.42,1.29-1.21a5.15,5.15,0,0,1,1.36,1Z"/><path class="b" d="M12.62,45.46c-.45.35-.86.88-1.36,1-.71.16-1.2-.35-1.29-1.1s.53-1.47,1.19-1.31A5.11,5.11,0,0,1,12.6,45Z"/><path class="b" d="M31,46.69c-.33-.46-.85-.89-.94-1.4-.14-.79.44-1.26,1.23-1.25s1.28.51,1.14,1.23c-.09.51-.6.94-.92,1.41Z"/><path class="b" d="M41.49,43.85c.32.47.84.91.91,1.42.11.77-.45,1.26-1.26,1.22A1.05,1.05,0,0,1,40,45.22c.1-.5.62-.93,1-1.39Z"/><path class="b" d="M47.63,45.47c-.45.34-.87.87-1.37,1-.72.16-1.22-.36-1.27-1.11a1.09,1.09,0,0,1,1.21-1.29c.5.06.95.59,1.42.91Z"/><path class="b" d="M12.61,50.52c-.46.32-.9.84-1.4.93C10.43,51.57,10,51,10,50.21s.52-1.27,1.24-1.13c.51.1.94.61,1.4.93Z"/><path class="b" d="M16.45,48.86c.33.46.86.88.94,1.37.13.77-.42,1.27-1.23,1.25S14.88,51,15,50.26c.09-.5.6-.93.92-1.39Z"/><path class="b" d="M26.49,48.86c.32.47.82.91.9,1.42.11.72-.43,1.2-1.18,1.2S24.87,51,25,50.21c.1-.5.63-.92,1-1.37Z"/><path class="b" d="M30.92,51.67c-.32-.47-.82-.91-.91-1.42A1,1,0,0,1,31.18,49c.81,0,1.35.49,1.21,1.27-.09.5-.62.92-1,1.37Z"/><path class="b" d="M42.62,50.52c-.46.32-.89.83-1.4.93-.72.14-1.22-.39-1.24-1.13s.45-1.37,1.24-1.24c.5.08.94.61,1.4.93Z"/><path class="b" d="M46.48,48.85c.32.46.84.9.92,1.4a1.05,1.05,0,0,1-1.15,1.22c-.8,0-1.36-.47-1.23-1.25.08-.5.62-.92.95-1.38Z"/><path class="b" d="M21,51.68c-.35-.45-.9-.85-1-1.35-.15-.7.32-1.22,1.09-1.27s1.39.41,1.31,1.17c-.05.5-.58,1-.89,1.43Z"/><path class="b" d="M36,51.68c-.35-.45-.9-.85-1-1.35a1,1,0,0,1,1.09-1.27c.81-.05,1.39.4,1.31,1.17-.05.5-.58,1-.89,1.43Z"/><path class="b" d="M55,69h2.24c.83,0,1.4.39,1.4,1.25s-.59,1.25-1.41,1.25c-1.56,0-3.13,0-4.69,0-.82,0-1.39-.44-1.35-1.31A1.2,1.2,0,0,1,52.6,69Z"/><path class="b" d="M55,62.78h2.34A1.18,1.18,0,0,1,58.69,64a1.16,1.16,0,0,1-1.28,1.26q-2.45,0-4.9,0A1.16,1.16,0,0,1,51.23,64a1.18,1.18,0,0,1,1.33-1.21Z"/><path class="b" d="M21.22,104a3.38,3.38,0,0,1,0-1.37c.22-.44.73-1,1.09-1a1.64,1.64,0,0,1,1.26.93,8.22,8.22,0,0,1,0,3,1.5,1.5,0,0,1-1.16.93,2,2,0,0,1-1.2-1.06c-.19-.36,0-.9,0-1.36Z"/><path class="b" d="M18.68,104c0,.43,0,.85,0,1.28a1.17,1.17,0,0,1-1.27,1.26,1.14,1.14,0,0,1-1.18-1.24q0-1.22,0-2.45a1.23,1.23,0,1,1,2.45,0C18.7,103.19,18.68,103.58,18.68,104Z"/></g><path class="b" d="M32.47,27.08A3,3,0,0,0,31,26.68c-1.68,0-2.26.89-2.26,3.32s.43,3.48,2.35,3.48a4.34,4.34,0,0,0,1.46-.24l.2.5a3.85,3.85,0,0,1-1.85.33c-2.5,0-2.85-1.69-2.85-3.95s.53-4,2.9-4a3,3,0,0,1,1.83.54Z"/><path class="b" d="M38.67,33.95V30.22c0-1.1-.13-1.86-1.36-1.86a4.68,4.68,0,0,0-2,.84v4.75h-.62v-8.3h.61v3a3.44,3.44,0,0,1,2.13-.84c1.74,0,1.81,1.29,1.81,2.23v3.91Z"/><path class="b" d="M41.27,33.95v-.56h2.29V28.48H41.49v-.54h2.68v5.45h2.29v.56Zm2.6-7.27-.58-.6.58-.59.6.59Z"/><path class="b" d="M47.54,33.95v-.56h2.31V26.17H47.76v-.52h2.68v7.73h2.29v.56Z"/><path class="b" d="M58.47,33.95v-.62a2.68,2.68,0,0,1-1.68.7c-1,0-2.46-.36-2.46-3,0-2.11,1.25-3.19,2.74-3.19a4.25,4.25,0,0,1,1.41.18V25.65h.6v8.3Zm0-5.4A4.14,4.14,0,0,0,57,28.33c-1.54,0-2.1,1.39-2.1,2.71,0,1.71.73,2.48,1.83,2.48a3.2,3.2,0,0,0,1.69-.77Z"/><line class="f" x1="69" y1="77" x2="70.5" y2="77"/><line class="j" x1="73.5" y1="77" x2="96" y2="77"/><line class="f" x1="97.5" y1="77" x2="99" y2="77"/></svg>