<?xml version="1.0" encoding="utf-8"?>
<!-- Generator: Adobe Illustrator 21.1.0, SVG Export Plug-In . SVG Version: 6.00 Build 0)  -->
<svg version="1.1" id="Layer_1" xmlns="http://www.w3.org/2000/svg" xmlns:xlink="http://www.w3.org/1999/xlink" x="0px" y="0px"
	 width="576px" height="219px" viewBox="0 0 576 219" style="enable-background:new 0 0 576 219;" xml:space="preserve">
<style type="text/css">
	.st0{clip-path:url(#SVGID_2_);fill:#40D375;}
	.st1{clip-path:url(#SVGID_2_);fill:#187CD6;}
	.st2{clip-path:url(#SVGID_2_);fill:#FF0000;}
	.st3{fill:#F5F5F5;}
	.st4{fill:none;stroke:#F5F5F5;stroke-width:0.4;stroke-miterlimit:10;}
	.st5{fill:none;stroke:#FF0000;stroke-miterlimit:10;}
	.st6{fill:none;stroke:#187CD6;stroke-miterlimit:10;}
	.st7{fill:none;stroke:#40D375;stroke-miterlimit:10;}
	.st8{clip-path:url(#SVGID_4_);fill:#40D375;}
	.st9{clip-path:url(#SVGID_4_);fill:#187CD6;}
	.st10{clip-path:url(#SVGID_4_);fill:#FF0000;}
	.st11{clip-path:url(#SVGID_4_);fill:#9102D3;}
	.st12{clip-path:url(#SVGID_4_);}
	.st13{fill:#187CD6;}
	.st14{fill:none;stroke:#FFFFFF;stroke-width:0.5;stroke-miterlimit:10;}
	.st15{fill:none;stroke:#000000;stroke-width:0.5;stroke-miterlimit:10;}
	.st16{clip-path:url(#SVGID_6_);fill:#187CD6;}
	.st17{fill:#FFFFFF;}
	.st18{clip-path:url(#SVGID_8_);fill:#40D375;}
</style>
<g>
	<g>
		<defs>
			<path id="SVGID_1_" d="M260.5,133.6H62.2c-1.9,0-3.4-1.5-3.4-3.4v-15.9c0-1.9,1.5-3.4,3.4-3.4h198.3c1.9,0,3.4,1.5,3.4,3.4v15.9
				C263.9,132,262.4,133.6,260.5,133.6z"/>
		</defs>
		<clipPath id="SVGID_2_">
			<use xlink:href="#SVGID_1_"  style="overflow:visible;"/>
		</clipPath>
		<rect x="190.5" y="107.9" class="st0" width="45.9" height="28.5"/>
		<rect x="151.6" y="107.9" class="st1" width="38.9" height="28.5"/>
		<rect x="55.6" y="107.9" class="st2" width="96.1" height="28.5"/>
		<rect x="236.1" y="107.9" class="st2" width="15.4" height="28.5"/>
		<rect x="253.8" y="107.9" class="st2" width="3.9" height="28.5"/>
		<rect x="260" y="107.9" class="st2" width="3.9" height="28.5"/>
	</g>
	<g>
		<path class="st3" d="M261.7,108.9c2.4,0,4.4,2,4.4,4.4V131c0,2.4-2,4.4-4.4,4.4H61c-2.4,0-4.4-2-4.4-4.4v-17.7
			c0-2.4,2-4.4,4.4-4.4H261.7 M261.7,107.9H61c-3,0-5.4,2.4-5.4,5.4V131c0,3,2.4,5.4,5.4,5.4h200.7c3,0,5.4-2.4,5.4-5.4v-17.7
			C267.1,110.3,264.6,107.9,261.7,107.9L261.7,107.9z"/>
	</g>
	<g>
		<path class="st3" d="M65,151.5c-1.5,0-2.7-0.3-2.7-2.2V144h-1.9v-0.8h1.9v-1.7h0.8v1.7h4.7v0.8h-4.7v5.1c0,1.3,0.5,1.7,1.8,1.7
			c1,0,1.8-0.2,2.7-0.6l0.2,0.7C67.2,151.2,66.1,151.5,65,151.5z"/>
		<path class="st3" d="M70.1,151.4v-0.8h3.1V144h-2.8v-0.7H74v7.4h3.1v0.8H70.1z M73.6,141.5l-0.8-0.8l0.8-0.8l0.8,0.8L73.6,141.5z"
			/>
		<path class="st3" d="M84.9,151.4v-5.1c0-1.3,0-2.5-1-2.5c-0.6,0-1.2,0.8-1.4,1.1c0,0.3,0,0.8,0,1.2v5.3h-0.8V146
			c0-1.1,0.1-2.3-0.9-2.3c-0.6,0-1.2,1-1.5,1.3v6.3h-0.8v-8.2h0.8v0.9c0.3-0.5,0.8-1.1,1.5-1.1c0.9,0,1.3,0.5,1.4,1.1
			c0.3-0.6,0.8-1.1,1.6-1.1c1.8,0,1.8,1.6,1.8,3v5.3H84.9z"/>
		<path class="st3" d="M88.7,147.4c0.1,3,1.6,3.4,3.4,3.4c0.6,0,1.7-0.2,1.9-0.3l0.2,0.7c-0.3,0.1-1,0.3-2.5,0.3
			c-2.3,0-3.9-1-3.9-4.1c0-3.3,1.7-4.4,3.7-4.4c1.9,0,2.9,1.3,2.9,4.1v0.3H88.7z M91.4,143.7c-1.3,0-2.5,1-2.6,3h4.9
			C93.6,144.9,92.8,143.7,91.4,143.7z"/>
	</g>
	<g>
		<path class="st3" d="M20,127c-2.8,0-4-1.2-4-4.2c0-2.7,1.4-4.3,3.7-4.3c1.3,0,2,0.3,2.7,0.7l-0.3,0.6c-0.7-0.4-1.4-0.6-2.4-0.6
			c-1.7,0-2.8,1.3-2.8,3.5c0,2.4,0.8,3.5,3.3,3.5c1,0,1.8-0.2,2.1-0.3l0.2,0.7C22.1,126.7,21.4,127,20,127z"/>
		<path class="st3" d="M27.6,127c-0.8,0-1.4,0-1.8-0.1v3.3H25v-11.5h0.8v0.7c0.6-0.4,1.4-0.8,2.4-0.8c2.1,0,3.3,1.4,3.3,4
			C31.4,125.9,29.6,127,27.6,127z M30.5,122.9c0-1.8-0.4-3.6-2.5-3.6c-0.9,0-2,0.7-2.2,0.9v5.9c0.4,0.1,0.8,0.1,1.9,0.1
			C29.6,126.2,30.5,124.8,30.5,122.9L30.5,122.9z"/>
		<path class="st3" d="M39.5,126.8v-1c-0.7,0.4-1.6,1.2-3,1.2c-2.2,0-2.4-1.8-2.4-3.1v-5.3h0.8v5c0,1.3,0,2.5,1.7,2.5
			c1.1,0,2.5-0.9,2.8-1.2v-6.4h0.8v8.2H39.5z"/>
		<path class="st3" d="M46.1,127c-2.7,0-3.6-2.3-3.6-5.3c0-3,0.9-5.6,3.8-5.6c2.8,0,3.5,2.6,3.5,5.2C49.8,124.8,48.8,127,46.1,127z
			 M48.9,121.5c0-2-0.4-4.6-2.7-4.6c-2.4,0-2.9,2.7-2.9,4.8c0,2.3,0.6,4.6,2.7,4.6C48.5,126.2,48.9,123.8,48.9,121.5L48.9,121.5z
			 M46.2,122.4l-0.8-0.8l0.8-0.8l0.8,0.8L46.2,122.4z"/>
	</g>
	<g>
		<g>
			<line class="st4" x1="97.8" y1="147" x2="145.2" y2="147"/>
			<g>
				<polygon class="st3" points="143.2,149.5 142.8,149 144.9,147 142.8,145 143.2,144.6 145.8,147 				"/>
			</g>
		</g>
	</g>
	<g>
		<path class="st3" d="M50.5,54.6l-0.9-0.5l2-5.8l0,0l-4.2,4.5l-0.9-0.5l2.5-6.1l0.6,0.3l-2.4,5.7l0,0l4.3-4.6l0.9,0.5l-2,5.9l0,0
			l3.9-4.8l0.6,0.3L50.5,54.6z"/>
		<path class="st3" d="M57.1,58.5c-0.4-0.2-0.9-0.7-0.6-1.3c-0.3,0-1.3,0.3-2.5-0.4c-0.9-0.5-1.2-1.4-0.6-2.5c0.8-1.4,2.2-1,3.1-0.5
			l1.5,0.8l0.5-0.9c0.6-1,0.2-1.5-0.9-2.1c-0.5-0.3-1.3-0.5-1.5-0.5l0.2-0.5c0.2,0,1,0.2,1.9,0.7c1.1,0.7,1.7,1.5,1.1,2.6l-1.9,3.3
			c-0.3,0.5,0,0.8,0.2,0.9L57.1,58.5z M57.6,55l-1.5-0.8c-1-0.5-1.8-0.3-2.1,0.3c-0.5,0.9-0.2,1.4,0.5,1.8c0.8,0.5,2.2,0.4,2.3,0.3
			L57.6,55z"/>
		<path class="st3" d="M58.9,59.4l0.3-0.5l2.2,1.2l2.7-4.6l-2-1.1l0.3-0.5l2.5,1.5l-3,5.1l2.2,1.2l-0.3,0.5L58.9,59.4z M65.3,54
			l-0.2-0.9l0.9-0.2l0.2,0.9L65.3,54z"/>
		<path class="st3" d="M67.8,64.7c-1-0.6-1.7-1.3-1-2.6l2.1-3.7l-1.4-0.8l0.3-0.5l1.4,0.8l0.7-1.2l0.6,0.3l-0.7,1.2l3.2,1.9
			l-0.3,0.5l-3.2-1.9l-2.1,3.6c-0.5,0.9-0.3,1.3,0.6,1.9c0.7,0.4,1.4,0.6,2.1,0.7l-0.1,0.6C69.5,65.4,68.6,65.1,67.8,64.7z"/>
		<path class="st3" d="M86.6,65.6c-0.1-0.1-0.6-0.6-1.1-0.8c-1-0.6-1.7-0.6-2.3,0.4l-0.3,0.6l2.5,1.4l-0.3,0.5l-2.5-1.4L80,70.9
			l2.5,1.4l-0.3,0.5l-4.7-2.7l0.3-0.5l1.7,1l2.7-4.6l-1.7-1l0.3-0.5l1.7,1l0.3-0.6c0.9-1.5,2.1-1.2,3.1-0.6c0.4,0.2,1,0.7,1.2,0.9
			L86.6,65.6z"/>
		<path class="st3" d="M85.9,75.2c-1.5-0.9-1.9-2.4-0.8-4.3c1.1-2,2.8-2.4,4.2-1.6c1.6,0.9,1.8,2.4,0.7,4.4
			C88.9,75.7,87.4,76,85.9,75.2z M89.5,73.3c0.6-1.1,1.1-2.7-0.4-3.5c-1.5-0.9-2.7,0.3-3.3,1.4c-0.7,1.2-1,2.7,0.5,3.5
			C87.7,75.5,88.8,74.5,89.5,73.3L89.5,73.3z"/>
		<path class="st3" d="M97.7,75.4c-0.2-0.4-0.5-0.9-1.1-1.3c-0.7-0.4-1.6-0.2-2.1,0l-2.2,3.8l2.1,1.2L94,79.7l-4.2-2.4l0.3-0.5
			l1.6,0.9l2.7-4.6l-1.6-0.9l0.3-0.5l2.1,1.2l-0.4,0.7c0.5-0.2,1.2-0.4,2.1,0.1c0.9,0.5,1.2,1.1,1.3,1.4L97.7,75.4z"/>
		<path class="st3" d="M104.3,85.8c-0.6-0.3-1-0.6-1.2-0.8l-1.3,2.3l-0.6-0.3l4.6-8l0.6,0.3l-0.3,0.5c0.6,0,1.3,0,2,0.4
			c1.4,0.8,1.7,2.3,0.7,4.1C107.3,86.6,105.6,86.5,104.3,85.8z M107.9,84.1c0.7-1.2,1.2-2.7-0.3-3.5c-0.6-0.4-1.7-0.3-1.9-0.3
			l-2.4,4.1c0.3,0.2,0.5,0.4,1.2,0.9C105.9,86,107.2,85.4,107.9,84.1L107.9,84.1z"/>
		<path class="st3" d="M110.9,89.6c-1.5-0.9-1.9-2.4-0.8-4.3c1.1-2,2.8-2.4,4.2-1.6c1.6,0.9,1.8,2.4,0.7,4.4
			C113.9,90.1,112.3,90.4,110.9,89.6z M114.5,87.7c0.6-1.1,1.1-2.7-0.4-3.5c-1.5-0.9-2.7,0.3-3.3,1.4c-0.7,1.2-1,2.7,0.5,3.5
			C112.7,89.9,113.8,88.9,114.5,87.7L114.5,87.7z"/>
		<path class="st3" d="M115.2,92l4.5-7.8l0.6,0.3l-4.5,7.8L115.2,92z M118.9,94.1l-1-4.6l4.2-1.1l0.7,0.4l-4.2,1.1l1,4.6L118.9,94.1
			z"/>
		<path class="st3" d="M123.3,92.9c-1.1,2.1-0.3,3,1,3.7c0.4,0.2,1.2,0.5,1.4,0.6l-0.2,0.6c-0.2,0-0.8-0.2-1.8-0.8
			c-1.6-0.9-2.3-2.2-1.1-4.4c1.3-2.3,3-2.4,4.3-1.6c1.3,0.8,1.5,2.1,0.4,4l-0.1,0.2L123.3,92.9z M126.6,91.4c-0.9-0.5-2.1-0.3-3,1
			l3.4,1.9C127.7,93.1,127.6,92,126.6,91.4z"/>
	</g>
	<polyline class="st5" points="134.2,105.3 134.2,99.9 130.7,97.9 	"/>
	<g>
		<path class="st3" d="M95.7,54.4l0.3-0.6c-0.5,0.1-1.4,0.1-2-0.3c-1-0.6-2.1-1.7-0.7-4.2c1.2-2,2.9-2.3,4.3-1.5
			c0.6,0.3,0.9,0.5,1.2,0.9l1.3-2.2l0.6,0.3l-4.5,7.8L95.7,54.4z M98.6,49.3c-0.2-0.3-0.6-0.6-1.2-1c-1.5-0.8-2.7,0.2-3.5,1.4
			c-0.9,1.6-0.7,2.7,0.4,3.3c0.6,0.4,1.7,0.3,2,0.2L98.6,49.3z"/>
		<path class="st3" d="M100.2,53.3c-1.1,2.1-0.3,3,1,3.7c0.4,0.2,1.2,0.5,1.4,0.6l-0.2,0.6c-0.2,0-0.8-0.2-1.8-0.8
			c-1.6-0.9-2.3-2.2-1.1-4.4c1.3-2.3,3-2.4,4.3-1.6c1.3,0.7,1.5,2.1,0.4,4l-0.1,0.2L100.2,53.3z M103.5,51.8c-0.9-0.5-2.1-0.3-3,1
			l3.4,1.9C104.6,53.5,104.5,52.4,103.5,51.8z"/>
		<path class="st3" d="M104,59.3l0.3-0.5l2.2,1.3l3.9-6.8l-2-1.1l0.3-0.5l2.5,1.5l-4.2,7.3l2.2,1.2l-0.3,0.5L104,59.3z"/>
		<path class="st3" d="M110.6,63l0.3-0.5l2.2,1.2l2.7-4.6l-2-1.1l0.3-0.5l2.5,1.5l-3,5.1l2.2,1.2l-0.3,0.5L110.6,63z M117,57.6
			l-0.2-0.9l0.9-0.2l0.2,0.9L117,57.6z"/>
		<path class="st3" d="M119.3,68.1l-0.9-0.5l1.1-6.9l0.6,0.4l-0.9,5.7l-0.1,0.9l0,0l0.7-0.5l4.6-3.5l0.6,0.3L119.3,68.1z"/>
		<path class="st3" d="M125.1,67.7c-1.1,2.1-0.3,3,1,3.7c0.4,0.2,1.2,0.5,1.4,0.6l-0.2,0.6c-0.2,0-0.8-0.2-1.8-0.8
			c-1.6-0.9-2.3-2.2-1.1-4.4c1.3-2.3,3-2.4,4.3-1.6c1.3,0.7,1.5,2.1,0.4,4l-0.1,0.2L125.1,67.7z M128.4,66.2c-0.9-0.5-2.1-0.3-3,1
			l3.4,1.9C129.5,67.9,129.4,66.8,128.4,66.2z"/>
		<path class="st3" d="M136.9,71.8c-0.2-0.4-0.5-0.9-1.1-1.2c-0.7-0.4-1.6-0.2-2.1,0l-2.2,3.8l2.1,1.2l-0.3,0.5l-4.2-2.4l0.3-0.5
			l1.6,0.9l2.7-4.6l-1.6-0.9l0.3-0.5l2.1,1.2l-0.4,0.7c0.5-0.2,1.2-0.4,2.1,0.1c0.9,0.5,1.2,1.1,1.3,1.4L136.9,71.8z"/>
		<path class="st3" d="M145.8,83.4l-0.9-0.5l2-5.8l0,0l-4.2,4.5l-0.9-0.5l2.5-6.1l0.6,0.3l-2.4,5.7l0,0l4.3-4.6l0.9,0.5l-2.1,5.9
			l0,0l3.9-4.8l0.6,0.3L145.8,83.4z"/>
		<path class="st3" d="M152.4,87.3c-0.4-0.2-0.9-0.7-0.6-1.3c-0.3,0-1.3,0.3-2.5-0.4c-0.9-0.5-1.2-1.4-0.6-2.5
			c0.8-1.4,2.2-1,3.1-0.5l1.5,0.8l0.5-0.9c0.6-1,0.2-1.5-0.9-2.1c-0.5-0.3-1.3-0.5-1.5-0.5l0.2-0.5c0.2,0,1,0.2,1.9,0.7
			c1.1,0.7,1.7,1.5,1.1,2.6l-1.9,3.3c-0.3,0.5,0,0.8,0.2,0.9L152.4,87.3z M153,83.8l-1.5-0.8c-1-0.5-1.8-0.3-2.1,0.3
			c-0.5,0.9-0.2,1.4,0.5,1.8c0.8,0.5,2.2,0.4,2.3,0.3L153,83.8z"/>
		<path class="st3" d="M156.9,89.9c-1-0.6-1.7-1.3-1-2.6l2.1-3.7l-1.4-0.8l0.3-0.5l1.4,0.8l0.7-1.2l0.6,0.3l-0.7,1.2l3.2,1.9
			l-0.3,0.5l-3.2-1.9l-2.1,3.6c-0.5,0.9-0.3,1.3,0.6,1.9c0.7,0.4,1.4,0.6,2.1,0.7l-0.1,0.6C158.6,90.6,157.7,90.3,156.9,89.9z"/>
		<path class="st3" d="M162.5,89.3c-1.1,2.1-0.3,3,1,3.7c0.4,0.2,1.2,0.5,1.4,0.6l-0.2,0.6c-0.2,0-0.8-0.2-1.8-0.8
			c-1.6-0.9-2.3-2.2-1.1-4.4c1.3-2.3,3-2.4,4.3-1.6c1.3,0.7,1.5,2.1,0.4,4l-0.1,0.2L162.5,89.3z M165.9,87.8c-0.9-0.5-2.1-0.3-3,1
			l3.4,1.9C166.9,89.5,166.8,88.4,165.9,87.8z"/>
		<path class="st3" d="M174.3,93.4c-0.2-0.4-0.5-0.9-1.1-1.2c-0.7-0.4-1.6-0.2-2.1,0l-2.2,3.8l2.1,1.2l-0.3,0.5l-4.2-2.4l0.3-0.5
			l1.6,0.9l2.7-4.6l-1.6-0.9l0.3-0.5l2.1,1.2l-0.4,0.7c0.5-0.2,1.2-0.4,2.1,0.1c0.9,0.5,1.2,1.1,1.3,1.4L174.3,93.4z"/>
	</g>
	<polyline class="st6" points="179.6,105.3 179.6,99.9 176.2,97.9 	"/>
	<g>
		<path class="st3" d="M154.9,60.6c-0.6-0.3-1-0.6-1.2-0.8l-1.3,2.3l-0.6-0.3l4.6-8l0.6,0.3l-0.3,0.5c0.6,0,1.3,0,2,0.4
			c1.4,0.8,1.7,2.3,0.7,4.1C157.9,61.4,156.3,61.3,154.9,60.6z M158.6,58.9c0.7-1.2,1.2-2.7-0.3-3.5c-0.6-0.4-1.7-0.3-1.9-0.3
			l-2.4,4.1c0.3,0.2,0.5,0.4,1.2,0.9C156.6,60.8,157.8,60.2,158.6,58.9L158.6,58.9z"/>
		<path class="st3" d="M159.1,62.9l0.3-0.5l2.2,1.3l3.9-6.8l-2-1.1l0.3-0.5l2.5,1.5l-4.2,7.3l2.2,1.2l-0.3,0.5L159.1,62.9z"/>
		<path class="st3" d="M167.8,68c-1.5-0.9-1.9-2.4-0.8-4.3c1.1-2,2.8-2.4,4.2-1.6c1.6,0.9,1.8,2.4,0.7,4.4
			C170.8,68.5,169.2,68.8,167.8,68z M171.3,66.1c0.6-1.1,1.1-2.7-0.4-3.5c-1.5-0.9-2.7,0.3-3.3,1.4c-0.7,1.2-1,2.7,0.5,3.5
			C169.6,68.4,170.7,67.3,171.3,66.1L171.3,66.1z"/>
		<path class="st3" d="M174.6,71.9c-1-0.6-1.7-1.3-1-2.6l2.1-3.7l-1.4-0.8l0.3-0.5l1.4,0.8l0.7-1.2l0.6,0.3l-0.7,1.2l3.2,1.9
			l-0.3,0.5l-3.2-1.9l-2.1,3.6c-0.5,0.9-0.3,1.3,0.6,1.9c0.7,0.4,1.4,0.6,2.1,0.7l-0.1,0.6C176.2,72.6,175.4,72.3,174.6,71.9z"/>
		<path class="st3" d="M192,75.4c-0.2-0.4-0.5-0.9-1.1-1.2c-0.7-0.4-1.6-0.2-2.1,0l-2.2,3.8l2.1,1.2l-0.3,0.5l-4.2-2.4l0.3-0.5
			l1.6,0.9l2.7-4.6l-1.6-0.9l0.3-0.5l2.1,1.2l-0.4,0.7c0.5-0.2,1.2-0.4,2.1,0.1c0.9,0.5,1.2,1.1,1.3,1.4L192,75.4z"/>
		<path class="st3" d="M192.7,78.5c-1.1,2.1-0.3,3,1,3.7c0.4,0.2,1.2,0.5,1.4,0.6l-0.2,0.6c-0.2,0-0.8-0.2-1.8-0.8
			c-1.6-0.9-2.3-2.2-1.1-4.4c1.3-2.3,3-2.4,4.3-1.6c1.3,0.7,1.5,2.1,0.4,4l-0.1,0.2L192.7,78.5z M196,77c-0.9-0.5-2.1-0.3-3,1
			l3.4,1.9C197.1,78.7,197,77.6,196,77z"/>
		<path class="st3" d="M198.7,85.8c-0.9-0.5-1.4-1-1.7-1.4l0.5-0.4c0.3,0.4,0.7,0.9,1.5,1.3c0.9,0.5,2,0.9,2.4,0.1
			c0.8-1.4-2.9-3-1.8-4.9c0.6-1,1.7-0.9,2.8-0.3c0.7,0.4,1.2,0.8,1.5,1.3l-0.4,0.4c-0.3-0.4-0.8-0.8-1.4-1.2
			c-0.7-0.4-1.5-0.5-1.9,0.1c-0.9,1.5,2.8,3.1,1.7,5C201.2,86.9,199.6,86.4,198.7,85.8z"/>
		<path class="st3" d="M206.8,90.4l0.4-0.7c-0.6,0-1.6,0.2-2.5-0.4c-1.5-0.9-0.9-2.2-0.4-3.1l2.1-3.6l0.6,0.3l-2,3.5
			c-0.5,0.9-1,1.8,0.2,2.4c0.8,0.4,2.1,0.3,2.4,0.3l2.6-4.4l0.5,0.3l-3.3,5.7L206.8,90.4z"/>
		<path class="st3" d="M209,91.7l0.3-0.5l2.2,1.3l3.9-6.8l-2-1.1l0.3-0.5l2.5,1.5l-4.2,7.3l2.2,1.2l-0.3,0.5L209,91.7z"/>
		<path class="st3" d="M218.3,97.1c-1-0.6-1.7-1.3-1-2.6l2.1-3.7l-1.4-0.8l0.3-0.5l1.4,0.8l0.7-1.2l0.5,0.3l-0.7,1.2l3.2,1.9
			l-0.3,0.5l-3.2-1.9l-2.1,3.6c-0.5,0.9-0.3,1.3,0.6,1.9c0.7,0.4,1.4,0.6,2.1,0.7l-0.1,0.6C219.9,97.8,219,97.5,218.3,97.1z"/>
	</g>
	<polyline class="st7" points="227.6,105.3 227.6,99.9 224.1,97.9 	"/>
</g>
<g>
	<g>
		<defs>
			<path id="SVGID_3_" d="M538.8,129.8H347.9c-3.9,0-7.2-3.2-7.2-7.2V38.3c0-3.9,3.2-7.2,7.2-7.2h190.9c3.9,0,7.2,3.2,7.2,7.2v84.3
				C545.9,126.6,542.7,129.8,538.8,129.8z"/>
		</defs>
		<clipPath id="SVGID_4_">
			<use xlink:href="#SVGID_3_"  style="overflow:visible;"/>
		</clipPath>
		<rect x="450.6" y="31.1" class="st8" width="36.1" height="22.7"/>
		<rect x="442.1" y="56.4" class="st9" width="3.9" height="22.7"/>
		<rect x="337.6" y="107.1" class="st10" width="19.1" height="22.7"/>
		<rect x="358.1" y="83" class="st11" width="41.8" height="22.7"/>
		<rect x="352.7" y="107.1" class="st10" width="3.9" height="22.7"/>
		<rect x="358.1" y="107.1" class="st10" width="3.9" height="22.7"/>
		<rect x="363.5" y="107.1" class="st10" width="3.9" height="22.7"/>
		<rect x="368.9" y="107.1" class="st10" width="3.9" height="22.7"/>
		<rect x="374.3" y="107.1" class="st10" width="3.9" height="22.7"/>
		<rect x="379.7" y="107.1" class="st10" width="3.9" height="22.7"/>
		<rect x="385.1" y="107.1" class="st10" width="3.9" height="22.7"/>
		<rect x="390.5" y="107.1" class="st10" width="3.9" height="22.7"/>
		<rect x="395.9" y="107.1" class="st10" width="3.9" height="22.7"/>
		<rect x="401.7" y="107.1" class="st10" width="39.4" height="22.7"/>
		<g class="st12">
			<rect x="441.4" y="56.4" class="st13" width="7.7" height="22.7"/>
			<rect x="450.5" y="56.4" class="st13" width="3.9" height="22.7"/>
			<rect x="455.9" y="56.4" class="st13" width="3.9" height="22.7"/>
			<rect x="461.3" y="56.4" class="st13" width="3.9" height="22.7"/>
			<rect x="466.7" y="56.4" class="st13" width="3.9" height="22.7"/>
			<rect x="472.1" y="56.4" class="st13" width="3.9" height="22.7"/>
			<rect x="477.5" y="56.4" class="st13" width="3.9" height="22.7"/>
			<rect x="482.9" y="56.4" class="st13" width="3.9" height="22.7"/>
			<rect x="488.2" y="56.4" class="st13" width="9.2" height="22.7"/>
		</g>
		<rect x="482.8" y="31.1" class="st8" width="3.9" height="22.7"/>
		<rect x="488.2" y="31.1" class="st8" width="3.9" height="22.7"/>
		<rect x="493.6" y="31.1" class="st8" width="3.9" height="22.7"/>
		<rect x="498.7" y="31.2" class="st8" width="48.4" height="22.7"/>
	</g>
	<g>
		<path class="st3" d="M538.7,28.5c5.2,0,9.4,4.2,9.4,9.4v84.8c0,5.2-4.2,9.4-9.4,9.4H348c-5.2,0-9.4-4.2-9.4-9.4V37.9
			c0-5.2,4.2-9.4,9.4-9.4H538.7 M538.7,27.5H348c-5.7,0-10.4,4.7-10.4,10.4v84.8c0,5.7,4.7,10.4,10.4,10.4h190.7
			c5.7,0,10.4-4.7,10.4-10.4V37.9C549.1,32.1,544.4,27.5,538.7,27.5L538.7,27.5z"/>
	</g>
	<g>
		<path class="st3" d="M302,85c-2.8,0-4-1.2-4-4.2c0-2.7,1.4-4.3,3.7-4.3c1.3,0,2,0.3,2.7,0.7l-0.3,0.6c-0.7-0.4-1.4-0.6-2.4-0.6
			c-1.7,0-2.8,1.3-2.8,3.5c0,2.4,0.8,3.5,3.3,3.5c1,0,1.8-0.2,2.1-0.3l0.2,0.7C304.1,84.8,303.4,85,302,85z"/>
		<path class="st3" d="M309.6,85c-0.8,0-1.4,0-1.8-0.1v3.3H307V76.7h0.8v0.7c0.6-0.4,1.4-0.8,2.4-0.8c2.1,0,3.3,1.4,3.3,4
			C313.4,84,311.6,85,309.6,85z M312.5,81c0-1.8-0.4-3.6-2.5-3.6c-0.9,0-2,0.7-2.2,0.9v5.9c0.4,0.1,0.8,0.1,1.9,0.1
			C311.6,84.3,312.5,82.9,312.5,81L312.5,81z"/>
		<path class="st3" d="M321.5,84.9v-1c-0.7,0.4-1.6,1.2-3,1.2c-2.2,0-2.4-1.8-2.4-3.1v-5.3h0.8v5c0,1.3,0,2.5,1.7,2.5
			c1.1,0,2.5-0.9,2.8-1.2v-6.4h0.8v8.2H321.5z"/>
		<path class="st3" d="M328.1,85c-2.7,0-3.6-2.3-3.6-5.3c0-3,0.9-5.6,3.8-5.6c2.8,0,3.5,2.6,3.5,5.2C331.8,82.9,330.8,85,328.1,85z
			 M330.9,79.5c0-2-0.4-4.6-2.7-4.6c-2.4,0-2.8,2.7-2.8,4.8c0,2.3,0.6,4.6,2.7,4.6C330.5,84.3,330.9,81.8,330.9,79.5L330.9,79.5z
			 M328.2,80.4l-0.8-0.8l0.8-0.8l0.8,0.8L328.2,80.4z"/>
	</g>
	<g>
		<path class="st3" d="M452.7,122.3h-1l-1.1-6h0l-1.4,6h-1l-0.9-6.5h0.7l0.7,6.1h0l1.4-6.1h1l1.2,6.1h0l0.9-6.1h0.7L452.7,122.3z"/>
		<path class="st3" d="M460.4,122.4c-0.5,0-1.1-0.2-1.2-0.9c-0.2,0.2-1,0.9-2.4,0.9c-1.1,0-1.8-0.6-1.8-1.8c0-1.6,1.4-1.9,2.4-2
			l1.7,0v-1c0-1.2-0.6-1.4-1.8-1.4c-0.6,0-1.3,0.2-1.5,0.3l-0.1-0.6c0.2-0.1,1-0.3,1.9-0.3c1.3,0,2.2,0.4,2.2,1.7v3.8
			c0,0.6,0.4,0.7,0.6,0.7L460.4,122.4z M459.2,119.1l-1.7,0.1c-1.1,0-1.7,0.6-1.7,1.3c0,1,0.5,1.3,1.3,1.3c0.9,0,2.1-0.8,2.1-0.9
			V119.1z"/>
		<path class="st3" d="M462.5,122.3v-0.6h2.5v-5.3h-2.3v-0.6h2.9v5.9h2.5v0.6H462.5z M465.3,114.4l-0.6-0.7l0.6-0.6l0.7,0.6
			L465.3,114.4z"/>
		<path class="st3" d="M472.8,122.4c-1.2,0-2.1-0.2-2.1-1.8v-4.3h-1.6v-0.6h1.6v-1.3h0.6v1.3h3.7v0.6h-3.7v4.1c0,1,0.4,1.3,1.5,1.3
			c0.8,0,1.5-0.2,2.2-0.4l0.2,0.5C474.6,122.1,473.7,122.4,472.8,122.4z"/>
		<path class="st3" d="M489.5,113.8c-0.2,0-0.8-0.2-1.3-0.2c-1.1,0-1.7,0.3-1.7,1.5v0.6h2.8v0.6h-2.8v5.3h2.8v0.6h-5.4v-0.6h1.9
			v-5.3h-1.9v-0.6h1.9v-0.6c0-1.7,1.2-2.1,2.4-2.1c0.5,0,1.2,0.1,1.5,0.2L489.5,113.8z"/>
		<path class="st3" d="M493.7,122.4c-1.7,0-2.8-1.1-2.8-3.3c0-2.3,1.2-3.5,2.9-3.5c1.8,0,2.8,1.2,2.8,3.4
			C496.6,121.3,495.4,122.4,493.7,122.4z M495.9,119c0-1.2-0.4-2.9-2.1-2.9c-1.7,0-2.2,1.6-2.2,2.9c0,1.4,0.5,2.8,2.2,2.8
			C495.5,121.8,495.9,120.4,495.9,119L495.9,119z"/>
		<path class="st3" d="M504,116.7c-0.4-0.2-0.9-0.5-1.6-0.5c-0.9,0-1.5,0.6-1.8,1.1v4.4h2.4v0.6h-4.9v-0.6h1.8v-5.3h-1.8v-0.6h2.5
			v0.8c0.3-0.4,0.9-0.9,1.9-0.9c1.1,0,1.6,0.4,1.9,0.6L504,116.7z"/>
		<path class="st3" d="M514.9,122.4c-0.6,0-1.1,0-1.5-0.1v2.6h-0.7v-9.2h0.7v0.6c0.5-0.3,1.2-0.6,1.9-0.6c1.7,0,2.6,1.1,2.6,3.2
			C517.9,121.6,516.5,122.4,514.9,122.4z M517.3,119.2c0-1.4-0.3-2.9-2-2.9c-0.7,0-1.6,0.5-1.8,0.7v4.8c0.3,0,0.6,0.1,1.5,0.1
			C516.5,121.8,517.2,120.7,517.3,119.2L517.3,119.2z"/>
		<path class="st3" d="M522.5,122.4c-1.7,0-2.8-1.1-2.8-3.3c0-2.3,1.2-3.5,2.9-3.5c1.8,0,2.8,1.2,2.8,3.4
			C525.4,121.3,524.2,122.4,522.5,122.4z M524.7,119c0-1.2-0.4-2.9-2.1-2.9c-1.7,0-2.2,1.6-2.2,2.9c0,1.4,0.5,2.8,2.2,2.8
			C524.3,121.8,524.7,120.4,524.7,119L524.7,119z"/>
		<path class="st3" d="M527.5,122.3v-9h0.7v9H527.5z M531.8,122.3l-3.1-3.5l3.1-3.1h0.8l-3.1,3.1l3.1,3.5H531.8z"/>
		<path class="st3" d="M535,119.1c0,2.4,1.2,2.7,2.7,2.7c0.5,0,1.3-0.1,1.5-0.2l0.1,0.6c-0.2,0.1-0.8,0.3-2,0.3
			c-1.8,0-3.1-0.8-3.1-3.3c0-2.6,1.4-3.5,2.9-3.5c1.5,0,2.4,1,2.4,3.2v0.2H535z M537.1,116.1c-1.1,0-2,0.8-2.1,2.4h3.9
			C538.9,117.1,538.3,116.1,537.1,116.1z"/>
	</g>
	<g>
		<path class="st3" d="M345.3,47c-0.6,0-1.1,0-1.5-0.1v2.6h-0.7v-9.2h0.7v0.6c0.5-0.3,1.2-0.6,1.9-0.6c1.7,0,2.6,1.1,2.6,3.2
			C348.3,46.2,346.8,47,345.3,47z M347.6,43.7c0-1.4-0.3-2.9-2-2.9c-0.7,0-1.6,0.5-1.8,0.7v4.8c0.3,0,0.6,0.1,1.5,0.1
			C346.8,46.4,347.6,45.3,347.6,43.7L347.6,43.7z"/>
		<path class="st3" d="M350,46.9v-0.6h2.5v-7.9h-2.3v-0.6h2.9v8.4h2.5v0.6H350z"/>
		<path class="st3" d="M360.1,47c-1.7,0-2.8-1.1-2.8-3.3c0-2.3,1.2-3.5,2.9-3.5c1.8,0,2.8,1.2,2.8,3.4C362.9,45.9,361.7,47,360.1,47
			z M362.3,43.6c0-1.2-0.4-2.9-2.1-2.9c-1.7,0-2.2,1.6-2.2,2.9c0,1.4,0.5,2.8,2.2,2.8C361.8,46.4,362.2,45,362.3,43.6L362.3,43.6z"
			/>
		<path class="st3" d="M368,47c-1.2,0-2.1-0.2-2.1-1.8v-4.3h-1.6v-0.6h1.6V39h0.6v1.3h3.7v0.6h-3.7V45c0,1,0.4,1.3,1.5,1.3
			c0.8,0,1.5-0.2,2.2-0.4l0.2,0.5C369.7,46.7,368.8,47,368,47z"/>
		<path class="st3" d="M384.7,41.3c-0.4-0.2-0.9-0.5-1.6-0.5c-0.9,0-1.5,0.6-1.8,1.1v4.4h2.4v0.6h-4.9v-0.6h1.8v-5.3h-1.8v-0.6h2.5
			v0.8c0.3-0.4,0.9-0.9,1.9-0.9c1.1,0,1.6,0.4,1.9,0.6L384.7,41.3z"/>
		<path class="st3" d="M386.9,43.7c0,2.4,1.2,2.7,2.7,2.7c0.5,0,1.3-0.1,1.5-0.2l0.1,0.6c-0.2,0.1-0.8,0.3-2,0.3
			c-1.8,0-3.1-0.8-3.1-3.3c0-2.6,1.4-3.5,2.9-3.5c1.5,0,2.4,1,2.4,3.2v0.2H386.9z M389,40.7c-1.1,0-2,0.8-2.1,2.4h3.9
			C390.8,41.7,390.2,40.7,389,40.7z"/>
		<path class="st3" d="M395.8,47c-1,0-1.7-0.2-2.2-0.4l0.2-0.6c0.5,0.2,1.1,0.4,1.9,0.4c1,0,2.1-0.2,2.1-1.1c0-1.6-4-1.1-4-3.4
			c0-1.2,1-1.7,2.2-1.7c0.8,0,1.4,0.1,2,0.3l-0.2,0.5c-0.5-0.2-1.1-0.3-1.8-0.3c-0.9,0-1.5,0.3-1.5,1.1c0,1.8,4,1.3,4,3.4
			C398.5,46.7,396.8,47,395.8,47z"/>
		<path class="st3" d="M405.1,46.9v-0.8c-0.5,0.3-1.3,0.9-2.4,0.9c-1.8,0-1.9-1.5-1.9-2.5v-4.2h0.7v4c0,1.1,0,2,1.4,2
			c0.9,0,2-0.7,2.3-0.9v-5.1h0.6v6.5H405.1z"/>
		<path class="st3" d="M407.6,46.9v-0.6h2.5v-7.9h-2.3v-0.6h2.9v8.4h2.5v0.6H407.6z"/>
		<path class="st3" d="M418.4,47c-1.2,0-2.1-0.2-2.1-1.8v-4.3h-1.6v-0.6h1.6V39h0.6v1.3h3.7v0.6h-3.7V45c0,1,0.4,1.3,1.5,1.3
			c0.8,0,1.5-0.2,2.2-0.4l0.2,0.5C420.1,46.7,419.2,47,418.4,47z"/>
	</g>
	<g>
		<path class="st3" d="M415.2,97.7c-2.2,0-3.2-1-3.2-3.4c0-2.1,1.2-3.4,2.9-3.4c1,0,1.6,0.3,2.2,0.6l-0.3,0.5
			c-0.5-0.3-1.1-0.5-2-0.5c-1.4,0-2.2,1.1-2.2,2.8c0,1.9,0.6,2.8,2.6,2.8c0.8,0,1.4-0.2,1.7-0.3l0.2,0.6
			C416.9,97.5,416.3,97.7,415.2,97.7z"/>
		<path class="st3" d="M421.7,97.7c-1.7,0-2.8-1.1-2.8-3.3c0-2.3,1.2-3.5,2.9-3.5c1.8,0,2.8,1.2,2.8,3.4
			C424.6,96.6,423.4,97.7,421.7,97.7z M423.9,94.3c0-1.2-0.4-2.9-2.1-2.9c-1.7,0-2.2,1.6-2.2,2.9c0,1.4,0.5,2.8,2.2,2.8
			C423.5,97.1,423.9,95.7,423.9,94.3L423.9,94.3z"/>
		<path class="st3" d="M431.2,97.6v-4.1c0-1.1,0-2-0.8-2c-0.5,0-0.9,0.6-1.1,0.9c0,0.3,0,0.6,0,0.9v4.3h-0.6v-4.3
			c0-0.9,0-1.8-0.7-1.8c-0.5,0-1,0.8-1.2,1.1v5h-0.7V91h0.7v0.8c0.2-0.4,0.6-0.9,1.2-0.9c0.7,0,1,0.4,1.1,0.9
			c0.3-0.5,0.6-0.9,1.3-0.9c1.4,0,1.4,1.3,1.4,2.4v4.3H431.2z"/>
		<path class="st3" d="M435.7,97.7c-0.6,0-1.1,0-1.5-0.1v2.6h-0.7V91h0.7v0.6c0.5-0.3,1.2-0.6,1.9-0.6c1.7,0,2.6,1.1,2.6,3.2
			C438.7,96.9,437.3,97.7,435.7,97.7z M438.1,94.4c0-1.4-0.3-2.9-2-2.9c-0.7,0-1.6,0.5-1.8,0.7V97c0.3,0,0.6,0.1,1.5,0.1
			C437.3,97.1,438,96,438.1,94.4L438.1,94.4z"/>
		<path class="st3" d="M445.2,97.6v-0.8c-0.5,0.3-1.3,0.9-2.4,0.9c-1.8,0-1.9-1.5-1.9-2.5V91h0.7v4c0,1.1,0,2,1.4,2
			c0.9,0,2-0.7,2.3-0.9V91h0.6v6.5H445.2z"/>
		<path class="st3" d="M451.2,97.7c-1.2,0-2.1-0.2-2.1-1.8v-4.3h-1.6V91h1.6v-1.3h0.6V91h3.7v0.6h-3.7v4.1c0,1,0.4,1.3,1.5,1.3
			c0.8,0,1.5-0.2,2.2-0.4l0.2,0.5C453,97.4,452.1,97.7,451.2,97.7z"/>
		<path class="st3" d="M455.8,94.4c0,2.4,1.2,2.7,2.7,2.7c0.5,0,1.3-0.1,1.5-0.2l0.1,0.6c-0.2,0.1-0.8,0.3-2,0.3
			c-1.8,0-3.1-0.8-3.1-3.3c0-2.6,1.4-3.5,2.9-3.5c1.5,0,2.4,1,2.4,3.2v0.2H455.8z M457.9,91.4c-1.1,0-2,0.8-2.1,2.4h3.9
			C459.7,92.4,459.1,91.4,457.9,91.4z"/>
		<path class="st3" d="M474,97.6v-4.1c0-1.2-0.1-2-1.5-2c-0.9,0-1.9,0.7-2.2,0.9v5.2h-0.7V91h0.7v0.8c0.5-0.3,1.2-0.9,2.3-0.9
			c1.9,0,2,1.4,2,2.4v4.3H474z"/>
		<path class="st3" d="M477.4,94.4c0,2.4,1.2,2.7,2.7,2.7c0.5,0,1.3-0.1,1.5-0.2l0.1,0.6c-0.2,0.1-0.8,0.3-2,0.3
			c-1.8,0-3.1-0.8-3.1-3.3c0-2.6,1.4-3.5,2.9-3.5c1.5,0,2.4,1,2.4,3.2v0.2H477.4z M479.5,91.4c-1.1,0-2,0.8-2.1,2.4h3.9
			C481.3,92.4,480.7,91.4,479.5,91.4z"/>
		<path class="st3" d="M487,94.3l2.8,3.3H489l-2.4-2.9l-2.4,2.9h-0.8l2.8-3.3l-2.8-3.3h0.8l2.4,2.9L489,91h0.8L487,94.3z"/>
		<path class="st3" d="M494.4,97.7c-1.2,0-2.1-0.2-2.1-1.8v-4.3h-1.6V91h1.6v-1.3h0.6V91h3.7v0.6H493v4.1c0,1,0.4,1.3,1.5,1.3
			c0.8,0,1.5-0.2,2.2-0.4l0.2,0.5C496.2,97.4,495.3,97.7,494.4,97.7z"/>
		<path class="st3" d="M507.9,97.7c-1,0-1.7-0.2-2.2-0.4l0.2-0.6c0.5,0.2,1.1,0.4,1.9,0.4c1,0,2.1-0.2,2.1-1.1c0-1.6-4-1.1-4-3.4
			c0-1.2,1-1.7,2.2-1.7c0.8,0,1.4,0.1,2,0.3l-0.2,0.5c-0.5-0.2-1.1-0.3-1.8-0.3c-0.9,0-1.5,0.3-1.5,1.1c0,1.8,4,1.3,4,3.4
			C510.6,97.4,508.9,97.7,507.9,97.7z"/>
		<path class="st3" d="M516,97.7c-1.2,0-2.1-0.2-2.1-1.8v-4.3h-1.6V91h1.6v-1.3h0.6V91h3.7v0.6h-3.7v4.1c0,1,0.4,1.3,1.5,1.3
			c0.8,0,1.5-0.2,2.2-0.4l0.2,0.5C517.8,97.4,516.9,97.7,516,97.7z"/>
		<path class="st3" d="M525.2,97.7c-0.5,0-1.1-0.2-1.2-0.9c-0.2,0.2-1,0.9-2.4,0.9c-1.1,0-1.8-0.6-1.8-1.8c0-1.6,1.4-1.9,2.4-2
			l1.7,0v-1c0-1.2-0.6-1.4-1.8-1.4c-0.6,0-1.3,0.2-1.5,0.3l-0.1-0.6c0.2-0.1,1-0.3,1.9-0.3c1.3,0,2.2,0.4,2.2,1.7v3.8
			c0,0.6,0.4,0.7,0.6,0.7L525.2,97.7z M524,94.4l-1.7,0.1c-1.1,0-1.7,0.6-1.7,1.3c0,1,0.5,1.3,1.3,1.3c0.9,0,2.1-0.8,2.1-0.9V94.4z"
			/>
		<path class="st3" d="M529.6,100.3c-0.9,0-1.8-0.2-2-0.2l0.1-0.6c0.1,0,1.1,0.2,1.6,0.2c1.2,0,2.2-0.2,2.2-1.8v-0.8
			c-0.4,0.4-1,0.6-1.7,0.6c-1.3,0-2.8-0.4-2.8-3.3c0-2.4,1.3-3.4,3-3.4c0.8,0,1.6,0.1,2.2,0.2v7C532.3,99.6,531.2,100.3,529.6,100.3
			z M531.6,91.6c-0.3-0.1-0.8-0.2-1.5-0.2c-1.7,0-2.3,1.3-2.3,2.9c0,1.9,0.7,2.7,2.2,2.7c0.8,0,1.4-0.5,1.7-0.7L531.6,91.6z"/>
		<path class="st3" d="M535,94.4c0,2.4,1.2,2.7,2.7,2.7c0.5,0,1.3-0.1,1.5-0.2l0.1,0.6c-0.2,0.1-0.8,0.3-2,0.3
			c-1.8,0-3.1-0.8-3.1-3.3c0-2.6,1.4-3.5,2.9-3.5c1.5,0,2.4,1,2.4,3.2v0.2H535z M537.1,91.4c-1.1,0-2,0.8-2.1,2.4h3.9
			C538.9,92.4,538.3,91.4,537.1,91.4z"/>
	</g>
	<g>
		<path class="st3" d="M347.6,72.1v-0.7c-0.4,0.4-1.2,0.8-1.8,0.8c-1.1,0-2.7-0.4-2.7-3.3c0-2.3,1.4-3.5,3-3.5c0.7,0,1,0,1.5,0.2V63
			h0.7v9H347.6z M347.6,66.2c-0.3-0.1-0.8-0.2-1.5-0.2c-1.7,0-2.3,1.5-2.3,3c0,1.9,0.8,2.7,2,2.7c0.7,0,1.6-0.6,1.8-0.8V66.2z"/>
		<path class="st3" d="M350.9,68.8c0,2.4,1.2,2.7,2.7,2.7c0.5,0,1.3-0.1,1.5-0.2l0.1,0.6c-0.2,0.1-0.8,0.3-2,0.3
			c-1.8,0-3.1-0.8-3.1-3.3c0-2.6,1.4-3.5,2.9-3.5c1.5,0,2.4,1,2.4,3.2v0.2H350.9z M353,65.9c-1.1,0-2,0.8-2.1,2.4h3.9
			C354.8,66.8,354.2,65.9,353,65.9z"/>
		<path class="st3" d="M357.2,72.1v-0.6h2.5v-7.9h-2.3V63h2.9v8.4h2.5v0.6H357.2z"/>
		<path class="st3" d="M364.8,72.1v-0.6h2.5v-5.3H365v-0.6h2.9v5.9h2.5v0.6H364.8z M367.6,64.1l-0.6-0.7l0.6-0.6l0.7,0.6L367.6,64.1
			z"/>
		<path class="st3" d="M374.9,72.1h-1l-2.5-6.5h0.7l2.1,5.3l0.3,0.8h0l0.3-0.8l2.3-5.3h0.7L374.9,72.1z"/>
		<path class="st3" d="M379.7,68.8c0,2.4,1.2,2.7,2.7,2.7c0.5,0,1.3-0.1,1.5-0.2l0.1,0.6c-0.2,0.1-0.8,0.3-2,0.3
			c-1.8,0-3.1-0.8-3.1-3.3c0-2.6,1.4-3.5,2.9-3.5c1.5,0,2.4,1,2.4,3.2v0.2H379.7z M381.8,65.9c-1.1,0-2,0.8-2.1,2.4h3.9
			C383.6,66.8,383,65.9,381.8,65.9z"/>
		<path class="st3" d="M391.9,66.5c-0.4-0.2-0.9-0.5-1.6-0.5c-0.9,0-1.5,0.6-1.8,1.1v4.4h2.4v0.6H386v-0.6h1.8v-5.3H386v-0.6h2.5
			v0.8c0.3-0.4,0.9-0.9,1.9-0.9c1.1,0,1.6,0.4,1.9,0.6L391.9,66.5z"/>
		<path class="st3" d="M405.4,72.1h-1l-1.1-6h0l-1.4,6h-1l-0.9-6.5h0.7l0.7,6.1h0l1.4-6.1h1l1.2,6.1h0l0.9-6.1h0.7L405.4,72.1z"/>
		<path class="st3" d="M413.1,72.1c-0.5,0-1.1-0.2-1.2-0.9c-0.2,0.2-1,0.9-2.4,0.9c-1.1,0-1.8-0.6-1.8-1.8c0-1.6,1.4-1.9,2.4-2
			l1.7,0v-1c0-1.2-0.6-1.4-1.8-1.4c-0.6,0-1.3,0.2-1.5,0.3l-0.1-0.6c0.2-0.1,1-0.3,1.9-0.3c1.3,0,2.2,0.4,2.2,1.7v3.8
			c0,0.6,0.4,0.7,0.6,0.7L413.1,72.1z M411.9,68.9l-1.7,0.1c-1.1,0-1.7,0.6-1.7,1.3c0,1,0.5,1.3,1.3,1.3c0.9,0,2.1-0.8,2.1-0.9V68.9
			z"/>
		<path class="st3" d="M418.4,72.1c-1.2,0-2.1-0.2-2.1-1.8v-4.3h-1.6v-0.6h1.6v-1.3h0.6v1.3h3.7v0.6h-3.7v4.1c0,1,0.4,1.3,1.5,1.3
			c0.8,0,1.5-0.2,2.2-0.4l0.2,0.5C420.1,71.9,419.2,72.1,418.4,72.1z"/>
		<path class="st3" d="M422.9,68.8c0,2.4,1.2,2.7,2.7,2.7c0.5,0,1.3-0.1,1.5-0.2l0.1,0.6c-0.2,0.1-0.8,0.3-2,0.3
			c-1.8,0-3.1-0.8-3.1-3.3c0-2.6,1.4-3.5,2.9-3.5c1.5,0,2.4,1,2.4,3.2v0.2H422.9z M425,65.9c-1.1,0-2,0.8-2.1,2.4h3.9
			C426.8,66.8,426.2,65.9,425,65.9z"/>
		<path class="st3" d="M435.1,66.5c-0.4-0.2-0.9-0.5-1.6-0.5c-0.9,0-1.5,0.6-1.8,1.1v4.4h2.4v0.6h-4.9v-0.6h1.8v-5.3h-1.8v-0.6h2.5
			v0.8c0.3-0.4,0.9-0.9,1.9-0.9c1.1,0,1.6,0.4,1.9,0.6L435.1,66.5z"/>
	</g>
	<g>
		<path class="st3" d="M438.9,17.9h-1l-1.1-6h0l-1.4,6h-1l-0.9-6.5h0.7l0.7,6.1h0l1.4-6.1h1l1.2,6.1h0l0.9-6.1h0.7L438.9,17.9z"/>
		<path class="st3" d="M446.5,17.9c-0.5,0-1.1-0.2-1.2-0.9c-0.2,0.2-1,0.9-2.4,0.9c-1.1,0-1.8-0.6-1.8-1.8c0-1.6,1.4-1.9,2.4-2
			l1.7,0v-1c0-1.2-0.6-1.4-1.8-1.4c-0.6,0-1.3,0.2-1.5,0.3l-0.1-0.6c0.2-0.1,1-0.3,1.9-0.3c1.3,0,2.2,0.4,2.2,1.7v3.8
			c0,0.6,0.4,0.7,0.6,0.7L446.5,17.9z M445.3,14.7l-1.7,0.1c-1.1,0-1.7,0.6-1.7,1.3c0,1,0.5,1.3,1.3,1.3c0.9,0,2.1-0.8,2.1-0.9V14.7
			z"/>
		<path class="st3" d="M448.6,17.9v-0.6h2.5v-5.3h-2.3v-0.6h2.9v5.9h2.5v0.6H448.6z M451.5,9.9l-0.6-0.7l0.6-0.6l0.7,0.6L451.5,9.9z
			"/>
		<path class="st3" d="M459,18c-1.2,0-2.1-0.2-2.1-1.8v-4.3h-1.6v-0.6h1.6V10h0.6v1.3h3.7v0.6h-3.7V16c0,1,0.4,1.3,1.5,1.3
			c0.8,0,1.5-0.2,2.2-0.4l0.2,0.5C460.7,17.7,459.9,18,459,18z"/>
		<path class="st3" d="M463,17.9v-0.6h2.5v-5.3h-2.3v-0.6h2.9v5.9h2.5v0.6H463z M465.9,9.9l-0.6-0.7l0.6-0.6l0.7,0.6L465.9,9.9z"/>
		<path class="st3" d="M474.6,17.9v-4.1c0-1.2-0.1-2-1.5-2c-0.9,0-1.9,0.7-2.2,0.9v5.2h-0.7v-6.5h0.7v0.8c0.5-0.3,1.2-0.9,2.3-0.9
			c1.9,0,2,1.4,2,2.4v4.3H474.6z"/>
		<path class="st3" d="M479.8,20.6c-0.9,0-1.8-0.2-2-0.2l0.1-0.6c0.1,0,1.1,0.2,1.6,0.2c1.2,0,2.2-0.2,2.2-1.8v-0.8
			c-0.4,0.4-1,0.6-1.7,0.6c-1.3,0-2.8-0.4-2.8-3.3c0-2.4,1.3-3.4,3-3.4c0.8,0,1.6,0.1,2.2,0.2v7C482.4,19.9,481.4,20.6,479.8,20.6z
			 M481.8,11.9c-0.3-0.1-0.8-0.2-1.5-0.2c-1.7,0-2.3,1.3-2.3,2.9c0,1.9,0.7,2.7,2.2,2.7c0.8,0,1.4-0.5,1.7-0.7L481.8,11.9z"/>
	</g>
	<rect x="414.5" y="2.9" class="st3" width="3.9" height="22.7"/>
	<rect x="419.9" y="2.9" class="st3" width="3.9" height="22.7"/>
	<rect x="425.3" y="2.9" class="st3" width="3.9" height="22.7"/>
	<line class="st14" x1="485.4" y1="21.3" x2="491.6" y2="37.5"/>
	<line class="st15" x1="484.6" y1="21.3" x2="491" y2="37.8"/>
</g>
<g>
	<g>
		<defs>
			<path id="SVGID_5_" d="M542.5,163.5H344.2c-1.9,0-3.4-1.5-3.4-3.4v-15.9c0-1.9,1.5-3.4,3.4-3.4h198.3c1.9,0,3.4,1.5,3.4,3.4V160
				C545.9,161.9,544.4,163.5,542.5,163.5z"/>
		</defs>
		<clipPath id="SVGID_6_">
			<use xlink:href="#SVGID_5_"  style="overflow:visible;"/>
		</clipPath>
		<rect x="441.4" y="137.8" class="st16" width="107.7" height="28.5"/>
	</g>
	<g>
		<path class="st3" d="M543.7,138.8c2.4,0,4.4,2,4.4,4.4v17.7c0,2.4-2,4.4-4.4,4.4H343c-2.4,0-4.4-2-4.4-4.4v-17.7
			c0-2.4,2-4.4,4.4-4.4H543.7 M543.7,137.8H343c-3,0-5.4,2.4-5.4,5.4v17.7c0,3,2.4,5.4,5.4,5.4h200.7c3,0,5.4-2.4,5.4-5.4v-17.7
			C549.1,140.2,546.6,137.8,543.7,137.8L543.7,137.8z"/>
	</g>
	<g>
		<path class="st3" d="M347,213c-1.5,0-2.7-0.3-2.7-2.2v-5.4h-2v-0.8h2v-1.7h0.8v1.7h4.7v0.8h-4.7v5.1c0,1.3,0.5,1.7,1.8,1.7
			c1,0,1.8-0.2,2.7-0.6l0.2,0.7C349.2,212.7,348.1,213,347,213z"/>
		<path class="st3" d="M352.1,212.9v-0.8h3.1v-6.7h-2.8v-0.7h3.7v7.4h3.1v0.8H352.1z M355.6,203l-0.8-0.8l0.8-0.8l0.8,0.8L355.6,203
			z"/>
		<path class="st3" d="M366.9,212.9v-5.1c0-1.3,0-2.5-1-2.5c-0.6,0-1.2,0.8-1.4,1.1c0,0.3,0,0.8,0,1.2v5.3h-0.8v-5.4
			c0-1.1,0.1-2.3-0.9-2.3c-0.6,0-1.2,1-1.5,1.3v6.3h-0.8v-8.2h0.8v0.9c0.3-0.5,0.8-1.1,1.5-1.1c0.9,0,1.3,0.5,1.4,1.1
			c0.3-0.6,0.8-1.1,1.6-1.1c1.8,0,1.8,1.6,1.8,3v5.3H366.9z"/>
		<path class="st3" d="M370.7,208.9c0.1,3,1.6,3.4,3.4,3.4c0.6,0,1.7-0.2,1.9-0.3l0.2,0.7c-0.3,0.1-1,0.3-2.5,0.3
			c-2.3,0-3.9-1-3.9-4.1c0-3.3,1.7-4.4,3.7-4.4c1.9,0,2.9,1.3,2.9,4.1v0.3H370.7z M373.4,205.2c-1.3,0-2.5,1-2.6,3h4.9
			C375.6,206.4,374.8,205.2,373.4,205.2z"/>
	</g>
	<g>
		<path class="st3" d="M302,156.9c-2.8,0-4-1.2-4-4.2c0-2.7,1.4-4.3,3.7-4.3c1.3,0,2,0.3,2.7,0.7l-0.3,0.6c-0.7-0.4-1.4-0.6-2.4-0.6
			c-1.7,0-2.8,1.3-2.8,3.5c0,2.4,0.8,3.5,3.3,3.5c1,0,1.8-0.2,2.1-0.3l0.2,0.7C304.1,156.6,303.4,156.9,302,156.9z"/>
		<path class="st3" d="M309.6,156.9c-0.8,0-1.4,0-1.8-0.1v3.3H307v-11.5h0.8v0.7c0.6-0.4,1.4-0.8,2.4-0.8c2.1,0,3.3,1.4,3.3,4
			C313.4,155.8,311.6,156.9,309.6,156.9z M312.5,152.8c0-1.8-0.4-3.6-2.5-3.6c-0.9,0-2,0.7-2.2,0.9v5.9c0.4,0.1,0.8,0.1,1.9,0.1
			C311.6,156.1,312.5,154.7,312.5,152.8L312.5,152.8z"/>
		<path class="st3" d="M321.5,156.7v-1c-0.7,0.4-1.6,1.2-3,1.2c-2.2,0-2.4-1.8-2.4-3.1v-5.3h0.8v5c0,1.3,0,2.5,1.7,2.5
			c1.1,0,2.5-0.9,2.8-1.2v-6.4h0.8v8.2H321.5z"/>
		<path class="st3" d="M324.6,156.7V156h3.1v-8.8l-3,1.1v-0.8l3.8-1.5v10h3.1v0.8H324.6z"/>
	</g>
	<g>
		<g>
			<line class="st4" x1="379.8" y1="208.5" x2="427.2" y2="208.5"/>
			<g>
				<polygon class="st3" points="425.2,211 424.8,210.6 426.9,208.5 424.8,206.5 425.2,206.1 427.8,208.5 				"/>
			</g>
		</g>
	</g>
	<g>
		<path class="st17" d="M472.2,155.9c-0.6,0-1,0-1.3-0.1v2.6H470v-9.2h0.9v0.6c0.4-0.3,1.1-0.7,1.8-0.7c1.6,0,2.5,1,2.5,3.2
			C475.2,155.1,473.9,155.9,472.2,155.9z M472.5,150c-0.6,0-1.4,0.4-1.6,0.6v4.4c0.3,0,0.6,0.1,1.3,0.1c1.4,0,2-1.1,2-2.5
			C474.3,151.2,474,150,472.5,150z"/>
		<path class="st17" d="M476.9,155.8V155h2.4v-7.5h-2.2v-0.8h3.1v8.2h2.4v0.8H476.9z"/>
		<path class="st17" d="M489.7,155.9c-0.6,0-1.3-0.2-1.4-0.8c-0.3,0.2-0.9,0.9-2.2,0.9c-1.2,0-1.8-0.6-1.8-1.8c0-1.6,1.4-1.9,2.5-2
			l1.5,0v-0.9c0-1-0.5-1.2-1.7-1.2c-0.6,0-1.3,0.2-1.5,0.3l-0.2-0.7c0.2-0.1,1.1-0.4,2-0.4c1.3,0,2.3,0.4,2.3,1.7v3.7
			c0,0.5,0.3,0.6,0.6,0.6L489.7,155.9z M488.2,152.7l-1.5,0.1c-1.1,0-1.6,0.6-1.6,1.2c0,0.9,0.4,1.1,1.2,1.1c0.8,0,1.8-0.6,1.9-0.7
			V152.7z"/>
		<path class="st17" d="M493.7,158.4h-0.9l1-2.6h-0.4l-2.3-6.5h1l2,5.9h0l2.3-5.9h0.9L493.7,158.4z"/>
		<path class="st17" d="M508.3,155.9c-1,0-1.7-0.1-2.2-0.3l0.2-0.8c0.5,0.2,1.2,0.3,1.9,0.3c1,0,2-0.2,2-1c0-1.5-3.9-0.9-3.9-3.3
			c0-1.3,1.1-1.8,2.4-1.8c0.8,0,1.5,0.1,2,0.3l-0.2,0.7c-0.5-0.2-1.1-0.3-1.8-0.3c-0.8,0-1.4,0.3-1.4,0.9c0,1.6,3.9,1.1,3.9,3.3
			C511.1,155.6,509.4,155.9,508.3,155.9z"/>
		<path class="st17" d="M515.8,155.9c-1.8,0-2.8-1.2-2.8-3.3c0-2.3,1.2-3.5,2.9-3.5c1.9,0,2.8,1.2,2.8,3.4
			C518.6,154.8,517.5,155.9,515.8,155.9z M515.8,149.9c-1.5,0-1.9,1.4-1.9,2.7c0,1.4,0.4,2.6,1.9,2.6c1.5,0,1.8-1.3,1.8-2.6
			C517.7,151.3,517.4,149.9,515.8,149.9z"/>
		<path class="st17" d="M524.6,155.8V155c-0.5,0.3-1.2,0.9-2.2,0.9c-1.8,0-1.9-1.4-1.9-2.5v-4.2h0.9v4c0,1,0,1.8,1.2,1.8
			c0.8,0,1.7-0.6,2-0.8v-5h0.9v6.5H524.6z"/>
		<path class="st17" d="M531.8,155.8v-4c0-1.1-0.1-1.8-1.3-1.8c-0.8,0-1.7,0.6-1.9,0.8v5.1h-0.9v-6.5h0.9v0.7
			c0.4-0.3,1.1-0.9,2.2-0.9c1.9,0,2,1.4,2,2.5v4.2H531.8z"/>
		<path class="st17" d="M539,155.8v-0.7c-0.4,0.4-1.1,0.8-1.7,0.8c-1.1,0-2.6-0.4-2.6-3.3c0-2.3,1.3-3.5,3-3.5c0.6,0,0.9,0,1.3,0.2
			v-2.5h0.9v9H539z M539,150.1c-0.3-0.1-0.7-0.2-1.3-0.2c-1.5,0-2.1,1.4-2.1,2.7c0,1.8,0.7,2.5,1.8,2.5c0.6,0,1.4-0.5,1.6-0.7V150.1
			z"/>
	</g>
	<g>
		<defs>
			<path id="SVGID_7_" d="M542.5,196H344.2c-1.9,0-3.4-1.5-3.4-3.4v-15.9c0-1.9,1.5-3.4,3.4-3.4h198.3c1.9,0,3.4,1.5,3.4,3.4v15.9
				C545.9,194.4,544.4,196,542.5,196z"/>
		</defs>
		<clipPath id="SVGID_8_">
			<use xlink:href="#SVGID_7_"  style="overflow:visible;"/>
		</clipPath>
		<rect x="340.7" y="173.2" class="st18" width="48.4" height="22.7"/>
		<rect x="377" y="173.2" class="st18" width="12.1" height="22.7"/>
		<rect x="393.2" y="173.2" class="st18" width="2.3" height="22.7"/>
		<rect x="405.3" y="173.2" class="st18" width="3.1" height="22.7"/>
		<rect x="406.4" y="173.2" class="st18" width="3.1" height="22.7"/>
		<rect x="407.5" y="173.2" class="st18" width="3.1" height="22.7"/>
		<rect x="411.6" y="173.2" class="st18" width="3.1" height="22.7"/>
		<rect x="415.7" y="173.2" class="st18" width="0.7" height="22.7"/>
		<rect x="418.7" y="173.2" class="st18" width="1.1" height="22.7"/>
		<rect x="424" y="173.2" class="st18" width="25.2" height="22.7"/>
		<rect x="447.9" y="173.2" class="st18" width="28.7" height="22.7"/>
		<rect x="481.9" y="173.2" class="st18" width="14.9" height="22.7"/>
		<rect x="495.2" y="173.2" class="st18" width="51.8" height="22.7"/>
		<rect x="478.1" y="173.2" class="st18" width="0.7" height="22.7"/>
		<rect x="480.5" y="173.2" class="st18" width="1" height="22.7"/>
	</g>
	<g>
		<path class="st3" d="M543.7,171.3c2.4,0,4.4,2,4.4,4.4v17.7c0,2.4-2,4.4-4.4,4.4H343c-2.4,0-4.4-2-4.4-4.4v-17.7
			c0-2.4,2-4.4,4.4-4.4H543.7 M543.7,170.3H343c-3,0-5.4,2.4-5.4,5.4v17.7c0,3,2.4,5.4,5.4,5.4h200.7c3,0,5.4-2.4,5.4-5.4v-17.7
			C549.1,172.7,546.6,170.3,543.7,170.3L543.7,170.3z"/>
	</g>
	<g>
		<path class="st3" d="M302,189.4c-2.8,0-4-1.2-4-4.2c0-2.7,1.4-4.3,3.7-4.3c1.3,0,2,0.3,2.7,0.7l-0.3,0.6c-0.7-0.4-1.4-0.6-2.4-0.6
			c-1.7,0-2.8,1.3-2.8,3.5c0,2.4,0.8,3.5,3.3,3.5c1,0,1.8-0.2,2.1-0.3l0.2,0.7C304.1,189.1,303.4,189.4,302,189.4z"/>
		<path class="st3" d="M309.6,189.3c-0.8,0-1.4,0-1.8-0.1v3.3H307V181h0.8v0.7c0.6-0.4,1.4-0.8,2.4-0.8c2.1,0,3.3,1.4,3.3,4
			C313.4,188.3,311.6,189.3,309.6,189.3z M312.5,185.3c0-1.8-0.4-3.6-2.5-3.6c-0.9,0-2,0.7-2.2,0.9v5.9c0.4,0.1,0.8,0.1,1.9,0.1
			C311.6,188.6,312.5,187.2,312.5,185.3L312.5,185.3z"/>
		<path class="st3" d="M321.5,189.2v-1c-0.7,0.4-1.6,1.2-3,1.2c-2.2,0-2.4-1.8-2.4-3.1V181h0.8v5c0,1.3,0,2.5,1.7,2.5
			c1.1,0,2.5-0.9,2.8-1.2V181h0.8v8.2H321.5z"/>
		<path class="st3" d="M324.8,189.2v-0.8c0.1-0.2,5.1-4.4,5.1-6.9c0-1.7-0.7-2.3-2.1-2.3c-1.2,0-2.1,0.6-2.3,0.7l-0.4-0.6
			c0.4-0.3,1.3-0.9,2.7-0.9c2.4,0,2.9,1.6,2.9,2.9c0,2.3-2.2,4.6-4.9,7h5.6v0.8H324.8z"/>
	</g>
	<g>
		<path class="st17" d="M429,188.4c-0.6,0-1,0-1.3-0.1v2.6h-0.9v-9.2h0.9v0.6c0.4-0.3,1.1-0.7,1.8-0.7c1.6,0,2.5,1,2.5,3.2
			C432,187.6,430.7,188.4,429,188.4z M429.3,182.4c-0.6,0-1.4,0.4-1.6,0.6v4.4c0.3,0,0.6,0.1,1.3,0.1c1.4,0,2-1.1,2-2.5
			C431.1,183.7,430.8,182.4,429.3,182.4z"/>
		<path class="st17" d="M439.6,182.9c-0.4-0.2-0.8-0.4-1.5-0.4c-0.8,0-1.4,0.5-1.8,0.9v4.1h2.4v0.8h-5v-0.8h1.7v-5h-1.7v-0.8h2.7
			v0.8c0.3-0.4,0.9-0.9,1.9-0.9c0.9,0,1.3,0.3,1.6,0.5L439.6,182.9z"/>
		<path class="st17" d="M443.8,188.4c-1.8,0-2.8-1.2-2.8-3.3c0-2.3,1.2-3.5,2.9-3.5c1.9,0,2.8,1.2,2.8,3.4
			C446.6,187.3,445.5,188.4,443.8,188.4z M443.8,182.4c-1.5,0-1.9,1.4-1.9,2.7c0,1.4,0.4,2.6,1.9,2.6c1.5,0,1.8-1.3,1.8-2.6
			C445.7,183.8,445.4,182.4,443.8,182.4z"/>
		<path class="st17" d="M451.7,188.4c-2.3,0-3.3-1-3.3-3.4c0-2.1,1.2-3.4,3.1-3.4c1,0,1.6,0.2,2.2,0.6l-0.3,0.7
			c-0.5-0.3-1.1-0.4-1.9-0.4c-1.2,0-2.1,0.9-2.1,2.6c0,1.8,0.6,2.6,2.5,2.6c0.7,0,1.3-0.1,1.7-0.2l0.2,0.8
			C453.3,188.2,452.7,188.4,451.7,188.4z"/>
		<path class="st17" d="M456.5,185.2c0.1,2.1,1.1,2.3,2.4,2.3c0.5,0,1.3-0.1,1.7-0.2l0.2,0.8c-0.3,0.1-1,0.3-2.1,0.3
			c-1.9,0-3.1-0.8-3.1-3.3c0-2.7,1.3-3.5,3-3.5c1.6,0,2.4,1.1,2.4,3.3v0.3H456.5z M458.3,182.3c-1,0-1.7,0.7-1.8,2.2h3.4
			C459.9,183.1,459.3,182.3,458.3,182.3z"/>
		<path class="st17" d="M465.1,188.4c-1,0-1.7-0.1-2.2-0.3l0.2-0.8c0.5,0.2,1.2,0.3,1.9,0.3c1,0,2-0.2,2-1c0-1.5-3.9-0.9-3.9-3.3
			c0-1.3,1.1-1.8,2.4-1.8c0.8,0,1.5,0.1,2,0.3l-0.2,0.7c-0.5-0.2-1.1-0.3-1.8-0.3c-0.8,0-1.4,0.3-1.4,0.9c0,1.6,3.9,1.1,3.9,3.3
			C467.9,188.1,466.2,188.4,465.1,188.4z"/>
		<path class="st17" d="M472.3,188.4c-1,0-1.7-0.1-2.2-0.3l0.2-0.8c0.5,0.2,1.2,0.3,1.9,0.3c1,0,2-0.2,2-1c0-1.5-3.9-0.9-3.9-3.3
			c0-1.3,1.1-1.8,2.4-1.8c0.8,0,1.5,0.1,2,0.3l-0.2,0.7c-0.5-0.2-1.1-0.3-1.8-0.3c-0.8,0-1.4,0.3-1.4,0.9c0,1.6,3.9,1.1,3.9,3.3
			C475.1,188.1,473.4,188.4,472.3,188.4z"/>
		<path class="st17" d="M489.1,188.3v-4.2c0-1,0-1.8-0.7-1.8c-0.4,0-0.8,0.5-0.9,0.7c0,0.3,0,0.6,0,0.9v4.4h-0.8v-4.4
			c0-0.8,0-1.6-0.6-1.6c-0.4,0-0.8,0.6-1,0.9v5.1h-0.9v-6.5h0.9v0.7c0.2-0.4,0.6-0.9,1.2-0.9c0.7,0,1,0.4,1.1,0.9
			c0.3-0.5,0.6-0.9,1.3-0.9c1.3,0,1.4,1.1,1.4,2.3v4.4H489.1z"/>
		<path class="st17" d="M492.5,185.2c0.1,2.1,1.1,2.3,2.4,2.3c0.5,0,1.3-0.1,1.7-0.2l0.2,0.8c-0.3,0.1-1,0.3-2.1,0.3
			c-1.9,0-3.1-0.8-3.1-3.3c0-2.7,1.3-3.5,3-3.5c1.6,0,2.4,1.1,2.4,3.3v0.3H492.5z M494.3,182.3c-1,0-1.7,0.7-1.8,2.2h3.4
			C495.9,183.1,495.3,182.3,494.3,182.3z"/>
		<path class="st17" d="M501.1,188.4c-1,0-1.7-0.1-2.2-0.3l0.2-0.8c0.5,0.2,1.2,0.3,1.9,0.3c1,0,2-0.2,2-1c0-1.5-3.9-0.9-3.9-3.3
			c0-1.3,1.1-1.8,2.4-1.8c0.8,0,1.5,0.1,2,0.3l-0.2,0.7c-0.5-0.2-1.1-0.3-1.8-0.3c-0.8,0-1.4,0.3-1.4,0.9c0,1.6,3.9,1.1,3.9,3.3
			C503.9,188.1,502.2,188.4,501.1,188.4z"/>
		<path class="st17" d="M508.3,188.4c-1,0-1.7-0.1-2.2-0.3l0.2-0.8c0.5,0.2,1.2,0.3,1.9,0.3c1,0,2-0.2,2-1c0-1.5-3.9-0.9-3.9-3.3
			c0-1.3,1.1-1.8,2.4-1.8c0.8,0,1.5,0.1,2,0.3l-0.2,0.7c-0.5-0.2-1.1-0.3-1.8-0.3c-0.8,0-1.4,0.3-1.4,0.9c0,1.6,3.9,1.1,3.9,3.3
			C511.1,188.1,509.4,188.4,508.3,188.4z"/>
		<path class="st17" d="M518.5,188.4c-0.6,0-1.3-0.2-1.4-0.8c-0.3,0.2-0.9,0.9-2.2,0.9c-1.2,0-1.8-0.6-1.8-1.8c0-1.6,1.4-1.9,2.5-2
			l1.5,0v-0.9c0-1-0.5-1.2-1.7-1.2c-0.6,0-1.3,0.2-1.5,0.3l-0.2-0.7c0.2-0.1,1.1-0.4,2-0.4c1.3,0,2.3,0.4,2.3,1.7v3.7
			c0,0.5,0.3,0.6,0.6,0.6L518.5,188.4z M517,185.2l-1.5,0.1c-1.1,0-1.6,0.6-1.6,1.2c0,0.9,0.4,1.1,1.2,1.1c0.8,0,1.8-0.6,1.9-0.7
			V185.2z"/>
		<path class="st17" d="M522.9,191c-1,0-1.8-0.2-2.1-0.2l0.2-0.8c0.3,0.1,1.2,0.2,1.7,0.2c1.1,0,2-0.2,2-1.7v-0.7
			c-0.4,0.4-0.9,0.6-1.6,0.6c-1.3,0-2.7-0.4-2.7-3.3c0-2.3,1.3-3.4,3-3.4c0.8,0,1.5,0.1,2.2,0.2v6.9
			C525.6,190.3,524.4,191,522.9,191z M524.6,182.5c-0.3-0.1-0.7-0.1-1.3-0.1c-1.6,0-2.1,1.2-2.1,2.7c0,1.8,0.6,2.5,1.9,2.5
			c0.6,0,1.2-0.4,1.4-0.6V182.5z"/>
		<path class="st17" d="M528.5,185.2c0.1,2.1,1.1,2.3,2.4,2.3c0.5,0,1.3-0.1,1.7-0.2l0.2,0.8c-0.3,0.1-1,0.3-2.1,0.3
			c-1.9,0-3.1-0.8-3.1-3.3c0-2.7,1.3-3.5,3-3.5c1.6,0,2.4,1.1,2.4,3.3v0.3H528.5z M530.3,182.3c-1,0-1.7,0.7-1.8,2.2h3.4
			C531.9,183.1,531.3,182.3,530.3,182.3z"/>
		<path class="st17" d="M537.1,188.4c-1,0-1.7-0.1-2.2-0.3l0.2-0.8c0.5,0.2,1.2,0.3,1.9,0.3c1,0,2-0.2,2-1c0-1.5-3.9-0.9-3.9-3.3
			c0-1.3,1.1-1.8,2.4-1.8c0.8,0,1.5,0.1,2,0.3l-0.2,0.7c-0.5-0.2-1.1-0.3-1.8-0.3c-0.8,0-1.4,0.3-1.4,0.9c0,1.6,3.9,1.1,3.9,3.3
			C539.9,188.1,538.2,188.4,537.1,188.4z"/>
	</g>
</g>
</svg>
